<svg width="180" height="28" viewBox="0 0 180 28" fill="none" xmlns="http://www.w3.org/2000/svg">
<path d="M53.7999 10.6499C51.9499 10.6499 50.4399 12.2099 50.4399 14.1199C50.4399 16.0299 51.9399 17.5899 53.7999 17.5899C55.6599 17.5899 57.1499 16.0399 57.1499 14.1199C57.1499 12.1999 55.6499 10.6499 53.7999 10.6499Z" fill="black"/>
<path d="M141.46 10.54C140 10.54 138.77 11.47 138.36 12.68H144.57C144.18 11.44 142.93 10.54 141.46 10.54Z" fill="black"/>
<path d="M92.9899 10.6396C91.1499 10.6396 89.6699 12.1696 89.6699 14.0696C89.6699 15.9696 91.1599 17.4996 92.9899 17.4996C94.8199 17.4996 96.3099 15.9696 96.3099 14.0696C96.3099 12.1696 94.8199 10.6396 92.9899 10.6396Z" fill="black"/>
<path d="M180 0.0598049C179.85 0.0598049 155.93 0.0598049 125.59 0.0598049V9.0498C126.39 8.2698 127.51 7.8098 128.75 7.8098C131.15 7.8098 132.81 9.4998 133.11 11.8398V20.2498H130.4V13.0098C130.4 11.7498 129.32 10.7198 127.99 10.7198C126.66 10.7198 125.71 11.7898 125.58 13.0098V20.2498H122.79V0.0598049C94.98 0.0598049 62.33 0.0598049 37.69 0.0598049V9.0798C38.49 8.2998 39.61 7.8298 40.86 7.8298C43.26 7.8298 44.91 9.5198 45.22 11.8598V20.2698H42.5V13.0298C42.51 11.7598 41.43 10.7398 40.1 10.7398C38.77 10.7398 37.82 11.8098 37.69 13.0298V20.2698H34.9V0.0598049C14.41 0.0598049 0.11 0.0598049 0 0.0598049V27.3898H180.01C180.01 26.9798 180.01 0.469805 180.01 0.0498047L180 0.0598049ZM57.14 20.1698V18.9898C56.09 19.9098 55.25 20.4298 53.76 20.4298C50.42 20.4298 47.61 17.6098 47.61 14.1498C47.61 10.6898 50.41 7.85981 53.76 7.85981C55.26 7.85981 56.1 8.4298 57.15 9.35981V8.0898H59.88V20.1898H57.13L57.14 20.1698ZM70.56 20.1798V13.0698C70.56 11.7898 69.45 10.7598 68.08 10.7598C66.71 10.7598 65.59 11.7998 65.59 13.0698V20.1798H62.78V8.0798H65.39V9.18981C66.23 8.3398 67.41 7.8098 68.72 7.8098C71.22 7.8098 73.26 9.7398 73.31 12.1398L73.33 20.1698H70.57L70.56 20.1798ZM80.4 20.4798C77.68 20.4798 75.25 18.5598 75.21 16.1798H78.13C78.13 17.1398 79.14 17.9498 80.39 17.9498C81.56 17.9498 82.36 17.3998 82.31 16.5298C82.27 15.8198 81.47 15.5198 80.02 15.3198L79.34 15.1898C77.29 14.7598 75.43 13.7398 75.37 12.0098C75.3 9.5898 77.24 7.8798 79.97 7.8798C82.46 7.8798 84.53 9.4898 84.86 11.6298H81.8C81.8 11.0298 80.86 10.2698 79.89 10.2698C78.92 10.2698 78.13 10.7598 78.13 11.3498C78.13 12.1698 79.11 12.4098 79.9 12.5398L81.75 12.9298C83.7 13.2798 85.1 14.3398 85.1 16.2498C85.1 18.6598 83.14 20.4798 80.4 20.4798ZM98.97 19.2798V19.3998C98.97 21.9098 95.92 24.8198 92.82 24.8198C90.1 24.8198 87.79 23.2198 87.02 21.0098H89.93C90.61 21.7798 91.61 22.2698 92.73 22.2698C94.78 22.2698 96.45 20.5898 96.45 18.5198C96.45 18.4398 96.45 18.2898 96.45 18.2898C95.47 19.3798 94.15 20.1498 92.79 20.1498C89.52 20.1498 86.87 17.3898 86.87 13.9798C86.87 10.7598 89.59 7.8098 92.79 7.8098C94.33 7.8098 95.56 8.35981 96.43 9.28981V8.0798H98.96V19.2798H98.97ZM104.86 12.6298V20.1798H101.99V8.0798H104.62V9.11981C105.13 8.35981 106.3 7.7998 107.69 7.7998V10.4698C106.15 10.5198 104.91 11.4598 104.86 12.6198V12.6298ZM114.36 20.4098C111 20.4098 108.28 17.5898 108.28 14.1198C108.28 10.6498 111 7.8298 114.36 7.8298C117.72 7.8298 120.44 10.6398 120.44 14.1198C120.44 17.5998 117.72 20.4098 114.36 20.4098ZM147.37 15.2298H138.17C138.5 16.6598 139.82 17.6898 141.39 17.6898C142.48 17.6898 143.44 17.1798 144.04 16.3998H147.01C146.14 18.7598 143.96 20.4198 141.4 20.4198C138.08 20.4198 135.4 17.5998 135.4 14.1198C135.4 10.6398 138.09 7.8198 141.4 7.8198C144.71 7.8198 147.41 10.6398 147.41 14.1198C147.41 14.4998 147.43 14.8598 147.37 15.2198V15.2298Z" fill="black"/>
<path d="M114.34 10.6396C112.5 10.6396 111.02 12.1996 111.02 14.1196C111.02 16.0396 112.51 17.5996 114.34 17.5996C116.17 17.5996 117.66 16.0396 117.66 14.1196C117.66 12.1996 116.17 10.6396 114.34 10.6396Z" fill="black"/>
</svg>
