<svg width="196" height="31" viewBox="0 0 196 31" fill="none" xmlns="http://www.w3.org/2000/svg">
<path d="M164.3 5.74H172.07V0.25H164.3V5.74Z" fill="black"/>
<path d="M164.3 29.3301H172.07V8.56006H164.3V29.3301Z" fill="black"/>
<path d="M148.21 10.7499C149.23 9.85994 150.21 9.22994 151.44 8.65994C153.45 7.72994 155.45 7.57994 157.57 8.19994C159.85 8.86994 161.49 10.4699 162.2 12.7299C162.54 13.8199 162.69 14.7799 162.69 15.9199V29.3299H154.44V17.2699C154.44 16.8699 154.39 16.5299 154.27 16.1399C154.06 15.4499 153.6 14.9399 152.93 14.6599C151.47 14.0399 149.81 14.5899 149 15.9599C148.66 16.5299 148.51 17.0899 148.51 17.7599V29.3299H140.52V8.55994H148.02L148.19 10.7599" fill="black"/>
<path d="M56.34 10.7499C57.36 9.85994 58.3399 9.22994 59.5699 8.65994C61.5799 7.72994 63.58 7.57994 65.71 8.19994C67.99 8.86994 69.6299 10.4699 70.3499 12.7299C70.6899 13.8199 70.84 14.7799 70.84 15.9199V29.3299H62.59V17.2699C62.59 16.8699 62.5399 16.5299 62.4199 16.1399C62.2099 15.4499 61.75 14.9399 61.08 14.6599C59.62 14.0399 57.9599 14.5899 57.1599 15.9599C56.8199 16.5299 56.6699 17.0899 56.6699 17.7599V29.3299H48.6799V8.55994H56.1699L56.34 10.7599" fill="black"/>
<path d="M14.3699 20.37H9.03992V13.55H12.4999C13.1599 13.55 13.7099 13.53 14.3699 13.5C15.2799 13.45 16.04 13.04 16.58 12.31C16.87 11.92 17.0299 11.53 17.0999 11.05C17.1599 10.64 17.1699 10.3 17.1199 9.89C16.9699 8.37 15.7199 7.24 14.1899 7.24H9.02997V29.33H0.209961V0.25H14.6299C15.1999 0.25 15.6899 0.26 16.2599 0.29C20.0899 0.5 23.2399 2.62 24.8599 6.09C25.6999 7.9 25.99 9.63 25.77 11.62C25.31 15.8 22.3899 19.04 18.2899 19.94C16.9299 20.24 15.7499 20.37 14.3599 20.37" fill="black"/>
<path d="M130.21 8.15998C129.39 8.02998 128.69 7.97998 127.86 7.97998C127.03 7.97998 126.33 8.02998 125.51 8.15998C123.13 8.52998 121.19 9.48998 119.45 11.16C117.59 12.95 116.57 15.07 116.33 17.64C116.19 19.22 116.31 20.58 116.74 22.11C117.39 24.45 118.62 26.26 120.55 27.74C121.82 28.72 123.09 29.3 124.65 29.64C125.76 29.88 126.72 29.98 127.86 29.98C129 29.98 129.96 29.88 131.07 29.64C132.64 29.3 133.9 28.71 135.17 27.74L130.71 22.88C130 24.46 128.15 25.16 126.57 24.45C125.84 24.12 125.33 23.61 125 22.88C124.7 22.21 124.52 21.61 124.41 20.88C124.19 19.42 124.21 18.15 124.5 16.71C124.65 15.96 124.9 15.34 125.32 14.7C126.24 13.3 128.11 12.91 129.52 13.83C129.89 14.07 130.15 14.34 130.39 14.7C130.81 15.34 131.06 15.95 131.21 16.71C131.49 18.16 131.52 19.43 131.3 20.88C131.19 21.61 131.01 22.21 130.71 22.88L135.17 27.74C137.1 26.26 138.33 24.45 138.98 22.11C139.41 20.58 139.53 19.22 139.39 17.64C139.16 15.07 138.14 12.95 136.27 11.16C134.53 9.48998 132.6 8.52998 130.21 8.15998Z" fill="black"/>
<path d="M93.7699 27.6998C93.6499 25.9898 93.5898 24.5398 93.5498 22.8198C93.4998 20.5598 93.4799 18.6598 93.4599 16.4098C93.4599 15.1898 93.3199 14.1698 93.0099 12.9898C92.6099 11.4498 91.7098 10.2698 90.3098 9.48977C89.4698 9.01977 88.6999 8.72977 87.7599 8.52977C84.7599 7.88977 82.1198 7.83977 79.0998 8.35977C78.2498 8.50977 77.5498 8.70977 76.7498 9.03977C74.9098 9.79977 73.6398 11.1898 73.0498 13.0898C72.8198 13.8198 72.7598 14.4798 72.8498 15.2298C72.8698 15.3698 72.8999 15.4898 72.9599 15.6098L79.9499 15.7798C79.9299 15.3298 79.9899 14.9598 80.1399 14.5398C80.3699 13.8998 80.8199 13.4498 81.4599 13.2198C82.3999 12.8798 83.2998 12.8598 84.2498 13.1698C84.8698 13.3798 85.3199 13.8298 85.5099 14.4498C85.6299 14.8398 85.5699 15.2298 85.3299 15.5598C85.1199 15.8598 84.8699 16.0598 84.5299 16.1798C84.3199 16.2598 84.1398 16.3198 83.9298 16.3698C82.9598 16.6298 82.1299 16.8098 81.1399 16.9798C80.3499 17.1098 79.6898 17.2298 78.9098 17.3898C77.8498 17.5998 76.9699 17.8298 75.9399 18.1598C74.9999 18.4598 74.2598 18.8898 73.5398 19.5598C72.5998 20.4198 72.0599 21.4498 71.8799 22.7098C71.7599 23.5598 71.7898 24.2898 71.9798 25.1298C72.4698 27.2998 73.9698 28.8998 76.1098 29.5198C78.4798 30.2098 80.6898 30.0898 82.9798 29.1698C84.0898 28.7198 84.9399 28.0998 85.6999 27.1798L85.2099 23.6098C84.8599 24.1598 84.4199 24.5298 83.8299 24.7898C83.2799 25.0398 82.7698 25.1598 82.1698 25.2298C81.6698 25.2798 81.2298 25.2398 80.7398 25.1098C80.3398 24.9998 80.0298 24.8198 79.7498 24.5198C79.5098 24.2598 79.3698 23.9898 79.2998 23.6498C79.1898 23.1298 79.3599 22.6198 79.7699 22.2798C80.0399 22.0498 80.3099 21.8898 80.6499 21.7698C81.4599 21.4698 82.1598 21.2498 82.9898 21.0098C83.9898 20.7298 84.8299 20.4198 85.7699 19.9798C85.8599 20.7398 85.8598 21.3898 85.7498 22.1498C85.6698 22.6998 85.4999 23.1598 85.1999 23.6298L85.6898 27.1998C85.8398 27.7098 85.9798 28.1298 86.1598 28.6298C86.2598 28.9098 86.3899 29.1198 86.5799 29.3398H94.2799C93.9499 28.8198 93.7798 28.3098 93.7398 27.6998" fill="black"/>
<path d="M47.1399 27.6998C47.0199 25.9898 46.9598 24.5398 46.9198 22.8198C46.8698 20.5598 46.8499 18.6598 46.8299 16.4098C46.8299 15.1898 46.6899 14.1698 46.3799 12.9898C45.9799 11.4498 45.0798 10.2698 43.6798 9.48977C42.8398 9.01977 42.0699 8.72977 41.1299 8.52977C38.1299 7.88977 35.4898 7.83977 32.4698 8.35977C31.6198 8.50977 30.9198 8.70977 30.1198 9.03977C28.2798 9.79977 27.0098 11.1898 26.4198 13.0898C26.1898 13.8198 26.1298 14.4798 26.2198 15.2298C26.2398 15.3698 26.2699 15.4898 26.3299 15.6098L33.3199 15.7798C33.2999 15.3298 33.3599 14.9598 33.5099 14.5398C33.7399 13.8998 34.1899 13.4498 34.8299 13.2198C35.7699 12.8798 36.6698 12.8598 37.6198 13.1698C38.2498 13.3798 38.6899 13.8298 38.8899 14.4498C39.0099 14.8398 38.9499 15.2298 38.7099 15.5598C38.4999 15.8598 38.2498 16.0598 37.9098 16.1798C37.6998 16.2598 37.5198 16.3198 37.3098 16.3698C36.3398 16.6298 35.5099 16.8098 34.5199 16.9798C33.7399 17.1098 33.0698 17.2298 32.2898 17.3898C31.2298 17.5998 30.3499 17.8298 29.3199 18.1598C28.3799 18.4598 27.6398 18.8898 26.9198 19.5598C25.9798 20.4198 25.4399 21.4498 25.2599 22.7098C25.1399 23.5598 25.1698 24.2898 25.3598 25.1298C25.8498 27.2998 27.3498 28.8998 29.4898 29.5198C31.8598 30.2098 34.0698 30.0898 36.3598 29.1698C37.4698 28.7198 38.3199 28.0998 39.0799 27.1798L38.5899 23.6098C38.2399 24.1598 37.7999 24.5298 37.2099 24.7898C36.6599 25.0398 36.1498 25.1598 35.5498 25.2298C35.0498 25.2798 34.6098 25.2398 34.1198 25.1098C33.7198 24.9998 33.4099 24.8198 33.1399 24.5198C32.8999 24.2598 32.7599 23.9898 32.6899 23.6498C32.5799 23.1298 32.7498 22.6198 33.1598 22.2798C33.4298 22.0498 33.6998 21.8898 34.0398 21.7698C34.8498 21.4698 35.5499 21.2498 36.3799 21.0098C37.3799 20.7298 38.2198 20.4198 39.1598 19.9798C39.2498 20.7398 39.2499 21.3898 39.1399 22.1498C39.0599 22.6998 38.8899 23.1598 38.5899 23.6298L39.0799 27.1998C39.2299 27.7098 39.3698 28.1298 39.5498 28.6298C39.6498 28.9098 39.7798 29.1198 39.9698 29.3398H47.6698C47.3398 28.8198 47.1799 28.3098 47.1299 27.6998" fill="black"/>
<path d="M105.3 21.6901C105.89 21.7901 106.39 21.9201 106.96 22.1101C107.44 22.2701 107.77 22.6401 107.87 23.1301C107.98 23.6601 107.83 24.1701 107.45 24.5601C107.06 24.9501 106.62 25.1801 106.07 25.2701C105.34 25.3901 104.69 25.3301 103.99 25.0701C103.65 24.9501 103.38 24.8001 103.11 24.5701C102.75 24.2701 102.52 23.9201 102.38 23.4801C102.26 23.1001 102.22 22.7701 102.22 22.3701H94.6099V22.8101C94.6099 23.5301 94.7198 24.1301 94.9698 24.8001C95.3498 25.8101 95.8699 26.5901 96.6599 27.3201C97.6899 28.2801 98.7599 28.8801 100.12 29.2701C102.93 30.0701 105.46 30.2301 108.35 29.7901C109.71 29.5801 110.82 29.2201 112.04 28.5901C112.58 28.3101 113.01 28.0201 113.47 27.6301C115.52 25.9001 116.29 23.2701 115.47 20.7201C115.16 19.7601 114.67 19.0201 113.9 18.3501C112.85 17.4401 111.79 16.8601 110.46 16.4801C110.17 16.4001 109.92 16.3201 109.63 16.2401C108 15.7901 106.6 15.4901 104.93 15.2401C104.48 15.1701 104.11 15.1001 103.66 15.0001C103.46 14.9501 103.29 14.8901 103.1 14.8101C102.63 14.6001 102.42 14.0501 102.64 13.5801C102.65 13.5601 102.66 13.5301 102.68 13.5101C102.93 13.0601 103.3 12.7701 103.79 12.6201C104.66 12.3701 105.46 12.3901 106.31 12.6801C107.13 12.9601 107.64 13.7101 107.61 14.5701H114.94C114.94 13.6701 114.8 12.9101 114.49 12.0601C114.18 11.2001 113.71 10.5501 112.99 9.9801C112.37 9.4801 111.78 9.1501 111.03 8.8601C110.31 8.5801 109.67 8.4001 108.91 8.2701C107.09 7.9601 105.53 7.8701 103.69 7.9701C102.64 8.0301 101.75 8.1601 100.72 8.4001C99.3398 8.7301 98.2199 9.2601 97.0999 10.1401C96.1499 10.8901 95.5299 11.7601 95.1299 12.9001C94.9499 13.4201 94.8599 13.8801 94.8399 14.4201C94.7999 15.3301 94.9299 16.1101 95.2699 16.9501C95.8699 18.4701 96.9498 19.5401 98.4698 20.1501C99.2398 20.4601 99.9099 20.6601 100.73 20.8201C102.33 21.1501 103.68 21.4101 105.29 21.6801" fill="black"/>
<path d="M192.92 26.6299C191.35 28.2799 189.57 29.2599 187.34 29.7099C185.83 30.0099 184.51 30.0799 182.98 29.9199C180.95 29.7099 179.28 29.0599 177.64 27.8399C176.3 26.8399 175.35 25.7699 174.51 24.3199C173.87 23.1999 173.49 22.1599 173.28 20.8799C172.99 19.1099 173.06 17.5599 173.53 15.8299C174.59 11.8999 177.55 9.11986 181.53 8.28986C183.8 7.81986 185.83 7.86986 188.07 8.44986C189.67 8.85986 190.94 9.55986 192.15 10.6899C192.91 11.3999 193.46 12.1099 193.94 13.0299C194.51 14.1199 194.74 15.1799 194.67 16.4099H187.57C187.42 15.4599 186.96 14.6999 186.19 14.1199C185.2 13.3599 183.92 13.2999 182.85 13.9599C182.12 14.4099 181.65 15.0299 181.39 15.8399C180.78 17.7799 180.75 19.5799 181.3 21.5399C181.53 22.3599 181.92 23.0099 182.55 23.5999C183.26 24.2799 184.15 24.5599 185.12 24.4099C185.72 24.3199 186.21 24.0599 186.62 23.5999C187.05 23.1299 187.29 22.6199 187.4 21.9999C187.48 21.5599 187.52 21.1899 187.55 20.7399H195.04C195.19 22.9999 194.47 24.9799 192.92 26.6199" fill="black"/>
</svg>
