<svg width="141" height="36" viewBox="0 0 141 36" fill="none" xmlns="http://www.w3.org/2000/svg">
<path d="M20.75 21.1801C22.32 20.6401 26.66 19.1901 26.66 11.8801C26.66 4.57014 21.84 1.89014 13.34 1.89014H1.29004C0.870039 1.89014 0.52001 2.22014 0.51001 2.64014V33.9101C0.51001 34.3301 0.860039 34.6701 1.29004 34.6701H7.21997C7.63997 34.6701 7.99 34.3401 8 33.9201V21.8801H12.64L20.87 33.7601C21.26 34.3501 21.92 34.7001 22.63 34.7001H28.96C29.29 34.7001 29.56 34.4101 29.55 34.0801C29.55 33.9701 29.51 33.8601 29.45 33.7701L20.75 21.1901V21.1801ZM12.48 16.6701H8.01001V7.09014H12.48C16.12 7.09014 19.14 7.72014 19.14 11.8801C19.14 16.0401 16.12 16.6701 12.48 16.6701Z" fill="black"/>
<path d="M35.66 7.98021C37.8029 7.98021 39.54 6.24308 39.54 4.10022C39.54 1.95735 37.8029 0.220215 35.66 0.220215C33.5172 0.220215 31.78 1.95735 31.78 4.10022C31.78 6.24308 33.5172 7.98021 35.66 7.98021Z" fill="black"/>
<path d="M38.62 9.71045H32.7C32.2692 9.71045 31.92 10.0597 31.92 10.4904V33.8904C31.92 34.3212 32.2692 34.6704 32.7 34.6704H38.62C39.0508 34.6704 39.4 34.3212 39.4 33.8904V10.4904C39.4 10.0597 39.0508 9.71045 38.62 9.71045Z" fill="black"/>
<path d="M59.03 9.1001C53.47 9.1001 51.85 11.4101 50.89 12.3701V10.5001C50.89 10.0701 50.5399 9.7201 50.11 9.7101H44.31C43.88 9.7101 43.53 10.0701 43.54 10.5001V33.8801C43.54 34.3101 43.88 34.6701 44.31 34.6701H50.2199C50.6499 34.6701 51 34.3101 50.99 33.8801V20.6601C50.99 17.2701 53.0499 14.7501 56.4799 14.7501C60.1499 14.7501 61.9499 17.3401 61.9499 20.6601V33.8801C61.9499 34.3101 62.2899 34.6701 62.7299 34.6701H68.64C69.07 34.6701 69.42 34.3101 69.42 33.8801V18.8301C69.45 11.5301 64.36 9.1001 59.03 9.1001Z" fill="black"/>
<path d="M89.01 9.1001C83.45 9.1001 81.83 11.4101 80.87 12.3701V10.5001C80.87 10.0701 80.5199 9.7201 80.0899 9.7101H74.29C73.86 9.7101 73.51 10.0701 73.52 10.5001V33.8801C73.52 34.3101 73.86 34.6701 74.29 34.6701H80.1999C80.6299 34.6701 80.9799 34.3101 80.9699 33.8801V20.6601C80.9699 17.2701 83.0299 14.7501 86.4599 14.7501C90.1299 14.7501 91.93 17.3401 91.93 20.6601V33.8801C91.93 34.3101 92.2699 34.6701 92.7099 34.6701H98.62C99.05 34.6701 99.4 34.3101 99.4 33.8801V18.8301C99.43 11.5301 94.34 9.1001 89.01 9.1001Z" fill="black"/>
<path d="M110.97 9.79038C105.62 11.2704 103.79 14.9804 103.37 16.2204C103.25 16.5104 103.38 16.8304 103.67 16.9604C103.76 17.0004 103.86 17.0104 103.96 17.0004L110.63 16.9604C110.88 16.9704 111.12 16.8804 111.28 16.6904C112.68 14.9004 114.78 14.5304 116.72 14.6404C121.53 14.9204 121.15 18.8104 121.15 19.1304C105 17.6504 100.97 24.8604 103.01 30.1604C105.36 36.2404 117.18 36.9604 121.03 32.7104C121.52 34.0504 121.61 34.6504 122.67 34.6504H127.68C128.12 34.6504 128.47 34.3004 128.48 33.8604V19.1204C128.48 8.47039 116.52 8.25038 110.97 9.78038V9.79038ZM121.09 24.8004C121.09 28.4104 118.77 30.5504 114.81 30.6604C111.86 30.7404 109.39 29.4904 109.34 27.5604C109.19 23.1804 118.29 23.3704 120.34 23.5004C121.05 23.5404 121.09 23.5404 121.09 23.9104V24.8104V24.8004Z" fill="black"/>
<path d="M136.16 7.98021C138.303 7.98021 140.04 6.24308 140.04 4.10022C140.04 1.95735 138.303 0.220215 136.16 0.220215C134.017 0.220215 132.28 1.95735 132.28 4.10022C132.28 6.24308 134.017 7.98021 136.16 7.98021Z" fill="black"/>
<path d="M139.13 9.71045H133.21C132.779 9.71045 132.43 10.0597 132.43 10.4904V33.8904C132.43 34.3212 132.779 34.6704 133.21 34.6704H139.13C139.561 34.6704 139.91 34.3212 139.91 33.8904V10.4904C139.91 10.0597 139.561 9.71045 139.13 9.71045Z" fill="black"/>
</svg>
