<?xml version="1.0" encoding="UTF-8"?>
<svg id="_圖層_1" data-name="圖層_1" xmlns="http://www.w3.org/2000/svg" version="1.1" viewBox="0 0 214.5 36.2">
  <!-- Generator: Adobe Illustrator 29.3.1, SVG Export Plug-In . SVG Version: 2.1.0 Build 151)  -->
  <defs>
    <style>
      .st0 {
        fill-rule: evenodd;
      }
    </style>
  </defs>
  <path class="st0" d="M76.4,10c.9-.3.5-.4.8-1.1h.2v-.6h.2v-.4h.2c.6-1.9,1.3-3.8,1.9-5.7-.7-.3-2-.2-3.1-.2h-24.4c0,.4-.1.8-.2,1.1-.1,0-.3.1-.4.2v.8h-.2v.4h-.2c-.1.6-.3,1.1-.4,1.7-.1,0-.3.1-.4.2-.1.6-.3,1.3-.4,1.9h-.2v.4h-.2v.8c0,.2-.3,0-.4.6,2.8.5,6.6.2,9.7.2,0,.3-.1.5-.2.8h-.8v.4h-.2c-.3.3-.5.6-.8,1-.2,0-.4.1-.6.2v.4c-.5.1-.6.3-1,.6v.2h-.4v.2c-.3.2-.5.4-.8.6,0,.1-.1.3-.2.4h-.4c-.2.3-.4.5-.6.8h-.4c0,.2-.1.4-.2.6h-.4c-.3.3-.5.6-.8,1h-.4c-.3.3-.5.6-.8,1h-.4c-.1.2-.3.4-.4.6h-.4v.4c-.2,0-.4.1-.6.2-.2.3-.4.5-.6.8h-.4c-.3.4-.6.8-1,1.1h-.4c-.1.2-.3.4-.4.6h-.4c0,.2-.1.4-.2.6h-.4c-.1.2-.3.4-.4.6h-.2v.4h-.2c-.1.6-.3,1.3-.4,1.9h-.2v.4h-.2c-.1.6-.3,1.1-.4,1.7h-.2v.4h-.2v.8h-.2v.4h-.2v.6h-.2v.4h-.2c-.1.6-.3,1.1-.4,1.7h-.2v.4h-.2v.6h-.2v.6h-.2v.4h-.2v.8h-.2v.6c-.1,0-.3.1-.4.2v.8h-.2v.4c.3-.2.8-.5,1.1-.8.1-.2.3-.4.4-.6h.4c.2-.3.4-.5.6-.8h.4v-.4h.4c.1-.2.3-.4.4-.6.2-.1.4-.3.6-.4v-.2h.4c.2-.3.4-.5.6-.8.3-.1.5-.3.8-.4v-.4c.8-.2,1.4-.9,1.7-1.5h.6v-.4c.2,0,.4-.1.6-.2.3-.3.5-.6.8-1h.4v-.4h.4v-.2c.3-.2.6-.3.8-.6h.2v-.4h.6v-.4c.2,0,.4-.1.6-.2.3-.3.5-.6.8-1h.4v-.4h.4c.2-.3.4-.5.6-.8h.4c.3-.3.5-.6.8-1,.4-.3.3,0,.6-.4h.4c-.2.7-.4,1.4-.6,2.1h-.2v.4h-.2v.8h-.2c0,.3-.1.5-.2.8h-.2c0,.4-.1.9-.2,1.3h-.2v.4h-.2c0,.4-.1.8-.2,1.1h-.2v.4h-.2c-.1.6-.3,1.1-.4,1.7h-.2v.4h-.2v.8h-.2v.4h-.2c0,.4-.1.8-.2,1.1h-.2v.4h-.2v.6c-.2.5-.5.8-.6,1.5.7.1,4.2.5,4.8,0,.9-.2.4-.3.8-1h.2v-.6h.2v-.6h.2v-.4h.2v-.6h.2v-.6h.2v-.4h.2c.1-.6.3-1.3.4-1.9h.2v-.4h.2v-.6c.1,0,.3-.1.4-.2v-.8h.2v-.4h.2v-.8h.2v-.4h.2v-.6h.2v-.6h.2v-.6h.2v-.6h.2c0-.3.1-.5.2-.8h.2v-.8h.2c.2-.4,0-.4.4-.8.2-.2,0,0,.2-.2,0,.2.1.4.2.6h.2v.6h.2v.6h.2v.4h.2c.1.6.3,1.3.4,1.9h.2v.4h.2c0,.4.1.8.2,1.1h.2v.4h.2c.1.6.3,1.1.4,1.7h.2v.4h.2v.8h.2v.6h.2v.8c.1,0,.3.1.4.2.3,1.1.6,2.2,1,3.2.4-.1.2,0,.4-.2h.2v-.8h.2v-.4h.2c0-.4.1-.8.2-1.1h.2v-.4h.2c0-.4.1-.8.2-1.1h.2v-.4h.2v-.6h.2v-.4h.2c.1-.6.3-1.1.4-1.7h.2v-.4h.2c0-.4.1-.8.2-1.1h.2v-.6h.2v-.4h.2v-.6h.2c.2-.4,1-3.1,1-3.4h-.2v-.4h-.2c-.1-.6-.3-1.1-.4-1.7h-.2v-.4h-.2c0-.4-.1-.8-.2-1.1h-.2v-.4h-.2c-.1-.6-.3-1.1-.4-1.7h-.2v-.4h-.2c0-.4-.1-.9-.2-1.3h-.2v-.4h-.2c-.1-.6-.3-1.3-.4-1.9h-.2v-.4h-.2c-.1-.6-.3-1.3-.4-1.9h6.1c.7,0,1.9.2,2.3-.2ZM112,8.1h.2v-.6h.2v-.4h.2c.1-.6.3-1.1.4-1.7h.2v-.4h.2c.1-.6.3-1.1.4-1.7.2-.4.5-.8.6-1.3h-25.9c-.4.2-.4.9-.6,1.3h-.2v.6h-.2v.6h-.2v.4h-.2c0,.4-.1.8-.2,1.1h-.2c0,.4-.1.8-.2,1.1h-.2v.4h-.2v.6h-.2v.6h-.2c0,.3-.1.6-.2,1h-.2c0,.2.1.4.2.6h25.7c.3-.5.5-1,.8-1.5v-.6ZM149.4,8.3c-.8,0-3.4.2-3.8-.2h-.2c.2-.4.2-1.1.4-1.5h.2v-.4h.2c0-.4.1-.8.2-1.1.4-.9.9-1.7,1-3.1h-4.8v.2h-.4c-.3.2,0,.6-.2,1-.1,0-.3.1-.4.2v.8c-.3.7-.7,1.3-.8,2.3h-.4v.8h-.2c0,.5,0,.6-.2,1-2.3.4-5.5.2-8.2.2-.8,0-2.4.2-2.9-.2h-.2c.2-.5.2-1,.4-1.5h.2c.1-.6.3-1.1.4-1.7.4-.9.9-1.5,1-2.9h-5c-.4.2-.4.9-.6,1.3h-.2v.6h-.2v.6h-.2v.4h-.2v.8h-.2v.6h-.2v.6c-.1,0-.3.1-.4.2v.8h-.2c0,.2-.1.4-.2.6h-4.2c0,.6-.2,1-.4,1.5h-.2c0,.4-.1.8-.2,1.1h-.2v.4h-.2c-.1.6-.3,1.1-.4,1.7h-.2v.4h-.2v.6h-.2c-.3.7,0,1.1-.6,1.5v.6h.2v.2h3.2s0,.1.4.2c-.3,2.1-1.9,3.9-1.9,6.1,1,0,4.7.2,5.1-.2h.2v-.8h.2v-.4h.2v-.6c.5-1.2,1.4-2.8,1.5-4.2.4-.1.2,0,.4-.2h7.2c1.2,0,2.8-.1,3.6.2-.2,1.4-.9,2-1,3.6h-.4c0,.4-.1.9-.2,1.3h-.2v.4h-.2v.6h-.2v.6c-.1,0-.3.1-.4.2v.8h-.2c0,.4-.1.8-.2,1.1h-.2v.4h-.2v.8h-.2v.4c0,0-.3.2-.4.4h-17.7c-.1,0-.7,1.2-.8,1.3v.8c-.1,0-.3.1-.4.2v.8h-.2c0,.4-.1.8-.2,1.1h-.2v.4h-.2v.6c-.1,0-.3.1-.4.2v1h-.2v.6h-.2v.4h-.2v.6h-.2c0,.4-.1.8-.2,1.1h-.2c0,.2.1.4.2.6h13.7c3.1,0,6.6,0,9.3-.2.1-.9.3-.8.6-1.3,0-.4.1-.8.2-1.1h.2v-.4h.2c.1-.6.3-1.1.4-1.7h.2v-.4h.2c.1-.6.3-1.1.4-1.7h.2v-.4h.2v-.6h.2v-.6h.2v-.6h.2v-.6h.2v-.6c.1,0,.3-.1.4-.2v-.8h.2v-.4h.2v-.8h.2v-.4h.2v-.6h.2v-.4h.2c0-.3.1-.6.2-1h.2v-.8h.2v-.4h.2c0-.3.1-.6.2-1h.2c0-.4.1-.9.2-1.3h.2c0-.3.1-.5.2-.8h.2v-.8h.2v-.4c0,0,.3-.2.4-.4h4c1-2.7,1.9-5.3,2.9-8ZM199.2,8.3h.2v-.4h.2v-.8h.2c0-.3.1-.5.2-.8h.2c0-.4.1-.8.2-1.1h.2v-.4h.2v-.8h.2v-.4h.2c.1-.6.3-1.1.4-1.7h-9.9c-.9,0-3.1-.3-3.6.2h-.2c0,.4-.1.8-.2,1.1h-.2v.6h-.2v.4h-.2c-.1.6-.3,1.1-.4,1.7h-.2v.4h-.2v.6h-.2v.4h-.2v.8h-.2c-.1.4-.3.9-.4,1.3h13.7c0-.4.1-.8.2-1.1ZM208.2,2c-.1,0-.9,1.7-1,1.9v.8c-.1,0-.3.1-.4.2,0,.4-.1.9-.2,1.3h-.2c0,.3-.1.5-.2.8h-.2v1c-.1,0-.3.1-.4.2v.6c-.3.7-.7,1.3-.8,2.3h-.4c0,1.7-.8,2.8-1.3,4,0,.4-.1.8-.2,1.1h-.2v.4h-.2c0,.4-.1.8-.2,1.1h-.2v.4h-.2v.6h-.2v.8h-.2c0,.3-.1.5-.2.8h-.2c0,.4-.1.8-.2,1.1h-.2v.4h-.2v.8h-.2v.4h-.2c-.1.6-.3,1.3-.4,1.9h-.4c0,.7-.2,1.6-.6,1.9,0,.1-.1.3-.2.4h-13.9c-2.5,0-5.5-.2-7.6.2-.1.6-.3,1.1-.4,1.7h-.2v.4h-.2v.8h-.2c0,.3-.1.5-.2.8h-.2v.8h-.2v.4h-.2v.6h-.2c0,.4-.1.8-.2,1.1-.1,0-.3.1-.4.2-.2.8-.4,1.7-.6,2.5,4.6.4,11.6.2,17.2.2,3.1,0,6.8.3,9.5-.2,0-.3.1-.6.2-1h.4c0-1.8,1-3.3,1.5-4.6,0-.4.1-.8.2-1.1h.2v-.4h.2v-.8h.2c0-.3.1-.5.2-.8h.2v-.8h.2v-.4h.2c.1-.6.3-1.1.4-1.7.1,0,.3-.1.4-.2v-.8h.2c0-.4.1-.8.2-1.1h.2v-.4h.2v-.8h.2v-.4h.2c0-.4.1-.8.2-1.1h.2c0-.3.1-.5.2-.8h.2v-.8h.2v-.4h.2c.1-.6.3-1.1.4-1.7h.2v-.4h.2c.1-.6.3-1.1.4-1.7h.2v-.4h.2c0-.3.1-.6.2-1h.2c.1-.6.3-1.1.4-1.7h.2v-.4h.2v-.8h.2v-.4h.2v-.6h.2c0-.4.1-.8.2-1.1.1,0,.3-.1.4-.2.1-.6.3-1.3.4-1.9.1,0,.3-.1.4-.2v-1c.1,0,.3-.1.4-.2v-.6c.3-.6.6-1.1.6-2.1h-5ZM155.9,22.6c.3-.5.5-1,.8-1.5v-.6h.2v-.4h.2c0-.4.1-.8.2-1.1h.2v-.4h.2v-.8h.2v-.4h.2v-.8h.2c0-.4.1-.8.2-1.1h.4c0-1.9,1.2-2.8,1.3-4.6h-5.1c-.3.8-.6,1.5-1,2.3v.6h-.2v.6h-.2c0,.3-.1.6-.2,1h-.2v.4h-.2v.6h-.2c0,.4-.1.9-.2,1.3h-.2v.4h-.2v.6c-.1,0-.3.1-.4.2v.8h-.2c-.4.9-.3,1.9-1,2.5,0,.2.1.4.2.6h5ZM160.1,17.8h-.2v.8h-.2c0,.3-.1.5-.2.8h-.2v.8h-.2v.6h-.2c-.3.5-.2.9-.6,1.3,0,.2.1.4.2.6h4.8v-.2c.2-.1.4-.3.6-.4v-.4h.2v-.6h.2v-.6h.2v-.4h.2v-.6h.2v-.8c.1,0,.3-.1.4-.2,0-.4.1-.9.2-1.3h.2v-.4h.2c0-.4.1-.8.2-1.1.1,0,.3-.1.4-.2,0-.5.1-1,.2-1.5h.2c0-.3.1-.5.2-.8h.2v-.8c.2-.4.5-.8.6-1.3-1.2-.5-3.6-.2-5.1-.2,0,.2-.1.4-.2.6h-.2v.6h-.2v.4h-.2c0,.4-.1.9-.2,1.3h-.2v.4h-.2v.6h-.2v.4h-.2c0,.4-.1.8-.2,1.1h-.2v.4h-.2v.8h-.2v.4ZM175.2,17.1h.4c.1-2.5,1.7-3.6,1.7-6.1h-5.1c-.1,1.2-.7,2.1-1.1,3.1v.6h-.2v.4h-.2c0,.4-.1.9-.2,1.3h-.2c0,.3-.1.5-.2.8h-.2v.8h-.2v.4h-.2c-.1.6-.3,1.1-.4,1.7-1.2,2.7-2.1,5.7-3.2,8.4h-17.2c-.2,0-.7,1.5-.8,1.7v.6h-.2v.6h-.2c0,.3-.1.5-.2.8h-.2v.6h-.2v.6h-.2v.6h-.2v.6h-.2v.4h-.2c0,.6-.1,1.1-.2,1.7,3.4.3,7.5.2,11.3.2s7.7.1,11.1-.2l.8-2.3c.1,0,.3-.1.4-.2v-1h.2c0-.3.1-.6.2-1h.2v-.4h.2v-.8h.2v-.6h.2v-.4h.2c0-.4.1-.8.2-1.1h.2v-.4h.2c0-.4.1-.8.2-1.1h.2v-.4h.2c0-.4.1-.8.2-1.1h.2v-.4h.2c0-.4.1-.8.2-1.1h.2v-.8c.1,0,.3-.1.4-.2v-.8h.2c.3-.7.6-1.3.6-2.3h.4c0-1.3.7-1.8.8-3.1ZM194.8,20.5c.2-.7.5-.9.6-1.9h.4c.1-.6.3-1.3.4-1.9h.2v-.4h.2v-.6c.1,0,.3-.1.4-.2v-1c.2-.5.5-.8.6-1.5h-13.4v.2c-.4.3-.1.1-.4.6h-.2v.6h-.2v.4h-.2v.8c-.1,0-.3.1-.4.2,0,.4-.1.9-.2,1.3h-.2v.4h-.2v.6h-.2v.6h-.2c-.2.6,0,.6-.4,1,0,.5,0,.6.2,1h13.2ZM99.8,27h-16.8c-1.8,0-3.9,0-5.3.2-.2.7-.5,1.3-.8,1.9v.8c-.1,0-.3.1-.4.2,0,.4-.1.9-.2,1.3h-.2v.4h-.2c-.1.6-.3,1.1-.4,1.7h-.2v.4h-.2v.6c-.2.5-.5,1.1-.8,1.7.7.3,2,.2,3.1.2h24.4c.3-1.1.6-2.3,1-3.4h.2c0-.4.1-.8.2-1.1.1,0,.3-.1.4-.2v-.4h.2v-.8h.2v-.6h.2v-.6h.2v-.4h.2v-.6h.2c.2-.6,0-.6.4-1v-.2c-1.5-.3-3.6-.2-5.3-.2Z"/>
  <g>
    <polygon points="18.8 .7 1.1 18.4 1.1 .7 18.8 .7"/>
    <path d="M9.8,27.2c-1.1,0-1.7-.4-2.1-.8-.8-.8-1.4-2.4.2-5.8,1.2-2.4,3.2-5.1,5.7-7.6,2.5-2.5,5.2-4.5,7.6-5.7,3.4-1.6,5-1,5.8-.2.8.8,1.4,2.4-.2,5.8-1.2,2.4-3.2,5.1-5.7,7.6-2.5,2.5-5.2,4.5-7.6,5.7-1.6.8-2.8,1-3.7,1ZM24.9,7.9c-1.9,0-5.9,1.9-10.2,6.2-5.3,5.3-7,10.1-5.9,11.2.6.6,2.1.4,4-.5,2.2-1.1,4.8-3,7.2-5.3s4.3-4.9,5.3-7.2c.9-1.9,1.1-3.5.5-4h0c-.2-.2-.6-.3-1-.3Z"/>
    <path d="M7.8,25.2c-1.1,0-1.7-.4-2.1-.8-.8-.8-1.4-2.4.2-5.8,1.2-2.4,3.2-5.1,5.7-7.6,2.5-2.5,5.2-4.5,7.6-5.7,3.4-1.6,5-1,5.8-.2.8.8,1.4,2.4-.2,5.8-1.2,2.4-3.2,5.1-5.7,7.6s-5.2,4.5-7.6,5.7c-1.6.8-2.8,1-3.7,1ZM22.9,5.9c-1.9,0-5.9,1.9-10.2,6.2-5.3,5.3-7,10.1-5.9,11.2.6.6,2.1.4,4-.5,2.2-1.1,4.8-3,7.2-5.3,2.4-2.4,4.3-4.9,5.3-7.2.9-1.9,1.1-3.5.5-4h0c-.2-.2-.6-.3-1-.3Z"/>
    <g>
      <path d="M3.4,31.2h2.6l-.2.6h-1.9l-.3,1h1.7l-.2.5h-1.7l-.6,1.6h-.7l1.3-3.7Z"/>
      <path d="M6.4,31.2h.7l-.8,2.3s0,0,0,.1c0,0,0,.1,0,.2,0,.1,0,.2,0,.3s0,.2.1.2c0,0,.1,0,.2.1,0,0,.2,0,.3,0s.2,0,.4,0c.1,0,.2,0,.3-.1,0,0,.2-.2.3-.3,0-.1.2-.3.2-.5l.8-2.3h.7l-.8,2.3c0,.2-.1.3-.2.5,0,.2-.2.3-.3.5-.1.1-.3.3-.6.4-.2,0-.5.1-.9.1s-.4,0-.5,0-.3-.1-.4-.2c-.1,0-.2-.2-.3-.4,0-.1,0-.3,0-.5,0,0,0-.2,0-.3,0,0,0-.2,0-.2l.8-2.2Z"/>
      <path d="M11.7,31.2h.7l-.7,2.1c0,0,0,.1,0,.2,0,.1,0,.2-.1.3,0,.1,0,.2-.2.3,0,.1-.1.2-.2.3,0,.1-.2.2-.3.2,0,0-.2.1-.3.2,0,0-.2,0-.3,0-.1,0-.2,0-.3,0-.2,0-.4,0-.5,0-.1,0-.2-.1-.3-.2,0,0,0-.2-.1-.3,0,0,0-.2,0-.3,0,0,0-.2,0-.3,0,0,0-.2,0-.3h.6c0,.1,0,.3-.1.4,0,.3,0,.5.4.5s.2,0,.3,0,.2-.1.2-.2c0,0,.1-.2.2-.3,0-.1,0-.2.1-.4l.8-2.3Z"/>
      <path d="M12.9,31.2h.7l-1.3,3.7h-.7l1.3-3.7Z"/>
      <path d="M15.1,33.7c0,.3,0,.5.1.6.1.1.3.2.6.2s.2,0,.3,0,.2,0,.3-.1c0,0,.2-.1.2-.2,0,0,.1-.2.1-.3,0-.1,0-.2,0-.3,0,0,0-.1-.2-.2,0,0-.2,0-.3-.1-.1,0-.2,0-.3,0,0,0-.2,0-.3,0-.1,0-.2,0-.3-.2,0,0-.2-.2-.2-.3,0-.1,0-.3,0-.4,0-.2,0-.3.2-.5,0-.1.2-.3.3-.4.1-.1.3-.2.5-.2.2,0,.4,0,.6,0s.4,0,.5,0c.2,0,.3.1.4.2.1,0,.2.2.2.4,0,.2,0,.3,0,.6h-.6c0-.2,0-.4-.1-.5s-.3-.2-.6-.2-.1,0-.2,0-.2,0-.3,0c0,0-.2,0-.2.2,0,0-.1.2-.1.3,0,0,0,.2,0,.2,0,0,0,.1.2.2s.1,0,.2.1c0,0,.2,0,.3,0,.1,0,.3,0,.4.1.1,0,.2,0,.3.2.1,0,.2.2.2.3,0,.1,0,.3,0,.5,0,.1,0,.3-.1.4,0,.1-.2.3-.3.4s-.3.2-.5.3c-.2,0-.5.1-.7.1s-.4,0-.6,0c-.2,0-.3-.1-.4-.2-.1-.1-.2-.2-.2-.4,0-.2,0-.4,0-.6h.6Z"/>
      <path d="M20,31.2h.7v3.7c.1,0-.5,0-.5,0v-1h-1.5l-.7,1h-.7l2.8-3.7ZM20.1,31.9h0l-1.1,1.6h1.2v-1.6Z"/>
      <path d="M21.9,33.7c0,.3,0,.5.1.6.1.1.3.2.6.2s.2,0,.3,0,.2,0,.3-.1c0,0,.2-.1.2-.2,0,0,.1-.2.1-.3,0-.1,0-.2,0-.3,0,0,0-.1-.2-.2,0,0-.2,0-.3-.1-.1,0-.2,0-.3,0,0,0-.2,0-.3,0-.1,0-.2,0-.3-.2,0,0-.2-.2-.2-.3,0-.1,0-.3,0-.4,0-.2,0-.3.2-.5s.2-.3.3-.4c.1-.1.3-.2.5-.2.2,0,.4,0,.6,0s.4,0,.5,0c.2,0,.3.1.4.2.1,0,.2.2.2.4,0,.2,0,.3,0,.6h-.6c0-.2,0-.4-.1-.5s-.3-.2-.6-.2-.1,0-.2,0c0,0-.2,0-.3,0,0,0-.2,0-.2.2,0,0-.1.2-.1.3,0,0,0,.2,0,.2,0,0,0,.1.2.2s.1,0,.2.1c0,0,.2,0,.3,0,.1,0,.3,0,.4.1.1,0,.2,0,.3.2.1,0,.2.2.2.3,0,.1,0,.3,0,.5,0,.1,0,.3-.1.4,0,.1-.2.3-.3.4-.1.1-.3.2-.5.3-.2,0-.5.1-.7.1s-.4,0-.6,0c-.2,0-.3-.1-.4-.2-.1-.1-.2-.2-.2-.4,0-.2,0-.4,0-.6h.6Z"/>
      <path d="M25.6,31.2h.7l-.5,1.5h1.8l.5-1.5h.7l-1.3,3.7h-.7l.6-1.7h-1.8l-.6,1.7h-.7l1.3-3.7Z"/>
    </g>
  </g>
</svg>