<svg width="1894" height="75" viewBox="0 0 1894 75" fill="none" xmlns="http://www.w3.org/2000/svg">
<g style="mix-blend-mode:multiply" opacity="0.85">
<path d="M0 72.81C0.36 72.51 0.7 72.21 1.04 71.91C1.37 71.61 1.68 71.22 1.99 70.74C2.11 70.5 2.26 70.17 2.44 69.75C2.62 69.33 2.78 68.76 2.94 68.04C3.09 67.32 3.22 66.44 3.34 65.38C3.46 64.33 3.52 63.03 3.52 61.47V12.96C3.52 7.8 2.83 4.41 1.45 2.79C1.21 2.61 0.98 2.42 0.78 2.2C0.57 1.99 0.34 1.79 0.11 1.62H21.26C23.24 1.62 25.31 1.66 27.47 1.75C29.63 1.84 31.8 2.02 34 2.29C36.19 2.56 38.32 2.94 40.39 3.41C42.46 3.89 44.36 4.52 46.1 5.3C49.22 6.68 51.92 8.5 54.2 10.75C56.48 13 58.37 15.51 59.87 18.26C61.37 21.02 62.49 23.99 63.25 27.17C64 30.35 64.37 33.56 64.37 36.8C64.37 46.76 61.4 55.07 55.46 61.73C53.3 64.13 50.87 66.05 48.17 67.49C45.47 68.93 42.63 70.04 39.67 70.82C36.7 71.6 33.67 72.12 30.58 72.4C27.49 72.67 24.42 72.81 21.35 72.81H0ZM46.62 63.27C52.68 56.85 55.71 48.24 55.71 37.44C55.71 26.64 52.68 17.88 46.62 11.52C44.34 9.06 41.74 7.22 38.83 5.98C35.92 4.75 32.87 3.87 29.7 3.33C26.52 2.79 23.25 2.51 19.89 2.47C16.53 2.44 13.26 2.42 10.08 2.42V72.08C13.62 72.08 17.06 72.11 20.39 72.17C23.72 72.23 26.91 72.04 29.98 71.59C33.04 71.14 35.96 70.29 38.75 69.03C41.54 67.77 44.16 65.85 46.63 63.27H46.62Z" fill="#C68865"/>
<path d="M94.68 72.81C95.94 71.97 96.84 70.86 97.38 69.48C97.5 69 97.66 68.22 97.88 67.14C98.09 66.06 98.2 64.2 98.2 61.56V12.69C98.2 10.95 98.14 9.5 98.02 8.33C97.9 7.16 97.73 6.19 97.52 5.4C97.31 4.62 97.08 4.02 96.85 3.6C96.61 3.18 96.4 2.85 96.22 2.61C96.04 2.49 95.86 2.33 95.68 2.12C95.5 1.91 95.32 1.75 95.14 1.62H141.4L141.76 8.28C141.64 7.98 141.52 7.73 141.4 7.51C141.28 7.3 141.16 7.1 141.04 6.92C140.26 5.66 139.45 4.72 138.61 4.09C137.77 3.46 136.87 3.03 135.91 2.79C134.95 2.55 133.94 2.43 132.89 2.43H104.77V35.19H125.34C126.27 35.19 127.2 35.13 128.13 35.01C129.06 34.89 129.96 34.68 130.83 34.38C131.7 34.08 132.46 33.63 133.12 33.03C133.6 32.67 133.99 32.28 134.29 31.86C134.59 31.44 134.89 30.99 135.19 30.51V40.59C134.29 38.91 132.94 37.68 131.14 36.9C129.7 36.18 128.33 35.84 127.05 35.87C125.76 35.9 124.3 35.91 122.68 35.91H104.77V72H131.32C133.06 72 134.56 71.84 135.82 71.5C137.08 71.17 138.22 70.68 139.24 70.02C140.26 69.36 141.22 68.55 142.12 67.59C143.02 66.63 143.95 65.52 144.91 64.26L141.85 72.81H94.69H94.68Z" fill="#C68865"/>
<path d="M173.79 72.81C174.15 72.51 174.5 72.21 174.83 71.91C175.16 71.61 175.47 71.22 175.78 70.74C175.9 70.5 176.05 70.17 176.23 69.75C176.41 69.33 176.57 68.76 176.73 68.04C176.88 67.32 177.01 66.44 177.13 65.38C177.25 64.33 177.31 63.03 177.31 61.47V12.96C177.31 7.8 176.62 4.41 175.24 2.79C175 2.61 174.77 2.42 174.57 2.2C174.36 1.99 174.13 1.79 173.9 1.62H195.05C197.03 1.62 199.1 1.66 201.26 1.75C203.42 1.84 205.59 2.02 207.79 2.29C209.98 2.56 212.11 2.94 214.18 3.41C216.25 3.89 218.15 4.52 219.89 5.3C223.01 6.68 225.71 8.5 227.99 10.75C230.27 13 232.16 15.51 233.66 18.26C235.16 21.02 236.28 23.99 237.03 27.17C237.78 30.35 238.15 33.56 238.15 36.8C238.15 46.76 235.18 55.07 229.24 61.73C227.08 64.13 224.65 66.05 221.95 67.49C219.25 68.93 216.41 70.04 213.45 70.82C210.48 71.6 207.45 72.12 204.36 72.4C201.27 72.67 198.19 72.81 195.13 72.81H173.8H173.79ZM220.41 63.27C226.47 56.85 229.5 48.24 229.5 37.44C229.5 26.64 226.47 17.88 220.41 11.52C218.13 9.06 215.54 7.22 212.62 5.98C209.71 4.75 206.66 3.87 203.49 3.33C200.31 2.79 197.04 2.51 193.68 2.47C190.32 2.44 187.05 2.42 183.87 2.42V72.08C187.41 72.08 190.85 72.11 194.18 72.17C197.51 72.23 200.7 72.04 203.76 71.59C206.82 71.14 209.74 70.29 212.53 69.03C215.32 67.77 217.94 65.85 220.4 63.27H220.41Z" fill="#C68865"/>
<path d="M282.15 1.62C281.85 1.86 281.55 2.12 281.25 2.38C280.95 2.65 280.71 2.94 280.53 3.24C279.27 4.74 278.64 7.98 278.64 12.96V61.47C278.64 64.17 278.74 66.11 278.96 67.28C279.17 68.45 279.33 69.28 279.46 69.75C280 71.01 280.93 72.03 282.25 72.81H268.57C269.23 72.45 269.77 71.94 270.19 71.28C271.39 69.72 271.99 66.45 271.99 61.47V12.96C271.99 10.26 271.9 8.34 271.72 7.2C271.54 6.06 271.36 5.25 271.18 4.77C270.64 3.51 269.74 2.46 268.48 1.62H282.16H282.15Z" fill="#C68865"/>
<path d="M312.75 37.17C312.75 31.95 313.51 27.08 315.04 22.55C316.57 18.02 318.79 14.09 321.7 10.76C324.61 7.43 328.21 4.81 332.5 2.88C336.79 0.96 341.72 0 347.3 0H349.37C352.25 0 354.69 0.27 356.7 0.81C358.71 1.35 360.42 1.93 361.83 2.56C363.24 3.19 364.44 3.78 365.43 4.32C366.42 4.86 367.39 5.13 368.35 5.13C369.43 5.13 370.38 4.88 371.19 4.37C372 3.86 372.7 3.19 373.3 2.34L374.29 15.93C373.15 13.77 371.75 11.78 370.11 9.95C368.46 8.12 366.66 6.53 364.71 5.18C362.76 3.83 360.67 2.78 358.46 2.03C356.24 1.28 353.93 0.91 351.53 0.91C346.07 0.91 341.42 1.89 337.58 3.84C333.74 5.79 330.62 8.43 328.22 11.76C325.82 15.09 324.08 18.95 323 23.32C321.92 27.7 321.38 32.32 321.38 37.18C321.38 42.04 321.92 46.68 323 51.09C324.08 55.5 325.82 59.37 328.22 62.7C330.62 66.03 333.74 68.68 337.58 70.66C341.42 72.64 346.07 73.63 351.53 73.63C356.63 73.63 361.13 72.33 365.03 69.71C368.93 67.1 372.02 63.37 374.3 58.5L373.31 72.09C372.05 70.29 370.4 69.39 368.36 69.39C367.4 69.39 366.52 69.66 365.71 70.2C364.9 70.74 363.85 71.32 362.56 71.95C361.27 72.58 359.6 73.16 357.56 73.7C355.52 74.24 352.79 74.54 349.37 74.6H347.3C341.72 74.6 336.78 73.64 332.5 71.72C328.21 69.8 324.61 67.16 321.7 63.8C318.79 60.44 316.57 56.48 315.04 51.92C313.51 47.36 312.75 42.44 312.75 37.16V37.17Z" fill="#C68865"/>
<path d="M401.13 72.81C401.91 72.45 402.69 71.74 403.47 70.69C404.25 69.64 405 68.48 405.72 67.23C406.44 65.97 407.08 64.73 407.66 63.49C408.23 62.26 408.66 61.28 408.96 60.57L434.52 0.72L459.81 61.2C460.95 63.9 462.03 66.11 463.05 67.82C464.07 69.53 465.09 70.83 466.11 71.73C466.35 71.91 466.59 72.11 466.83 72.32C467.07 72.53 467.34 72.7 467.64 72.82H452.16C453 72.22 453.6 71.51 453.96 70.7C454.32 69.89 454.5 69.03 454.5 68.13C454.5 67.23 454.32 66.08 453.96 64.67C453.6 63.26 453 61.6 452.16 59.67L447.21 48.06H415.26L409.77 60.66C409.11 62.34 408.61 63.78 408.28 64.98C407.95 66.18 407.78 67.2 407.78 68.04C407.78 68.64 407.91 69.34 408.19 70.16C408.46 70.97 409.1 71.8 410.12 72.63L410.48 72.81H401.12H401.13ZM415.53 47.34H447.12L431.55 10.17L415.53 47.34Z" fill="#C68865"/>
<path d="M482.58 1.62H540.18L540.45 9.18C539.73 7.86 538.89 6.77 537.93 5.89C536.97 5.02 535.92 4.33 534.78 3.82C533.64 3.31 532.41 2.95 531.09 2.74C529.77 2.53 528.42 2.42 527.04 2.42H514.44V61.82C514.44 66.98 515.13 70.28 516.51 71.72C516.87 72.2 517.29 72.56 517.77 72.8H504.45C505.17 72.26 505.74 71.66 506.16 71C507.3 69.5 507.87 66.44 507.87 61.82V2.43H496.8C495.3 2.43 493.89 2.48 492.57 2.56C491.25 2.65 490.02 2.89 488.88 3.28C487.74 3.67 486.66 4.24 485.64 4.99C484.62 5.74 483.66 6.78 482.76 8.09C482.64 8.21 482.55 8.35 482.49 8.5C482.43 8.65 482.34 8.79 482.22 8.91L482.58 1.62Z" fill="#C68865"/>
<path d="M581.94 1.62C581.64 1.86 581.34 2.12 581.04 2.38C580.74 2.65 580.5 2.94 580.32 3.24C579.06 4.74 578.43 7.98 578.43 12.96V61.47C578.43 64.17 578.53 66.11 578.74 67.28C578.95 68.45 579.11 69.28 579.24 69.75C579.78 71.01 580.71 72.03 582.03 72.81H568.35C569.01 72.45 569.55 71.94 569.97 71.28C571.17 69.72 571.77 66.45 571.77 61.47V12.96C571.77 10.26 571.68 8.34 571.5 7.2C571.32 6.06 571.14 5.25 570.96 4.77C570.42 3.51 569.52 2.46 568.26 1.62H581.94Z" fill="#C68865"/>
<path d="M612.45 36.99C612.45 25.53 616.29 16.29 623.97 9.27C627.33 6.15 630.91 3.83 634.72 2.3C638.53 0.77 642.77 0 647.46 0C652.15 0 656.46 0.85 660.6 2.56C664.74 4.27 668.52 6.9 671.94 10.44C678.66 17.4 682.02 26.19 682.02 36.81C682.02 42.27 681.18 47.24 679.5 51.71C677.82 56.18 675.27 60.21 671.85 63.82C668.49 67.3 664.65 69.97 660.33 71.83C656.01 73.69 651.54 74.62 646.92 74.62C642.3 74.62 637.81 73.73 633.64 71.96C629.47 70.19 625.73 67.59 622.44 64.17C615.78 57.21 612.45 48.15 612.45 36.99ZM621.27 36.72C621.27 40.98 621.64 45.32 622.39 49.72C623.14 54.13 624.47 58.12 626.39 61.69C628.31 65.26 630.93 68.19 634.26 70.46C637.59 72.74 641.8 73.88 646.91 73.88C652.02 73.88 656.45 72.86 659.87 70.82C663.29 68.78 665.99 66.1 667.97 62.77C669.95 59.44 671.34 55.65 672.16 51.38C672.97 47.12 673.37 42.77 673.37 38.33C673.37 25.01 670.67 15.02 665.27 8.36C663.11 5.54 660.57 3.56 657.67 2.42C654.76 1.28 651.35 0.71 647.46 0.71C642.3 0.71 638.02 1.76 634.63 3.86C631.24 5.96 628.55 8.71 626.58 12.09C624.6 15.48 623.22 19.32 622.44 23.61C621.66 27.9 621.27 32.27 621.27 36.7V36.72Z" fill="#C68865"/>
<path d="M718.83 1.62L767.7 61.56V12.69C767.7 9.99 767.53 7.86 767.2 6.3C766.87 4.74 766.34 3.54 765.62 2.7C765.44 2.52 765.24 2.34 765.04 2.16C764.83 1.98 764.63 1.8 764.46 1.62H772.02C771.66 1.86 771.33 2.15 771.03 2.47C770.73 2.8 770.43 3.14 770.13 3.51C769.65 4.29 769.27 5.42 769.01 6.89C768.74 8.36 768.6 10.3 768.6 12.69V72.9L717.12 9.99V61.83C717.12 66.99 717.75 70.29 719.01 71.73C719.25 71.91 719.46 72.11 719.64 72.32C719.82 72.53 720.06 72.7 720.36 72.82H712.8C713.16 72.52 713.49 72.23 713.79 71.96C714.09 71.69 714.36 71.38 714.6 71.01C715.62 69.57 716.13 66.51 716.13 61.83V8.82L715.68 8.28C713.46 5.64 711.69 3.87 710.37 2.97C709.77 2.43 709.05 1.98 708.21 1.62H718.83Z" fill="#C68865"/>
<path d="M855.17 1.62H912.77L913.04 9.18C912.32 7.86 911.48 6.77 910.52 5.89C909.56 5.02 908.51 4.33 907.37 3.82C906.23 3.31 905 2.95 903.68 2.74C902.36 2.53 901.01 2.42 899.63 2.42H887.03V61.82C887.03 66.98 887.72 70.28 889.1 71.72C889.46 72.2 889.88 72.56 890.36 72.8H877.04C877.76 72.26 878.33 71.66 878.75 71C879.89 69.5 880.46 66.44 880.46 61.82V2.43H869.39C867.89 2.43 866.48 2.48 865.16 2.56C863.84 2.65 862.61 2.89 861.47 3.28C860.33 3.67 859.25 4.24 858.23 4.99C857.21 5.74 856.25 6.78 855.35 8.09C855.23 8.21 855.14 8.35 855.08 8.5C855.02 8.65 854.93 8.79 854.81 8.91L855.17 1.62Z" fill="#C68865"/>
<path d="M936.8 36.99C936.8 25.53 940.64 16.29 948.32 9.27C951.68 6.15 955.26 3.83 959.08 2.3C962.89 0.77 967.13 0 971.81 0C976.49 0 980.81 0.85 984.95 2.56C989.09 4.27 992.87 6.9 996.29 10.44C1003.01 17.4 1006.37 26.19 1006.37 36.81C1006.37 42.27 1005.53 47.24 1003.85 51.71C1002.17 56.18 999.62 60.21 996.2 63.82C992.84 67.3 989 69.97 984.68 71.83C980.36 73.69 975.89 74.62 971.27 74.62C966.65 74.62 962.16 73.73 958 71.96C953.83 70.19 950.09 67.59 946.79 64.17C940.13 57.21 936.8 48.15 936.8 36.99ZM945.62 36.72C945.62 40.98 945.99 45.32 946.74 49.72C947.49 54.13 948.82 58.12 950.74 61.69C952.66 65.26 955.28 68.19 958.61 70.46C961.94 72.74 966.15 73.88 971.25 73.88C976.35 73.88 980.79 72.86 984.21 70.82C987.63 68.78 990.33 66.1 992.31 62.77C994.29 59.44 995.69 55.65 996.49 51.38C997.3 47.12 997.7 42.77 997.7 38.33C997.7 25.01 995 15.02 989.6 8.36C987.44 5.54 984.9 3.56 981.99 2.42C979.08 1.28 975.67 0.71 971.78 0.71C966.62 0.71 962.34 1.76 958.95 3.86C955.56 5.96 952.88 8.71 950.9 12.09C948.92 15.48 947.54 19.32 946.76 23.61C945.98 27.9 945.59 32.27 945.59 36.7L945.62 36.72Z" fill="#C68865"/>
<path d="M1091.87 72.81C1093.13 71.97 1094.03 70.86 1094.57 69.48C1094.69 69 1094.85 68.22 1095.06 67.14C1095.27 66.06 1095.38 64.2 1095.38 61.56V12.69C1095.38 10.95 1095.32 9.5 1095.2 8.33C1095.08 7.16 1094.91 6.19 1094.7 5.4C1094.49 4.62 1094.26 4.02 1094.03 3.6C1093.79 3.18 1093.58 2.85 1093.4 2.61C1093.22 2.49 1093.04 2.33 1092.86 2.12C1092.68 1.91 1092.5 1.75 1092.32 1.62H1138.58L1138.94 8.28C1138.82 7.98 1138.7 7.73 1138.58 7.51C1138.46 7.3 1138.34 7.1 1138.22 6.92C1137.44 5.66 1136.63 4.72 1135.79 4.09C1134.95 3.46 1134.05 3.03 1133.09 2.79C1132.13 2.55 1131.12 2.43 1130.08 2.43H1101.96V35.19H1122.52C1123.45 35.19 1124.38 35.13 1125.31 35.01C1126.24 34.89 1127.14 34.68 1128.01 34.38C1128.88 34.08 1129.64 33.63 1130.3 33.03C1130.78 32.67 1131.17 32.28 1131.47 31.86C1131.77 31.44 1132.07 30.99 1132.37 30.51V40.59C1131.47 38.91 1130.12 37.68 1128.32 36.9C1126.88 36.18 1125.51 35.84 1124.22 35.87C1122.93 35.9 1121.47 35.91 1119.86 35.91H1101.95V72H1128.5C1130.24 72 1131.74 71.84 1133 71.5C1134.26 71.17 1135.4 70.68 1136.42 70.02C1137.44 69.36 1138.4 68.55 1139.3 67.59C1140.2 66.63 1141.13 65.52 1142.09 64.26L1139.03 72.81H1091.87Z" fill="#C68865"/>
<path d="M1180.97 61.47L1199.6 37.89L1183.94 15.03C1182.2 12.51 1180.3 10 1178.23 7.51C1176.16 5.02 1173.69 3.05 1170.81 1.62H1189.89C1188.87 2.46 1188.22 3.25 1187.96 4C1187.69 4.75 1187.55 5.43 1187.55 6.03C1187.55 7.83 1188.54 10.2 1190.52 13.14L1203.57 32.49L1218.51 13.5C1219.65 12.12 1220.43 11.12 1220.85 10.48C1221.27 9.85 1221.54 9.39 1221.66 9.09C1222.08 8.07 1222.29 7.05 1222.29 6.03C1222.29 4.65 1221.96 3.54 1221.3 2.7C1221.18 2.52 1221.03 2.34 1220.85 2.16C1220.67 1.98 1220.52 1.8 1220.4 1.62H1231.47C1228.95 3 1226.8 4.67 1225.04 6.62C1223.27 8.57 1221.51 10.69 1219.77 12.96L1203.93 33.12L1220.94 58.32C1223.22 61.74 1225.2 64.53 1226.88 66.69C1228.56 68.85 1230 70.41 1231.2 71.37C1231.56 71.67 1231.92 71.94 1232.28 72.18C1232.64 72.42 1233.03 72.63 1233.45 72.81H1215.72C1216.32 72.33 1216.83 71.67 1217.25 70.83C1217.67 69.99 1217.88 69.18 1217.88 68.4C1217.88 67.92 1217.82 67.41 1217.7 66.87C1217.58 66.33 1217.43 65.76 1217.25 65.16C1217.13 64.86 1216.86 64.38 1216.44 63.72C1216.02 63.06 1215.18 61.8 1213.92 59.94L1199.79 38.43L1182.33 60.75C1181.13 62.25 1180.32 63.33 1179.9 63.99C1179.48 64.65 1179.21 65.1 1179.09 65.34C1178.67 66.36 1178.46 67.38 1178.46 68.4C1178.46 70.26 1179.15 71.73 1180.53 72.81H1167.84C1170.66 71.49 1173.07 69.85 1175.09 67.9C1177.1 65.95 1179.06 63.81 1180.98 61.46L1180.97 61.47Z" fill="#C68865"/>
<path d="M1254.86 37.17C1254.86 31.95 1255.62 27.08 1257.15 22.55C1258.68 18.02 1260.9 14.09 1263.81 10.76C1266.72 7.43 1270.32 4.81 1274.61 2.88C1278.9 0.96 1283.84 0 1289.42 0H1291.49C1294.37 0 1296.81 0.27 1298.82 0.81C1300.83 1.35 1302.54 1.93 1303.95 2.56C1305.36 3.19 1306.56 3.78 1307.55 4.32C1308.54 4.86 1309.51 5.13 1310.47 5.13C1311.55 5.13 1312.5 4.88 1313.31 4.37C1314.12 3.86 1314.82 3.19 1315.43 2.34L1316.42 15.93C1315.28 13.77 1313.88 11.78 1312.23 9.95C1310.58 8.12 1308.78 6.53 1306.83 5.18C1304.88 3.83 1302.79 2.78 1300.57 2.03C1298.35 1.28 1296.04 0.91 1293.64 0.91C1288.18 0.91 1283.53 1.89 1279.69 3.84C1275.85 5.79 1272.73 8.43 1270.33 11.76C1267.93 15.09 1266.19 18.95 1265.11 23.32C1264.03 27.7 1263.49 32.32 1263.49 37.18C1263.49 42.04 1264.03 46.68 1265.11 51.09C1266.19 55.5 1267.93 59.37 1270.33 62.7C1272.73 66.03 1275.85 68.68 1279.69 70.66C1283.53 72.64 1288.18 73.63 1293.64 73.63C1298.74 73.63 1303.24 72.33 1307.14 69.71C1311.04 67.1 1314.13 63.37 1316.41 58.5L1315.42 72.09C1314.16 70.29 1312.51 69.39 1310.47 69.39C1309.51 69.39 1308.63 69.66 1307.81 70.2C1307 70.74 1305.95 71.32 1304.66 71.95C1303.37 72.58 1301.7 73.16 1299.66 73.7C1297.62 74.24 1294.89 74.54 1291.47 74.6H1289.4C1283.82 74.6 1278.88 73.64 1274.59 71.72C1270.3 69.8 1266.7 67.16 1263.79 63.8C1260.88 60.44 1258.66 56.48 1257.13 51.92C1255.6 47.36 1254.84 42.44 1254.84 37.16L1254.86 37.17Z" fill="#C68865"/>
<path d="M1346.39 72.81C1347.65 71.97 1348.55 70.86 1349.09 69.48C1349.21 69 1349.37 68.22 1349.59 67.14C1349.8 66.06 1349.91 64.2 1349.91 61.56V12.69C1349.91 10.95 1349.85 9.5 1349.73 8.33C1349.61 7.16 1349.44 6.19 1349.23 5.4C1349.02 4.62 1348.79 4.02 1348.56 3.6C1348.32 3.18 1348.11 2.85 1347.93 2.61C1347.75 2.49 1347.57 2.33 1347.39 2.12C1347.21 1.91 1347.03 1.75 1346.85 1.62H1393.11L1393.47 8.28C1393.35 7.98 1393.23 7.73 1393.11 7.51C1392.99 7.3 1392.87 7.1 1392.75 6.92C1391.97 5.66 1391.16 4.72 1390.32 4.09C1389.48 3.46 1388.58 3.03 1387.62 2.79C1386.66 2.55 1385.65 2.43 1384.6 2.43H1356.48V35.19H1377.05C1377.98 35.19 1378.91 35.13 1379.84 35.01C1380.77 34.89 1381.67 34.68 1382.54 34.38C1383.41 34.08 1384.17 33.63 1384.83 33.03C1385.31 32.67 1385.7 32.28 1386 31.86C1386.3 31.44 1386.6 30.99 1386.9 30.51V40.59C1386 38.91 1384.65 37.68 1382.85 36.9C1381.41 36.18 1380.04 35.84 1378.76 35.87C1377.47 35.9 1376.01 35.91 1374.39 35.91H1356.48V72H1383.03C1384.77 72 1386.27 71.84 1387.53 71.5C1388.79 71.17 1389.93 70.68 1390.95 70.02C1391.97 69.36 1392.93 68.55 1393.83 67.59C1394.73 66.63 1395.66 65.52 1396.62 64.26L1393.56 72.81H1346.4H1346.39Z" fill="#C68865"/>
<path d="M1425.5 72.81C1425.86 72.51 1426.2 72.21 1426.54 71.91C1426.87 71.61 1427.18 71.22 1427.48 70.74C1427.96 69.9 1428.34 68.76 1428.6 67.32C1428.87 65.88 1429.01 63.93 1429.01 61.47V12.96C1429.01 7.8 1428.32 4.41 1426.94 2.79C1426.7 2.61 1426.49 2.42 1426.31 2.2C1426.13 1.99 1425.89 1.79 1425.59 1.62H1439.9C1438.58 2.46 1437.53 3.54 1436.75 4.86C1436.63 5.1 1436.49 5.43 1436.34 5.85C1436.19 6.27 1436.07 6.84 1435.98 7.56C1435.89 8.28 1435.81 9.18 1435.75 10.26C1435.69 11.34 1435.66 12.66 1435.66 14.22V61.47C1435.66 64.83 1436.02 67.23 1436.74 68.67C1437.52 69.87 1438.54 70.74 1439.8 71.28C1440.04 71.4 1440.34 71.5 1440.7 71.59C1441.06 71.68 1441.58 71.76 1442.28 71.82C1442.97 71.88 1443.87 71.93 1444.98 71.95C1446.09 71.98 1447.48 71.99 1449.16 71.99H1454.65C1457.71 71.99 1460.29 71.89 1462.39 71.68C1464.49 71.47 1466.2 71.09 1467.52 70.56C1468.12 70.32 1468.82 69.99 1469.63 69.57C1470.44 69.15 1471.22 68.66 1471.97 68.08C1472.72 67.51 1473.42 66.91 1474.08 66.28C1474.74 65.65 1475.22 65.04 1475.52 64.44L1472.91 72.81H1425.48H1425.5Z" fill="#C68865"/>
<path d="M1503.26 72.81C1503.62 72.51 1503.96 72.21 1504.3 71.91C1504.63 71.61 1504.94 71.22 1505.24 70.74C1505.72 69.9 1506.1 68.76 1506.36 67.32C1506.63 65.88 1506.77 63.93 1506.77 61.47V12.96C1506.77 7.8 1506.08 4.41 1504.7 2.79C1504.46 2.61 1504.25 2.42 1504.07 2.2C1503.89 1.99 1503.65 1.79 1503.35 1.62H1517.66C1516.34 2.46 1515.29 3.54 1514.51 4.86C1514.39 5.1 1514.25 5.43 1514.1 5.85C1513.95 6.27 1513.83 6.84 1513.74 7.56C1513.65 8.28 1513.57 9.18 1513.51 10.26C1513.45 11.34 1513.42 12.66 1513.42 14.22V61.47C1513.42 64.83 1513.78 67.23 1514.5 68.67C1515.28 69.87 1516.3 70.74 1517.56 71.28C1517.8 71.4 1518.1 71.5 1518.46 71.59C1518.82 71.68 1519.34 71.76 1520.04 71.82C1520.73 71.88 1521.63 71.93 1522.74 71.95C1523.85 71.98 1525.24 71.99 1526.92 71.99H1532.41C1535.47 71.99 1538.05 71.89 1540.15 71.68C1542.25 71.47 1543.96 71.09 1545.28 70.56C1545.88 70.32 1546.58 69.99 1547.39 69.57C1548.2 69.15 1548.98 68.66 1549.73 68.08C1550.48 67.51 1551.18 66.91 1551.84 66.28C1552.5 65.65 1552.98 65.04 1553.28 64.44L1550.67 72.81H1503.24H1503.26Z" fill="#C68865"/>
<path d="M1580.93 72.81C1582.19 71.97 1583.09 70.86 1583.63 69.48C1583.75 69 1583.91 68.22 1584.13 67.14C1584.34 66.06 1584.45 64.2 1584.45 61.56V12.69C1584.45 10.95 1584.39 9.5 1584.27 8.33C1584.15 7.16 1583.98 6.19 1583.77 5.4C1583.56 4.62 1583.33 4.02 1583.1 3.6C1582.86 3.18 1582.65 2.85 1582.47 2.61C1582.29 2.49 1582.11 2.33 1581.93 2.12C1581.75 1.91 1581.57 1.75 1581.39 1.62H1627.65L1628.01 8.28C1627.89 7.98 1627.77 7.73 1627.65 7.51C1627.53 7.3 1627.41 7.1 1627.29 6.92C1626.51 5.66 1625.7 4.72 1624.86 4.09C1624.02 3.46 1623.12 3.03 1622.16 2.79C1621.2 2.55 1620.19 2.43 1619.14 2.43H1591.02V35.19H1611.59C1612.52 35.19 1613.45 35.13 1614.38 35.01C1615.31 34.89 1616.21 34.68 1617.08 34.38C1617.95 34.08 1618.71 33.63 1619.37 33.03C1619.85 32.67 1620.24 32.28 1620.54 31.86C1620.84 31.44 1621.14 30.99 1621.44 30.51V40.59C1620.54 38.91 1619.19 37.68 1617.39 36.9C1615.95 36.18 1614.58 35.84 1613.3 35.87C1612.01 35.9 1610.55 35.91 1608.93 35.91H1591.02V72H1617.57C1619.31 72 1620.81 71.84 1622.07 71.5C1623.33 71.17 1624.47 70.68 1625.49 70.02C1626.51 69.36 1627.47 68.55 1628.37 67.59C1629.27 66.63 1630.2 65.52 1631.16 64.26L1628.1 72.81H1580.94H1580.93Z" fill="#C68865"/>
<path d="M1668.59 1.62L1717.46 61.56V12.69C1717.46 9.99 1717.29 7.86 1716.96 6.3C1716.63 4.74 1716.1 3.54 1715.38 2.7C1715.2 2.52 1715 2.34 1714.8 2.16C1714.59 1.98 1714.39 1.8 1714.22 1.62H1721.78C1721.42 1.86 1721.09 2.15 1720.79 2.47C1720.49 2.8 1720.19 3.14 1719.89 3.51C1719.41 4.29 1719.03 5.42 1718.77 6.89C1718.5 8.36 1718.36 10.3 1718.36 12.69V72.9L1666.88 9.99V61.83C1666.88 66.99 1667.51 70.29 1668.77 71.73C1669.01 71.91 1669.22 72.11 1669.4 72.32C1669.58 72.53 1669.82 72.7 1670.12 72.82H1662.56C1662.92 72.52 1663.25 72.23 1663.55 71.96C1663.85 71.69 1664.12 71.38 1664.36 71.01C1665.38 69.57 1665.89 66.51 1665.89 61.83V8.82L1665.44 8.28C1663.22 5.64 1661.45 3.87 1660.13 2.97C1659.53 2.43 1658.81 1.98 1657.97 1.62H1668.59Z" fill="#C68865"/>
<path d="M1752.2 37.17C1752.2 31.95 1752.96 27.08 1754.49 22.55C1756.02 18.02 1758.24 14.09 1761.15 10.76C1764.06 7.43 1767.66 4.81 1771.95 2.88C1776.24 0.96 1781.18 0 1786.76 0H1788.83C1791.71 0 1794.15 0.27 1796.16 0.81C1798.17 1.35 1799.88 1.93 1801.29 2.56C1802.7 3.19 1803.9 3.78 1804.89 4.32C1805.88 4.86 1806.85 5.13 1807.81 5.13C1808.89 5.13 1809.84 4.88 1810.64 4.37C1811.45 3.86 1812.15 3.19 1812.76 2.34L1813.75 15.93C1812.61 13.77 1811.21 11.78 1809.56 9.95C1807.91 8.12 1806.11 6.53 1804.16 5.18C1802.21 3.83 1800.12 2.78 1797.9 2.03C1795.68 1.28 1793.37 0.91 1790.97 0.91C1785.51 0.91 1780.86 1.89 1777.02 3.84C1773.18 5.79 1770.06 8.43 1767.66 11.76C1765.26 15.09 1763.52 18.95 1762.44 23.32C1761.36 27.7 1760.82 32.32 1760.82 37.18C1760.82 42.04 1761.36 46.68 1762.44 51.09C1763.52 55.5 1765.26 59.37 1767.66 62.7C1770.06 66.03 1773.18 68.68 1777.02 70.66C1780.86 72.64 1785.51 73.63 1790.97 73.63C1796.07 73.63 1800.57 72.33 1804.47 69.71C1808.37 67.1 1811.46 63.37 1813.74 58.5L1812.75 72.09C1811.49 70.29 1809.84 69.39 1807.8 69.39C1806.84 69.39 1805.96 69.66 1805.14 70.2C1804.33 70.74 1803.28 71.32 1801.99 71.95C1800.7 72.58 1799.03 73.16 1796.99 73.7C1794.95 74.24 1792.22 74.54 1788.8 74.6H1786.73C1781.15 74.6 1776.21 73.64 1771.92 71.72C1767.63 69.8 1764.03 67.16 1761.12 63.8C1758.21 60.44 1755.99 56.48 1754.46 51.92C1752.93 47.36 1752.17 42.44 1752.17 37.16L1752.2 37.17Z" fill="#C68865"/>
<path d="M1843.72 72.81C1844.98 71.97 1845.88 70.86 1846.42 69.48C1846.54 69 1846.7 68.22 1846.92 67.14C1847.13 66.06 1847.24 64.2 1847.24 61.56V12.69C1847.24 10.95 1847.18 9.5 1847.06 8.33C1846.94 7.16 1846.77 6.19 1846.56 5.4C1846.35 4.62 1846.12 4.02 1845.89 3.6C1845.65 3.18 1845.44 2.85 1845.26 2.61C1845.08 2.49 1844.9 2.33 1844.72 2.12C1844.54 1.91 1844.36 1.75 1844.18 1.62H1890.44L1890.8 8.28C1890.68 7.98 1890.56 7.73 1890.44 7.51C1890.32 7.3 1890.2 7.1 1890.08 6.92C1889.3 5.66 1888.49 4.72 1887.65 4.09C1886.81 3.46 1885.91 3.03 1884.95 2.79C1883.99 2.55 1882.98 2.43 1881.93 2.43H1853.81V35.19H1874.38C1875.31 35.19 1876.24 35.13 1877.17 35.01C1878.1 34.89 1879 34.68 1879.87 34.38C1880.74 34.08 1881.5 33.63 1882.16 33.03C1882.64 32.67 1883.03 32.28 1883.33 31.86C1883.63 31.44 1883.93 30.99 1884.23 30.51V40.59C1883.33 38.91 1881.98 37.68 1880.18 36.9C1878.74 36.18 1877.37 35.84 1876.09 35.87C1874.8 35.9 1873.34 35.91 1871.72 35.91H1853.81V72H1880.36C1882.1 72 1883.6 71.84 1884.86 71.5C1886.12 71.17 1887.26 70.68 1888.28 70.02C1889.3 69.36 1890.26 68.55 1891.16 67.59C1892.06 66.63 1892.99 65.52 1893.95 64.26L1890.89 72.81H1843.73H1843.72Z" fill="#C68865"/>
</g>
</svg>
