<svg width="227" height="129" viewBox="0 0 227 129" fill="none" xmlns="http://www.w3.org/2000/svg">
<g style="mix-blend-mode:screen">
<path d="M78.76 17.41C77.94 17.41 77.17 17.56 76.48 17.85C75.78 18.14 75.18 18.56 74.68 19.11C74.18 19.66 73.78 20.32 73.5 21.09C73.22 21.86 73.08 22.73 73.08 23.68C73.08 24.63 73.23 25.51 73.54 26.28C73.85 27.05 74.26 27.71 74.8 28.25C75.33 28.79 75.96 29.21 76.68 29.5C77.4 29.79 78.17 29.94 79 29.94C79.6 29.94 80.14 29.86 80.62 29.7C81.1 29.54 81.53 29.31 81.92 29V24.21H79.33V23.4H84.21V29.41C83.81 29.62 83.41 29.81 83 29.98C82.59 30.14 82.16 30.28 81.69 30.39C81.22 30.5 80.7 30.58 80.14 30.64C79.58 30.7 78.94 30.73 78.22 30.73C77.46 30.73 76.75 30.65 76.07 30.48C75.39 30.31 74.76 30.07 74.18 29.76C73.6 29.45 73.08 29.08 72.61 28.65C72.14 28.22 71.75 27.74 71.42 27.22C71.09 26.7 70.84 26.14 70.66 25.54C70.48 24.94 70.39 24.32 70.39 23.67C70.39 23.02 70.47 22.41 70.64 21.8C70.81 21.19 71.05 20.62 71.37 20.08C71.69 19.54 72.07 19.05 72.52 18.6C72.97 18.15 73.49 17.77 74.06 17.45C74.63 17.13 75.25 16.88 75.93 16.7C76.6 16.52 77.32 16.43 78.07 16.43C78.82 16.43 79.46 16.53 80.07 16.72C80.68 16.92 81.24 17.18 81.75 17.5C82.26 17.82 82.7 18.2 83.09 18.62C83.48 19.04 83.82 19.48 84.1 19.94L83.11 20.6C82.53 19.49 81.89 18.68 81.19 18.17C80.49 17.66 79.68 17.4 78.76 17.4V17.41Z" fill="#AD9752" stroke="#AD9752" stroke-width="0.28" stroke-miterlimit="10"/>
<path d="M88.7599 16.74H93.4999C94.3199 16.74 95.0399 16.83 95.6499 17C96.2699 17.17 96.7799 17.42 97.1999 17.74C97.6099 18.06 97.9199 18.43 98.1299 18.87C98.3399 19.31 98.4399 19.78 98.4399 20.3C98.4399 20.73 98.3599 21.12 98.1999 21.5C98.0399 21.87 97.8099 22.21 97.5199 22.5C97.2299 22.8 96.8799 23.06 96.4599 23.27C96.0499 23.49 95.5899 23.66 95.0999 23.78L100.08 30.41H97.4099L92.6599 23.99H91.0499V30.41H88.7499V16.75L88.7599 16.74ZM91.0599 23.29H92.3899C92.9099 23.29 93.3799 23.22 93.8199 23.08C94.2599 22.94 94.6299 22.75 94.9499 22.5C95.2699 22.25 95.5199 21.95 95.6999 21.59C95.8799 21.23 95.9699 20.83 95.9699 20.38C95.9699 19.97 95.8999 19.59 95.7599 19.25C95.6199 18.91 95.4199 18.61 95.1599 18.37C94.8999 18.13 94.5999 17.94 94.2399 17.8C93.8899 17.66 93.4999 17.59 93.0799 17.59H91.0599V23.29Z" fill="#AD9752" stroke="#AD9752" stroke-width="0.28" stroke-miterlimit="10"/>
<path d="M112.51 16.74V17.63H105.31V22.51H110.13V23.4H105.31V29.52H112.51V30.41H103.01V16.75H112.51V16.74Z" fill="#AD9752" stroke="#AD9752" stroke-width="0.28" stroke-miterlimit="10"/>
<path d="M121.61 16.43L128.04 30.4H125.7L123.62 25.85H117.76L115.61 30.4H114.46L121.05 16.43H121.63H121.61ZM118.16 24.96H123.2L120.72 19.55L118.16 24.96Z" fill="#AD9752" stroke="#AD9752" stroke-width="0.28" stroke-miterlimit="10"/>
<path d="M141.73 16.74V17.63H136.78V30.41H134.48V17.63H129.53V16.74H141.72H141.73Z" fill="#AD9752" stroke="#AD9752" stroke-width="0.28" stroke-miterlimit="10"/>
<path d="M161.16 16.74V17.63H156.21V30.41H153.91V17.63H148.96V16.74H161.15H161.16Z" fill="#AD9752" stroke="#AD9752" stroke-width="0.28" stroke-miterlimit="10"/>
<path d="M171.38 30.72C170.32 30.72 169.33 30.53 168.42 30.15C167.5 29.77 166.71 29.26 166.03 28.6C165.35 27.94 164.82 27.18 164.43 26.3C164.04 25.42 163.85 24.49 163.85 23.49C163.85 22.84 163.94 22.21 164.11 21.6C164.29 21 164.53 20.43 164.86 19.91C165.18 19.39 165.57 18.91 166.03 18.48C166.49 18.05 166.99 17.68 167.55 17.38C168.11 17.07 168.71 16.84 169.35 16.67C170 16.5 170.67 16.42 171.38 16.42C172.09 16.42 172.76 16.5 173.41 16.67C174.06 16.84 174.66 17.08 175.22 17.38C175.78 17.69 176.29 18.05 176.74 18.48C177.19 18.91 177.58 19.39 177.91 19.91C178.24 20.43 178.49 21 178.66 21.6C178.84 22.2 178.92 22.83 178.92 23.49C178.92 24.15 178.83 24.79 178.66 25.4C178.48 26.01 178.23 26.59 177.91 27.13C177.58 27.67 177.19 28.15 176.74 28.59C176.29 29.03 175.78 29.41 175.22 29.72C174.66 30.03 174.06 30.28 173.41 30.45C172.76 30.62 172.09 30.71 171.38 30.71V30.72ZM171.38 30.04C172.16 30.04 172.86 29.88 173.46 29.55C174.06 29.22 174.57 28.77 174.98 28.18C175.39 27.6 175.7 26.91 175.91 26.11C176.12 25.31 176.22 24.44 176.22 23.49C176.22 22.54 176.12 21.69 175.91 20.9C175.7 20.12 175.39 19.44 174.98 18.88C174.57 18.31 174.06 17.87 173.46 17.56C172.86 17.25 172.17 17.09 171.38 17.09C170.59 17.09 169.88 17.25 169.28 17.56C168.68 17.87 168.17 18.31 167.77 18.88C167.37 19.45 167.05 20.12 166.85 20.9C166.64 21.68 166.54 22.55 166.54 23.49C166.54 24.43 166.64 25.31 166.85 26.11C167.06 26.91 167.36 27.6 167.77 28.18C168.18 28.76 168.68 29.22 169.28 29.55C169.88 29.88 170.58 30.04 171.38 30.04Z" fill="#AD9752" stroke="#AD9752" stroke-width="0.28" stroke-miterlimit="10"/>
<path d="M183.07 16.74H187.62C189.02 16.74 190.23 16.87 191.24 17.13C192.25 17.39 193.09 17.81 193.76 18.39C194.53 19.05 195.11 19.81 195.5 20.66C195.89 21.51 196.08 22.44 196.08 23.45C196.08 24.46 195.91 25.32 195.56 26.16C195.21 27 194.7 27.74 194.03 28.37C193.36 29 192.53 29.49 191.55 29.86C190.56 30.22 189.44 30.41 188.16 30.41H183.06V16.75L183.07 16.74ZM185.37 29.4H187.81C188.58 29.4 189.3 29.27 189.98 29.02C190.66 28.77 191.25 28.39 191.76 27.89C192.27 27.39 192.66 26.77 192.96 26.04C193.25 25.31 193.4 24.46 193.4 23.5C193.4 22.66 193.26 21.88 192.99 21.18C192.72 20.48 192.33 19.87 191.84 19.36C191.35 18.85 190.76 18.46 190.07 18.18C189.39 17.9 188.64 17.76 187.83 17.76H185.38V29.42L185.37 29.4Z" fill="#AD9752" stroke="#AD9752" stroke-width="0.28" stroke-miterlimit="10"/>
<path d="M205.58 16.43L212.01 30.4H209.67L207.59 25.85H201.73L199.58 30.4H198.43L205.02 16.43H205.6H205.58ZM202.13 24.96H207.17L204.69 19.55L202.13 24.96Z" fill="#AD9752" stroke="#AD9752" stroke-width="0.28" stroke-miterlimit="10"/>
<path d="M215.48 16.74L220.22 23.67L224.94 16.74H226.19L220.89 24.5V30.41H218.59V24.72L213.13 16.74H215.48Z" fill="#AD9752" stroke="#AD9752" stroke-width="0.28" stroke-miterlimit="10"/>
<path d="M95.6 67.35C95.2 68.29 94.23 68.63 93.14 68.23C89.25 66.81 85.76 64.54 83.63 61.65V68.46C83.63 69.25 83.14 69.71 82.26 69.71C81.38 69.71 80.89 69.26 80.89 68.46V61.88C78.61 64.58 73.9 67.16 69.65 68.41C69.16 68.55 68.83 68.47 68.65 68.1C68.47 67.7 68.62 67.36 69.11 67.16C72.97 65.68 76.58 63.5 79.26 60.49H70.33C69.75 60.49 69.42 60.18 69.42 59.64C69.42 59.13 69.75 58.79 70.33 58.79H80.9V57.71C80.9 57.03 81.26 56.6 81.9 56.49H79.71C79.22 56.49 78.86 56.35 78.59 56.12C78.77 56.8 78.5 57.23 77.8 57.4C77.1 57.57 76.61 57.31 76.46 56.58L76.28 55.76C74.79 56.44 72.91 57.09 71.27 57.43C70.45 57.6 69.72 57.29 69.6 56.52C69.48 55.7 69.84 55.21 70.79 55.13C70.91 55.13 71.06 55.1 71.19 55.1C72.1 53.94 73.07 52.55 73.98 51.07C73.01 51.41 71.97 51.69 71.19 51.84C70.43 51.98 69.73 51.7 69.64 50.99C69.55 50.2 69.91 49.83 70.82 49.74H70.94C71.7 47.87 72.25 46.02 72.76 43.89C72.97 43.07 73.55 42.81 74.37 42.98C75.19 43.18 75.46 43.78 75.16 44.65C74.58 46.32 73.79 48.08 72.79 49.56C73.52 49.47 74.25 49.39 74.98 49.28C75.31 48.63 75.65 48 75.92 47.35C76.25 46.61 76.95 46.44 77.68 46.75C77.92 46.86 78.11 47.01 78.2 47.18C78.26 46.36 78.81 45.9 79.72 45.9H81.18C81.33 45.1 81.39 44.37 81.48 43.63C81.57 42.83 82.03 42.47 82.88 42.61C83.76 42.75 84.03 43.29 83.79 44.03C83.52 44.74 83.18 45.36 82.85 45.9H84.79C85.76 45.9 86.31 46.41 86.31 47.32V49.96C86.46 49.82 86.71 49.73 87.01 49.73C87.83 47.91 88.35 45.84 88.77 44C88.95 43.18 89.56 42.95 90.38 43.12C91.14 43.29 91.47 43.89 91.2 44.62C90.59 46.27 89.71 48.2 88.68 49.73C89.41 49.7 90.08 49.64 90.75 49.53C91.11 48.88 91.42 48.2 91.72 47.51C92.05 46.77 92.69 46.57 93.42 46.86C94.15 47.14 94.33 47.88 94 48.51C92.79 50.78 91.11 52.94 89.5 54.58C90.41 54.49 91.29 54.38 92.11 54.21C92.05 53.87 91.93 53.53 91.84 53.19C91.69 52.71 91.84 52.4 92.23 52.25C92.66 52.11 92.93 52.28 93.2 52.67C93.93 53.75 94.54 55 94.9 56.16C95.11 56.87 94.93 57.32 94.14 57.52C93.38 57.72 92.86 57.41 92.68 56.61L92.41 55.45C90.98 56.07 89.28 56.58 87.64 56.9C86.94 57.04 86.24 56.73 86.15 55.99V55.79C85.91 56.24 85.45 56.47 84.78 56.47H82.62C83.26 56.58 83.62 57.01 83.62 57.69V58.77H94.19C94.77 58.77 95.1 59.08 95.1 59.62C95.1 60.16 94.77 60.47 94.19 60.47H84.62C87.23 62.91 90.27 64.27 94.4 65.29C95.49 65.57 96.01 66.34 95.59 67.33L95.6 67.35ZM78.19 54.81V48.11C78.16 48.2 78.13 48.31 78.07 48.39C76.98 50.6 75 53.07 73.18 54.83C74.18 54.69 75.12 54.52 75.97 54.35C75.88 53.92 75.79 53.5 75.67 53.07C75.55 52.62 75.7 52.3 76.1 52.16C76.49 52.02 76.83 52.13 77.07 52.53C77.53 53.24 77.89 54 78.19 54.8V54.81ZM80.47 50.19H83.93V47.81C83.93 47.61 83.78 47.47 83.56 47.47H80.83C80.62 47.47 80.47 47.61 80.47 47.81V50.19ZM80.84 54.93H83.57C83.78 54.93 83.94 54.79 83.94 54.59V51.75H80.48V54.59C80.48 54.79 80.63 54.93 80.84 54.93ZM86.3 51.49V55.18C86.48 54.92 86.79 54.78 87.27 54.75H87.51C88.33 53.62 89.12 52.42 89.85 51.15C89.09 51.41 88.3 51.6 87.48 51.77C86.99 51.86 86.57 51.77 86.3 51.49Z" fill="#AD9752"/>
<path d="M138.96 55.41C138.96 55.92 138.66 56.21 138.11 56.21H129.63V59.64H134.95C135.92 59.64 136.47 60.15 136.47 61.06V68.24C136.47 69.03 135.98 69.49 135.13 69.49C134.28 69.49 133.79 69.03 133.79 68.24V67.45H122.61V68.33C122.61 69.12 122.12 69.58 121.27 69.58C120.42 69.58 119.93 69.13 119.93 68.33V61.07C119.93 60.16 120.48 59.65 121.45 59.65H126.83V56.22H119.42C118.87 56.22 118.57 55.91 118.57 55.42C118.57 54.93 118.87 54.65 119.42 54.65H126.83V51.16H118.2V52.66C118.2 58.82 117.71 64.95 113.64 69.12C113.31 69.49 112.94 69.55 112.64 69.29C112.28 68.98 112.24 68.69 112.49 68.27C115.19 63.93 115.41 58.03 115.41 51.84V45.48C115.41 44.57 115.96 44.06 116.93 44.06H135.86C136.83 44.06 137.38 44.57 137.38 45.48V49.74C137.38 50.65 136.83 51.16 135.86 51.16H129.63V54.65H138.11C138.66 54.65 138.96 54.93 138.96 55.42V55.41ZM118.21 49.59H134.28C134.49 49.59 134.64 49.45 134.64 49.25V45.96C134.64 45.76 134.49 45.62 134.28 45.62H118.57C118.36 45.62 118.21 45.76 118.21 45.96V49.59ZM122.98 61.2C122.77 61.2 122.62 61.34 122.62 61.54V65.88H133.8V61.54C133.8 61.34 133.65 61.2 133.44 61.2H122.99H122.98Z" fill="#AD9752"/>
<path d="M165.28 46.92V64.94C165.28 65.73 164.82 66.16 163.97 66.16C163.12 66.16 162.66 65.73 162.66 64.94V63.86H159.53V65.48C159.53 66.27 159.04 66.73 158.19 66.73C157.34 66.73 156.85 66.28 156.85 65.48V46.92C156.85 46.01 157.4 45.5 158.37 45.5H163.75C164.72 45.5 165.27 46.01 165.27 46.92H165.28ZM162.66 47.41C162.66 47.21 162.51 47.07 162.3 47.07H159.9C159.69 47.07 159.54 47.21 159.54 47.41V53.71H162.67V47.41H162.66ZM162.66 55.27H159.53V62.31H162.66V55.27ZM181.65 49.31C181.47 58.65 181.19 63.7 180.86 66.39C180.44 69.77 177.24 70.36 171.56 68.09C171.1 67.92 170.92 67.64 171.07 67.24C171.22 66.84 171.56 66.7 172.07 66.79C177.24 67.64 178.02 67.39 178.27 65.48C178.51 63.52 178.73 59.18 178.88 49.76C178.88 49.51 178.73 49.39 178.52 49.39H170.26C169.38 51.46 168.19 53.39 166.71 54.81C166.35 55.15 166.01 55.26 165.68 54.98C165.38 54.72 165.32 54.38 165.59 53.99C167.44 51.21 168.38 47.8 168.93 44C169.05 43.12 169.72 42.72 170.69 42.89C171.69 43.06 171.96 43.66 171.75 44.65C171.54 45.7 171.23 46.78 170.87 47.83H180.14C181.11 47.83 181.69 48.34 181.66 49.31H181.65Z" fill="#AD9752"/>
<path d="M226.01 67.35C225.71 68.2 225.13 68.34 224.13 68.15C220.88 67.47 216.38 65.06 213.92 62.39V68.29C213.92 69.11 213.43 69.57 212.55 69.57C211.67 69.57 211.18 69.12 211.18 68.29V62.9C208.57 65.37 203.98 67.5 199.94 68.32C199.42 68.43 199.09 68.32 198.94 67.89C198.82 67.46 199 67.18 199.49 67.01C202.92 65.88 206.48 64.09 209.06 61.7H200.25C199.7 61.7 199.4 61.39 199.4 60.91C199.4 60.43 199.7 60.14 200.25 60.14H211.19V58.01H204.32C203.35 58.01 202.8 57.5 202.8 56.59V50.8C201.77 51.65 200.74 52.39 199.76 52.87C199.3 53.1 198.97 53.1 198.76 52.78C198.55 52.44 198.58 52.13 198.91 51.84C201.8 49.49 203.62 47.33 205.29 43.84C205.68 43.02 206.35 42.71 207.26 43.02C208.11 43.3 208.35 44.01 207.93 44.84C207.66 45.35 207.32 45.92 206.9 46.49H212.16V44.36C212.16 43.56 212.65 43.11 213.53 43.11C214.41 43.11 214.9 43.56 214.9 44.36V46.49H223.71C224.26 46.49 224.56 46.77 224.56 47.26C224.56 47.77 224.26 48.05 223.71 48.05H214.87V49.78H222.4C222.95 49.78 223.25 50.04 223.25 50.55C223.25 51.06 222.95 51.35 222.4 51.35H214.87V53H222.47C223.02 53 223.32 53.25 223.32 53.77C223.32 54.29 223.02 54.56 222.47 54.56H214.87V56.46H224.11C224.66 56.46 224.96 56.74 224.96 57.23C224.96 57.74 224.66 58.03 224.11 58.03H213.93V60.16H225.14C225.69 60.16 225.99 60.44 225.99 60.93C225.99 61.44 225.69 61.72 225.14 61.72H215.24C218.25 63.71 221.56 64.81 224.93 65.52C225.96 65.75 226.36 66.46 226.02 67.36L226.01 67.35ZM205.66 48.06C205.6 48.09 205.57 48.14 205.54 48.17V49.79H212.19V48.06H205.66ZM212.19 51.35H205.54V53H212.19V51.35ZM205.9 56.46H212.19V54.56H205.54V56.12C205.54 56.32 205.69 56.46 205.9 56.46Z" fill="#AD9752"/>
<path d="M167.98 61.31C167.69 61.31 167.17 61.22 167.17 60.64C167.17 60.06 167.72 59.97 167.98 59.97H176.41C176.7 59.97 177.22 60.06 177.22 60.64C177.22 61.22 176.67 61.31 176.41 61.31H167.98Z" fill="#AD9752"/>
<path d="M169.57 55.43C169.34 55.43 168.76 55.4 168.76 54.76C168.76 54.18 169.31 54.09 169.57 54.09H175.47C175.76 54.09 176.28 54.18 176.28 54.76C176.28 55.4 175.7 55.43 175.47 55.43H169.57Z" fill="#AD9752"/>
<path d="M25.7 19.34H14.42V20.11H25.7V19.34Z" fill="#AD9752"/>
<path d="M36.8 19.34H25.7V20.11H36.8V19.34Z" fill="#AD9752"/>
<path d="M26.01 8.32001H25.24V19.65H26.01V8.32001Z" fill="#AD9752"/>
<path d="M26.01 19.65H25.24V31.88H26.01V19.65Z" fill="#AD9752"/>
<path d="M16.0841 13.735L15.6991 14.4018L25.4679 20.0418L25.8529 19.375L16.0841 13.735Z" fill="#AD9752"/>
<path d="M25.8535 19.3639L25.4685 20.0307L35.2373 25.6707L35.6223 25.0039L25.8535 19.3639Z" fill="#AD9752"/>
<path d="M20.3404 9.71784L19.6736 10.1028L25.3136 19.8716L25.9804 19.4866L20.3404 9.71784Z" fill="#AD9752"/>
<path d="M25.9748 19.4802L25.308 19.8652L30.948 29.634L31.6148 29.249L25.9748 19.4802Z" fill="#AD9752"/>
<path d="M30.9522 9.67343L25.3139 19.4432L25.9808 19.8281L31.6191 10.0583L30.9522 9.67343Z" fill="#AD9752"/>
<path d="M25.3113 19.4281L19.673 29.1979L20.3399 29.5828L25.9782 19.813L25.3113 19.4281Z" fill="#AD9752"/>
<path d="M35.2421 13.6248L25.4724 19.2631L25.8572 19.93L35.627 14.2917L35.2421 13.6248Z" fill="#AD9752"/>
<path d="M25.4693 19.2731L15.6996 24.9114L16.0845 25.5783L25.8542 19.94L25.4693 19.2731Z" fill="#AD9752"/>
<path d="M25.62 1.77C38.77 1.77 49.46 12.47 49.46 25.61V56.04C49.46 69.19 38.76 79.89 25.62 79.89C12.48 79.89 1.77 69.19 1.77 56.04V25.61C1.77 12.47 12.47 1.77 25.62 1.77ZM25.62 0C11.49 0 0 11.49 0 25.62V56.05C0 70.18 11.49 81.67 25.62 81.67C39.75 81.67 51.24 70.18 51.24 56.05V25.62C51.24 11.49 39.75 0 25.62 0Z" fill="#AD9752"/>
<path d="M25.62 3.70001C13.53 3.70001 3.70001 13.53 3.70001 25.62V56.05C3.70001 68.14 13.53 77.97 25.62 77.97C37.71 77.97 47.54 68.14 47.54 56.05V25.62C47.54 13.53 37.71 3.70001 25.62 3.70001ZM4.66001 25.62C4.66001 14.06 14.06 4.66001 25.62 4.66001C37.18 4.66001 46.58 14.06 46.58 25.62V56.05C46.58 56.13 46.58 56.21 46.58 56.29C46.46 56.16 46.35 56.03 46.23 55.9C44.87 54.31 43.68 52.66 42.57 50.97H42.65V25.62C42.65 21.73 41.34 18.15 39.14 15.28L38.46 15.67C40.6 18.42 41.88 21.87 41.88 25.62V49.89C40.71 48.04 39.62 46.13 38.5 44.16C37.65 42.66 36.77 41.11 35.84 39.6C34.34 37.13 29.78 29.6 23.65 32.25C19.26 34.15 16.57 38.69 13.72 43.49C12.94 44.81 12.13 46.18 11.29 47.46C10.68 48.4 10.04 49.37 9.38001 50.34V25.62C9.38001 21.87 10.66 18.42 12.8 15.67L12.12 15.28C9.92001 18.15 8.61001 21.73 8.61001 25.62V51.47C7.38001 53.25 6.08001 55.02 4.69001 56.74C4.69001 56.51 4.67001 56.28 4.67001 56.05V25.62H4.66001ZM4.77001 58.15C7.52001 54.88 9.93001 51.33 12.1 48C12.95 46.69 13.76 45.32 14.55 43.99C17.31 39.33 19.92 34.92 24.03 33.14C28.66 31.13 32.32 35.75 34.74 39.66C34.35 41.33 32.86 42.74 30.73 43.42C29.15 43.93 27.45 44.13 25.81 44.33C24.58 44.48 23.31 44.63 22.08 44.91C20.16 45.34 18.08 46.03 17.21 47.86C16.29 49.79 17.44 51.7 18.91 52.66C20.31 53.58 22.52 54.38 24.87 55.23C26.81 55.93 28.86 56.69 30.6 57.55C31.87 58.18 32.79 58.91 32.79 58.91C32.79 58.91 38.05 62.15 30.06 67.55C23.19 72.19 15.19 72.33 12.3 72.2C8.15001 68.77 5.34001 63.78 4.77001 58.14V58.15ZM25.62 77C24.09 77 22.6 76.83 21.16 76.52C23.37 75.72 31.78 72.37 34.9 66.93C38.42 60.8 33.05 57.79 33 57.76C31.64 56.96 30.59 56.45 29.31 55.9C28.03 55.36 26.73 54.88 25.42 54.4C25.34 54.37 25.27 54.34 25.19 54.32C22.9 53.49 20.74 52.7 19.43 51.85C18.27 51.09 17.4 49.69 18.07 48.27C18.77 46.81 20.59 46.23 22.28 45.85C23.47 45.58 24.71 45.43 25.92 45.29C27.61 45.09 29.35 44.88 31.02 44.34C33.11 43.67 34.68 42.35 35.38 40.74C36.16 42.04 36.91 43.36 37.64 44.64C39.93 48.66 42.3 52.82 45.48 56.53C45.81 56.92 46.16 57.29 46.5 57.66C45.67 68.46 36.62 77 25.61 77H25.62Z" fill="#AD9752"/>
</g>
<g style="mix-blend-mode:screen">
<path d="M78.76 17.41C77.94 17.41 77.17 17.56 76.48 17.85C75.78 18.14 75.18 18.56 74.68 19.11C74.18 19.66 73.78 20.32 73.5 21.09C73.22 21.86 73.08 22.73 73.08 23.68C73.08 24.63 73.23 25.51 73.54 26.28C73.85 27.05 74.26 27.71 74.8 28.25C75.33 28.79 75.96 29.21 76.68 29.5C77.4 29.79 78.17 29.94 79 29.94C79.6 29.94 80.14 29.86 80.62 29.7C81.1 29.54 81.53 29.31 81.92 29V24.21H79.33V23.4H84.21V29.41C83.81 29.62 83.41 29.81 83 29.98C82.59 30.14 82.16 30.28 81.69 30.39C81.22 30.5 80.7 30.58 80.14 30.64C79.58 30.7 78.94 30.73 78.22 30.73C77.46 30.73 76.75 30.65 76.07 30.48C75.39 30.31 74.76 30.07 74.18 29.76C73.6 29.45 73.08 29.08 72.61 28.65C72.14 28.22 71.75 27.74 71.42 27.22C71.09 26.7 70.84 26.14 70.66 25.54C70.48 24.94 70.39 24.32 70.39 23.67C70.39 23.02 70.47 22.41 70.64 21.8C70.81 21.19 71.05 20.62 71.37 20.08C71.69 19.54 72.07 19.05 72.52 18.6C72.97 18.15 73.49 17.77 74.06 17.45C74.63 17.13 75.25 16.88 75.93 16.7C76.6 16.52 77.32 16.43 78.07 16.43C78.82 16.43 79.46 16.53 80.07 16.72C80.68 16.92 81.24 17.18 81.75 17.5C82.26 17.82 82.7 18.2 83.09 18.62C83.48 19.04 83.82 19.48 84.1 19.94L83.11 20.6C82.53 19.49 81.89 18.68 81.19 18.17C80.49 17.66 79.68 17.4 78.76 17.4V17.41Z" fill="#AD9752" stroke="#AD9752" stroke-width="0.28" stroke-miterlimit="10"/>
<path d="M88.7599 16.74H93.4999C94.3199 16.74 95.0399 16.83 95.6499 17C96.2699 17.17 96.7799 17.42 97.1999 17.74C97.6099 18.06 97.9199 18.43 98.1299 18.87C98.3399 19.31 98.4399 19.78 98.4399 20.3C98.4399 20.73 98.3599 21.12 98.1999 21.5C98.0399 21.87 97.8099 22.21 97.5199 22.5C97.2299 22.8 96.8799 23.06 96.4599 23.27C96.0499 23.49 95.5899 23.66 95.0999 23.78L100.08 30.41H97.4099L92.6599 23.99H91.0499V30.41H88.7499V16.75L88.7599 16.74ZM91.0599 23.29H92.3899C92.9099 23.29 93.3799 23.22 93.8199 23.08C94.2599 22.94 94.6299 22.75 94.9499 22.5C95.2699 22.25 95.5199 21.95 95.6999 21.59C95.8799 21.23 95.9699 20.83 95.9699 20.38C95.9699 19.97 95.8999 19.59 95.7599 19.25C95.6199 18.91 95.4199 18.61 95.1599 18.37C94.8999 18.13 94.5999 17.94 94.2399 17.8C93.8899 17.66 93.4999 17.59 93.0799 17.59H91.0599V23.29Z" fill="#AD9752" stroke="#AD9752" stroke-width="0.28" stroke-miterlimit="10"/>
<path d="M112.51 16.74V17.63H105.31V22.51H110.13V23.4H105.31V29.52H112.51V30.41H103.01V16.75H112.51V16.74Z" fill="#AD9752" stroke="#AD9752" stroke-width="0.28" stroke-miterlimit="10"/>
<path d="M121.61 16.43L128.04 30.4H125.7L123.62 25.85H117.76L115.61 30.4H114.46L121.05 16.43H121.63H121.61ZM118.16 24.96H123.2L120.72 19.55L118.16 24.96Z" fill="#AD9752" stroke="#AD9752" stroke-width="0.28" stroke-miterlimit="10"/>
<path d="M141.73 16.74V17.63H136.78V30.41H134.48V17.63H129.53V16.74H141.72H141.73Z" fill="#AD9752" stroke="#AD9752" stroke-width="0.28" stroke-miterlimit="10"/>
<path d="M161.16 16.74V17.63H156.21V30.41H153.91V17.63H148.96V16.74H161.15H161.16Z" fill="#AD9752" stroke="#AD9752" stroke-width="0.28" stroke-miterlimit="10"/>
<path d="M171.38 30.72C170.32 30.72 169.33 30.53 168.42 30.15C167.5 29.77 166.71 29.26 166.03 28.6C165.35 27.94 164.82 27.18 164.43 26.3C164.04 25.42 163.85 24.49 163.85 23.49C163.85 22.84 163.94 22.21 164.11 21.6C164.29 21 164.53 20.43 164.86 19.91C165.18 19.39 165.57 18.91 166.03 18.48C166.49 18.05 166.99 17.68 167.55 17.38C168.11 17.07 168.71 16.84 169.35 16.67C170 16.5 170.67 16.42 171.38 16.42C172.09 16.42 172.76 16.5 173.41 16.67C174.06 16.84 174.66 17.08 175.22 17.38C175.78 17.69 176.29 18.05 176.74 18.48C177.19 18.91 177.58 19.39 177.91 19.91C178.24 20.43 178.49 21 178.66 21.6C178.84 22.2 178.92 22.83 178.92 23.49C178.92 24.15 178.83 24.79 178.66 25.4C178.48 26.01 178.23 26.59 177.91 27.13C177.58 27.67 177.19 28.15 176.74 28.59C176.29 29.03 175.78 29.41 175.22 29.72C174.66 30.03 174.06 30.28 173.41 30.45C172.76 30.62 172.09 30.71 171.38 30.71V30.72ZM171.38 30.04C172.16 30.04 172.86 29.88 173.46 29.55C174.06 29.22 174.57 28.77 174.98 28.18C175.39 27.6 175.7 26.91 175.91 26.11C176.12 25.31 176.22 24.44 176.22 23.49C176.22 22.54 176.12 21.69 175.91 20.9C175.7 20.12 175.39 19.44 174.98 18.88C174.57 18.31 174.06 17.87 173.46 17.56C172.86 17.25 172.17 17.09 171.38 17.09C170.59 17.09 169.88 17.25 169.28 17.56C168.68 17.87 168.17 18.31 167.77 18.88C167.37 19.45 167.05 20.12 166.85 20.9C166.64 21.68 166.54 22.55 166.54 23.49C166.54 24.43 166.64 25.31 166.85 26.11C167.06 26.91 167.36 27.6 167.77 28.18C168.18 28.76 168.68 29.22 169.28 29.55C169.88 29.88 170.58 30.04 171.38 30.04Z" fill="#AD9752" stroke="#AD9752" stroke-width="0.28" stroke-miterlimit="10"/>
<path d="M183.07 16.74H187.62C189.02 16.74 190.23 16.87 191.24 17.13C192.25 17.39 193.09 17.81 193.76 18.39C194.53 19.05 195.11 19.81 195.5 20.66C195.89 21.51 196.08 22.44 196.08 23.45C196.08 24.46 195.91 25.32 195.56 26.16C195.21 27 194.7 27.74 194.03 28.37C193.36 29 192.53 29.49 191.55 29.86C190.56 30.22 189.44 30.41 188.16 30.41H183.06V16.75L183.07 16.74ZM185.37 29.4H187.81C188.58 29.4 189.3 29.27 189.98 29.02C190.66 28.77 191.25 28.39 191.76 27.89C192.27 27.39 192.66 26.77 192.96 26.04C193.25 25.31 193.4 24.46 193.4 23.5C193.4 22.66 193.26 21.88 192.99 21.18C192.72 20.48 192.33 19.87 191.84 19.36C191.35 18.85 190.76 18.46 190.07 18.18C189.39 17.9 188.64 17.76 187.83 17.76H185.38V29.42L185.37 29.4Z" fill="#AD9752" stroke="#AD9752" stroke-width="0.28" stroke-miterlimit="10"/>
<path d="M205.58 16.43L212.01 30.4H209.67L207.59 25.85H201.73L199.58 30.4H198.43L205.02 16.43H205.6H205.58ZM202.13 24.96H207.17L204.69 19.55L202.13 24.96Z" fill="#AD9752" stroke="#AD9752" stroke-width="0.28" stroke-miterlimit="10"/>
<path d="M215.48 16.74L220.22 23.67L224.94 16.74H226.19L220.89 24.5V30.41H218.59V24.72L213.13 16.74H215.48Z" fill="#AD9752" stroke="#AD9752" stroke-width="0.28" stroke-miterlimit="10"/>
<path d="M95.6 67.35C95.2 68.29 94.23 68.63 93.14 68.23C89.25 66.81 85.76 64.54 83.63 61.65V68.46C83.63 69.25 83.14 69.71 82.26 69.71C81.38 69.71 80.89 69.26 80.89 68.46V61.88C78.61 64.58 73.9 67.16 69.65 68.41C69.16 68.55 68.83 68.47 68.65 68.1C68.47 67.7 68.62 67.36 69.11 67.16C72.97 65.68 76.58 63.5 79.26 60.49H70.33C69.75 60.49 69.42 60.18 69.42 59.64C69.42 59.13 69.75 58.79 70.33 58.79H80.9V57.71C80.9 57.03 81.26 56.6 81.9 56.49H79.71C79.22 56.49 78.86 56.35 78.59 56.12C78.77 56.8 78.5 57.23 77.8 57.4C77.1 57.57 76.61 57.31 76.46 56.58L76.28 55.76C74.79 56.44 72.91 57.09 71.27 57.43C70.45 57.6 69.72 57.29 69.6 56.52C69.48 55.7 69.84 55.21 70.79 55.13C70.91 55.13 71.06 55.1 71.19 55.1C72.1 53.94 73.07 52.55 73.98 51.07C73.01 51.41 71.97 51.69 71.19 51.84C70.43 51.98 69.73 51.7 69.64 50.99C69.55 50.2 69.91 49.83 70.82 49.74H70.94C71.7 47.87 72.25 46.02 72.76 43.89C72.97 43.07 73.55 42.81 74.37 42.98C75.19 43.18 75.46 43.78 75.16 44.65C74.58 46.32 73.79 48.08 72.79 49.56C73.52 49.47 74.25 49.39 74.98 49.28C75.31 48.63 75.65 48 75.92 47.35C76.25 46.61 76.95 46.44 77.68 46.75C77.92 46.86 78.11 47.01 78.2 47.18C78.26 46.36 78.81 45.9 79.72 45.9H81.18C81.33 45.1 81.39 44.37 81.48 43.63C81.57 42.83 82.03 42.47 82.88 42.61C83.76 42.75 84.03 43.29 83.79 44.03C83.52 44.74 83.18 45.36 82.85 45.9H84.79C85.76 45.9 86.31 46.41 86.31 47.32V49.96C86.46 49.82 86.71 49.73 87.01 49.73C87.83 47.91 88.35 45.84 88.77 44C88.95 43.18 89.56 42.95 90.38 43.12C91.14 43.29 91.47 43.89 91.2 44.62C90.59 46.27 89.71 48.2 88.68 49.73C89.41 49.7 90.08 49.64 90.75 49.53C91.11 48.88 91.42 48.2 91.72 47.51C92.05 46.77 92.69 46.57 93.42 46.86C94.15 47.14 94.33 47.88 94 48.51C92.79 50.78 91.11 52.94 89.5 54.58C90.41 54.49 91.29 54.38 92.11 54.21C92.05 53.87 91.93 53.53 91.84 53.19C91.69 52.71 91.84 52.4 92.23 52.25C92.66 52.11 92.93 52.28 93.2 52.67C93.93 53.75 94.54 55 94.9 56.16C95.11 56.87 94.93 57.32 94.14 57.52C93.38 57.72 92.86 57.41 92.68 56.61L92.41 55.45C90.98 56.07 89.28 56.58 87.64 56.9C86.94 57.04 86.24 56.73 86.15 55.99V55.79C85.91 56.24 85.45 56.47 84.78 56.47H82.62C83.26 56.58 83.62 57.01 83.62 57.69V58.77H94.19C94.77 58.77 95.1 59.08 95.1 59.62C95.1 60.16 94.77 60.47 94.19 60.47H84.62C87.23 62.91 90.27 64.27 94.4 65.29C95.49 65.57 96.01 66.34 95.59 67.33L95.6 67.35ZM78.19 54.81V48.11C78.16 48.2 78.13 48.31 78.07 48.39C76.98 50.6 75 53.07 73.18 54.83C74.18 54.69 75.12 54.52 75.97 54.35C75.88 53.92 75.79 53.5 75.67 53.07C75.55 52.62 75.7 52.3 76.1 52.16C76.49 52.02 76.83 52.13 77.07 52.53C77.53 53.24 77.89 54 78.19 54.8V54.81ZM80.47 50.19H83.93V47.81C83.93 47.61 83.78 47.47 83.56 47.47H80.83C80.62 47.47 80.47 47.61 80.47 47.81V50.19ZM80.84 54.93H83.57C83.78 54.93 83.94 54.79 83.94 54.59V51.75H80.48V54.59C80.48 54.79 80.63 54.93 80.84 54.93ZM86.3 51.49V55.18C86.48 54.92 86.79 54.78 87.27 54.75H87.51C88.33 53.62 89.12 52.42 89.85 51.15C89.09 51.41 88.3 51.6 87.48 51.77C86.99 51.86 86.57 51.77 86.3 51.49Z" fill="#AD9752"/>
<path d="M138.96 55.41C138.96 55.92 138.66 56.21 138.11 56.21H129.63V59.64H134.95C135.92 59.64 136.47 60.15 136.47 61.06V68.24C136.47 69.03 135.98 69.49 135.13 69.49C134.28 69.49 133.79 69.03 133.79 68.24V67.45H122.61V68.33C122.61 69.12 122.12 69.58 121.27 69.58C120.42 69.58 119.93 69.13 119.93 68.33V61.07C119.93 60.16 120.48 59.65 121.45 59.65H126.83V56.22H119.42C118.87 56.22 118.57 55.91 118.57 55.42C118.57 54.93 118.87 54.65 119.42 54.65H126.83V51.16H118.2V52.66C118.2 58.82 117.71 64.95 113.64 69.12C113.31 69.49 112.94 69.55 112.64 69.29C112.28 68.98 112.24 68.69 112.49 68.27C115.19 63.93 115.41 58.03 115.41 51.84V45.48C115.41 44.57 115.96 44.06 116.93 44.06H135.86C136.83 44.06 137.38 44.57 137.38 45.48V49.74C137.38 50.65 136.83 51.16 135.86 51.16H129.63V54.65H138.11C138.66 54.65 138.96 54.93 138.96 55.42V55.41ZM118.21 49.59H134.28C134.49 49.59 134.64 49.45 134.64 49.25V45.96C134.64 45.76 134.49 45.62 134.28 45.62H118.57C118.36 45.62 118.21 45.76 118.21 45.96V49.59ZM122.98 61.2C122.77 61.2 122.62 61.34 122.62 61.54V65.88H133.8V61.54C133.8 61.34 133.65 61.2 133.44 61.2H122.99H122.98Z" fill="#AD9752"/>
<path d="M165.28 46.92V64.94C165.28 65.73 164.82 66.16 163.97 66.16C163.12 66.16 162.66 65.73 162.66 64.94V63.86H159.53V65.48C159.53 66.27 159.04 66.73 158.19 66.73C157.34 66.73 156.85 66.28 156.85 65.48V46.92C156.85 46.01 157.4 45.5 158.37 45.5H163.75C164.72 45.5 165.27 46.01 165.27 46.92H165.28ZM162.66 47.41C162.66 47.21 162.51 47.07 162.3 47.07H159.9C159.69 47.07 159.54 47.21 159.54 47.41V53.71H162.67V47.41H162.66ZM162.66 55.27H159.53V62.31H162.66V55.27ZM181.65 49.31C181.47 58.65 181.19 63.7 180.86 66.39C180.44 69.77 177.24 70.36 171.56 68.09C171.1 67.92 170.92 67.64 171.07 67.24C171.22 66.84 171.56 66.7 172.07 66.79C177.24 67.64 178.02 67.39 178.27 65.48C178.51 63.52 178.73 59.18 178.88 49.76C178.88 49.51 178.73 49.39 178.52 49.39H170.26C169.38 51.46 168.19 53.39 166.71 54.81C166.35 55.15 166.01 55.26 165.68 54.98C165.38 54.72 165.32 54.38 165.59 53.99C167.44 51.21 168.38 47.8 168.93 44C169.05 43.12 169.72 42.72 170.69 42.89C171.69 43.06 171.96 43.66 171.75 44.65C171.54 45.7 171.23 46.78 170.87 47.83H180.14C181.11 47.83 181.69 48.34 181.66 49.31H181.65Z" fill="#AD9752"/>
<path d="M226.01 67.35C225.71 68.2 225.13 68.34 224.13 68.15C220.88 67.47 216.38 65.06 213.92 62.39V68.29C213.92 69.11 213.43 69.57 212.55 69.57C211.67 69.57 211.18 69.12 211.18 68.29V62.9C208.57 65.37 203.98 67.5 199.94 68.32C199.42 68.43 199.09 68.32 198.94 67.89C198.82 67.46 199 67.18 199.49 67.01C202.92 65.88 206.48 64.09 209.06 61.7H200.25C199.7 61.7 199.4 61.39 199.4 60.91C199.4 60.43 199.7 60.14 200.25 60.14H211.19V58.01H204.32C203.35 58.01 202.8 57.5 202.8 56.59V50.8C201.77 51.65 200.74 52.39 199.76 52.87C199.3 53.1 198.97 53.1 198.76 52.78C198.55 52.44 198.58 52.13 198.91 51.84C201.8 49.49 203.62 47.33 205.29 43.84C205.68 43.02 206.35 42.71 207.26 43.02C208.11 43.3 208.35 44.01 207.93 44.84C207.66 45.35 207.32 45.92 206.9 46.49H212.16V44.36C212.16 43.56 212.65 43.11 213.53 43.11C214.41 43.11 214.9 43.56 214.9 44.36V46.49H223.71C224.26 46.49 224.56 46.77 224.56 47.26C224.56 47.77 224.26 48.05 223.71 48.05H214.87V49.78H222.4C222.95 49.78 223.25 50.04 223.25 50.55C223.25 51.06 222.95 51.35 222.4 51.35H214.87V53H222.47C223.02 53 223.32 53.25 223.32 53.77C223.32 54.29 223.02 54.56 222.47 54.56H214.87V56.46H224.11C224.66 56.46 224.96 56.74 224.96 57.23C224.96 57.74 224.66 58.03 224.11 58.03H213.93V60.16H225.14C225.69 60.16 225.99 60.44 225.99 60.93C225.99 61.44 225.69 61.72 225.14 61.72H215.24C218.25 63.71 221.56 64.81 224.93 65.52C225.96 65.75 226.36 66.46 226.02 67.36L226.01 67.35ZM205.66 48.06C205.6 48.09 205.57 48.14 205.54 48.17V49.79H212.19V48.06H205.66ZM212.19 51.35H205.54V53H212.19V51.35ZM205.9 56.46H212.19V54.56H205.54V56.12C205.54 56.32 205.69 56.46 205.9 56.46Z" fill="#AD9752"/>
<path d="M167.98 61.31C167.69 61.31 167.17 61.22 167.17 60.64C167.17 60.06 167.72 59.97 167.98 59.97H176.41C176.7 59.97 177.22 60.06 177.22 60.64C177.22 61.22 176.67 61.31 176.41 61.31H167.98Z" fill="#AD9752"/>
<path d="M169.57 55.43C169.34 55.43 168.76 55.4 168.76 54.76C168.76 54.18 169.31 54.09 169.57 54.09H175.47C175.76 54.09 176.28 54.18 176.28 54.76C176.28 55.4 175.7 55.43 175.47 55.43H169.57Z" fill="#AD9752"/>
<path d="M25.7 19.34H14.42V20.11H25.7V19.34Z" fill="#AD9752"/>
<path d="M36.8 19.34H25.7V20.11H36.8V19.34Z" fill="#AD9752"/>
<path d="M26.01 8.32001H25.24V19.65H26.01V8.32001Z" fill="#AD9752"/>
<path d="M26.01 19.65H25.24V31.88H26.01V19.65Z" fill="#AD9752"/>
<path d="M16.0841 13.735L15.6991 14.4018L25.4679 20.0418L25.8529 19.375L16.0841 13.735Z" fill="#AD9752"/>
<path d="M25.8535 19.3639L25.4685 20.0307L35.2373 25.6707L35.6223 25.0039L25.8535 19.3639Z" fill="#AD9752"/>
<path d="M20.3404 9.71784L19.6736 10.1028L25.3136 19.8716L25.9804 19.4866L20.3404 9.71784Z" fill="#AD9752"/>
<path d="M25.9748 19.4802L25.308 19.8652L30.948 29.634L31.6148 29.249L25.9748 19.4802Z" fill="#AD9752"/>
<path d="M30.9522 9.67343L25.3139 19.4432L25.9808 19.8281L31.6191 10.0583L30.9522 9.67343Z" fill="#AD9752"/>
<path d="M25.3113 19.4281L19.673 29.1979L20.3399 29.5828L25.9782 19.813L25.3113 19.4281Z" fill="#AD9752"/>
<path d="M35.2421 13.6248L25.4724 19.2631L25.8572 19.93L35.627 14.2917L35.2421 13.6248Z" fill="#AD9752"/>
<path d="M25.4693 19.2731L15.6996 24.9114L16.0845 25.5783L25.8542 19.94L25.4693 19.2731Z" fill="#AD9752"/>
<path d="M25.62 1.77C38.77 1.77 49.46 12.47 49.46 25.61V56.04C49.46 69.19 38.76 79.89 25.62 79.89C12.48 79.89 1.77 69.19 1.77 56.04V25.61C1.77 12.47 12.47 1.77 25.62 1.77ZM25.62 0C11.49 0 0 11.49 0 25.62V56.05C0 70.18 11.49 81.67 25.62 81.67C39.75 81.67 51.24 70.18 51.24 56.05V25.62C51.24 11.49 39.75 0 25.62 0Z" fill="#AD9752"/>
<path d="M25.62 3.70001C13.53 3.70001 3.70001 13.53 3.70001 25.62V56.05C3.70001 68.14 13.53 77.97 25.62 77.97C37.71 77.97 47.54 68.14 47.54 56.05V25.62C47.54 13.53 37.71 3.70001 25.62 3.70001ZM4.66001 25.62C4.66001 14.06 14.06 4.66001 25.62 4.66001C37.18 4.66001 46.58 14.06 46.58 25.62V56.05C46.58 56.13 46.58 56.21 46.58 56.29C46.46 56.16 46.35 56.03 46.23 55.9C44.87 54.31 43.68 52.66 42.57 50.97H42.65V25.62C42.65 21.73 41.34 18.15 39.14 15.28L38.46 15.67C40.6 18.42 41.88 21.87 41.88 25.62V49.89C40.71 48.04 39.62 46.13 38.5 44.16C37.65 42.66 36.77 41.11 35.84 39.6C34.34 37.13 29.78 29.6 23.65 32.25C19.26 34.15 16.57 38.69 13.72 43.49C12.94 44.81 12.13 46.18 11.29 47.46C10.68 48.4 10.04 49.37 9.38001 50.34V25.62C9.38001 21.87 10.66 18.42 12.8 15.67L12.12 15.28C9.92001 18.15 8.61001 21.73 8.61001 25.62V51.47C7.38001 53.25 6.08001 55.02 4.69001 56.74C4.69001 56.51 4.67001 56.28 4.67001 56.05V25.62H4.66001ZM4.77001 58.15C7.52001 54.88 9.93001 51.33 12.1 48C12.95 46.69 13.76 45.32 14.55 43.99C17.31 39.33 19.92 34.92 24.03 33.14C28.66 31.13 32.32 35.75 34.74 39.66C34.35 41.33 32.86 42.74 30.73 43.42C29.15 43.93 27.45 44.13 25.81 44.33C24.58 44.48 23.31 44.63 22.08 44.91C20.16 45.34 18.08 46.03 17.21 47.86C16.29 49.79 17.44 51.7 18.91 52.66C20.31 53.58 22.52 54.38 24.87 55.23C26.81 55.93 28.86 56.69 30.6 57.55C31.87 58.18 32.79 58.91 32.79 58.91C32.79 58.91 38.05 62.15 30.06 67.55C23.19 72.19 15.19 72.33 12.3 72.2C8.15001 68.77 5.34001 63.78 4.77001 58.14V58.15ZM25.62 77C24.09 77 22.6 76.83 21.16 76.52C23.37 75.72 31.78 72.37 34.9 66.93C38.42 60.8 33.05 57.79 33 57.76C31.64 56.96 30.59 56.45 29.31 55.9C28.03 55.36 26.73 54.88 25.42 54.4C25.34 54.37 25.27 54.34 25.19 54.32C22.9 53.49 20.74 52.7 19.43 51.85C18.27 51.09 17.4 49.69 18.07 48.27C18.77 46.81 20.59 46.23 22.28 45.85C23.47 45.58 24.71 45.43 25.92 45.29C27.61 45.09 29.35 44.88 31.02 44.34C33.11 43.67 34.68 42.35 35.38 40.74C36.16 42.04 36.91 43.36 37.64 44.64C39.93 48.66 42.3 52.82 45.48 56.53C45.81 56.92 46.16 57.29 46.5 57.66C45.67 68.46 36.62 77 25.61 77H25.62Z" fill="#AD9752"/>
</g>
<path fill-rule="evenodd" clip-rule="evenodd" d="M13.91 121.18V127.69L13.61 128.3H19.8L19.49 127.7V109.92L19.8 109.31H0.0599976L0.359998 109.92V127.69L0.0599976 128.3H6.25L5.94 127.7V121.18C5.94 119.1 7.55 117.17 9.95 117.17C12.2 117.17 13.9 119.01 13.9 121.18H13.91Z" fill="white"/>
<path d="M27.51 111.72H30.02L31.06 110.63L32.38 111.57C32.53 111.7 32.61 111.83 32.61 111.95C32.61 112.16 32.5 112.25 32.31 112.25H30.91V127.49C30.91 127.68 30.83 127.81 30.68 127.9C30.43 127.96 30.19 127.99 29.94 127.99C29.6 127.99 29.43 127.9 29.43 127.71L29.51 124.69V123.16C28.62 123.59 27.66 124.01 26.62 124.39L26.45 125.03C26.41 125.2 26.34 125.28 26.19 125.28C26.04 125.28 25.93 125.19 25.89 124.96L25.23 123.22C25.63 123.18 26.02 123.13 26.4 123.05V112.28C26.06 112.32 25.76 112.34 25.46 112.37L25.08 111.48C25.89 111.63 26.7 111.71 27.51 111.71V111.72ZM29.51 115.27V112.25H27.74V115.27H29.51ZM29.51 118.94V115.77H27.74V118.94H29.51ZM29.51 122.58V119.45H27.74V122.86C28.34 122.78 28.93 122.69 29.51 122.58ZM35.24 111.51C35.43 111.59 35.54 111.68 35.54 111.79C35.54 111.98 35.26 112.11 34.73 112.17C34.26 112.83 33.65 113.58 32.92 114.43C33 114.51 33.09 114.58 33.17 114.62C33.51 114.92 33.7 115.2 33.7 115.47C33.7 116.02 33.46 116.28 32.96 116.28C32.83 116.28 32.71 116.17 32.62 115.92C32.28 115.24 31.83 114.56 31.26 113.84L31.64 113.63C31.96 113.82 32.24 113.99 32.47 114.12C32.7 113.55 32.87 113.1 33.02 112.74C33.27 112.08 33.47 111.44 33.62 110.82L35.24 111.5V111.51ZM36.53 114.04C36.7 114.12 36.79 114.19 36.79 114.3C36.79 114.49 36.54 114.62 36.05 114.66C35.41 115.51 34.6 116.47 33.62 117.55C33.73 117.55 33.85 117.55 33.96 117.53C34.58 117.49 35.11 117.44 35.54 117.4C35.43 117.14 35.29 116.85 35.16 116.59L35.54 116.36C35.99 116.74 36.37 117.11 36.67 117.45C36.93 117.81 37.08 118.11 37.08 118.36C37.08 118.91 36.85 119.17 36.42 119.17C36.19 119.17 36.04 119 35.97 118.64C35.89 118.41 35.84 118.17 35.76 117.94C35.38 118.09 34.93 118.26 34.4 118.45C33.61 118.75 33.02 118.94 32.65 119.02L32.42 119.55C32.34 119.7 32.25 119.76 32.14 119.76C31.99 119.76 31.89 119.65 31.88 119.4L31.41 117.7C31.9 117.68 32.41 117.64 32.92 117.61C33.34 116.89 33.67 116.33 33.92 115.89C34.35 115.04 34.71 114.21 35.01 113.42L36.52 114.04H36.53ZM33.22 120.26C33.48 120.3 33.62 120.41 33.62 120.56C33.62 120.65 33.54 120.73 33.43 120.79L33.19 120.92V123.35H34.89C34.93 122.97 34.97 122.56 34.97 122.1V121.72C34.97 121.36 34.91 120.61 34.82 119.44L36.5 119.69C36.84 119.73 37.03 119.86 37.03 120.05C37.03 120.22 36.8 120.39 36.37 120.56V122.11C36.37 122.9 36.28 123.6 36.12 124.24C35.97 124.82 35.76 125.33 35.46 125.75C35.14 126.2 34.72 126.58 34.21 126.92C33.68 127.28 32.91 127.62 31.93 127.94L31.8 127.49C32.44 127.21 32.95 126.91 33.29 126.57C33.7 126.23 34.04 125.83 34.31 125.38C34.52 125.02 34.69 124.55 34.8 123.97C34.8 123.93 34.82 123.91 34.82 123.89H33.2V124.63C33.2 124.82 33.09 124.97 32.9 125.08C32.69 125.17 32.5 125.21 32.32 125.21C32.04 125.21 31.89 125.1 31.89 124.83L31.95 123.08V121.89C31.95 120.83 31.89 120.23 31.82 120.06L33.25 120.27L33.22 120.26ZM40.85 111.59C41.04 111.67 41.15 111.76 41.15 111.87C41.15 112.06 40.87 112.19 40.34 112.25C39.85 112.91 39.25 113.68 38.49 114.57C38.58 114.65 38.68 114.72 38.77 114.78C39.11 115.04 39.3 115.31 39.3 115.55C39.3 116.1 39.05 116.36 38.56 116.36C38.43 116.36 38.31 116.25 38.2 116.02C37.86 115.38 37.43 114.74 36.86 114.08L37.24 113.85C37.54 114.02 37.81 114.17 38.03 114.28C38.28 113.68 38.46 113.2 38.61 112.83C38.84 112.17 39.04 111.53 39.21 110.91L40.83 111.59H40.85ZM42.34 114.04C42.53 114.12 42.62 114.19 42.62 114.3C42.62 114.49 42.37 114.62 41.88 114.66C41.24 115.41 40.45 116.28 39.5 117.26C39.58 117.26 39.63 117.24 39.69 117.24C40.33 117.18 40.86 117.13 41.31 117.07C41.2 116.84 41.1 116.64 40.99 116.43L41.35 116.2C41.84 116.6 42.26 116.97 42.6 117.35C42.9 117.71 43.05 118.01 43.05 118.27C43.05 118.87 42.8 119.16 42.31 119.16C42.06 119.16 41.91 118.97 41.84 118.59C41.76 118.25 41.65 117.93 41.52 117.59C41.14 117.76 40.69 117.95 40.16 118.14C39.44 118.44 38.9 118.63 38.56 118.71L38.33 119.24C38.25 119.39 38.16 119.45 38.05 119.45C37.9 119.45 37.8 119.34 37.79 119.09L37.32 117.39C37.81 117.37 38.28 117.33 38.75 117.3C39.16 116.66 39.5 116.13 39.73 115.73C40.18 114.94 40.54 114.16 40.84 113.41L42.33 114.03L42.34 114.04ZM39.07 119.87C39.37 119.91 39.52 120.02 39.52 120.19C39.52 120.32 39.44 120.42 39.29 120.47L38.99 120.64V123.36H40.82L40.84 123V122.19C40.84 121.06 40.78 120.38 40.69 120.19L42.2 120.42C42.46 120.46 42.62 120.57 42.62 120.72C42.62 120.83 42.54 120.93 42.43 120.98L42.17 121.15V124.62C42.17 124.81 42.06 124.96 41.87 125.07C41.66 125.16 41.47 125.2 41.3 125.2C40.96 125.2 40.79 125.07 40.77 124.77L40.81 123.88H39V127.26C39 127.49 38.87 127.66 38.64 127.77C38.41 127.88 38.19 127.94 37.98 127.94C37.7 127.94 37.55 127.79 37.53 127.49L37.61 125.58V121.67C37.61 120.48 37.55 119.78 37.46 119.6L39.08 119.86L39.07 119.87Z" fill="white"/>
<path d="M47.85 112.25H49.62L50.66 111.14L51.98 112.1C52.13 112.21 52.21 112.35 52.21 112.46C52.21 112.67 52.1 112.76 51.91 112.76H49.12C48.76 114.36 48.42 115.65 48.08 116.59C47.97 116.95 47.83 117.29 47.72 117.59L48.15 117.84H49.55L50.36 117.03L51.45 117.88C51.64 118.01 51.75 118.13 51.75 118.22C51.75 118.35 51.67 118.45 51.56 118.5L51.09 118.73V124.48L51.17 126.1C51.17 126.23 51.08 126.35 50.92 126.44C50.77 126.55 50.58 126.61 50.35 126.61C49.9 126.61 49.69 126.48 49.69 126.25V125.29H48.14V126.54C48.14 126.8 48.01 126.97 47.74 127.09C47.55 127.17 47.32 127.2 47.1 127.2C46.82 127.2 46.67 127.05 46.67 126.77C46.67 126.39 46.69 125.77 46.75 124.85V119.59C46.71 119.68 46.67 119.76 46.64 119.8C46.19 120.59 45.73 121.23 45.28 121.76L45.05 121.4C45.3 120.98 45.56 120.38 45.84 119.59C46.2 118.53 46.52 117.38 46.78 116.18C47.01 115.16 47.23 114.03 47.42 112.8C46.87 112.82 46.33 112.86 45.78 112.93L45.4 112.04C46.21 112.19 47.02 112.27 47.83 112.27L47.85 112.25ZM49.7 124.77V118.36H48.15V124.77H49.7ZM56.74 125.21C56.91 125.32 57 125.46 57 125.59C57 125.76 56.7 125.85 56.11 125.87C55.2 126.38 54.28 126.81 53.34 127.17C52.76 127.38 51.87 127.64 50.66 127.94L50.43 127.56C51.52 127.03 52.41 126.56 53.09 126.14C53.9 125.57 54.66 124.97 55.37 124.31L56.73 125.2L56.74 125.21ZM54.85 111.64H60.02L61.11 110.4L62.58 111.46C62.73 111.61 62.81 111.74 62.81 111.88C62.81 112.09 62.72 112.18 62.53 112.18H58.06C57.65 113.09 57.14 113.97 56.55 114.82H59.72L60.61 113.93L61.7 114.84C61.89 114.97 62 115.09 62 115.2C62 115.33 61.92 115.43 61.81 115.48L61.34 115.71V122.35L61.42 123.97C61.42 124.12 61.33 124.25 61.17 124.37C61.02 124.5 60.83 124.56 60.6 124.56C60.11 124.56 59.86 124.45 59.86 124.18V123.75H54.56V124.05C54.56 124.28 54.45 124.43 54.24 124.5C54.01 124.65 53.79 124.71 53.52 124.71C53.18 124.71 53.01 124.54 53.01 124.18L53.09 122.35V115.28C53.09 114.64 53.03 114.2 52.94 114.02L54.56 114.83H55.92L56.43 112.19H54.85C54.17 112.19 53.47 112.25 52.79 112.32L52.41 111.45C53.22 111.6 54.03 111.66 54.84 111.66L54.85 111.64ZM59.87 117.55V115.34H54.57V117.55H59.87ZM59.87 120.26V118.05H54.57V120.26H59.87ZM59.87 123.23V120.8H54.57V123.23H59.87ZM61.79 125.64C62.56 126.04 62.96 126.47 62.96 126.98C62.96 127.49 62.68 127.79 62.15 127.79C62 127.79 61.81 127.66 61.58 127.43C60.71 126.6 59.56 125.77 58.17 124.9L58.4 124.54C59.81 124.86 60.95 125.22 61.8 125.63L61.79 125.64Z" fill="white"/>
<path d="M67.18 116.08V112.25C67.18 112.06 67.14 111.7 67.1 111.14L68.82 111.39C69.14 111.43 69.31 111.54 69.31 111.73C69.31 111.94 69.07 112.11 68.57 112.26V116.09H68.95L69.84 115.13L71.03 115.98C71.16 116.09 71.24 116.21 71.24 116.3C71.24 116.51 71.16 116.6 71.01 116.6H68.58V122.3C68.77 122.22 68.96 122.15 69.15 122.07C69.85 121.79 70.45 121.49 70.94 121.16L71.02 121.61C70.62 122.01 70.19 122.38 69.72 122.74C69.19 123.16 68.53 123.59 67.72 124.04C67.23 124.3 66.78 124.53 66.38 124.7L66.17 125.21C66.08 125.47 65.94 125.59 65.79 125.59C65.68 125.57 65.58 125.46 65.53 125.23L65.06 123.29C65.61 123.23 66.29 123.08 67.08 122.84C67.12 122.84 67.16 122.82 67.19 122.8V116.59C66.55 116.61 65.94 116.67 65.34 116.74L64.98 115.85C65.72 116 66.45 116.08 67.19 116.08H67.18ZM79.7 115.19L80.66 114.15L82.13 115.09C82.32 115.22 82.43 115.35 82.43 115.47C82.43 115.62 82.11 115.83 81.47 116.07C81.17 119.47 80.98 121.37 80.89 121.79C80.74 122.19 80.51 122.45 80.21 122.6C79.89 122.83 79.46 122.92 78.89 122.92C78.83 122.24 78.72 121.86 78.53 121.75L77.64 121.3L77.72 120.87L79.04 121.15C79.19 121.15 79.32 121.11 79.44 121.02C79.55 120.94 79.63 120.77 79.69 120.51C79.77 120.21 79.88 118.62 80.07 115.74L77.2 116.66V123C77.2 123.23 77.07 123.4 76.84 123.51C76.61 123.62 76.39 123.66 76.18 123.66C75.84 123.66 75.67 123.49 75.65 123.15L75.73 121.15V117.13L73.52 117.85V124.98C73.52 125.38 73.78 125.62 74.33 125.7C74.86 125.81 75.93 125.87 77.52 125.87C79.11 125.87 79.99 125.81 80.44 125.68C80.8 125.6 81.04 125.45 81.16 125.23L81.91 122.93H82.29V124.99C82.29 125.22 82.4 125.41 82.63 125.56C82.78 125.71 82.88 125.92 82.88 126.18C82.88 126.42 82.73 126.61 82.47 126.75C82.21 126.92 81.75 127.05 81.11 127.15C80.3 127.23 79.13 127.28 77.6 127.28C75.79 127.28 74.54 127.2 73.86 127.07C73.26 126.99 72.78 126.81 72.48 126.49C72.18 126.17 72.05 125.75 72.05 125.23V118.36L71.5 118.53L70.42 119.04L70.04 118L71.23 117.94L72.04 117.68V114.25C72.04 113.46 72 112.97 71.96 112.78L73.85 113.01C74.11 113.05 74.25 113.14 74.25 113.29C74.25 113.42 74.16 113.54 73.97 113.61L73.52 113.87V117.23L75.73 116.53V112.93C75.73 111.67 75.67 110.93 75.58 110.7L77.28 110.96C77.58 111.02 77.73 111.13 77.73 111.3C77.73 111.43 77.65 111.55 77.5 111.62L77.2 111.81V116.05L79.77 115.24L79.71 115.2L79.7 115.19Z" fill="white"/>
<path d="M87.9 118.79C87.9 121.11 87.64 123 87.11 124.45C86.66 125.77 86 126.9 85.17 127.86L84.89 127.56C85.3 126.77 85.66 125.82 85.95 124.67C86.27 123.35 86.44 121.39 86.44 118.78V117.89C86.44 117.32 86.4 116.85 86.36 116.49L87.79 117.38H99.62L100.81 116.06L102.32 117.17C102.47 117.32 102.57 117.45 102.57 117.6C102.57 117.79 102.44 117.88 102.21 117.88H87.91V118.77L87.9 118.79ZM95.18 110.7C95.52 110.76 95.71 110.87 95.71 111.06C95.71 111.29 95.46 111.49 94.97 111.64V112.38H99.1L100.19 111.14L101.64 112.22C101.79 112.35 101.89 112.48 101.89 112.62C101.89 112.83 101.8 112.92 101.61 112.92H97.63L98.71 113.47C98.92 113.56 99.03 113.7 99.03 113.87C99.03 114.06 98.73 114.15 98.14 114.17C97.72 114.43 97.29 114.66 96.88 114.87C97.29 115.02 97.67 115.17 97.97 115.3C98.57 115.56 98.88 115.9 98.88 116.3C98.88 116.75 98.63 116.98 98.14 116.98C98.03 116.98 97.74 116.87 97.33 116.6C96.78 116.26 96.12 115.9 95.37 115.54C94.54 115.88 93.65 116.16 92.69 116.39C91.8 116.63 90.48 116.88 88.71 117.11L88.56 116.68C89.62 116.47 90.37 116.3 90.82 116.19C91.69 115.96 92.46 115.72 93.14 115.42C93.48 115.29 93.8 115.14 94.1 114.99C92.74 114.44 91.52 114.03 90.4 113.74L90.68 113.44C92.34 113.7 93.81 113.99 95.09 114.33C95.13 114.35 95.18 114.37 95.22 114.37C95.37 114.28 95.52 114.18 95.67 114.09C96.24 113.71 96.73 113.32 97.14 112.94H88.69C87.99 112.94 87.31 113 86.63 113.07L86.25 112.2C87.06 112.35 87.87 112.41 88.68 112.41H93.47V111.6C93.47 111.43 93.43 111.07 93.39 110.51L95.14 110.74L95.18 110.7ZM92.07 119.06C92.28 119.14 92.39 119.27 92.39 119.46C92.39 119.63 92.14 119.76 91.65 119.84C91.4 120.29 91.18 120.67 90.99 121.01H94.16V119.46C94.16 119.29 94.12 118.93 94.08 118.37L95.83 118.6C96.17 118.66 96.36 118.77 96.36 118.96C96.36 119.19 96.11 119.39 95.62 119.54V121.01H98.71L99.75 119.84L101.15 120.86C101.3 120.99 101.38 121.12 101.38 121.24C101.38 121.45 101.27 121.54 101.08 121.54H95.63V123.75H98.37L99.39 122.56L100.79 123.58C100.94 123.71 101.02 123.84 101.02 123.98C101.02 124.17 100.93 124.26 100.74 124.26H95.65V126.84H99.78L100.89 125.59L102.34 126.65C102.49 126.78 102.57 126.91 102.57 127.07C102.57 127.26 102.48 127.35 102.29 127.35H90.05C89.37 127.35 88.67 127.39 87.99 127.5L87.61 126.61C88.42 126.76 89.23 126.84 90.04 126.84H94.17V124.26H92.4C91.72 124.26 91.02 124.32 90.34 124.41L89.96 123.52C90.77 123.67 91.58 123.75 92.39 123.75H94.16V121.54H90.67C90.44 121.88 90.24 122.16 90.05 122.43C89.65 122.92 89.09 123.51 88.33 124.18L87.97 123.97C88.57 123.06 89.03 122.23 89.35 121.48C89.73 120.65 90.07 119.65 90.41 118.52L92.07 119.07V119.06Z" fill="white"/>
<path d="M150.85 122.28C152.12 122.18 153.48 122.07 154.87 121.95L154.91 122.24C153.83 122.55 152.51 122.91 150.85 123.32V125.59C150.85 126.84 150.54 127.67 148.33 127.86C148.33 126.59 147.89 126.32 146.58 126.17V125.9H148.56C148.79 125.9 148.87 125.84 148.87 125.61V123.8C148.12 123.99 147.33 124.17 146.49 124.36C146.39 124.61 146.18 124.74 145.97 124.78L145.12 122.65C145.93 122.63 147.25 122.53 148.87 122.42V121.07L150.48 121.17C150.81 120.65 151.21 119.94 151.48 119.42H146.23L146.1 119.05H151.46L152.5 118.01L154.31 119.74C154.16 119.89 153.96 119.93 153.56 119.95C152.91 120.3 151.93 120.81 151.06 121.2L151.56 121.24C151.54 121.47 151.44 121.61 150.85 121.68V122.28ZM145.27 112.86L145.17 112.48H148.86V109.77L151.55 110.02C151.53 110.25 151.36 110.39 150.84 110.44V112.48H151.82L152.95 110.94L155.04 112.54C154.89 112.79 154.64 112.87 154.12 112.87H145.26L145.27 112.86ZM153.35 117.47C153.33 117.6 152.39 117.93 151.79 117.93H151.46V117.39H148.14V117.68C148.14 117.68 147.85 118.33 146.28 118.33V113.54L148.24 114.33H151.28L152.03 113.35L154.14 114.81C154.02 114.96 153.74 115.12 153.35 115.21V117.46V117.47ZM148.14 117.03H151.46V114.72H148.14V117.03ZM163.44 114.34C163.29 114.59 163.02 114.67 162.5 114.67H162C161.54 117.88 160.73 120.63 159.17 122.86C160.27 124.21 161.71 125.28 163.53 126.05L163.47 126.24C162.55 126.43 161.97 126.95 161.72 127.87C160.16 126.93 158.99 125.68 158.11 124.16C156.69 125.68 154.8 126.91 152.25 127.83L152.13 127.56C154.53 126.33 156.22 124.72 157.41 122.76C156.64 120.93 156.16 118.82 155.87 116.46C155.33 117.34 154.68 118.17 153.91 118.88L153.72 118.67C155.12 116.13 155.81 112.37 156.01 109.79L158.89 110.65C158.83 110.88 158.66 111.03 158.16 111.03C157.87 112.03 157.49 113.16 156.99 114.3H160.05L161.24 112.61L163.43 114.34H163.44ZM156.84 114.67C156.65 115.07 156.44 115.5 156.21 115.9C156.61 117.99 157.23 119.84 158.15 121.4C159.03 119.46 159.55 117.21 159.84 114.67H156.84Z" fill="white"/>
<path d="M174.31 111.32C174.18 111.59 173.93 111.65 173.43 111.65H172.6V127.31C172.6 127.44 172.08 127.83 171.22 127.83H170.93V123.28C170.14 123.7 169.12 124.22 167.86 124.82C167.76 125.07 167.55 125.22 167.34 125.26L166.59 123.01C166.88 122.99 167.28 122.97 167.76 122.93V111.65H166.7L166.6 111.29H171.38L172.4 109.98L174.3 111.33L174.31 111.32ZM170.93 114.97V111.65H169.39V114.97H170.93ZM170.93 118.84V115.36H169.39V118.84H170.93ZM169.39 119.22V122.78C169.87 122.74 170.39 122.68 170.93 122.63V119.23H169.39V119.22ZM173.37 112.82C173.85 112.92 174.25 113.03 174.58 113.17C174.95 112.07 175.29 110.69 175.44 109.94L177.67 110.67C177.61 110.82 177.48 110.94 177.13 110.92C176.67 111.53 175.84 112.57 175.02 113.4C175.52 113.71 175.71 114.07 175.71 114.42C175.71 114.9 175.27 115.32 174.81 115.32C174.56 115.32 174.33 115.2 174.12 114.97C174.08 114.3 173.7 113.43 173.22 112.95L173.37 112.82ZM183.17 110.69C183.09 110.86 182.96 110.98 182.59 110.94C182.13 111.55 181.24 112.54 180.38 113.32C180.98 113.67 181.19 114.09 181.19 114.47C181.19 114.97 180.77 115.39 180.29 115.39C180.06 115.39 179.81 115.29 179.6 115.04C179.56 114.46 179.29 113.77 178.93 113.25C178.85 113.37 178.72 113.42 178.51 113.42C178.41 113.42 178.32 113.42 178.2 113.4C177.47 114.5 176.36 116.03 175.32 117.3C175.92 117.28 176.57 117.24 177.24 117.2C177.11 116.74 176.89 116.28 176.66 115.95L176.85 115.85C178.52 116.45 179.06 117.27 179.06 117.91C179.06 118.49 178.62 118.91 178.16 118.91C177.91 118.91 177.66 118.79 177.45 118.53C177.45 118.28 177.43 117.99 177.37 117.72C176.64 118.03 175.68 118.41 174.47 118.87C174.36 119.12 174.16 119.24 173.95 119.27L173.24 117.35C173.59 117.35 174.1 117.33 174.7 117.31C175.43 115.77 176.26 113.75 176.76 112.31L178.85 113.14C178.77 113.04 178.7 112.97 178.62 112.89L178.77 112.74C179.25 112.84 179.63 112.95 179.96 113.09C180.33 111.99 180.73 110.63 180.9 109.88L183.17 110.67V110.69ZM176.52 123.3C176.54 123.07 176.54 122.86 176.54 122.63V119.32L178.81 119.51C178.79 119.76 178.64 119.88 178.12 119.93V122.64C178.1 124.7 177.31 126.68 173.66 127.81L173.49 127.6C175.57 126.56 176.28 125.16 176.49 123.66H175.34V124.47C175.34 124.47 175.11 124.89 173.82 124.89V119.95L176.03 120.12C175.99 120.37 175.86 120.49 175.34 120.54V123.29H176.53L176.52 123.3ZM178.94 117.26C179.25 117.26 179.71 117.26 180.25 117.24C180.98 115.7 181.81 113.76 182.34 112.34L184.61 113.26C184.53 113.41 184.4 113.49 184.11 113.49C184.03 113.49 183.94 113.49 183.84 113.47C183.11 114.55 181.98 116.01 180.88 117.24L182.94 117.18C182.81 116.72 182.61 116.28 182.38 115.95L182.57 115.83C184.26 116.5 184.82 117.37 184.82 118.06C184.82 118.67 184.36 119.14 183.86 119.14C183.59 119.14 183.32 119.01 183.11 118.72C183.13 118.41 183.11 118.07 183.05 117.72C182.34 118.01 181.4 118.37 180.22 118.8C180.09 119.05 179.89 119.18 179.68 119.2L178.93 117.26H178.94ZM182.46 123.3V119.94L184.65 120.13C184.63 120.36 184.5 120.48 183.98 120.53V124.47C183.98 124.47 183.71 124.89 182.46 124.89V123.68H181V127.33C181 127.33 180.75 127.81 179.37 127.81V119.3L181.81 119.49C181.77 119.78 181.6 119.91 181 119.99V123.3H182.46Z" fill="white"/>
<path d="M192.89 116.3H189.82V127C189.82 127.06 189.61 127.83 187.88 127.83V110.32L189.94 111.2H192.73L193.46 110.24L195.5 111.66C195.38 111.79 195.13 111.95 194.79 112.03V116.8C194.79 116.8 194.33 117.36 192.91 117.36V116.3H192.89ZM192.89 111.59H189.82V113.53H192.89V111.59ZM189.81 115.92H192.88V113.92H189.81V115.92ZM201.32 122.05C201.17 122.3 200.94 122.4 200.44 122.4H198.5V126.51C198.5 126.61 197.94 126.93 197.06 126.93H196.75V122.39H194.75C194.56 124.02 193.83 125.81 191.16 126.98L190.99 126.75C192.51 125.46 192.95 123.91 193.07 122.39H190.76L190.64 122.01H193.08C193.1 121.76 193.1 121.51 193.1 121.26V119.07H191.18L191.08 118.69H197.84L198.8 117.44L200.57 118.73C200.44 119 200.19 119.08 199.67 119.08H198.5V122.02H198.75L199.65 120.75L201.32 122.06V122.05ZM194.81 121.26C194.81 121.51 194.79 121.76 194.79 122.01H196.75V119.07H194.81V121.26ZM202.48 110.11L204.65 111.71C204.52 111.86 204.23 112.04 203.84 112.11V125.31C203.84 126.67 203.51 127.64 201.36 127.83C201.36 126.27 200.9 125.97 199.67 125.81V125.54H201.57C201.76 125.54 201.84 125.46 201.84 125.27V116.3H198.63V116.57C198.63 116.57 198.38 117.26 196.73 117.26V110.38L198.73 111.21H201.65L202.48 110.11ZM201.84 111.59H198.63V113.53H201.84V111.59ZM198.63 115.92H201.84V113.92H198.63V115.92Z" fill="white"/>
<path d="M214.08 121.01L216.02 122.45C215.89 122.6 215.65 122.72 215.29 122.76C214.96 127.05 214.23 127.8 211.77 127.8C211.77 126.8 211.6 126.4 209.75 126.11V125.82C210.44 125.86 211.71 125.88 212.09 125.9C212.42 125.9 212.55 125.88 212.69 125.78C213.04 125.51 213.27 124.3 213.44 122.32H211.11C211.05 122.63 211.01 122.93 210.96 123.18C210.71 123.31 210.46 123.37 210.11 123.37C209.86 123.37 209.55 123.33 209.15 123.25C209.5 121.75 209.86 119.64 210.01 118.45L211.91 119.3H213.29V116.67H211.08C210.08 117.23 208.99 117.69 207.77 118.07L207.67 117.8C209.13 117.05 210.4 116.05 211.42 114.92C211.32 114.96 211.21 114.96 211.11 114.96C210.88 114.96 210.63 114.88 210.38 114.65C210.27 113.92 209.71 113.11 209.05 112.67L209.17 112.52C211.51 112.52 212.19 113.37 212.11 114.08C212.71 113.25 213.21 112.39 213.55 111.5H208.94L208.82 111.12H213.49L214.7 109.97L216.7 111.66C216.57 111.85 216.39 111.93 215.95 111.95C215.03 113.66 213.59 115.14 211.72 116.29H213.56L214.19 115.41L215.8 116.87C215.67 117 215.42 117.14 215.11 117.18V120.18C215.09 120.24 214.32 120.55 213.61 120.55H213.26V119.7H211.47C211.39 120.3 211.28 121.14 211.14 121.95H213.23L214.02 121.03L214.08 121.01ZM225.57 113.17C225.49 113.28 225.38 113.36 225.17 113.36C225.09 113.36 225 113.34 224.86 113.32C224.25 113.68 223.38 114.11 222.52 114.43C223.65 114.99 224.9 115.43 226.13 115.74L226.09 115.95C225.26 116.12 224.65 116.76 224.38 117.74C223.8 117.49 223.23 117.2 222.71 116.88C222.59 116.94 222.44 116.98 222.29 117V118.73C222.29 118.96 222.29 118.98 222.56 118.98H223.64C223.79 118.98 223.89 118.98 224.01 118.86C224.18 118.65 224.43 118.03 224.59 117.63H224.76L224.8 118.9C225.3 119.09 225.38 119.21 225.38 119.51C225.38 120.18 224.92 120.61 223.63 120.61H222.5L224.25 122.09C224.12 122.28 223.92 122.34 223.5 122.36C223 123.32 222.31 124.17 221.46 124.88C222.71 125.28 224.11 125.51 225.59 125.65V125.88C224.74 126.13 224.23 126.8 224.03 127.82C222.4 127.4 221.01 126.84 219.9 125.99C218.5 126.8 216.82 127.39 214.87 127.8L214.77 127.53C216.44 126.95 217.84 126.15 218.96 125.15C218.19 124.32 217.58 123.27 217.15 121.92H216.15L216.03 121.56H221.18L222.2 120.62C220.6 120.62 220.47 120.24 220.47 118.66V116.68H218.72V117.47C218.72 118.62 218.35 120.41 215.47 121.37L215.32 121.14C216.72 120.04 216.86 118.64 216.86 117.47V115.47L219.01 116.3H220.28L220.84 115.55C219.23 114.15 218 112.3 217.27 109.86L217.54 109.71C218 110.75 218.67 111.65 219.5 112.42C220.17 111.65 220.88 110.67 221.25 110.02L223.29 111.33C223.21 111.46 223.1 111.56 222.89 111.56C222.79 111.56 222.7 111.54 222.56 111.5C221.89 111.92 220.91 112.42 219.95 112.83C220.55 113.33 221.22 113.77 221.93 114.16C222.56 113.43 223.22 112.49 223.56 111.85L225.6 113.2L225.57 113.17ZM217.5 121.91C218.04 122.91 218.86 123.64 219.86 124.2C220.44 123.51 220.9 122.74 221.24 121.91H217.49H217.5Z" fill="white"/>
<path d="M122.84 120.29V121.67H123.78C123.78 121.67 123.74 121.64 123.72 121.62C123.31 121.28 123.01 120.83 122.84 120.28V120.29Z" fill="white"/>
<path d="M122.84 122.48V127.9L122.93 127.83L130.54 122.48H122.84Z" fill="white"/>
<path d="M123.7 116.33C124.01 116.08 124.38 115.89 124.81 115.76C124.56 115.62 124.32 115.45 124.11 115.26C123.34 114.57 122.92 113.64 122.83 112.49V117.66C123 117.11 123.29 116.67 123.69 116.33H123.7Z" fill="white"/>
<path d="M124.65 114.66C125.32 115.25 126.22 115.55 127.34 115.55C128.53 115.55 129.44 115.31 130.05 114.83C130.72 114.3 131.05 113.48 131.05 112.34V109.93H123.63V112.07C123.63 113.19 123.96 114.03 124.65 114.65V114.66Z" fill="white"/>
<path d="M132.48 127.91L132.59 127.83L140.2 122.49H132.44V121.74L135.24 120.59V116.5L132.44 115.36V114.95V109.93H131.86V112.34C131.86 113.71 131.42 114.75 130.55 115.44C130.5 115.48 130.45 115.52 130.4 115.55H131.86V116.36H126.42C125.45 116.36 124.74 116.56 124.25 116.96C123.73 117.39 123.46 118.06 123.46 118.98C123.46 119.9 123.72 120.58 124.25 121.01C124.75 121.41 125.48 121.61 126.42 121.61H131.86V122.53L131.75 122.61L124.19 127.93H132.49L132.48 127.91Z" fill="white"/>
<path d="M141.31 118.98L134.77 121.68H141.46V118.92L141.31 118.98Z" fill="white"/>
<path d="M141.4 122.59L133.84 127.92H141.46V122.56L141.4 122.59Z" fill="white"/>
<path d="M141.46 109.93H133.25V114.58H141.46V109.93Z" fill="white"/>
<path d="M140.26 118.56L136.05 116.84V120.26L140.26 118.56Z" fill="white"/>
<path d="M141.46 118.18V115.39H134.68L141.46 118.18Z" fill="white"/>
</svg>
