<svg width="102" height="50" viewBox="0 0 102 50" fill="none" xmlns="http://www.w3.org/2000/svg">
<g opacity="0.55">
<path d="M0.959229 1.31964H9.7294V10.2444H9.02626V9.7603H1.63119V10.2444H0.959229V1.31964ZM1.63119 9.12964H9.02626V1.95372H1.63119V9.12964ZM5.35817 7.01947L5.37895 7.50355C3.56396 7.8649 2.52137 8.06944 2.2512 8.11717L2.1369 7.59559C2.53869 7.53423 3.61245 7.34333 5.35817 7.02288V7.01947ZM7.41909 4.39456L7.98714 4.51387C7.7239 5.46498 7.32903 6.31382 6.79562 7.05698C7.06579 7.70127 7.37406 8.04559 7.72736 8.09331C7.88669 8.11376 8.001 7.7524 8.07027 7.00924C8.2296 7.14901 8.38547 7.25128 8.53788 7.30924C8.4686 7.85808 8.3543 8.23989 8.19497 8.45125C8.03563 8.66261 7.82088 8.72397 7.55417 8.63874C7.09003 8.55011 6.7021 8.19899 6.38343 7.58196C5.96086 8.05922 5.4794 8.46829 4.93213 8.81942C4.82129 8.67283 4.67928 8.52625 4.50609 8.38648C5.15381 8.01831 5.70108 7.55127 6.14097 6.98879C5.85695 6.18427 5.65605 5.14794 5.54175 3.88321H2.24081V3.36163H5.49325C5.45169 2.87756 5.42398 2.49574 5.41013 2.21621H6.03013C6.05784 2.7446 6.08209 3.12641 6.10287 3.36163H8.46514V3.88321H6.14444C6.24142 4.86841 6.3869 5.70702 6.58087 6.39563C6.96188 5.79224 7.23898 5.12749 7.41909 4.39456ZM2.63568 4.57523H4.98755V6.56608H2.63568V4.57523ZM4.4576 6.11609V5.02181H3.14138V6.11609H4.4576ZM8.16726 2.82642L7.83474 3.18777C7.53686 2.91164 7.14892 2.67302 6.664 2.46507L7.00691 2.12417C7.50915 2.33212 7.89708 2.56734 8.16726 2.82642Z" fill="white"/>
<path d="M21.2705 1.26168L21.7174 1.50372C21.274 2.96958 20.9865 3.89342 20.848 4.26841C21.3502 4.97748 21.61 5.74451 21.6238 6.56948C21.6238 7.17969 21.5061 7.5649 21.2705 7.72512C21.1597 7.82398 21.0038 7.88535 20.8029 7.9058C20.6575 7.92625 20.4635 7.92966 20.2245 7.91603C20.2245 7.68762 20.176 7.49331 20.079 7.33309C20.2522 7.35355 20.415 7.35695 20.5674 7.34332C20.6852 7.34332 20.7787 7.31264 20.848 7.25128C20.9657 7.1456 21.0246 6.89674 21.0246 6.50811C21.0246 5.76495 20.7648 5.04225 20.2487 4.33659C20.4912 3.65479 20.7267 2.84346 20.9519 1.90257H19.7811V10.2137H19.1611V1.28895H21.1909L21.274 1.25827L21.2705 1.26168ZM23.1652 5.63201V5.16838C22.7911 5.55019 22.3859 5.86723 21.9425 6.1229C21.797 5.92177 21.6619 5.76496 21.5373 5.64905C22.0672 5.3661 22.5487 4.97066 22.9782 4.46272C22.708 4.20023 22.372 3.93433 21.9633 3.6582C21.894 3.7332 21.7901 3.83547 21.6516 3.96842C21.4784 3.82183 21.3156 3.69911 21.1632 3.60707C21.9771 2.9355 22.5798 2.01847 22.9643 0.8526L23.5428 0.971917C23.4943 1.11169 23.3973 1.35372 23.2518 1.69462H24.4225L24.5265 1.66394L24.9317 1.81394C24.62 3.10594 24.0623 4.19 23.2553 5.05929H26.7259V5.62178H23.1617L23.1652 5.63201ZM22.8119 7.66376L23.4423 7.82399C23.1236 8.54669 22.6491 9.21144 22.0118 9.81484C21.7763 9.64779 21.5961 9.52848 21.4714 9.46371C22.0568 8.96259 22.5036 8.36261 22.8084 7.66376H22.8119ZM27.765 7.13878H25.2989V9.48075C25.2989 9.66143 25.2746 9.79779 25.2261 9.89325C25.1776 9.9887 25.0841 10.0569 24.9456 10.1046C24.7377 10.1796 24.2736 10.2069 23.5462 10.1966C23.5116 10.0228 23.4319 9.82847 23.3072 9.61371C23.9203 9.62734 24.3013 9.62734 24.4468 9.61371C24.523 9.60689 24.5715 9.59666 24.5923 9.57961C24.613 9.56257 24.6234 9.52848 24.6234 9.47394V7.14219H22.2092V6.56948H27.7616V7.14219L27.765 7.13878ZM22.2646 3.33094C22.6872 3.62071 23.0163 3.87978 23.2587 4.11501C23.3904 3.93433 23.5081 3.75365 23.612 3.57298C23.3696 3.35821 23.037 3.12299 22.6075 2.87073C22.5244 3.00368 22.4101 3.16049 22.2646 3.33434V3.33094ZM24.2009 2.20597H23.0093C22.9747 2.27415 22.9158 2.37301 22.8327 2.50596C23.2553 2.72073 23.5878 2.9355 23.8372 3.15027C23.9965 2.82982 24.1177 2.51278 24.2009 2.20597ZM27.8863 1.63326L28.2915 1.85484C27.959 2.80595 27.5053 3.62752 26.9234 4.31613C27.3806 4.86498 27.9071 5.27747 28.5063 5.5536C28.3331 5.67973 28.1876 5.85359 28.0699 6.06495C26.4627 5.23315 25.3855 3.60366 24.8382 1.16964L25.3889 1.0401C25.6522 2.15825 26.0436 3.09913 26.5701 3.86274C26.8956 3.44685 27.197 2.89118 27.481 2.19574H25.9778V1.67417H27.7581L27.8828 1.63326H27.8863ZM26.2722 7.91262L26.8091 7.62967C27.4845 8.32511 27.9625 8.94555 28.2396 9.48758L27.6611 9.81825C27.5364 9.55576 27.3425 9.24553 27.0827 8.88418C26.8194 8.52282 26.5493 8.19898 26.2756 7.90921L26.2722 7.91262Z" fill="white"/>
<path d="M39.1573 4.91954V5.1718C39.3097 5.3593 39.5522 5.69338 39.8812 6.17064C40.2138 6.6513 40.4251 6.96834 40.522 7.13197L40.0337 7.64332C39.8951 7.30242 39.6007 6.76721 39.1539 6.03428V10.2171H38.5131V6.24563C38.1182 7.40469 37.706 8.29444 37.2696 8.91828C37.2419 8.83646 37.1172 8.60465 36.8955 8.21603C37.1657 7.8615 37.4359 7.37401 37.7095 6.75698C37.9831 6.13996 38.2083 5.52634 38.3884 4.91613H36.989V4.28205H38.5096V0.86625H39.1504V4.28205H40.3627V4.91613H39.1504L39.1573 4.91954ZM38.2464 3.74344L37.7199 3.87298C37.6645 3.21505 37.4636 2.47188 37.1207 1.64009L37.6194 1.52078C37.9589 2.3253 38.1667 3.06505 38.2498 3.74344H38.2464ZM39.7808 3.90366L39.334 3.76389C39.6319 3.06164 39.8639 2.29803 40.0371 1.47305L40.6259 1.63327C40.2796 2.67301 39.999 3.42981 39.7773 3.90366H39.7808ZM43.965 4.16615H46.6459V4.69795H40.7645V4.16615H43.293V3.41277H41.3256V2.91164H43.293V2.23666H41.0451V1.70486H43.293V0.859436H43.965V1.70486H46.3792V2.23666H43.965V2.91164H46.161V3.41277H43.965V4.16615ZM45.9324 5.34225V9.48417C45.9324 9.66485 45.9116 9.80121 45.8666 9.89666C45.8215 9.99211 45.7384 10.0603 45.6137 10.108C45.4059 10.1898 44.9522 10.2205 44.2455 10.2103C44.2109 10.016 44.1451 9.82508 44.0481 9.63758C44.5988 9.65122 44.9487 9.65122 45.0942 9.63758C45.2119 9.63758 45.2708 9.58645 45.2708 9.48759V8.53306H42.1119V10.2103H41.4503V5.34567H45.9358L45.9324 5.34225ZM45.2674 5.88428H42.1084V6.70926H45.2674V5.88428ZM42.1084 8.02513H45.2674V7.21037H42.1084V8.02513Z" fill="white"/>
<path d="M55.6897 10.2239V5.76157H59.3855V10.1251H58.6928V9.66145H56.3617V10.2239H55.6897ZM58.6928 6.42632H56.3617V9.0001H58.6928V6.42632ZM62.9497 1.27875V4.64683H57.2449V1.27875H62.9497ZM62.2361 3.98549V1.9435H57.9273V3.98549H62.2361ZM60.5874 5.76157H64.5118V10.1523H63.8087V9.66145H61.2698V10.2239H60.5874V5.76157ZM61.2732 9.0001H63.8121V6.42632H61.2732V9.0001Z" fill="white"/>
<path d="M76.1673 4.41498L76.5725 4.52407C76.4201 5.94562 76.1223 7.12512 75.6824 8.0626C76.1673 8.52622 76.7561 8.84326 77.4523 9.01712C78.1485 9.19098 78.9972 9.27961 79.9912 9.27961C81.7924 9.27961 82.8627 9.27961 83.2021 9.26938C83.0636 9.47051 82.9666 9.6921 82.9112 9.93414H79.9809C78.9175 9.93414 78.0135 9.83868 77.2722 9.65119C76.531 9.46369 75.8971 9.12962 75.3706 8.64554C74.9827 9.29666 74.5047 9.82164 73.9297 10.2239C73.7981 10.0432 73.6249 9.88641 73.4102 9.75005C74.0025 9.36142 74.4978 8.8228 74.8926 8.13078C74.4978 7.62966 74.1653 6.95468 73.8882 6.10925L74.4354 5.8979C74.6225 6.51492 74.8753 7.04673 75.1905 7.49671C75.5023 6.78764 75.7135 5.96949 75.8313 5.04565H74.4943L74.2865 5.45813L73.6353 5.27746C74.1064 4.45248 74.6467 3.40251 75.2598 2.12073H73.4794V1.51734H75.6131L75.7274 1.46621L76.2158 1.61621C75.9802 2.11733 75.5196 3.05479 74.8268 4.4218H76.0287L76.1638 4.41157L76.1673 4.41498ZM79.295 4.41498V3.59H76.3439V3.03775H79.295V2.24346H77.099V1.69121H79.295V0.917358H79.9878V1.69121H82.35V3.03775H83.1467V3.59H82.35V4.97747H79.9878V5.80244H82.4436V6.33425H79.9878V7.20695H82.9077V7.76943H79.9878V8.91484H79.295V7.76943H76.479V7.20695H79.295V6.33425H76.9639V5.80244H79.295V4.97747H77.0263V4.41498H79.295ZM79.9878 2.24346V3.03775H81.6642V2.24346H79.9878ZM81.6677 4.41498V3.59H79.9912V4.41498H81.6677Z" fill="white"/>
<path d="M96.1565 5.96267L95.6889 6.54561C95.4049 6.09562 94.9823 5.5195 94.4142 4.81725V10.2035H93.7215V5.07633C93.195 6.49788 92.6096 7.57171 91.9619 8.30123C91.8926 8.12056 91.7575 7.9092 91.5566 7.66717C91.9584 7.23763 92.3464 6.6581 92.7205 5.92175C93.098 5.18882 93.389 4.44907 93.5968 3.70591H91.9307V3.05139H93.7215V0.828735H94.4142V3.05139H95.8967V3.70591H94.4142V3.97864C94.8576 4.44226 95.436 5.10019 96.153 5.95926L96.1565 5.96267ZM101.366 3.06843V3.72296H100.247V9.26257C100.247 9.51143 100.209 9.69551 100.14 9.81483C100.067 9.93414 99.9458 10.0228 99.7726 10.0773C99.5094 10.1728 98.8928 10.2171 97.9195 10.2171C97.871 9.9955 97.7879 9.75687 97.6701 9.50461C98.4356 9.52506 98.969 9.52847 99.2634 9.51483C99.3604 9.50801 99.4262 9.48756 99.4643 9.45347C99.5024 9.41938 99.5198 9.35802 99.5198 9.2728V4.65021C99.0972 5.42064 98.5915 6.15698 98.0027 6.85582C97.4138 7.55467 96.8215 8.12738 96.2258 8.57055C96.1149 8.37623 95.9487 8.19215 95.727 8.01829C96.3886 7.57512 97.0432 6.95809 97.6909 6.17061C98.3352 5.37973 98.8617 4.56498 99.2704 3.72978H96.2881V3.07526H99.5198V0.862817H100.244V3.07526H101.362L101.366 3.06843Z" fill="white"/>
<path d="M0.626709 28.4893V28.0359H10.0411V28.4893H4.09737C3.77871 28.9461 3.53971 29.2734 3.37345 29.4745C5.07068 29.4063 6.50466 29.3484 7.67194 29.2938C7.24937 29.0722 6.92031 28.9188 6.67785 28.8302L7.15584 28.5097C7.5992 28.6904 8.05988 28.9154 8.53787 29.1847C9.01587 29.454 9.39688 29.6961 9.67051 29.9176L9.19252 30.2688C8.97777 30.0813 8.71106 29.8938 8.39586 29.7063C6.35226 29.8256 3.98653 29.9483 1.30214 30.0676L1.2294 29.5563C1.38873 29.5495 1.63466 29.5393 1.97064 29.5256C2.30662 29.512 2.54215 29.5018 2.6807 29.4949C2.97166 29.1404 3.20026 28.8063 3.37345 28.4893H0.626709ZM3.22797 22.4281V21.9372H0.678665V21.4259H3.22451V20.7134H3.90686V21.4259H6.74366V20.7134H7.43641V21.4259H10.0169V21.9372H7.43641V22.4281H6.74366V21.9372H3.90686V22.4281H3.22451H3.22797ZM4.8109 24.9814H4.0662C3.80988 24.9814 3.64362 24.9473 3.56395 24.8826C3.48429 24.8144 3.44619 24.6678 3.44619 24.4394V24.1087H2.54562C2.46941 24.4053 2.31008 24.6371 2.06762 24.8076C1.82516 24.978 1.4684 25.111 0.990401 25.203C0.914199 25.0496 0.813751 24.9303 0.689056 24.8519C1.1047 24.7769 1.41298 24.6848 1.6208 24.5758C1.82862 24.4667 1.97064 24.3099 2.04684 24.1087H0.834533V23.6758H2.79154V23.2326H1.34024V22.8099H2.79154V22.4588H3.41155V22.8099H4.84207V23.2326H3.41155V23.6758H5.3166V24.1087H3.91725V24.4394C3.91725 24.5144 3.92765 24.5587 3.95189 24.5792C3.97614 24.5996 4.02809 24.6099 4.11122 24.6099H4.71045C4.79358 24.6099 4.849 24.5894 4.87671 24.5485C4.90442 24.5076 4.92174 24.4155 4.92866 24.2656C5.02565 24.3269 5.16073 24.3746 5.33392 24.4155C5.31314 24.6303 5.26465 24.7769 5.18498 24.8587C5.10531 24.9405 4.98062 24.978 4.80743 24.978L4.8109 24.9814ZM9.11978 26.178H9.36917C9.47308 26.178 9.54236 26.1678 9.57699 26.1473C9.62549 26.1132 9.66012 26.0416 9.68091 25.9257C9.69476 25.8269 9.70862 25.5575 9.72247 25.1212C9.84716 25.2269 9.99264 25.3053 10.1589 25.353C10.145 25.8473 10.1139 26.1609 10.0654 26.2871C10.0307 26.42 9.94761 26.5223 9.81599 26.5871C9.73286 26.6416 9.59778 26.6689 9.41073 26.6689H8.9847C8.76994 26.6689 8.60715 26.6143 8.49631 26.5087C8.42703 26.4541 8.38201 26.3791 8.36122 26.2837C8.34044 26.1882 8.33005 26.0041 8.33005 25.7348V23.7849H7.38791C7.37406 24.1599 7.31518 24.5144 7.21126 24.8519C7.56456 25.0598 7.84513 25.2678 8.05988 25.4757L7.6858 25.9189C7.51261 25.7382 7.284 25.5575 7.00344 25.3769C6.6917 25.9666 6.19639 26.4643 5.51057 26.8734C5.4413 26.7814 5.30621 26.6553 5.10531 26.5018C3.10328 26.6553 1.67968 26.7643 0.837997 26.8223L0.786041 26.3484C0.903808 26.3416 1.09085 26.3314 1.3437 26.3178C1.60002 26.3041 1.84594 26.2905 2.0884 26.2769C2.33087 26.2632 2.5664 26.2496 2.79154 26.2359V25.7144H1.22593V25.2916H2.80193V24.7598H3.41155V25.2916H5.00487V25.7144H3.41155V26.1984C3.58474 26.1848 3.88608 26.1644 4.31212 26.1337C4.74162 26.103 5.07068 26.0825 5.30621 26.0689L5.29582 26.3518C5.84655 25.9973 6.25181 25.5644 6.50813 25.0564C6.05784 24.8076 5.72186 24.6371 5.49325 24.5451L5.84655 24.153C6.06131 24.2349 6.34533 24.3678 6.69517 24.5553C6.75752 24.3133 6.79562 24.061 6.80947 23.7917H5.59717V23.2701H6.81986V22.5576H7.39831V23.2701H8.91196V25.7928C8.91196 26.0007 8.92928 26.1166 8.96391 26.1439C8.99162 26.1712 9.04358 26.1848 9.11978 26.1848V26.178ZM1.95332 27.0336H8.77687V27.487H1.95332V27.0336Z" fill="white"/>
<path d="M19.3032 26.5189L19.9232 26.6382C19.757 27.7291 19.5007 28.5984 19.1578 29.2427C19.0192 29.1404 18.8322 29.0552 18.6001 28.9802C18.9257 28.4177 19.1578 27.5961 19.3032 26.5189ZM22.0673 25.7246L21.0628 25.7962V30.1188H20.4428V25.8371L18.7456 25.9462L18.6936 25.3223L19.376 25.2917C19.5977 25.0155 19.847 24.678 20.1207 24.2758C19.7258 23.761 19.2651 23.2735 18.7317 22.8167L19.0954 22.3736C19.1162 22.394 19.1647 22.4349 19.2444 22.4997C19.324 22.5645 19.3829 22.6156 19.4245 22.6565C19.7985 22.0531 20.1207 21.4054 20.3978 20.7168L21.0074 20.9588C20.5225 21.8963 20.1241 22.5849 19.8055 23.0179C20.1034 23.3076 20.3216 23.5497 20.467 23.7508C20.8827 23.1065 21.2464 22.4826 21.5651 21.8724L22.1747 22.1349C21.423 23.3758 20.7095 24.4155 20.041 25.261C20.2558 25.2542 20.5779 25.2405 21.0109 25.2167C21.4438 25.1928 21.7105 25.1792 21.8144 25.1723C21.7036 24.9439 21.5304 24.6337 21.2949 24.2383L21.8041 24.0474C22.3236 24.8178 22.6561 25.5098 22.8085 26.1269L22.2682 26.3689C22.2266 26.195 22.1574 25.9803 22.0604 25.7246H22.0673ZM27.8032 23.9247L28.2293 24.0951C27.8829 25.6837 27.2664 27.0166 26.3762 28.0938C26.9962 28.7654 27.7132 29.2461 28.5202 29.5427C28.3401 29.7029 28.1912 29.8836 28.0734 30.0847C27.2317 29.7438 26.5217 29.2427 25.9397 28.5882C25.3336 29.2052 24.6408 29.7029 23.8684 30.0847C23.8269 30.0097 23.7576 29.9177 23.6571 29.8086C23.5567 29.6995 23.4701 29.6177 23.3939 29.5733C24.194 29.212 24.9076 28.7109 25.5276 28.0768C24.9006 27.2246 24.3845 26.1098 23.9827 24.7292C23.865 26.9791 23.29 28.7586 22.2543 30.0677C22.0465 29.9006 21.8664 29.7779 21.7175 29.7063C22.0361 29.3245 22.3201 28.8575 22.5765 28.3086L22.1296 28.4586C22.0327 27.937 21.8179 27.3234 21.4889 26.6178L22.0049 26.4575C22.2751 26.9655 22.4864 27.5245 22.6457 28.1245C23.1445 26.9586 23.3904 25.4178 23.3904 23.5019V21.9952H22.3132V21.3611H26.2065L26.3208 21.3304L26.7988 21.4122C26.6948 22.0088 26.5286 22.8542 26.3 23.9451H27.6681L27.8032 23.9247ZM24.0139 21.9952V22.5167C24.4157 24.6883 25.06 26.3791 25.9501 27.5927C26.6325 26.7405 27.1243 25.7382 27.4222 24.5792H26.1684L26.0541 25.0701L25.4133 24.9883C25.628 24.1565 25.8393 23.1576 26.0437 21.9918H24.0139V21.9952Z" fill="white"/>
<path d="M39.1573 24.7905V25.0428C39.3097 25.2303 39.5522 25.5644 39.8812 26.0416C40.2138 26.5223 40.4251 26.8393 40.522 27.003L40.0337 27.5143C39.8951 27.1734 39.6007 26.6382 39.1539 25.9053V30.0881H38.5131V26.1166C38.1182 27.2757 37.706 28.1654 37.2696 28.7893C37.2419 28.7074 37.1172 28.4756 36.8955 28.087C37.1657 27.7325 37.4359 27.245 37.7095 26.628C37.9831 26.0109 38.2083 25.3973 38.3884 24.7871H36.989V24.153H38.5096V20.7372H39.1504V24.153H40.3627V24.7871H39.1504L39.1573 24.7905ZM38.2464 23.6144L37.7199 23.744C37.6645 23.086 37.4636 22.3429 37.1207 21.5111L37.6194 21.3918C37.9589 22.1963 38.1667 22.936 38.2498 23.6144H38.2464ZM39.7808 23.7746L39.334 23.6349C39.6319 22.9326 39.8639 22.169 40.0371 21.344L40.6259 21.5043C40.2796 22.544 39.999 23.3008 39.7773 23.7746H39.7808ZM43.965 24.0371H46.6459V24.5689H40.7645V24.0371H43.293V23.2837H41.3256V22.7826H43.293V22.1076H41.0451V21.5758H43.293V20.7304H43.965V21.5758H46.3792V22.1076H43.965V22.7826H46.161V23.2837H43.965V24.0371ZM45.9324 25.2132V29.3552C45.9324 29.5358 45.9116 29.6722 45.8666 29.7676C45.8215 29.8631 45.7384 29.9313 45.6137 29.979C45.4059 30.0608 44.9522 30.0915 44.2455 30.0779C44.2109 29.8835 44.1451 29.6926 44.0481 29.5052C44.5988 29.5188 44.9487 29.5188 45.0942 29.5052C45.2119 29.5052 45.2708 29.454 45.2708 29.3552V28.4006H42.1119V30.0779H41.4503V25.2132H45.9358H45.9324ZM45.2674 25.7553H42.1084V26.5802H45.2674V25.7553ZM42.1084 27.8961H45.2674V27.0814H42.1084V27.8961Z" fill="white"/>
<path d="M60.4317 28.5984H64.8029V29.2904H55.3469V28.5984H59.6558V22.5883H55.8977V21.8963H64.2868V22.5883H60.4351V28.5984H60.4317Z" fill="white"/>
<path d="M74.0752 21.2009H82.5371V30.037H81.8651V29.5529H74.7298V30.0949H74.0787V21.2009H74.0752ZM74.7264 28.9904H81.8617V21.7531H74.7264V28.9904ZM81.491 26.8121V27.2655H79.9497V28.2813C79.9497 28.4279 79.9289 28.5336 79.8873 28.5984C79.8458 28.6631 79.7661 28.7075 79.6483 28.7347C79.4959 28.7756 79.0768 28.7961 78.3841 28.7961C78.3564 28.6768 78.2975 28.5404 78.2074 28.3938C78.5122 28.4007 78.8344 28.4041 79.1807 28.4041C79.2847 28.3972 79.3366 28.3495 79.3366 28.2643V27.2689H75.1212V26.8155H79.3366V26.4337H79.9462V26.8155H81.4876L81.491 26.8121ZM77.958 23.3247V22.8713H75.2459V22.4281H77.958V21.927H78.5677V22.4281H81.3317V22.8713H78.5677V23.3247H80.9507V25.3837H78.5677V25.9155L79.967 25.8848C79.8769 25.8166 79.7765 25.7485 79.6657 25.6735L80.0709 25.4007C80.6147 25.7757 81.0061 26.1166 81.2417 26.4269L80.8364 26.7268C80.7671 26.6314 80.6182 26.4746 80.3896 26.253C77.9511 26.3348 76.2539 26.3791 75.2944 26.3928L75.2633 25.9394C75.6928 25.9394 76.5899 25.9325 77.9546 25.9189V25.3769H75.6754V23.3178H77.9546L77.958 23.3247ZM76.2504 23.7065V24.1701H77.958V23.7065H76.2504ZM76.2504 25.0019H77.958V24.5383H76.2504V25.0019ZM76.2608 27.5757L76.7284 27.3234C77.1787 27.6439 77.5043 27.9609 77.7121 28.2677L77.2341 28.5506C77.0679 28.2745 76.7423 27.9507 76.2608 27.5757ZM80.3619 23.7065H78.5711V24.1701H80.3619V23.7065ZM80.3619 25.0019V24.5383H78.5711V25.0019H80.3619Z" fill="white"/>
<path d="M100.829 23.8667L101.297 24.2894C100.791 24.7973 100.209 25.3087 99.5476 25.8166C100.046 27.0166 100.687 27.8723 101.473 28.3904C101.279 28.5302 101.113 28.7075 100.975 28.9222C99.6342 27.9166 98.7094 26.0075 98.2002 23.1917C97.8746 23.519 97.5352 23.819 97.1749 24.0849C97.6391 24.4871 98.0132 24.978 98.2972 25.561C98.5847 26.1439 98.7613 26.7064 98.8306 27.245C98.8999 27.7836 98.8929 28.2779 98.8098 28.7279C98.7267 29.1779 98.5778 29.4983 98.363 29.6927C98.1275 29.9415 97.8053 30.0642 97.3897 30.0642C97.2165 30.0711 96.9706 30.0642 96.6554 30.0438C96.6415 29.7745 96.5826 29.5631 96.4787 29.4097C96.7628 29.437 97.0225 29.4506 97.265 29.4506C97.5352 29.4506 97.7326 29.3756 97.8538 29.229C98.0201 29.0688 98.1275 28.7825 98.176 28.3734C98.2244 27.9643 98.2002 27.5075 98.1032 27.0064C97.6668 27.4564 97.1472 27.8893 96.5411 28.312C95.9349 28.7347 95.3426 29.0688 94.7711 29.3177C94.681 29.1643 94.5425 29.0006 94.3555 28.8268C94.9893 28.5847 95.644 28.2336 96.3194 27.77C96.9914 27.3064 97.5282 26.8393 97.93 26.3621C97.8469 26.1064 97.7187 25.8235 97.5456 25.5064C96.9186 26.0894 96.1982 26.6041 95.3911 27.0541C95.2733 26.8462 95.1383 26.6825 94.9859 26.5632C94.9512 27.0268 94.8231 27.3268 94.6014 27.4666C94.4836 27.5484 94.3 27.6064 94.0541 27.6473C93.8671 27.6677 93.6281 27.6711 93.3406 27.6575C93.3267 27.4359 93.2644 27.2348 93.1535 27.0541C93.396 27.0746 93.6142 27.078 93.8047 27.0643C93.9641 27.0507 94.0818 27.02 94.158 26.9723C94.2966 26.87 94.3658 26.6314 94.3658 26.2496C94.3658 25.5337 94.0368 24.8348 93.3822 24.1599C93.6592 23.5019 93.9537 22.7042 94.2723 21.7668H92.7691V30.0779H92.1387V21.1531H94.5321L94.6464 21.1225L95.1036 21.3952C94.5979 22.7008 94.2412 23.6008 94.0264 24.0883C94.681 24.7974 95.0101 25.5405 95.0101 26.3109C95.0101 26.3723 95.0032 26.4541 94.9893 26.5632C95.3634 26.3962 95.7652 26.1712 96.1947 25.8848C96.6277 25.5985 96.981 25.3223 97.2546 25.0564C97.1368 24.8826 96.9463 24.6746 96.6866 24.4326C96.264 24.7292 95.7721 25.0189 95.2041 25.3087C95.0932 25.1485 94.9443 24.9849 94.7573 24.8178C95.8622 24.3337 96.7731 23.7508 97.4901 23.0588H95.0447V22.4554H96.5688C96.4441 21.9713 96.2086 21.4736 95.8656 20.9588L96.4441 20.7577C96.8112 21.2725 97.0676 21.7906 97.22 22.3054L96.7939 22.4554H99.2809L98.8548 22.3156C99.1597 21.8452 99.4333 21.3134 99.6827 20.7168L100.355 20.9282C99.8593 21.794 99.5545 22.302 99.4437 22.4554H101.266V23.0588H98.7475C98.9068 23.9315 99.0973 24.6712 99.3155 25.2814C99.9425 24.7735 100.445 24.2996 100.819 23.8633L100.829 23.8667Z" fill="white"/>
<path d="M2.67734 44.6615V44.9137C2.82975 45.1012 3.07221 45.4353 3.40126 45.9126C3.73378 46.3933 3.94507 46.7103 4.04206 46.8739L3.55367 47.3853C3.41512 47.0444 3.1207 46.5092 2.67388 45.7762V49.9591H2.03309V45.9876C1.63822 47.1466 1.22604 48.0364 0.78961 48.6602C0.761901 48.5784 0.637206 48.3466 0.415527 47.958C0.685698 47.6034 0.95587 47.116 1.2295 46.5023C1.50314 45.8853 1.72828 45.2717 1.9084 44.6615H0.512512V44.0274H2.03655V40.6116H2.67734V44.0274H3.88965V44.6615H2.67734ZM1.76638 43.4854L1.2399 43.6149C1.18448 42.957 0.983579 42.2138 0.64067 41.382L1.13945 41.2627C1.47889 42.0672 1.68672 42.807 1.76985 43.4854H1.76638ZM3.29735 43.649L2.85053 43.5092C3.14841 42.807 3.38048 42.0434 3.55367 41.2184L4.1425 41.3786C3.79613 42.4184 3.51557 43.1752 3.29389 43.649H3.29735ZM7.48154 43.9081H10.1625V44.4399H4.28105V43.9081H6.80958V43.1547H4.84218V42.6536H6.80958V41.9786H4.56161V41.4468H6.80958V40.6014H7.48154V41.4468H9.89576V41.9786H7.48154V42.6536H9.67755V43.1547H7.48154V43.9081ZM9.44894 45.0842V49.2261C9.44894 49.4068 9.4247 49.5432 9.38313 49.6386C9.3381 49.7307 9.25497 49.8022 9.13028 49.85C8.92245 49.9318 8.4687 49.9625 7.7621 49.9488C7.72747 49.7545 7.66165 49.5636 7.56467 49.3761C8.1154 49.3897 8.46524 49.3897 8.61072 49.3761C8.72849 49.3761 8.78737 49.325 8.78737 49.2261V48.2716H5.62844V49.9488H4.96687V45.0842H9.4524H9.44894ZM8.78737 45.6262H5.62844V46.4512H8.78737V45.6262ZM5.62844 47.7671H8.78737V46.9523H5.62844V47.7671Z" fill="white"/>
<path d="M19.1578 46.3933L19.7155 46.5024C19.6116 47.5762 19.4245 48.4387 19.1578 49.0966C18.9846 48.991 18.808 48.9091 18.6313 48.8546C18.8669 48.3603 19.0435 47.5387 19.1578 46.3933ZM21.4266 45.5479L20.7338 45.6092V49.9625H20.1346V45.6501C19.5769 45.6842 19.0955 45.7149 18.6937 45.7422L18.6417 45.1081L19.2721 45.0774C19.5215 44.7297 19.7432 44.399 19.9337 44.0922C19.6705 43.6491 19.2756 43.1582 18.7422 42.6161L19.0747 42.173C19.2063 42.2991 19.3033 42.398 19.3657 42.4662C19.6774 41.8491 19.9268 41.2253 20.1208 40.598L20.7304 40.7992C20.2939 41.7844 19.9649 42.473 19.7363 42.8684C19.9857 43.1752 20.1589 43.4002 20.2558 43.5434C20.6022 42.9673 20.9105 42.3775 21.1876 41.7741L21.7556 42.0059C21.1495 43.1377 20.526 44.157 19.8921 45.0604L21.2084 44.999C21.1183 44.7774 20.9659 44.4775 20.7512 44.0956L21.2569 43.915C21.4578 44.2354 21.6413 44.59 21.8111 44.9718C21.9808 45.3536 22.0916 45.674 22.147 45.9365L21.6067 46.1581C21.5651 45.9842 21.5028 45.7831 21.4197 45.5547L21.4266 45.5479ZM21.0629 46.5126L21.5582 46.3626C21.8561 47.0649 22.0466 47.7126 22.1263 48.3023L21.5998 48.4523C21.5374 47.9239 21.3573 47.2762 21.0629 46.5126ZM28.4787 43.2945H28.0007C27.8206 44.8695 27.4916 46.2092 27.017 47.3137C27.4327 48.2853 27.9384 49.0012 28.5411 49.4648C28.3402 49.6318 28.1774 49.8023 28.0527 49.9762C27.5158 49.5125 27.0551 48.8546 26.6741 47.9955C26.1754 48.8921 25.5553 49.5603 24.8106 49.9966C24.7137 49.8432 24.5578 49.6762 24.343 49.4955C24.6894 49.3216 25.0185 49.0728 25.3371 48.7523C24.156 48.9739 22.9887 49.175 21.8353 49.3557L21.6794 48.7216C21.8457 48.7012 22.1193 48.6637 22.4969 48.6057C22.8779 48.5478 23.1446 48.5069 23.3039 48.4796V46.7308H22.0085V46.1376H23.3039V44.832H23.9239V46.1376H25.209V46.7308H23.9239V48.3876L25.3545 48.1762L25.3856 48.6978C25.7389 48.3364 26.0645 47.8489 26.3693 47.2387C26.1061 46.4956 25.8913 45.6126 25.7285 44.5968C25.5761 44.9922 25.3995 45.357 25.202 45.6911C25.0635 45.5104 24.9007 45.357 24.7137 45.2274C24.776 45.1354 24.8626 44.9786 24.9734 44.7638L24.7864 44.8354C24.7587 44.7365 24.7067 44.5865 24.6305 44.3922C24.3119 44.4263 23.8408 44.474 23.2104 44.532C22.5835 44.5934 22.1297 44.6377 21.8526 44.6615L21.7487 44.0684L22.3064 44.0275C22.5419 43.3832 22.7497 42.6366 22.9264 41.7878H21.8284V41.2048H25.3406V41.7878H23.633C23.2243 43.0934 22.9922 43.8263 22.9298 43.9797C23.4078 43.9457 23.8997 43.9047 24.4123 43.8604C24.2599 43.5059 24.0763 43.1548 23.8616 42.8036L24.3811 42.6127C24.7067 43.1104 24.9804 43.6457 25.209 44.2218C25.5692 43.3048 25.8151 42.1014 25.9537 40.6151L26.6049 40.6969C26.5148 41.4332 26.4074 42.0912 26.2827 42.6673H28.4683V43.2911L28.4787 43.2945ZM27.4223 43.2945H26.1476C26.1407 43.3218 26.1303 43.3661 26.1165 43.4241C26.1026 43.4854 26.0922 43.5298 26.0853 43.5536C26.2308 44.6854 26.4386 45.6604 26.7053 46.4785C27.0309 45.6024 27.2664 44.5388 27.4188 43.2911L27.4223 43.2945Z" fill="white"/>
<path d="M46.5837 47.3274H42.5762C43.2239 48.4728 44.6059 49.1478 46.7188 49.3489C46.5456 49.5023 46.4001 49.7102 46.2824 49.9727C45.122 49.8261 44.1868 49.5432 43.4698 49.1239C42.7563 48.7046 42.216 48.108 41.8488 47.3308H41.7449C41.4678 48.033 40.9933 48.5955 40.3144 49.0182C39.6389 49.4409 38.6414 49.7546 37.3217 49.9625C37.2594 49.7546 37.1381 49.55 36.958 49.3489C38.1322 49.1819 39.0259 48.9364 39.6389 48.616C40.252 48.2955 40.6954 47.866 40.9655 47.3308H37.0827V46.7069H41.2045C41.2738 46.4717 41.3396 46.141 41.402 45.7115H37.1554V45.0774H41.4435V44.1536H38.1184V43.5604H41.4435V42.6775H37.5815V42.0434H39.7983C39.5974 41.6003 39.3168 41.1912 38.96 40.8162L39.5489 40.5742C39.9784 40.9696 40.2936 41.4059 40.5014 41.8798L40.1377 42.04H43.3902L42.9953 41.9002C43.307 41.5457 43.6222 41.1026 43.9478 40.5742L44.651 40.7957C44.3392 41.2457 44.0067 41.6616 43.6465 42.0434H46.0503V42.6775H42.1467V43.5604H45.5654V44.1536H42.1467V45.0774H46.466V45.7115H42.1259C42.0774 46.0456 42.0151 46.3797 41.9389 46.7069H46.5803V47.3308L46.5837 47.3274Z" fill="white"/>
<path d="M64.6781 47.3478V47.9103H60.4004V49.2261C60.4004 49.4136 60.3692 49.5568 60.3138 49.6523C60.2549 49.7477 60.151 49.8193 59.9986 49.8568C59.7907 49.925 59.2262 49.9557 58.3013 49.9557C58.2736 49.8023 58.194 49.6045 58.0623 49.3625C58.2909 49.3693 58.7689 49.3727 59.5032 49.3727C59.5864 49.3659 59.6418 49.3523 59.673 49.3318C59.7041 49.3114 59.718 49.267 59.718 49.2023V47.9069H55.4507V47.3444H59.718V46.7512H60.144C60.6428 46.5637 61.107 46.3319 61.5434 46.0592H57.3176V45.5274H62.2777L62.4128 45.4865L62.8492 45.8274C62.2084 46.3353 61.391 46.7819 60.4038 47.1637V47.3444H64.6815L64.6781 47.3478ZM56.2716 44.7944V46.0796H55.6204V44.2388H56.4586L56.2404 41.0309L56.7669 41.1605C57.2518 41.0343 57.7541 40.8741 58.2806 40.6764L58.665 41.0684C58.2217 41.2491 57.6467 41.4161 56.9366 41.5695L56.9678 42.0536H58.5819V42.5547H57.0094L57.0405 43.1479H58.6339V43.6286H57.0682L57.1098 44.232H63.0432C63.064 44.0513 63.0848 43.8502 63.1055 43.6286H61.5122V43.1479H63.1471L63.1991 42.5547H61.5642V42.0536H63.2302L63.2718 41.4605H61.5226V40.9764H63.9576C63.916 42.0161 63.8364 43.1002 63.7186 44.232H64.5464V46.0728H63.8745V44.7876H56.2716V44.7944ZM61.0966 41.9377L60.7329 42.2888C60.5666 42.115 60.3553 41.9445 60.1025 41.7775C59.8115 42.0059 59.4859 42.2173 59.1188 42.4116C59.0287 42.3298 58.8902 42.2138 58.7031 42.0604C59.0426 41.9139 59.3682 41.7264 59.6868 41.498C59.3058 41.2696 59.0807 41.14 59.0045 41.1059L59.3578 40.7957C59.5656 40.8912 59.8115 41.0241 60.0921 41.198C60.2999 41.0173 60.4592 40.8537 60.5701 40.7071L61.0792 40.8468C60.9199 41.0616 60.7225 41.2661 60.4904 41.4605C60.7259 41.6139 60.9303 41.7741 61.1 41.9411L61.0966 41.9377ZM60.6913 42.3809L61.2109 42.5207C61.0654 42.715 60.8472 42.9434 60.5597 43.2025C60.8229 43.3831 61.0411 43.5638 61.2109 43.7445L60.8368 44.0752C60.6844 43.9149 60.4592 43.7308 60.1648 43.5229C59.8462 43.7718 59.5102 43.9899 59.15 44.1774C59.0391 44.0581 58.9006 43.9422 58.7343 43.8365C59.0738 43.6831 59.4132 43.4854 59.7596 43.2434C59.3993 43.015 59.1777 42.8786 59.0876 42.8309L59.4513 42.5479C59.6314 42.6297 59.8669 42.7559 60.1544 42.9297C60.3692 42.7559 60.5493 42.5718 60.6913 42.3775V42.3809Z" fill="white"/>
<path d="M78.6336 41.4775H82.745V43.3184H82.0834V42.0809H74.5533V43.3184H73.9021V41.4775H77.9408V40.5844H78.6336V41.4775ZM82.2982 46.441V49.2261C82.2982 49.4068 82.2739 49.5432 82.2254 49.6386C82.177 49.7307 82.0869 49.8023 81.9553 49.85C81.7475 49.9113 81.2764 49.942 80.5351 49.942C80.5074 49.7886 80.4382 49.5977 80.3273 49.3693C80.9266 49.3898 81.3006 49.3898 81.4461 49.3693C81.5708 49.3693 81.6331 49.3216 81.6331 49.2295V47.0273H78.5885V47.9921L79.9463 47.9409C79.7593 47.733 79.5826 47.5557 79.4198 47.4091L79.8978 47.1978C80.1541 47.4126 80.4035 47.6682 80.6494 47.9614C80.8954 48.258 81.079 48.5171 81.2036 48.7455L80.6876 48.9977C80.5906 48.8034 80.4901 48.633 80.3862 48.4864C79.9221 48.5068 79.1358 48.5443 78.0239 48.6023C76.9121 48.6602 76.1327 48.6977 75.6825 48.7182L75.6305 48.0944C75.776 48.0875 76.1154 48.0773 76.6454 48.0637C77.1753 48.05 77.6083 48.0364 77.9408 48.0228V47.0273H75.0209V49.9625H74.3593V46.4444H77.9443V45.7422H75.3465V42.7559H81.311V45.7422H78.5989V46.4444H82.3051L82.2982 46.441ZM75.9699 43.257V43.9899H77.9373V43.257H75.9699ZM75.9699 45.2342H77.9373V44.4808H75.9699V45.2342ZM80.6321 43.9899V43.257H78.592V43.9899H80.6321ZM80.6321 45.2342V44.4808H78.592V45.2342H80.6321Z" fill="white"/>
<path d="M96.1807 46.0592H93.0114C92.9699 47.7944 92.6547 49.0966 92.0693 49.9693C91.9169 49.8023 91.7333 49.6659 91.5186 49.5568C92.0554 48.7523 92.3256 47.4705 92.3256 45.7081V42.9127H96.1773V46.0592H96.1807ZM96.4578 41.1639V41.798H91.9307V41.1639H96.4578ZM95.5053 43.5468H93.008V45.4251H95.5053V43.5468ZM101.439 44.0684V44.7433H100.216V49.9591H99.5336V44.7433H97.5974C97.542 47.0069 96.9462 48.7387 95.8067 49.9284C95.7651 49.8602 95.6889 49.7784 95.578 49.683C95.4672 49.5841 95.3702 49.5159 95.2871 49.4784C95.6335 49.1171 95.921 48.7148 96.153 48.2716C96.3851 47.8285 96.5514 47.3717 96.6553 46.8944C96.7592 46.4172 96.8285 45.9876 96.8631 45.6024C96.8977 45.2172 96.915 44.7911 96.915 44.3206V41.6173L97.5039 41.7673C98.9136 41.4128 99.9354 41.0616 100.569 40.7105L101.2 41.2219C100.379 41.6105 99.1769 41.9889 97.5974 42.357V44.065H101.439V44.0684Z" fill="white"/>
</g>
</svg>
