<svg width="241" height="25" viewBox="0 0 241 25" fill="none" xmlns="http://www.w3.org/2000/svg">
<path d="M2.06338 3.975V3.225L4.71338 4.225H4.31338V9.65C4.31338 10.6667 4.28005 11.7833 4.21338 13C4.14671 14.2 3.98838 15.4333 3.73838 16.7C3.50505 17.95 3.12171 19.175 2.58838 20.375C2.07171 21.5583 1.33838 22.6417 0.388379 23.625L0.0633789 23.425C0.696712 22.025 1.15505 20.55 1.43838 19C1.72171 17.4333 1.89671 15.8583 1.96338 14.275C2.03005 12.675 2.06338 11.1333 2.06338 9.65V4.225V3.975ZM21.5634 2.675C21.5634 2.675 21.6717 2.78333 21.8884 3C22.1217 3.2 22.3884 3.44167 22.6884 3.725C23.005 4.00833 23.28 4.28333 23.5134 4.55C23.4634 4.81667 23.255 4.95 22.8884 4.95H3.38838V4.225H20.4384L21.5634 2.675ZM11.0384 10.075L12.0884 8.975L14.3634 10.65C14.2967 10.7333 14.18 10.825 14.0134 10.925C13.8467 11.0083 13.655 11.0667 13.4384 11.1V14.675C13.4384 14.725 13.33 14.8 13.1134 14.9C12.9134 14.9833 12.6717 15.0667 12.3884 15.15C12.1217 15.2167 11.8717 15.25 11.6384 15.25H11.2884V10.075H11.0384ZM12.0134 13.5V14.225H6.71338V13.5H12.0134ZM7.81338 15.15C7.81338 15.2 7.72171 15.2833 7.53838 15.4C7.35505 15.5 7.12171 15.5917 6.83838 15.675C6.57171 15.7583 6.29671 15.8 6.01338 15.8H5.71338V10.075V9.175L7.91338 10.075H12.1884V10.8H7.81338V15.15ZM18.0884 1.175C18.0717 1.34167 17.9967 1.49167 17.8634 1.625C17.7467 1.74167 17.5217 1.825 17.1884 1.875C17.155 3.575 17.18 5.3 17.2634 7.05C17.3634 8.78333 17.555 10.4667 17.8384 12.1C18.1384 13.7167 18.5634 15.225 19.1134 16.625C19.6634 18.0083 20.38 19.2 21.2634 20.2C21.43 20.4333 21.555 20.55 21.6384 20.55C21.7384 20.5333 21.8467 20.4 21.9634 20.15C22.13 19.8333 22.3217 19.4083 22.5384 18.875C22.7717 18.325 22.98 17.8 23.1634 17.3L23.4634 17.35L22.9384 21.425C23.2884 22.0917 23.4884 22.6083 23.5384 22.975C23.605 23.3417 23.555 23.5917 23.3884 23.725C23.055 23.9917 22.6717 24.075 22.2384 23.975C21.805 23.875 21.3717 23.6667 20.9384 23.35C20.505 23.0333 20.1467 22.6917 19.8634 22.325C18.8467 21.0417 18.0134 19.6167 17.3634 18.05C16.73 16.4667 16.2384 14.7583 15.8884 12.925C15.5384 11.075 15.2884 9.13333 15.1384 7.1C15.005 5.06667 14.9384 2.975 14.9384 0.824998L18.0884 1.175ZM12.0134 5.65C12.0134 5.65 12.1384 5.75833 12.3884 5.975C12.6384 6.175 12.9384 6.41667 13.2884 6.7C13.655 6.98333 13.98 7.25833 14.2634 7.525C14.1967 7.79167 13.9717 7.925 13.5884 7.925H5.38838L5.18838 7.2H10.7884L12.0134 5.65ZM22.7634 7.675C22.6967 7.825 22.58 7.94167 22.4134 8.025C22.2634 8.10833 22.0467 8.13333 21.7634 8.1C21.08 9.68333 20.2634 11.05 19.3134 12.2C18.3634 13.3333 17.305 14.2917 16.1384 15.075C14.9717 15.8417 13.7217 16.4583 12.3884 16.925L12.1384 16.625C13.255 15.975 14.2967 15.1583 15.2634 14.175C16.2467 13.1917 17.1217 12.0583 17.8884 10.775C18.655 9.475 19.2634 8.03333 19.7134 6.45L22.7634 7.675ZM18.2384 0.974999C19.0884 1.125 19.7134 1.34167 20.1134 1.625C20.53 1.90833 20.7717 2.2 20.8384 2.5C20.9217 2.78333 20.8884 3.03333 20.7384 3.25C20.5884 3.46667 20.3717 3.6 20.0884 3.65C19.8217 3.68333 19.5384 3.58333 19.2384 3.35C19.1884 2.95 19.0384 2.55 18.7884 2.15C18.5384 1.73333 18.2717 1.4 17.9884 1.15L18.2384 0.974999ZM8.78838 16.65C8.75505 17 8.51338 17.2 8.06338 17.25V21.375C8.06338 21.525 8.10505 21.625 8.18838 21.675C8.27171 21.725 8.45505 21.75 8.73838 21.75H10.3634C10.7134 21.75 11.0217 21.75 11.2884 21.75C11.555 21.75 11.7384 21.7417 11.8384 21.725C12.0217 21.725 12.1634 21.6333 12.2634 21.45C12.3467 21.2833 12.455 20.95 12.5884 20.45C12.7217 19.95 12.855 19.4 12.9884 18.8H13.3134L13.3884 21.525C13.655 21.625 13.8217 21.7417 13.8884 21.875C13.9717 21.9917 14.0134 22.1417 14.0134 22.325C14.0134 22.5917 13.905 22.8167 13.6884 23C13.4884 23.1833 13.1134 23.325 12.5634 23.425C12.03 23.525 11.255 23.575 10.2384 23.575H8.28838C7.70505 23.575 7.26338 23.5167 6.96338 23.4C6.66338 23.3 6.46338 23.125 6.36338 22.875C6.26338 22.625 6.21338 22.2917 6.21338 21.875V16.4L8.78838 16.65ZM4.88838 17.4C5.28838 18.6 5.44671 19.6333 5.36338 20.5C5.28005 21.3667 5.07171 22 4.73838 22.4C4.58838 22.5667 4.38838 22.6917 4.13838 22.775C3.90505 22.8583 3.67171 22.875 3.43838 22.825C3.22171 22.775 3.04671 22.6417 2.91338 22.425C2.78005 22.1417 2.77171 21.8583 2.88838 21.575C3.00505 21.2917 3.19671 21.05 3.46338 20.85C3.66338 20.65 3.84671 20.3667 4.01338 20C4.18005 19.6167 4.30505 19.2 4.38838 18.75C4.48838 18.2833 4.51338 17.8333 4.46338 17.4H4.88838ZM13.6634 16.975C14.6134 17.525 15.3217 18.1 15.7884 18.7C16.255 19.2833 16.5384 19.8333 16.6384 20.35C16.7384 20.85 16.705 21.2667 16.5384 21.6C16.3884 21.9333 16.1634 22.1333 15.8634 22.2C15.5634 22.2667 15.2467 22.1417 14.9134 21.825C14.9134 21.2917 14.83 20.75 14.6634 20.2C14.5134 19.6333 14.3217 19.0833 14.0884 18.55C13.855 18 13.6134 17.525 13.3634 17.125L13.6634 16.975ZM8.88838 15.575C9.83838 15.975 10.5467 16.4167 11.0134 16.9C11.4967 17.3667 11.7967 17.8167 11.9134 18.25C12.03 18.6667 12.0134 19.025 11.8634 19.325C11.73 19.625 11.5134 19.8083 11.2134 19.875C10.93 19.9417 10.63 19.8333 10.3134 19.55C10.2967 19.1333 10.1967 18.6917 10.0134 18.225C9.83005 17.7583 9.61338 17.3083 9.36338 16.875C9.11338 16.4417 8.85505 16.0667 8.58838 15.75L8.88838 15.575ZM49.1884 4.775L50.5634 3.4L52.9634 5.7C52.8634 5.8 52.7384 5.86667 52.5884 5.9C52.455 5.91667 52.255 5.94167 51.9884 5.975C51.6384 6.375 51.1634 6.80833 50.5634 7.275C49.98 7.74167 49.43 8.125 48.9134 8.425L48.6634 8.275C48.7634 7.94167 48.8634 7.56667 48.9634 7.15C49.08 6.71667 49.18 6.29167 49.2634 5.875C49.3634 5.44167 49.43 5.075 49.4634 4.775H49.1884ZM33.0884 3.35C33.4384 4.31667 33.605 5.175 33.5884 5.925C33.5717 6.675 33.43 7.3 33.1634 7.8C32.9134 8.28333 32.5967 8.64167 32.2134 8.875C31.9634 9.04167 31.6717 9.13333 31.3384 9.15C31.0217 9.16667 30.73 9.1 30.4634 8.95C30.2134 8.8 30.03 8.575 29.9134 8.275C29.78 7.85833 29.8217 7.48333 30.0384 7.15C30.255 6.81667 30.5467 6.56667 30.9134 6.4C31.2134 6.23333 31.505 6 31.7884 5.7C32.0884 5.38333 32.3217 5.025 32.4884 4.625C32.6717 4.225 32.7467 3.80833 32.7134 3.375L33.0884 3.35ZM50.2884 4.775V5.5H32.8134V4.775H50.2884ZM39.3884 0.774999C40.4384 0.858332 41.2634 1.04167 41.8634 1.325C42.48 1.60833 42.905 1.94167 43.1384 2.325C43.3884 2.70833 43.4884 3.08333 43.4384 3.45C43.405 3.8 43.2717 4.1 43.0384 4.35C42.805 4.6 42.505 4.74167 42.1384 4.775C41.7717 4.79167 41.38 4.65833 40.9634 4.375C40.9134 3.75833 40.7134 3.13333 40.3634 2.5C40.03 1.85 39.6384 1.325 39.1884 0.924999L39.3884 0.774999ZM46.8884 16.425L48.0634 15.15L50.5134 17.025C50.4467 17.125 50.3217 17.2167 50.1384 17.3C49.9717 17.3833 49.7717 17.45 49.5384 17.5V23.25C49.5384 23.3 49.4217 23.3833 49.1884 23.5C48.9717 23.6167 48.7134 23.7167 48.4134 23.8C48.1134 23.9 47.8217 23.95 47.5384 23.95H47.1384V16.425H46.8884ZM45.3134 8.05L46.4384 6.85L48.8384 8.65C48.7717 8.73333 48.655 8.825 48.4884 8.925C48.3384 9.00833 48.1467 9.06667 47.9134 9.1V13.85C47.9134 13.8833 47.7967 13.95 47.5634 14.05C47.3467 14.15 47.08 14.2417 46.7634 14.325C46.4634 14.3917 46.1884 14.425 45.9384 14.425H45.5384V8.05H45.3134ZM37.0634 23.25C37.0634 23.3333 36.9717 23.4417 36.7884 23.575C36.605 23.725 36.3634 23.85 36.0634 23.95C35.7634 24.05 35.43 24.1 35.0634 24.1H34.6884V8.05V6.95L37.2134 8.05H46.7134V8.775H37.0634V23.25ZM48.0884 21.525V22.225H35.8384V21.525H48.0884ZM48.0884 16.425V17.15H35.8384V16.425H48.0884ZM46.5384 12.6V13.3H35.8384V12.6H46.5384ZM76.9634 3.625L78.0634 2.425L80.4384 4.225C80.3717 4.30833 80.2467 4.4 80.0634 4.5C79.88 4.58333 79.6634 4.65 79.4134 4.7V11.1C79.4134 11.1667 79.305 11.25 79.0884 11.35C78.8884 11.4333 78.6467 11.5167 78.3634 11.6C78.08 11.6833 77.8134 11.725 77.5634 11.725H77.2134V3.625H76.9634ZM75.2884 1.225C75.255 1.40833 75.1717 1.55833 75.0384 1.675C74.9217 1.79167 74.6967 1.875 74.3634 1.925V20C74.3634 20.0833 74.2717 20.1833 74.0884 20.3C73.9217 20.4 73.6967 20.4917 73.4134 20.575C73.13 20.6583 72.8384 20.7 72.5384 20.7H72.0884V0.899999L75.2884 1.225ZM78.4634 11.8C78.4634 11.8 78.5384 11.8667 78.6884 12C78.855 12.1167 79.055 12.2833 79.2884 12.5C79.5384 12.7 79.7967 12.9167 80.0634 13.15C80.33 13.3667 80.5717 13.575 80.7884 13.775C80.7217 14.0417 80.4967 14.175 80.1134 14.175H67.7884L67.5884 13.45H77.2134L78.4634 11.8ZM79.4384 15.025C79.4384 15.025 79.5217 15.0917 79.6884 15.225C79.8717 15.3583 80.0967 15.5333 80.3634 15.75C80.63 15.9667 80.9134 16.2 81.2134 16.45C81.5134 16.6833 81.7884 16.9083 82.0384 17.125C82.005 17.2583 81.9217 17.3583 81.7884 17.425C81.6717 17.4917 81.5217 17.525 81.3384 17.525H66.5384L66.3384 16.8H78.0384L79.4384 15.025ZM80.8634 5.175C80.8634 5.175 80.98 5.29167 81.2134 5.525C81.4467 5.74167 81.7134 6.00833 82.0134 6.325C82.33 6.625 82.605 6.91667 82.8384 7.2C82.7717 7.46667 82.555 7.6 82.1884 7.6H66.1384L65.9384 6.875H79.7384L80.8634 5.175ZM78.1634 10.175V10.9H68.0884L67.8634 10.175H78.1634ZM78.2134 3.625V4.35H67.9384L67.7134 3.625H78.2134ZM66.0884 4.2C65.905 4.61667 65.6634 5.13333 65.3634 5.75C65.08 6.36667 64.7634 7.025 64.4134 7.725C64.08 8.40833 63.755 9.075 63.4384 9.725C63.1217 10.375 62.8384 10.925 62.5884 11.375H62.7634L61.9384 12.15L59.8884 10.725C60.0384 10.6083 60.2467 10.4833 60.5134 10.35C60.7967 10.2167 61.055 10.1333 61.2884 10.1L60.4384 10.825C60.705 10.3917 61.005 9.85 61.3384 9.2C61.6717 8.53333 62.005 7.84167 62.3384 7.125C62.6884 6.39167 63.005 5.69167 63.2884 5.025C63.5884 4.35833 63.8217 3.8 63.9884 3.35L66.0884 4.2ZM63.6884 3.35L64.8134 2.225L67.0634 4.25C66.93 4.38333 66.7134 4.48333 66.4134 4.55C66.1134 4.61667 65.7717 4.65 65.3884 4.65C65.0217 4.63333 64.655 4.60833 64.2884 4.575L64.0134 3.35H63.6884ZM60.3634 12.925C60.9967 14.725 61.7634 16.1667 62.6634 17.25C63.58 18.3333 64.68 19.1583 65.9634 19.725C67.2467 20.2917 68.7467 20.675 70.4634 20.875C72.1967 21.075 74.1884 21.175 76.4384 21.175C76.7884 21.175 77.2134 21.175 77.7134 21.175C78.23 21.175 78.78 21.175 79.3634 21.175C79.9467 21.175 80.505 21.175 81.0384 21.175C81.5884 21.1583 82.0634 21.15 82.4634 21.15V21.45C81.98 21.55 81.6134 21.7833 81.3634 22.15C81.13 22.5167 80.9967 22.9417 80.9634 23.425C80.6134 23.425 80.1384 23.425 79.5384 23.425C78.9384 23.425 78.3384 23.425 77.7384 23.425C77.1384 23.425 76.6467 23.425 76.2634 23.425C73.93 23.425 71.88 23.2917 70.1134 23.025C68.3634 22.7583 66.8467 22.2583 65.5634 21.525C64.2967 20.7917 63.2134 19.75 62.3134 18.4C61.4134 17.05 60.655 15.2833 60.0384 13.1L60.3634 12.925ZM64.6134 10.675L65.7884 9.425L67.9634 11.3C67.83 11.5167 67.5217 11.6417 67.0384 11.675C66.855 12.925 66.5967 14.15 66.2634 15.35C65.93 16.5333 65.4717 17.6667 64.8884 18.75C64.305 19.8167 63.5467 20.8 62.6134 21.7C61.6967 22.6 60.555 23.3917 59.1884 24.075L58.9634 23.75C60.3634 22.7167 61.4634 21.5167 62.2634 20.15C63.08 18.7667 63.68 17.2667 64.0634 15.65C64.4634 14.0333 64.73 12.375 64.8634 10.675H64.6134ZM65.9884 10.675V11.4H61.2134L61.5884 10.675H65.9884ZM65.0134 3.35V4.075H59.4134L59.1884 3.35H65.0134ZM98.0884 19.575C98.005 19.6917 97.8967 19.775 97.7634 19.825C97.63 19.8583 97.4217 19.8417 97.1384 19.775C96.555 20.2917 95.83 20.7917 94.9634 21.275C94.1134 21.7583 93.18 22.2 92.1634 22.6C91.1634 23.0167 90.13 23.35 89.0634 23.6L88.8384 23.275C89.7217 22.8417 90.5717 22.3167 91.3884 21.7C92.2217 21.0833 92.98 20.4417 93.6634 19.775C94.3467 19.1083 94.8967 18.475 95.3134 17.875L98.0884 19.575ZM103.113 18.425C104.58 18.5083 105.805 18.7 106.788 19C107.788 19.3 108.572 19.6667 109.138 20.1C109.722 20.5167 110.122 20.9417 110.338 21.375C110.572 21.7917 110.647 22.1667 110.563 22.5C110.497 22.85 110.313 23.1 110.013 23.25C109.73 23.4167 109.355 23.4333 108.888 23.3C108.588 22.9 108.205 22.4833 107.738 22.05C107.272 21.6167 106.763 21.1917 106.213 20.775C105.663 20.3583 105.105 19.975 104.538 19.625C103.972 19.2583 103.43 18.95 102.913 18.7L103.113 18.425ZM103.788 9.3C103.788 9.73333 103.722 10.2083 103.588 10.725C103.455 11.225 103.18 11.7333 102.763 12.25C102.347 12.7667 101.722 13.2583 100.888 13.725C100.055 14.1917 98.93 14.5917 97.5134 14.925L97.3134 14.6C98.58 14.0667 99.5217 13.5 100.138 12.9C100.755 12.2833 101.163 11.6667 101.363 11.05C101.58 10.4333 101.688 9.85 101.688 9.3V7.925H103.788V9.3ZM107.913 7.675V8.4H99.7634L99.5384 7.675H107.913ZM106.363 7.675L107.413 6.575L109.388 8.275C109.238 8.44167 108.963 8.55833 108.563 8.625V12.225C108.563 12.3417 108.58 12.425 108.613 12.475C108.663 12.5083 108.755 12.525 108.888 12.525H109.463C109.58 12.525 109.68 12.525 109.763 12.525C109.847 12.525 109.913 12.525 109.963 12.525C110.03 12.525 110.088 12.5167 110.138 12.5C110.205 12.4667 110.263 12.4167 110.313 12.35C110.38 12.2333 110.472 12 110.588 11.65C110.722 11.3 110.838 10.925 110.938 10.525H111.238L111.313 12.375C111.563 12.4917 111.73 12.6083 111.813 12.725C111.897 12.8417 111.938 13 111.938 13.2C111.938 13.5833 111.738 13.8833 111.338 14.1C110.938 14.3167 110.247 14.425 109.263 14.425H108.238C107.755 14.425 107.397 14.375 107.163 14.275C106.93 14.1583 106.772 13.975 106.688 13.725C106.622 13.4583 106.588 13.125 106.588 12.725V7.675H106.363ZM99.2384 10.175C100.422 10.175 101.413 10.275 102.213 10.475C103.03 10.6583 103.68 10.9 104.163 11.2C104.663 11.4833 105.022 11.7833 105.238 12.1C105.472 12.4167 105.58 12.7167 105.563 13C105.547 13.2667 105.43 13.4667 105.213 13.6C105.013 13.7333 104.738 13.775 104.388 13.725C104.038 13.3417 103.555 12.9417 102.938 12.525C102.322 12.1083 101.672 11.725 100.988 11.375C100.305 11.0083 99.6634 10.7167 99.0634 10.5L99.2384 10.175ZM102.538 15.025C102.522 15.1917 102.447 15.3417 102.313 15.475C102.18 15.5917 101.947 15.6667 101.613 15.7V23.425C101.613 23.4917 101.505 23.575 101.288 23.675C101.088 23.775 100.83 23.8667 100.513 23.95C100.197 24.0333 99.8717 24.075 99.5384 24.075H99.0884V14.7L102.538 15.025ZM109.163 14.825C109.163 14.825 109.255 14.9 109.438 15.05C109.622 15.1833 109.847 15.3667 110.113 15.6C110.397 15.8167 110.688 16.0583 110.988 16.325C111.305 16.575 111.588 16.8167 111.838 17.05C111.772 17.3167 111.538 17.45 111.138 17.45H89.7134L89.5134 16.725H107.713L109.163 14.825ZM89.8134 13.375C90.38 13.325 91.1634 13.2333 92.1634 13.1C93.1634 12.9667 94.2967 12.8083 95.5634 12.625C96.8467 12.4417 98.155 12.25 99.4884 12.05L99.5384 12.425C98.655 12.775 97.555 13.1833 96.2384 13.65C94.9217 14.1167 93.355 14.6417 91.5384 15.225C91.405 15.5417 91.1967 15.7333 90.9134 15.8L89.8134 13.375ZM95.6634 7.9V13.125L93.4634 13.675V7.9H95.6634ZM97.1634 6.4C97.1634 6.4 97.28 6.49167 97.5134 6.675C97.7634 6.85833 98.0467 7.09167 98.3634 7.375C98.6967 7.64167 98.9967 7.9 99.2634 8.15C99.1967 8.41667 98.98 8.55 98.6134 8.55H90.5384L90.3384 7.825H96.0134L97.1634 6.4ZM109.213 1.5C109.213 1.5 109.347 1.60833 109.613 1.825C109.88 2.025 110.188 2.275 110.538 2.575C110.905 2.85833 111.238 3.14167 111.538 3.425C111.472 3.69167 111.247 3.825 110.863 3.825H102.363V3.1H107.963L109.213 1.5ZM98.7884 1.6C98.7884 1.6 98.905 1.7 99.1384 1.9C99.3884 2.1 99.6717 2.34167 99.9884 2.625C100.305 2.89167 100.597 3.15833 100.863 3.425C100.797 3.69167 100.58 3.825 100.213 3.825H93.1384V3.1H97.6384L98.7884 1.6ZM104.313 4.35C105.08 4.35 105.672 4.44167 106.088 4.625C106.522 4.79167 106.822 5 106.988 5.25C107.172 5.48333 107.247 5.71667 107.213 5.95C107.197 6.18333 107.097 6.38333 106.913 6.55C106.73 6.71667 106.505 6.81667 106.238 6.85C105.988 6.86667 105.713 6.76667 105.413 6.55C105.363 6.18333 105.205 5.80833 104.938 5.425C104.672 5.025 104.388 4.725 104.088 4.525L104.313 4.35ZM105.263 1.825C105.197 1.95833 105.08 2.075 104.913 2.175C104.763 2.25833 104.555 2.28333 104.288 2.25C103.688 3.28333 102.997 4.21667 102.213 5.05C101.43 5.86667 100.613 6.525 99.7634 7.025L99.4384 6.8C99.9717 6.06667 100.48 5.15833 100.963 4.075C101.447 2.99167 101.838 1.85833 102.138 0.674999L105.263 1.825ZM94.5634 4.25C95.3134 4.21667 95.905 4.275 96.3384 4.425C96.7884 4.575 97.105 4.76667 97.2884 5C97.4884 5.23333 97.5884 5.475 97.5884 5.725C97.5884 5.975 97.505 6.19167 97.3384 6.375C97.1884 6.55833 96.9884 6.675 96.7384 6.725C96.4884 6.775 96.2134 6.71667 95.9134 6.55C95.8134 6.15 95.605 5.75833 95.2884 5.375C94.9884 4.975 94.6717 4.66667 94.3384 4.45L94.5634 4.25ZM95.7634 1.8C95.7134 1.95 95.605 2.06667 95.4384 2.15C95.2717 2.23333 95.055 2.26667 94.7884 2.25C94.0384 3.48333 93.1634 4.54167 92.1634 5.425C91.1634 6.30833 90.1384 7.00833 89.0884 7.525L88.8134 7.25C89.5467 6.51667 90.255 5.56667 90.9384 4.4C91.6384 3.23333 92.205 1.99167 92.6384 0.674999L95.7634 1.8ZM148.412 6.575C148.228 6.69167 148.003 6.64167 147.737 6.425C147.403 6.475 146.945 6.53333 146.362 6.6C145.795 6.66667 145.178 6.725 144.512 6.775C143.845 6.825 143.212 6.86667 142.612 6.9L142.512 6.55C143.028 6.38333 143.587 6.18333 144.187 5.95C144.803 5.71667 145.387 5.475 145.937 5.225C146.487 4.975 146.92 4.775 147.237 4.625L148.412 6.575ZM132.212 8.05C132.578 8.01667 133.087 7.96667 133.737 7.9C134.387 7.81667 135.112 7.725 135.912 7.625C136.712 7.525 137.528 7.425 138.362 7.325L138.412 7.7C137.878 7.91667 137.212 8.18333 136.412 8.5C135.628 8.81667 134.703 9.15833 133.637 9.525C133.52 9.84167 133.328 10.025 133.062 10.075L132.212 8.05ZM132.712 5.425C133.878 5.275 134.837 5.25 135.587 5.35C136.337 5.43333 136.912 5.58333 137.312 5.8C137.728 6.01667 137.987 6.25 138.087 6.5C138.187 6.73333 138.17 6.93333 138.037 7.1C137.903 7.26667 137.687 7.35 137.387 7.35C137.02 7.16667 136.562 6.98333 136.012 6.8C135.462 6.6 134.887 6.41667 134.287 6.25C133.687 6.08333 133.12 5.95833 132.587 5.875L132.712 5.425ZM142.562 7.35C143.828 7.28333 144.862 7.325 145.662 7.475C146.478 7.625 147.095 7.83333 147.512 8.1C147.945 8.35 148.212 8.60833 148.312 8.875C148.412 9.125 148.387 9.33333 148.237 9.5C148.087 9.66667 147.845 9.74167 147.512 9.725C147.145 9.50833 146.662 9.275 146.062 9.025C145.478 8.775 144.862 8.54167 144.212 8.325C143.578 8.09167 142.987 7.90833 142.437 7.775L142.562 7.35ZM150.512 4.125V4.85H131.262V4.125H150.512ZM141.712 9.225C141.712 9.29167 141.537 9.4 141.187 9.55C140.837 9.68333 140.362 9.75 139.762 9.75H139.362V2.125H141.712V9.225ZM147.137 0.674999C147.137 0.674999 147.262 0.774999 147.512 0.974999C147.762 1.15833 148.062 1.39167 148.412 1.675C148.762 1.94167 149.078 2.2 149.362 2.45C149.295 2.71667 149.07 2.85 148.687 2.85H132.337L132.137 2.125H145.937L147.137 0.674999ZM148.987 4.125L150.237 2.85L152.462 5C152.378 5.1 152.262 5.16667 152.112 5.2C151.962 5.21667 151.762 5.24167 151.512 5.275C151.195 5.64167 150.778 6.05833 150.262 6.525C149.745 6.99167 149.253 7.375 148.787 7.675L148.512 7.5C148.612 7.2 148.703 6.84167 148.787 6.425C148.887 5.99167 148.978 5.575 149.062 5.175C149.145 4.75833 149.212 4.40833 149.262 4.125H148.987ZM131.337 2.925C131.737 3.75833 131.945 4.50833 131.962 5.175C131.995 5.84167 131.912 6.4 131.712 6.85C131.512 7.3 131.245 7.63333 130.912 7.85C130.578 8.05 130.22 8.11667 129.837 8.05C129.453 7.96667 129.187 7.75 129.037 7.4C128.937 7.05 128.978 6.74167 129.162 6.475C129.345 6.19167 129.587 5.975 129.887 5.825C130.253 5.59167 130.545 5.20833 130.762 4.675C130.995 4.125 131.053 3.55 130.937 2.95L131.337 2.925ZM147.737 17.55C147.687 17.7 147.578 17.8167 147.412 17.9C147.262 17.9833 147.053 18.0167 146.787 18C146.303 19.05 145.695 19.9417 144.962 20.675C144.228 21.3917 143.428 21.9583 142.562 22.375L142.262 22.1C142.878 21.4833 143.428 20.7083 143.912 19.775C144.395 18.8417 144.77 17.8083 145.037 16.675L147.737 17.55ZM145.637 18.825C146.653 18.975 147.428 19.2083 147.962 19.525C148.495 19.825 148.845 20.15 149.012 20.5C149.178 20.8333 149.212 21.1417 149.112 21.425C149.028 21.7083 148.845 21.9 148.562 22C148.295 22.0833 147.987 22.0083 147.637 21.775C147.537 21.4417 147.362 21.1083 147.112 20.775C146.878 20.4417 146.612 20.125 146.312 19.825C146.012 19.5083 145.712 19.25 145.412 19.05L145.637 18.825ZM136.937 17.65C136.87 17.8 136.762 17.9167 136.612 18C136.462 18.0833 136.253 18.1083 135.987 18.075C135.437 19.2083 134.745 20.1333 133.912 20.85C133.078 21.55 132.17 22.0917 131.187 22.475L130.887 22.175C131.653 21.5917 132.337 20.8333 132.937 19.9C133.537 18.95 133.987 17.875 134.287 16.675L136.937 17.65ZM141.712 16.2V23.175H139.437V16.2H141.712ZM146.112 14.65C146.112 14.7 146.037 14.7667 145.887 14.85C145.737 14.9333 145.545 15.0083 145.312 15.075C145.095 15.1417 144.87 15.175 144.637 15.175H144.362V10.35V9.55L146.237 10.35H149.062V11.075H146.112V14.65ZM147.937 10.35L148.812 9.4L150.762 10.875C150.695 10.9417 150.587 11.0167 150.437 11.1C150.287 11.1833 150.112 11.2417 149.912 11.275V14.35C149.912 14.4 149.828 14.4667 149.662 14.55C149.495 14.6333 149.295 14.7083 149.062 14.775C148.845 14.8417 148.637 14.875 148.437 14.875H148.137V10.35H147.937ZM148.887 13.55V14.275H145.212V13.55H148.887ZM139.387 14.65C139.387 14.7 139.312 14.7667 139.162 14.85C139.028 14.9333 138.845 15.0083 138.612 15.075C138.395 15.1417 138.162 15.175 137.912 15.175H137.662V10.35V9.575L139.512 10.35H142.262V11.075H139.387V14.65ZM141.412 10.35L142.262 9.45L144.137 10.875C144.07 10.9417 143.97 11.0083 143.837 11.075C143.703 11.1417 143.537 11.1917 143.337 11.225V14.4C143.337 14.45 143.253 14.5167 143.087 14.6C142.92 14.6833 142.72 14.7667 142.487 14.85C142.27 14.9167 142.07 14.95 141.887 14.95H141.612V10.35H141.412ZM142.237 13.55V14.275H138.412V13.55H142.237ZM132.737 14.8C132.737 14.85 132.662 14.9167 132.512 15C132.378 15.0833 132.195 15.1667 131.962 15.25C131.728 15.3167 131.495 15.35 131.262 15.35H131.012V10.35V9.575L132.837 10.35H135.737V11.075H132.737V14.8ZM134.737 10.35L135.612 9.45L137.462 10.875C137.312 11.0583 137.053 11.175 136.687 11.225V14.45C136.687 14.5 136.595 14.5667 136.412 14.65C136.245 14.7333 136.053 14.8167 135.837 14.9C135.62 14.9667 135.42 15 135.237 15H134.937V10.35H134.737ZM135.737 13.55V14.275H131.912V13.55H135.737ZM134.962 18.8C135.845 18.9333 136.545 19.125 137.062 19.375C137.578 19.625 137.953 19.9083 138.187 20.225C138.437 20.525 138.57 20.8167 138.587 21.1C138.603 21.3667 138.537 21.6 138.387 21.8C138.253 21.9833 138.053 22.0917 137.787 22.125C137.537 22.175 137.262 22.1 136.962 21.9C136.878 21.5667 136.712 21.2167 136.462 20.85C136.228 20.4833 135.953 20.1417 135.637 19.825C135.32 19.4917 135.02 19.2167 134.737 19L134.962 18.8ZM148.262 14.45C148.262 14.45 148.387 14.5417 148.637 14.725C148.887 14.9083 149.187 15.1333 149.537 15.4C149.903 15.65 150.228 15.9 150.512 16.15C150.462 16.4167 150.245 16.55 149.862 16.55H131.262L131.062 15.825H147.062L148.262 14.45ZM149.812 21.2C149.812 21.2 149.928 21.3 150.162 21.5C150.412 21.7 150.703 21.9417 151.037 22.225C151.387 22.5083 151.695 22.7833 151.962 23.05C151.895 23.3167 151.678 23.45 151.312 23.45H129.987L129.762 22.725H148.637L149.812 21.2ZM164.737 10.375C164.687 10.5417 164.545 10.6833 164.312 10.8C164.095 10.9167 163.762 10.925 163.312 10.825L164.037 10.575C163.703 11.3083 163.287 12.1083 162.787 12.975C162.303 13.8417 161.778 14.6833 161.212 15.5C160.662 16.3167 160.128 17.0167 159.612 17.6L159.587 17.3H160.937C160.87 18.0167 160.728 18.6083 160.512 19.075C160.312 19.5417 160.053 19.8417 159.737 19.975L158.487 16.975C158.487 16.975 158.587 16.95 158.787 16.9C159.003 16.8333 159.153 16.7583 159.237 16.675C159.47 16.325 159.703 15.8583 159.937 15.275C160.17 14.675 160.395 14.025 160.612 13.325C160.828 12.6083 161.012 11.9167 161.162 11.25C161.328 10.5833 161.453 10 161.537 9.5L164.737 10.375ZM158.862 17.05C159.312 16.9833 159.937 16.8917 160.737 16.775C161.537 16.6417 162.437 16.4917 163.437 16.325C164.437 16.1417 165.462 15.9583 166.512 15.775L166.587 16.075C166.153 16.3083 165.595 16.6083 164.912 16.975C164.245 17.3417 163.495 17.7417 162.662 18.175C161.828 18.5917 160.937 19.025 159.987 19.475L158.862 17.05ZM164.212 12.6C165.195 13.1833 165.962 13.7917 166.512 14.425C167.062 15.0417 167.445 15.6417 167.662 16.225C167.895 16.8083 167.995 17.3333 167.962 17.8C167.928 18.2667 167.803 18.6333 167.587 18.9C167.37 19.15 167.103 19.2833 166.787 19.3C166.47 19.3 166.145 19.1417 165.812 18.825C165.795 18.1583 165.695 17.4667 165.512 16.75C165.328 16.0167 165.087 15.3 164.787 14.6C164.503 13.9 164.212 13.275 163.912 12.725L164.212 12.6ZM165.262 7.45C165.262 7.45 165.395 7.55833 165.662 7.775C165.928 7.975 166.245 8.23333 166.612 8.55C166.978 8.85 167.312 9.13333 167.612 9.4C167.545 9.66667 167.32 9.8 166.937 9.8H158.787L158.587 9.075H163.987L165.262 7.45ZM164.612 2.2C164.612 2.2 164.745 2.30833 165.012 2.525C165.278 2.725 165.595 2.975 165.962 3.275C166.328 3.575 166.653 3.86667 166.937 4.15C166.87 4.41667 166.645 4.55 166.262 4.55H159.312L159.112 3.825H163.337L164.612 2.2ZM175.887 13.075C175.887 13.225 175.887 13.375 175.887 13.525C175.887 13.6583 175.887 13.775 175.887 13.875V21.15C175.887 21.3167 175.92 21.4333 175.987 21.5C176.07 21.5667 176.278 21.6 176.612 21.6H178.262C178.612 21.6 178.92 21.6 179.187 21.6C179.453 21.5833 179.645 21.575 179.762 21.575C179.878 21.5583 179.97 21.5417 180.037 21.525C180.12 21.4917 180.187 21.4333 180.237 21.35C180.337 21.2167 180.445 20.9333 180.562 20.5C180.695 20.0667 180.828 19.6083 180.962 19.125H181.262L181.337 21.4C181.62 21.5 181.812 21.6167 181.912 21.75C182.012 21.8667 182.062 22.025 182.062 22.225C182.062 22.4917 181.953 22.7083 181.737 22.875C181.52 23.0583 181.128 23.1917 180.562 23.275C180.012 23.3583 179.203 23.4 178.137 23.4H176.137C175.537 23.4 175.078 23.3417 174.762 23.225C174.445 23.1083 174.228 22.9167 174.112 22.65C174.012 22.4 173.962 22.0583 173.962 21.625V13.075H175.887ZM174.662 4.5V13.1H172.537V4.5H174.662ZM179.687 15.45C179.62 15.5833 179.478 15.7 179.262 15.8C179.045 15.9 178.72 15.875 178.287 15.725L179.012 15.575C178.828 15.925 178.595 16.3167 178.312 16.75C178.045 17.1833 177.77 17.6083 177.487 18.025C177.203 18.425 176.937 18.7667 176.687 19.05L176.662 18.75H177.537C177.487 19.2333 177.378 19.6167 177.212 19.9C177.062 20.1833 176.895 20.3583 176.712 20.425L175.812 18.45C175.812 18.45 175.87 18.4333 175.987 18.4C176.12 18.35 176.212 18.3083 176.262 18.275C176.412 18.025 176.553 17.6583 176.687 17.175C176.82 16.6917 176.937 16.1917 177.037 15.675C177.137 15.1417 177.195 14.7083 177.212 14.375L179.687 15.45ZM176.137 18.525C176.57 18.525 177.137 18.4917 177.837 18.425C178.553 18.3417 179.27 18.2417 179.987 18.125L180.037 18.5C179.87 18.6167 179.612 18.775 179.262 18.975C178.912 19.1583 178.52 19.3583 178.087 19.575C177.67 19.7917 177.253 19.9917 176.837 20.175L176.137 18.525ZM172.862 14.075C172.862 14.5917 172.812 15.1833 172.712 15.85C172.628 16.5167 172.462 17.2167 172.212 17.95C171.962 18.6833 171.578 19.425 171.062 20.175C170.545 20.9083 169.853 21.6083 168.987 22.275C168.137 22.9583 167.062 23.575 165.762 24.125L165.537 23.8C166.67 23.0167 167.578 22.2 168.262 21.35C168.962 20.4833 169.487 19.6167 169.837 18.75C170.187 17.8833 170.42 17.0583 170.537 16.275C170.67 15.475 170.737 14.7417 170.737 14.075V13H172.862V14.075ZM175.662 1.7C175.528 2.06667 175.187 2.25 174.637 2.25C174.303 2.56667 173.887 2.94167 173.387 3.375C172.903 3.79167 172.478 4.15833 172.112 4.475H171.362C171.445 4.175 171.528 3.80833 171.612 3.375C171.712 2.94167 171.812 2.5 171.912 2.05C172.012 1.6 172.087 1.2 172.137 0.85L175.662 1.7ZM178.837 16.55C179.537 16.9167 180.045 17.3 180.362 17.7C180.678 18.1 180.853 18.475 180.887 18.825C180.937 19.175 180.887 19.4667 180.737 19.7C180.603 19.9167 180.412 20.0417 180.162 20.075C179.928 20.0917 179.678 19.9833 179.412 19.75C179.445 19.2333 179.362 18.6917 179.162 18.125C178.978 17.5583 178.77 17.0833 178.537 16.7L178.837 16.55ZM178.687 12.725V13.45H168.887V12.725H178.687ZM178.762 8.4V9.125H168.987V8.4H178.762ZM167.687 3.175L170.137 4.175H177.362L178.437 2.9L180.687 4.6C180.603 4.71667 180.487 4.80833 180.337 4.875C180.187 4.94167 179.978 5 179.712 5.05V13.95C179.712 14.0167 179.537 14.1333 179.187 14.3C178.837 14.45 178.378 14.525 177.812 14.525H177.462V4.9H169.862V14.2C169.862 14.2833 169.695 14.4 169.362 14.55C169.045 14.7 168.612 14.775 168.062 14.775H167.687V4.175V3.175ZM203.612 8.9C203.612 9.21667 203.645 9.40833 203.712 9.475C203.795 9.525 204.02 9.55 204.387 9.55H207.637C207.753 9.55 207.87 9.55 207.987 9.55C208.12 9.55 208.228 9.55 208.312 9.55C208.395 9.55 208.495 9.55 208.612 9.55C208.745 9.53333 208.887 9.50833 209.037 9.475H209.237L209.387 9.5C209.77 9.63333 210.02 9.75 210.137 9.85C210.253 9.93333 210.312 10.0583 210.312 10.225C210.312 10.5083 210.237 10.7417 210.087 10.925C209.937 11.1083 209.653 11.2417 209.237 11.325C208.82 11.3917 208.22 11.425 207.437 11.425H204.062C203.428 11.425 202.92 11.4 202.537 11.35C202.17 11.3 201.895 11.1917 201.712 11.025C201.528 10.8583 201.412 10.6083 201.362 10.275C201.312 9.925 201.287 9.46667 201.287 8.9V4.85H203.612V8.9ZM198.312 7.375C197.745 8.29167 197.07 9.125 196.287 9.875C195.503 10.6083 194.545 11.2333 193.412 11.75C192.278 12.2667 190.92 12.6583 189.337 12.925L189.162 12.575C190.595 11.9917 191.778 11.325 192.712 10.575C193.662 9.825 194.42 9.01667 194.987 8.15C195.553 7.26667 195.978 6.33333 196.262 5.35L199.412 6.9C199.362 7.05 199.253 7.16667 199.087 7.25C198.937 7.33333 198.678 7.375 198.312 7.375ZM197.487 0.749999C198.487 0.916666 199.262 1.15833 199.812 1.475C200.378 1.775 200.762 2.10833 200.962 2.475C201.178 2.84167 201.253 3.19167 201.187 3.525C201.12 3.85833 200.962 4.14167 200.712 4.375C200.462 4.59167 200.153 4.7 199.787 4.7C199.42 4.7 199.045 4.55 198.662 4.25C198.645 3.65 198.495 3.05 198.212 2.45C197.928 1.83333 197.612 1.31667 197.262 0.899999L197.487 0.749999ZM209.412 4.525V5.25H191.087V4.525H209.412ZM200.787 14.25V22.475H198.337V14.25H200.787ZM207.412 4.525L208.812 3.125L211.262 5.45C211.112 5.61667 210.787 5.71667 210.287 5.75C209.903 6.18333 209.403 6.66667 208.787 7.2C208.17 7.71667 207.587 8.15 207.037 8.5L206.787 8.325C206.903 7.95833 207.02 7.55 207.137 7.1C207.253 6.63333 207.362 6.175 207.462 5.725C207.562 5.25833 207.637 4.85833 207.687 4.525H207.412ZM191.387 3.1C191.82 4.11667 192.037 5.025 192.037 5.825C192.053 6.60833 191.928 7.26667 191.662 7.8C191.395 8.33333 191.07 8.725 190.687 8.975C190.303 9.225 189.887 9.31667 189.437 9.25C189.003 9.18333 188.712 8.95 188.562 8.55C188.428 8.16667 188.453 7.825 188.637 7.525C188.837 7.225 189.103 6.98333 189.437 6.8C189.903 6.51667 190.303 6.03333 190.637 5.35C190.987 4.66667 191.112 3.925 191.012 3.125L191.387 3.1ZM205.912 12.425C205.912 12.425 205.987 12.4917 206.137 12.625C206.303 12.7583 206.512 12.9333 206.762 13.15C207.028 13.35 207.295 13.575 207.562 13.825C207.845 14.0583 208.103 14.2833 208.337 14.5C208.287 14.7667 208.062 14.9 207.662 14.9H191.837L191.637 14.175H204.562L205.912 12.425ZM208.462 20.175C208.462 20.175 208.545 20.25 208.712 20.4C208.895 20.5333 209.12 20.7167 209.387 20.95C209.67 21.1667 209.962 21.4 210.262 21.65C210.562 21.9 210.828 22.15 211.062 22.4C210.995 22.6667 210.77 22.8 210.387 22.8H189.037L188.837 22.075H207.037L208.462 20.175ZM224.337 12.55V11.575L226.637 12.55H232.612V13.275H226.537V21.2C226.537 21.2667 226.445 21.3583 226.262 21.475C226.078 21.5917 225.845 21.7 225.562 21.8C225.278 21.8833 224.978 21.925 224.662 21.925H224.337V12.55ZM225.412 19.5H232.612V20.225H225.412V19.5ZM225.412 15.95H232.612V16.675H225.412V15.95ZM231.562 12.55H231.337L232.437 11.375L234.737 13.125C234.67 13.2083 234.553 13.3 234.387 13.4C234.237 13.4833 234.045 13.5417 233.812 13.575V20.925C233.812 20.9917 233.703 21.0833 233.487 21.2C233.27 21.3 233.02 21.4 232.737 21.5C232.47 21.5833 232.203 21.625 231.937 21.625H231.562V12.55ZM218.912 2.7V1.6L221.362 2.7H226.487V3.4H221.237V23.2C221.237 23.3 221.145 23.4167 220.962 23.55C220.795 23.7 220.57 23.825 220.287 23.925C220.003 24.0417 219.678 24.1 219.312 24.1H218.912V2.7ZM230.212 2.7V1.7L232.562 2.7H237.962V3.4H232.437V10.175C232.437 10.2417 232.345 10.3333 232.162 10.45C231.978 10.5667 231.737 10.675 231.437 10.775C231.137 10.8583 230.828 10.9 230.512 10.9H230.212V2.7ZM236.987 2.7H236.737L237.862 1.35L240.412 3.3C240.328 3.4 240.195 3.5 240.012 3.6C239.828 3.7 239.603 3.76667 239.337 3.8V21.1C239.337 21.6667 239.27 22.1583 239.137 22.575C239.003 22.9917 238.712 23.325 238.262 23.575C237.828 23.825 237.128 24 236.162 24.1C236.145 23.7 236.095 23.3583 236.012 23.075C235.945 22.7917 235.828 22.5583 235.662 22.375C235.478 22.1917 235.237 22.0333 234.937 21.9C234.653 21.7667 234.237 21.65 233.687 21.55V21.175C233.687 21.175 233.803 21.1917 234.037 21.225C234.27 21.2417 234.545 21.2583 234.862 21.275C235.195 21.2917 235.512 21.3083 235.812 21.325C236.112 21.3417 236.328 21.35 236.462 21.35C236.662 21.35 236.795 21.3083 236.862 21.225C236.945 21.1417 236.987 21.0083 236.987 20.825V2.7ZM225.612 2.7H225.387L226.462 1.525L228.762 3.25C228.695 3.33333 228.578 3.425 228.412 3.525C228.245 3.625 228.053 3.69167 227.837 3.725V10.325C227.837 10.375 227.728 10.4583 227.512 10.575C227.295 10.675 227.045 10.7667 226.762 10.85C226.478 10.9167 226.22 10.95 225.987 10.95H225.612V2.7ZM220.037 5.775H226.362V6.5H220.037V5.775ZM220.037 8.95H226.362V9.675H220.037V8.95ZM231.562 5.775H238.012V6.5H231.562V5.775ZM231.562 8.95H238.012V9.675H231.562V8.95Z" fill="#6E4D3B"/>
</svg>
