<svg width="510" height="50" viewBox="0 0 510 50" fill="none" xmlns="http://www.w3.org/2000/svg">
<path d="M4.99133 7.508V5.948L10.5033 8.028H9.67133V19.312C9.67133 21.4267 9.602 23.7493 9.46333 26.28C9.32467 28.776 8.99533 31.3413 8.47533 33.976C7.99 36.576 7.19267 39.124 6.08333 41.62C5.00867 44.0813 3.48333 46.3347 1.50733 48.38L0.831334 47.964C2.14867 45.052 3.102 41.984 3.69133 38.76C4.28067 35.5013 4.64467 32.2253 4.78333 28.932C4.922 25.604 4.99133 22.3973 4.99133 19.312V8.028V7.508ZM45.5513 4.804C45.5513 4.804 45.7767 5.02933 46.2273 5.48C46.7127 5.896 47.2673 6.39867 47.8913 6.988C48.55 7.57733 49.122 8.14933 49.6073 8.704C49.5033 9.25867 49.07 9.536 48.3073 9.536H7.74733V8.028H43.2113L45.5513 4.804ZM23.6593 20.196L25.8433 17.908L30.5753 21.392C30.4367 21.5653 30.194 21.756 29.8473 21.964C29.5007 22.1373 29.102 22.2587 28.6513 22.328V29.764C28.6513 29.868 28.426 30.024 27.9753 30.232C27.5593 30.4053 27.0567 30.5787 26.4673 30.752C25.9127 30.8907 25.3927 30.96 24.9073 30.96H24.1793V20.196H23.6593ZM25.6873 27.32V28.828H14.6633V27.32H25.6873ZM16.9513 30.752C16.9513 30.856 16.7607 31.0293 16.3793 31.272C15.998 31.48 15.5127 31.6707 14.9233 31.844C14.3687 32.0173 13.7967 32.104 13.2073 32.104H12.5833V20.196V18.324L17.1593 20.196H26.0513V21.704H16.9513V30.752ZM38.3233 1.684C38.2887 2.03067 38.1327 2.34267 37.8553 2.62C37.6127 2.86266 37.1447 3.036 36.4513 3.14C36.382 6.676 36.434 10.264 36.6073 13.904C36.8153 17.5093 37.214 21.0107 37.8033 24.408C38.4273 27.7707 39.3113 30.908 40.4553 33.82C41.5993 36.6973 43.09 39.176 44.9273 41.256C45.274 41.7413 45.534 41.984 45.7073 41.984C45.9153 41.9493 46.1407 41.672 46.3833 41.152C46.73 40.4933 47.1287 39.6093 47.5793 38.5C48.0647 37.356 48.498 36.264 48.8793 35.224L49.5033 35.328L48.4113 43.804C49.1393 45.1907 49.5553 46.2653 49.6593 47.028C49.798 47.7907 49.694 48.3107 49.3473 48.588C48.654 49.1427 47.8567 49.316 46.9553 49.108C46.054 48.9 45.1527 48.4667 44.2513 47.808C43.35 47.1493 42.6047 46.4387 42.0153 45.676C39.9007 43.0067 38.1673 40.0427 36.8153 36.784C35.498 33.4907 34.4753 29.9373 33.7473 26.124C33.0193 22.276 32.4993 18.2373 32.1873 14.008C31.91 9.77866 31.7713 5.428 31.7713 0.955997L38.3233 1.684ZM25.6873 10.992C25.6873 10.992 25.9473 11.2173 26.4673 11.668C26.9873 12.084 27.6113 12.5867 28.3393 13.176C29.102 13.7653 29.778 14.3373 30.3673 14.892C30.2287 15.4467 29.7607 15.724 28.9633 15.724H11.9073L11.4913 14.216H23.1393L25.6873 10.992ZM48.0473 15.204C47.9087 15.516 47.666 15.7587 47.3193 15.932C47.0073 16.1053 46.5567 16.1573 45.9673 16.088C44.546 19.3813 42.8473 22.224 40.8713 24.616C38.8953 26.9733 36.694 28.9667 34.2673 30.596C31.8407 32.1907 29.2407 33.4733 26.4673 34.444L25.9473 33.82C28.27 32.468 30.4367 30.7693 32.4473 28.724C34.4927 26.6787 36.3127 24.3213 37.9073 21.652C39.502 18.948 40.7673 15.9493 41.7033 12.656L48.0473 15.204ZM38.6353 1.268C40.4033 1.58 41.7033 2.03067 42.5353 2.62C43.402 3.20933 43.9047 3.816 44.0433 4.44C44.2167 5.02933 44.1473 5.54933 43.8353 6C43.5233 6.45066 43.0727 6.728 42.4833 6.832C41.9287 6.90133 41.3393 6.69333 40.7153 6.208C40.6113 5.376 40.2993 4.544 39.7793 3.712C39.2593 2.84533 38.7047 2.152 38.1153 1.632L38.6353 1.268ZM18.9793 33.872C18.91 34.6 18.4073 35.016 17.4713 35.12V43.7C17.4713 44.012 17.558 44.22 17.7313 44.324C17.9047 44.428 18.286 44.48 18.8753 44.48H22.2553C22.9833 44.48 23.6247 44.48 24.1793 44.48C24.734 44.48 25.1153 44.4627 25.3233 44.428C25.7047 44.428 25.9993 44.2373 26.2073 43.856C26.3807 43.5093 26.606 42.816 26.8833 41.776C27.1607 40.736 27.438 39.592 27.7153 38.344H28.3913L28.5473 44.012C29.102 44.22 29.4487 44.4627 29.5873 44.74C29.7607 44.9827 29.8473 45.2947 29.8473 45.676C29.8473 46.2307 29.622 46.6987 29.1713 47.08C28.7553 47.4613 27.9753 47.756 26.8313 47.964C25.722 48.172 24.11 48.276 21.9953 48.276H17.9393C16.726 48.276 15.8073 48.1547 15.1833 47.912C14.5593 47.704 14.1433 47.34 13.9353 46.82C13.7273 46.3 13.6233 45.6067 13.6233 44.74V33.352L18.9793 33.872ZM10.8673 35.432C11.6993 37.928 12.0287 40.0773 11.8553 41.88C11.682 43.6827 11.2487 45 10.5553 45.832C10.2433 46.1787 9.82733 46.4387 9.30733 46.612C8.822 46.7853 8.33667 46.82 7.85133 46.716C7.40067 46.612 7.03667 46.3347 6.75933 45.884C6.482 45.2947 6.46467 44.7053 6.70733 44.116C6.95 43.5267 7.34867 43.024 7.90333 42.608C8.31933 42.192 8.70067 41.6027 9.04733 40.84C9.394 40.0427 9.654 39.176 9.82733 38.24C10.0353 37.2693 10.0873 36.3333 9.98333 35.432H10.8673ZM29.1193 34.548C31.0953 35.692 32.5687 36.888 33.5393 38.136C34.51 39.3493 35.0993 40.4933 35.3073 41.568C35.5153 42.608 35.446 43.4747 35.0993 44.168C34.7873 44.8613 34.3193 45.2773 33.6953 45.416C33.0713 45.5547 32.4127 45.2947 31.7193 44.636C31.7193 43.5267 31.546 42.4 31.1993 41.256C30.8873 40.0773 30.4887 38.9333 30.0033 37.824C29.518 36.68 29.0153 35.692 28.4953 34.86L29.1193 34.548ZM19.1873 31.636C21.1633 32.468 22.6367 33.3867 23.6073 34.392C24.6127 35.3627 25.2367 36.2987 25.4793 37.2C25.722 38.0667 25.6873 38.812 25.3753 39.436C25.098 40.06 24.6473 40.4413 24.0233 40.58C23.434 40.7187 22.81 40.4933 22.1513 39.904C22.1167 39.0373 21.9087 38.1187 21.5273 37.148C21.146 36.1773 20.6953 35.2413 20.1753 34.34C19.6553 33.4387 19.118 32.6587 18.5633 32L19.1873 31.636ZM104.051 9.172L106.911 6.312L111.903 11.096C111.695 11.304 111.435 11.4427 111.123 11.512C110.846 11.5467 110.43 11.5987 109.875 11.668C109.147 12.5 108.159 13.4013 106.911 14.372C105.698 15.3427 104.554 16.14 103.479 16.764L102.959 16.452C103.167 15.7587 103.375 14.9787 103.583 14.112C103.826 13.2107 104.034 12.3267 104.207 11.46C104.415 10.5587 104.554 9.796 104.623 9.172H104.051ZM70.5633 6.208C71.2913 8.21866 71.638 10.004 71.6033 11.564C71.5687 13.124 71.274 14.424 70.7193 15.464C70.1993 16.4693 69.5407 17.2147 68.7433 17.7C68.2233 18.0467 67.6167 18.2373 66.9233 18.272C66.2647 18.3067 65.658 18.168 65.1033 17.856C64.5833 17.544 64.202 17.076 63.9593 16.452C63.682 15.5853 63.7687 14.8053 64.2193 14.112C64.67 13.4187 65.2767 12.8987 66.0393 12.552C66.6633 12.2053 67.27 11.72 67.8593 11.096C68.4833 10.4373 68.9687 9.692 69.3153 8.86C69.6967 8.028 69.8527 7.16133 69.7833 6.26L70.5633 6.208ZM106.339 9.172V10.68H69.9913V9.172H106.339ZM83.6673 0.851998C85.8513 1.02533 87.5673 1.40666 88.8153 1.996C90.098 2.58533 90.982 3.27866 91.4673 4.076C91.9873 4.87333 92.1953 5.65333 92.0913 6.416C92.022 7.144 91.7447 7.768 91.2593 8.288C90.774 8.808 90.15 9.10266 89.3873 9.172C88.6247 9.20667 87.81 8.92933 86.9433 8.34C86.8393 7.05733 86.4233 5.75733 85.6953 4.44C85.002 3.088 84.1873 1.996 83.2513 1.164L83.6673 0.851998ZM99.2673 33.404L101.711 30.752L106.807 34.652C106.669 34.86 106.409 35.0507 106.027 35.224C105.681 35.3973 105.265 35.536 104.779 35.64V47.6C104.779 47.704 104.537 47.8773 104.051 48.12C103.601 48.3627 103.063 48.5707 102.439 48.744C101.815 48.952 101.209 49.056 100.619 49.056H99.7873V33.404H99.2673ZM95.9913 15.984L98.3313 13.488L103.323 17.232C103.185 17.4053 102.942 17.596 102.595 17.804C102.283 17.9773 101.885 18.0987 101.399 18.168V28.048C101.399 28.1173 101.157 28.256 100.671 28.464C100.221 28.672 99.666 28.8627 99.0073 29.036C98.3833 29.1747 97.8113 29.244 97.2913 29.244H96.4593V15.984H95.9913ZM78.8313 47.6C78.8313 47.7733 78.6407 47.9987 78.2593 48.276C77.878 48.588 77.3753 48.848 76.7513 49.056C76.1273 49.264 75.434 49.368 74.6713 49.368H73.8913V15.984V13.696L79.1433 15.984H98.9033V17.492H78.8313V47.6ZM101.763 44.012V45.468H76.2833V44.012H101.763ZM101.763 33.404V34.912H76.2833V33.404H101.763ZM98.5393 25.448V26.904H76.2833V25.448H98.5393ZM162.863 6.78L165.151 4.284L170.091 8.028C169.953 8.20133 169.693 8.392 169.311 8.6C168.93 8.77333 168.479 8.912 167.959 9.016V22.328C167.959 22.4667 167.734 22.64 167.283 22.848C166.867 23.0213 166.365 23.1947 165.775 23.368C165.186 23.5413 164.631 23.628 164.111 23.628H163.383V6.78H162.863ZM159.379 1.788C159.31 2.16933 159.137 2.48133 158.859 2.724C158.617 2.96666 158.149 3.14 157.455 3.244V40.84C157.455 41.0133 157.265 41.2213 156.883 41.464C156.537 41.672 156.069 41.8627 155.479 42.036C154.89 42.2093 154.283 42.296 153.659 42.296H152.723V1.112L159.379 1.788ZM165.983 23.784C165.983 23.784 166.139 23.9227 166.451 24.2C166.798 24.4427 167.214 24.7893 167.699 25.24C168.219 25.656 168.757 26.1067 169.311 26.592C169.866 27.0427 170.369 27.476 170.819 27.892C170.681 28.4467 170.213 28.724 169.415 28.724H143.779L143.363 27.216H163.383L165.983 23.784ZM168.011 30.492C168.011 30.492 168.185 30.6307 168.531 30.908C168.913 31.1853 169.381 31.5493 169.935 32C170.49 32.4507 171.079 32.936 171.703 33.456C172.327 33.9413 172.899 34.4093 173.419 34.86C173.35 35.1373 173.177 35.3453 172.899 35.484C172.657 35.6227 172.345 35.692 171.963 35.692H141.179L140.763 34.184H165.099L168.011 30.492ZM170.975 10.004C170.975 10.004 171.218 10.2467 171.703 10.732C172.189 11.1827 172.743 11.7373 173.367 12.396C174.026 13.02 174.598 13.6267 175.083 14.216C174.945 14.7707 174.494 15.048 173.731 15.048H140.347L139.931 13.54H168.635L170.975 10.004ZM165.359 20.404V21.912H144.403L143.935 20.404H165.359ZM165.463 6.78V8.288H144.091L143.623 6.78H165.463ZM140.243 7.976C139.862 8.84267 139.359 9.91733 138.735 11.2C138.146 12.4827 137.487 13.852 136.759 15.308C136.066 16.7293 135.39 18.116 134.731 19.468C134.073 20.82 133.483 21.964 132.963 22.9H133.327L131.611 24.512L127.347 21.548C127.659 21.3053 128.093 21.0453 128.647 20.768C129.237 20.4907 129.774 20.3173 130.259 20.248L128.491 21.756C129.046 20.8547 129.67 19.728 130.363 18.376C131.057 16.9893 131.75 15.5507 132.443 14.06C133.171 12.5347 133.83 11.0787 134.419 9.692C135.043 8.30533 135.529 7.144 135.875 6.208L140.243 7.976ZM135.251 6.208L137.591 3.868L142.271 8.08C141.994 8.35733 141.543 8.56533 140.919 8.704C140.295 8.84267 139.585 8.912 138.787 8.912C138.025 8.87733 137.262 8.82533 136.499 8.756L135.927 6.208H135.251ZM128.335 26.124C129.653 29.868 131.247 32.8667 133.119 35.12C135.026 37.3733 137.314 39.0893 139.983 40.268C142.653 41.4467 145.773 42.244 149.343 42.66C152.949 43.076 157.091 43.284 161.771 43.284C162.499 43.284 163.383 43.284 164.423 43.284C165.498 43.284 166.642 43.284 167.855 43.284C169.069 43.284 170.23 43.284 171.339 43.284C172.483 43.2493 173.471 43.232 174.303 43.232V43.856C173.298 44.064 172.535 44.5493 172.015 45.312C171.53 46.0747 171.253 46.9587 171.183 47.964C170.455 47.964 169.467 47.964 168.219 47.964C166.971 47.964 165.723 47.964 164.475 47.964C163.227 47.964 162.205 47.964 161.407 47.964C156.554 47.964 152.29 47.6867 148.615 47.132C144.975 46.5773 141.821 45.5373 139.151 44.012C136.517 42.4867 134.263 40.32 132.391 37.512C130.519 34.704 128.942 31.0293 127.659 26.488L128.335 26.124ZM137.175 21.444L139.619 18.844L144.143 22.744C143.866 23.1947 143.225 23.4547 142.219 23.524C141.838 26.124 141.301 28.672 140.607 31.168C139.914 33.6293 138.961 35.9867 137.747 38.24C136.534 40.4587 134.957 42.504 133.015 44.376C131.109 46.248 128.734 47.8947 125.891 49.316L125.423 48.64C128.335 46.4907 130.623 43.9947 132.287 41.152C133.986 38.2747 135.234 35.1547 136.031 31.792C136.863 28.4293 137.418 24.98 137.695 21.444H137.175ZM140.035 21.444V22.952H130.103L130.883 21.444H140.035ZM138.007 6.208V7.716H126.359L125.891 6.208H138.007ZM207.843 39.956C207.67 40.1987 207.445 40.372 207.167 40.476C206.89 40.5453 206.457 40.5107 205.867 40.372C204.654 41.4467 203.146 42.4867 201.343 43.492C199.575 44.4973 197.634 45.416 195.519 46.248C193.439 47.1147 191.29 47.808 189.071 48.328L188.603 47.652C190.441 46.7507 192.209 45.6587 193.907 44.376C195.641 43.0933 197.218 41.7587 198.639 40.372C200.061 38.9853 201.205 37.668 202.071 36.42L207.843 39.956ZM218.295 37.564C221.346 37.7373 223.894 38.136 225.939 38.76C228.019 39.384 229.649 40.1467 230.827 41.048C232.041 41.9147 232.873 42.7987 233.323 43.7C233.809 44.5667 233.965 45.3467 233.791 46.04C233.653 46.768 233.271 47.288 232.647 47.6C232.058 47.9467 231.278 47.9813 230.307 47.704C229.683 46.872 228.886 46.0053 227.915 45.104C226.945 44.2027 225.887 43.3187 224.743 42.452C223.599 41.5853 222.438 40.788 221.259 40.06C220.081 39.2973 218.954 38.656 217.879 38.136L218.295 37.564ZM219.699 18.584C219.699 19.4853 219.561 20.4733 219.283 21.548C219.006 22.588 218.434 23.6453 217.567 24.72C216.701 25.7947 215.401 26.8173 213.667 27.788C211.934 28.7587 209.594 29.5907 206.647 30.284L206.231 29.608C208.866 28.4987 210.825 27.32 212.107 26.072C213.39 24.7893 214.239 23.5067 214.655 22.224C215.106 20.9413 215.331 19.728 215.331 18.584V15.724H219.699V18.584ZM228.279 15.204V16.712H211.327L210.859 15.204H228.279ZM225.055 15.204L227.239 12.916L231.347 16.452C231.035 16.7987 230.463 17.0413 229.631 17.18V24.668C229.631 24.9107 229.666 25.084 229.735 25.188C229.839 25.2573 230.03 25.292 230.307 25.292H231.503C231.746 25.292 231.954 25.292 232.127 25.292C232.301 25.292 232.439 25.292 232.543 25.292C232.682 25.292 232.803 25.2747 232.907 25.24C233.046 25.1707 233.167 25.0667 233.271 24.928C233.41 24.6853 233.601 24.2 233.843 23.472C234.121 22.744 234.363 21.964 234.571 21.132H235.195L235.351 24.98C235.871 25.2227 236.218 25.4653 236.391 25.708C236.565 25.9507 236.651 26.28 236.651 26.696C236.651 27.4933 236.235 28.1173 235.403 28.568C234.571 29.0187 233.133 29.244 231.087 29.244H228.955C227.95 29.244 227.205 29.14 226.719 28.932C226.234 28.6893 225.905 28.308 225.731 27.788C225.593 27.2333 225.523 26.54 225.523 25.708V15.204H225.055ZM210.235 20.404C212.697 20.404 214.759 20.612 216.423 21.028C218.122 21.4093 219.474 21.912 220.479 22.536C221.519 23.1253 222.265 23.7493 222.715 24.408C223.201 25.0667 223.426 25.6907 223.391 26.28C223.357 26.8347 223.114 27.2507 222.663 27.528C222.247 27.8053 221.675 27.892 220.947 27.788C220.219 26.9907 219.214 26.1587 217.931 25.292C216.649 24.4253 215.297 23.628 213.875 22.9C212.454 22.1373 211.119 21.5307 209.871 21.08L210.235 20.404ZM217.099 30.492C217.065 30.8387 216.909 31.1507 216.631 31.428C216.354 31.6707 215.869 31.8267 215.175 31.896V47.964C215.175 48.1027 214.95 48.276 214.499 48.484C214.083 48.692 213.546 48.8827 212.887 49.056C212.229 49.2293 211.553 49.316 210.859 49.316H209.923V29.816L217.099 30.492ZM230.879 30.076C230.879 30.076 231.07 30.232 231.451 30.544C231.833 30.8213 232.301 31.2027 232.855 31.688C233.445 32.1387 234.051 32.6413 234.675 33.196C235.334 33.716 235.923 34.2187 236.443 34.704C236.305 35.2587 235.819 35.536 234.987 35.536H190.423L190.007 34.028H227.863L230.879 30.076ZM190.631 27.06C191.81 26.956 193.439 26.7653 195.519 26.488C197.599 26.2107 199.957 25.8813 202.591 25.5C205.261 25.1187 207.982 24.72 210.755 24.304L210.859 25.084C209.022 25.812 206.734 26.6613 203.995 27.632C201.257 28.6027 197.998 29.6947 194.219 30.908C193.942 31.5667 193.509 31.9653 192.919 32.104L190.631 27.06ZM202.799 15.672V26.54L198.223 27.684V15.672H202.799ZM205.919 12.552C205.919 12.552 206.162 12.7427 206.647 13.124C207.167 13.5053 207.757 13.9907 208.415 14.58C209.109 15.1347 209.733 15.672 210.287 16.192C210.149 16.7467 209.698 17.024 208.935 17.024H192.139L191.723 15.516H203.527L205.919 12.552ZM230.983 2.36C230.983 2.36 231.261 2.58533 231.815 3.036C232.37 3.452 233.011 3.972 233.739 4.596C234.502 5.18533 235.195 5.77466 235.819 6.364C235.681 6.91866 235.213 7.196 234.415 7.196H216.735V5.688H228.383L230.983 2.36ZM209.299 2.568C209.299 2.568 209.542 2.776 210.027 3.192C210.547 3.608 211.137 4.11066 211.795 4.7C212.454 5.25466 213.061 5.80933 213.615 6.364C213.477 6.91866 213.026 7.196 212.263 7.196H197.547V5.688H206.907L209.299 2.568ZM220.791 8.288C222.386 8.288 223.617 8.47866 224.483 8.86C225.385 9.20666 226.009 9.64 226.355 10.16C226.737 10.6453 226.893 11.1307 226.823 11.616C226.789 12.1013 226.581 12.5173 226.199 12.864C225.818 13.2107 225.35 13.4187 224.795 13.488C224.275 13.5227 223.703 13.3147 223.079 12.864C222.975 12.1013 222.646 11.3213 222.091 10.524C221.537 9.692 220.947 9.068 220.323 8.652L220.791 8.288ZM222.767 3.036C222.629 3.31333 222.386 3.556 222.039 3.764C221.727 3.93733 221.294 3.98933 220.739 3.92C219.491 6.06933 218.053 8.01066 216.423 9.744C214.794 11.4427 213.095 12.812 211.327 13.852L210.651 13.384C211.761 11.8587 212.818 9.96933 213.823 7.716C214.829 5.46266 215.643 3.10533 216.267 0.643998L222.767 3.036ZM200.511 8.08C202.071 8.01067 203.302 8.132 204.203 8.444C205.139 8.756 205.798 9.15467 206.179 9.64C206.595 10.1253 206.803 10.628 206.803 11.148C206.803 11.668 206.63 12.1187 206.283 12.5C205.971 12.8813 205.555 13.124 205.035 13.228C204.515 13.332 203.943 13.2107 203.319 12.864C203.111 12.032 202.678 11.2173 202.019 10.42C201.395 9.588 200.737 8.94667 200.043 8.496L200.511 8.08ZM203.007 2.984C202.903 3.296 202.678 3.53867 202.331 3.712C201.985 3.88533 201.534 3.95467 200.979 3.92C199.419 6.48533 197.599 8.68667 195.519 10.524C193.439 12.3613 191.307 13.8173 189.123 14.892L188.551 14.32C190.077 12.7947 191.55 10.8187 192.971 8.392C194.427 5.96533 195.606 3.38266 196.507 0.643998L203.007 2.984ZM314.596 12.916C314.214 13.1587 313.746 13.0547 313.192 12.604C312.498 12.708 311.545 12.8293 310.332 12.968C309.153 13.1067 307.87 13.228 306.484 13.332C305.097 13.436 303.78 13.5227 302.532 13.592L302.324 12.864C303.398 12.5173 304.56 12.1013 305.808 11.616C307.09 11.1307 308.304 10.628 309.448 10.108C310.592 9.588 311.493 9.172 312.152 8.86L314.596 12.916ZM280.9 15.984C281.662 15.9147 282.72 15.8107 284.072 15.672C285.424 15.4987 286.932 15.308 288.596 15.1C290.26 14.892 291.958 14.684 293.692 14.476L293.796 15.256C292.686 15.7067 291.3 16.2613 289.636 16.92C288.006 17.5787 286.082 18.2893 283.864 19.052C283.621 19.7107 283.222 20.092 282.668 20.196L280.9 15.984ZM281.94 10.524C284.366 10.212 286.36 10.16 287.92 10.368C289.48 10.5413 290.676 10.8533 291.508 11.304C292.374 11.7547 292.912 12.24 293.12 12.76C293.328 13.2453 293.293 13.6613 293.016 14.008C292.738 14.3547 292.288 14.528 291.664 14.528C290.901 14.1467 289.948 13.7653 288.804 13.384C287.66 12.968 286.464 12.5867 285.216 12.24C283.968 11.8933 282.789 11.6333 281.68 11.46L281.94 10.524ZM302.428 14.528C305.062 14.3893 307.212 14.476 308.876 14.788C310.574 15.1 311.857 15.5333 312.724 16.088C313.625 16.608 314.18 17.1453 314.388 17.7C314.596 18.22 314.544 18.6533 314.232 19C313.92 19.3467 313.417 19.5027 312.724 19.468C311.961 19.0173 310.956 18.532 309.708 18.012C308.494 17.492 307.212 17.0067 305.86 16.556C304.542 16.0707 303.312 15.6893 302.168 15.412L302.428 14.528ZM318.964 7.82V9.328H278.924V7.82H318.964ZM300.66 18.428C300.66 18.5667 300.296 18.792 299.568 19.104C298.84 19.3813 297.852 19.52 296.604 19.52H295.772V3.66H300.66V18.428ZM311.944 0.643998C311.944 0.643998 312.204 0.851998 312.724 1.268C313.244 1.64933 313.868 2.13466 314.596 2.724C315.324 3.27866 315.982 3.816 316.572 4.336C316.433 4.89066 315.965 5.168 315.168 5.168H281.16L280.744 3.66H309.448L311.944 0.643998ZM315.792 7.82L318.392 5.168L323.02 9.64C322.846 9.848 322.604 9.98666 322.292 10.056C321.98 10.0907 321.564 10.1427 321.044 10.212C320.385 10.9747 319.518 11.8413 318.444 12.812C317.369 13.7827 316.346 14.58 315.376 15.204L314.804 14.84C315.012 14.216 315.202 13.4707 315.376 12.604C315.584 11.7027 315.774 10.836 315.948 10.004C316.121 9.13733 316.26 8.40933 316.364 7.82H315.792ZM279.08 5.324C279.912 7.05733 280.345 8.61733 280.38 10.004C280.449 11.3907 280.276 12.552 279.86 13.488C279.444 14.424 278.889 15.1173 278.196 15.568C277.502 15.984 276.757 16.1227 275.96 15.984C275.162 15.8107 274.608 15.36 274.296 14.632C274.088 13.904 274.174 13.2627 274.556 12.708C274.937 12.1187 275.44 11.668 276.064 11.356C276.826 10.8707 277.433 10.0733 277.884 8.964C278.369 7.82 278.49 6.624 278.248 5.376L279.08 5.324ZM313.192 35.744C313.088 36.056 312.862 36.2987 312.516 36.472C312.204 36.6453 311.77 36.7147 311.216 36.68C310.21 38.864 308.945 40.7187 307.42 42.244C305.894 43.7347 304.23 44.9133 302.428 45.78L301.804 45.208C303.086 43.9253 304.23 42.3133 305.236 40.372C306.241 38.4307 307.021 36.2813 307.576 33.924L313.192 35.744ZM308.824 38.396C310.938 38.708 312.55 39.1933 313.66 39.852C314.769 40.476 315.497 41.152 315.844 41.88C316.19 42.5733 316.26 43.2147 316.052 43.804C315.878 44.3933 315.497 44.792 314.908 45C314.353 45.1733 313.712 45.0173 312.984 44.532C312.776 43.8387 312.412 43.1453 311.892 42.452C311.406 41.7587 310.852 41.1 310.228 40.476C309.604 39.8173 308.98 39.28 308.356 38.864L308.824 38.396ZM290.728 35.952C290.589 36.264 290.364 36.5067 290.052 36.68C289.74 36.8533 289.306 36.9053 288.752 36.836C287.608 39.1933 286.169 41.1173 284.436 42.608C282.702 44.064 280.813 45.1907 278.768 45.988L278.144 45.364C279.738 44.1507 281.16 42.5733 282.408 40.632C283.656 38.656 284.592 36.42 285.216 33.924L290.728 35.952ZM300.66 32.936V47.444H295.928V32.936H300.66ZM309.812 29.712C309.812 29.816 309.656 29.9547 309.344 30.128C309.032 30.3013 308.633 30.4573 308.148 30.596C307.697 30.7347 307.229 30.804 306.744 30.804H306.172V20.768V19.104L310.072 20.768H315.948V22.276H309.812V29.712ZM313.608 20.768L315.428 18.792L319.484 21.86C319.345 21.9987 319.12 22.1547 318.808 22.328C318.496 22.5013 318.132 22.6227 317.716 22.692V29.088C317.716 29.192 317.542 29.3307 317.196 29.504C316.849 29.6773 316.433 29.8333 315.948 29.972C315.497 30.1107 315.064 30.18 314.648 30.18H314.024V20.768H313.608ZM315.584 27.424V28.932H307.94V27.424H315.584ZM295.824 29.712C295.824 29.816 295.668 29.9547 295.356 30.128C295.078 30.3013 294.697 30.4573 294.212 30.596C293.761 30.7347 293.276 30.804 292.756 30.804H292.236V20.768V19.156L296.084 20.768H301.804V22.276H295.824V29.712ZM300.036 20.768L301.804 18.896L305.704 21.86C305.565 21.9987 305.357 22.1373 305.08 22.276C304.802 22.4147 304.456 22.5187 304.04 22.588V29.192C304.04 29.296 303.866 29.4347 303.52 29.608C303.173 29.7813 302.757 29.9547 302.272 30.128C301.821 30.2667 301.405 30.336 301.024 30.336H300.452V20.768H300.036ZM301.752 27.424V28.932H293.796V27.424H301.752ZM281.992 30.024C281.992 30.128 281.836 30.2667 281.524 30.44C281.246 30.6133 280.865 30.7867 280.38 30.96C279.894 31.0987 279.409 31.168 278.924 31.168H278.404V20.768V19.156L282.2 20.768H288.232V22.276H281.992V30.024ZM286.152 20.768L287.972 18.896L291.82 21.86C291.508 22.2413 290.97 22.484 290.208 22.588V29.296C290.208 29.4 290.017 29.5387 289.636 29.712C289.289 29.8853 288.89 30.0587 288.44 30.232C287.989 30.3707 287.573 30.44 287.192 30.44H286.568V20.768H286.152ZM288.232 27.424V28.932H280.276V27.424H288.232ZM286.62 38.344C288.457 38.6213 289.913 39.02 290.988 39.54C292.062 40.06 292.842 40.6493 293.328 41.308C293.848 41.932 294.125 42.5387 294.16 43.128C294.194 43.6827 294.056 44.168 293.744 44.584C293.466 44.9653 293.05 45.1907 292.496 45.26C291.976 45.364 291.404 45.208 290.78 44.792C290.606 44.0987 290.26 43.3707 289.74 42.608C289.254 41.8453 288.682 41.1347 288.024 40.476C287.365 39.7827 286.741 39.2107 286.152 38.76L286.62 38.344ZM314.284 29.296C314.284 29.296 314.544 29.4867 315.064 29.868C315.584 30.2493 316.208 30.7173 316.936 31.272C317.698 31.792 318.374 32.312 318.964 32.832C318.86 33.3867 318.409 33.664 317.612 33.664H278.924L278.508 32.156H311.788L314.284 29.296ZM317.508 43.336C317.508 43.336 317.75 43.544 318.236 43.96C318.756 44.376 319.362 44.8787 320.056 45.468C320.784 46.0573 321.425 46.6293 321.98 47.184C321.841 47.7387 321.39 48.016 320.628 48.016H276.272L275.804 46.508H315.064L317.508 43.336ZM349.592 20.82C349.488 21.1667 349.193 21.4613 348.708 21.704C348.257 21.9467 347.564 21.964 346.628 21.756L348.136 21.236C347.442 22.7613 346.576 24.4253 345.536 26.228C344.53 28.0307 343.438 29.7813 342.26 31.48C341.116 33.1787 340.006 34.6347 338.932 35.848L338.88 35.224H341.688C341.549 36.7147 341.254 37.9453 340.804 38.916C340.388 39.8867 339.85 40.5107 339.192 40.788L336.592 34.548C336.592 34.548 336.8 34.496 337.216 34.392C337.666 34.2533 337.978 34.0973 338.152 33.924C338.637 33.196 339.122 32.2253 339.608 31.012C340.093 29.764 340.561 28.412 341.012 26.956C341.462 25.4653 341.844 24.0267 342.156 22.64C342.502 21.2533 342.762 20.04 342.936 19L349.592 20.82ZM337.372 34.704C338.308 34.5653 339.608 34.3747 341.272 34.132C342.936 33.8547 344.808 33.5427 346.888 33.196C348.968 32.8147 351.1 32.4333 353.284 32.052L353.44 32.676C352.538 33.1613 351.377 33.7853 349.956 34.548C348.569 35.3107 347.009 36.1427 345.276 37.044C343.542 37.9107 341.688 38.812 339.712 39.748L337.372 34.704ZM348.5 25.448C350.545 26.6613 352.14 27.9267 353.284 29.244C354.428 30.5267 355.225 31.7747 355.676 32.988C356.161 34.2013 356.369 35.2933 356.3 36.264C356.23 37.2347 355.97 37.9973 355.52 38.552C355.069 39.072 354.514 39.3493 353.856 39.384C353.197 39.384 352.521 39.0547 351.828 38.396C351.793 37.0093 351.585 35.5707 351.204 34.08C350.822 32.5547 350.32 31.064 349.696 29.608C349.106 28.152 348.5 26.852 347.876 25.708L348.5 25.448ZM350.684 14.736C350.684 14.736 350.961 14.9613 351.516 15.412C352.07 15.828 352.729 16.3653 353.492 17.024C354.254 17.648 354.948 18.2373 355.572 18.792C355.433 19.3467 354.965 19.624 354.168 19.624H337.216L336.8 18.116H348.032L350.684 14.736ZM349.332 3.816C349.332 3.816 349.609 4.04133 350.164 4.492C350.718 4.908 351.377 5.428 352.14 6.052C352.902 6.676 353.578 7.28267 354.168 7.872C354.029 8.42667 353.561 8.704 352.764 8.704H338.308L337.892 7.196H346.68L349.332 3.816ZM372.784 26.436C372.784 26.748 372.784 27.06 372.784 27.372C372.784 27.6493 372.784 27.892 372.784 28.1V43.232C372.784 43.5787 372.853 43.8213 372.992 43.96C373.165 44.0987 373.598 44.168 374.292 44.168H377.724C378.452 44.168 379.093 44.168 379.648 44.168C380.202 44.1333 380.601 44.116 380.844 44.116C381.086 44.0813 381.277 44.0467 381.416 44.012C381.589 43.9427 381.728 43.8213 381.832 43.648C382.04 43.3707 382.265 42.7813 382.508 41.88C382.785 40.9787 383.062 40.0253 383.34 39.02H383.964L384.12 43.752C384.709 43.96 385.108 44.2027 385.316 44.48C385.524 44.7227 385.628 45.052 385.628 45.468C385.628 46.0227 385.402 46.4733 384.952 46.82C384.501 47.2013 383.686 47.4787 382.508 47.652C381.364 47.8253 379.682 47.912 377.464 47.912H373.304C372.056 47.912 371.102 47.7907 370.444 47.548C369.785 47.3053 369.334 46.9067 369.092 46.352C368.884 45.832 368.78 45.1213 368.78 44.22V26.436H372.784ZM370.236 8.6V26.488H365.816V8.6H370.236ZM380.688 31.376C380.549 31.6533 380.254 31.896 379.804 32.104C379.353 32.312 378.677 32.26 377.776 31.948L379.284 31.636C378.902 32.364 378.417 33.1787 377.828 34.08C377.273 34.9813 376.701 35.8653 376.112 36.732C375.522 37.564 374.968 38.2747 374.448 38.864L374.396 38.24H376.216C376.112 39.2453 375.886 40.0427 375.54 40.632C375.228 41.2213 374.881 41.5853 374.5 41.724L372.628 37.616C372.628 37.616 372.749 37.5813 372.992 37.512C373.269 37.408 373.46 37.3213 373.564 37.252C373.876 36.732 374.17 35.9693 374.448 34.964C374.725 33.9587 374.968 32.9187 375.176 31.844C375.384 30.7347 375.505 29.8333 375.54 29.14L380.688 31.376ZM373.304 37.772C374.205 37.772 375.384 37.7027 376.84 37.564C378.33 37.3907 379.821 37.1827 381.312 36.94L381.416 37.72C381.069 37.9627 380.532 38.292 379.804 38.708C379.076 39.0893 378.261 39.5053 377.36 39.956C376.493 40.4067 375.626 40.8227 374.76 41.204L373.304 37.772ZM366.492 28.516C366.492 29.5907 366.388 30.8213 366.18 32.208C366.006 33.5947 365.66 35.0507 365.14 36.576C364.62 38.1013 363.822 39.644 362.748 41.204C361.673 42.7293 360.234 44.1853 358.432 45.572C356.664 46.9933 354.428 48.276 351.724 49.42L351.256 48.744C353.613 47.1147 355.502 45.416 356.924 43.648C358.38 41.8453 359.472 40.0427 360.2 38.24C360.928 36.4373 361.413 34.7213 361.656 33.092C361.933 31.428 362.072 29.9027 362.072 28.516V26.28H366.492V28.516ZM372.316 2.776C372.038 3.53867 371.328 3.92 370.184 3.92C369.49 4.57867 368.624 5.35866 367.584 6.26C366.578 7.12666 365.694 7.88933 364.932 8.548H363.372C363.545 7.924 363.718 7.16133 363.892 6.26C364.1 5.35866 364.308 4.44 364.516 3.504C364.724 2.568 364.88 1.736 364.984 1.008L372.316 2.776ZM378.92 33.664C380.376 34.4267 381.433 35.224 382.092 36.056C382.75 36.888 383.114 37.668 383.184 38.396C383.288 39.124 383.184 39.7307 382.872 40.216C382.594 40.6667 382.196 40.9267 381.676 40.996C381.19 41.0307 380.67 40.8053 380.116 40.32C380.185 39.2453 380.012 38.1187 379.596 36.94C379.214 35.7613 378.781 34.7733 378.296 33.976L378.92 33.664ZM378.608 25.708V27.216H358.224V25.708H378.608ZM378.764 16.712V18.22H358.432V16.712H378.764ZM355.728 5.844L360.824 7.924H375.852L378.088 5.272L382.768 8.808C382.594 9.05067 382.352 9.24133 382.04 9.38C381.728 9.51866 381.294 9.64 380.74 9.744V28.256C380.74 28.3947 380.376 28.6373 379.648 28.984C378.92 29.296 377.966 29.452 376.788 29.452H376.06V9.432H360.252V28.776C360.252 28.9493 359.905 29.192 359.212 29.504C358.553 29.816 357.652 29.972 356.508 29.972H355.728V7.924V5.844ZM431.492 17.752C431.492 18.4107 431.561 18.8093 431.7 18.948C431.873 19.052 432.341 19.104 433.104 19.104H439.864C440.106 19.104 440.349 19.104 440.592 19.104C440.869 19.104 441.094 19.104 441.268 19.104C441.441 19.104 441.649 19.104 441.892 19.104C442.169 19.0693 442.464 19.0173 442.776 18.948H443.192L443.504 19C444.301 19.2773 444.821 19.52 445.064 19.728C445.306 19.9013 445.428 20.1613 445.428 20.508C445.428 21.0973 445.272 21.5827 444.96 21.964C444.648 22.3453 444.058 22.6227 443.192 22.796C442.325 22.9347 441.077 23.004 439.448 23.004H432.428C431.11 23.004 430.053 22.952 429.256 22.848C428.493 22.744 427.921 22.5187 427.54 22.172C427.158 21.8253 426.916 21.3053 426.812 20.612C426.708 19.884 426.656 18.9307 426.656 17.752V9.328H431.492V17.752ZM420.468 14.58C419.289 16.4867 417.885 18.22 416.256 19.78C414.626 21.3053 412.633 22.6053 410.276 23.68C407.918 24.7547 405.093 25.5693 401.8 26.124L401.436 25.396C404.417 24.1827 406.878 22.796 408.82 21.236C410.796 19.676 412.373 17.9947 413.552 16.192C414.73 14.3547 415.614 12.4133 416.204 10.368L422.756 13.592C422.652 13.904 422.426 14.1467 422.08 14.32C421.768 14.4933 421.23 14.58 420.468 14.58ZM418.752 0.799999C420.832 1.14667 422.444 1.64933 423.588 2.308C424.766 2.932 425.564 3.62533 425.98 4.388C426.43 5.15066 426.586 5.87866 426.448 6.572C426.309 7.26533 425.98 7.85466 425.46 8.34C424.94 8.79066 424.298 9.016 423.536 9.016C422.773 9.016 421.993 8.704 421.196 8.08C421.161 6.832 420.849 5.584 420.26 4.336C419.67 3.05333 419.012 1.97866 418.284 1.112L418.752 0.799999ZM443.556 8.652V10.16H405.44V8.652H443.556ZM425.616 28.88V45.988H420.52V28.88H425.616ZM439.396 8.652L442.308 5.74L447.404 10.576C447.092 10.9227 446.416 11.1307 445.376 11.2C444.578 12.1013 443.538 13.1067 442.256 14.216C440.973 15.2907 439.76 16.192 438.616 16.92L438.096 16.556C438.338 15.7933 438.581 14.944 438.824 14.008C439.066 13.0373 439.292 12.084 439.5 11.148C439.708 10.1773 439.864 9.34533 439.968 8.652H439.396ZM406.064 5.688C406.965 7.80266 407.416 9.692 407.416 11.356C407.45 12.9853 407.19 14.3547 406.636 15.464C406.081 16.5733 405.405 17.388 404.608 17.908C403.81 18.428 402.944 18.6187 402.008 18.48C401.106 18.3413 400.5 17.856 400.188 17.024C399.91 16.2267 399.962 15.516 400.344 14.892C400.76 14.268 401.314 13.7653 402.008 13.384C402.978 12.7947 403.81 11.7893 404.504 10.368C405.232 8.94667 405.492 7.404 405.284 5.74L406.064 5.688ZM436.276 25.084C436.276 25.084 436.432 25.2227 436.744 25.5C437.09 25.7773 437.524 26.1413 438.044 26.592C438.598 27.008 439.153 27.476 439.708 27.996C440.297 28.4813 440.834 28.9493 441.32 29.4C441.216 29.9547 440.748 30.232 439.916 30.232H407L406.584 28.724H433.468L436.276 25.084ZM441.58 41.204C441.58 41.204 441.753 41.36 442.1 41.672C442.481 41.9493 442.949 42.3307 443.504 42.816C444.093 43.2667 444.7 43.752 445.324 44.272C445.948 44.792 446.502 45.312 446.988 45.832C446.849 46.3867 446.381 46.664 445.584 46.664H401.176L400.76 45.156H438.616L441.58 41.204ZM475.64 25.344V23.316L480.424 25.344H492.852V26.852H480.216V43.336C480.216 43.4747 480.025 43.6653 479.644 43.908C479.262 44.1507 478.777 44.376 478.188 44.584C477.598 44.7573 476.974 44.844 476.316 44.844H475.64V25.344ZM477.876 39.8H492.852V41.308H477.876V39.8ZM477.876 32.416H492.852V33.924H477.876V32.416ZM490.668 25.344H490.2L492.488 22.9L497.272 26.54C497.133 26.7133 496.89 26.904 496.544 27.112C496.232 27.2853 495.833 27.4067 495.348 27.476V42.764C495.348 42.9027 495.122 43.0933 494.672 43.336C494.221 43.544 493.701 43.752 493.112 43.96C492.557 44.1333 492.002 44.22 491.448 44.22H490.668V25.344ZM464.356 4.856V2.568L469.452 4.856H480.112V6.312H469.192V47.496C469.192 47.704 469.001 47.9467 468.62 48.224C468.273 48.536 467.805 48.796 467.216 49.004C466.626 49.2467 465.95 49.368 465.188 49.368H464.356V4.856ZM487.86 4.856V2.776L492.748 4.856H503.98V6.312H492.488V20.404C492.488 20.5427 492.297 20.7333 491.916 20.976C491.534 21.2187 491.032 21.444 490.408 21.652C489.784 21.8253 489.142 21.912 488.484 21.912H487.86V4.856ZM501.952 4.856H501.432L503.772 2.048L509.076 6.104C508.902 6.312 508.625 6.52 508.244 6.728C507.862 6.936 507.394 7.07467 506.84 7.144V43.128C506.84 44.3067 506.701 45.3293 506.424 46.196C506.146 47.0627 505.54 47.756 504.604 48.276C503.702 48.796 502.246 49.16 500.236 49.368C500.201 48.536 500.097 47.8253 499.924 47.236C499.785 46.6467 499.542 46.1613 499.196 45.78C498.814 45.3987 498.312 45.0693 497.688 44.792C497.098 44.5147 496.232 44.272 495.088 44.064V43.284C495.088 43.284 495.33 43.3187 495.816 43.388C496.301 43.4227 496.873 43.4573 497.532 43.492C498.225 43.5267 498.884 43.5613 499.508 43.596C500.132 43.6307 500.582 43.648 500.86 43.648C501.276 43.648 501.553 43.5613 501.692 43.388C501.865 43.2147 501.952 42.9373 501.952 42.556V4.856ZM478.292 4.856H477.824L480.06 2.412L484.844 6C484.705 6.17333 484.462 6.364 484.116 6.572C483.769 6.78 483.37 6.91867 482.92 6.988V20.716C482.92 20.82 482.694 20.9933 482.244 21.236C481.793 21.444 481.273 21.6347 480.684 21.808C480.094 21.9467 479.557 22.016 479.072 22.016H478.292V4.856ZM466.696 11.252H479.852V12.76H466.696V11.252ZM466.696 17.856H479.852V19.364H466.696V17.856ZM490.668 11.252H504.084V12.76H490.668V11.252ZM490.668 17.856H504.084V19.364H490.668V17.856Z" fill="#6E4D3B"/>
</svg>
