<svg width="349" height="40" viewBox="0 0 349 40" fill="none" xmlns="http://www.w3.org/2000/svg">
<g clip-path="url(#clip0_147_755)">
<g opacity="0.85">
<path d="M0.00017419 3.61226C0.00017419 3.06397 0.111265 2.56585 0.340615 2.1179C0.566381 1.67354 0.867402 1.29367 1.24726 0.981903C1.62712 0.670131 2.06074 0.43003 2.5481 0.258018C3.03547 0.0860061 3.54434 0 4.06754 0C4.83802 0 5.64791 0.182763 6.50438 0.548289C6.95592 0.756137 7.31069 0.860061 7.56871 0.860061C7.86256 0.860061 8.11341 0.763304 8.32126 0.566207L8.3571 0.530371V3.13206C8.29618 2.96004 8.23167 2.80595 8.16358 2.66619C8.0955 2.52643 8.02741 2.38667 7.95215 2.25408C7.75506 1.92439 7.51496 1.63053 7.22827 1.3761C6.94158 1.11808 6.62623 0.89948 6.28579 0.716717C5.94534 0.533955 5.5834 0.394195 5.20354 0.293854C4.82368 0.197097 4.44741 0.146927 4.06754 0.146927C3.68768 0.146927 3.31141 0.207848 2.93871 0.32969C2.56602 0.451532 2.23633 0.630711 1.94965 0.860061C1.66296 1.09299 1.43003 1.3761 1.25443 1.71295C1.07883 2.04981 0.989244 2.42609 0.989244 2.8382C0.989244 3.40082 1.18276 3.91328 1.57695 4.37914C2.05357 4.96685 3.19673 5.74807 5.00286 6.72639C5.71241 7.10625 6.30729 7.43953 6.79107 7.72621C7.27486 8.0129 7.64396 8.253 7.8984 8.4501C8.32485 8.80487 8.67604 9.22774 8.95197 9.72227C9.22791 10.2168 9.36409 10.7579 9.36409 11.3456C9.36409 12.3705 8.95556 13.27 8.13492 14.0405C7.31786 14.811 6.25353 15.1944 4.94552 15.1944C4.45816 15.1944 4.02096 15.1442 3.63393 15.0475C3.25049 14.9507 2.82404 14.8289 2.36176 14.682C1.86006 14.5099 1.50528 14.406 1.29743 14.3702C1.08958 14.3343 0.942657 14.3164 0.856651 14.3164C0.673889 14.3164 0.526961 14.3451 0.41587 14.406C0.304779 14.4669 0.215189 14.5279 0.139934 14.5888V11.9692C0.211606 12.177 0.286861 12.367 0.358533 12.5354C0.430205 12.7074 0.512627 12.8579 0.59505 12.9941C0.792147 13.3238 1.04658 13.614 1.36552 13.8649C1.68446 14.1157 2.03565 14.3308 2.4191 14.5064C2.80254 14.6855 3.20032 14.8181 3.60885 14.9113C4.01737 15.0009 4.4044 15.0475 4.77351 15.0475C5.19996 15.0475 5.61924 14.9866 6.02777 14.8647C6.4363 14.7429 6.80182 14.5637 7.11718 14.3236C7.43612 14.0835 7.68697 13.7896 7.8769 13.4349C8.06683 13.0801 8.16 12.6644 8.16 12.1878C8.16 11.6861 8.01666 11.2166 7.72997 10.7758C7.44328 10.3351 7.10284 9.96954 6.71223 9.67568C6.55455 9.53951 6.27145 9.35316 5.87009 9.11665C5.46873 8.87655 4.93477 8.56836 4.27539 8.19208C3.61601 7.83731 3.06056 7.51478 2.60903 7.22093C2.15749 6.92707 1.79555 6.67622 1.52678 6.46837C1.05017 6.1136 0.673888 5.70507 0.397952 5.2392C0.122016 4.77692 -0.0141602 4.23222 -0.0141602 3.60867L0.00017419 3.61226Z" fill="white"/>
<path d="M13.5425 14.8253C13.8005 14.6533 13.9833 14.4275 14.0908 14.148C14.1159 14.0512 14.1481 13.89 14.1911 13.6714C14.2341 13.4528 14.2556 13.0729 14.2556 12.5354V2.58374C14.2556 2.22897 14.2449 1.93153 14.2198 1.69501C14.1947 1.45491 14.1624 1.25782 14.1194 1.10014C14.0764 0.942462 14.0298 0.82062 13.9833 0.734614C13.9331 0.648608 13.8901 0.580519 13.8543 0.533933C13.8184 0.508848 13.7826 0.476595 13.7432 0.433592C13.7073 0.390589 13.6715 0.358337 13.6321 0.333252H23.0533L23.125 1.68785C23.0999 1.62693 23.0748 1.57676 23.0533 1.53375C23.0282 1.49075 23.0031 1.45133 22.9816 1.4155C22.824 1.15748 22.6591 0.967547 22.4871 0.838538C22.3151 0.709529 22.1323 0.623522 21.9388 0.573352C21.7417 0.523182 21.5375 0.498097 21.326 0.498097H15.5995V7.17074H19.7887C19.9786 7.17074 20.1685 7.15998 20.3585 7.1349C20.5484 7.10981 20.7312 7.06681 20.9068 7.00589C21.0823 6.94497 21.24 6.8518 21.3726 6.72995C21.4694 6.6547 21.5482 6.57586 21.6091 6.48985C21.6701 6.40385 21.731 6.31426 21.7919 6.21392V8.26731C21.6091 7.92687 21.3332 7.67602 20.9677 7.51476C20.6738 7.36783 20.3979 7.29616 20.1327 7.30333C19.8711 7.31049 19.5737 7.31408 19.244 7.31408H15.5959V14.664H21.0035C21.3583 14.664 21.6629 14.6318 21.9209 14.5637C22.1789 14.4956 22.4083 14.3952 22.6161 14.2627C22.824 14.1265 23.0211 13.9616 23.2038 13.7681C23.3866 13.5746 23.5765 13.3453 23.7736 13.0908L23.1501 14.8324H13.5461L13.5425 14.8253Z" fill="white"/>
<path d="M29.4679 0.329755L39.4195 12.5355V2.58383C39.4195 2.03554 39.3872 1.60193 39.3192 1.28299C39.2511 0.96405 39.1436 0.720366 38.9966 0.548354C38.9608 0.512518 38.9214 0.476683 38.8784 0.437263C38.8354 0.401427 38.796 0.365591 38.7601 0.326172H40.3011C40.2294 0.376342 40.1613 0.433679 40.1004 0.501768C40.0395 0.569856 39.9785 0.637944 39.9176 0.713199C39.8209 0.870877 39.742 1.10023 39.6883 1.40125C39.6345 1.70227 39.6058 2.09646 39.6058 2.58383V14.8433L29.1203 2.03554V12.5928C29.1203 13.6428 29.2493 14.3165 29.5037 14.6104C29.5539 14.6462 29.5969 14.6856 29.6327 14.7286C29.6686 14.7716 29.7187 14.8039 29.7796 14.8289H28.2387C28.3104 14.768 28.3785 14.7107 28.4394 14.6534C28.5003 14.5996 28.5541 14.5351 28.6042 14.4598C28.8121 14.166 28.916 13.5424 28.916 12.5892V1.79544L28.8228 1.68435C28.3713 1.14681 28.0094 0.784871 27.7406 0.602108C27.6187 0.491017 27.4718 0.401427 27.2998 0.326172H29.4607L29.4679 0.329755Z" fill="white"/>
<path d="M44.5871 3.61226C44.5871 3.06397 44.6982 2.56585 44.9275 2.1179C45.1533 1.67354 45.4543 1.29367 45.8342 0.981903C46.214 0.670131 46.6477 0.43003 47.135 0.258018C47.6224 0.0860061 48.1313 0 48.6545 0C49.4249 0 50.2348 0.182763 51.0913 0.548289C51.5428 0.756137 51.8976 0.860061 52.1556 0.860061C52.4495 0.860061 52.7003 0.763304 52.9082 0.566207L52.944 0.530371V3.13206C52.8831 2.96004 52.8186 2.80595 52.7505 2.66619C52.6824 2.52643 52.6143 2.38667 52.5391 2.25408C52.342 1.92439 52.1019 1.63053 51.8152 1.3761C51.5285 1.11808 51.2131 0.89948 50.8727 0.716717C50.5323 0.533955 50.1703 0.394195 49.7905 0.293854C49.4106 0.197097 49.0343 0.146927 48.6545 0.146927C48.2746 0.146927 47.8983 0.207848 47.5256 0.32969C47.1529 0.451532 46.8232 0.630711 46.5366 0.860061C46.2499 1.09299 46.0169 1.3761 45.8413 1.71295C45.6657 2.04981 45.5762 2.42609 45.5762 2.8382C45.5762 3.40082 45.7697 3.91328 46.1639 4.37914C46.6405 4.96685 47.7837 5.74807 49.5898 6.72639C50.2993 7.10625 50.8942 7.43953 51.378 7.72621C51.8618 8.0129 52.2309 8.253 52.4853 8.4501C52.9118 8.80487 53.2629 9.22774 53.5389 9.72227C53.8148 10.2168 53.951 10.7579 53.951 11.3456C53.951 12.3705 53.5425 13.27 52.7218 14.0405C51.9048 14.811 50.8404 15.1944 49.5324 15.1944C49.0451 15.1944 48.6079 15.1442 48.2208 15.0475C47.8374 14.9507 47.411 14.8289 46.9487 14.682C46.447 14.5099 46.0922 14.406 45.8843 14.3702C45.6765 14.3343 45.5296 14.3164 45.4436 14.3164C45.2608 14.3164 45.1139 14.3451 45.0028 14.406C44.8917 14.4669 44.8021 14.5279 44.7268 14.5888V11.9692C44.7985 12.177 44.8738 12.367 44.9454 12.5354C45.0171 12.7074 45.0995 12.8579 45.182 12.9941C45.3791 13.3238 45.6335 13.614 45.9524 13.8649C46.2714 14.1157 46.6226 14.3308 47.006 14.5064C47.3895 14.6855 47.7872 14.8181 48.1958 14.9113C48.6043 15.0009 48.9913 15.0475 49.3604 15.0475C49.7869 15.0475 50.2062 14.9866 50.6147 14.8647C51.0232 14.7429 51.3887 14.5637 51.7041 14.3236C52.023 14.0835 52.2739 13.7896 52.4638 13.4349C52.6537 13.0801 52.7469 12.6644 52.7469 12.1878C52.7469 11.6861 52.6036 11.2166 52.3169 10.7758C52.0302 10.3351 51.6898 9.96954 51.2991 9.67568C51.1415 9.53951 50.8584 9.35316 50.457 9.11665C50.0556 8.87655 49.5217 8.56836 48.8623 8.19208C48.2029 7.83731 47.6475 7.51478 47.1959 7.22093C46.7444 6.92707 46.3825 6.67622 46.1137 6.46837C45.6371 6.1136 45.2608 5.70507 44.9849 5.2392C44.7089 4.77692 44.5728 4.23222 44.5728 3.60867L44.5871 3.61226Z" fill="white"/>
<path d="M57.2158 14.8253C57.3735 14.7501 57.5348 14.6103 57.6924 14.3953C57.8501 14.1803 58.0042 13.9474 58.1511 13.6893C58.2981 13.4313 58.4307 13.1805 58.5453 12.9296C58.66 12.6788 58.7496 12.4817 58.8105 12.3348L64.0139 0.146973L69.1635 12.4638C69.3964 13.012 69.615 13.4636 69.8229 13.8112C70.0307 14.1588 70.2386 14.424 70.4464 14.6067C70.4966 14.6426 70.5432 14.682 70.5934 14.725C70.6435 14.768 70.6973 14.8003 70.7582 14.8253H67.6046C67.7766 14.7035 67.8985 14.5602 67.9702 14.3953C68.0418 14.2305 68.0813 14.0549 68.0813 13.8721C68.0813 13.6893 68.0454 13.4528 67.9702 13.1661C67.8985 12.8795 67.7731 12.539 67.6046 12.1484L66.5976 9.78324H60.0934L58.9754 12.3491C58.8392 12.6931 58.7388 12.9834 58.6743 13.2306C58.6062 13.4743 58.574 13.6822 58.574 13.8542C58.574 13.976 58.6027 14.1194 58.6564 14.2842C58.7102 14.4491 58.8428 14.6175 59.0506 14.7895L59.1223 14.8253H57.2158ZM60.1472 9.63989H66.5797L63.4083 2.07136L60.1472 9.63989Z" fill="white"/>
<path d="M71.8764 0.32959H83.6054L83.6592 1.87053C83.5123 1.60176 83.3403 1.37958 83.1467 1.2004C82.9496 1.02481 82.7382 0.881462 82.5053 0.777538C82.2723 0.673614 82.0215 0.601942 81.7527 0.558939C81.484 0.515936 81.208 0.494435 80.9285 0.494435H78.3627V12.589C78.3627 13.639 78.5024 14.3127 78.7855 14.6066C78.8572 14.7034 78.9432 14.7786 79.0435 14.8252H76.3308C76.4777 14.7141 76.5924 14.5923 76.6784 14.4597C76.9113 14.1551 77.026 13.5315 77.026 12.589V0.494435H74.7719C74.4673 0.494435 74.1806 0.505186 73.9118 0.523104C73.6431 0.541021 73.3922 0.591192 73.1593 0.670031C72.9263 0.74887 72.7078 0.867128 72.4999 1.01764C72.2921 1.17173 72.0985 1.37958 71.9122 1.64835C71.8871 1.67343 71.8692 1.7021 71.8584 1.73077C71.8477 1.75944 71.8298 1.78811 71.8047 1.81319L71.8764 0.32959Z" fill="white"/>
<path d="M90.1813 0.32959C90.1203 0.37976 90.0594 0.42993 89.9985 0.483684C89.9376 0.537438 89.8874 0.598359 89.8516 0.65928C89.5935 0.963885 89.4681 1.62326 89.4681 2.63742V12.5138C89.4681 13.0621 89.4896 13.4563 89.5326 13.6964C89.5756 13.9365 89.6079 14.1013 89.633 14.2017C89.7441 14.4597 89.934 14.6675 90.2028 14.8252H87.4183C87.5509 14.7499 87.662 14.6496 87.748 14.5134C87.9917 14.1945 88.1135 13.5315 88.1135 12.5174V2.63742C88.1135 2.08913 88.0956 1.69852 88.0598 1.46559C88.0239 1.23265 87.9881 1.06781 87.9487 0.971052C87.8376 0.713034 87.6548 0.501602 87.4004 0.32959H90.1848H90.1813Z" fill="white"/>
<path d="M94.4707 7.53278C94.4707 5.19986 95.2519 3.31848 96.818 1.88863C97.5024 1.25433 98.2335 0.7813 99.0075 0.469528C99.7816 0.157756 100.649 0.00366211 101.602 0.00366211C102.555 0.00366211 103.433 0.179258 104.279 0.526866C105.125 0.874474 105.892 1.40843 106.587 2.12873C107.956 3.54783 108.64 5.33604 108.64 7.49694C108.64 8.60785 108.468 9.61843 108.128 10.5287C107.787 11.4389 107.268 12.2595 106.569 12.9942C105.884 13.7037 105.103 14.2484 104.222 14.6247C103.34 15.001 102.433 15.1909 101.491 15.1909C100.548 15.1909 99.6382 15.0117 98.7889 14.6498C97.9396 14.2914 97.1799 13.7611 96.5062 13.0658C95.1516 11.6467 94.4707 9.80477 94.4707 7.53278ZM96.2661 7.47902C96.2661 8.34625 96.3413 9.22782 96.4954 10.1273C96.6495 11.0268 96.9183 11.8367 97.3125 12.5641C97.7031 13.2916 98.2371 13.8865 98.9143 14.3523C99.5916 14.8182 100.452 15.0476 101.491 15.0476C102.53 15.0476 103.433 14.8397 104.128 14.424C104.824 14.0083 105.376 13.4636 105.777 12.7827C106.182 12.1054 106.465 11.3314 106.63 10.4642C106.795 9.59692 106.877 8.71178 106.877 7.80513C106.877 5.09236 106.329 3.06046 105.229 1.70228C104.788 1.12891 104.272 0.723963 103.681 0.49103C103.089 0.258097 102.394 0.143422 101.602 0.143422C100.552 0.143422 99.6812 0.358437 98.9896 0.784884C98.298 1.21133 97.7533 1.77037 97.3483 2.462C96.947 3.15364 96.6639 3.93486 96.5062 4.80925C96.3485 5.68365 96.2697 6.57238 96.2697 7.47544L96.2661 7.47902Z" fill="white"/>
<path d="M114.209 0.329755L124.161 12.5355V2.58383C124.161 2.03554 124.128 1.60193 124.06 1.28299C123.992 0.96405 123.885 0.720366 123.738 0.548354C123.702 0.512518 123.662 0.476683 123.619 0.437263C123.576 0.401427 123.537 0.365591 123.501 0.326172H125.042C124.97 0.376342 124.902 0.433679 124.841 0.501768C124.78 0.569856 124.72 0.637944 124.659 0.713199C124.562 0.870877 124.483 1.10023 124.429 1.40125C124.376 1.70227 124.347 2.09646 124.347 2.58383V14.8433L113.865 2.03196V12.5892C113.865 13.6392 113.994 14.3129 114.248 14.6068C114.299 14.6426 114.342 14.682 114.377 14.725C114.413 14.768 114.463 14.8003 114.524 14.8254H112.983C113.055 14.7644 113.123 14.7071 113.184 14.6498C113.245 14.596 113.299 14.5315 113.349 14.4563C113.557 14.1624 113.661 13.5389 113.661 12.5856V1.79544L113.567 1.68435C113.116 1.14681 112.754 0.784871 112.485 0.602108C112.363 0.491017 112.216 0.401427 112.044 0.326172H114.205L114.209 0.329755Z" fill="white"/>
<path d="M128.687 14.8253C128.845 14.7501 129.006 14.6103 129.164 14.3953C129.321 14.1803 129.475 13.9474 129.622 13.6893C129.769 13.4313 129.902 13.1805 130.017 12.9296C130.131 12.6788 130.221 12.4817 130.282 12.3348L135.485 0.146973L140.635 12.4638C140.868 13.012 141.086 13.4636 141.294 13.8112C141.502 14.1588 141.71 14.424 141.918 14.6067C141.968 14.6426 142.014 14.682 142.065 14.725C142.115 14.768 142.168 14.8003 142.229 14.8253H139.076C139.248 14.7035 139.37 14.5602 139.441 14.3953C139.513 14.2305 139.552 14.0549 139.552 13.8721C139.552 13.6893 139.517 13.4528 139.441 13.1661C139.37 12.8795 139.244 12.539 139.076 12.1484L138.069 9.78324H131.565L130.447 12.3491C130.31 12.6931 130.21 12.9834 130.146 13.2306C130.077 13.4743 130.045 13.6822 130.045 13.8542C130.045 13.976 130.074 14.1194 130.128 14.2842C130.181 14.4491 130.314 14.6175 130.522 14.7895L130.593 14.8253H128.687ZM131.618 9.63989H138.051L134.879 2.07136L131.618 9.63989Z" fill="white"/>
<path d="M145.895 14.8252C145.967 14.7643 146.038 14.7034 146.106 14.6424C146.175 14.5815 146.239 14.5027 146.3 14.4023C146.397 14.2303 146.476 14.001 146.529 13.7071C146.583 13.4133 146.612 13.0155 146.612 12.5174V2.63742C146.612 1.58743 146.472 0.895797 146.189 0.566107C146.139 0.530271 146.096 0.490851 146.06 0.447848C146.024 0.404845 145.974 0.365426 145.913 0.32959H148.826C148.558 0.501602 148.343 0.720201 148.185 0.98897C148.16 1.03914 148.131 1.10364 148.103 1.18965C148.07 1.27566 148.049 1.39033 148.031 1.53726C148.013 1.68419 147.999 1.86695 147.984 2.08555C147.974 2.30415 147.966 2.57292 147.966 2.89185V12.5138C147.966 13.1983 148.038 13.6856 148.185 13.9795C148.343 14.2232 148.55 14.4023 148.808 14.5098C148.859 14.5349 148.92 14.5564 148.991 14.5743C149.063 14.5923 149.17 14.6066 149.31 14.6209C149.45 14.6317 149.633 14.6424 149.858 14.6496C150.084 14.6568 150.367 14.6604 150.711 14.6604H151.829C152.453 14.6604 152.976 14.6389 153.406 14.5959C153.833 14.5528 154.18 14.4776 154.453 14.3665C154.574 14.3163 154.718 14.2518 154.883 14.1658C155.048 14.0798 155.205 13.9795 155.359 13.8648C155.513 13.7501 155.657 13.6247 155.789 13.4993C155.922 13.3703 156.022 13.2448 156.083 13.123L155.553 14.8288H145.895V14.8252Z" fill="white"/>
<path d="M168.436 14.8253C168.594 14.7501 168.755 14.6103 168.913 14.3953C169.07 14.1803 169.224 13.9474 169.371 13.6893C169.518 13.4313 169.647 13.1805 169.766 12.9296C169.88 12.6788 169.97 12.4817 170.031 12.3348L175.234 0.146973L180.384 12.4638C180.617 13.012 180.835 13.4636 181.043 13.8112C181.251 14.1588 181.459 14.424 181.667 14.6067C181.717 14.6426 181.763 14.682 181.814 14.725C181.864 14.768 181.917 14.8003 181.978 14.8253H178.825C178.997 14.7035 179.119 14.5602 179.19 14.3953C179.262 14.2305 179.301 14.0549 179.301 13.8721C179.301 13.6893 179.266 13.4528 179.19 13.1661C179.115 12.8795 178.993 12.539 178.825 12.1484L177.818 9.78324H171.314L170.196 12.3491C170.059 12.6931 169.959 12.9834 169.895 13.2306C169.826 13.4743 169.794 13.6822 169.794 13.8542C169.794 13.976 169.823 14.1194 169.877 14.2842C169.93 14.4491 170.063 14.6175 170.271 14.7895L170.343 14.8253H168.436ZM171.367 9.63989H177.8L174.628 2.07136L171.367 9.63989Z" fill="white"/>
<path d="M186.046 14.4059C186.117 14.3092 186.189 14.13 186.257 13.8648C186.325 13.6032 186.357 13.1517 186.357 12.5174V2.63742C186.357 2.08913 186.325 1.64835 186.257 1.31866C186.189 0.98897 186.081 0.738119 185.934 0.566107C185.884 0.530271 185.841 0.490851 185.798 0.447848C185.755 0.404845 185.709 0.365426 185.662 0.32959L189.823 0.347508C190.41 0.347508 191.027 0.397678 191.675 0.494435C192.324 0.591192 192.912 0.770371 193.446 1.02481C193.976 1.28282 194.417 1.6376 194.764 2.0963C195.112 2.555 195.288 3.14987 195.288 3.88451C195.288 4.4113 195.194 4.86999 195.012 5.26061C194.829 5.65122 194.578 5.98807 194.259 6.26759C193.94 6.54711 193.575 6.78005 193.159 6.96281C192.743 7.14557 192.303 7.28533 191.84 7.38567L191.235 7.5326L194.754 12.4242C194.926 12.6571 195.101 12.8901 195.284 13.1302C195.467 13.3703 195.667 13.596 195.879 13.8075C196.094 14.0225 196.32 14.216 196.556 14.3952C196.793 14.5743 197.047 14.7177 197.316 14.8252H195.08L189.93 7.69744C190.432 7.62577 190.898 7.49676 191.331 7.314C191.765 7.13124 192.148 6.88755 192.478 6.57937C192.808 6.27476 193.066 5.90924 193.256 5.48995C193.446 5.06709 193.539 4.58331 193.539 4.03144C193.539 3.47956 193.456 3.00653 193.292 2.56575C193.127 2.12497 192.865 1.74152 192.514 1.41183C192.306 1.19323 192.105 1.02122 191.908 0.89938C191.711 0.777538 191.511 0.687949 191.303 0.634195C191.095 0.580441 190.873 0.541021 190.633 0.523104C190.396 0.505186 190.124 0.494435 189.815 0.494435H187.69V12.5174C187.69 13.6032 187.83 14.2948 188.113 14.5887C188.199 14.6998 188.289 14.7786 188.389 14.8288H185.641C185.712 14.7679 185.784 14.7069 185.852 14.646C185.92 14.5851 185.985 14.5063 186.046 14.4059Z" fill="white"/>
<path d="M199.864 7.56854C199.864 6.50421 200.018 5.51156 200.33 4.59058C200.641 3.66959 201.093 2.86687 201.684 2.18957C202.276 1.51227 203.01 0.978319 203.885 0.587708C204.759 0.197097 205.762 0 206.898 0H207.321C207.909 0 208.407 0.0537538 208.816 0.164845C209.224 0.275936 209.572 0.394195 209.862 0.523204C210.149 0.652213 210.392 0.770471 210.597 0.881562C210.797 0.992654 210.998 1.04641 211.192 1.04641C211.41 1.04641 211.604 0.996237 211.768 0.892313C211.933 0.788389 212.077 0.652213 212.198 0.480201L212.399 3.24673C212.166 2.80595 211.883 2.401 211.546 2.02831C211.209 1.65562 210.844 1.33309 210.446 1.05716C210.048 0.781222 209.625 0.56979 209.174 0.415696C208.722 0.261602 208.253 0.186347 207.762 0.186347C206.651 0.186347 205.701 0.383444 204.92 0.781222C204.139 1.179 203.501 1.71654 203.014 2.39384C202.526 3.07113 202.172 3.85594 201.949 4.74825C201.731 5.64057 201.62 6.57947 201.62 7.57212C201.62 8.56477 201.731 9.50367 201.949 10.4032C202.168 11.3026 202.523 12.091 203.014 12.7683C203.501 13.4456 204.139 13.9867 204.92 14.3917C205.701 14.793 206.648 14.9973 207.762 14.9973C208.801 14.9973 209.715 14.7321 210.511 14.2018C211.306 13.6714 211.933 12.9081 212.399 11.919L212.198 14.6855C211.94 14.32 211.607 14.1373 211.192 14.1373C210.994 14.1373 210.815 14.191 210.65 14.3021C210.486 14.4132 210.271 14.5314 210.009 14.6605C209.747 14.7895 209.407 14.9077 208.991 15.0188C208.575 15.1299 208.02 15.1908 207.325 15.2016H206.902C205.766 15.2016 204.759 15.0045 203.888 14.6139C203.014 14.2233 202.283 13.6857 201.688 13.0013C201.097 12.3168 200.641 11.5105 200.333 10.5823C200.021 9.65418 199.867 8.65078 199.867 7.5757L199.864 7.56854Z" fill="white"/>
<path d="M219.362 0.32959C219.104 0.501602 218.922 0.727368 218.814 1.00689C218.778 1.10364 218.742 1.26849 218.703 1.49426C218.667 1.72002 218.649 2.10705 218.649 2.65892V7.36775H226.565V2.65892C226.565 2.0963 226.548 1.69852 226.512 1.46917C226.476 1.23982 226.433 1.07139 226.383 0.974635C226.272 0.716617 226.096 0.505186 225.852 0.333173H228.637C228.379 0.490851 228.196 0.723784 228.088 1.02839C228.053 1.12515 228.017 1.28641 227.977 1.51576C227.942 1.74152 227.924 2.12497 227.924 2.6625V12.521C227.924 13.0943 227.945 13.4957 227.988 13.7215C228.031 13.9472 228.071 14.1085 228.106 14.2052C228.192 14.4489 228.375 14.6568 228.655 14.8288H225.87C225.931 14.7929 225.985 14.7464 226.035 14.6926C226.085 14.6389 226.139 14.5815 226.2 14.517C226.444 14.1981 226.565 13.5351 226.565 12.521V7.51827H218.649V12.521C218.649 13.0943 218.671 13.4957 218.714 13.7215C218.757 13.9472 218.789 14.1085 218.814 14.2052C218.925 14.4633 219.112 14.6711 219.384 14.8288H216.599C216.732 14.7535 216.843 14.6532 216.929 14.517C217.173 14.1981 217.295 13.5351 217.295 12.521V2.65892C217.295 2.0963 217.277 1.69852 217.241 1.46917C217.205 1.23982 217.169 1.07139 217.13 0.974635C217.019 0.716617 216.836 0.505186 216.582 0.333173H219.366L219.362 0.32959Z" fill="white"/>
<path d="M235.729 0.32959C235.668 0.37976 235.607 0.42993 235.546 0.483684C235.485 0.537438 235.435 0.598359 235.399 0.65928C235.141 0.963885 235.015 1.62326 235.015 2.63742V12.5138C235.015 13.0621 235.037 13.4563 235.08 13.6964C235.123 13.9365 235.155 14.1013 235.18 14.2017C235.291 14.4597 235.478 14.6675 235.75 14.8252H232.966C233.098 14.7499 233.209 14.6496 233.295 14.5134C233.539 14.1945 233.661 13.5315 233.661 12.5174V2.63742C233.661 2.08913 233.643 1.69852 233.607 1.46559C233.571 1.23265 233.535 1.06781 233.496 0.971052C233.385 0.713034 233.202 0.501602 232.948 0.32959H235.732H235.729Z" fill="white"/>
<path d="M239.559 0.32959H251.289L251.342 1.87053C251.195 1.60176 251.023 1.37958 250.83 1.2004C250.633 1.02481 250.421 0.881462 250.188 0.777538C249.955 0.673614 249.705 0.601942 249.436 0.558939C249.167 0.515936 248.891 0.494435 248.612 0.494435H246.046V12.589C246.046 13.639 246.186 14.3127 246.469 14.6066C246.54 14.7034 246.626 14.7786 246.727 14.8252H244.014C244.161 14.7141 244.275 14.5923 244.361 14.4597C244.594 14.1551 244.709 13.5315 244.709 12.589V0.494435H242.455C242.15 0.494435 241.864 0.505186 241.595 0.523104C241.326 0.541021 241.075 0.591192 240.842 0.670031C240.609 0.74887 240.391 0.867128 240.183 1.01764C239.975 1.17173 239.778 1.37958 239.595 1.64835C239.57 1.67343 239.552 1.7021 239.542 1.73077C239.531 1.75944 239.513 1.78811 239.488 1.81319L239.559 0.32959Z" fill="white"/>
<path d="M255.08 14.8253C255.338 14.6533 255.521 14.4275 255.628 14.148C255.653 14.0512 255.686 13.89 255.729 13.6714C255.772 13.4528 255.793 13.0729 255.793 12.5354V2.58374C255.793 2.22897 255.782 1.93153 255.757 1.69501C255.732 1.45491 255.7 1.25782 255.657 1.10014C255.614 0.942462 255.567 0.82062 255.521 0.734614C255.471 0.648608 255.428 0.580519 255.392 0.533933C255.356 0.508848 255.32 0.476595 255.281 0.433592C255.245 0.390589 255.209 0.358337 255.17 0.333252H264.591L264.663 1.68785C264.638 1.62693 264.612 1.57676 264.591 1.53375C264.566 1.49075 264.541 1.45133 264.519 1.4155C264.362 1.15748 264.197 0.967547 264.025 0.838538C263.853 0.709529 263.67 0.623522 263.476 0.573352C263.279 0.523182 263.075 0.498097 262.864 0.498097H257.137V7.17074H261.326C261.516 7.17074 261.706 7.15998 261.896 7.1349C262.086 7.10981 262.269 7.06681 262.444 7.00589C262.62 6.94497 262.778 6.8518 262.91 6.72995C263.007 6.6547 263.086 6.57586 263.147 6.48985C263.208 6.40385 263.269 6.31426 263.33 6.21392V8.26731C263.147 7.92687 262.871 7.67602 262.505 7.51476C262.211 7.36783 261.935 7.29616 261.67 7.30333C261.409 7.31049 261.111 7.31408 260.782 7.31408H257.133V14.664H262.541C262.896 14.664 263.2 14.6318 263.459 14.5637C263.717 14.4956 263.946 14.3952 264.154 14.2627C264.362 14.1265 264.559 13.9616 264.741 13.7681C264.924 13.5746 265.114 13.3453 265.311 13.0908L264.688 14.8324H255.084L255.08 14.8253Z" fill="white"/>
<path d="M268.515 7.56854C268.515 6.50421 268.669 5.51156 268.981 4.59058C269.292 3.66959 269.744 2.86687 270.335 2.18957C270.926 1.51227 271.661 0.978319 272.535 0.587708C273.41 0.197097 274.413 0 275.549 0H275.972C276.56 0 277.058 0.0537538 277.466 0.164845C277.875 0.275936 278.223 0.394195 278.513 0.523204C278.8 0.652213 279.043 0.770471 279.247 0.881562C279.448 0.992654 279.649 1.04641 279.842 1.04641C280.061 1.04641 280.254 0.996237 280.419 0.892313C280.584 0.788389 280.728 0.652213 280.849 0.480201L281.05 3.24673C280.817 2.80595 280.534 2.401 280.197 2.02831C279.86 1.65562 279.495 1.33309 279.097 1.05716C278.699 0.781222 278.276 0.56979 277.825 0.415696C277.373 0.261602 276.904 0.186347 276.413 0.186347C275.302 0.186347 274.352 0.383444 273.571 0.781222C272.79 1.179 272.152 1.71654 271.665 2.39384C271.177 3.07113 270.822 3.85594 270.6 4.74825C270.382 5.64057 270.271 6.57947 270.271 7.57212C270.271 8.56477 270.382 9.50367 270.6 10.4032C270.819 11.3026 271.174 12.091 271.665 12.7683C272.152 13.4456 272.79 13.9867 273.571 14.3917C274.352 14.793 275.298 14.9973 276.413 14.9973C277.452 14.9973 278.366 14.7321 279.161 14.2018C279.957 13.6714 280.584 12.9081 281.05 11.919L280.849 14.6855C280.591 14.32 280.258 14.1373 279.842 14.1373C279.645 14.1373 279.466 14.191 279.301 14.3021C279.136 14.4132 278.921 14.5314 278.66 14.6605C278.398 14.7895 278.058 14.9077 277.642 15.0188C277.226 15.1299 276.671 15.1908 275.976 15.2016H275.553C274.417 15.2016 273.41 15.0045 272.539 14.6139C271.665 14.2233 270.934 13.6857 270.339 13.0013C269.747 12.3168 269.292 11.5105 268.984 10.5823C268.672 9.65418 268.518 8.65078 268.518 7.5757L268.515 7.56854Z" fill="white"/>
<path d="M284.734 0.32959H296.463L296.517 1.87053C296.37 1.60176 296.198 1.37958 296.004 1.2004C295.807 1.02481 295.596 0.881462 295.363 0.777538C295.13 0.673614 294.879 0.601942 294.61 0.558939C294.341 0.515936 294.065 0.494435 293.786 0.494435H291.22V12.589C291.22 13.639 291.36 14.3127 291.643 14.6066C291.715 14.7034 291.801 14.7786 291.901 14.8252H289.188C289.335 14.7141 289.45 14.5923 289.536 14.4597C289.769 14.1551 289.883 13.5315 289.883 12.589V0.494435H287.629C287.325 0.494435 287.038 0.505186 286.769 0.523104C286.5 0.541021 286.25 0.591192 286.017 0.670031C285.784 0.74887 285.565 0.867128 285.357 1.01764C285.149 1.17173 284.952 1.37958 284.77 1.64835C284.745 1.67343 284.727 1.7021 284.716 1.73077C284.705 1.75944 284.687 1.78811 284.662 1.81319L284.734 0.32959Z" fill="white"/>
<path d="M300.161 0.329755H302.946C302.591 0.63436 302.379 0.981968 302.315 1.37616C302.247 1.76677 302.215 2.18964 302.215 2.64117V9.31381C302.215 10.0699 302.268 10.7938 302.379 11.4855C302.49 12.1771 302.705 12.7791 303.032 13.2988C303.354 13.8184 303.802 14.2341 304.368 14.5458C304.938 14.8576 305.68 15.0117 306.594 15.0117C307.669 15.0117 308.629 14.7788 309.471 14.3165C310.02 14.0119 310.45 13.6643 310.754 13.2701C311.059 12.8795 311.285 12.453 311.432 11.9872C311.578 11.5249 311.668 11.0268 311.697 10.4928C311.725 9.96244 311.743 9.41415 311.743 8.85153V2.63759C311.743 1.58759 311.604 0.895962 311.32 0.566272C311.27 0.530436 311.227 0.491017 311.191 0.448014C311.156 0.405011 311.105 0.365591 311.044 0.329755H312.75C312.36 0.63436 312.127 0.996303 312.055 1.412C311.983 1.82769 311.944 2.26848 311.944 2.73076V8.92678C311.944 9.47507 311.926 10.0054 311.89 10.5107C311.854 11.0196 311.768 11.4998 311.632 11.9585C311.496 12.4172 311.292 12.8436 311.009 13.2414C310.729 13.6392 310.342 14.0083 309.855 14.3487C309.038 14.9221 307.905 15.2088 306.465 15.2088C305.902 15.2088 305.35 15.1658 304.805 15.0798C304.261 14.9938 303.755 14.8397 303.286 14.6139C302.817 14.3882 302.404 14.0871 302.05 13.7073C301.695 13.3274 301.415 12.8472 301.208 12.2595C300.964 11.6252 300.842 10.4068 300.842 8.61143V2.63759C300.842 2.10005 300.806 1.66285 300.731 1.32599C300.659 0.989136 300.534 0.72395 300.365 0.530436C300.34 0.4946 300.312 0.455181 300.283 0.419345C300.251 0.383509 300.211 0.351257 300.165 0.326172L300.161 0.329755Z" fill="white"/>
<path d="M317.334 14.4059C317.406 14.3092 317.477 14.13 317.546 13.8648C317.614 13.6032 317.646 13.1517 317.646 12.5174V2.63742C317.646 2.08913 317.614 1.64835 317.546 1.31866C317.477 0.98897 317.37 0.738119 317.223 0.566107C317.173 0.530271 317.13 0.490851 317.087 0.447848C317.044 0.404845 316.997 0.365426 316.951 0.32959L321.111 0.347508C321.699 0.347508 322.315 0.397678 322.964 0.494435C323.613 0.591192 324.2 0.770371 324.734 1.02481C325.265 1.28282 325.705 1.6376 326.053 2.0963C326.401 2.555 326.576 3.14987 326.576 3.88451C326.576 4.4113 326.483 4.86999 326.3 5.26061C326.118 5.65122 325.867 5.98807 325.548 6.26759C325.229 6.54711 324.863 6.78005 324.448 6.96281C324.032 7.14557 323.591 7.28533 323.129 7.38567L322.523 7.5326L326.042 12.4242C326.214 12.6571 326.39 12.8901 326.573 13.1302C326.755 13.3703 326.956 13.596 327.168 13.8075C327.383 14.0225 327.608 14.216 327.845 14.3952C328.081 14.5743 328.336 14.7177 328.605 14.8252H326.368L321.219 7.69744C321.72 7.62577 322.186 7.49676 322.62 7.314C323.054 7.13124 323.437 6.88755 323.767 6.57937C324.096 6.27476 324.354 5.90924 324.544 5.48995C324.734 5.06709 324.827 4.58331 324.827 4.03144C324.827 3.47956 324.745 3.00653 324.58 2.56575C324.415 2.12497 324.154 1.74152 323.803 1.41183C323.595 1.19323 323.394 1.02122 323.197 0.89938C323 0.777538 322.799 0.687949 322.591 0.634195C322.383 0.580441 322.161 0.541021 321.921 0.523104C321.685 0.505186 321.412 0.494435 321.104 0.494435H318.979V12.5174C318.979 13.6032 319.119 14.2948 319.402 14.5887C319.488 14.6998 319.577 14.7786 319.678 14.8288H316.929C317.001 14.7679 317.073 14.7069 317.141 14.646C317.209 14.5851 317.273 14.5063 317.334 14.4059Z" fill="white"/>
<path d="M332.271 14.8253C332.529 14.6533 332.711 14.4275 332.819 14.148C332.844 14.0512 332.876 13.89 332.919 13.6714C332.962 13.4528 332.984 13.0729 332.984 12.5354V2.58374C332.984 2.22897 332.973 1.93153 332.948 1.69501C332.923 1.45491 332.89 1.25782 332.847 1.10014C332.804 0.942462 332.758 0.82062 332.711 0.734614C332.661 0.648608 332.618 0.580519 332.582 0.533933C332.546 0.508848 332.511 0.476595 332.471 0.433592C332.435 0.390589 332.4 0.358337 332.36 0.333252H341.781L341.853 1.68785C341.828 1.62693 341.803 1.57676 341.781 1.53375C341.756 1.49075 341.731 1.45133 341.71 1.4155C341.552 1.15748 341.387 0.967547 341.215 0.838538C341.043 0.709529 340.86 0.623522 340.667 0.573352C340.47 0.523182 340.265 0.498097 340.054 0.498097H334.327V7.17074H338.517C338.707 7.17074 338.897 7.15998 339.086 7.1349C339.276 7.10981 339.459 7.06681 339.635 7.00589C339.81 6.94497 339.968 6.8518 340.101 6.72995C340.197 6.6547 340.276 6.57586 340.337 6.48985C340.398 6.40385 340.459 6.31426 340.52 6.21392V8.26731C340.337 7.92687 340.061 7.67602 339.696 7.51476C339.402 7.36783 339.126 7.29616 338.861 7.30333C338.599 7.31049 338.302 7.31408 337.972 7.31408H334.324V14.664H339.732C340.086 14.664 340.391 14.6318 340.649 14.5637C340.907 14.4956 341.136 14.3952 341.344 14.2627C341.552 14.1265 341.749 13.9616 341.932 13.7681C342.115 13.5746 342.305 13.3453 342.502 13.0908L341.878 14.8324H332.274L332.271 14.8253Z" fill="white"/>
<path d="M346.235 16.3662C346.454 16.291 346.673 16.1942 346.888 16.0724C347.103 15.9505 347.257 15.7785 347.353 15.5599C347.404 15.4237 347.414 15.3126 347.389 15.2195C347.364 15.1263 347.339 15.051 347.318 14.9901C347.267 14.9399 347.203 14.8826 347.124 14.8145C347.045 14.7464 346.895 14.6533 346.676 14.5314C346.604 14.4956 346.547 14.4382 346.511 14.3666C346.375 14.1731 346.321 13.9652 346.346 13.743C346.382 13.571 346.518 13.4026 346.748 13.2306C346.941 13.0944 347.181 13.0586 347.461 13.1195C347.73 13.1911 347.948 13.3524 348.12 13.5961C348.339 13.9007 348.382 14.2877 348.249 14.75C348.199 14.9579 348.106 15.1514 347.966 15.3377C347.826 15.5205 347.662 15.6817 347.472 15.8251C347.282 15.9648 347.081 16.0831 346.866 16.1727C346.651 16.2659 346.44 16.3268 346.235 16.3662Z" fill="white"/>
</g>
<path d="M75.0656 28.3964C75.0656 27.8481 75.1767 27.35 75.406 26.9021C75.6318 26.4577 75.9328 26.0779 76.3127 25.7661C76.6926 25.4543 77.1262 25.2142 77.6135 25.0422C78.1009 24.8702 78.6098 24.7842 79.133 24.7842C79.9035 24.7842 80.7133 24.9669 81.5698 25.3325C82.0213 25.5403 82.3761 25.6442 82.6341 25.6442C82.928 25.6442 83.1788 25.5475 83.3867 25.3504L83.4225 25.3145V27.9162C83.3616 27.7442 83.2971 27.5901 83.229 27.4504C83.1609 27.3106 83.0928 27.1708 83.0176 27.0383C82.8205 26.7086 82.5804 26.4147 82.2937 26.1603C82.007 25.9023 81.6917 25.6837 81.3512 25.5009C81.0108 25.3181 80.6488 25.1784 80.269 25.078C79.8891 24.9813 79.5128 24.9311 79.133 24.9311C78.7531 24.9311 78.3768 24.992 78.0041 25.1139C77.6315 25.2357 77.3018 25.4149 77.0151 25.6442C76.7284 25.8772 76.4955 26.1603 76.3199 26.4971C76.1443 26.834 76.0547 27.2103 76.0547 27.6224C76.0547 28.185 76.2482 28.6975 76.6424 29.1633C77.119 29.751 78.2622 30.5323 80.0683 31.5106C80.7778 31.8904 81.3727 32.2237 81.8565 32.5104C82.3403 32.7971 82.7094 33.0372 82.9638 33.2343C83.3903 33.5891 83.7415 34.0119 84.0174 34.5064C84.2933 35.001 84.4295 35.5421 84.4295 36.1298C84.4295 37.1547 84.021 38.0542 83.2003 38.8247C82.3833 39.5951 81.319 39.9786 80.011 39.9786C79.5236 39.9786 79.0864 39.9284 78.6994 39.8317C78.3159 39.7349 77.8895 39.6131 77.4272 39.4661C76.9255 39.2941 76.5707 39.1902 76.3629 39.1544C76.155 39.1185 76.0081 39.1006 75.9221 39.1006C75.7393 39.1006 75.5924 39.1293 75.4813 39.1902C75.3702 39.2511 75.2806 39.312 75.2054 39.373V36.7534C75.277 36.9612 75.3523 37.1511 75.424 37.3196C75.4956 37.4916 75.5781 37.6421 75.6605 37.7783C75.8576 38.108 76.112 38.3982 76.431 38.6491C76.7499 38.8999 77.1011 39.1149 77.4845 39.2905C77.868 39.4697 78.2657 39.6023 78.6743 39.6955C79.0828 39.7851 79.4698 39.8317 79.8389 39.8317C80.2654 39.8317 80.6847 39.7707 81.0932 39.6489C81.5017 39.5271 81.8673 39.3479 82.1826 39.1078C82.5015 38.8677 82.7524 38.5738 82.9423 38.219C83.1323 37.8643 83.2254 37.4486 83.2254 36.972C83.2254 36.4703 83.0821 36.0008 82.7954 35.56C82.5087 35.1192 82.1683 34.7537 81.7777 34.4599C81.62 34.3237 81.3369 34.1373 80.9355 33.9008C80.5342 33.6607 80.0002 33.3525 79.3408 32.9763C78.6814 32.6215 78.126 32.299 77.6745 32.0051C77.2229 31.7113 76.861 31.4604 76.5922 31.2526C76.1156 30.8978 75.7393 30.4892 75.4634 30.0234C75.1874 29.5611 75.0513 29.0164 75.0513 28.3929L75.0656 28.3964Z" fill="white"/>
<path d="M88.5723 32.3204C88.5723 29.9875 89.3535 28.1061 90.9195 26.6762C91.604 26.0419 92.335 25.5689 93.1091 25.2571C93.8831 24.9454 94.7504 24.7913 95.7036 24.7913C96.6568 24.7913 97.5348 24.9669 98.3805 25.3145C99.2263 25.6621 99.9932 26.196 100.688 26.9163C102.057 28.3354 102.742 30.1236 102.742 32.2845C102.742 33.3955 102.57 34.406 102.229 35.3163C101.889 36.2265 101.369 37.0471 100.67 37.7818C99.986 38.4913 99.2048 39.036 98.3232 39.4123C97.4416 39.7886 96.535 39.9785 95.5925 39.9785C94.65 39.9785 93.7398 39.7993 92.8905 39.4374C92.0412 39.079 91.2815 38.5486 90.6077 37.8534C89.2531 36.4343 88.5723 34.5924 88.5723 32.3204ZM90.3676 32.263C90.3676 33.1303 90.4429 34.0118 90.597 34.9113C90.7511 35.8108 91.0199 36.6207 91.414 37.3481C91.8047 38.0756 92.3386 38.6705 93.0159 39.1364C93.6932 39.6022 94.5533 39.8316 95.5925 39.8316C96.6318 39.8316 97.5348 39.6237 98.23 39.208C98.9252 38.7923 99.4771 38.2476 99.8785 37.5667C100.283 36.8895 100.567 36.1154 100.731 35.2482C100.896 34.3809 100.979 33.4958 100.979 32.5891C100.979 29.8764 100.43 27.8445 99.3302 26.4863C98.8894 25.9129 98.3734 25.508 97.7821 25.275C97.1908 25.0421 96.4956 24.9274 95.7036 24.9274C94.6536 24.9274 93.7828 25.1425 93.0912 25.5689C92.3995 25.9953 91.8548 26.5544 91.4499 27.246C91.0485 27.9376 90.7654 28.7189 90.6077 29.5933C90.4501 30.4677 90.3712 31.3564 90.3712 32.2595L90.3676 32.263Z" fill="white"/>
<path d="M106.917 25.1174H109.701C109.346 25.422 109.135 25.7696 109.07 26.1638C109.002 26.5544 108.97 26.9772 108.97 27.4288V34.1014C108.97 34.8575 109.024 35.5814 109.135 36.2731C109.246 36.9647 109.461 37.5667 109.787 38.0864C110.109 38.606 110.557 39.0217 111.124 39.3334C111.69 39.6452 112.435 39.7993 113.349 39.7993C114.424 39.7993 115.385 39.5664 116.227 39.1041C116.775 38.7995 117.205 38.4519 117.51 38.0577C117.814 37.6671 118.04 37.2406 118.187 36.7748C118.334 36.3125 118.423 35.8144 118.452 35.2804C118.481 34.75 118.499 34.2017 118.499 33.6391V27.4252C118.499 26.3752 118.359 25.6836 118.076 25.3539C118.026 25.318 117.983 25.2786 117.947 25.2356C117.911 25.1926 117.861 25.1532 117.8 25.1174H119.506C119.115 25.422 118.882 25.7839 118.81 26.1996C118.739 26.6153 118.699 27.0561 118.699 27.5184V33.7144C118.699 34.2627 118.681 34.793 118.646 35.2983C118.61 35.8072 118.524 36.2874 118.388 36.7461C118.251 37.2048 118.047 37.6312 117.764 38.029C117.484 38.4268 117.097 38.7959 116.61 39.1363C115.793 39.7097 114.661 39.9964 113.22 39.9964C112.657 39.9964 112.106 39.9534 111.561 39.8674C111.016 39.7814 110.511 39.6273 110.041 39.4015C109.572 39.1758 109.16 38.8747 108.805 38.4949C108.45 38.115 108.171 37.6348 107.963 37.0471C107.719 36.4128 107.597 35.1944 107.597 33.399V27.4252C107.597 26.8876 107.562 26.4504 107.486 26.1136C107.411 25.7767 107.289 25.5115 107.121 25.318C107.096 25.2822 107.067 25.2428 107.038 25.2069C107.006 25.1711 106.967 25.1389 106.92 25.1138L106.917 25.1174Z" fill="white"/>
<path d="M123.684 39.6131C123.756 39.5522 123.827 39.4913 123.896 39.4304C123.964 39.3694 124.028 39.2906 124.089 39.1903C124.186 39.0182 124.265 38.7889 124.318 38.495C124.372 38.2012 124.401 37.8034 124.401 37.3053V27.4289C124.401 26.3789 124.261 25.6873 123.978 25.3576C123.928 25.3218 123.885 25.2824 123.849 25.2394C123.813 25.1963 123.763 25.1569 123.702 25.1211H126.615C126.347 25.2931 126.132 25.5117 125.974 25.7805C125.949 25.8306 125.92 25.8951 125.892 25.9812C125.859 26.0672 125.838 26.1818 125.82 26.3288C125.802 26.4757 125.788 26.6585 125.773 26.8771C125.763 27.0957 125.755 27.3644 125.755 27.6834V37.3053C125.755 37.9898 125.827 38.4771 125.974 38.771C126.132 39.0147 126.34 39.1938 126.598 39.3013C126.648 39.3264 126.709 39.3479 126.78 39.3659C126.852 39.3838 126.959 39.3981 127.103 39.4124C127.243 39.4232 127.425 39.4339 127.651 39.4411C127.877 39.4483 128.16 39.4519 128.504 39.4519H129.622C130.246 39.4519 130.769 39.4304 131.199 39.3874C131.625 39.3444 131.973 39.2691 132.242 39.158C132.364 39.1078 132.507 39.0433 132.672 38.9573C132.837 38.8713 132.994 38.771 133.148 38.6563C133.302 38.5416 133.446 38.4162 133.578 38.2908C133.711 38.1618 133.811 38.0363 133.872 37.9145L133.342 39.6203H123.684V39.6131Z" fill="white"/>
<path d="M146.702 25.1174L146.755 26.748C146.548 26.2713 146.243 25.9094 145.838 25.6586C145.433 25.4077 144.971 25.2823 144.444 25.2823H139.642V31.9728H142.831C143.577 31.9728 144.139 31.7901 144.519 31.4245C144.63 31.3385 144.738 31.1916 144.849 30.9838V32.9619C144.605 32.6071 144.308 32.3778 143.96 32.2739C143.613 32.1699 143.236 32.1198 142.831 32.1198H139.642V37.3052C139.642 37.8786 139.663 38.2799 139.706 38.5057C139.749 38.7315 139.782 38.8927 139.807 38.9895C139.918 39.2475 140.108 39.4554 140.377 39.613H137.592C137.725 39.5378 137.836 39.4374 137.922 39.3013C138.166 38.9823 138.287 38.3194 138.287 37.3052V27.4288C138.287 26.8806 138.269 26.4899 138.234 26.257C138.198 26.0241 138.162 25.8592 138.123 25.7625C138.011 25.5045 137.829 25.293 137.574 25.121H146.702V25.1174Z" fill="white"/>
<path d="M150.493 25.1174H153.278C152.923 25.422 152.711 25.7696 152.647 26.1638C152.579 26.5544 152.547 26.9772 152.547 27.4288V34.1014C152.547 34.8575 152.6 35.5814 152.711 36.2731C152.822 36.9647 153.038 37.5667 153.364 38.0864C153.686 38.606 154.134 39.0217 154.7 39.3334C155.27 39.6452 156.012 39.7993 156.926 39.7993C158.001 39.7993 158.961 39.5664 159.803 39.1041C160.352 38.7995 160.782 38.4519 161.086 38.0577C161.391 37.6671 161.617 37.2406 161.764 36.7748C161.91 36.3125 162 35.8144 162.029 35.2804C162.057 34.75 162.075 34.2017 162.075 33.6391V27.4252C162.075 26.3752 161.936 25.6836 161.652 25.3539C161.602 25.318 161.559 25.2786 161.523 25.2356C161.488 25.1926 161.437 25.1532 161.377 25.1174H163.082C162.692 25.422 162.459 25.7839 162.387 26.1996C162.315 26.6153 162.276 27.0561 162.276 27.5184V33.7144C162.276 34.2627 162.258 34.793 162.222 35.2983C162.186 35.8072 162.1 36.2874 161.964 36.7461C161.828 37.2048 161.624 37.6312 161.341 38.029C161.061 38.4268 160.674 38.7959 160.187 39.1363C159.37 39.7097 158.237 39.9964 156.797 39.9964C156.234 39.9964 155.682 39.9534 155.137 39.8674C154.593 39.7814 154.088 39.6273 153.618 39.4015C153.149 39.1758 152.736 38.8747 152.382 38.4949C152.027 38.115 151.747 37.6348 151.54 37.0471C151.296 36.4128 151.174 35.1944 151.174 33.399V27.4252C151.174 26.8876 151.138 26.4504 151.063 26.1136C150.991 25.7767 150.866 25.5115 150.697 25.318C150.672 25.2822 150.644 25.2428 150.615 25.2069C150.583 25.1711 150.543 25.1389 150.497 25.1138L150.493 25.1174Z" fill="white"/>
<path d="M167.264 39.6131C167.336 39.5522 167.408 39.4913 167.476 39.4304C167.544 39.3694 167.608 39.2906 167.669 39.1903C167.766 39.0182 167.845 38.7889 167.898 38.495C167.952 38.2012 167.981 37.8034 167.981 37.3053V27.4289C167.981 26.3789 167.841 25.6873 167.558 25.3576C167.508 25.3218 167.465 25.2824 167.429 25.2394C167.393 25.1963 167.343 25.1569 167.282 25.1211H170.196C169.927 25.2931 169.712 25.5117 169.554 25.7805C169.529 25.8306 169.5 25.8951 169.472 25.9812C169.439 26.0672 169.418 26.1818 169.4 26.3288C169.382 26.4757 169.368 26.6585 169.353 26.8771C169.343 27.0957 169.335 27.3644 169.335 27.6834V37.3053C169.335 37.9898 169.407 38.4771 169.554 38.771C169.712 39.0147 169.92 39.1938 170.178 39.3013C170.228 39.3264 170.289 39.3479 170.36 39.3659C170.432 39.3838 170.54 39.3981 170.679 39.4124C170.819 39.4232 171.002 39.4339 171.228 39.4411C171.453 39.4483 171.736 39.4519 172.081 39.4519H173.199C173.822 39.4519 174.345 39.4304 174.775 39.3874C175.202 39.3444 175.549 39.2691 175.822 39.158C175.944 39.1078 176.087 39.0433 176.252 38.9573C176.417 38.8713 176.574 38.771 176.728 38.6563C176.883 38.5416 177.026 38.4162 177.158 38.2908C177.291 38.1618 177.391 38.0363 177.452 37.9145L176.922 39.6203H167.264V39.6131Z" fill="white"/>
<path d="M190.464 39.6131C190.536 39.5522 190.608 39.4913 190.676 39.4304C190.744 39.3694 190.808 39.2906 190.869 39.1903C190.941 39.0792 191.005 38.8964 191.063 38.642C191.117 38.384 191.145 37.9396 191.145 37.3053V27.4289C191.145 26.8806 191.113 26.4399 191.052 26.1102C190.991 25.7805 190.894 25.5296 190.758 25.3576C190.708 25.3218 190.665 25.2824 190.629 25.2394C190.593 25.1963 190.543 25.1569 190.482 25.1211H194.937C195.524 25.1211 196.109 25.1963 196.696 25.3504C197.284 25.5045 197.804 25.7375 198.262 26.0564C198.721 26.3753 199.094 26.7731 199.38 27.2569C199.667 27.7407 199.81 28.3105 199.81 28.9699C199.81 29.6292 199.703 30.1596 199.488 30.6362C199.273 31.1129 198.979 31.5106 198.61 31.826C198.237 32.1449 197.793 32.3814 197.28 32.5391C196.768 32.6968 196.205 32.7792 195.596 32.7792H192.518V37.3053C192.518 38.3911 192.658 39.0827 192.941 39.3766C193.027 39.4877 193.116 39.5665 193.217 39.6167H190.468L190.464 39.6131ZM195.592 32.6323C195.983 32.6323 196.331 32.514 196.639 32.2739C196.943 32.0338 197.202 31.7436 197.409 31.3924C197.617 31.0448 197.775 30.6685 197.886 30.2671C197.997 29.8658 198.051 29.5038 198.051 29.1849C198.051 28.7441 197.979 28.2962 197.839 27.8375C197.7 27.3788 197.495 26.9595 197.227 26.5724C196.958 26.189 196.632 25.8736 196.245 25.63C195.861 25.3863 195.424 25.2644 194.933 25.2644H192.514V32.6323H195.592Z" fill="white"/>
<path d="M203.86 39.6131C203.932 39.5522 204.003 39.4913 204.071 39.4304C204.139 39.3694 204.204 39.2906 204.265 39.1903C204.362 39.0182 204.44 38.7889 204.494 38.495C204.548 38.2012 204.577 37.8034 204.577 37.3053V27.4289C204.577 26.3789 204.437 25.6873 204.154 25.3576C204.104 25.3218 204.061 25.2824 204.025 25.2394C203.989 25.1963 203.939 25.1569 203.878 25.1211H206.791C206.522 25.2931 206.307 25.5117 206.15 25.7805C206.125 25.8306 206.096 25.8951 206.067 25.9812C206.035 26.0672 206.014 26.1818 205.996 26.3288C205.978 26.4757 205.963 26.6585 205.949 26.8771C205.938 27.0957 205.931 27.3644 205.931 27.6834V37.3053C205.931 37.9898 206.003 38.4771 206.15 38.771C206.307 39.0147 206.515 39.1938 206.773 39.3013C206.823 39.3264 206.884 39.3479 206.956 39.3659C207.028 39.3838 207.135 39.3981 207.275 39.4124C207.415 39.4232 207.598 39.4339 207.823 39.4411C208.049 39.4483 208.332 39.4519 208.676 39.4519H209.794C210.418 39.4519 210.941 39.4304 211.371 39.3874C211.798 39.3444 212.145 39.2691 212.417 39.158C212.539 39.1078 212.683 39.0433 212.848 38.9573C213.012 38.8713 213.17 38.771 213.324 38.6563C213.478 38.5416 213.622 38.4162 213.754 38.2908C213.887 38.1618 213.987 38.0363 214.048 37.9145L213.518 39.6203H203.86V39.6131Z" fill="white"/>
<path d="M217.108 39.6129C217.266 39.5377 217.427 39.3979 217.585 39.1829C217.743 38.9679 217.897 38.735 218.044 38.4769C218.191 38.2189 218.32 37.9681 218.438 37.7172C218.553 37.4664 218.642 37.2693 218.703 37.1223L223.906 24.9346L229.056 37.2514C229.289 37.7996 229.508 38.2512 229.715 38.5988C229.923 38.9464 230.131 39.2116 230.339 39.3943C230.389 39.4302 230.436 39.4696 230.486 39.5126C230.536 39.5556 230.59 39.5879 230.651 39.6129H227.497C227.669 39.4911 227.791 39.3478 227.863 39.1829C227.934 39.0181 227.974 38.8425 227.974 38.6597C227.974 38.4769 227.938 38.2404 227.863 37.9537C227.787 37.6671 227.666 37.3266 227.497 36.936L226.49 34.5708H219.986L218.868 37.1367C218.732 37.4807 218.631 37.771 218.567 38.0182C218.499 38.2619 218.467 38.4698 218.467 38.6418C218.467 38.7636 218.495 38.907 218.549 39.0718C218.603 39.2367 218.735 39.4051 218.943 39.5771L219.015 39.6129H217.108ZM220.04 34.4275H226.472L223.301 26.859L220.04 34.4275Z" fill="white"/>
<path d="M233.016 32.3564C233.016 31.2921 233.17 30.2994 233.482 29.3784C233.793 28.4574 234.245 27.6547 234.836 26.9774C235.427 26.3001 236.162 25.7662 237.036 25.3755C237.911 24.9849 238.914 24.7878 240.05 24.7878H240.473C241.061 24.7878 241.559 24.8416 241.967 24.9527C242.376 25.0638 242.724 25.182 243.014 25.311C243.301 25.4401 243.544 25.5583 243.748 25.6694C243.949 25.7805 244.15 25.8342 244.343 25.8342C244.562 25.8342 244.755 25.7841 244.92 25.6802C245.085 25.5762 245.229 25.4401 245.35 25.268L245.551 28.0346C245.318 27.5938 245.035 27.1888 244.698 26.8162C244.361 26.4435 243.996 26.1209 243.598 25.845C243.2 25.5691 242.777 25.3576 242.326 25.2035C241.874 25.0494 241.405 24.9742 240.914 24.9742C239.803 24.9742 238.853 25.1713 238.072 25.5691C237.291 25.9668 236.653 26.5044 236.166 27.1817C235.678 27.859 235.323 28.6438 235.101 29.5361C234.883 30.4284 234.772 31.3673 234.772 32.36C234.772 33.3526 234.883 34.2915 235.101 35.191C235.32 36.0905 235.675 36.8789 236.166 37.5562C236.653 38.2335 237.291 38.7746 238.072 39.1795C238.853 39.5809 239.799 39.7852 240.914 39.7852C241.953 39.7852 242.867 39.52 243.662 38.9896C244.458 38.4592 245.085 37.6959 245.551 36.7069L245.35 39.4734C245.092 39.1079 244.759 38.9251 244.343 38.9251C244.146 38.9251 243.967 38.9788 243.802 39.0899C243.637 39.201 243.422 39.3193 243.161 39.4483C242.899 39.5773 242.559 39.6956 242.143 39.8067C241.727 39.9177 241.172 39.9787 240.477 39.9894H240.054C238.918 39.9894 237.911 39.7923 237.04 39.4017C236.166 39.0111 235.435 38.4736 234.84 37.7891C234.248 37.1046 233.793 36.2983 233.485 35.3702C233.173 34.442 233.019 33.4386 233.019 32.3635L233.016 32.3564Z" fill="white"/>
<path d="M249.729 39.6131C249.988 39.4411 250.17 39.2153 250.278 38.9358C250.303 38.8391 250.335 38.6778 250.378 38.4592C250.421 38.2406 250.443 37.8607 250.443 37.3232V27.3716C250.443 27.0168 250.432 26.7194 250.407 26.4829C250.382 26.2428 250.349 26.0457 250.306 25.888C250.263 25.7303 250.217 25.6085 250.17 25.5225C250.12 25.4365 250.077 25.3684 250.041 25.3218C250.005 25.2967 249.97 25.2644 249.93 25.2214C249.894 25.1784 249.859 25.1462 249.819 25.1211H259.24L259.312 26.4757C259.287 26.4148 259.262 26.3646 259.24 26.3216C259.215 26.2786 259.19 26.2392 259.169 26.2033C259.011 25.9453 258.846 25.7554 258.674 25.6264C258.502 25.4974 258.319 25.4114 258.126 25.3612C257.929 25.311 257.724 25.2859 257.513 25.2859H251.786V31.9586H255.976C256.166 31.9586 256.356 31.9478 256.545 31.9227C256.735 31.8977 256.918 31.8547 257.094 31.7937C257.269 31.7328 257.427 31.6396 257.56 31.5178C257.656 31.4425 257.735 31.3637 257.796 31.2777C257.857 31.1917 257.918 31.1021 257.979 31.0018V33.0552C257.796 32.7147 257.52 32.4639 257.155 32.3026C256.861 32.1557 256.585 32.084 256.32 32.0912C256.058 32.0983 255.761 32.1019 255.431 32.1019H251.783V39.4519H257.191C257.545 39.4519 257.85 39.4196 258.108 39.3515C258.366 39.2834 258.595 39.1831 258.803 39.0505C259.011 38.9143 259.208 38.7495 259.391 38.556C259.574 38.3624 259.764 38.1331 259.961 37.8787L259.337 39.6203H249.733L249.729 39.6131Z" fill="white"/>
<path d="M263.896 28.3964C263.896 27.8481 264.007 27.35 264.236 26.9021C264.462 26.4577 264.763 26.0779 265.143 25.7661C265.523 25.4543 265.956 25.2142 266.444 25.0422C266.931 24.8702 267.44 24.7842 267.963 24.7842C268.734 24.7842 269.543 24.9669 270.4 25.3325C270.851 25.5403 271.206 25.6442 271.464 25.6442C271.758 25.6442 272.009 25.5475 272.217 25.3504L272.253 25.3145V27.9162C272.192 27.7442 272.127 27.5901 272.059 27.4504C271.991 27.3106 271.923 27.1708 271.848 27.0383C271.651 26.7086 271.41 26.4147 271.124 26.1603C270.837 25.9023 270.522 25.6837 270.181 25.5009C269.841 25.3181 269.479 25.1784 269.099 25.078C268.719 24.9813 268.343 24.9311 267.963 24.9311C267.583 24.9311 267.207 24.992 266.834 25.1139C266.462 25.2357 266.132 25.4149 265.845 25.6442C265.558 25.8772 265.326 26.1603 265.15 26.4971C264.974 26.834 264.885 27.2103 264.885 27.6224C264.885 28.185 265.082 28.6975 265.472 29.1633C265.949 29.751 267.092 30.5323 268.898 31.5106C269.608 31.8904 270.203 32.2237 270.687 32.5104C271.17 32.7971 271.539 33.0372 271.794 33.2343C272.22 33.5891 272.572 34.0119 272.847 34.5064C273.123 35.001 273.26 35.5421 273.26 36.1298C273.26 37.1547 272.851 38.0542 272.03 38.8247C271.213 39.5951 270.149 39.9786 268.841 39.9786C268.354 39.9786 267.916 39.9284 267.529 39.8317C267.146 39.7349 266.72 39.6131 266.257 39.4661C265.756 39.2941 265.401 39.1902 265.193 39.1544C264.985 39.1185 264.838 39.1006 264.752 39.1006C264.569 39.1006 264.422 39.1293 264.311 39.1902C264.2 39.2511 264.111 39.312 264.035 39.373V36.7534C264.107 36.9612 264.182 37.1511 264.254 37.3196C264.326 37.4916 264.408 37.6421 264.491 37.7783C264.684 38.108 264.942 38.3982 265.261 38.6491C265.58 38.8999 265.931 39.1149 266.315 39.2905C266.698 39.4697 267.096 39.6023 267.504 39.6955C267.913 39.7851 268.3 39.8317 268.669 39.8317C269.095 39.8317 269.515 39.7707 269.923 39.6489C270.332 39.5271 270.697 39.3479 271.013 39.1078C271.332 38.8677 271.582 38.5738 271.772 38.219C271.962 37.8643 272.056 37.4486 272.056 36.972C272.056 36.4703 271.912 36.0008 271.625 35.56C271.339 35.1192 270.998 34.7537 270.608 34.4599C270.45 34.3237 270.167 34.1373 269.766 33.9008C269.364 33.6607 268.83 33.3525 268.171 32.9763C267.512 32.6215 266.956 32.299 266.505 32.0051C266.053 31.7113 265.691 31.4604 265.422 31.2526C264.946 30.8978 264.569 30.4892 264.293 30.0234C264.018 29.5611 263.881 29.0164 263.881 28.3929L263.896 28.3964Z" fill="white"/>
</g>
<defs>
<clipPath id="clip0_147_755">
<rect width="348.328" height="40" fill="white"/>
</clipPath>
</defs>
</svg>
