<svg width="1905" height="56" viewBox="0 0 1905 56" fill="none" xmlns="http://www.w3.org/2000/svg">
<g clip-path="url(#clip0_153_898)">
<g opacity="0.85">
<path d="M-0.00208092 12.3563C-0.00208092 10.479 0.38529 8.77064 1.16003 7.25095C1.93478 5.72133 2.96777 4.43009 4.259 3.36731C5.55024 2.30452 7.04013 1.48011 8.70881 0.894088C10.3775 0.308065 12.1157 0.0200195 13.9135 0.0200195C16.5456 0.0200195 19.3268 0.645773 22.2569 1.89728C23.8064 2.61243 25.0181 2.96007 25.8922 2.96007C26.8954 2.96007 27.7496 2.62236 28.4648 1.95688L28.5939 1.82775V10.7274C28.3853 10.1413 28.1668 9.60498 27.9383 9.12821C27.7099 8.65145 27.4715 8.17468 27.2132 7.71778C26.5478 6.58547 25.7134 5.58228 24.74 4.70821C23.7567 3.83414 22.684 3.07926 21.5119 2.45351C20.3399 1.82775 19.1082 1.35099 17.817 1.01328C16.5158 0.675571 15.2246 0.51665 13.9334 0.51665C12.6421 0.51665 11.3509 0.725234 10.0795 1.1424C8.80814 1.55957 7.67582 2.16546 6.69249 2.96007C5.70916 3.75468 4.91456 4.72807 4.30867 5.88025C3.70278 7.03244 3.39487 8.31374 3.39487 9.7341C3.39487 11.661 4.06035 13.4092 5.40125 14.9984C7.0302 17.0048 10.9436 19.6766 17.1317 23.0239C19.5552 24.3251 21.5914 25.4574 23.2501 26.4407C24.8989 27.4241 26.1703 28.2485 27.0444 28.914C28.5045 30.1257 29.7063 31.5759 30.6499 33.2744C31.5935 34.9728 32.0604 36.8203 32.0604 38.8267C32.0604 42.3428 30.6599 45.412 27.8589 48.0441C25.0579 50.6763 21.4225 51.9973 16.9529 51.9973C15.2842 51.9973 13.7844 51.8285 12.4733 51.5007C11.1522 51.163 9.70207 50.7458 8.11285 50.2492C6.39451 49.6632 5.18274 49.3056 4.47752 49.1864C3.76237 49.0573 3.26574 48.9977 2.96777 48.9977C2.34201 48.9977 1.83545 49.1069 1.45801 49.3155C1.08057 49.5241 0.772662 49.7327 0.514414 49.9413V40.9721C0.762729 41.6873 1.01104 42.3329 1.26929 42.9189C1.51761 43.5049 1.79572 44.0314 2.08377 44.4883C2.74925 45.6206 3.63325 46.6138 4.7159 47.4681C5.79856 48.3223 7.0004 49.0573 8.32144 49.6632C9.64247 50.269 10.9933 50.7259 12.3938 51.0438C13.7943 51.3616 15.1253 51.5106 16.3768 51.5106C17.8369 51.5106 19.2672 51.302 20.6677 50.8849C22.0682 50.4677 23.3097 49.8519 24.4023 49.0374C25.485 48.2229 26.359 47.2098 27.0047 45.998C27.6503 44.7863 27.9781 43.3659 27.9781 41.7369C27.9781 40.0186 27.4814 38.4095 26.508 36.9097C25.5247 35.4099 24.3626 34.1484 23.0316 33.1452C22.4853 32.6883 21.5219 32.0527 20.1512 31.2382C18.7705 30.4237 16.9529 29.3709 14.6982 28.0697C12.4435 26.8579 10.5364 25.7455 8.98692 24.7423C7.43744 23.7391 6.20579 22.8849 5.29199 22.1697C3.66305 20.9579 2.37181 19.5574 1.43815 17.9682C0.494549 16.379 0.0277169 14.5216 0.0277169 12.3861L-0.00208092 12.3563Z" fill="white"/>
<path d="M46.3335 50.7258C47.2076 50.1398 47.8433 49.365 48.2108 48.4016C48.2902 48.0639 48.4094 47.5275 48.5584 46.7726C48.7074 46.0177 48.7769 44.7265 48.7769 42.889V8.84002C48.7769 7.62824 48.7372 6.61512 48.6478 5.80065C48.5683 4.98617 48.4491 4.31076 48.3002 3.76446C48.1512 3.21817 47.9922 2.801 47.8333 2.51296C47.6645 2.22491 47.5155 1.98653 47.3963 1.82761C47.2672 1.74815 47.148 1.62895 47.0188 1.47997C46.8897 1.33098 46.7705 1.22172 46.6414 1.13232H78.8727L79.121 5.77085C79.0415 5.56226 78.9522 5.38348 78.8727 5.23449C78.7932 5.0855 78.7038 4.95638 78.6244 4.82725C78.0781 3.95318 77.5119 3.2877 76.9358 2.85066C76.3498 2.41363 75.7241 2.10572 75.0586 1.93686C74.3931 1.76801 73.6879 1.68855 72.9529 1.68855H53.3558V24.5137H67.6886C68.3342 24.5137 68.9798 24.4739 69.6354 24.3845C70.281 24.3051 70.9067 24.1561 71.5126 23.9475C72.1185 23.7389 72.6549 23.4211 73.1118 23.0039C73.4495 22.7556 73.7177 22.4775 73.9263 22.1894C74.1348 21.9014 74.3434 21.5835 74.552 21.2458V28.2682C73.9263 27.0961 72.9827 26.2419 71.7312 25.6956C70.728 25.199 69.7744 24.9507 68.8805 24.9706C67.9766 24.9904 66.9635 25.0004 65.8411 25.0004H53.3658V50.1497H71.8603C73.0721 50.1497 74.115 50.0305 74.999 49.8021C75.883 49.5736 76.6677 49.226 77.3828 48.7691C78.098 48.3122 78.7634 47.746 79.3892 47.0805C80.0149 46.415 80.6606 45.6403 81.336 44.7563L79.2005 50.7159H46.3434L46.3335 50.7258Z" fill="white"/>
<path d="M100.834 1.13249L134.883 42.8891V8.84019C134.883 6.96293 134.763 5.47304 134.535 4.39038C134.307 3.30773 133.939 2.46346 133.442 1.87744C133.313 1.74831 133.184 1.62912 133.035 1.5C132.886 1.37087 132.757 1.25168 132.628 1.12256H137.892C137.644 1.29141 137.415 1.49006 137.207 1.71851C136.998 1.94696 136.79 2.18535 136.581 2.44359C136.243 2.98989 135.985 3.77456 135.796 4.79762C135.608 5.82068 135.518 7.17151 135.518 8.84019V50.7955L99.6418 6.96293V43.0779C99.6418 46.6735 100.079 48.9679 100.963 49.9711C101.132 50.1002 101.281 50.2293 101.4 50.3783C101.529 50.5273 101.688 50.6366 101.906 50.726H96.6421C96.8904 50.5174 97.1189 50.3187 97.3275 50.13C97.536 49.9413 97.7248 49.7228 97.8936 49.4745C98.5988 48.4713 98.9564 46.3358 98.9564 43.0779V6.14845L98.6386 5.77102C97.0891 3.93348 95.8574 2.70184 94.9436 2.06616C94.5265 1.68872 94.0199 1.38081 93.4339 1.12256H100.834V1.13249Z" fill="white"/>
<path d="M152.563 12.3563C152.563 10.479 152.95 8.77064 153.725 7.25095C154.5 5.72133 155.533 4.43009 156.824 3.36731C158.115 2.30452 159.605 1.48011 161.274 0.894088C162.942 0.308065 164.68 0.0200195 166.478 0.0200195C169.11 0.0200195 171.891 0.645773 174.822 1.89728C176.371 2.61243 177.583 2.96007 178.457 2.96007C179.46 2.96007 180.314 2.62236 181.029 1.95688L181.159 1.82775V10.7274C180.95 10.1413 180.732 9.60498 180.503 9.12821C180.275 8.65145 180.036 8.17468 179.778 7.71778C179.113 6.58547 178.278 5.58228 177.305 4.70821C176.321 3.83414 175.249 3.07926 174.077 2.45351C172.905 1.82775 171.673 1.35099 170.382 1.01328C169.081 0.675571 167.789 0.51665 166.498 0.51665C165.207 0.51665 163.916 0.725234 162.644 1.1424C161.373 1.55957 160.241 2.16546 159.257 2.96007C158.274 3.75468 157.479 4.72807 156.873 5.88025C156.268 7.03244 155.96 8.31374 155.96 9.7341C155.96 11.661 156.625 13.4092 157.966 14.9984C159.595 17.0048 163.508 19.6766 169.696 23.0239C172.12 24.3251 174.156 25.4574 175.815 26.4407C177.464 27.4241 178.735 28.2485 179.609 28.914C181.069 30.1257 182.271 31.5759 183.215 33.2744C184.158 34.9728 184.625 36.8203 184.625 38.8267C184.625 42.3428 183.225 45.412 180.424 48.0441C177.623 50.6763 173.987 51.9973 169.518 51.9973C167.849 51.9973 166.349 51.8285 165.038 51.5007C163.717 51.163 162.267 50.7458 160.678 50.2492C158.959 49.6632 157.747 49.3056 157.042 49.1864C156.327 49.0573 155.83 48.9977 155.533 48.9977C154.907 48.9977 154.4 49.1069 154.023 49.3155C153.645 49.5241 153.337 49.7327 153.079 49.9413V40.9721C153.327 41.6873 153.576 42.3329 153.834 42.9189C154.082 43.5049 154.36 44.0314 154.649 44.4883C155.314 45.6206 156.198 46.6138 157.281 47.4681C158.363 48.3223 159.565 49.0573 160.886 49.6632C162.207 50.269 163.558 50.7259 164.959 51.0438C166.359 51.3616 167.69 51.5106 168.942 51.5106C170.402 51.5106 171.832 51.302 173.232 50.8849C174.633 50.4677 175.874 49.8519 176.967 49.0374C178.05 48.2229 178.924 47.2098 179.569 45.998C180.215 44.7863 180.543 43.3659 180.543 41.7369C180.543 40.0186 180.046 38.4095 179.073 36.9097C178.089 35.4099 176.927 34.1484 175.596 33.1452C175.05 32.6883 174.087 32.0527 172.716 31.2382C171.335 30.4237 169.518 29.3709 167.263 28.0697C165.008 26.8579 163.101 25.7455 161.552 24.7423C160.002 23.7391 158.771 22.8849 157.857 22.1697C156.228 20.9579 154.937 19.5574 154.003 17.9682C153.059 16.379 152.592 14.5216 152.592 12.3861L152.563 12.3563Z" fill="white"/>
<path d="M195.76 50.7257C196.306 50.4774 196.842 49.9808 197.388 49.2557C197.935 48.5207 198.451 47.7162 198.958 46.8421C199.464 45.968 199.911 45.094 200.309 44.2398C200.706 43.3856 201.004 42.7002 201.222 42.2036L219.032 0.496582L236.652 42.6307C237.447 44.5079 238.202 46.0475 238.907 47.2394C239.612 48.4313 240.327 49.3451 241.042 49.9709C241.211 50.1 241.38 50.2291 241.539 50.3781C241.708 50.5271 241.896 50.6363 242.105 50.7257H231.318C231.904 50.3086 232.321 49.8119 232.57 49.2557C232.818 48.6995 232.947 48.0936 232.947 47.4678C232.947 46.8421 232.818 46.0376 232.57 45.0542C232.321 44.0709 231.904 42.9088 231.318 41.5778L227.872 33.4927H205.613L201.789 42.2731C201.332 43.4451 200.984 44.4483 200.756 45.2827C200.527 46.117 200.408 46.8322 200.408 47.4182C200.408 47.8354 200.497 48.332 200.686 48.8882C200.875 49.4444 201.322 50.0305 202.037 50.6165L202.285 50.7456H195.76V50.7257ZM205.801 32.9861H227.812L216.966 7.09183L205.801 32.9861Z" fill="white"/>
<path d="M245.929 1.13249H286.057L286.246 6.39677C285.749 5.48297 285.163 4.71816 284.487 4.11227C283.822 3.50638 283.087 3.02962 282.292 2.67204C281.498 2.31447 280.644 2.06616 279.72 1.91717C278.796 1.76818 277.862 1.69865 276.899 1.69865H268.119V43.0878C268.119 46.6834 268.595 48.9778 269.559 49.981C269.807 50.3187 270.105 50.567 270.433 50.7359H261.156C261.652 50.3585 262.05 49.9413 262.348 49.4844C263.142 48.4415 263.54 46.306 263.54 43.0878V1.68872H255.822C254.779 1.68872 253.796 1.71851 252.872 1.77811C251.948 1.83771 251.094 2.00656 250.299 2.28467C249.505 2.55285 248.75 2.95016 248.045 3.47658C247.33 4.00301 246.664 4.71816 246.038 5.64189C245.959 5.72135 245.889 5.82068 245.85 5.92C245.81 6.02926 245.75 6.11866 245.661 6.19812L245.909 1.12256L245.929 1.13249Z" fill="white"/>
<path d="M308.575 1.13249C308.366 1.30135 308.158 1.48013 307.949 1.66885C307.741 1.85757 307.572 2.05622 307.452 2.26481C306.578 3.30773 306.131 5.57236 306.131 9.03884V42.8395C306.131 44.7167 306.201 46.0676 306.35 46.882C306.499 47.6965 306.608 48.2726 306.698 48.6103C307.075 49.4844 307.721 50.1995 308.644 50.7458H299.108C299.565 50.4975 299.943 50.1399 300.241 49.683C301.075 48.6004 301.492 46.3159 301.492 42.8494V9.02891C301.492 7.15165 301.433 5.81075 301.304 5.01614C301.174 4.22153 301.055 3.65537 300.926 3.31766C300.549 2.44359 299.923 1.70858 299.049 1.12256H308.585L308.575 1.13249Z" fill="white"/>
<path d="M323.244 25.7749C323.244 17.7891 325.916 11.3528 331.27 6.46596C333.614 4.29072 336.107 2.6717 338.759 1.60891C341.411 0.546126 344.371 0.00976562 347.629 0.00976562C350.887 0.00976562 353.896 0.605722 356.787 1.79763C359.667 2.98955 362.309 4.81714 364.683 7.28043C369.362 12.1275 371.706 18.256 371.706 25.6557C371.706 29.4599 371.12 32.9165 369.948 36.0353C368.775 39.1541 366.998 41.9651 364.614 44.4681C362.27 46.8916 359.598 48.759 356.588 50.0502C353.579 51.3414 350.46 51.997 347.242 51.997C344.023 51.997 340.895 51.3812 337.994 50.1495C335.084 48.9179 332.482 47.1102 330.187 44.7263C325.549 39.8792 323.225 33.5621 323.225 25.7849L323.244 25.7749ZM329.393 25.5862C329.393 28.5561 329.651 31.5756 330.177 34.6447C330.704 37.7139 331.628 40.495 332.968 42.9881C334.309 45.4713 336.137 47.5174 338.451 49.1066C340.776 50.6958 343.706 51.4904 347.261 51.4904C350.817 51.4904 353.906 50.7753 356.29 49.3549C358.674 47.9346 360.551 46.0672 361.932 43.743C363.313 41.4188 364.286 38.7767 364.852 35.8069C365.418 32.837 365.696 29.8076 365.696 26.7185C365.696 17.4415 363.819 10.4787 360.055 5.8402C358.545 3.87355 356.787 2.49292 354.761 1.69831C352.734 0.9037 350.36 0.506396 347.639 0.506396C344.043 0.506396 341.064 1.24141 338.7 2.7015C336.336 4.16159 334.468 6.07858 333.088 8.44254C331.707 10.8065 330.744 13.4784 330.207 16.4681C329.661 19.4578 329.393 22.4972 329.393 25.5961V25.5862Z" fill="white"/>
<path d="M390.776 1.13249L424.825 42.8891V8.84019C424.825 6.96293 424.706 5.47304 424.477 4.39038C424.249 3.30773 423.882 2.46346 423.385 1.87744C423.256 1.74831 423.127 1.62912 422.978 1.5C422.829 1.37087 422.7 1.25168 422.57 1.12256H427.835C427.586 1.29141 427.358 1.49006 427.149 1.71851C426.941 1.94696 426.732 2.18535 426.524 2.44359C426.186 2.98989 425.928 3.77456 425.739 4.79762C425.55 5.82068 425.461 7.17151 425.461 8.84019V50.7955L389.594 6.96293V43.0779C389.594 46.6735 390.031 48.9679 390.915 49.9711C391.084 50.1002 391.233 50.2293 391.352 50.3783C391.481 50.5273 391.64 50.6366 391.859 50.726H386.595C386.843 50.5174 387.071 50.3187 387.28 50.13C387.488 49.9413 387.677 49.7228 387.846 49.4745C388.551 48.4713 388.909 46.3358 388.909 43.0779V6.14845L388.591 5.77102C387.042 3.93348 385.81 2.70184 384.896 2.06616C384.479 1.68872 383.972 1.38081 383.386 1.12256H390.786L390.776 1.13249Z" fill="white"/>
<path d="M440.32 50.7257C440.866 50.4774 441.403 49.9808 441.949 49.2557C442.495 48.5207 443.012 47.7162 443.518 46.8421C444.025 45.968 444.472 45.094 444.869 44.2398C445.266 43.3856 445.564 42.7002 445.783 42.2036L463.582 0.496582L481.203 42.6307C481.997 44.5079 482.752 46.0475 483.457 47.2394C484.163 48.4313 484.878 49.3451 485.593 49.9709C485.762 50.1 485.931 50.2291 486.089 50.3781C486.258 50.5271 486.447 50.6363 486.656 50.7257H475.869C476.455 50.3086 476.872 49.8119 477.12 49.2557C477.369 48.6995 477.498 48.0936 477.498 47.4678C477.498 46.8421 477.369 46.0376 477.12 45.0542C476.872 44.0709 476.455 42.9088 475.869 41.5778L472.422 33.4927H450.163L446.339 42.2731C445.882 43.4451 445.535 44.4483 445.306 45.2827C445.078 46.117 444.959 46.8322 444.959 47.4182C444.959 47.8354 445.048 48.332 445.237 48.8882C445.425 49.4444 445.872 50.0305 446.587 50.6165L446.836 50.7456H440.31L440.32 50.7257ZM450.352 32.9861H472.363L461.516 7.09183L450.352 32.9861Z" fill="white"/>
<path d="M499.2 50.7258C499.449 50.5172 499.687 50.3086 499.926 50.1C500.154 49.8915 500.373 49.6233 500.581 49.2856C500.919 48.6995 501.177 47.9049 501.366 46.9017C501.554 45.8986 501.644 44.5378 501.644 42.8294V9.02874C501.644 5.43314 501.167 3.06918 500.204 1.9468C500.035 1.81767 499.886 1.68855 499.767 1.53956C499.637 1.39057 499.479 1.26145 499.27 1.13232H509.242C508.319 1.71835 507.593 2.47323 507.047 3.38702C506.968 3.55588 506.868 3.78433 506.769 4.07237C506.66 4.36042 506.58 4.75772 506.521 5.26429C506.461 5.77085 506.402 6.3966 506.362 7.14155C506.322 7.89642 506.302 8.81022 506.302 9.90281V42.8194C506.302 45.1635 506.551 46.8322 507.057 47.8354C507.603 48.6697 508.309 49.2756 509.193 49.6531C509.362 49.7325 509.57 49.812 509.818 49.8716C510.067 49.9312 510.434 49.9908 510.911 50.0305C511.388 50.0702 512.014 50.1 512.788 50.1199C513.563 50.1398 514.536 50.1497 515.708 50.1497H519.532C521.668 50.1497 523.466 50.0802 524.926 49.9312C526.386 49.7822 527.578 49.5239 528.502 49.1465C528.919 48.9777 529.415 48.7492 529.972 48.4612C530.538 48.1731 531.074 47.8255 531.601 47.4282C532.127 47.0309 532.614 46.6137 533.071 46.1767C533.528 45.7396 533.865 45.3125 534.074 44.8954L532.256 50.7258H499.21H499.2Z" fill="white"/>
<path d="M576.327 50.7257C576.873 50.4774 577.41 49.9808 577.956 49.2557C578.502 48.5207 579.019 47.7162 579.525 46.8421C580.032 45.968 580.479 45.094 580.876 44.2398C581.274 43.3856 581.571 42.7002 581.79 42.2036L599.589 0.496582L617.21 42.6307C618.004 44.5079 618.759 46.0475 619.464 47.2394C620.17 48.4313 620.885 49.3451 621.6 49.9709C621.769 50.1 621.938 50.2291 622.097 50.3781C622.265 50.5271 622.454 50.6363 622.663 50.7257H611.876C612.462 50.3086 612.879 49.8119 613.127 49.2557C613.376 48.6995 613.505 48.0936 613.505 47.4678C613.505 46.8421 613.376 46.0376 613.127 45.0542C612.879 44.0709 612.462 42.9088 611.876 41.5778L608.429 33.4927H586.17L582.346 42.2731C581.889 43.4451 581.542 44.4483 581.313 45.2827C581.085 46.117 580.966 46.8322 580.966 47.4182C580.966 47.8354 581.055 48.332 581.244 48.8882C581.432 49.4444 581.879 50.0305 582.595 50.6165L582.843 50.7456H576.317L576.327 50.7257ZM586.359 32.9861H608.37L597.523 7.09183L586.359 32.9861Z" fill="white"/>
<path d="M636.578 49.2856C636.827 48.9479 637.065 48.332 637.303 47.4381C637.532 46.5442 637.651 45.0046 637.651 42.8294V9.02874C637.651 7.15148 637.532 5.64172 637.303 4.51934C637.075 3.38702 636.707 2.53282 636.211 1.9468C636.042 1.81767 635.883 1.68855 635.744 1.53956C635.595 1.39057 635.436 1.26145 635.277 1.13232L649.51 1.19192C651.517 1.19192 653.623 1.36077 655.847 1.68855C658.062 2.02626 660.079 2.63215 661.896 3.50622C663.714 4.38028 665.224 5.61193 666.416 7.17134C667.608 8.73076 668.204 10.7769 668.204 13.2898C668.204 15.0876 667.886 16.657 667.26 17.9979C666.634 19.3388 665.78 20.481 664.687 21.4445C663.605 22.408 662.343 23.2026 660.923 23.8283C659.503 24.4541 657.993 24.9408 656.404 25.2685L654.338 25.7652L666.376 42.5115C666.962 43.3061 667.568 44.1107 668.194 44.9252C668.819 45.7396 669.495 46.5144 670.23 47.2494C670.965 47.9844 671.74 48.6499 672.554 49.2558C673.369 49.8617 674.233 50.3484 675.156 50.7258H667.508L649.888 26.3313C651.606 26.083 653.205 25.636 654.685 25.0103C656.165 24.3845 657.476 23.5502 658.609 22.4973C659.741 21.4544 660.625 20.2128 661.271 18.7627C661.916 17.3225 662.244 15.6637 662.244 13.7765C662.244 11.8893 661.966 10.2604 661.4 8.76056C660.834 7.25081 659.95 5.9397 658.738 4.80739C658.023 4.05251 657.337 3.46649 656.672 3.04932C656.006 2.63215 655.311 2.32424 654.606 2.13552C653.891 1.9468 653.136 1.81767 652.321 1.75808C651.507 1.69848 650.573 1.66868 649.53 1.66868H642.26V42.8095C642.26 46.5342 642.736 48.8883 643.7 49.8915C643.988 50.2689 644.306 50.5371 644.644 50.7059H635.237C635.486 50.4973 635.724 50.2888 635.962 50.0802C636.191 49.8716 636.409 49.6034 636.618 49.2657L636.578 49.2856Z" fill="white"/>
<path d="M683.867 25.8943C683.867 22.259 684.404 18.862 685.467 15.7034C686.529 12.5449 688.079 9.81341 690.105 7.48918C692.131 5.16495 694.644 3.33735 697.634 2.00639C700.624 0.665484 704.06 0 707.954 0H709.394C711.401 0 713.099 0.188719 714.509 0.566158C715.91 0.943597 717.102 1.35083 718.085 1.78787C719.069 2.2249 719.903 2.63214 720.598 3.00958C721.293 3.38702 721.969 3.57574 722.634 3.57574C723.389 3.57574 724.045 3.39695 724.611 3.03938C725.177 2.6818 725.664 2.21497 726.081 1.62895L726.766 11.0947C725.972 9.59489 724.998 8.20433 723.846 6.92302C722.694 5.65165 721.442 4.5392 720.082 3.5956C718.721 2.652 717.271 1.92692 715.721 1.4005C714.172 0.874069 712.563 0.615821 710.894 0.615821C707.09 0.615821 703.852 1.30117 701.17 2.652C698.498 4.01277 696.323 5.8503 694.644 8.1646C692.976 10.4888 691.764 13.1706 691.009 16.2199C690.254 19.2692 689.877 22.4874 689.877 25.8744C689.877 29.2614 690.254 32.4895 691.009 35.5587C691.764 38.6279 692.976 41.3295 694.644 43.6438C696.313 45.9681 698.488 47.8155 701.17 49.1962C703.842 50.5768 707.09 51.2621 710.894 51.2621C714.45 51.2621 717.579 50.3484 720.3 48.5307C723.022 46.713 725.167 44.1107 726.756 40.7237L726.071 50.1894C725.197 48.9379 724.045 48.3122 722.624 48.3122C721.959 48.3122 721.343 48.5009 720.777 48.8783C720.211 49.2558 719.476 49.663 718.582 50.1C717.678 50.5371 716.526 50.9443 715.105 51.3217C713.685 51.6992 711.778 51.9078 709.394 51.9475H707.954C704.07 51.9475 700.624 51.282 697.634 49.9411C694.644 48.6002 692.141 46.7627 690.105 44.4186C688.079 42.0745 686.529 39.3232 685.467 36.1447C684.404 32.9663 683.867 29.5396 683.867 25.8645V25.8943Z" fill="white"/>
<path d="M750.585 1.13249C749.711 1.71851 749.075 2.49326 748.707 3.45672C748.578 3.79443 748.459 4.34072 748.33 5.11546C748.201 5.89021 748.141 7.21124 748.141 9.09844V25.2091H775.227V9.0885C775.227 7.16158 775.168 5.81075 775.039 5.01614C774.91 4.22153 774.77 3.65537 774.602 3.31766C774.224 2.44359 773.618 1.70858 772.784 1.12256H782.319C781.445 1.66885 780.809 2.46346 780.442 3.50638C780.313 3.84409 780.194 4.39038 780.065 5.16513C779.935 5.93987 779.876 7.24104 779.876 9.0885V42.8196C779.876 44.7863 779.945 46.157 780.094 46.9218C780.243 47.6965 780.372 48.2527 780.502 48.5805C780.79 49.4149 781.425 50.13 782.379 50.716H772.844C773.052 50.5869 773.241 50.4379 773.41 50.2492C773.579 50.0605 773.767 49.8618 773.976 49.6532C774.81 48.5706 775.227 46.2861 775.227 42.8196V25.6958H748.141V42.8196C748.141 44.7863 748.211 46.157 748.36 46.9218C748.509 47.6965 748.618 48.2527 748.707 48.5805C749.085 49.4546 749.73 50.1697 750.654 50.716H741.119C741.576 50.4677 741.953 50.1101 742.251 49.6532C743.085 48.5706 743.503 46.2861 743.503 42.8196V9.0885C743.503 7.16158 743.443 5.81075 743.314 5.01614C743.185 4.22153 743.066 3.65537 742.936 3.31766C742.559 2.44359 741.933 1.70858 741.059 1.12256H750.595L750.585 1.13249Z" fill="white"/>
<path d="M806.576 1.13249C806.367 1.30135 806.158 1.48013 805.95 1.66885C805.741 1.85757 805.572 2.05622 805.453 2.26481C804.579 3.30773 804.132 5.57236 804.132 9.03884V42.8395C804.132 44.7167 804.201 46.0676 804.351 46.882C804.5 47.6965 804.609 48.2726 804.698 48.6103C805.076 49.4844 805.721 50.1995 806.645 50.7458H797.109C797.566 50.4975 797.943 50.1399 798.241 49.683C799.076 48.6004 799.493 46.3159 799.493 42.8494V9.02891C799.493 7.15165 799.433 5.81075 799.304 5.01614C799.175 4.22153 799.056 3.65537 798.927 3.31766C798.549 2.44359 797.923 1.70858 797.049 1.12256H806.586L806.576 1.13249Z" fill="white"/>
<path d="M819.686 1.13249H859.814L860.002 6.39677C859.506 5.48297 858.92 4.71816 858.244 4.11227C857.579 3.50638 856.844 3.02962 856.049 2.67204C855.254 2.31447 854.4 2.06616 853.477 1.91717C852.553 1.76818 851.619 1.69865 850.656 1.69865H841.875V43.0878C841.875 46.6834 842.352 48.9778 843.315 49.981C843.564 50.3187 843.862 50.567 844.19 50.7359H834.912C835.409 50.3585 835.806 49.9413 836.104 49.4844C836.899 48.4415 837.296 46.306 837.296 43.0878V1.68872H829.579C828.536 1.68872 827.552 1.71851 826.629 1.77811C825.705 1.83771 824.851 2.00656 824.056 2.28467C823.262 2.55285 822.507 2.95016 821.801 3.47658C821.086 4.00301 820.421 4.71816 819.795 5.64189C819.716 5.72135 819.646 5.82068 819.606 5.92C819.567 6.02926 819.507 6.11866 819.418 6.19812L819.666 1.12256L819.686 1.13249Z" fill="white"/>
<path d="M872.795 50.7258C873.669 50.1398 874.305 49.365 874.673 48.4016C874.752 48.0639 874.871 47.5275 875.02 46.7726C875.169 46.0177 875.239 44.7265 875.239 42.889V8.84002C875.239 7.62824 875.199 6.61512 875.11 5.80065C875.03 4.98617 874.911 4.31076 874.762 3.76446C874.613 3.21817 874.454 2.801 874.295 2.51296C874.126 2.22491 873.977 1.98653 873.858 1.82761C873.729 1.74815 873.61 1.62895 873.481 1.47997C873.352 1.33098 873.232 1.22172 873.103 1.13232H905.335L905.583 5.77085C905.503 5.56226 905.414 5.38348 905.335 5.23449C905.255 5.0855 905.166 4.95638 905.086 4.82725C904.54 3.95318 903.974 3.2877 903.398 2.85066C902.812 2.41363 902.186 2.10572 901.52 1.93686C900.855 1.76801 900.15 1.68855 899.415 1.68855H879.818V24.5137H894.15C894.796 24.5137 895.442 24.4739 896.097 24.3845C896.743 24.3051 897.369 24.1561 897.975 23.9475C898.58 23.7389 899.117 23.4211 899.574 23.0039C899.911 22.7556 900.18 22.4775 900.388 22.1894C900.597 21.9014 900.805 21.5835 901.014 21.2458V28.2682C900.388 27.0961 899.445 26.2419 898.193 25.6956C897.19 25.199 896.236 24.9507 895.342 24.9706C894.438 24.9904 893.425 25.0004 892.303 25.0004H879.828V50.1497H898.322C899.534 50.1497 900.577 50.0305 901.461 49.8021C902.345 49.5736 903.13 49.226 903.845 48.7691C904.56 48.3122 905.225 47.746 905.851 47.0805C906.477 46.415 907.122 45.6403 907.798 44.7563L905.662 50.7159H872.805L872.795 50.7258Z" fill="white"/>
<path d="M918.753 25.8943C918.753 22.259 919.29 18.862 920.353 15.7034C921.415 12.5449 922.965 9.81341 924.991 7.48918C927.017 5.16495 929.53 3.33735 932.52 2.00639C935.51 0.665484 938.946 0 942.84 0H944.28C946.287 0 947.985 0.188719 949.396 0.566158C950.796 0.943597 951.988 1.35083 952.971 1.78787C953.955 2.2249 954.789 2.63214 955.484 3.00958C956.179 3.38702 956.855 3.57574 957.52 3.57574C958.275 3.57574 958.931 3.39695 959.497 3.03938C960.063 2.6818 960.55 2.21497 960.967 1.62895L961.652 11.0947C960.858 9.59489 959.884 8.20433 958.732 6.92302C957.58 5.65165 956.329 4.5392 954.968 3.5956C953.607 2.652 952.157 1.92692 950.607 1.4005C949.058 0.874069 947.449 0.615821 945.78 0.615821C941.976 0.615821 938.738 1.30117 936.056 2.652C933.384 4.01277 931.209 5.8503 929.53 8.1646C927.862 10.4888 926.65 13.1706 925.895 16.2199C925.14 19.2692 924.763 22.4874 924.763 25.8744C924.763 29.2614 925.14 32.4895 925.895 35.5587C926.65 38.6279 927.862 41.3295 929.53 43.6438C931.199 45.9681 933.374 47.8155 936.056 49.1962C938.728 50.5768 941.976 51.2621 945.78 51.2621C949.336 51.2621 952.465 50.3484 955.186 48.5307C957.908 46.713 960.053 44.1107 961.642 40.7237L960.957 50.1894C960.083 48.9379 958.931 48.3122 957.511 48.3122C956.845 48.3122 956.229 48.5009 955.663 48.8783C955.097 49.2558 954.372 49.663 953.468 50.1C952.564 50.5371 951.412 50.9443 949.992 51.3217C948.571 51.6992 946.664 51.9078 944.28 51.9475H942.84C938.956 51.9475 935.51 51.282 932.52 49.9411C929.53 48.6002 927.027 46.7627 924.991 44.4186C922.965 42.0745 921.415 39.3232 920.353 36.1447C919.29 32.9663 918.753 29.5396 918.753 25.8645V25.8943Z" fill="white"/>
<path d="M974.247 1.13249H1014.37L1014.56 6.39677C1014.07 5.48297 1013.48 4.71816 1012.81 4.11227C1012.14 3.50638 1011.4 3.02962 1010.61 2.67204C1009.82 2.31447 1008.96 2.06616 1008.04 1.91717C1007.11 1.76818 1006.18 1.69865 1005.22 1.69865H996.436V43.0878C996.436 46.6834 996.913 48.9778 997.877 49.981C998.125 50.3187 998.423 50.567 998.751 50.7359H989.474C989.97 50.3585 990.368 49.9413 990.666 49.4844C991.46 48.4415 991.858 46.306 991.858 43.0878V1.68872H984.15C983.107 1.68872 982.124 1.71851 981.2 1.77811C980.276 1.83771 979.422 2.00656 978.627 2.28467C977.833 2.55285 977.078 2.95016 976.373 3.47658C975.657 4.00301 974.992 4.71816 974.366 5.64189C974.287 5.72135 974.217 5.82068 974.177 5.92C974.138 6.02926 974.078 6.11866 973.989 6.19812L974.237 1.12256L974.247 1.13249Z" fill="white"/>
<path d="M1027.05 1.13249H1036.58C1035.37 2.17541 1034.65 3.36733 1034.42 4.70823C1034.19 6.04913 1034.07 7.48936 1034.07 9.03884V31.864C1034.07 34.4564 1034.26 36.9296 1034.64 39.2935C1035.01 41.6575 1035.76 43.7235 1036.86 45.5014C1037.97 47.2794 1039.49 48.6997 1041.44 49.7625C1043.39 50.8253 1045.92 51.3616 1049.06 51.3616C1052.73 51.3616 1056.02 50.567 1058.9 48.9778C1060.78 47.9349 1062.25 46.743 1063.29 45.4021C1064.34 44.0612 1065.11 42.6011 1065.62 41.0119C1066.11 39.4227 1066.42 37.7242 1066.53 35.8966C1066.63 34.0789 1066.69 32.2116 1066.69 30.2847V9.02891C1066.69 5.43331 1066.21 3.06935 1065.25 1.94696C1065.08 1.81784 1064.93 1.68872 1064.81 1.53973C1064.69 1.39074 1064.52 1.26161 1064.32 1.13249H1070.15C1068.81 2.17541 1068.01 3.40706 1067.76 4.82742C1067.51 6.24778 1067.38 7.75753 1067.38 9.33682V30.533C1067.38 32.4102 1067.33 34.218 1067.2 35.9562C1067.07 37.6944 1066.78 39.3432 1066.32 40.9126C1065.87 42.4819 1065.15 43.942 1064.19 45.3028C1063.22 46.6635 1061.91 47.925 1060.23 49.097C1057.43 51.0637 1053.57 52.047 1048.63 52.047C1046.71 52.047 1044.82 51.898 1042.96 51.61C1041.1 51.3219 1039.37 50.7856 1037.76 50.0108C1036.15 49.2361 1034.74 48.2031 1033.52 46.9118C1032.31 45.6206 1031.35 43.9619 1030.64 41.9555C1029.81 39.7802 1029.39 35.6185 1029.39 29.4801V9.02891C1029.39 7.19138 1029.26 5.69155 1029.02 4.54931C1028.77 3.39712 1028.35 2.49326 1027.76 1.81784C1027.68 1.68872 1027.58 1.56953 1027.49 1.4404C1027.38 1.31128 1027.25 1.21195 1027.08 1.12256L1027.05 1.13249Z" fill="white"/>
<path d="M1085.8 49.2856C1086.05 48.9479 1086.29 48.332 1086.53 47.4381C1086.75 46.5442 1086.87 45.0046 1086.87 42.8294V9.02874C1086.87 7.15148 1086.75 5.64172 1086.53 4.51934C1086.3 3.38702 1085.93 2.53282 1085.42 1.9468C1085.25 1.81767 1085.09 1.68855 1084.96 1.53956C1084.82 1.39057 1084.65 1.26145 1084.49 1.13232L1098.72 1.19192C1100.73 1.19192 1102.84 1.36077 1105.06 1.68855C1107.27 2.02626 1109.29 2.63215 1111.11 3.50622C1112.93 4.38028 1114.44 5.61193 1115.63 7.17134C1116.82 8.7407 1117.42 10.7769 1117.42 13.2898C1117.42 15.0876 1117.1 16.657 1116.47 17.9979C1115.85 19.3388 1114.99 20.481 1113.9 21.4445C1112.82 22.408 1111.56 23.2026 1110.13 23.8283C1108.71 24.4541 1107.2 24.9408 1105.62 25.2685L1103.55 25.7652L1115.59 42.5115C1116.17 43.3061 1116.78 44.1107 1117.41 44.9252C1118.03 45.7396 1118.71 46.5144 1119.44 47.2494C1120.18 47.9844 1120.94 48.6499 1121.77 49.2558C1122.58 49.8617 1123.44 50.3484 1124.37 50.7258H1116.72L1099.1 26.3313C1100.82 26.083 1102.41 25.636 1103.9 25.0103C1105.38 24.3845 1106.69 23.5502 1107.82 22.4973C1108.95 21.4544 1109.84 20.2128 1110.48 18.7627C1111.13 17.3125 1111.46 15.6637 1111.46 13.7765C1111.46 11.8893 1111.18 10.2604 1110.61 8.76056C1110.05 7.25081 1109.16 5.9397 1107.95 4.80739C1107.23 4.05251 1106.55 3.46649 1105.88 3.04932C1105.22 2.63215 1104.52 2.32424 1103.82 2.13552C1103.1 1.9468 1102.35 1.81767 1101.53 1.75808C1100.72 1.69848 1099.79 1.66868 1098.74 1.66868H1091.47V42.8095C1091.47 46.5342 1091.95 48.8883 1092.91 49.8915C1093.2 50.2689 1093.52 50.5371 1093.86 50.7059H1084.45C1084.7 50.4973 1084.94 50.2888 1085.17 50.0802C1085.41 49.8716 1085.62 49.6034 1085.83 49.2657L1085.8 49.2856Z" fill="white"/>
<path d="M1136.91 50.7258C1137.79 50.1398 1138.42 49.365 1138.79 48.4016C1138.87 48.0639 1138.99 47.5275 1139.14 46.7726C1139.29 46.0177 1139.36 44.7265 1139.36 42.889V8.84002C1139.36 7.62824 1139.32 6.61512 1139.23 5.80065C1139.15 4.98617 1139.03 4.31076 1138.88 3.76446C1138.73 3.21817 1138.57 2.801 1138.41 2.51296C1138.24 2.22491 1138.1 1.98653 1137.98 1.82761C1137.85 1.74815 1137.73 1.62895 1137.6 1.47997C1137.47 1.33098 1137.35 1.22172 1137.22 1.13232H1169.45L1169.7 5.77085C1169.62 5.56226 1169.53 5.38348 1169.45 5.23449C1169.37 5.0855 1169.28 4.95638 1169.2 4.82725C1168.66 3.95318 1168.09 3.2877 1167.52 2.85066C1166.93 2.41363 1166.3 2.10572 1165.64 1.93686C1164.97 1.76801 1164.27 1.68855 1163.54 1.68855H1143.95V24.5137H1158.27C1158.91 24.5137 1159.56 24.4739 1160.21 24.3845C1160.87 24.2951 1161.49 24.1561 1162.09 23.9475C1162.7 23.7389 1163.23 23.4211 1163.69 23.0039C1164.03 22.7556 1164.3 22.4775 1164.51 22.1894C1164.71 21.9014 1164.92 21.5835 1165.13 21.2458V28.2682C1164.51 27.0961 1163.56 26.2419 1162.31 25.6956C1161.31 25.199 1160.35 24.9507 1159.46 24.9706C1158.56 24.9904 1157.54 25.0004 1156.42 25.0004H1143.95V50.1497H1162.44C1163.65 50.1497 1164.69 50.0305 1165.58 49.8021C1166.46 49.5736 1167.25 49.226 1167.96 48.7691C1168.68 48.3122 1169.34 47.746 1169.97 47.0805C1170.59 46.415 1171.24 45.6403 1171.92 44.7563L1169.78 50.7159H1136.92L1136.91 50.7258Z" fill="white"/>
<path d="M1184.69 56.0001C1185.44 55.7518 1186.18 55.4141 1186.91 54.9969C1187.65 54.5797 1188.18 53.9937 1188.51 53.2388C1188.68 52.7819 1188.72 52.3945 1188.64 52.0767C1188.56 51.7589 1188.47 51.5006 1188.39 51.292C1188.23 51.1232 1188.01 50.9245 1187.74 50.6961C1187.47 50.4676 1186.95 50.1398 1186.2 49.7227C1185.95 49.5935 1185.76 49.4048 1185.63 49.1565C1185.18 48.491 1184.99 47.7759 1185.07 47.021C1185.2 46.435 1185.65 45.849 1186.45 45.2629C1187.11 44.806 1187.93 44.6769 1188.89 44.8855C1189.81 45.1338 1190.56 45.6801 1191.15 46.5144C1191.9 47.5574 1192.04 48.8784 1191.58 50.4676C1191.41 51.1828 1191.09 51.8482 1190.61 52.474C1190.13 53.0998 1189.57 53.656 1188.92 54.1327C1188.28 54.6095 1187.58 55.0068 1186.85 55.3247C1186.12 55.6425 1185.4 55.861 1184.69 55.9802V56.0001Z" fill="white"/>
<path d="M1226.64 12.3563C1226.64 10.479 1227.03 8.77064 1227.81 7.25095C1228.58 5.72133 1229.61 4.43009 1230.91 3.36731C1232.2 2.30452 1233.69 1.48011 1235.36 0.894088C1237.02 0.308065 1238.76 0.0200195 1240.56 0.0200195C1243.19 0.0200195 1245.97 0.645773 1248.9 1.89728C1250.45 2.61243 1251.66 2.96007 1252.54 2.96007C1253.54 2.96007 1254.4 2.62236 1255.11 1.95688L1255.24 1.82775V10.7274C1255.03 10.1413 1254.81 9.60498 1254.58 9.12821C1254.36 8.65145 1254.12 8.17468 1253.86 7.71778C1253.19 6.58547 1252.36 5.58228 1251.39 4.70821C1250.4 3.83414 1249.33 3.07926 1248.16 2.45351C1246.99 1.82775 1245.75 1.35099 1244.46 1.01328C1243.16 0.675571 1241.87 0.51665 1240.58 0.51665C1239.29 0.51665 1238 0.725234 1236.73 1.1424C1235.45 1.55957 1234.32 2.16546 1233.34 2.96007C1232.36 3.75468 1231.56 4.72807 1230.96 5.88025C1230.35 7.03244 1230.04 8.31374 1230.04 9.7341C1230.04 11.661 1230.71 13.4092 1232.05 14.9984C1233.68 17.0048 1237.59 19.6766 1243.78 23.0239C1246.2 24.3251 1248.24 25.4574 1249.9 26.4407C1251.55 27.4241 1252.82 28.2485 1253.69 28.914C1255.15 30.1257 1256.35 31.5759 1257.3 33.2744C1258.24 34.9728 1258.71 36.8203 1258.71 38.8267C1258.71 42.3428 1257.31 45.412 1254.51 48.0441C1251.7 50.6763 1248.07 51.9973 1243.6 51.9973C1241.93 51.9973 1240.43 51.8285 1239.12 51.5007C1237.8 51.163 1236.35 50.7458 1234.76 50.2492C1233.04 49.6632 1231.83 49.3056 1231.12 49.1864C1230.41 49.0573 1229.91 48.9977 1229.62 48.9977C1229 48.9977 1228.49 49.1069 1228.11 49.3155C1227.74 49.5241 1227.43 49.7327 1227.17 49.9413V40.9721C1227.42 41.6873 1227.68 42.3329 1227.93 42.9189C1228.17 43.5049 1228.45 44.0314 1228.74 44.4883C1229.41 45.6206 1230.29 46.6138 1231.37 47.4681C1232.45 48.3223 1233.66 49.0573 1234.98 49.6632C1236.3 50.269 1237.65 50.7259 1239.05 51.0438C1240.45 51.3616 1241.78 51.5106 1243.03 51.5106C1244.49 51.5106 1245.92 51.302 1247.32 50.8849C1248.72 50.4677 1249.97 49.8519 1251.06 49.0374C1252.14 48.2229 1253.02 47.2098 1253.66 45.998C1254.31 44.7863 1254.63 43.3659 1254.63 41.7369C1254.63 40.0186 1254.14 38.4095 1253.16 36.9097C1252.18 35.4099 1251.02 34.1484 1249.69 33.1452C1249.14 32.6883 1248.19 32.0527 1246.81 31.2382C1245.43 30.4237 1243.61 29.3709 1241.35 28.0697C1239.1 26.8579 1237.19 25.7455 1235.64 24.7423C1234.09 23.7391 1232.86 22.8849 1231.95 22.1697C1230.32 20.9579 1229.03 19.5574 1228.09 17.9682C1227.15 16.379 1226.68 14.5216 1226.68 12.3861L1226.64 12.3563Z" fill="white"/>
<path d="M1272.85 25.7749C1272.85 17.7891 1275.52 11.3528 1280.88 6.46596C1283.22 4.29072 1285.71 2.6717 1288.37 1.60891C1291.02 0.546126 1293.98 0.00976562 1297.24 0.00976562C1300.49 0.00976562 1303.5 0.605722 1306.39 1.79763C1309.27 2.98955 1311.92 4.81714 1314.29 7.28043C1318.97 12.1275 1321.31 18.256 1321.31 25.6557C1321.31 29.4599 1320.73 32.9165 1319.55 36.0353C1318.38 39.1541 1316.6 41.9651 1314.22 44.4681C1311.88 46.8916 1309.2 48.759 1306.19 50.0502C1303.18 51.3414 1300.07 51.997 1296.85 51.997C1293.63 51.997 1290.5 51.3812 1287.6 50.1495C1284.69 48.9179 1282.09 47.1102 1279.79 44.7263C1275.16 39.8792 1272.83 33.5621 1272.83 25.7849L1272.85 25.7749ZM1279 25.5862C1279 28.5561 1279.26 31.5756 1279.78 34.6447C1280.31 37.7139 1281.23 40.495 1282.57 42.9881C1283.92 45.4713 1285.74 47.5174 1288.06 49.1066C1290.38 50.6958 1293.31 51.4904 1296.87 51.4904C1300.42 51.4904 1303.51 50.7753 1305.9 49.3549C1308.28 47.9346 1310.16 46.0672 1311.54 43.743C1312.92 41.4188 1313.89 38.7767 1314.46 35.8069C1315.02 32.837 1315.3 29.8076 1315.3 26.7185C1315.3 17.4415 1313.43 10.4787 1309.66 5.8402C1308.16 3.87355 1306.39 2.49292 1304.37 1.69831C1302.34 0.9037 1299.97 0.506396 1297.25 0.506396C1293.65 0.506396 1290.67 1.24141 1288.31 2.7015C1285.94 4.16159 1284.07 6.07858 1282.69 8.44254C1281.31 10.8065 1280.35 13.4784 1279.81 16.4681C1279.27 19.4578 1279 22.4972 1279 25.5961V25.5862Z" fill="white"/>
<path d="M1335.62 1.13249H1345.16C1343.95 2.17541 1343.22 3.36733 1342.99 4.70823C1342.77 6.04913 1342.65 7.48936 1342.65 9.03884V31.864C1342.65 34.4564 1342.84 36.9296 1343.21 39.2935C1343.59 41.6575 1344.34 43.7235 1345.44 45.5014C1346.55 47.2794 1348.07 48.6997 1350.02 49.7625C1351.96 50.8253 1354.5 51.3616 1357.64 51.3616C1361.31 51.3616 1364.6 50.567 1367.48 48.9778C1369.36 47.9349 1370.83 46.743 1371.87 45.4021C1372.91 44.0612 1373.69 42.6011 1374.19 41.0119C1374.69 39.4227 1375 37.7242 1375.11 35.8966C1375.21 34.0789 1375.27 32.2116 1375.27 30.2847V9.02891C1375.27 5.43331 1374.79 3.06935 1373.83 1.94696C1373.66 1.81784 1373.51 1.68872 1373.39 1.53973C1373.27 1.39074 1373.1 1.26161 1372.89 1.13249H1378.72C1377.38 2.17541 1376.59 3.40706 1376.34 4.82742C1376.09 6.24778 1375.96 7.75753 1375.96 9.33682V30.533C1375.96 32.4102 1375.9 34.218 1375.77 35.9562C1375.64 37.6944 1375.36 39.3432 1374.9 40.9126C1374.44 42.4819 1373.73 43.942 1372.76 45.3028C1371.8 46.6635 1370.49 47.925 1368.81 49.097C1366.01 51.0637 1362.14 52.047 1357.21 52.047C1355.28 52.047 1353.39 51.898 1351.54 51.61C1349.68 51.3219 1347.94 50.7856 1346.33 50.0108C1344.72 49.2361 1343.31 48.2031 1342.1 46.9118C1340.89 45.6206 1339.93 43.9619 1339.22 41.9555C1338.39 39.7802 1337.97 35.6185 1337.97 29.4801V9.02891C1337.97 7.19138 1337.84 5.69155 1337.59 4.54931C1337.34 3.39712 1336.93 2.49326 1336.34 1.81784C1336.26 1.68872 1336.16 1.56953 1336.06 1.4404C1335.95 1.31128 1335.82 1.21195 1335.65 1.12256L1335.62 1.13249Z" fill="white"/>
<path d="M1393 50.7258C1393.24 50.5172 1393.48 50.3086 1393.72 50.1C1393.96 49.8915 1394.17 49.6233 1394.38 49.2856C1394.71 48.6995 1394.97 47.9049 1395.16 46.9017C1395.35 45.8986 1395.44 44.5378 1395.44 42.8294V9.02874C1395.44 5.43314 1394.96 3.06918 1394 1.9468C1393.83 1.81767 1393.68 1.68855 1393.56 1.53956C1393.43 1.39057 1393.27 1.26145 1393.06 1.13232H1403.04C1402.11 1.71835 1401.39 2.47323 1400.84 3.38702C1400.76 3.55588 1400.66 3.78433 1400.56 4.07237C1400.45 4.36042 1400.38 4.75772 1400.32 5.26429C1400.26 5.77085 1400.2 6.3966 1400.16 7.14155C1400.12 7.89642 1400.1 8.81022 1400.1 9.90281V42.8194C1400.1 45.1635 1400.35 46.8322 1400.85 47.8354C1401.4 48.6697 1402.1 49.2756 1402.99 49.6531C1403.16 49.7325 1403.37 49.812 1403.61 49.8716C1403.86 49.9312 1404.23 49.9908 1404.71 50.0305C1405.18 50.0702 1405.82 50.1 1406.58 50.1199C1407.36 50.1398 1408.33 50.1497 1409.5 50.1497H1413.33C1415.46 50.1497 1417.26 50.0802 1418.72 49.9312C1420.18 49.7822 1421.37 49.5239 1422.3 49.1465C1422.71 48.9777 1423.21 48.7492 1423.77 48.4612C1424.33 48.1731 1424.87 47.8255 1425.4 47.4282C1425.92 47.0309 1426.41 46.6137 1426.87 46.1767C1427.32 45.7396 1427.66 45.3125 1427.87 44.8954L1426.05 50.7258H1393.01H1393Z" fill="white"/>
<path d="M1471.75 1.13249L1471.94 6.71461C1471.22 5.08567 1470.18 3.84409 1468.8 2.97995C1467.42 2.12575 1465.83 1.69865 1464.03 1.69865H1447.6V24.5834H1458.52C1461.07 24.5834 1462.99 23.9576 1464.29 22.7061C1464.67 22.4181 1465.05 21.9115 1465.42 21.2063V27.9803C1464.59 26.7685 1463.58 25.9839 1462.38 25.6263C1461.19 25.2687 1459.91 25.0899 1458.53 25.0899H1447.61V42.8395C1447.61 44.8061 1447.68 46.1768 1447.83 46.9416C1447.98 47.7164 1448.09 48.2726 1448.18 48.6004C1448.56 49.4745 1449.2 50.1896 1450.13 50.7359H1440.59C1441.05 50.4876 1441.43 50.13 1441.72 49.6731C1442.56 48.5905 1442.98 46.306 1442.98 42.8395V9.02891C1442.98 7.15165 1442.92 5.81075 1442.79 5.01614C1442.66 4.22153 1442.54 3.65537 1442.41 3.31766C1442.03 2.44359 1441.41 1.70858 1440.53 1.12256H1471.76L1471.75 1.13249Z" fill="white"/>
<path d="M1484.73 1.13249H1494.27C1493.06 2.17541 1492.33 3.36733 1492.1 4.70823C1491.87 6.04913 1491.76 7.48936 1491.76 9.03884V31.864C1491.76 34.4564 1491.94 36.9296 1492.32 39.2935C1492.7 41.6575 1493.44 43.7235 1494.55 45.5014C1495.66 47.2794 1497.18 48.6997 1499.13 49.7625C1501.07 50.8253 1503.6 51.3616 1506.74 51.3616C1510.42 51.3616 1513.71 50.567 1516.59 48.9778C1518.46 47.9349 1519.93 46.743 1520.98 45.4021C1522.02 44.0612 1522.79 42.6011 1523.3 41.0119C1523.8 39.4227 1524.11 37.7242 1524.21 35.8966C1524.31 34.0789 1524.37 32.2116 1524.37 30.2847V9.02891C1524.37 5.43331 1523.9 3.06935 1522.93 1.94696C1522.76 1.81784 1522.62 1.68872 1522.5 1.53973C1522.38 1.39074 1522.21 1.26161 1522 1.13249H1527.83C1526.49 2.17541 1525.69 3.40706 1525.45 4.82742C1525.2 6.24778 1525.07 7.75753 1525.07 9.33682V30.533C1525.07 32.4102 1525.01 34.218 1524.88 35.9562C1524.75 37.6944 1524.46 39.3432 1524.01 40.9126C1523.55 42.4819 1522.83 43.942 1521.87 45.3028C1520.91 46.6635 1519.6 47.925 1517.92 49.097C1515.12 51.0637 1511.25 52.047 1506.32 52.047C1504.39 52.047 1502.5 51.898 1500.64 51.61C1498.79 51.3219 1497.05 50.7856 1495.44 50.0108C1493.83 49.2361 1492.42 48.2031 1491.21 46.9118C1490 45.6206 1489.03 43.9619 1488.33 41.9555C1487.49 39.7802 1487.08 35.6185 1487.08 29.4801V9.02891C1487.08 7.19138 1486.95 5.69155 1486.7 4.54931C1486.45 3.39712 1486.03 2.49326 1485.45 1.81784C1485.37 1.68872 1485.27 1.56953 1485.17 1.4404C1485.06 1.31128 1484.93 1.21195 1484.76 1.12256L1484.73 1.13249Z" fill="white"/>
<path d="M1542.11 50.7258C1542.36 50.5172 1542.6 50.3086 1542.84 50.1C1543.08 49.8915 1543.29 49.6233 1543.49 49.2856C1543.83 48.6995 1544.09 47.9049 1544.28 46.9017C1544.47 45.8986 1544.56 44.5378 1544.56 42.8294V9.02874C1544.56 5.43314 1544.08 3.06918 1543.12 1.9468C1542.95 1.81767 1542.8 1.68855 1542.68 1.53956C1542.55 1.39057 1542.39 1.26145 1542.18 1.13232H1552.16C1551.23 1.71835 1550.51 2.47323 1549.96 3.38702C1549.88 3.55588 1549.78 3.78433 1549.68 4.07237C1549.57 4.36042 1549.49 4.75772 1549.43 5.26429C1549.37 5.77085 1549.31 6.3966 1549.27 7.14155C1549.24 7.89642 1549.22 8.81022 1549.22 9.90281V42.8194C1549.22 45.1635 1549.46 46.8322 1549.97 47.8354C1550.52 48.6697 1551.22 49.2756 1552.11 49.6531C1552.27 49.7325 1552.48 49.812 1552.73 49.8716C1552.98 49.9312 1553.35 49.9908 1553.82 50.0305C1554.3 50.0702 1554.94 50.1 1555.7 50.1199C1556.48 50.1398 1557.45 50.1497 1558.62 50.1497H1562.45C1564.58 50.1497 1566.38 50.0802 1567.84 49.9312C1569.3 49.7822 1570.49 49.5239 1571.41 49.1465C1571.83 48.9777 1572.33 48.7492 1572.88 48.4612C1573.45 48.1731 1573.99 47.8255 1574.51 47.4282C1575.04 47.0309 1575.53 46.6137 1575.98 46.1767C1576.44 45.7396 1576.78 45.3125 1576.99 44.8954L1575.17 50.7258H1542.12H1542.11Z" fill="white"/>
<path d="M1621.49 50.7258C1621.74 50.5172 1621.98 50.3086 1622.22 50.1C1622.46 49.8915 1622.67 49.6233 1622.88 49.2856C1623.12 48.9081 1623.34 48.2824 1623.53 47.4083C1623.72 46.5342 1623.81 45.0046 1623.81 42.8294V9.02874C1623.81 7.15148 1623.7 5.64172 1623.49 4.51934C1623.28 3.38702 1622.95 2.53282 1622.49 1.9468C1622.32 1.81767 1622.17 1.68855 1622.05 1.53956C1621.92 1.39057 1621.76 1.26145 1621.55 1.13232H1636.79C1638.8 1.13232 1640.8 1.39057 1642.81 1.917C1644.82 2.44343 1646.6 3.24797 1648.17 4.33062C1649.74 5.41327 1651.01 6.78397 1652 8.43279C1652.98 10.0816 1653.47 12.0383 1653.47 14.293C1653.47 16.5477 1653.1 18.3654 1652.37 20.0043C1651.63 21.6431 1650.63 22.994 1649.36 24.0766C1648.08 25.1692 1646.56 25.9837 1644.81 26.5201C1643.05 27.0564 1641.13 27.3345 1639.04 27.3345H1628.5V42.8194C1628.5 46.5442 1628.97 48.8982 1629.94 49.9014C1630.23 50.2788 1630.54 50.547 1630.88 50.7159H1621.47L1621.49 50.7258ZM1639.06 26.8379C1640.4 26.8379 1641.59 26.4307 1642.63 25.6162C1643.67 24.8017 1644.56 23.7985 1645.26 22.6066C1645.97 21.4147 1646.52 20.1334 1646.89 18.7528C1647.27 17.3721 1647.46 16.1405 1647.46 15.0578C1647.46 13.558 1647.22 12.0185 1646.73 10.4491C1646.26 8.87975 1645.55 7.43953 1644.63 6.11849C1643.7 4.79745 1642.59 3.72473 1641.27 2.89039C1639.95 2.05606 1638.46 1.63889 1636.79 1.63889H1628.52V26.8478H1639.06V26.8379Z" fill="white"/>
<path d="M1667.33 50.7258C1667.58 50.5172 1667.82 50.3086 1668.06 50.1C1668.3 49.8915 1668.51 49.6233 1668.71 49.2856C1669.05 48.6995 1669.31 47.9049 1669.5 46.9017C1669.69 45.8986 1669.78 44.5378 1669.78 42.8294V9.02874C1669.78 5.43314 1669.3 3.06918 1668.34 1.9468C1668.17 1.81767 1668.02 1.68855 1667.9 1.53956C1667.77 1.39057 1667.61 1.26145 1667.4 1.13232H1677.38C1676.45 1.71835 1675.73 2.47323 1675.18 3.38702C1675.1 3.55588 1675 3.78433 1674.9 4.07237C1674.79 4.36042 1674.71 4.75772 1674.65 5.26429C1674.59 5.77085 1674.53 6.3966 1674.5 7.14155C1674.46 7.89642 1674.44 8.81022 1674.44 9.90281V42.8194C1674.44 45.1635 1674.68 46.8322 1675.19 47.8354C1675.74 48.6697 1676.44 49.2756 1677.33 49.6531C1677.49 49.7325 1677.7 49.812 1677.95 49.8716C1678.2 49.9312 1678.57 49.9908 1679.04 50.0305C1679.52 50.0702 1680.16 50.1 1680.92 50.1199C1681.7 50.1398 1682.67 50.1497 1683.84 50.1497H1687.67C1689.8 50.1497 1691.6 50.0802 1693.06 49.9312C1694.52 49.7822 1695.71 49.5239 1696.63 49.1465C1697.05 48.9777 1697.55 48.7492 1698.1 48.4612C1698.67 48.1731 1699.21 47.8255 1699.73 47.4282C1700.26 47.0309 1700.75 46.6137 1701.2 46.1767C1701.66 45.7396 1702 45.3125 1702.21 44.8954L1700.39 50.7258H1667.34H1667.33Z" fill="white"/>
<path d="M1712.67 50.7256C1713.21 50.4773 1713.75 49.9806 1714.3 49.2556C1714.84 48.5305 1715.36 47.716 1715.86 46.8419C1716.36 45.9679 1716.82 45.0938 1717.22 44.2396C1717.61 43.3854 1717.92 42.7 1718.13 42.2034L1735.94 0.506348L1753.56 42.6404C1754.35 44.5177 1755.11 46.0573 1755.81 47.2492C1756.52 48.4411 1757.23 49.3549 1757.95 49.9806C1758.12 50.1098 1758.29 50.2389 1758.46 50.3879C1758.62 50.5369 1758.81 50.6461 1759.02 50.7355H1748.23C1748.82 50.3183 1749.24 49.8217 1749.49 49.2655C1749.73 48.6993 1749.86 48.1034 1749.86 47.4776C1749.86 46.8519 1749.73 46.0473 1749.49 45.064C1749.24 44.0807 1748.82 42.9186 1748.23 41.5876L1744.79 33.5024H1722.53L1718.71 42.2829C1718.25 43.4549 1717.9 44.4581 1717.67 45.2924C1717.44 46.1268 1717.32 46.8419 1717.32 47.428C1717.32 47.8451 1717.41 48.3418 1717.6 48.898C1717.79 49.4542 1718.24 50.0402 1718.95 50.6263L1719.2 50.7554H1712.68L1712.67 50.7256ZM1722.7 32.986H1744.71L1733.86 7.09166L1722.7 32.986Z" fill="white"/>
<path d="M1767.1 25.8943C1767.1 22.259 1767.63 18.862 1768.7 15.7034C1769.76 12.5449 1771.31 9.81341 1773.33 7.48918C1775.36 5.16495 1777.87 3.33735 1780.86 2.00639C1783.85 0.665484 1787.29 0 1791.18 0H1792.62C1794.63 0 1796.33 0.188719 1797.73 0.566158C1799.13 0.943597 1800.32 1.35083 1801.3 1.78787C1802.29 2.2249 1803.12 2.63214 1803.82 3.00958C1804.51 3.38702 1805.19 3.57574 1805.85 3.57574C1806.61 3.57574 1807.26 3.39695 1807.83 3.03938C1808.4 2.6818 1808.88 2.21497 1809.3 1.62895L1809.99 11.0947C1809.19 9.59489 1808.22 8.20433 1807.07 6.92302C1805.91 5.65165 1804.66 4.5392 1803.3 3.5956C1801.94 2.652 1800.49 1.92692 1798.94 1.4005C1797.39 0.874069 1795.78 0.615821 1794.11 0.615821C1790.31 0.615821 1787.07 1.30117 1784.39 2.652C1781.72 4.01277 1779.54 5.8503 1777.86 8.1646C1776.2 10.4888 1774.98 13.1706 1774.23 16.2199C1773.47 19.2692 1773.1 22.4874 1773.1 25.8744C1773.1 29.2614 1773.47 32.4895 1774.23 35.5587C1774.98 38.6279 1776.2 41.3295 1777.86 43.6438C1779.53 45.9681 1781.71 47.8155 1784.39 49.1962C1787.06 50.5768 1790.31 51.2621 1794.11 51.2621C1797.67 51.2621 1800.8 50.3484 1803.52 48.5307C1806.24 46.713 1808.39 44.1107 1809.98 40.7237L1809.29 50.1894C1808.42 48.9379 1807.26 48.3122 1805.84 48.3122C1805.18 48.3122 1804.56 48.5009 1804 48.8783C1803.43 49.2558 1802.71 49.663 1801.8 50.1C1800.9 50.5371 1799.75 50.9443 1798.33 51.3217C1796.9 51.6992 1795 51.9078 1792.61 51.9475H1791.17C1787.29 51.9475 1783.84 51.282 1780.85 49.9411C1777.86 48.6002 1775.36 46.7627 1773.32 44.4186C1771.3 42.0745 1769.75 39.3232 1768.69 36.1447C1767.62 32.9663 1767.09 29.5396 1767.09 25.8645L1767.1 25.8943Z" fill="white"/>
<path d="M1824.28 50.7258C1825.15 50.1398 1825.79 49.365 1826.16 48.4016C1826.24 48.0639 1826.35 47.5275 1826.5 46.7726C1826.65 46.0177 1826.72 44.7265 1826.72 42.889V8.84002C1826.72 7.62824 1826.68 6.61512 1826.59 5.80065C1826.51 4.98617 1826.39 4.31076 1826.25 3.76446C1826.1 3.21817 1825.94 2.801 1825.78 2.51296C1825.61 2.22491 1825.46 1.98653 1825.34 1.82761C1825.21 1.74815 1825.09 1.62895 1824.96 1.47997C1824.84 1.33098 1824.72 1.22172 1824.59 1.13232H1856.82L1857.07 5.77085C1856.99 5.56226 1856.9 5.38348 1856.82 5.23449C1856.74 5.0855 1856.65 4.95638 1856.57 4.82725C1856.02 3.95318 1855.46 3.2877 1854.88 2.85066C1854.3 2.41363 1853.67 2.10572 1853 1.93686C1852.34 1.76801 1851.63 1.68855 1850.91 1.68855H1831.31V24.5137H1845.63C1846.28 24.5137 1846.93 24.4739 1847.58 24.3845C1848.24 24.2951 1848.85 24.1561 1849.46 23.9475C1850.06 23.7389 1850.6 23.4211 1851.06 23.0039C1851.39 22.7556 1851.66 22.4775 1851.87 22.1894C1852.08 21.9014 1852.29 21.5835 1852.5 21.2458V28.2682C1851.87 27.0961 1850.93 26.2419 1849.68 25.6956C1848.67 25.199 1847.72 24.9507 1846.83 24.9706C1845.92 24.9904 1844.91 25.0004 1843.79 25.0004H1831.31V50.1497H1849.81C1851.02 50.1497 1852.06 50.0305 1852.94 49.8021C1853.83 49.5736 1854.61 49.226 1855.33 48.7691C1856.04 48.3122 1856.71 47.746 1857.33 47.0805C1857.96 46.415 1858.61 45.6403 1859.28 44.7563L1857.15 50.7159H1824.29L1824.28 50.7258Z" fill="white"/>
<path d="M1872.75 12.3563C1872.75 10.479 1873.14 8.77064 1873.91 7.25095C1874.69 5.72133 1875.72 4.43009 1877.01 3.36731C1878.3 2.30452 1879.79 1.48011 1881.46 0.894088C1883.13 0.308065 1884.87 0.0200195 1886.67 0.0200195C1889.3 0.0200195 1892.08 0.645773 1895.01 1.89728C1896.56 2.61243 1897.77 2.96007 1898.64 2.96007C1899.65 2.96007 1900.5 2.62236 1901.22 1.95688L1901.35 1.82775V10.7274C1901.14 10.1413 1900.92 9.60498 1900.69 9.12821C1900.46 8.65145 1900.22 8.17468 1899.97 7.71778C1899.3 6.58547 1898.47 5.58228 1897.49 4.70821C1896.51 3.83414 1895.44 3.07926 1894.26 2.45351C1893.09 1.82775 1891.86 1.35099 1890.57 1.01328C1889.27 0.675571 1887.98 0.51665 1886.69 0.51665C1885.39 0.51665 1884.1 0.725234 1882.83 1.1424C1881.56 1.55957 1880.43 2.16546 1879.44 2.96007C1878.46 3.75468 1877.67 4.72807 1877.06 5.88025C1876.45 7.03244 1876.15 8.31374 1876.15 9.7341C1876.15 11.661 1876.81 13.4092 1878.15 14.9984C1879.78 17.0048 1883.7 19.6766 1889.88 23.0239C1892.31 24.3251 1894.34 25.4574 1896 26.4407C1897.65 27.4241 1898.92 28.2485 1899.8 28.914C1901.26 30.1257 1902.46 31.5759 1903.4 33.2744C1904.35 34.9728 1904.81 36.8203 1904.81 38.8267C1904.81 42.3428 1903.41 45.412 1900.61 48.0441C1897.81 50.6763 1894.17 51.9973 1889.7 51.9973C1888.04 51.9973 1886.54 51.8285 1885.23 51.5007C1883.9 51.163 1882.45 50.7458 1880.86 50.2492C1879.15 49.6632 1877.93 49.3056 1877.23 49.1864C1876.51 49.0573 1876.02 48.9977 1875.73 48.9977C1875.1 48.9977 1874.6 49.1069 1874.22 49.3155C1873.84 49.5241 1873.53 49.7327 1873.28 49.9413V40.9721C1873.52 41.6873 1873.78 42.3329 1874.03 42.9189C1874.28 43.5049 1874.56 44.0314 1874.85 44.4883C1875.51 45.6206 1876.4 46.6138 1877.48 47.4681C1878.56 48.3223 1879.76 49.0573 1881.08 49.6632C1882.4 50.269 1883.76 50.7259 1885.16 51.0438C1886.56 51.3616 1887.89 51.5106 1889.14 51.5106C1890.6 51.5106 1892.03 51.302 1893.43 50.8849C1894.83 50.4677 1896.07 49.8519 1897.16 49.0374C1898.25 48.2229 1899.12 47.2098 1899.77 45.998C1900.41 44.7863 1900.74 43.3659 1900.74 41.7369C1900.74 40.0186 1900.24 38.4095 1899.27 36.9097C1898.29 35.4099 1897.12 34.1484 1895.79 33.1452C1895.25 32.6883 1894.29 32.0527 1892.91 31.2382C1891.53 30.4237 1889.71 29.3709 1887.46 28.0697C1885.21 26.8579 1883.3 25.7455 1881.75 24.7423C1880.2 23.7391 1878.97 22.8849 1878.05 22.1697C1876.43 20.9579 1875.13 19.5574 1874.2 17.9682C1873.26 16.379 1872.79 14.5216 1872.79 12.3861L1872.75 12.3563Z" fill="white"/>
</g>
</g>
<defs>
<clipPath id="clip0_153_898">
<rect width="1904.8" height="56" fill="white" transform="translate(-0.00208092)"/>
</clipPath>
</defs>
</svg>
