<svg width="241" height="25" viewBox="0 0 241 25" fill="none" xmlns="http://www.w3.org/2000/svg">
<path d="M13.4384 18.05C15.1884 18.2333 16.6467 18.525 17.8134 18.925C18.98 19.3083 19.9134 19.75 20.6134 20.25C21.33 20.7333 21.83 21.2167 22.1134 21.7C22.4134 22.1833 22.5384 22.6167 22.4884 23C22.4384 23.3833 22.2634 23.6667 21.9634 23.85C21.6634 24.0333 21.2634 24.0583 20.7634 23.925C20.38 23.425 19.8884 22.9083 19.2884 22.375C18.705 21.8583 18.0634 21.35 17.3634 20.85C16.68 20.35 15.98 19.8833 15.2634 19.45C14.5634 19 13.8967 18.625 13.2634 18.325L13.4384 18.05ZM13.7384 13.6C13.705 13.7667 13.6134 13.9167 13.4634 14.05C13.33 14.1667 13.1217 14.2417 12.8384 14.275C12.7217 15.1417 12.555 15.975 12.3384 16.775C12.1384 17.5583 11.805 18.3083 11.3384 19.025C10.8884 19.725 10.23 20.3833 9.36338 21C8.49671 21.6 7.36338 22.1583 5.96338 22.675C4.56338 23.1917 2.81338 23.6667 0.713379 24.1L0.538379 23.675C2.23838 23.125 3.65505 22.5583 4.78838 21.975C5.92171 21.375 6.83838 20.7583 7.53838 20.125C8.23838 19.475 8.76338 18.7917 9.11338 18.075C9.48005 17.3417 9.73005 16.5833 9.86338 15.8C10.0134 15 10.1134 14.15 10.1634 13.25L13.7384 13.6ZM20.3634 14.175C20.3634 14.175 20.455 14.25 20.6384 14.4C20.8217 14.5333 21.0467 14.7083 21.3134 14.925C21.5967 15.1417 21.8884 15.375 22.1884 15.625C22.505 15.875 22.7884 16.1083 23.0384 16.325C23.005 16.4583 22.93 16.5583 22.8134 16.625C22.6967 16.6917 22.5467 16.725 22.3634 16.725H1.38838L1.16338 16H18.9134L20.3634 14.175ZM18.5134 1.725C18.4634 1.875 18.3634 1.99167 18.2134 2.075C18.0634 2.15833 17.8467 2.2 17.5634 2.2C17.2634 2.53333 16.905 2.89167 16.4884 3.275C16.0717 3.65833 15.63 4.03333 15.1634 4.4C14.6967 4.76667 14.2384 5.10833 13.7884 5.425H13.3634C13.5967 4.99167 13.8217 4.51667 14.0384 4C14.255 3.46667 14.4634 2.925 14.6634 2.375C14.8634 1.825 15.03 1.33333 15.1634 0.899999L18.5134 1.725ZM5.83838 0.999999C6.85505 1.15 7.64671 1.38333 8.21338 1.7C8.79671 2 9.20505 2.33333 9.43838 2.7C9.68838 3.06667 9.79671 3.425 9.76338 3.775C9.74671 4.125 9.63005 4.41667 9.41338 4.65C9.19671 4.86667 8.92171 4.99167 8.58838 5.025C8.27171 5.05833 7.92171 4.93333 7.53838 4.65C7.48838 4.25 7.36338 3.83333 7.16338 3.4C6.96338 2.96667 6.72171 2.55833 6.43838 2.175C6.17171 1.775 5.89671 1.44167 5.61338 1.175L5.83838 0.999999ZM12.9884 5.15V12.475H10.4134V5.15H12.9884ZM18.2884 6.85C18.2884 6.85 18.3717 6.91667 18.5384 7.05C18.705 7.16667 18.9134 7.325 19.1634 7.525C19.4134 7.725 19.68 7.94167 19.9634 8.175C20.2634 8.39167 20.53 8.60833 20.7634 8.825C20.6967 9.09167 20.4717 9.225 20.0884 9.225H3.38838L3.18838 8.5H16.9384L18.2884 6.85ZM19.8134 3.275C19.8134 3.275 19.8967 3.34167 20.0634 3.475C20.2467 3.60833 20.4717 3.78333 20.7384 4C21.005 4.2 21.2884 4.41667 21.5884 4.65C21.8884 4.88333 22.1634 5.11667 22.4134 5.35C22.3467 5.61667 22.1134 5.75 21.7134 5.75H2.01338L1.81338 5.025H18.3884L19.8134 3.275ZM20.6134 10.25C20.6134 10.25 20.6967 10.325 20.8634 10.475C21.0467 10.6083 21.2717 10.7833 21.5384 11C21.8217 11.2167 22.1134 11.45 22.4134 11.7C22.7134 11.95 22.9884 12.1833 23.2384 12.4C23.205 12.5333 23.1217 12.6333 22.9884 12.7C22.8717 12.7667 22.73 12.8 22.5634 12.8H1.01338L0.813379 12.075H19.1884L20.6134 10.25ZM34.1384 5.05H36.3134L37.1634 3.975C37.1634 3.975 37.255 4.05 37.4384 4.2C37.6217 4.35 37.8384 4.53333 38.0884 4.75C38.355 4.96667 38.58 5.175 38.7634 5.375C38.7134 5.64167 38.5134 5.775 38.1634 5.775H34.1384V5.05ZM34.0884 7.7H36.3634L37.2634 6.575C37.2634 6.575 37.355 6.65 37.5384 6.8C37.7217 6.95 37.9384 7.14167 38.1884 7.375C38.455 7.59167 38.6884 7.80833 38.8884 8.025C38.8217 8.29167 38.6134 8.425 38.2634 8.425H34.0884V7.7ZM32.1634 10.275H50.7634V11H32.1634V10.275ZM49.6134 10.275H49.3384L50.6634 8.975L52.9884 11.2C52.8884 11.2833 52.7634 11.3417 52.6134 11.375C52.48 11.4083 52.2884 11.4333 52.0384 11.45C51.7717 11.6333 51.4467 11.85 51.0634 12.1C50.68 12.35 50.2884 12.5917 49.8884 12.825C49.505 13.0417 49.155 13.2333 48.8384 13.4L48.5634 13.225C48.68 12.975 48.805 12.675 48.9384 12.325C49.0717 11.9583 49.1967 11.5917 49.3134 11.225C49.4467 10.8583 49.5467 10.5417 49.6134 10.275ZM39.4634 2.175C40.4467 2.275 41.2384 2.45833 41.8384 2.725C42.4384 2.975 42.8634 3.25833 43.1134 3.575C43.38 3.89167 43.5134 4.19167 43.5134 4.475C43.5134 4.74167 43.405 4.94167 43.1884 5.075C42.9884 5.20833 42.7384 5.21667 42.4384 5.1C42.2384 4.8 41.955 4.48333 41.5884 4.15C41.2217 3.81667 40.83 3.5 40.4134 3.2C39.9967 2.88333 39.605 2.63333 39.2384 2.45L39.4634 2.175ZM39.5384 6.375C40.5884 6.50833 41.4217 6.73333 42.0384 7.05C42.655 7.36667 43.0967 7.70833 43.3634 8.075C43.63 8.425 43.755 8.75833 43.7384 9.075C43.7217 9.375 43.605 9.6 43.3884 9.75C43.1717 9.88333 42.8884 9.875 42.5384 9.725C42.3717 9.35833 42.105 8.98333 41.7384 8.6C41.3884 8.2 40.9967 7.83333 40.5634 7.5C40.13 7.15 39.7134 6.85833 39.3134 6.625L39.5384 6.375ZM37.2384 0.85L39.2384 2.4C39.105 2.56667 38.855 2.58333 38.4884 2.45C37.9884 2.6 37.33 2.76667 36.5134 2.95C35.7134 3.11667 34.9217 3.23333 34.1384 3.3L33.9884 3.025C34.3717 2.84167 34.7634 2.61667 35.1634 2.35C35.58 2.08333 35.9717 1.81667 36.3384 1.55C36.7217 1.26667 37.0217 1.03333 37.2384 0.85ZM44.6134 5.05H48.8884V5.775H44.8384L44.6134 5.05ZM44.5384 7.7H48.7634V8.425H44.7634L44.5384 7.7ZM44.3884 2.425H48.9634V3.125H44.6134L44.3884 2.425ZM33.0634 1.875L36.0884 2.55C36.0217 2.78333 35.7384 2.95 35.2384 3.05L35.5134 10.625H33.3634L33.0634 1.875ZM47.4634 2.425H47.2384L48.2134 1.275L50.4384 3.05C50.355 3.15 50.2467 3.225 50.1134 3.275C49.9967 3.30833 49.8217 3.34167 49.5884 3.375L49.1884 10.65H46.9884L47.4634 2.425ZM30.2134 17.425H48.4634L49.8634 15.575C49.8634 15.575 49.9467 15.6417 50.1134 15.775C50.2967 15.9083 50.5217 16.0917 50.7884 16.325C51.055 16.5417 51.33 16.775 51.6134 17.025C51.9134 17.275 52.18 17.5167 52.4134 17.75C52.3467 18.0167 52.1217 18.15 51.7384 18.15H30.4134L30.2134 17.425ZM40.2134 15.5L43.3884 15.8C43.3717 15.9667 43.2967 16.1 43.1634 16.2C43.03 16.3 42.83 16.3667 42.5634 16.4V21.1C42.5634 21.6833 42.4884 22.1833 42.3384 22.6C42.1884 23.0167 41.88 23.35 41.4134 23.6C40.9467 23.8667 40.2217 24.0417 39.2384 24.125C39.205 23.7417 39.1467 23.4083 39.0634 23.125C38.98 22.8583 38.8384 22.625 38.6384 22.425C38.4384 22.2417 38.1634 22.0833 37.8134 21.95C37.4634 21.8167 36.98 21.7 36.3634 21.6V21.25C36.3634 21.25 36.505 21.2583 36.7884 21.275C37.0884 21.2917 37.43 21.3167 37.8134 21.35C38.2134 21.3667 38.5884 21.3833 38.9384 21.4C39.305 21.4167 39.555 21.425 39.6884 21.425C39.8884 21.425 40.0217 21.3917 40.0884 21.325C40.1717 21.2583 40.2134 21.1417 40.2134 20.975V15.5ZM45.0884 13.2H44.8134L46.1884 11.875L48.5384 13.975C48.4384 14.075 48.3134 14.1417 48.1634 14.175C48.0134 14.2083 47.805 14.2333 47.5384 14.25C47.0384 14.4667 46.4634 14.7 45.8134 14.95C45.1634 15.2 44.4884 15.4417 43.7884 15.675C43.105 15.8917 42.4384 16.075 41.7884 16.225H41.3884C41.8384 15.9583 42.2884 15.6417 42.7384 15.275C43.205 14.9083 43.6467 14.5417 44.0634 14.175C44.4967 13.7917 44.8384 13.4667 45.0884 13.2ZM34.7634 13.2H46.4884V13.925H34.9884L34.7634 13.2ZM32.0134 8.9L32.3634 8.875C32.68 9.675 32.8634 10.4167 32.9134 11.1C32.9634 11.7833 32.88 12.375 32.6634 12.875C32.4467 13.375 32.0884 13.7417 31.5884 13.975C31.1717 14.175 30.7967 14.225 30.4634 14.125C30.1467 14.0083 29.9134 13.8083 29.7634 13.525C29.63 13.2417 29.6217 12.9333 29.7384 12.6C29.855 12.25 30.1467 11.9583 30.6134 11.725C30.9467 11.5417 31.2634 11.2083 31.5634 10.725C31.88 10.2417 32.03 9.63333 32.0134 8.9ZM42.3134 1.075L44.4134 2.125C44.2967 2.35833 44.0217 2.41667 43.5884 2.3C43.2717 2.7 42.8634 3.10833 42.3634 3.525C41.8634 3.925 41.3134 4.30833 40.7134 4.675C40.1134 5.025 39.5134 5.325 38.9134 5.575L38.6634 5.2C39.3967 4.66667 40.0967 4.025 40.7634 3.275C41.43 2.50833 41.9467 1.775 42.3134 1.075ZM42.6884 5.4L44.8134 6.425C44.6967 6.65833 44.4217 6.71667 43.9884 6.6C43.6384 7.06667 43.18 7.525 42.6134 7.975C42.0467 8.40833 41.43 8.80833 40.7634 9.175C40.0967 9.54167 39.4217 9.84167 38.7384 10.075L38.5134 9.7C39.3634 9.18333 40.1717 8.53333 40.9384 7.75C41.705 6.95 42.2884 6.16667 42.6884 5.4ZM62.1384 2.2V1.4L64.9384 2.45H64.5634V8.65C64.5634 9.83333 64.5134 11.1 64.4134 12.45C64.33 13.7833 64.1217 15.1417 63.7884 16.525C63.455 17.8917 62.9384 19.225 62.2384 20.525C61.5384 21.8083 60.58 22.9917 59.3634 24.075L59.0384 23.85C59.9884 22.3333 60.68 20.7333 61.1134 19.05C61.5467 17.35 61.8217 15.6167 61.9384 13.85C62.0717 12.0833 62.1384 10.3583 62.1384 8.675V2.45V2.2ZM77.9134 2.45L79.0634 1.2L81.5384 3.075C81.455 3.175 81.3217 3.275 81.1384 3.375C80.955 3.45833 80.7384 3.525 80.4884 3.575V7.575C80.4884 7.625 80.3717 7.7 80.1384 7.8C79.9217 7.88333 79.6634 7.96667 79.3634 8.05C79.0634 8.11667 78.7884 8.15 78.5384 8.15H78.1634V2.45H77.9134ZM79.6884 6.475V7.2H63.4634V6.475H79.6884ZM79.4884 2.45V3.175H63.3384V2.45H79.4884ZM66.5134 21.8C66.88 21.7167 67.405 21.5833 68.0884 21.4C68.7717 21.2167 69.5384 21 70.3884 20.75C71.255 20.5 72.13 20.2333 73.0134 19.95L73.1134 20.275C72.7467 20.525 72.2717 20.8583 71.6884 21.275C71.105 21.675 70.4467 22.1167 69.7134 22.6C68.98 23.0833 68.205 23.575 67.3884 24.075L66.5134 21.8ZM68.5884 14.775L69.1384 15.125V21.575L67.1634 22.375L68.1634 21.5C68.3134 21.9833 68.355 22.4167 68.2884 22.8C68.2217 23.1833 68.105 23.4917 67.9384 23.725C67.7884 23.9583 67.6134 24.1333 67.4134 24.25L65.8884 21.65C66.305 21.4 66.5717 21.2 66.6884 21.05C66.805 20.9 66.8634 20.7167 66.8634 20.5V14.775H68.5884ZM80.9384 17.425C80.855 17.5417 80.7384 17.6167 80.5884 17.65C80.455 17.6833 80.255 17.6583 79.9884 17.575C79.555 17.775 79.055 18.0083 78.4884 18.275C77.9217 18.525 77.33 18.7667 76.7134 19C76.1134 19.2333 75.5217 19.4583 74.9384 19.675L74.6634 19.375C75.08 18.9917 75.5217 18.575 75.9884 18.125C76.455 17.6583 76.8967 17.2 77.3134 16.75C77.73 16.3 78.0717 15.9083 78.3384 15.575L80.9384 17.425ZM72.1134 14.725C72.5134 15.7917 73.055 16.725 73.7384 17.525C74.4217 18.3083 75.2217 18.975 76.1384 19.525C77.055 20.0583 78.0634 20.5083 79.1634 20.875C80.28 21.225 81.455 21.5 82.6884 21.7L82.6634 21.975C82.1634 22.0917 81.7467 22.3333 81.4134 22.7C81.08 23.0667 80.8467 23.55 80.7134 24.15C79.13 23.6333 77.755 22.9917 76.5884 22.225C75.4217 21.4583 74.43 20.4833 73.6134 19.3C72.8134 18.1167 72.1884 16.6583 71.7384 14.925L72.1134 14.725ZM79.9634 12.825C79.9634 12.825 80.0467 12.9 80.2134 13.05C80.38 13.1833 80.5967 13.3583 80.8634 13.575C81.13 13.7917 81.405 14.025 81.6884 14.275C81.9717 14.525 82.23 14.7583 82.4634 14.975C82.4134 15.2417 82.1884 15.375 81.7884 15.375H63.8634L63.6384 14.65H78.5884L79.9634 12.825ZM78.7384 8.9C78.7384 8.9 78.8634 9.00833 79.1134 9.225C79.38 9.44167 79.6967 9.7 80.0634 10C80.43 10.3 80.755 10.5917 81.0384 10.875C80.9884 11.1417 80.7717 11.275 80.3884 11.275H64.7384L64.5384 10.55H77.4634L78.7384 8.9ZM77.1134 8C77.0967 8.15 77.0384 8.28333 76.9384 8.4C76.8384 8.5 76.6467 8.56667 76.3634 8.6V15.05H74.1134V7.725L77.1134 8ZM71.1134 7.95C71.0967 8.1 71.03 8.225 70.9134 8.325C70.8134 8.425 70.63 8.49167 70.3634 8.525V15.05H68.0884V7.65L71.1134 7.95ZM101.213 0.625C102.18 0.724999 102.938 0.908332 103.488 1.175C104.038 1.44167 104.43 1.75 104.663 2.1C104.913 2.43333 105.03 2.76667 105.013 3.1C104.997 3.41667 104.888 3.69167 104.688 3.925C104.505 4.14167 104.255 4.26667 103.938 4.3C103.622 4.33333 103.28 4.225 102.913 3.975C102.83 3.40833 102.597 2.83333 102.213 2.25C101.83 1.65 101.422 1.16667 100.988 0.799999L101.213 0.625ZM90.4134 16.8C90.5634 16.8 90.6717 16.775 90.7384 16.725C90.8217 16.675 90.9217 16.5167 91.0384 16.25C91.105 16.0833 91.1634 15.9333 91.2134 15.8C91.28 15.6667 91.355 15.475 91.4384 15.225C91.5217 14.9583 91.6467 14.6 91.8134 14.15C91.98 13.6833 92.1884 13.0667 92.4384 12.3C92.6884 11.5167 93.0134 10.525 93.4134 9.325C93.8134 8.125 94.2967 6.65833 94.8634 4.925L95.2884 5C95.155 5.63333 94.9967 6.35833 94.8134 7.175C94.63 7.975 94.4467 8.8 94.2634 9.65C94.08 10.4833 93.905 11.2917 93.7384 12.075C93.5884 12.8417 93.4467 13.525 93.3134 14.125C93.1967 14.7083 93.1134 15.1333 93.0634 15.4C92.9967 15.8167 92.93 16.2333 92.8634 16.65C92.8134 17.05 92.7967 17.4083 92.8134 17.725C92.83 18.1417 92.905 18.5583 93.0384 18.975C93.1884 19.3917 93.33 19.85 93.4634 20.35C93.6134 20.85 93.6717 21.4667 93.6384 22.2C93.6217 22.7833 93.455 23.25 93.1384 23.6C92.8384 23.95 92.4217 24.125 91.8884 24.125C91.6384 24.125 91.4134 24.025 91.2134 23.825C91.0134 23.625 90.88 23.3 90.8134 22.85C90.9634 22.0167 91.0467 21.2333 91.0634 20.5C91.08 19.75 91.0467 19.125 90.9634 18.625C90.88 18.125 90.7467 17.8083 90.5634 17.675C90.4134 17.5583 90.2384 17.475 90.0384 17.425C89.855 17.3583 89.63 17.3167 89.3634 17.3V16.8C89.3634 16.8 89.43 16.8 89.5634 16.8C89.6967 16.8 89.8467 16.8 90.0134 16.8C90.1967 16.8 90.33 16.8 90.4134 16.8ZM88.6884 6.85C89.655 6.98333 90.4217 7.2 90.9884 7.5C91.5717 7.78333 91.9884 8.1 92.2384 8.45C92.505 8.8 92.6384 9.14167 92.6384 9.475C92.655 9.80833 92.5634 10.0833 92.3634 10.3C92.18 10.5167 91.93 10.6417 91.6134 10.675C91.3134 10.7083 90.9884 10.6083 90.6384 10.375C90.555 9.975 90.3967 9.575 90.1634 9.175C89.93 8.75833 89.6634 8.36667 89.3634 8C89.0634 7.61667 88.7634 7.3 88.4634 7.05L88.6884 6.85ZM90.2884 1.175C91.305 1.35833 92.1134 1.61667 92.7134 1.95C93.3134 2.26667 93.7467 2.61667 94.0134 3C94.28 3.36667 94.4134 3.725 94.4134 4.075C94.4134 4.40833 94.3134 4.69167 94.1134 4.925C93.9134 5.14167 93.655 5.26667 93.3384 5.3C93.0384 5.33333 92.705 5.225 92.3384 4.975C92.2384 4.54167 92.0634 4.10833 91.8134 3.675C91.5634 3.225 91.28 2.8 90.9634 2.4C90.6634 2 90.3634 1.65833 90.0634 1.375L90.2884 1.175ZM97.5884 3.075C97.855 4.05833 97.98 4.875 97.9634 5.525C97.9634 6.175 97.8634 6.7 97.6634 7.1C97.48 7.5 97.2467 7.78333 96.9634 7.95C96.68 8.11667 96.3967 8.19167 96.1134 8.175C95.8467 8.14167 95.6134 8.04167 95.4134 7.875C95.2134 7.70833 95.1134 7.48333 95.1134 7.2C95.1134 6.9 95.2467 6.56667 95.5134 6.2C95.9467 5.95 96.3217 5.55833 96.6384 5.025C96.955 4.49167 97.155 3.84167 97.2384 3.075H97.5884ZM108.613 4.425L109.888 3.175L112.113 5.3C112.03 5.4 111.913 5.46667 111.763 5.5C111.63 5.53333 111.438 5.55833 111.188 5.575C110.888 5.80833 110.513 6.1 110.063 6.45C109.613 6.78333 109.213 7.05 108.863 7.25L108.588 7.1C108.605 6.86667 108.63 6.59167 108.663 6.275C108.713 5.94167 108.755 5.60833 108.788 5.275C108.838 4.925 108.872 4.64167 108.888 4.425H108.613ZM104.788 19.7C106.338 19.8833 107.597 20.125 108.563 20.425C109.53 20.7083 110.263 21.025 110.763 21.375C111.28 21.7083 111.605 22.0333 111.738 22.35C111.888 22.6833 111.897 22.9833 111.763 23.25C111.647 23.5167 111.447 23.7167 111.163 23.85C110.897 23.9833 110.588 24.0333 110.238 24C109.905 23.9667 109.597 23.8083 109.313 23.525C108.913 23.0083 108.322 22.4333 107.538 21.8C106.755 21.1667 105.788 20.5833 104.638 20.05L104.788 19.7ZM103.463 21.1C103.38 21.2333 103.23 21.325 103.013 21.375C102.797 21.4083 102.513 21.3833 102.163 21.3C101.563 21.7 100.847 22.0833 100.013 22.45C99.1967 22.8167 98.305 23.1333 97.3384 23.4C96.3717 23.6833 95.38 23.8917 94.3634 24.025L94.2384 23.7C95.0884 23.3667 95.9217 22.95 96.7384 22.45C97.555 21.9667 98.2884 21.45 98.9384 20.9C99.605 20.3333 100.13 19.8 100.513 19.3L103.463 21.1ZM104.363 7.5V18.1H102.138V7.5H104.363ZM96.8634 9.625L99.3384 10.625H107.213L108.313 9.35L110.538 11.05C110.455 11.15 110.338 11.2417 110.188 11.325C110.055 11.3917 109.855 11.45 109.588 11.5V18.8C109.588 18.8667 109.405 18.9833 109.038 19.15C108.688 19.3 108.238 19.375 107.688 19.375H107.288V11.35H99.0634V19.225C99.0634 19.3083 98.8967 19.4333 98.5634 19.6C98.2467 19.75 97.805 19.825 97.2384 19.825H96.8634V10.625V9.625ZM109.838 4.425V5.15H97.2884V4.425H109.838ZM107.388 5.875C107.388 5.875 107.472 5.94167 107.638 6.075C107.805 6.19167 108.013 6.35 108.263 6.55C108.53 6.73333 108.805 6.94167 109.088 7.175C109.372 7.39167 109.638 7.60833 109.888 7.825C109.822 8.09167 109.597 8.225 109.213 8.225H97.5634L97.3634 7.5H106.013L107.388 5.875ZM108.263 14.025V14.75H98.0884V14.025H108.263ZM108.313 17.775V18.5H98.1884V17.775H108.313ZM141.987 5.175C141.92 5.325 141.753 5.43333 141.487 5.5C141.237 5.56667 140.912 5.50833 140.512 5.325L141.312 5.2C140.845 5.6 140.253 6.03333 139.537 6.5C138.837 6.96667 138.062 7.43333 137.212 7.9C136.378 8.36667 135.52 8.8 134.637 9.2C133.77 9.6 132.945 9.94167 132.162 10.225L132.137 9.975H133.312C133.245 10.6917 133.095 11.2583 132.862 11.675C132.645 12.0917 132.395 12.3583 132.112 12.475L130.937 9.6C130.937 9.6 131.045 9.58333 131.262 9.55C131.495 9.5 131.678 9.45 131.812 9.4C132.428 9.13333 133.087 8.76667 133.787 8.3C134.487 7.81667 135.17 7.29167 135.837 6.725C136.503 6.15833 137.112 5.6 137.662 5.05C138.212 4.48333 138.645 3.98333 138.962 3.55L141.987 5.175ZM131.437 9.7C132.187 9.68333 133.153 9.65 134.337 9.6C135.52 9.55 136.862 9.48333 138.362 9.4C139.878 9.31667 141.487 9.225 143.187 9.125C144.903 9.00833 146.653 8.89167 148.437 8.775L148.462 9.2C146.678 9.58333 144.412 10.0167 141.662 10.5C138.912 10.9667 135.795 11.45 132.312 11.95L131.437 9.7ZM149.387 20.1C149.387 20.1 149.478 20.175 149.662 20.325C149.862 20.475 150.112 20.6667 150.412 20.9C150.728 21.1333 151.045 21.3917 151.362 21.675C151.695 21.9417 152.003 22.1917 152.287 22.425C152.22 22.6917 151.987 22.825 151.587 22.825H129.337L129.137 22.1H147.787L149.387 20.1ZM143.237 5.475C144.82 5.89167 146.12 6.375 147.137 6.925C148.153 7.475 148.937 8.04167 149.487 8.625C150.053 9.20833 150.428 9.76667 150.612 10.3C150.795 10.8167 150.828 11.2583 150.712 11.625C150.595 11.9917 150.37 12.2333 150.037 12.35C149.72 12.4667 149.337 12.4 148.887 12.15C148.637 11.6 148.287 11.0333 147.837 10.45C147.403 9.85 146.912 9.26667 146.362 8.7C145.812 8.11667 145.245 7.575 144.662 7.075C144.078 6.55833 143.52 6.1 142.987 5.7L143.237 5.475ZM142.737 11.85C142.72 12.0167 142.645 12.1667 142.512 12.3C142.378 12.4167 142.153 12.5 141.837 12.55V22.425H139.337V11.55L142.737 11.85ZM147.362 13.775C147.362 13.775 147.453 13.85 147.637 14C147.837 14.15 148.087 14.3417 148.387 14.575C148.687 14.7917 148.995 15.0333 149.312 15.3C149.628 15.5667 149.92 15.8167 150.187 16.05C150.137 16.3167 149.912 16.45 149.512 16.45H131.712L131.512 15.725H145.812L147.362 13.775ZM148.812 1.125C148.812 1.125 148.903 1.2 149.087 1.35C149.287 1.5 149.528 1.69167 149.812 1.925C150.112 2.14167 150.42 2.38333 150.737 2.65C151.07 2.9 151.378 3.14167 151.662 3.375C151.595 3.64167 151.362 3.775 150.962 3.775H129.937L129.712 3.05H147.262L148.812 1.125ZM172.387 19.05C172.32 19.1667 172.195 19.2583 172.012 19.325C171.845 19.3917 171.637 19.3917 171.387 19.325C170.637 20.2083 169.795 20.9917 168.862 21.675C167.928 22.3417 167.003 22.875 166.087 23.275L165.812 22.95C166.512 22.3667 167.22 21.6 167.937 20.65C168.67 19.7 169.303 18.6833 169.837 17.6L172.387 19.05ZM175.437 17.975C176.587 18.225 177.52 18.5417 178.237 18.925C178.97 19.2917 179.52 19.6833 179.887 20.1C180.253 20.5167 180.478 20.9167 180.562 21.3C180.645 21.6667 180.62 21.9833 180.487 22.25C180.353 22.5167 180.145 22.6833 179.862 22.75C179.578 22.8333 179.245 22.775 178.862 22.575C178.645 22.0917 178.328 21.5833 177.912 21.05C177.495 20.5 177.045 19.975 176.562 19.475C176.078 18.975 175.62 18.5417 175.187 18.175L175.437 17.975ZM176.112 10.325C176.345 10.7083 176.712 11.1333 177.212 11.6C177.728 12.05 178.395 12.5 179.212 12.95C180.028 13.4 180.995 13.8 182.112 14.15L182.087 14.45C181.587 14.5667 181.195 14.75 180.912 15C180.645 15.2333 180.487 15.65 180.437 16.25C179.487 15.7667 178.687 15.1667 178.037 14.45C177.403 13.7333 176.903 13.0167 176.537 12.3C176.17 11.5667 175.895 10.9583 175.712 10.475L176.112 10.325ZM175.987 1.575C175.937 1.725 175.845 1.85 175.712 1.95C175.595 2.05 175.362 2.10833 175.012 2.125C174.778 3.39167 174.453 4.69167 174.037 6.025C173.637 7.35833 173.112 8.66667 172.462 9.95C171.812 11.2333 170.995 12.4333 170.012 13.55C169.045 14.6667 167.862 15.6333 166.462 16.45L166.212 16.175C167.295 15.225 168.203 14.15 168.937 12.95C169.687 11.75 170.303 10.475 170.787 9.125C171.287 7.775 171.662 6.40833 171.912 5.025C172.178 3.625 172.37 2.25833 172.487 0.924999L175.987 1.575ZM179.462 8.5C179.462 8.5 179.587 8.6 179.837 8.8C180.087 9 180.387 9.25 180.737 9.55C181.087 9.85 181.395 10.1333 181.662 10.4C181.595 10.6667 181.378 10.8 181.012 10.8H167.662L167.462 10.075H178.287L179.462 8.5ZM177.912 5.35C177.912 5.35 178.028 5.45 178.262 5.65C178.495 5.85 178.778 6.09167 179.112 6.375C179.445 6.64167 179.745 6.90833 180.012 7.175C179.945 7.44167 179.728 7.575 179.362 7.575H168.912L168.712 6.85H176.762L177.912 5.35ZM178.712 2.225C178.712 2.225 178.837 2.325 179.087 2.525C179.337 2.725 179.628 2.975 179.962 3.275C180.295 3.55833 180.603 3.83333 180.887 4.1C180.82 4.36667 180.603 4.5 180.237 4.5H168.437L168.237 3.775H177.512L178.712 2.225ZM174.587 23.4C174.587 23.4833 174.412 23.6167 174.062 23.8C173.728 23.9833 173.287 24.075 172.737 24.075H172.337V13.75L174.587 13.4V23.4ZM177.237 13.675C177.12 13.7583 176.995 13.8083 176.862 13.825C176.745 13.825 176.562 13.7583 176.312 13.625C175.778 13.7417 175.162 13.85 174.462 13.95C173.762 14.05 173.028 14.1333 172.262 14.2C171.495 14.25 170.745 14.2833 170.012 14.3L169.737 13.95C170.387 13.7833 171.062 13.575 171.762 13.325C172.478 13.075 173.153 12.8167 173.787 12.55C174.42 12.2667 174.937 12.0083 175.337 11.775L177.237 13.675ZM177.537 15.05C177.537 15.05 177.653 15.1417 177.887 15.325C178.12 15.4917 178.395 15.7083 178.712 15.975C179.045 16.225 179.337 16.4667 179.587 16.7C179.537 16.9667 179.328 17.1 178.962 17.1H167.962L167.762 16.375H176.437L177.537 15.05ZM164.637 3.7C164.27 4.31667 163.812 4.99167 163.262 5.725C162.712 6.45833 162.128 7.16667 161.512 7.85C160.912 8.51667 160.328 9.09167 159.762 9.575L159.737 9.275H160.837C160.787 9.875 160.662 10.3667 160.462 10.75C160.278 11.1333 160.062 11.3833 159.812 11.5L158.737 8.95C158.737 8.95 158.82 8.93333 158.987 8.9C159.153 8.85 159.278 8.8 159.362 8.75C159.595 8.5 159.837 8.15833 160.087 7.725C160.337 7.275 160.57 6.79167 160.787 6.275C161.02 5.75833 161.22 5.25833 161.387 4.775C161.57 4.275 161.703 3.85 161.787 3.5H164.637V3.7ZM159.112 9.05C159.595 9.03333 160.262 8.99167 161.112 8.925C161.962 8.85833 162.92 8.775 163.987 8.675C165.07 8.575 166.17 8.46667 167.287 8.35L167.337 8.725C166.57 8.975 165.528 9.325 164.212 9.775C162.895 10.2083 161.462 10.65 159.912 11.1L159.112 9.05ZM158.387 20.475C158.92 20.375 159.67 20.2167 160.637 20C161.62 19.7833 162.728 19.5333 163.962 19.25C165.195 18.95 166.462 18.6333 167.762 18.3L167.862 18.625C167.045 19.075 166.028 19.625 164.812 20.275C163.595 20.9083 162.137 21.6333 160.437 22.45C160.353 22.7667 160.17 22.975 159.887 23.075L158.387 20.475ZM164.362 5.65C165.295 6.03333 166.028 6.45 166.562 6.9C167.095 7.35 167.478 7.8 167.712 8.25C167.945 8.7 168.053 9.11667 168.037 9.5C168.02 9.86667 167.912 10.1667 167.712 10.4C167.528 10.6167 167.295 10.7333 167.012 10.75C166.728 10.7667 166.42 10.6417 166.087 10.375C166.037 9.85833 165.903 9.325 165.687 8.775C165.487 8.225 165.245 7.69167 164.962 7.175C164.678 6.65833 164.387 6.2 164.087 5.8L164.362 5.65ZM164.812 10.775C164.795 10.9083 164.728 11.025 164.612 11.125C164.512 11.225 164.328 11.3 164.062 11.35V20L161.937 20.625V10.5L164.812 10.775ZM165.637 12.925C165.637 12.925 165.745 13.0167 165.962 13.2C166.195 13.3833 166.462 13.6083 166.762 13.875C167.062 14.125 167.337 14.375 167.587 14.625C167.537 14.8917 167.32 15.025 166.937 15.025H159.037L158.837 14.3H164.587L165.637 12.925ZM166.462 1.525C166.462 1.525 166.578 1.625 166.812 1.825C167.062 2.025 167.353 2.26667 167.687 2.55C168.037 2.83333 168.337 3.1 168.587 3.35C168.52 3.61667 168.312 3.75 167.962 3.75H158.737L158.537 3.025H165.337L166.462 1.525ZM189.737 4.725H205.262L206.862 2.7C206.862 2.7 206.953 2.78333 207.137 2.95C207.337 3.1 207.587 3.29167 207.887 3.525C208.187 3.75833 208.503 4.00833 208.837 4.275C209.17 4.54167 209.478 4.8 209.762 5.05C209.695 5.31667 209.453 5.45 209.037 5.45H189.962L189.737 4.725ZM188.062 21.35H206.837L208.437 19.3C208.437 19.3 208.528 19.375 208.712 19.525C208.912 19.675 209.162 19.875 209.462 20.125C209.778 20.3583 210.103 20.6167 210.437 20.9C210.77 21.1667 211.07 21.4167 211.337 21.65C211.27 21.9167 211.037 22.05 210.637 22.05H188.287L188.062 21.35ZM198.312 4.725H200.912V21.675H198.312V4.725ZM236.287 1.175C236.27 1.30833 236.212 1.425 236.112 1.525C236.012 1.625 235.828 1.69167 235.562 1.725V4.775C235.562 4.825 235.453 4.9 235.237 5C235.037 5.08333 234.787 5.15833 234.487 5.225C234.187 5.29167 233.887 5.325 233.587 5.325H233.137V0.874999L236.287 1.175ZM225.212 1.175C225.195 1.30833 225.128 1.425 225.012 1.525C224.912 1.625 224.728 1.69167 224.462 1.725V4.6C224.462 4.65 224.362 4.725 224.162 4.825C223.962 4.90833 223.712 4.98333 223.412 5.05C223.112 5.11667 222.812 5.15 222.512 5.15H222.062V0.874999L225.212 1.175ZM229.637 20.125C229.57 20.2583 229.42 20.3667 229.187 20.45C228.953 20.5333 228.62 20.5 228.187 20.35L229.012 20.225C228.478 20.475 227.787 20.725 226.937 20.975C226.087 21.2083 225.195 21.4333 224.262 21.65C223.328 21.8667 222.445 22.0417 221.612 22.175V21.925H222.562C222.512 22.5083 222.387 22.975 222.187 23.325C222.003 23.6917 221.787 23.925 221.537 24.025L220.537 21.6C220.537 21.6 220.628 21.5917 220.812 21.575C220.995 21.5417 221.137 21.5167 221.237 21.5C221.937 21.3833 222.662 21.175 223.412 20.875C224.162 20.575 224.853 20.25 225.487 19.9C226.137 19.55 226.637 19.2583 226.987 19.025L229.637 20.125ZM221.112 21.75C221.778 21.75 222.637 21.75 223.687 21.75C224.753 21.7333 225.962 21.7083 227.312 21.675C228.678 21.6417 230.128 21.6083 231.662 21.575C233.212 21.5417 234.795 21.5 236.412 21.45V21.9C234.762 22.1333 232.67 22.4 230.137 22.7C227.603 23.0167 224.778 23.325 221.662 23.625L221.112 21.75ZM232.412 19.8C233.762 19.95 234.853 20.1833 235.687 20.5C236.537 20.8 237.187 21.1333 237.637 21.5C238.087 21.8667 238.37 22.225 238.487 22.575C238.62 22.925 238.62 23.225 238.487 23.475C238.37 23.7417 238.17 23.9167 237.887 24C237.62 24.1 237.312 24.075 236.962 23.925C236.728 23.625 236.378 23.2583 235.912 22.825C235.462 22.3917 234.92 21.9417 234.287 21.475C233.67 21.0083 232.995 20.5667 232.262 20.15L232.412 19.8ZM237.812 17.275C237.812 17.275 237.945 17.375 238.212 17.575C238.495 17.775 238.828 18.0167 239.212 18.3C239.595 18.5833 239.945 18.8583 240.262 19.125C240.195 19.3917 239.97 19.525 239.587 19.525H218.612L218.412 18.8H236.487L237.812 17.275ZM233.987 15.025C233.987 15.025 234.12 15.125 234.387 15.325C234.653 15.525 234.978 15.7667 235.362 16.05C235.745 16.3167 236.087 16.5833 236.387 16.85C236.32 17.1167 236.095 17.25 235.712 17.25H223.487L223.287 16.525H232.712L233.987 15.025ZM238.637 1.25C238.637 1.25 238.762 1.35833 239.012 1.575C239.262 1.775 239.553 2.025 239.887 2.325C240.237 2.625 240.537 2.90833 240.787 3.175C240.737 3.44167 240.528 3.575 240.162 3.575H229.937L229.737 2.85H237.487L238.637 1.25ZM227.187 1.475C227.187 1.475 227.303 1.56667 227.537 1.75C227.77 1.93333 228.037 2.15833 228.337 2.425C228.653 2.675 228.937 2.925 229.187 3.175C229.12 3.44167 228.912 3.575 228.562 3.575H217.962L217.762 2.85H226.137L227.187 1.475ZM223.637 8.8C223.47 9.41667 223.203 9.975 222.837 10.475C222.47 10.9583 221.953 11.375 221.287 11.725C220.637 12.075 219.787 12.3667 218.737 12.6L218.412 12.225C219.478 11.8917 220.228 11.4167 220.662 10.8C221.095 10.1833 221.378 9.51667 221.512 8.8H223.637ZM226.637 8.825C226.637 8.94167 226.637 9.05833 226.637 9.175C226.637 9.29167 226.637 9.39167 226.637 9.475V10.125C226.637 10.2417 226.653 10.325 226.687 10.375C226.72 10.4083 226.795 10.425 226.912 10.425H227.437C227.537 10.425 227.62 10.425 227.687 10.425C227.77 10.425 227.837 10.425 227.887 10.425C227.937 10.425 227.995 10.425 228.062 10.425C228.128 10.425 228.187 10.4167 228.237 10.4C228.287 10.4 228.353 10.3917 228.437 10.375C228.52 10.3583 228.587 10.3417 228.637 10.325H228.862L228.962 10.35C229.195 10.4333 229.362 10.5167 229.462 10.6C229.562 10.6667 229.612 10.7833 229.612 10.95C229.612 11.2667 229.445 11.4917 229.112 11.625C228.778 11.7417 228.145 11.8 227.212 11.8H226.337C225.703 11.8 225.303 11.7 225.137 11.5C224.97 11.2833 224.887 10.9167 224.887 10.4V8.825H226.637ZM235.512 7.475L236.587 6.375L238.612 8.025C238.528 8.09167 238.403 8.15833 238.237 8.225C238.087 8.29167 237.912 8.34167 237.712 8.375C237.678 9.125 237.678 9.89167 237.712 10.675C237.762 11.4583 237.862 12.1583 238.012 12.775C238.178 13.3917 238.395 13.8333 238.662 14.1C238.745 14.1667 238.803 14.1917 238.837 14.175C238.887 14.1583 238.945 14.0917 239.012 13.975C239.112 13.7417 239.22 13.4667 239.337 13.15C239.453 12.8167 239.562 12.4833 239.662 12.15L239.962 12.2L239.737 14.65C239.953 14.9333 240.103 15.1917 240.187 15.425C240.27 15.6417 240.245 15.85 240.112 16.05C239.978 16.3 239.77 16.45 239.487 16.5C239.203 16.5333 238.903 16.5 238.587 16.4C238.287 16.2833 238.02 16.1333 237.787 15.95C237.203 15.45 236.762 14.7667 236.462 13.9C236.178 13.0333 235.987 12.05 235.887 10.95C235.803 9.83333 235.762 8.675 235.762 7.475H235.512ZM218.737 15.1C219.42 15.1 220.303 15.0667 221.387 15C222.487 14.9167 223.695 14.8167 225.012 14.7C226.345 14.5833 227.687 14.45 229.037 14.3L229.062 14.7C228.045 15.0167 226.837 15.3583 225.437 15.725C224.037 16.0917 222.387 16.475 220.487 16.875C220.353 17.175 220.153 17.35 219.887 17.4L218.737 15.1ZM236.962 7.475V8.2H230.012L229.787 7.475H236.962ZM234.812 5.375C234.795 5.525 234.72 5.65833 234.587 5.775C234.47 5.89167 234.278 5.96667 234.012 6C233.978 7.16667 233.92 8.25833 233.837 9.275C233.753 10.275 233.537 11.2083 233.187 12.075C232.853 12.925 232.312 13.7083 231.562 14.425C230.828 15.125 229.787 15.7417 228.437 16.275L228.162 15.875C229.145 15.275 229.903 14.6083 230.437 13.875C230.97 13.1417 231.337 12.3333 231.537 11.45C231.753 10.55 231.878 9.575 231.912 8.525C231.962 7.475 231.987 6.33333 231.987 5.1L234.812 5.375ZM225.437 11.25C225.42 11.3833 225.362 11.5 225.262 11.6C225.162 11.7 224.995 11.7667 224.762 11.8V15.5H222.812V10.975L225.437 11.25ZM225.637 5.1C225.62 5.23333 225.553 5.35 225.437 5.45C225.337 5.53333 225.178 5.59167 224.962 5.625V9.05H222.937V4.825L225.637 5.1ZM227.937 7.375C227.937 7.375 228.045 7.45833 228.262 7.625C228.478 7.775 228.745 7.96667 229.062 8.2C229.378 8.43333 229.662 8.65833 229.912 8.875C229.845 9.14167 229.628 9.275 229.262 9.275H218.962L218.762 8.55H226.887L227.937 7.375ZM227.112 11.7C227.112 11.7 227.212 11.775 227.412 11.925C227.628 12.0583 227.878 12.2333 228.162 12.45C228.462 12.65 228.728 12.8583 228.962 13.075C228.912 13.3417 228.703 13.475 228.337 13.475H219.962L219.762 12.75H226.137L227.112 11.7ZM226.887 5.225C226.887 5.225 226.995 5.30833 227.212 5.475C227.428 5.625 227.678 5.825 227.962 6.075C228.262 6.30833 228.537 6.53333 228.787 6.75C228.72 7.01667 228.503 7.15 228.137 7.15H219.812L219.612 6.425H225.862L226.887 5.225ZM230.087 9.8C231.22 9.98333 232.145 10.2333 232.862 10.55C233.578 10.8667 234.12 11.2083 234.487 11.575C234.87 11.925 235.112 12.275 235.212 12.625C235.312 12.9583 235.312 13.25 235.212 13.5C235.112 13.7333 234.937 13.8917 234.687 13.975C234.453 14.0583 234.187 14.0167 233.887 13.85C233.653 13.3667 233.195 12.775 232.512 12.075C231.828 11.375 230.962 10.7417 229.912 10.175L230.087 9.8Z" fill="#6E4D3B"/>
</svg>
