<svg width="509" height="50" viewBox="0 0 509 50" fill="none" xmlns="http://www.w3.org/2000/svg">
<path d="M27.6518 36.784C31.2918 37.1653 34.3252 37.772 36.7518 38.604C39.1785 39.4013 41.1198 40.32 42.5758 41.36C44.0665 42.3653 45.1065 43.3707 45.6958 44.376C46.3198 45.3813 46.5798 46.2827 46.4758 47.08C46.3718 47.8773 46.0078 48.4667 45.3838 48.848C44.7598 49.2293 43.9278 49.2813 42.8878 49.004C42.0905 47.964 41.0678 46.8893 39.8198 45.78C38.6065 44.7053 37.2718 43.648 35.8158 42.608C34.3945 41.568 32.9385 40.5973 31.4478 39.696C29.9918 38.76 28.6052 37.98 27.2878 37.356L27.6518 36.784ZM28.2758 27.528C28.2065 27.8747 28.0158 28.1867 27.7038 28.464C27.4265 28.7067 26.9932 28.8627 26.4038 28.932C26.1612 30.7347 25.8145 32.468 25.3638 34.132C24.9478 35.7613 24.2545 37.3213 23.2838 38.812C22.3478 40.268 20.9785 41.6373 19.1758 42.92C17.3732 44.168 15.0158 45.3293 12.1038 46.404C9.19182 47.4787 5.55182 48.4667 1.18382 49.368L0.819822 48.484C4.35582 47.34 7.30249 46.1613 9.65982 44.948C12.0172 43.7 13.9238 42.4173 15.3798 41.1C16.8358 39.748 17.9278 38.3267 18.6558 36.836C19.4185 35.3107 19.9385 33.7333 20.2158 32.104C20.5278 30.44 20.7358 28.672 20.8398 26.8L28.2758 27.528ZM42.0558 28.724C42.0558 28.724 42.2465 28.88 42.6278 29.192C43.0092 29.4693 43.4772 29.8333 44.0318 30.284C44.6212 30.7347 45.2278 31.22 45.8518 31.74C46.5105 32.26 47.0998 32.7453 47.6198 33.196C47.5505 33.4733 47.3945 33.6813 47.1518 33.82C46.9092 33.9587 46.5972 34.028 46.2158 34.028H2.58782L2.11982 32.52H39.0398L42.0558 28.724ZM38.2078 2.828C38.1038 3.14 37.8958 3.38266 37.5838 3.556C37.2718 3.72933 36.8212 3.816 36.2318 3.816C35.6078 4.50933 34.8625 5.25467 33.9958 6.052C33.1292 6.84933 32.2105 7.62933 31.2398 8.392C30.2692 9.15466 29.3158 9.86533 28.3798 10.524H27.4958C27.9812 9.62267 28.4492 8.63467 28.8998 7.56C29.3505 6.45066 29.7838 5.324 30.1998 4.18C30.6158 3.036 30.9625 2.01333 31.2398 1.112L38.2078 2.828ZM11.8438 1.32C13.9585 1.632 15.6052 2.11733 16.7838 2.776C17.9972 3.4 18.8465 4.09333 19.3318 4.856C19.8518 5.61866 20.0772 6.364 20.0078 7.092C19.9732 7.82 19.7305 8.42667 19.2798 8.912C18.8292 9.36266 18.2572 9.62266 17.5638 9.692C16.9052 9.76133 16.1772 9.50133 15.3798 8.912C15.2758 8.08 15.0158 7.21333 14.5998 6.312C14.1838 5.41066 13.6812 4.56133 13.0918 3.764C12.5372 2.932 11.9652 2.23866 11.3758 1.684L11.8438 1.32ZM26.7158 9.952V25.188H21.3598V9.952H26.7158ZM37.7398 13.488C37.7398 13.488 37.9132 13.6267 38.2598 13.904C38.6065 14.1467 39.0398 14.476 39.5598 14.892C40.0798 15.308 40.6345 15.7587 41.2238 16.244C41.8478 16.6947 42.4025 17.1453 42.8878 17.596C42.7492 18.1507 42.2812 18.428 41.4838 18.428H6.74782L6.33182 16.92H34.9318L37.7398 13.488ZM40.9118 6.052C40.9118 6.052 41.0852 6.19067 41.4318 6.468C41.8132 6.74533 42.2812 7.10933 42.8358 7.56C43.3905 7.976 43.9798 8.42667 44.6038 8.912C45.2278 9.39733 45.7998 9.88267 46.3198 10.368C46.1812 10.9227 45.6958 11.2 44.8638 11.2H3.88782L3.47182 9.692H37.9478L40.9118 6.052ZM42.5758 20.56C42.5758 20.56 42.7492 20.716 43.0958 21.028C43.4772 21.3053 43.9452 21.6693 44.4998 22.12C45.0892 22.5707 45.6958 23.056 46.3198 23.576C46.9438 24.096 47.5158 24.5813 48.0358 25.032C47.9665 25.3093 47.7932 25.5173 47.5158 25.656C47.2732 25.7947 46.9785 25.864 46.6318 25.864H1.80782L1.39182 24.356H39.6118L42.5758 20.56ZM71.7478 9.744H76.2718L78.0398 7.508C78.0398 7.508 78.2305 7.664 78.6118 7.976C78.9932 8.288 79.4438 8.66933 79.9638 9.12C80.5185 9.57066 80.9865 10.004 81.3678 10.42C81.2638 10.9747 80.8478 11.252 80.1198 11.252H71.7478V9.744ZM71.6438 15.256H76.3758L78.2478 12.916C78.2478 12.916 78.4385 13.072 78.8198 13.384C79.2012 13.696 79.6518 14.0947 80.1718 14.58C80.7265 15.0307 81.2118 15.4813 81.6278 15.932C81.4892 16.4867 81.0558 16.764 80.3278 16.764H71.6438V15.256ZM67.6398 20.612H106.328V22.12H67.6398V20.612ZM103.936 20.612H103.364L106.12 17.908L110.956 22.536C110.748 22.7093 110.488 22.8307 110.176 22.9C109.898 22.9693 109.5 23.0213 108.98 23.056C108.425 23.4373 107.749 23.888 106.952 24.408C106.154 24.928 105.34 25.4307 104.508 25.916C103.71 26.3667 102.982 26.7653 102.324 27.112L101.752 26.748C101.994 26.228 102.254 25.604 102.532 24.876C102.809 24.1133 103.069 23.3507 103.312 22.588C103.589 21.8253 103.797 21.1667 103.936 20.612ZM82.8238 3.764C84.8692 3.972 86.5158 4.35333 87.7638 4.908C89.0118 5.428 89.8958 6.01733 90.4158 6.676C90.9705 7.33466 91.2478 7.95866 91.2478 8.548C91.2478 9.10266 91.0225 9.51866 90.5718 9.796C90.1558 10.0733 89.6358 10.0907 89.0118 9.848C88.5958 9.224 88.0065 8.56533 87.2438 7.872C86.4812 7.17866 85.6665 6.52 84.7998 5.896C83.9332 5.23733 83.1185 4.71733 82.3558 4.336L82.8238 3.764ZM82.9798 12.5C85.1638 12.7773 86.8972 13.2453 88.1798 13.904C89.4625 14.5627 90.3812 15.2733 90.9358 16.036C91.4905 16.764 91.7505 17.4573 91.7158 18.116C91.6812 18.74 91.4385 19.208 90.9878 19.52C90.5372 19.7973 89.9478 19.78 89.2198 19.468C88.8732 18.7053 88.3185 17.9253 87.5558 17.128C86.8278 16.296 86.0132 15.5333 85.1118 14.84C84.2105 14.112 83.3438 13.5053 82.5118 13.02L82.9798 12.5ZM78.1958 1.008L82.3558 4.232C82.0785 4.57866 81.5585 4.61333 80.7958 4.336C79.7558 4.648 78.3865 4.99466 76.6878 5.376C75.0238 5.72267 73.3772 5.96533 71.7478 6.104L71.4358 5.532C72.2332 5.15066 73.0478 4.68267 73.8798 4.128C74.7465 3.57333 75.5612 3.01866 76.3238 2.464C77.1212 1.87467 77.7452 1.38933 78.1958 1.008ZM93.5358 9.744H102.428V11.252H94.0038L93.5358 9.744ZM93.3798 15.256H102.168V16.764H93.8478L93.3798 15.256ZM93.0678 4.284H102.584V5.74H93.5358L93.0678 4.284ZM69.5118 3.14L75.8038 4.544C75.6652 5.02933 75.0758 5.376 74.0358 5.584L74.6078 21.34H70.1358L69.5118 3.14ZM99.4638 4.284H98.9958L101.024 1.892L105.652 5.584C105.478 5.792 105.253 5.948 104.976 6.052C104.733 6.12133 104.369 6.19066 103.884 6.26L103.052 21.392H98.4758L99.4638 4.284ZM63.5838 35.484H101.544L104.456 31.636C104.456 31.636 104.629 31.7747 104.976 32.052C105.357 32.3293 105.825 32.7107 106.38 33.196C106.934 33.6467 107.506 34.132 108.096 34.652C108.72 35.172 109.274 35.6747 109.76 36.16C109.621 36.7147 109.153 36.992 108.356 36.992H63.9998L63.5838 35.484ZM84.3838 31.48L90.9878 32.104C90.9532 32.4507 90.7972 32.728 90.5198 32.936C90.2425 33.144 89.8265 33.2827 89.2718 33.352V43.128C89.2718 44.3413 89.1158 45.3813 88.8038 46.248C88.4918 47.1147 87.8505 47.808 86.8798 48.328C85.9092 48.8827 84.4012 49.2467 82.3558 49.42C82.2865 48.6227 82.1652 47.9293 81.9918 47.34C81.8185 46.7853 81.5238 46.3 81.1078 45.884C80.6918 45.5027 80.1198 45.1733 79.3918 44.896C78.6638 44.6187 77.6585 44.376 76.3758 44.168V43.44C76.3758 43.44 76.6705 43.4573 77.2598 43.492C77.8838 43.5267 78.5945 43.5787 79.3918 43.648C80.2238 43.6827 81.0038 43.7173 81.7318 43.752C82.4945 43.7867 83.0145 43.804 83.2918 43.804C83.7078 43.804 83.9852 43.7347 84.1238 43.596C84.2972 43.4573 84.3838 43.2147 84.3838 42.868V31.48ZM94.5238 26.696H93.9518L96.8118 23.94L101.7 28.308C101.492 28.516 101.232 28.6547 100.92 28.724C100.608 28.7933 100.174 28.8453 99.6198 28.88C98.5798 29.3307 97.3838 29.816 96.0318 30.336C94.6798 30.856 93.2758 31.3587 91.8198 31.844C90.3985 32.2947 89.0118 32.676 87.6598 32.988H86.8278C87.7638 32.4333 88.6998 31.7747 89.6358 31.012C90.6065 30.2493 91.5252 29.4867 92.3918 28.724C93.2932 27.9267 94.0038 27.2507 94.5238 26.696ZM73.0478 26.696H97.4358V28.204H73.5158L73.0478 26.696ZM67.3278 17.752L68.0558 17.7C68.7145 19.364 69.0958 20.9067 69.1998 22.328C69.3038 23.7493 69.1305 24.98 68.6798 26.02C68.2292 27.06 67.4838 27.8227 66.4438 28.308C65.5772 28.724 64.7972 28.828 64.1038 28.62C63.4452 28.3773 62.9598 27.9613 62.6478 27.372C62.3705 26.7827 62.3532 26.1413 62.5958 25.448C62.8385 24.72 63.4452 24.1133 64.4158 23.628C65.1092 23.2467 65.7678 22.5533 66.3918 21.548C67.0505 20.5427 67.3625 19.2773 67.3278 17.752ZM88.7518 1.476L93.1198 3.66C92.8772 4.14533 92.3052 4.26667 91.4038 4.024C90.7452 4.856 89.8958 5.70533 88.8558 6.572C87.8158 7.404 86.6718 8.20133 85.4238 8.964C84.1758 9.692 82.9278 10.316 81.6798 10.836L81.1598 10.056C82.6852 8.94666 84.1412 7.612 85.5278 6.052C86.9145 4.45733 87.9892 2.932 88.7518 1.476ZM89.5318 10.472L93.9518 12.604C93.7092 13.0893 93.1372 13.2107 92.2358 12.968C91.5078 13.9387 90.5545 14.892 89.3758 15.828C88.1972 16.7293 86.9145 17.5613 85.5278 18.324C84.1412 19.0867 82.7372 19.7107 81.3158 20.196L80.8478 19.416C82.6158 18.3413 84.2972 16.9893 85.8918 15.36C87.4865 13.696 88.6998 12.0667 89.5318 10.472ZM131.028 3.816V2.152L136.852 4.336H136.072V17.232C136.072 19.6933 135.968 22.328 135.76 25.136C135.586 27.9093 135.153 30.7347 134.46 33.612C133.766 36.4547 132.692 39.228 131.236 41.932C129.78 44.6013 127.786 47.0627 125.256 49.316L124.58 48.848C126.556 45.6933 127.994 42.3653 128.896 38.864C129.797 35.328 130.369 31.7227 130.612 28.048C130.889 24.3733 131.028 20.7853 131.028 17.284V4.336V3.816ZM163.84 4.336L166.232 1.736L171.38 5.636C171.206 5.844 170.929 6.052 170.548 6.26C170.166 6.43333 169.716 6.572 169.196 6.676V14.996C169.196 15.1 168.953 15.256 168.468 15.464C168.017 15.6373 167.48 15.8107 166.856 15.984C166.232 16.1227 165.66 16.192 165.14 16.192H164.36V4.336H163.84ZM167.532 12.708V14.216H133.784V12.708H167.532ZM167.116 4.336V5.844H133.524V4.336H167.116ZM140.128 44.584C140.89 44.4107 141.982 44.1333 143.404 43.752C144.825 43.3707 146.42 42.92 148.188 42.4C149.99 41.88 151.81 41.3253 153.648 40.736L153.856 41.412C153.093 41.932 152.105 42.6253 150.892 43.492C149.678 44.324 148.309 45.2427 146.784 46.248C145.258 47.2533 143.646 48.276 141.948 49.316L140.128 44.584ZM144.444 29.972L145.588 30.7V44.116L141.48 45.78L143.56 43.96C143.872 44.9653 143.958 45.8667 143.82 46.664C143.681 47.4613 143.438 48.1027 143.092 48.588C142.78 49.0733 142.416 49.4373 142 49.68L138.828 44.272C139.694 43.752 140.249 43.336 140.492 43.024C140.734 42.712 140.856 42.3307 140.856 41.88V29.972H144.444ZM170.132 35.484C169.958 35.7267 169.716 35.8827 169.404 35.952C169.126 36.0213 168.71 35.9693 168.156 35.796C167.254 36.212 166.214 36.6973 165.036 37.252C163.857 37.772 162.626 38.2747 161.344 38.76C160.096 39.2453 158.865 39.7133 157.652 40.164L157.08 39.54C157.946 38.7427 158.865 37.876 159.836 36.94C160.806 35.9693 161.725 35.016 162.592 34.08C163.458 33.144 164.169 32.3293 164.724 31.636L170.132 35.484ZM151.776 29.868C152.608 32.0867 153.734 34.028 155.156 35.692C156.577 37.3213 158.241 38.708 160.148 39.852C162.054 40.9613 164.152 41.8973 166.44 42.66C168.762 43.388 171.206 43.96 173.772 44.376L173.72 44.948C172.68 45.1907 171.813 45.6933 171.12 46.456C170.426 47.2187 169.941 48.224 169.664 49.472C166.37 48.3973 163.51 47.0627 161.084 45.468C158.657 43.8733 156.594 41.8453 154.896 39.384C153.232 36.9227 151.932 33.8893 150.996 30.284L151.776 29.868ZM168.104 25.916C168.104 25.916 168.277 26.072 168.624 26.384C168.97 26.6613 169.421 27.0253 169.976 27.476C170.53 27.9267 171.102 28.412 171.692 28.932C172.281 29.452 172.818 29.9373 173.304 30.388C173.2 30.9427 172.732 31.22 171.9 31.22H134.616L134.148 29.712H165.244L168.104 25.916ZM165.556 17.752C165.556 17.752 165.816 17.9773 166.336 18.428C166.89 18.8787 167.549 19.416 168.312 20.04C169.074 20.664 169.75 21.2707 170.34 21.86C170.236 22.4147 169.785 22.692 168.988 22.692H136.436L136.02 21.184H162.904L165.556 17.752ZM162.176 15.88C162.141 16.192 162.02 16.4693 161.812 16.712C161.604 16.92 161.205 17.0587 160.616 17.128V30.544H155.936V15.308L162.176 15.88ZM149.696 15.776C149.661 16.088 149.522 16.348 149.28 16.556C149.072 16.764 148.69 16.9027 148.136 16.972V30.544H143.404V15.152L149.696 15.776ZM213.344 0.539999C215.354 0.747998 216.932 1.12933 218.076 1.684C219.22 2.23866 220.034 2.88 220.52 3.608C221.04 4.30133 221.282 4.99467 221.248 5.688C221.213 6.34666 220.988 6.91866 220.572 7.404C220.19 7.85466 219.67 8.11467 219.012 8.184C218.353 8.25333 217.642 8.028 216.88 7.508C216.706 6.32933 216.221 5.13333 215.424 3.92C214.626 2.672 213.777 1.66666 212.876 0.903997L213.344 0.539999ZM190.88 34.184C191.192 34.184 191.417 34.132 191.556 34.028C191.729 33.924 191.937 33.5947 192.18 33.04C192.318 32.6933 192.44 32.3813 192.544 32.104C192.682 31.8267 192.838 31.428 193.012 30.908C193.185 30.3533 193.445 29.608 193.792 28.672C194.138 27.7013 194.572 26.4187 195.092 24.824C195.612 23.1947 196.288 21.132 197.12 18.636C197.952 16.14 198.957 13.0893 200.136 9.484L201.02 9.64C200.742 10.9573 200.413 12.4653 200.032 14.164C199.65 15.828 199.269 17.544 198.888 19.312C198.506 21.0453 198.142 22.7267 197.796 24.356C197.484 25.9507 197.189 27.372 196.912 28.62C196.669 29.8333 196.496 30.7173 196.392 31.272C196.253 32.1387 196.114 33.0053 195.976 33.872C195.872 34.704 195.837 35.4493 195.872 36.108C195.906 36.9747 196.062 37.8413 196.34 38.708C196.652 39.5747 196.946 40.528 197.224 41.568C197.536 42.608 197.657 43.8907 197.588 45.416C197.553 46.6293 197.206 47.6 196.548 48.328C195.924 49.056 195.057 49.42 193.948 49.42C193.428 49.42 192.96 49.212 192.544 48.796C192.128 48.38 191.85 47.704 191.712 46.768C192.024 45.0347 192.197 43.4053 192.232 41.88C192.266 40.32 192.197 39.02 192.024 37.98C191.85 36.94 191.573 36.2813 191.192 36.004C190.88 35.7613 190.516 35.588 190.1 35.484C189.718 35.3453 189.25 35.2587 188.696 35.224V34.184C188.696 34.184 188.834 34.184 189.112 34.184C189.389 34.184 189.701 34.184 190.048 34.184C190.429 34.184 190.706 34.184 190.88 34.184ZM187.292 13.488C189.302 13.7653 190.897 14.216 192.076 14.84C193.289 15.4293 194.156 16.088 194.676 16.816C195.23 17.544 195.508 18.2547 195.508 18.948C195.542 19.6413 195.352 20.2133 194.936 20.664C194.554 21.1147 194.034 21.3747 193.376 21.444C192.752 21.5133 192.076 21.3053 191.348 20.82C191.174 19.988 190.845 19.156 190.36 18.324C189.874 17.4573 189.32 16.6427 188.696 15.88C188.072 15.0827 187.448 14.424 186.824 13.904L187.292 13.488ZM190.62 1.684C192.734 2.06533 194.416 2.60266 195.664 3.296C196.912 3.95466 197.813 4.68266 198.368 5.48C198.922 6.24266 199.2 6.988 199.2 7.716C199.2 8.40933 198.992 8.99867 198.576 9.484C198.16 9.93467 197.622 10.1947 196.964 10.264C196.34 10.3333 195.646 10.108 194.884 9.588C194.676 8.68667 194.312 7.78533 193.792 6.884C193.272 5.948 192.682 5.064 192.024 4.232C191.4 3.4 190.776 2.68933 190.152 2.1L190.62 1.684ZM205.804 5.636C206.358 7.68133 206.618 9.38 206.584 10.732C206.584 12.084 206.376 13.176 205.96 14.008C205.578 14.84 205.093 15.4293 204.504 15.776C203.914 16.1227 203.325 16.2787 202.736 16.244C202.181 16.1747 201.696 15.9667 201.28 15.62C200.864 15.2733 200.656 14.8053 200.656 14.216C200.656 13.592 200.933 12.8987 201.488 12.136C202.389 11.616 203.169 10.8013 203.828 9.692C204.486 8.58267 204.902 7.23067 205.076 5.636H205.804ZM228.736 8.444L231.388 5.844L236.016 10.264C235.842 10.472 235.6 10.6107 235.288 10.68C235.01 10.7493 234.612 10.8013 234.092 10.836C233.468 11.3213 232.688 11.928 231.752 12.656C230.816 13.3493 229.984 13.904 229.256 14.32L228.684 14.008C228.718 13.5227 228.77 12.9507 228.84 12.292C228.944 11.5987 229.03 10.9053 229.1 10.212C229.204 9.484 229.273 8.89466 229.308 8.444H228.736ZM220.78 40.216C224.004 40.5973 226.621 41.1 228.632 41.724C230.642 42.3133 232.168 42.972 233.208 43.7C234.282 44.3933 234.958 45.0693 235.236 45.728C235.548 46.4213 235.565 47.0453 235.288 47.6C235.045 48.1547 234.629 48.5707 234.04 48.848C233.485 49.1253 232.844 49.2293 232.116 49.16C231.422 49.0907 230.781 48.7613 230.192 48.172C229.36 47.0973 228.129 45.9013 226.5 44.584C224.87 43.2667 222.86 42.0533 220.468 40.944L220.78 40.216ZM218.024 43.128C217.85 43.4053 217.538 43.596 217.088 43.7C216.637 43.7693 216.048 43.7173 215.32 43.544C214.072 44.376 212.581 45.1733 210.848 45.936C209.149 46.6987 207.294 47.3573 205.284 47.912C203.273 48.5013 201.21 48.9347 199.096 49.212L198.836 48.536C200.604 47.8427 202.337 46.976 204.036 45.936C205.734 44.9307 207.26 43.856 208.612 42.712C209.998 41.5333 211.09 40.424 211.888 39.384L218.024 43.128ZM219.896 14.84V36.888H215.268V14.84H219.896ZM204.296 19.26L209.444 21.34H225.824L228.112 18.688L232.74 22.224C232.566 22.432 232.324 22.6227 232.012 22.796C231.734 22.9347 231.318 23.056 230.764 23.16V38.344C230.764 38.4827 230.382 38.7253 229.62 39.072C228.892 39.384 227.956 39.54 226.812 39.54H225.98V22.848H208.872V39.228C208.872 39.4013 208.525 39.6613 207.832 40.008C207.173 40.32 206.254 40.476 205.076 40.476H204.296V21.34V19.26ZM231.284 8.444V9.952H205.18V8.444H231.284ZM226.188 11.46C226.188 11.46 226.361 11.5987 226.708 11.876C227.054 12.1187 227.488 12.448 228.008 12.864C228.562 13.2453 229.134 13.6787 229.724 14.164C230.313 14.6147 230.868 15.0653 231.388 15.516C231.249 16.0707 230.781 16.348 229.984 16.348H205.752L205.336 14.84H223.328L226.188 11.46ZM228.008 28.412V29.92H206.844V28.412H228.008ZM228.112 36.212V37.72H207.052V36.212H228.112ZM300.232 10.004C300.094 10.316 299.747 10.5413 299.192 10.68C298.672 10.8187 297.996 10.6973 297.164 10.316L298.828 10.056C297.858 10.888 296.627 11.7893 295.136 12.76C293.68 13.7307 292.068 14.7013 290.3 15.672C288.567 16.6427 286.781 17.544 284.944 18.376C283.141 19.208 281.425 19.9187 279.796 20.508L279.744 19.988H282.188C282.049 21.4787 281.737 22.6573 281.252 23.524C280.801 24.3907 280.281 24.9453 279.692 25.188L277.248 19.208C277.248 19.208 277.473 19.1733 277.924 19.104C278.409 19 278.791 18.896 279.068 18.792C280.351 18.2373 281.72 17.4747 283.176 16.504C284.632 15.4987 286.053 14.4067 287.44 13.228C288.827 12.0493 290.092 10.888 291.236 9.744C292.38 8.56533 293.281 7.52533 293.94 6.624L300.232 10.004ZM278.288 19.416C279.848 19.3813 281.859 19.312 284.32 19.208C286.781 19.104 289.572 18.9653 292.692 18.792C295.847 18.6187 299.192 18.428 302.728 18.22C306.299 17.9773 309.939 17.7347 313.648 17.492L313.7 18.376C309.991 19.1733 305.276 20.0747 299.556 21.08C293.836 22.0507 287.354 23.056 280.108 24.096L278.288 19.416ZM315.624 41.048C315.624 41.048 315.815 41.204 316.196 41.516C316.612 41.828 317.132 42.2267 317.756 42.712C318.415 43.1973 319.074 43.7347 319.732 44.324C320.426 44.8787 321.067 45.3987 321.656 45.884C321.518 46.4387 321.032 46.716 320.2 46.716H273.92L273.504 45.208H312.296L315.624 41.048ZM302.832 10.628C306.126 11.4947 308.83 12.5 310.944 13.644C313.059 14.788 314.688 15.9667 315.832 17.18C317.011 18.3933 317.791 19.5547 318.172 20.664C318.554 21.7387 318.623 22.6573 318.38 23.42C318.138 24.1827 317.67 24.6853 316.976 24.928C316.318 25.1707 315.52 25.032 314.584 24.512C314.064 23.368 313.336 22.1893 312.4 20.976C311.499 19.728 310.476 18.5147 309.332 17.336C308.188 16.1227 307.01 14.996 305.796 13.956C304.583 12.8813 303.422 11.928 302.312 11.096L302.832 10.628ZM301.792 23.888C301.757 24.2347 301.601 24.5467 301.324 24.824C301.047 25.0667 300.579 25.24 299.92 25.344V45.884H294.72V23.264L301.792 23.888ZM311.412 27.892C311.412 27.892 311.603 28.048 311.984 28.36C312.4 28.672 312.92 29.0707 313.544 29.556C314.168 30.0067 314.81 30.5093 315.468 31.064C316.127 31.6187 316.734 32.1387 317.288 32.624C317.184 33.1787 316.716 33.456 315.884 33.456H278.86L278.444 31.948H308.188L311.412 27.892ZM314.428 1.58C314.428 1.58 314.619 1.736 315 2.048C315.416 2.36 315.919 2.75867 316.508 3.244C317.132 3.69467 317.774 4.19733 318.432 4.752C319.126 5.272 319.767 5.77466 320.356 6.26C320.218 6.81466 319.732 7.092 318.9 7.092H275.168L274.7 5.584H311.204L314.428 1.58ZM364.504 38.864C364.365 39.1067 364.105 39.2973 363.724 39.436C363.377 39.5747 362.944 39.5747 362.424 39.436C360.864 41.2733 359.113 42.9027 357.172 44.324C355.231 45.7107 353.307 46.82 351.4 47.652L350.828 46.976C352.284 45.7627 353.757 44.168 355.248 42.192C356.773 40.216 358.091 38.1013 359.2 35.848L364.504 38.864ZM370.848 36.628C373.24 37.148 375.181 37.8067 376.672 38.604C378.197 39.3667 379.341 40.1813 380.104 41.048C380.867 41.9147 381.335 42.7467 381.508 43.544C381.681 44.3067 381.629 44.9653 381.352 45.52C381.075 46.0747 380.641 46.4213 380.052 46.56C379.463 46.7333 378.769 46.612 377.972 46.196C377.521 45.1907 376.863 44.1333 375.996 43.024C375.129 41.88 374.193 40.788 373.188 39.748C372.183 38.708 371.229 37.8067 370.328 37.044L370.848 36.628ZM372.252 20.716C372.737 21.5133 373.5 22.3973 374.54 23.368C375.615 24.304 377.001 25.24 378.7 26.176C380.399 27.112 382.409 27.944 384.732 28.672L384.68 29.296C383.64 29.5387 382.825 29.92 382.236 30.44C381.681 30.9253 381.352 31.792 381.248 33.04C379.272 32.0347 377.608 30.7867 376.256 29.296C374.939 27.8053 373.899 26.3147 373.136 24.824C372.373 23.2987 371.801 22.0333 371.42 21.028L372.252 20.716ZM371.992 2.516C371.888 2.828 371.697 3.088 371.42 3.296C371.177 3.504 370.692 3.62533 369.964 3.66C369.479 6.29466 368.803 8.99866 367.936 11.772C367.104 14.5453 366.012 17.2667 364.66 19.936C363.308 22.6053 361.609 25.1013 359.564 27.424C357.553 29.7467 355.092 31.7573 352.18 33.456L351.66 32.884C353.913 30.908 355.803 28.672 357.328 26.176C358.888 23.68 360.171 21.028 361.176 18.22C362.216 15.412 362.996 12.5693 363.516 9.692C364.071 6.78 364.469 3.93733 364.712 1.164L371.992 2.516ZM379.22 16.92C379.22 16.92 379.48 17.128 380 17.544C380.52 17.96 381.144 18.48 381.872 19.104C382.6 19.728 383.241 20.3173 383.796 20.872C383.657 21.4267 383.207 21.704 382.444 21.704H354.676L354.26 20.196H376.776L379.22 16.92ZM375.996 10.368C375.996 10.368 376.239 10.576 376.724 10.992C377.209 11.408 377.799 11.9107 378.492 12.5C379.185 13.0547 379.809 13.6093 380.364 14.164C380.225 14.7187 379.775 14.996 379.012 14.996H357.276L356.86 13.488H373.604L375.996 10.368ZM377.66 3.868C377.66 3.868 377.92 4.076 378.44 4.492C378.96 4.908 379.567 5.428 380.26 6.052C380.953 6.64133 381.595 7.21333 382.184 7.768C382.045 8.32266 381.595 8.6 380.832 8.6H356.288L355.872 7.092H375.164L377.66 3.868ZM369.08 47.912C369.08 48.0853 368.716 48.3627 367.988 48.744C367.295 49.1253 366.376 49.316 365.232 49.316H364.4V27.84L369.08 27.112V47.912ZM374.592 27.684C374.349 27.8573 374.089 27.9613 373.812 27.996C373.569 27.996 373.188 27.8573 372.668 27.58C371.559 27.8227 370.276 28.048 368.82 28.256C367.364 28.464 365.839 28.6373 364.244 28.776C362.649 28.88 361.089 28.9493 359.564 28.984L358.992 28.256C360.344 27.9093 361.748 27.476 363.204 26.956C364.695 26.436 366.099 25.8987 367.416 25.344C368.733 24.7547 369.808 24.2173 370.64 23.732L374.592 27.684ZM375.216 30.544C375.216 30.544 375.459 30.7347 375.944 31.116C376.429 31.4627 377.001 31.9133 377.66 32.468C378.353 32.988 378.96 33.4907 379.48 33.976C379.376 34.5307 378.943 34.808 378.18 34.808H355.3L354.884 33.3H372.928L375.216 30.544ZM348.384 6.936C347.621 8.21866 346.668 9.62266 345.524 11.148C344.38 12.6733 343.167 14.1467 341.884 15.568C340.636 16.9547 339.423 18.1507 338.244 19.156L338.192 18.532H340.48C340.376 19.78 340.116 20.8027 339.7 21.6C339.319 22.3973 338.868 22.9173 338.348 23.16L336.112 17.856C336.112 17.856 336.285 17.8213 336.632 17.752C336.979 17.648 337.239 17.544 337.412 17.44C337.897 16.92 338.4 16.2093 338.92 15.308C339.44 14.372 339.925 13.3667 340.376 12.292C340.861 11.2173 341.277 10.1773 341.624 9.172C342.005 8.132 342.283 7.248 342.456 6.52H348.384V6.936ZM336.892 18.064C337.897 18.0293 339.284 17.9427 341.052 17.804C342.82 17.6653 344.813 17.492 347.032 17.284C349.285 17.076 351.573 16.8507 353.896 16.608L354 17.388C352.405 17.908 350.239 18.636 347.5 19.572C344.761 20.4733 341.78 21.392 338.556 22.328L336.892 18.064ZM335.384 41.828C336.493 41.62 338.053 41.2907 340.064 40.84C342.109 40.3893 344.415 39.8693 346.98 39.28C349.545 38.656 352.18 37.9973 354.884 37.304L355.092 37.98C353.393 38.916 351.279 40.06 348.748 41.412C346.217 42.7293 343.184 44.2373 339.648 45.936C339.475 46.5947 339.093 47.028 338.504 47.236L335.384 41.828ZM347.812 10.992C349.753 11.7893 351.279 12.656 352.388 13.592C353.497 14.528 354.295 15.464 354.78 16.4C355.265 17.336 355.491 18.2027 355.456 19C355.421 19.7627 355.196 20.3867 354.78 20.872C354.399 21.3227 353.913 21.5653 353.324 21.6C352.735 21.6347 352.093 21.3747 351.4 20.82C351.296 19.7453 351.019 18.636 350.568 17.492C350.152 16.348 349.649 15.2387 349.06 14.164C348.471 13.0893 347.864 12.136 347.24 11.304L347.812 10.992ZM348.748 21.652C348.713 21.9293 348.575 22.172 348.332 22.38C348.124 22.588 347.743 22.744 347.188 22.848V40.84L342.768 42.14V21.08L348.748 21.652ZM350.464 26.124C350.464 26.124 350.689 26.3147 351.14 26.696C351.625 27.0773 352.18 27.5453 352.804 28.1C353.428 28.62 354 29.14 354.52 29.66C354.416 30.2147 353.965 30.492 353.168 30.492H336.736L336.32 28.984H348.28L350.464 26.124ZM352.18 2.412C352.18 2.412 352.423 2.62 352.908 3.036C353.428 3.452 354.035 3.95467 354.728 4.544C355.456 5.13333 356.08 5.688 356.6 6.208C356.461 6.76267 356.028 7.04 355.3 7.04H336.112L335.696 5.532H349.84L352.18 2.412ZM401.632 9.068H433.924L437.252 4.856C437.252 4.856 437.443 5.02933 437.824 5.376C438.24 5.688 438.76 6.08667 439.384 6.572C440.008 7.05733 440.667 7.57733 441.36 8.132C442.053 8.68667 442.695 9.224 443.284 9.744C443.145 10.2987 442.643 10.576 441.776 10.576H402.1L401.632 9.068ZM398.148 43.648H437.2L440.528 39.384C440.528 39.384 440.719 39.54 441.1 39.852C441.516 40.164 442.036 40.58 442.66 41.1C443.319 41.5853 443.995 42.1227 444.688 42.712C445.381 43.2667 446.005 43.7867 446.56 44.272C446.421 44.8267 445.936 45.104 445.104 45.104H398.616L398.148 43.648ZM419.468 9.068H424.876V44.324H419.468V9.068ZM499.496 1.684C499.462 1.96133 499.34 2.204 499.132 2.412C498.924 2.62 498.543 2.75867 497.988 2.828V9.172C497.988 9.276 497.763 9.432 497.312 9.64C496.896 9.81333 496.376 9.96933 495.752 10.108C495.128 10.2467 494.504 10.316 493.88 10.316H492.944V1.06L499.496 1.684ZM476.46 1.684C476.426 1.96133 476.287 2.204 476.044 2.412C475.836 2.62 475.455 2.75867 474.9 2.828V8.808C474.9 8.912 474.692 9.068 474.276 9.276C473.86 9.44933 473.34 9.60533 472.716 9.744C472.092 9.88267 471.468 9.952 470.844 9.952H469.908V1.06L476.46 1.684ZM485.664 41.1C485.526 41.3773 485.214 41.6027 484.728 41.776C484.243 41.9493 483.55 41.88 482.648 41.568L484.364 41.308C483.255 41.828 481.816 42.348 480.048 42.868C478.28 43.3533 476.426 43.8213 474.484 44.272C472.543 44.7227 470.706 45.0867 468.972 45.364V44.844H470.948C470.844 46.0573 470.584 47.028 470.168 47.756C469.787 48.5187 469.336 49.004 468.816 49.212L466.736 44.168C466.736 44.168 466.927 44.1507 467.308 44.116C467.69 44.0467 467.984 43.9947 468.192 43.96C469.648 43.7173 471.156 43.284 472.716 42.66C474.276 42.036 475.715 41.36 477.032 40.632C478.384 39.904 479.424 39.2973 480.152 38.812L485.664 41.1ZM467.932 44.48C469.319 44.48 471.104 44.48 473.288 44.48C475.507 44.4453 478.02 44.3933 480.828 44.324C483.671 44.2547 486.687 44.1853 489.876 44.116C493.1 44.0467 496.394 43.96 499.756 43.856V44.792C496.324 45.2773 491.974 45.832 486.704 46.456C481.435 47.1147 475.559 47.756 469.076 48.38L467.932 44.48ZM491.436 40.424C494.244 40.736 496.515 41.2213 498.248 41.88C500.016 42.504 501.368 43.1973 502.304 43.96C503.24 44.7227 503.83 45.468 504.072 46.196C504.35 46.924 504.35 47.548 504.072 48.068C503.83 48.6227 503.414 48.9867 502.824 49.16C502.27 49.368 501.628 49.316 500.9 49.004C500.415 48.38 499.687 47.6173 498.716 46.716C497.78 45.8147 496.654 44.8787 495.336 43.908C494.054 42.9373 492.65 42.0187 491.124 41.152L491.436 40.424ZM502.668 35.172C502.668 35.172 502.946 35.38 503.5 35.796C504.09 36.212 504.783 36.7147 505.58 37.304C506.378 37.8933 507.106 38.4653 507.764 39.02C507.626 39.5747 507.158 39.852 506.36 39.852H462.732L462.316 38.344H499.912L502.668 35.172ZM494.712 30.492C494.712 30.492 494.99 30.7 495.544 31.116C496.099 31.532 496.775 32.0347 497.572 32.624C498.37 33.1787 499.08 33.7333 499.704 34.288C499.566 34.8427 499.098 35.12 498.3 35.12H472.872L472.456 33.612H492.06L494.712 30.492ZM504.384 1.84C504.384 1.84 504.644 2.06533 505.164 2.516C505.684 2.932 506.291 3.452 506.984 4.076C507.712 4.7 508.336 5.28933 508.856 5.844C508.752 6.39866 508.319 6.676 507.556 6.676H486.288L485.872 5.168H501.992L504.384 1.84ZM480.568 2.308C480.568 2.308 480.811 2.49866 481.296 2.88C481.782 3.26133 482.336 3.72933 482.96 4.284C483.619 4.804 484.208 5.324 484.728 5.844C484.59 6.39866 484.156 6.676 483.428 6.676H461.38L460.964 5.168H478.384L480.568 2.308ZM473.184 17.544C472.838 18.8267 472.283 19.988 471.52 21.028C470.758 22.0333 469.683 22.9 468.296 23.628C466.944 24.356 465.176 24.9627 462.992 25.448L462.316 24.668C464.535 23.9747 466.095 22.9867 466.996 21.704C467.898 20.4213 468.487 19.0347 468.764 17.544H473.184ZM479.424 17.596C479.424 17.8387 479.424 18.0813 479.424 18.324C479.424 18.5667 479.424 18.7747 479.424 18.948V20.3C479.424 20.5427 479.459 20.716 479.528 20.82C479.598 20.8893 479.754 20.924 479.996 20.924H481.088C481.296 20.924 481.47 20.924 481.608 20.924C481.782 20.924 481.92 20.924 482.024 20.924C482.128 20.924 482.25 20.924 482.388 20.924C482.527 20.924 482.648 20.9067 482.752 20.872C482.856 20.872 482.995 20.8547 483.168 20.82C483.342 20.7853 483.48 20.7507 483.584 20.716H484.052L484.26 20.768C484.746 20.9413 485.092 21.1147 485.3 21.288C485.508 21.4267 485.612 21.6693 485.612 22.016C485.612 22.6747 485.266 23.1427 484.572 23.42C483.879 23.6627 482.562 23.784 480.62 23.784H478.8C477.483 23.784 476.651 23.576 476.304 23.16C475.958 22.7093 475.784 21.9467 475.784 20.872V17.596H479.424ZM497.884 14.788L500.12 12.5L504.332 15.932C504.159 16.0707 503.899 16.2093 503.552 16.348C503.24 16.4867 502.876 16.5907 502.46 16.66C502.391 18.22 502.391 19.8147 502.46 21.444C502.564 23.0733 502.772 24.5293 503.084 25.812C503.431 27.0947 503.882 28.0133 504.436 28.568C504.61 28.7067 504.731 28.7587 504.8 28.724C504.904 28.6893 505.026 28.5507 505.164 28.308C505.372 27.8227 505.598 27.2507 505.84 26.592C506.083 25.8987 506.308 25.2053 506.516 24.512L507.14 24.616L506.672 29.712C507.123 30.3013 507.435 30.8387 507.608 31.324C507.782 31.7747 507.73 32.208 507.452 32.624C507.175 33.144 506.742 33.456 506.152 33.56C505.563 33.6293 504.939 33.56 504.28 33.352C503.656 33.1093 503.102 32.7973 502.616 32.416C501.403 31.376 500.484 29.9547 499.86 28.152C499.271 26.3493 498.872 24.304 498.664 22.016C498.491 19.6933 498.404 17.284 498.404 14.788H497.884ZM462.992 30.648C464.414 30.648 466.251 30.5787 468.504 30.44C470.792 30.2667 473.306 30.0587 476.044 29.816C478.818 29.5733 481.608 29.296 484.416 28.984L484.468 29.816C482.354 30.4747 479.84 31.1853 476.928 31.948C474.016 32.7107 470.584 33.508 466.632 34.34C466.355 34.964 465.939 35.328 465.384 35.432L462.992 30.648ZM500.9 14.788V16.296H486.444L485.976 14.788H500.9ZM496.428 10.42C496.394 10.732 496.238 11.0093 495.96 11.252C495.718 11.4947 495.319 11.6507 494.764 11.72C494.695 14.1467 494.574 16.4173 494.4 18.532C494.227 20.612 493.776 22.5533 493.048 24.356C492.355 26.124 491.228 27.7533 489.668 29.244C488.143 30.7 485.976 31.9827 483.168 33.092L482.596 32.26C484.642 31.012 486.219 29.6253 487.328 28.1C488.438 26.5747 489.2 24.8933 489.616 23.056C490.067 21.184 490.327 19.156 490.396 16.972C490.5 14.788 490.552 12.4133 490.552 9.848L496.428 10.42ZM476.928 22.64C476.894 22.9173 476.772 23.16 476.564 23.368C476.356 23.576 476.01 23.7147 475.524 23.784V31.48H471.468V22.068L476.928 22.64ZM477.344 9.848C477.31 10.1253 477.171 10.368 476.928 10.576C476.72 10.7493 476.391 10.8707 475.94 10.94V18.064H471.728V9.276L477.344 9.848ZM482.128 14.58C482.128 14.58 482.354 14.7533 482.804 15.1C483.255 15.412 483.81 15.8107 484.468 16.296C485.127 16.7813 485.716 17.2493 486.236 17.7C486.098 18.2547 485.647 18.532 484.884 18.532H463.46L463.044 17.024H479.944L482.128 14.58ZM480.412 23.576C480.412 23.576 480.62 23.732 481.036 24.044C481.487 24.3213 482.007 24.6853 482.596 25.136C483.22 25.552 483.775 25.9853 484.26 26.436C484.156 26.9907 483.723 27.268 482.96 27.268H465.54L465.124 25.76H478.384L480.412 23.576ZM479.944 10.108C479.944 10.108 480.17 10.2813 480.62 10.628C481.071 10.94 481.591 11.356 482.18 11.876C482.804 12.3613 483.376 12.8293 483.896 13.28C483.758 13.8347 483.307 14.112 482.544 14.112H465.228L464.812 12.604H477.812L479.944 10.108ZM486.6 19.624C488.958 20.0053 490.882 20.5253 492.372 21.184C493.863 21.8427 494.99 22.5533 495.752 23.316C496.55 24.044 497.052 24.772 497.26 25.5C497.468 26.1933 497.468 26.8 497.26 27.32C497.052 27.8053 496.688 28.1347 496.168 28.308C495.683 28.4813 495.128 28.3947 494.504 28.048C494.019 27.0427 493.066 25.812 491.644 24.356C490.223 22.9 488.42 21.5827 486.236 20.404L486.6 19.624Z" fill="#6E4D3B"/>
</svg>
