<svg width="1266" height="53" viewBox="0 0 1266 53" fill="none" xmlns="http://www.w3.org/2000/svg">
<g clip-path="url(#clip0_125_164)">
<g opacity="0.85">
<path d="M0.250011 1.13965H40.65L40.84 6.43965C40.34 5.51965 39.75 4.74965 39.07 4.13965C38.4 3.52965 37.66 3.04965 36.86 2.68965C36.06 2.32965 35.2 2.07965 34.27 1.92965C33.34 1.77965 32.4 1.70965 31.43 1.70965H22.59V43.3797C22.59 46.9996 23.07 49.3097 24.04 50.3196C24.29 50.6596 24.59 50.9097 24.92 51.0797H15.58C16.08 50.6996 16.48 50.2796 16.78 49.8196C17.58 48.7696 17.98 46.6197 17.98 43.3797V1.69965H10.21C9.16001 1.69965 8.17001 1.72965 7.24001 1.78965C6.31001 1.84965 5.45001 2.01965 4.65001 2.29965C3.85001 2.56965 3.09001 2.96965 2.38001 3.49965C1.66001 4.02965 0.990011 4.74965 0.360011 5.67965C0.280011 5.75965 0.210011 5.85965 0.170011 5.95965C0.130011 6.06965 0.070011 6.15965 -0.019989 6.23965L0.250011 1.13965Z" fill="white"/>
<path d="M76.58 1.13988C75.7 1.72988 75.06 2.50988 74.69 3.47988C74.56 3.81988 74.44 4.36988 74.31 5.14988C74.18 5.92988 74.12 7.25988 74.12 9.15988V25.3799H101.39V9.14988C101.39 7.20988 101.33 5.84988 101.2 5.04988C101.07 4.24988 100.93 3.67988 100.76 3.33988C100.38 2.45988 99.77 1.71988 98.93 1.12988H108.53C107.65 1.67988 107.01 2.47988 106.64 3.52988C106.51 3.86988 106.39 4.41988 106.26 5.19988C106.13 5.97988 106.07 7.28988 106.07 9.14988V43.1099C106.07 45.0899 106.14 46.4699 106.29 47.2399C106.44 48.0199 106.57 48.5799 106.7 48.9099C106.99 49.7499 107.63 50.4699 108.59 51.0599H98.99C99.2 50.9299 99.39 50.7799 99.56 50.5899C99.73 50.3999 99.92 50.1999 100.13 49.9899C100.97 48.8999 101.39 46.5999 101.39 43.1099V25.8699H74.12V43.1099C74.12 45.0899 74.19 46.4699 74.34 47.2399C74.49 48.0199 74.6 48.5799 74.69 48.9099C75.07 49.7899 75.72 50.5099 76.65 51.0599H67.05C67.51 50.8099 67.89 50.4499 68.19 49.9899C69.03 48.8999 69.45 46.5999 69.45 43.1099V9.14988C69.45 7.20988 69.39 5.84988 69.26 5.04988C69.13 4.24988 69.01 3.67988 68.88 3.33988C68.5 2.45988 67.87 1.71988 66.99 1.12988H76.59L76.58 1.13988Z" fill="white"/>
<path d="M136.62 51.0696C137.5 50.4796 138.13 49.6996 138.51 48.7296C138.59 48.3896 138.71 47.8496 138.86 47.0896C139.01 46.3297 139.08 45.0296 139.08 43.1796V8.89965C139.08 7.67965 139.04 6.65965 138.95 5.83965C138.87 5.01965 138.75 4.33965 138.6 3.78965C138.45 3.23965 138.29 2.81965 138.13 2.52965C137.96 2.23965 137.81 1.99965 137.69 1.83965C137.56 1.75965 137.44 1.63965 137.31 1.48965C137.18 1.33965 137.06 1.22965 136.93 1.13965H169.38L169.63 5.80965C169.55 5.59965 169.46 5.41965 169.38 5.26965C169.3 5.11965 169.21 4.98965 169.13 4.85965C168.58 3.97965 168.01 3.30965 167.42 2.86965C166.83 2.42965 166.2 2.11965 165.53 1.94965C164.86 1.77965 164.15 1.69965 163.41 1.69965H143.68V24.6796H158.11C158.76 24.6796 159.41 24.6396 160.07 24.5496C160.72 24.4696 161.35 24.3196 161.96 24.1096C162.57 23.8997 163.11 23.5796 163.57 23.1596C163.91 22.9096 164.18 22.6297 164.39 22.3396C164.6 22.0496 164.81 21.7296 165.02 21.3896V28.4596C164.39 27.2796 163.44 26.4196 162.18 25.8696C161.17 25.3696 160.21 25.1196 159.31 25.1396C158.41 25.1596 157.39 25.1696 156.25 25.1696H143.69V50.4897H162.31C163.53 50.4897 164.58 50.3696 165.47 50.1396C166.36 49.9096 167.15 49.5596 167.87 49.0996C168.58 48.6396 169.26 48.0696 169.89 47.3997C170.52 46.7297 171.17 45.9496 171.85 45.0597L169.7 51.0597H136.62V51.0696Z" fill="white"/>
<path d="M241.73 51.07C242.28 50.82 242.82 50.32 243.37 49.59C243.92 48.85 244.44 48.04 244.95 47.16C245.46 46.28 245.91 45.4 246.31 44.54C246.71 43.68 247.01 42.99 247.23 42.49L265.15 0.5L282.89 42.92C283.69 44.81 284.45 46.36 285.16 47.56C285.87 48.76 286.59 49.68 287.31 50.31C287.48 50.44 287.65 50.57 287.81 50.72C287.98 50.87 288.17 50.98 288.38 51.07H277.52C278.11 50.65 278.53 50.15 278.78 49.59C279.03 49.02 279.16 48.42 279.16 47.79C279.16 47.16 279.03 46.35 278.78 45.36C278.53 44.37 278.11 43.2 277.52 41.86L274.05 33.72H251.64L247.79 42.56C247.33 43.74 246.98 44.75 246.75 45.59C246.52 46.43 246.4 47.15 246.4 47.74C246.4 48.16 246.49 48.66 246.68 49.22C246.87 49.78 247.32 50.37 248.04 50.96L248.29 51.09H241.72L241.73 51.07ZM251.83 33.21H273.99L263.07 7.14L251.83 33.21Z" fill="white"/>
<path d="M315.65 49.6196C315.9 49.2796 316.14 48.6596 316.38 47.7596C316.61 46.8596 316.73 45.3096 316.73 43.1196V9.08965C316.73 7.19965 316.61 5.67965 316.38 4.54965C316.15 3.40965 315.78 2.54965 315.28 1.95965C315.11 1.82965 314.95 1.69965 314.81 1.54965C314.67 1.39965 314.5 1.26965 314.34 1.13965L328.67 1.19965C330.69 1.19965 332.81 1.36965 335.05 1.69965C337.28 2.03965 339.31 2.64965 341.14 3.52965C342.97 4.40965 344.49 5.64965 345.68 7.21965C346.88 8.79965 347.48 10.8496 347.48 13.3796C347.48 15.1896 347.16 16.7696 346.53 18.1196C345.9 19.4697 345.04 20.6196 343.94 21.5896C342.85 22.5596 341.58 23.3596 340.15 23.9896C338.72 24.6196 337.2 25.1096 335.6 25.4396L333.52 25.9396L345.64 42.7996C346.23 43.5996 346.84 44.4096 347.47 45.2296C348.1 46.0496 348.78 46.8296 349.52 47.5696C350.26 48.3097 351.03 48.9796 351.86 49.5896C352.68 50.1996 353.55 50.6896 354.48 51.0696H346.78L329.04 26.5096C330.77 26.2596 332.37 25.8096 333.87 25.1796C335.37 24.5497 336.68 23.7096 337.82 22.6496C338.96 21.5996 339.85 20.3496 340.5 18.8896C341.15 17.4296 341.48 15.7696 341.48 13.8696C341.48 11.9696 341.2 10.3296 340.63 8.81965C340.06 7.29965 339.17 5.97965 337.95 4.83965C337.23 4.07965 336.54 3.48965 335.87 3.06965C335.2 2.64965 334.5 2.33965 333.79 2.14965C333.08 1.95965 332.31 1.82965 331.49 1.76965C330.67 1.70965 329.73 1.67965 328.68 1.67965H321.36V43.0996C321.36 46.8496 321.84 49.2197 322.81 50.2296C323.1 50.6096 323.42 50.8797 323.76 51.0496H314.29C314.54 50.8396 314.78 50.6296 315.02 50.4196C315.25 50.2096 315.47 49.9396 315.68 49.5996L315.65 49.6196Z" fill="white"/>
<path d="M375.76 1.13988H416.16L416.35 6.43988C415.85 5.51988 415.26 4.74988 414.58 4.13988C413.91 3.52988 413.17 3.04988 412.37 2.68988C411.57 2.32988 410.71 2.07988 409.78 1.92988C408.85 1.77988 407.91 1.70988 406.94 1.70988H398.1V43.3799C398.1 46.9999 398.58 49.3099 399.55 50.3199C399.8 50.6599 400.1 50.9099 400.43 51.0799H391.09C391.59 50.6999 391.99 50.2799 392.29 49.8199C393.09 48.7699 393.49 46.6199 393.49 43.3799V1.69988H385.72C384.67 1.69988 383.68 1.72988 382.75 1.78988C381.82 1.84988 380.96 2.01988 380.16 2.29988C379.36 2.56988 378.6 2.96988 377.89 3.49988C377.17 4.02988 376.5 4.74988 375.87 5.67988C375.79 5.75988 375.72 5.85988 375.68 5.95988C375.64 6.06988 375.58 6.15988 375.49 6.23988L375.74 1.12988L375.76 1.13988Z" fill="white"/>
<path d="M487.62 25.9498C487.62 17.9098 490.31 11.4298 495.7 6.50977C498.06 4.31977 500.57 2.68977 503.24 1.61977C505.91 0.549766 508.89 0.00976562 512.17 0.00976562C515.45 0.00976562 518.48 0.609766 521.39 1.80977C524.29 3.00977 526.94 4.84977 529.34 7.32977C534.05 12.2098 536.41 18.3798 536.41 25.8298C536.41 29.6598 535.82 33.1398 534.64 36.2798C533.46 39.4198 531.67 42.2498 529.27 44.7698C526.91 47.2098 524.22 49.0898 521.19 50.3898C518.16 51.6898 515.02 52.3498 511.78 52.3498C508.54 52.3498 505.39 51.7298 502.47 50.4898C499.54 49.2498 496.92 47.4298 494.61 45.0298C489.94 40.1498 487.6 33.7898 487.6 25.9598L487.62 25.9498ZM493.81 25.7598C493.81 28.7498 494.07 31.7898 494.6 34.8798C495.13 37.9698 496.06 40.7698 497.41 43.2798C498.76 45.7798 500.6 47.8398 502.93 49.4398C505.27 51.0398 508.22 51.8398 511.8 51.8398C515.38 51.8398 518.49 51.1198 520.89 49.6898C523.29 48.2598 525.18 46.3798 526.57 44.0398C527.96 41.6998 528.94 39.0398 529.51 36.0498C530.08 33.0598 530.36 30.0098 530.36 26.8998C530.36 17.5598 528.47 10.5498 524.68 5.87977C523.17 3.89977 521.39 2.50977 519.35 1.70977C517.31 0.909766 514.92 0.509766 512.18 0.509766C508.56 0.509766 505.56 1.24977 503.18 2.71977C500.8 4.18977 498.92 6.11977 497.53 8.49977C496.14 10.8798 495.17 13.5698 494.63 16.5798C494.08 19.5898 493.81 22.6498 493.81 25.7698V25.7598Z" fill="white"/>
<path d="M595.83 1.13988L596.02 6.75988C595.3 5.11988 594.25 3.86988 592.86 2.99988C591.47 2.13988 589.87 1.70988 588.06 1.70988H571.52V24.7499H582.5C585.07 24.7499 587 24.1199 588.31 22.8599C588.69 22.5699 589.07 22.0599 589.45 21.3499V28.1699C588.61 26.9499 587.59 26.1599 586.39 25.7999C585.19 25.4399 583.9 25.2599 582.51 25.2599H571.53V43.1299C571.53 45.1099 571.6 46.4899 571.75 47.2599C571.9 48.0399 572.01 48.5999 572.1 48.9299C572.48 49.8099 573.13 50.5299 574.06 51.0799H564.46C564.92 50.8299 565.3 50.4699 565.6 50.0099C566.44 48.9199 566.86 46.6199 566.86 43.1299V9.08988C566.86 7.19988 566.8 5.84988 566.67 5.04988C566.54 4.24988 566.42 3.67988 566.29 3.33988C565.91 2.45988 565.28 1.71988 564.4 1.12988H595.84L595.83 1.13988Z" fill="white"/>
<path d="M667.8 51.0696C668.05 50.8596 668.29 50.6496 668.53 50.4396C668.77 50.2296 668.98 49.9596 669.19 49.6196C669.44 49.2396 669.66 48.6096 669.85 47.7296C670.04 46.8496 670.13 45.3096 670.13 43.1196V9.08965C670.13 7.19965 670.02 5.67965 669.81 4.54965C669.6 3.40965 669.26 2.54965 668.8 1.95965C668.63 1.82965 668.48 1.69965 668.36 1.54965C668.23 1.39965 668.07 1.26965 667.86 1.13965H683.2C685.22 1.13965 687.24 1.39965 689.26 1.92965C691.28 2.45965 693.08 3.26965 694.66 4.35965C696.24 5.44965 697.52 6.82965 698.51 8.48965C699.5 10.1496 699.99 12.1196 699.99 14.3896C699.99 16.6596 699.62 18.4896 698.88 20.1396C698.14 21.7896 697.13 23.1496 695.85 24.2396C694.57 25.3396 693.04 26.1596 691.27 26.6996C689.5 27.2397 687.57 27.5196 685.46 27.5196H674.85V43.1096C674.85 46.8596 675.33 49.2297 676.3 50.2397C676.59 50.6197 676.91 50.8897 677.25 51.0597H667.78L667.8 51.0696ZM685.47 27.0196C686.82 27.0196 688.02 26.6096 689.07 25.7896C690.12 24.9697 691.01 23.9597 691.72 22.7596C692.43 21.5596 692.98 20.2696 693.36 18.8796C693.74 17.4896 693.93 16.2496 693.93 15.1596C693.93 13.6496 693.69 12.0996 693.2 10.5196C692.72 8.93965 692.01 7.48965 691.08 6.15965C690.15 4.82965 689.03 3.74965 687.7 2.90965C686.37 2.06965 684.87 1.64965 683.19 1.64965H674.86V27.0296H685.47V27.0196Z" fill="white"/>
<path d="M727.14 51.0696C728.02 50.4796 728.66 49.6996 729.03 48.7296C729.11 48.3896 729.23 47.8496 729.38 47.0896C729.53 46.3297 729.6 45.0296 729.6 43.1796V8.89965C729.6 7.67965 729.56 6.65965 729.47 5.83965C729.39 5.01965 729.27 4.33965 729.12 3.78965C728.97 3.23965 728.81 2.81965 728.65 2.52965C728.48 2.23965 728.33 1.99965 728.21 1.83965C728.08 1.75965 727.96 1.63965 727.83 1.48965C727.7 1.33965 727.58 1.22965 727.45 1.13965H759.9L760.15 5.80965C760.07 5.59965 759.98 5.41965 759.9 5.26965C759.82 5.11965 759.73 4.98965 759.65 4.85965C759.1 3.97965 758.53 3.30965 757.95 2.86965C757.36 2.42965 756.73 2.11965 756.06 1.94965C755.39 1.77965 754.68 1.69965 753.95 1.69965H734.22V24.6796H748.64C749.29 24.6796 749.94 24.6396 750.6 24.5496C751.26 24.4596 751.88 24.3196 752.49 24.1096C753.1 23.8997 753.64 23.5796 754.1 23.1596C754.44 22.9096 754.71 22.6297 754.92 22.3396C755.13 22.0496 755.34 21.7296 755.55 21.3896V28.4596C754.92 27.2796 753.97 26.4196 752.71 25.8696C751.7 25.3696 750.74 25.1196 749.84 25.1396C748.93 25.1596 747.91 25.1696 746.78 25.1696H734.22V50.4897H752.84C754.06 50.4897 755.11 50.3696 756 50.1396C756.89 49.9096 757.68 49.5596 758.4 49.0996C759.12 48.6396 759.79 48.0696 760.42 47.3997C761.05 46.7297 761.7 45.9496 762.38 45.0597L760.23 51.0597H727.15L727.14 51.0696Z" fill="white"/>
<path d="M790.65 49.6196C790.9 49.2796 791.14 48.6596 791.38 47.7596C791.61 46.8596 791.73 45.3096 791.73 43.1196V9.08965C791.73 7.19965 791.61 5.67965 791.38 4.54965C791.15 3.40965 790.78 2.54965 790.27 1.95965C790.1 1.82965 789.94 1.69965 789.8 1.54965C789.66 1.39965 789.49 1.26965 789.33 1.13965L803.66 1.19965C805.68 1.19965 807.81 1.36965 810.04 1.69965C812.27 2.03965 814.3 2.64965 816.13 3.52965C817.96 4.40965 819.48 5.64965 820.68 7.21965C821.88 8.79965 822.48 10.8496 822.48 13.3796C822.48 15.1896 822.16 16.7696 821.53 18.1196C820.9 19.4697 820.04 20.6196 818.94 21.5896C817.85 22.5596 816.58 23.3596 815.15 23.9896C813.72 24.6196 812.2 25.1096 810.6 25.4396L808.52 25.9396L820.64 42.7996C821.23 43.5996 821.84 44.4096 822.47 45.2296C823.1 46.0496 823.78 46.8296 824.52 47.5696C825.26 48.3097 826.03 48.9796 826.86 49.5896C827.68 50.1996 828.55 50.6896 829.48 51.0696H821.78L804.04 26.5096C805.77 26.2596 807.37 25.8096 808.87 25.1796C810.36 24.5497 811.68 23.7096 812.82 22.6496C813.96 21.5996 814.85 20.3496 815.5 18.8896C816.15 17.4296 816.48 15.7696 816.48 13.8696C816.48 11.9696 816.2 10.3296 815.63 8.81965C815.06 7.29965 814.17 5.97965 812.95 4.83965C812.23 4.07965 811.54 3.48965 810.87 3.06965C810.2 2.64965 809.5 2.33965 808.79 2.14965C808.07 1.95965 807.31 1.82965 806.49 1.76965C805.67 1.70965 804.73 1.67965 803.68 1.67965H796.36V43.0996C796.36 46.8496 796.84 49.2197 797.81 50.2296C798.1 50.6096 798.42 50.8797 798.76 51.0496H789.29C789.54 50.8396 789.78 50.6296 790.02 50.4196C790.26 50.2096 790.47 49.9396 790.68 49.5996L790.65 49.6196Z" fill="white"/>
<path d="M886.8 1.13988L886.99 6.75988C886.27 5.11988 885.22 3.86988 883.83 2.99988C882.44 2.13988 880.84 1.70988 879.03 1.70988H862.49V24.7499H873.48C876.05 24.7499 877.98 24.1199 879.29 22.8599C879.67 22.5699 880.05 22.0599 880.43 21.3499V28.1699C879.59 26.9499 878.57 26.1599 877.37 25.7999C876.17 25.4399 874.88 25.2599 873.49 25.2599H862.5V43.1299C862.5 45.1099 862.57 46.4899 862.72 47.2599C862.87 48.0399 862.98 48.5999 863.07 48.9299C863.45 49.8099 864.1 50.5299 865.03 51.0799H855.43C855.89 50.8299 856.27 50.4699 856.57 50.0099C857.41 48.9199 857.83 46.6199 857.83 43.1299V9.08988C857.83 7.19988 857.77 5.84988 857.64 5.04988C857.51 4.24988 857.39 3.67988 857.26 3.33988C856.88 2.45988 856.25 1.71988 855.37 1.12988H886.81L886.8 1.13988Z" fill="white"/>
<path d="M913.44 51.0696C914.32 50.4796 914.96 49.6996 915.33 48.7296C915.41 48.3896 915.53 47.8496 915.68 47.0896C915.83 46.3297 915.9 45.0296 915.9 43.1796V8.89965C915.9 7.67965 915.86 6.65965 915.77 5.83965C915.69 5.01965 915.57 4.33965 915.42 3.78965C915.27 3.23965 915.11 2.81965 914.95 2.52965C914.78 2.23965 914.63 1.99965 914.51 1.83965C914.38 1.75965 914.26 1.63965 914.13 1.48965C914 1.33965 913.88 1.22965 913.75 1.13965H946.2L946.45 5.80965C946.37 5.59965 946.28 5.41965 946.2 5.26965C946.12 5.11965 946.03 4.98965 945.95 4.85965C945.4 3.97965 944.83 3.30965 944.25 2.86965C943.66 2.42965 943.03 2.11965 942.36 1.94965C941.69 1.77965 940.98 1.69965 940.25 1.69965H920.52V24.6796H934.94C935.59 24.6796 936.24 24.6396 936.9 24.5496C937.56 24.4596 938.18 24.3196 938.79 24.1096C939.4 23.8997 939.94 23.5796 940.4 23.1596C940.74 22.9096 941.01 22.6297 941.22 22.3396C941.43 22.0496 941.64 21.7296 941.85 21.3896V28.4596C941.22 27.2796 940.27 26.4196 939.01 25.8696C938 25.3696 937.04 25.1196 936.14 25.1396C935.23 25.1596 934.21 25.1696 933.08 25.1696H920.52V50.4897H939.14C940.36 50.4897 941.41 50.3696 942.3 50.1396C943.19 49.9096 943.98 49.5596 944.7 49.0996C945.42 48.6396 946.09 48.0696 946.72 47.3997C947.35 46.7297 948 45.9496 948.68 45.0597L946.53 51.0597H913.45L913.44 51.0696Z" fill="white"/>
<path d="M972.97 26.07C972.97 22.41 973.51 18.99 974.58 15.81C975.65 12.63 977.21 9.88 979.25 7.54C981.29 5.2 983.82 3.36 986.83 2.02C989.84 0.67 993.3 0 997.22 0H998.67C1000.69 0 1002.4 0.19 1003.81 0.57C1005.22 0.95 1006.42 1.36 1007.41 1.8C1008.4 2.24 1009.24 2.65 1009.94 3.03C1010.64 3.41 1011.32 3.6 1011.99 3.6C1012.75 3.6 1013.41 3.42 1013.98 3.06C1014.55 2.7 1015.04 2.23 1015.46 1.64L1016.15 11.17C1015.35 9.66 1014.37 8.26 1013.21 6.97C1012.05 5.69 1010.79 4.57 1009.42 3.62C1008.05 2.67 1006.59 1.94 1005.03 1.41C1003.47 0.88 1001.85 0.62 1000.17 0.62C996.34 0.62 993.08 1.31 990.38 2.67C987.69 4.04 985.5 5.89 983.81 8.22C982.13 10.56 980.91 13.26 980.15 16.33C979.39 19.4 979.01 22.64 979.01 26.05C979.01 29.46 979.39 32.71 980.15 35.8C980.91 38.89 982.13 41.61 983.81 43.94C985.49 46.28 987.68 48.14 990.38 49.53C993.07 50.92 996.34 51.61 1000.17 51.61C1003.75 51.61 1006.9 50.69 1009.64 48.86C1012.38 47.03 1014.54 44.41 1016.14 41L1015.45 50.53C1014.57 49.27 1013.41 48.64 1011.98 48.64C1011.31 48.64 1010.69 48.83 1010.12 49.21C1009.55 49.59 1008.82 50 1007.91 50.44C1007 50.88 1005.84 51.29 1004.41 51.67C1002.98 52.05 1001.06 52.26 998.66 52.3H997.21C993.3 52.3 989.83 51.63 986.82 50.28C983.81 48.93 981.29 47.08 979.24 44.72C977.2 42.36 975.64 39.59 974.57 36.39C973.5 33.19 972.96 29.74 972.96 26.04L972.97 26.07Z" fill="white"/>
<path d="M1042.1 1.13988H1082.5L1082.69 6.43988C1082.19 5.51988 1081.6 4.74988 1080.92 4.13988C1080.25 3.52988 1079.51 3.04988 1078.71 2.68988C1077.91 2.32988 1077.05 2.07988 1076.12 1.92988C1075.19 1.77988 1074.25 1.70988 1073.28 1.70988H1064.44V43.3799C1064.44 46.9999 1064.92 49.3099 1065.89 50.3199C1066.14 50.6599 1066.44 50.9099 1066.77 51.0799H1057.43C1057.93 50.6999 1058.33 50.2799 1058.63 49.8199C1059.43 48.7699 1059.83 46.6199 1059.83 43.3799V1.69988H1052.07C1051.02 1.69988 1050.03 1.72988 1049.1 1.78988C1048.17 1.84988 1047.31 2.01988 1046.51 2.29988C1045.71 2.56988 1044.95 2.96988 1044.24 3.49988C1043.52 4.02988 1042.85 4.74988 1042.22 5.67988C1042.14 5.75988 1042.07 5.85988 1042.03 5.95988C1041.99 6.06988 1041.93 6.15988 1041.84 6.23988L1042.09 1.12988L1042.1 1.13988Z" fill="white"/>
<path d="M1118.43 1.13988C1118.22 1.30988 1118.01 1.48988 1117.8 1.67988C1117.59 1.86988 1117.42 2.06988 1117.3 2.27988C1116.42 3.32988 1115.97 5.60988 1115.97 9.09988V43.1299C1115.97 45.0199 1116.04 46.3799 1116.19 47.1999C1116.34 48.0199 1116.45 48.5999 1116.54 48.9399C1116.92 49.8199 1117.57 50.5399 1118.5 51.0899H1108.9C1109.36 50.8399 1109.74 50.4799 1110.04 50.0199C1110.88 48.9299 1111.3 46.6299 1111.3 43.1399V9.08988C1111.3 7.19988 1111.24 5.84988 1111.11 5.04988C1110.98 4.24988 1110.86 3.67988 1110.73 3.33988C1110.35 2.45988 1109.72 1.71988 1108.84 1.12988H1118.44L1118.43 1.13988Z" fill="white"/>
<path d="M1146.46 25.9498C1146.46 17.9098 1149.15 11.4298 1154.54 6.50977C1156.9 4.31977 1159.41 2.68977 1162.08 1.61977C1164.75 0.549766 1167.73 0.00976562 1171.01 0.00976562C1174.29 0.00976562 1177.32 0.609766 1180.23 1.80977C1183.13 3.00977 1185.79 4.84977 1188.18 7.32977C1192.89 12.2098 1195.25 18.3798 1195.25 25.8298C1195.25 29.6598 1194.66 33.1398 1193.48 36.2798C1192.3 39.4198 1190.51 42.2498 1188.11 44.7698C1185.75 47.2098 1183.06 49.0898 1180.03 50.3898C1177 51.6898 1173.86 52.3498 1170.62 52.3498C1167.38 52.3498 1164.23 51.7298 1161.31 50.4898C1158.38 49.2498 1155.76 47.4298 1153.45 45.0298C1148.78 40.1498 1146.44 33.7898 1146.44 25.9598L1146.46 25.9498ZM1152.64 25.7598C1152.64 28.7498 1152.9 31.7898 1153.43 34.8798C1153.96 37.9698 1154.89 40.7698 1156.24 43.2798C1157.59 45.7798 1159.43 47.8398 1161.76 49.4398C1164.1 51.0398 1167.05 51.8398 1170.63 51.8398C1174.21 51.8398 1177.32 51.1198 1179.72 49.6898C1182.12 48.2598 1184.01 46.3798 1185.4 44.0398C1186.79 41.6998 1187.77 39.0398 1188.34 36.0498C1188.91 33.0598 1189.19 30.0098 1189.19 26.8998C1189.19 17.5598 1187.3 10.5498 1183.51 5.87977C1182 3.89977 1180.22 2.50977 1178.18 1.70977C1176.14 0.909766 1173.75 0.509766 1171.01 0.509766C1167.39 0.509766 1164.39 1.24977 1162.01 2.71977C1159.63 4.18977 1157.75 6.11977 1156.36 8.49977C1154.97 10.8798 1154 13.5698 1153.46 16.5798C1152.91 19.5898 1152.64 22.6498 1152.64 25.7698V25.7598Z" fill="white"/>
<path d="M1227.71 1.13988L1261.99 43.1799V8.89988C1261.99 7.00988 1261.87 5.50988 1261.64 4.41988C1261.41 3.32988 1261.04 2.47988 1260.53 1.88988C1260.4 1.75988 1260.27 1.63988 1260.12 1.50988C1259.97 1.37988 1259.84 1.25988 1259.71 1.12988H1265.01C1264.76 1.29988 1264.53 1.49988 1264.32 1.72988C1264.11 1.95988 1263.9 2.19988 1263.69 2.45988C1263.35 3.00988 1263.09 3.79988 1262.9 4.82988C1262.71 5.85988 1262.62 7.21988 1262.62 8.89988V51.1399L1226.51 7.00988V43.3699C1226.51 46.9899 1226.95 49.2999 1227.84 50.3099C1228.01 50.4399 1228.16 50.5699 1228.28 50.7199C1228.4 50.8699 1228.57 50.9799 1228.78 51.0699H1223.48C1223.73 50.8599 1223.96 50.6599 1224.17 50.4699C1224.38 50.2799 1224.57 50.0599 1224.74 49.8099C1225.45 48.7999 1225.81 46.6499 1225.81 43.3699V6.18988L1225.49 5.80988C1223.93 3.95988 1222.69 2.71988 1221.77 2.07988C1221.35 1.69988 1220.84 1.38988 1220.25 1.12988H1227.7L1227.71 1.13988Z" fill="white"/>
</g>
</g>
<defs>
<clipPath id="clip0_125_164">
<rect width="1265.02" height="52.34" fill="white"/>
</clipPath>
</defs>
</svg>
