<svg width="352" height="16" viewBox="0 0 352 16" fill="none" xmlns="http://www.w3.org/2000/svg">
<g clip-path="url(#clip0_147_642)">
<g opacity="0.85">
<path d="M0.0768424 0.348633H12.4264L12.4856 1.9699C12.3322 1.68749 12.1509 1.45388 11.9452 1.26561C11.7395 1.08082 11.5129 0.930895 11.2688 0.82281C11.0248 0.714726 10.7598 0.63802 10.4774 0.592695C10.195 0.547369 9.90556 0.526449 9.6092 0.526449H6.90709V13.263C6.90709 14.3682 7.05353 15.076 7.34989 15.3863C7.42659 15.4909 7.51724 15.5676 7.61836 15.6164H4.76283C4.91624 15.5014 5.03827 15.3724 5.12892 15.2294C5.37299 14.9087 5.49502 14.2532 5.49502 13.2595V0.519476H3.12064C2.79988 0.519476 2.49654 0.529936 2.21413 0.547369C1.93171 0.568289 1.66673 0.617101 1.42267 0.700779C1.17861 0.784458 0.945005 0.906488 0.728836 1.06687C0.509181 1.22726 0.303471 1.4504 0.111708 1.73281C0.0873022 1.75722 0.0663826 1.7886 0.0524362 1.81998C0.0384898 1.85136 0.0210569 1.88274 -0.00683594 1.90714L0.0768424 0.348633Z" fill="white"/>
<path d="M21.6725 0.348633C21.4041 0.529936 21.2088 0.767025 21.0938 1.06339C21.0554 1.16798 21.0171 1.33534 20.9787 1.57592C20.9403 1.813 20.9194 2.22094 20.9194 2.79971V7.76114H29.2559V2.79971C29.2559 2.20699 29.235 1.7886 29.1966 1.54454C29.1583 1.30047 29.1129 1.12614 29.0606 1.02503C28.9456 0.756565 28.7573 0.529936 28.4993 0.348633H31.4315C31.1631 0.51599 30.9678 0.760051 30.8527 1.08082C30.8144 1.18542 30.776 1.35277 30.7377 1.59335C30.6993 1.83044 30.6784 2.23488 30.6784 2.79971V13.1828C30.6784 13.786 30.6993 14.2079 30.7447 14.4484C30.79 14.6855 30.8318 14.8564 30.8702 14.961C30.9608 15.219 31.1526 15.4386 31.449 15.6164H28.5167C28.5795 15.5781 28.6388 15.5293 28.6911 15.47C28.7434 15.4107 28.7991 15.3515 28.8654 15.2852C29.1234 14.9505 29.2524 14.2497 29.2524 13.1828V7.91455H20.9159V13.1828C20.9159 13.786 20.9369 14.2079 20.9822 14.4484C21.0275 14.6855 21.0624 14.8564 21.0868 14.961C21.2018 15.2294 21.4006 15.4491 21.6865 15.6164H18.7542C18.8972 15.5397 19.0123 15.4317 19.1029 15.2887C19.3609 14.954 19.4899 14.2532 19.4899 13.1863V2.79971C19.4899 2.20699 19.469 1.7886 19.4306 1.54454C19.3923 1.30047 19.3539 1.12614 19.3156 1.02503C19.2005 0.756565 19.0053 0.529936 18.7368 0.348633H21.669H21.6725Z" fill="white"/>
<path d="M38.2861 15.613C38.5546 15.4317 38.7499 15.1946 38.8649 14.8982C38.8893 14.7971 38.9242 14.6297 38.9695 14.3961C39.0148 14.166 39.0358 13.7651 39.0358 13.2002V2.71952C39.0358 2.34645 39.0218 2.03266 38.9974 1.78511C38.973 1.53408 38.9346 1.32488 38.8928 1.15752C38.8475 0.990167 38.7987 0.861163 38.7464 0.770511C38.6941 0.67986 38.6487 0.610128 38.6104 0.557829C38.572 0.533423 38.5337 0.498557 38.4953 0.453231C38.457 0.407905 38.4186 0.373039 38.3803 0.348633H48.2996L48.3763 1.77814C48.3519 1.71538 48.324 1.65959 48.2996 1.61427C48.2752 1.56894 48.2473 1.5271 48.2229 1.48875C48.0556 1.22028 47.8813 1.01457 47.7034 0.882082C47.5221 0.746105 47.3304 0.655453 47.1247 0.603155C46.919 0.550856 46.7028 0.526449 46.4796 0.526449H40.4478V7.55195H44.8584C45.0571 7.55195 45.2558 7.538 45.4581 7.51359C45.6568 7.48919 45.8486 7.44386 46.0368 7.37761C46.2216 7.31486 46.3855 7.21723 46.5285 7.08823C46.6296 7.01152 46.7132 6.92784 46.7795 6.83719C46.8422 6.74654 46.9085 6.6524 46.9713 6.5478V8.7095C46.7795 8.35038 46.4901 8.08539 46.1031 7.91804C45.7928 7.76463 45.4999 7.69141 45.2245 7.6949C44.949 7.70187 44.6352 7.70536 44.2901 7.70536H40.4513V15.4456H46.1449C46.518 15.4456 46.8388 15.4107 47.1107 15.341C47.3792 15.2713 47.6267 15.1632 47.8429 15.0237C48.0626 14.8808 48.2683 14.7099 48.46 14.5042C48.6518 14.2985 48.854 14.0614 49.0597 13.7895L48.4042 15.6234H38.2931L38.2861 15.613Z" fill="white"/>
<path d="M66.9459 15.6129C67.1132 15.5362 67.2806 15.3863 67.4479 15.1596C67.6153 14.933 67.7757 14.6855 67.9291 14.417C68.0825 14.1485 68.222 13.8801 68.344 13.6151C68.466 13.3501 68.5602 13.1409 68.6229 12.9875L74.1039 0.15332L79.5255 13.1235C79.7696 13.7022 79.9997 14.1764 80.2193 14.5425C80.439 14.9086 80.6552 15.1875 80.8748 15.3828C80.9271 15.4211 80.9759 15.463 81.0282 15.5083C81.0805 15.5536 81.1363 15.5885 81.2026 15.6129H77.8833C78.0646 15.4839 78.1936 15.334 78.2703 15.1596C78.347 14.9853 78.3854 14.804 78.3854 14.6088C78.3854 14.4135 78.347 14.1694 78.2703 13.8661C78.1936 13.5628 78.0646 13.2071 77.8833 12.7957L76.8234 10.3063H69.9722L68.7938 13.0084C68.6508 13.3675 68.5462 13.6778 68.4765 13.9358C68.4068 14.1939 68.3719 14.4135 68.3719 14.5913C68.3719 14.7203 68.3998 14.8703 68.4591 15.0446C68.5183 15.2189 68.6543 15.3967 68.874 15.5745L68.9507 15.6129H66.9424H66.9459ZM70.0315 10.1494H76.806L73.4658 2.17903L70.0315 10.1494Z" fill="white"/>
<path d="M87.8062 15.1702C87.8829 15.0691 87.9561 14.8774 88.0294 14.6019C88.0991 14.3265 88.134 13.8523 88.134 13.1829V2.77886C88.134 2.20008 88.0991 1.73637 88.0294 1.38771C87.9596 1.03905 87.8446 0.777553 87.6912 0.59625C87.6389 0.557897 87.5901 0.516058 87.5447 0.470732C87.4994 0.425407 87.4506 0.383567 87.3983 0.345215L91.7775 0.366134C92.3946 0.366134 93.0431 0.418433 93.7265 0.519545C94.4098 0.624143 95.0305 0.808932 95.5883 1.08089C96.1462 1.35284 96.6099 1.72591 96.9795 2.21054C97.3456 2.6917 97.5304 3.31928 97.5304 4.09331C97.5304 4.64768 97.4327 5.12883 97.241 5.54025C97.0492 5.95166 96.7842 6.3073 96.4495 6.60017C96.1148 6.89653 95.7278 7.14059 95.292 7.33236C94.8561 7.52412 94.3924 7.67404 93.9008 7.77516L93.2627 7.92857L96.969 13.0818C97.1503 13.3258 97.3351 13.5734 97.5304 13.8244C97.7221 14.0754 97.9313 14.3125 98.1579 14.5392C98.3846 14.7658 98.6217 14.9715 98.8727 15.1563C99.1237 15.3446 99.3887 15.4945 99.6746 15.6095H97.3212L91.8995 8.1029C92.426 8.02619 92.9176 7.89021 93.3743 7.69845C93.8311 7.50669 94.232 7.24868 94.5807 6.92791C94.9293 6.60715 95.2013 6.22362 95.4 5.78082C95.5988 5.33802 95.6999 4.82549 95.6999 4.24672C95.6999 3.66794 95.6127 3.16587 95.4384 2.70216C95.2641 2.23844 94.9921 1.83399 94.619 1.48533C94.3994 1.25522 94.1867 1.07391 93.981 0.94491C93.7753 0.815906 93.5626 0.721767 93.3429 0.665982C93.1233 0.60671 92.8897 0.568357 92.6387 0.550924C92.3876 0.530005 92.1017 0.523031 91.7809 0.523031H89.5426V13.1829C89.5426 14.3265 89.689 15.0552 89.9853 15.362C90.076 15.4771 90.1701 15.5607 90.2747 15.613H87.3809C87.4576 15.5503 87.5308 15.484 87.604 15.4213C87.6737 15.3585 87.7435 15.2748 87.8062 15.1702Z" fill="white"/>
<path d="M104.441 0.348701H116.791L116.85 1.96997C116.697 1.68756 116.515 1.45395 116.309 1.26568C116.104 1.08089 115.877 0.930963 115.633 0.822879C115.389 0.714794 115.124 0.638089 114.842 0.592763C114.559 0.547438 114.27 0.526518 113.973 0.526518H111.271V13.2631C111.271 14.3683 111.418 15.0761 111.714 15.3864C111.791 15.491 111.882 15.5677 111.983 15.6165H109.127C109.28 15.5015 109.403 15.3725 109.493 15.2295C109.737 14.9087 109.859 14.2533 109.859 13.2596V0.519545H107.485C107.164 0.519545 106.861 0.530005 106.578 0.547438C106.296 0.568357 106.031 0.61717 105.787 0.700848C105.543 0.784526 105.309 0.906557 105.093 1.06694C104.873 1.22732 104.668 1.45047 104.476 1.73288C104.452 1.75729 104.431 1.78867 104.417 1.82005C104.403 1.85143 104.385 1.8828 104.357 1.90721L104.434 0.345215L104.441 0.348701Z" fill="white"/>
<path d="M135.165 7.93201C135.165 5.47396 135.988 3.49357 137.634 1.98736C138.355 1.31793 139.122 0.819351 139.938 0.49161C140.754 0.16387 141.664 0 142.668 0C143.672 0 144.596 0.18479 145.485 0.550883C146.374 0.916975 147.183 1.4818 147.916 2.2384C149.355 3.73066 150.077 5.61691 150.077 7.89366C150.077 9.06516 149.896 10.1286 149.537 11.0874C149.178 12.0462 148.63 12.9109 147.898 13.6814C147.176 14.4275 146.354 14.9993 145.43 15.4003C144.502 15.7978 143.543 16 142.553 16C141.563 16 140.601 15.8117 139.708 15.4317C138.812 15.0516 138.014 14.4973 137.306 13.7616C135.876 12.2693 135.165 10.3273 135.165 7.93201ZM137.058 7.87274C137.058 8.78623 137.138 9.71715 137.299 10.662C137.459 11.6069 137.745 12.4646 138.157 13.2282C138.568 13.9952 139.133 14.6193 139.844 15.1109C140.559 15.599 141.462 15.8431 142.557 15.8431C143.651 15.8431 144.603 15.6234 145.335 15.1876C146.068 14.7518 146.646 14.173 147.072 13.4618C147.497 12.747 147.797 11.9346 147.968 11.0211C148.142 10.1076 148.229 9.17673 148.229 8.2214C148.229 5.36588 147.651 3.22162 146.493 1.7956C146.029 1.19242 145.485 0.767052 144.861 0.52299C144.237 0.278928 143.508 0.156897 142.672 0.156897C141.566 0.156897 140.649 0.383526 139.921 0.833297C139.192 1.28307 138.617 1.8723 138.195 2.59752C137.77 3.32621 137.473 4.14905 137.306 5.06603C137.138 5.98649 137.055 6.9209 137.055 7.87274H137.058Z" fill="white"/>
<path d="M166.506 0.348633L166.565 2.06753C166.346 1.56546 166.025 1.18193 165.599 0.920435C165.174 0.655453 164.686 0.526449 164.132 0.526449H159.076V7.56938H162.434C163.218 7.56938 163.811 7.37761 164.208 6.9906C164.323 6.89995 164.438 6.74654 164.557 6.52688V8.61187C164.299 8.2388 163.989 7.99823 163.623 7.88666C163.256 7.77857 162.859 7.72279 162.437 7.72279H159.08V13.1828C159.08 13.786 159.1 14.2079 159.146 14.4484C159.191 14.6855 159.226 14.8564 159.25 14.961C159.365 15.2294 159.564 15.4491 159.85 15.6164H156.918C157.061 15.5397 157.176 15.4317 157.266 15.2887C157.524 14.954 157.653 14.2532 157.653 13.1863V2.77879C157.653 2.20002 157.633 1.7886 157.594 1.54454C157.556 1.30047 157.518 1.12614 157.479 1.02503C157.364 0.756565 157.169 0.529936 156.9 0.348633H166.509H166.506Z" fill="white"/>
<path d="M185.034 15.613C185.11 15.5503 185.184 15.484 185.257 15.4213C185.327 15.3585 185.396 15.2748 185.459 15.1702C185.536 15.0552 185.606 14.8599 185.661 14.5915C185.717 14.323 185.749 13.8523 185.749 13.1829V2.77886C185.749 2.20008 185.717 1.73637 185.651 1.38771C185.585 1.03905 185.484 0.777553 185.341 0.59625C185.288 0.557897 185.243 0.516058 185.205 0.470732C185.166 0.425407 185.114 0.383567 185.051 0.345215H189.741C190.358 0.345215 190.975 0.425407 191.592 0.58579C192.209 0.746174 192.76 0.993722 193.241 1.32844C193.722 1.66315 194.116 2.08503 194.42 2.59407C194.723 3.10311 194.873 3.70281 194.873 4.40013C194.873 5.09745 194.761 5.6553 194.535 6.15737C194.308 6.65944 194.001 7.07784 193.607 7.41255C193.213 7.74726 192.75 7.9983 192.209 8.16565C191.669 8.33301 191.076 8.41669 190.435 8.41669H187.192V13.1829C187.192 14.3265 187.338 15.0552 187.635 15.362C187.725 15.4771 187.82 15.5607 187.924 15.613H185.03H185.034ZM190.435 8.25979C190.846 8.25979 191.212 8.13428 191.536 7.88324C191.857 7.63221 192.129 7.3219 192.345 6.95581C192.565 6.58971 192.732 6.19224 192.847 5.77036C192.962 5.345 193.022 4.96496 193.022 4.63024C193.022 4.16653 192.948 3.69584 192.798 3.2112C192.652 2.73005 192.436 2.28376 192.153 1.87932C191.871 1.47487 191.526 1.14365 191.121 0.885638C190.717 0.627629 190.257 0.498625 189.741 0.498625H187.192V8.25631H190.435V8.25979Z" fill="white"/>
<path d="M201.435 15.613C201.703 15.4317 201.898 15.1946 202.013 14.8982C202.038 14.7971 202.073 14.6297 202.118 14.3961C202.163 14.166 202.184 13.7651 202.184 13.2002V2.71952C202.184 2.34645 202.17 2.03266 202.146 1.78511C202.121 1.53408 202.083 1.32488 202.041 1.15752C201.996 0.990167 201.947 0.861163 201.895 0.770511C201.843 0.67986 201.797 0.610128 201.759 0.557829C201.72 0.533423 201.682 0.498557 201.644 0.453231C201.605 0.407905 201.567 0.373039 201.529 0.348633H211.448L211.525 1.77814C211.5 1.71538 211.472 1.65959 211.448 1.61427C211.424 1.56894 211.396 1.5271 211.371 1.48875C211.204 1.22028 211.03 1.01457 210.852 0.882082C210.671 0.746105 210.479 0.655453 210.273 0.603155C210.067 0.550856 209.851 0.526449 209.628 0.526449H203.596V7.55195H208.007C208.206 7.55195 208.404 7.538 208.607 7.51359C208.805 7.48919 208.997 7.44386 209.185 7.37761C209.37 7.31486 209.534 7.21723 209.677 7.08823C209.778 7.01152 209.862 6.92784 209.928 6.83719C209.991 6.74654 210.057 6.6524 210.12 6.5478V8.7095C209.928 8.35038 209.639 8.08539 209.252 7.91804C208.941 7.76463 208.648 7.69141 208.373 7.6949C208.097 7.70187 207.784 7.70536 207.439 7.70536H203.6V15.4456H209.293C209.666 15.4456 209.987 15.4107 210.259 15.341C210.528 15.2713 210.775 15.1632 210.991 15.0237C211.211 14.8808 211.417 14.7099 211.608 14.5042C211.8 14.2985 212.002 14.0614 212.208 13.7895L211.553 15.6234H201.442L201.435 15.613Z" fill="white"/>
<path d="M219.112 15.1702C219.189 15.0691 219.262 14.8774 219.335 14.6019C219.405 14.3265 219.44 13.8523 219.44 13.1829V2.77886C219.44 2.20008 219.405 1.73637 219.335 1.38771C219.265 1.03905 219.15 0.777553 218.997 0.59625C218.945 0.557897 218.896 0.516058 218.85 0.470732C218.805 0.425407 218.756 0.383567 218.704 0.345215L223.083 0.366134C223.7 0.366134 224.349 0.418433 225.032 0.519545C225.716 0.624143 226.336 0.808932 226.894 1.08089C227.452 1.35284 227.916 1.72591 228.285 2.21054C228.651 2.6917 228.836 3.31928 228.836 4.09331C228.836 4.64768 228.738 5.12883 228.547 5.54025C228.355 5.95166 228.09 6.3073 227.755 6.60017C227.42 6.89653 227.033 7.14059 226.598 7.33236C226.162 7.52412 225.698 7.67404 225.206 7.77516L224.568 7.92857L228.275 13.0818C228.456 13.3258 228.641 13.5734 228.836 13.8244C229.028 14.0754 229.237 14.3125 229.464 14.5392C229.69 14.7658 229.927 14.9715 230.178 15.1563C230.429 15.3446 230.694 15.4945 230.98 15.6095H228.627L223.205 8.1029C223.732 8.02619 224.223 7.89021 224.68 7.69845C225.137 7.50669 225.538 7.24868 225.886 6.92791C226.235 6.60715 226.507 6.22362 226.706 5.78082C226.904 5.33802 227.006 4.82549 227.006 4.24672C227.006 3.66794 226.918 3.16587 226.744 2.70216C226.57 2.23844 226.298 1.83399 225.925 1.48533C225.705 1.25522 225.492 1.07391 225.287 0.94491C225.081 0.815906 224.868 0.721767 224.649 0.665982C224.429 0.60671 224.195 0.568357 223.944 0.550924C223.693 0.530005 223.407 0.523031 223.087 0.523031H220.848V13.1829C220.848 14.3265 220.995 15.0552 221.291 15.362C221.382 15.4771 221.476 15.5607 221.58 15.613H218.687C218.763 15.5503 218.836 15.484 218.91 15.4213C218.979 15.3585 219.049 15.2748 219.112 15.1702Z" fill="white"/>
<path d="M246.767 0.348633L246.826 2.06753C246.607 1.56546 246.286 1.18193 245.861 0.920435C245.435 0.655453 244.947 0.526449 244.393 0.526449H239.337V7.56938H242.695C243.479 7.56938 244.072 7.37761 244.47 6.9906C244.585 6.89995 244.7 6.74654 244.818 6.52688V8.61187C244.56 8.2388 244.25 7.99823 243.884 7.88666C243.518 7.77857 243.12 7.72279 242.698 7.72279H239.341V13.1828C239.341 13.786 239.362 14.2079 239.407 14.4484C239.452 14.6855 239.487 14.8564 239.512 14.961C239.627 15.2294 239.825 15.4491 240.111 15.6164H237.179C237.322 15.5397 237.437 15.4317 237.528 15.2887C237.786 14.954 237.915 14.2532 237.915 13.1863V2.77879C237.915 2.20002 237.894 1.7886 237.855 1.54454C237.817 1.30047 237.779 1.12614 237.74 1.02503C237.625 0.756565 237.43 0.529936 237.162 0.348633H246.771H246.767Z" fill="white"/>
<path d="M253.176 15.613C253.444 15.4317 253.639 15.1946 253.755 14.8982C253.779 14.7971 253.814 14.6297 253.859 14.3961C253.904 14.166 253.925 13.7651 253.925 13.2002V2.71952C253.925 2.34645 253.911 2.03266 253.887 1.78511C253.863 1.53408 253.824 1.32488 253.782 1.15752C253.737 0.990167 253.688 0.861163 253.636 0.770511C253.584 0.67986 253.538 0.610128 253.5 0.557829C253.462 0.533423 253.423 0.498557 253.385 0.453231C253.347 0.407905 253.308 0.373039 253.27 0.348633H263.189L263.266 1.77814C263.242 1.71538 263.214 1.65959 263.189 1.61427C263.165 1.56894 263.137 1.5271 263.113 1.48875C262.945 1.22028 262.771 1.01457 262.593 0.882082C262.412 0.746105 262.22 0.655453 262.014 0.603155C261.809 0.550856 261.592 0.526449 261.369 0.526449H255.337V7.55195H259.748C259.947 7.55195 260.145 7.538 260.348 7.51359C260.546 7.48919 260.738 7.44386 260.926 7.37761C261.111 7.31486 261.275 7.21723 261.418 7.08823C261.519 7.01152 261.603 6.92784 261.669 6.83719C261.732 6.74654 261.798 6.6524 261.861 6.5478V8.7095C261.669 8.35038 261.38 8.08539 260.993 7.91804C260.682 7.76463 260.39 7.69141 260.114 7.6949C259.839 7.70187 259.525 7.70536 259.18 7.70536H255.341V15.4456H261.035C261.408 15.4456 261.728 15.4107 262 15.341C262.269 15.2713 262.516 15.1632 262.733 15.0237C262.952 14.8808 263.158 14.7099 263.35 14.5042C263.541 14.2985 263.744 14.0614 263.949 13.7895L263.294 15.6234H253.183L253.176 15.613Z" fill="white"/>
<path d="M269.636 7.9703C269.636 6.8511 269.8 5.80512 270.128 4.83584C270.456 3.86308 270.933 3.02281 271.557 2.30806C272.182 1.59331 272.952 1.03196 273.873 0.620546C274.793 0.209127 275.849 0.00341797 277.049 0.00341797H277.492C278.109 0.00341797 278.632 0.0626901 279.064 0.177748C279.496 0.292806 279.862 0.418323 280.162 0.554301C280.466 0.690278 280.724 0.815795 280.933 0.930853C281.146 1.04591 281.355 1.10518 281.56 1.10518C281.791 1.10518 281.996 1.0494 282.167 0.941313C282.341 0.833228 282.491 0.686791 282.62 0.505488L282.833 3.42028C282.589 2.95657 282.289 2.5312 281.937 2.13722C281.581 1.74323 281.198 1.40503 280.779 1.11564C280.361 0.826255 279.915 0.599626 279.437 0.439243C278.959 0.278859 278.464 0.198667 277.952 0.198667C276.78 0.198667 275.783 0.407863 274.96 0.826255C274.137 1.24465 273.468 1.80948 272.952 2.52423C272.436 3.23898 272.063 4.06531 271.833 5.0032C271.603 5.9411 271.484 6.93478 271.484 7.97378C271.484 9.01279 271.599 10.01 271.833 10.9548C272.063 11.8997 272.436 12.7295 272.952 13.4443C273.468 14.159 274.134 14.7273 274.96 15.1527C275.783 15.5781 276.78 15.7907 277.952 15.7907C279.047 15.7907 280.009 15.5118 280.846 14.9505C281.682 14.3891 282.345 13.5907 282.833 12.5482L282.62 15.463C282.352 15.076 281.996 14.8842 281.56 14.8842C281.355 14.8842 281.166 14.9435 280.992 15.0585C280.818 15.1736 280.595 15.2991 280.316 15.4351C280.04 15.5711 279.681 15.6966 279.245 15.8117C278.81 15.9267 278.224 15.993 277.488 16.0034H277.045C275.849 16.0034 274.789 15.7977 273.869 15.3863C272.949 14.9749 272.178 14.41 271.554 13.6883C270.93 12.9666 270.452 12.1193 270.124 11.1396C269.797 10.1634 269.633 9.10693 269.633 7.97378L269.636 7.9703Z" fill="white"/>
<path d="M289.032 0.348701H301.381L301.441 1.96997C301.287 1.68756 301.106 1.45395 300.9 1.26568C300.695 1.08089 300.468 0.930963 300.224 0.822879C299.98 0.714794 299.715 0.638089 299.432 0.592763C299.15 0.547438 298.861 0.526518 298.564 0.526518H295.862V13.2631C295.862 14.3683 296.009 15.0761 296.305 15.3864C296.382 15.491 296.472 15.5677 296.573 15.6165H293.718C293.871 15.5015 293.993 15.3725 294.084 15.2295C294.328 14.9087 294.45 14.2533 294.45 13.2596V0.519545H292.076C291.755 0.519545 291.452 0.530005 291.169 0.547438C290.887 0.568357 290.622 0.61717 290.378 0.700848C290.134 0.784526 289.9 0.906557 289.684 1.06694C289.464 1.22732 289.259 1.45047 289.067 1.73288C289.042 1.75729 289.021 1.78867 289.008 1.82005C288.994 1.85143 288.976 1.8828 288.948 1.90721L289.025 0.345215L289.032 0.348701Z" fill="white"/>
<path d="M310.625 0.348633C310.558 0.400932 310.496 0.453231 310.433 0.512503C310.367 0.571775 310.318 0.631047 310.279 0.697293C310.011 1.01806 309.875 1.71538 309.875 2.78228V13.1828C309.875 13.7616 309.896 14.1765 309.941 14.4275C309.986 14.6786 310.021 14.8564 310.046 14.9575C310.161 15.226 310.36 15.4456 310.645 15.613H307.713C307.856 15.5363 307.971 15.4282 308.062 15.2852C308.32 14.9505 308.449 14.2497 308.449 13.1828V2.77879C308.449 2.20002 308.428 1.7886 308.39 1.54454C308.351 1.30047 308.313 1.12614 308.275 1.02503C308.16 0.756565 307.964 0.529936 307.696 0.348633H310.628H310.625Z" fill="white"/>
<path d="M317.458 7.93201C317.458 5.47396 318.281 3.49357 319.927 1.98736C320.648 1.31793 321.415 0.819351 322.231 0.49161C323.047 0.16387 323.957 0 324.961 0C325.965 0 326.893 0.18479 327.778 0.550883C328.667 0.916975 329.476 1.4818 330.209 2.2384C331.649 3.73066 332.37 5.61691 332.37 7.89366C332.37 9.06516 332.189 10.1286 331.83 11.0874C331.471 12.0462 330.923 12.9109 330.188 13.6814C329.466 14.4275 328.643 14.9993 327.719 15.4003C326.792 15.7978 325.833 16 324.843 16C323.852 16 322.89 15.8117 321.998 15.4317C321.105 15.0516 320.303 14.4973 319.595 13.7616C318.166 12.2693 317.455 10.3273 317.455 7.93201H317.458ZM319.348 7.87274C319.348 8.78623 319.428 9.71715 319.588 10.662C319.749 11.6069 320.035 12.4646 320.446 13.2282C320.858 13.9952 321.419 14.6193 322.134 15.1109C322.848 15.599 323.751 15.8431 324.846 15.8431C325.941 15.8431 326.893 15.6234 327.625 15.1876C328.357 14.7518 328.936 14.173 329.361 13.4618C329.787 12.747 330.087 11.9346 330.257 11.0211C330.432 10.1076 330.519 9.17673 330.519 8.2214C330.519 5.36588 329.94 3.22162 328.783 1.7956C328.319 1.19242 327.775 0.767052 327.151 0.52299C326.527 0.278928 325.798 0.156897 324.961 0.156897C323.856 0.156897 322.939 0.383526 322.21 0.833297C321.482 1.28307 320.906 1.8723 320.484 2.59752C320.059 3.32621 319.763 4.14905 319.595 5.06603C319.428 5.98649 319.344 6.9209 319.344 7.87274H319.348Z" fill="white"/>
<path d="M340.557 0.348701L351.038 13.2003V2.71959C351.038 2.14081 351.003 1.68407 350.933 1.34936C350.863 1.01464 350.748 0.756633 350.595 0.578817C350.557 0.540464 350.515 0.502112 350.469 0.463759C350.424 0.425407 350.382 0.387054 350.344 0.348701H351.965C351.888 0.401 351.819 0.460273 351.752 0.533491C351.686 0.603223 351.623 0.679928 351.561 0.756633C351.456 0.92399 351.376 1.16457 351.32 1.48185C351.261 1.79564 351.233 2.21054 351.233 2.72656V15.6374L340.194 2.14779V13.2631C340.194 14.3683 340.33 15.0761 340.599 15.3864C340.651 15.4248 340.696 15.4666 340.735 15.5119C340.773 15.5572 340.826 15.5921 340.888 15.6165H339.267C339.344 15.5538 339.413 15.491 339.48 15.4317C339.542 15.3725 339.602 15.3062 339.654 15.2295C339.874 14.9192 339.982 14.2637 339.982 13.2596V1.88978L339.884 1.77472C339.406 1.20989 339.03 0.829852 338.744 0.634603C338.615 0.519545 338.462 0.42192 338.28 0.345215H340.557V0.348701Z" fill="white"/>
</g>
</g>
<defs>
<clipPath id="clip0_147_642">
<rect width="351.962" height="16" fill="white"/>
</clipPath>
</defs>
</svg>
