<svg width="145" height="32" viewBox="0 0 145 32" fill="none" xmlns="http://www.w3.org/2000/svg">
<path d="M78.8701 30.2603V1.11035H86.8301V22.8104H95.7801V30.2603H78.8701Z" fill="black"/>
<path d="M52.9102 30.2603V1.11035H60.8802V11.3304H68.9102V1.11035H76.8802V30.2603H68.9102V19.4204H60.8802V30.2603H52.9102Z" fill="black"/>
<path d="M25.84 1.12035L14.33 15.0004L27.48 30.2704H16.94L8.00003 19.8704H7.99002V30.2603H0.0200195V1.11035H7.99002V9.84035L7.92004 9.85035L15.51 1.12035H25.84Z" fill="black"/>
<path d="M21.52 15.4503C21.52 7.06025 28.25 0.260254 36.55 0.260254C44.85 0.260254 51.58 7.06025 51.58 15.4503C51.58 23.8403 44.85 30.6403 36.55 30.6403C28.25 30.6403 21.52 23.8403 21.52 15.4503ZM36.56 22.9203C40.3 22.9203 43.33 19.5703 43.33 15.4403C43.33 11.3103 40.3 7.96025 36.56 7.96025C32.82 7.96025 29.79 11.3103 29.79 15.4403C29.79 19.5703 32.82 22.9203 36.56 22.9203Z" fill="black"/>
<path d="M105.4 1.11035H113.59V7.83035L105.59 7.85035L105.56 12.4504H112.95V18.9704H105.57L105.58 23.4204H113.66V30.2603H105.47H97.4102V1.11035H105.4Z" fill="black"/>
<path d="M130.15 18.6101L138.44 30.2701L129.74 30.2501L123.24 21.3001V30.2301H115.43V1.1001H125.42C134.21 1.1001 139.78 12.1201 130.14 18.6101H130.15ZM125.47 13.4801C127.02 13.4801 128.28 12.2201 128.28 10.6701C128.28 9.1201 127.02 7.8601 125.47 7.8601H123.21V13.4701H125.47V13.4801Z" fill="black"/>
<path d="M139.4 28.5804C139.4 27.1104 140.56 25.9404 142.03 25.9404C143.5 25.9404 144.66 27.1104 144.66 28.5804C144.66 30.0504 143.49 31.2104 142.03 31.2104C140.57 31.2104 139.4 30.0404 139.4 28.5804ZM144.03 28.5804C144.03 27.4004 143.15 26.5604 142.03 26.5604C140.91 26.5604 140.03 27.4004 140.03 28.5804C140.03 29.7604 140.89 30.5804 142.03 30.5804C143.17 30.5804 144.03 29.7404 144.03 28.5804ZM143.29 29.9104H142.63L142.02 28.7604H141.6V29.9104H140.99V27.1804H142.32C142.95 27.1804 143.38 27.2904 143.38 28.0204C143.38 28.5204 143.12 28.7304 142.64 28.7604L143.3 29.9104H143.29ZM142.32 28.3504C142.63 28.3504 142.8 28.2804 142.8 27.9404C142.8 27.6604 142.45 27.6604 142.18 27.6604H141.59V28.3504H142.32Z" fill="black"/>
</svg>
