<svg width="234" height="23" viewBox="0 0 234 23" fill="none" xmlns="http://www.w3.org/2000/svg">
<path d="M22.12 3.69024C20.93 3.69024 19.96 4.37023 19.96 5.24023C19.96 5.90023 20.53 6.45024 21.35 6.69024L17.04 13.5602L16.72 4.45024C16.9 4.49024 17.12 4.51023 17.33 4.51023C18.51 4.51023 19.48 3.83024 19.48 2.97023C19.48 2.11023 18.51 1.43023 17.33 1.43023C16.15 1.43023 15.17 2.13023 15.17 2.97023C15.17 3.62023 15.74 4.18023 16.55 4.40023L14 13.2202L12.6899 3.33023C13.8399 3.32023 14.78 2.63023 14.78 1.80023C14.78 0.970235 13.83 0.240234 12.64 0.240234C11.45 0.240234 10.49 0.930235 10.49 1.80023C10.49 2.61023 11.36 3.26023 12.46 3.33023L10.5 13.2202L7.91003 4.50023C9.00003 4.44023 9.88 3.78023 9.88 2.97023C9.88 2.12023 8.90998 1.43023 7.72998 1.43023C6.54998 1.43023 5.57996 2.13023 5.57996 2.97023C5.57996 3.81023 6.52998 4.51023 7.72998 4.51023H7.75L7.45996 13.5602L3.18994 6.76023C4.18994 6.63023 4.94995 6.01023 4.94995 5.25023C4.94995 4.39023 3.99006 3.70024 2.81006 3.70024C1.63006 3.70024 0.660034 4.38023 0.660034 5.25023C0.660034 6.12023 1.62006 6.79024 2.81006 6.79024C2.84006 6.79024 2.88003 6.79024 2.91003 6.79024L5.95996 20.3002C6.52996 21.4802 7.90999 21.7302 8.98999 21.8002C11.8 21.9902 14 22.1802 16.02 21.6102C17.99 21.0502 17.9 20.3002 17.9 20.3002L21.73 6.96023L21.77 6.77024C21.88 6.79024 22.01 6.80023 22.14 6.80023C23.33 6.80023 24.29 6.11023 24.29 5.26023C24.29 4.41023 23.33 3.71023 22.14 3.71023L22.12 3.69024ZM12.04 21.2602C9.24004 21.2602 6.97998 20.9202 6.97998 20.5102C6.97998 20.1002 9.24004 19.7602 12.04 19.7602C14.84 19.7602 17.11 20.0902 17.11 20.5102C17.11 20.9302 14.84 21.2602 12.04 21.2602Z" fill="black"/>
<path d="M27.09 8.17025C27.09 1.97025 30.57 0.510254 36.41 0.510254H46.1801C53.5501 0.510254 54.5699 3.17025 54.5699 7.28025V7.96025H48.1899C48.1899 5.87025 47.0001 5.60025 44.9301 5.60025H37.88C34.6 5.60025 33.76 6.37025 33.76 10.0003V12.6503C33.76 16.2603 34.6 17.0503 37.88 17.0503H44.8101C46.5001 17.0503 48.1899 16.7903 48.1899 14.7403V14.1203H40.12V9.74025H54.6801V15.7603C54.6801 21.8403 51.52 22.1303 44.21 22.1303H36.4C30.57 22.1303 27.08 20.6703 27.08 14.4803V8.16025L27.09 8.17025Z" fill="black"/>
<path d="M58.59 0.730469H65.08V16.4605H79.67V21.9005H58.59V0.730469Z" fill="black"/>
<path d="M82.42 0.730469H105.57V5.64047H88.92V9.03047H104.69V13.4105H88.92V16.8005H105.95V21.8905H82.4301V0.730469H82.42Z" fill="black"/>
<path d="M109.85 0.730469H119.83L127.16 14.3605L134.5 0.730469H144.46V21.9005H138.14V6.71047H138.07L129.58 21.9005H124.72L116.23 6.71047H116.16V21.9005H109.84V0.730469H109.85Z" fill="black"/>
<path d="M175.41 14.34C175.41 20.09 173.53 22.14 168.24 22.14H156.44C150.71 22.14 148.9 19.57 148.9 14.22V8.44002C148.9 3.09002 150.71 0.52002 156.44 0.52002H167.24C171.05 0.52002 175.1 1.45002 175.1 6.33002V7.09002H172.43C172.43 3.14002 171.23 2.85002 164.16 2.85002H156.73C154 2.85002 151.76 3.67002 151.76 7.36002V15.3C151.76 18.99 154 19.81 156.73 19.81H167.94C170.8 19.81 172.55 18.82 172.55 15.9V13.76H161.71V11.42H175.43V14.35L175.41 14.34Z" fill="black"/>
<path d="M199.53 15.0905H185.34L192.44 3.08047L199.53 15.0905ZM178.09 21.9005H181.33L183.96 17.4205H200.9L203.54 21.9005H206.78L194.21 0.730469H190.64L178.08 21.9005H178.09Z" fill="black"/>
<path d="M209.5 15.2403H212.19V16.7203C212.19 18.8003 213.3 19.8003 216.86 19.8003H225.76C229.9 19.8003 231.12 18.9103 231.12 15.8903C231.12 13.2103 230.07 12.5403 226.5 12.5403H221.08C212.34 12.5403 209.47 12.0203 209.47 6.42025C209.47 1.59025 212.33 0.510254 218.24 0.510254H224.4C231.51 0.510254 233.28 2.33025 233.28 6.09025V6.82025H230.59C230.53 3.46025 230.18 2.84025 222.67 2.84025H219.62C214.1 2.84025 212.14 3.13025 212.14 6.61025C212.14 9.13025 212.93 9.97025 217.42 9.97025H225.88C231.47 9.97025 233.81 11.5703 233.81 15.1703V16.5403C233.81 21.7503 229.54 22.1303 225.3 22.1303H217.35C213.18 22.1303 209.49 21.4003 209.49 16.7803V15.2303L209.5 15.2403Z" fill="black"/>
</svg>
