<?xml version="1.0" encoding="UTF-8"?>
<svg id="_圖層_2" data-name="圖層 2" xmlns="http://www.w3.org/2000/svg" viewBox="0 0 600.87 51.93">
  <defs>
    <style>
      .cls-1 {
        fill: #bcb391;
      }
    </style>
  </defs>
  <g id="_圖層_1-2" data-name="圖層 1">
    <g>
      <path class="cls-1" d="M0,9.32L4.08.04l4.18,9.28h-1.5l-.78-1.75H1.38l-.77,1.75h-.61ZM1.59,7.09h4.15L3.64,2.42,1.59,7.09Z"/>
      <path class="cls-1" d="M20.77,2.97l-2.82,6.53-2.99-6.53h1.38l2.01,4.48,1.9-4.48h.51Z"/>
      <path class="cls-1" d="M27.5,4.84v4.48h-1.26v-.94c-.66,1.04-3.92,2.16-3.92-.67,0-2.21,2.25-1.98,3.92-2.61v-.62c0-.79-.32-1.17-1.14-1.17-.42,0-1.33-.04-1.95.89l-.35-.1c.55-1.01,1.52-1.18,2.28-1.18,1.79,0,2.42.75,2.42,1.93ZM26.24,8.04v-2.57c-1.26.41-2.56.41-2.56,2.13s1.44,1.78,2.56.44Z"/>
      <path class="cls-1" d="M34.68,7.82c0,1.04-1.17,1.67-2.67,1.67-.91,0-2.21-.44-2.21-1.8h.5c0,1.07,1.02,1.37,1.74,1.39.86,0,1.52-.35,1.52-.94,0-.82-.67-.96-1.79-1.47-.71-.32-1.96-.86-1.96-2.05,0-.93.85-1.71,2.45-1.71.45,0,2,.13,2,1.53h-.43c0-.96-1.11-1.18-1.55-1.18-.76,0-1.34.3-1.34.98s.77.93,1.67,1.36c1.29.62,2.1,1.05,2.1,2.22Z"/>
      <path class="cls-1" d="M40.46,8.6c-.3.39-.75.9-1.77.9-1.14,0-1.19-.61-1.19-1.21V3.45h-1.02v-.48h1.02v-1.6h1.24v1.6h1.33v.48h-1.33v4.59c0,.37-.09.89.35,1,.26.08.8-.04,1.11-.61l.26.17Z"/>
      <path class="cls-1" d="M56.52,5.05v4.27h-1.26v-4.2c0-1.2-.7-1.74-1.23-1.74-.77,0-1.23.36-1.55.82v5.11h-1.26v-4.2c0-1.2-.7-1.74-1.23-1.74-.75,0-1.26.41-1.58.81v5.12h-1.24V2.97h1.24v.67c.39-.37.91-.67,1.59-.67,1.12,0,1.82.37,2.18.93.45-.53,1.07-.93,1.87-.93,1.77,0,2.48,1.07,2.48,2.08Z"/>
      <path class="cls-1" d="M60.18,5.93v.29c0,2.33,2.08,4.11,4.02,1.8l.21.2c-.08.17-.77,1.27-2.56,1.27-1.92,0-3.04-1.42-3.04-3.27s1.12-3.26,3.04-3.26c2.29,0,2.57,1.79,2.57,2.49v.48h-4.24ZM60.22,5.45h2.71c-.02-1.38-.25-2.04-1.07-2.04s-1.48.44-1.64,2.04Z"/>
      <path class="cls-1" d="M70.2,8.6c-.3.39-.75.9-1.77.9-1.14,0-1.19-.61-1.19-1.21V3.45h-1.02v-.48h1.02v-1.6h1.24v1.6h1.33v.48h-1.33v4.59c0,.37-.09.89.35,1,.26.08.8-.04,1.11-.61l.26.17Z"/>
      <path class="cls-1" d="M75.96,2.98v.76c-.91,0-1.89-.14-2.21,1.78v3.8h-1.24V2.98h1.24v1.65c.36-1.36,1.12-1.65,2.21-1.65Z"/>
      <path class="cls-1" d="M83.32,6.23c0,2.27-1.33,3.27-2.96,3.27s-2.97-1-2.97-3.27,1.33-3.26,2.97-3.26,2.96,1.04,2.96,3.26ZM81.96,6.23c0-2.02-.52-2.98-1.6-2.98s-1.62.98-1.62,2.98.54,2.98,1.62,2.98,1.6-.9,1.6-2.98Z"/>
      <path class="cls-1" d="M88.91,9.5c-1.03,0-1.68-.48-2.05-.95v3.53h-1.24V2.98h1.24v.94c.36-.48,1-.94,2.05-.94,1.92,0,2.7,1.39,2.7,3.25s-.78,3.27-2.7,3.27ZM86.86,4.57v3.35c1.44,2.12,3.38,1.29,3.38-1.69.01-3-1.94-3.78-3.38-1.66Z"/>
      <path class="cls-1" d="M99.59,6.23c0,2.27-1.33,3.27-2.96,3.27s-2.97-1-2.97-3.27,1.33-3.26,2.97-3.26,2.96,1.04,2.96,3.26ZM98.23,6.23c0-2.02-.52-2.98-1.6-2.98s-1.62.98-1.62,2.98.54,2.98,1.62,2.98,1.6-.9,1.6-2.98Z"/>
      <path class="cls-1" d="M103.13,9.32h-1.24V.04h1.24v9.28Z"/>
      <path class="cls-1" d="M106.98,1.13c0,.43-.35.79-.77.79s-.78-.35-.78-.79.35-.8.78-.8.77.36.77.8ZM106.82,9.32h-1.24V2.97h1.24v6.35Z"/>
      <path class="cls-1" d="M113.26,8.6c-.3.39-.75.9-1.77.9-1.14,0-1.19-.61-1.19-1.21V3.45h-1.02v-.48h1.02v-1.6h1.24v1.6h1.33v.48h-1.33v4.59c0,.37-.09.89.35,1,.26.08.8-.04,1.11-.61l.26.17Z"/>
      <path class="cls-1" d="M120.23,4.84v4.48h-1.26v-.94c-.66,1.04-3.92,2.16-3.92-.67,0-2.21,2.25-1.98,3.92-2.61v-.62c0-.79-.32-1.17-1.14-1.17-.42,0-1.33-.04-1.95.89l-.35-.1c.55-1.01,1.52-1.18,2.28-1.18,1.79,0,2.42.75,2.42,1.93ZM118.98,8.04v-2.57c-1.26.41-2.56.41-2.56,2.13s1.44,1.78,2.56.44Z"/>
      <path class="cls-1" d="M127.84,5.05v4.27h-1.26v-4.2c0-1.2-.7-1.74-1.23-1.74-.75,0-1.26.41-1.58.81v5.12h-1.24V2.97h1.24v.67c.39-.37.91-.67,1.59-.67,1.77,0,2.47,1.07,2.47,2.08Z"/>
      <path class="cls-1" d="M137.84,9.5c-1.03,0-1.68-.48-2.05-.95v3.53h-1.24V2.98h1.24v.94c.36-.48,1-.94,2.05-.94,1.92,0,2.7,1.39,2.7,3.25s-.78,3.27-2.7,3.27ZM135.79,4.57v3.35c1.44,2.12,3.38,1.29,3.38-1.69.01-3-1.94-3.78-3.38-1.66Z"/>
      <path class="cls-1" d="M147.76,4.84v4.48h-1.26v-.94c-.66,1.04-3.92,2.16-3.92-.67,0-2.21,2.25-1.98,3.92-2.61v-.62c0-.79-.32-1.17-1.14-1.17-.42,0-1.33-.04-1.95.89l-.35-.1c.55-1.01,1.52-1.18,2.28-1.18,1.79,0,2.42.75,2.42,1.93ZM146.51,8.04v-2.57c-1.26.41-2.56.41-2.56,2.13s1.44,1.78,2.56.44Z"/>
      <path class="cls-1" d="M153.52,2.98v.76c-.91,0-1.89-.14-2.21,1.78v3.8h-1.24V2.98h1.24v1.65c.36-1.36,1.12-1.65,2.21-1.65Z"/>
      <path class="cls-1" d="M158.31,5.79l2.7,3.53h-1.58l-2.38-3.09v3.09h-1.24V.04h1.24v6.11l2.86-2.66h.82l-2.42,2.31Z"/>
      <path class="cls-1" d="M163.18,8.53c0-.48.41-.84.88-.84.4,0,.63.17.81.42.19.29.24.66.24.86,0,.86-.45,1.6-1.42,2.04l-.12-.24c.56-.23,1.04-.77,1.04-1.29,0-.13-.12-.22-.24-.17-.1.04-.2.06-.31.06-.47,0-.88-.32-.88-.85Z"/>
      <path class="cls-1" d="M180.08,2.97l-2.19,6.53-2-5.63-1.88,5.63-2.31-6.53h1.32l1.38,3.88,1.31-3.88h1.18l1.39,3.88,1.31-3.88h.5Z"/>
      <path class="cls-1" d="M187.67,5.05v4.27h-1.24v-4.2c0-1.2-.7-1.74-1.24-1.74-.73,0-1.24.41-1.57.81v5.12h-1.24V.04h1.24v3.6c.37-.37.9-.67,1.58-.67,1.77,0,2.47,1.07,2.47,2.08Z"/>
      <path class="cls-1" d="M191.34,5.93v.29c0,2.33,2.08,4.11,4.02,1.8l.21.2c-.08.17-.77,1.27-2.56,1.27-1.92,0-3.04-1.42-3.04-3.27s1.12-3.26,3.04-3.26c2.29,0,2.57,1.79,2.57,2.49v.48h-4.24ZM191.37,5.45h2.71c-.02-1.38-.25-2.04-1.07-2.04s-1.48.44-1.64,2.04Z"/>
      <path class="cls-1" d="M201.33,2.98v.76c-.91,0-1.89-.14-2.21,1.78v3.8h-1.24V2.98h1.24v1.65c.36-1.36,1.12-1.65,2.21-1.65Z"/>
      <path class="cls-1" d="M204.13,5.93v.29c0,2.33,2.08,4.11,4.02,1.8l.21.2c-.08.17-.77,1.27-2.56,1.27-1.92,0-3.04-1.42-3.04-3.27s1.12-3.26,3.04-3.26c2.29,0,2.57,1.79,2.57,2.49v.48h-4.24ZM204.16,5.45h2.71c-.02-1.38-.25-2.04-1.07-2.04s-1.48.44-1.64,2.04Z"/>
      <path class="cls-1" d="M220.39,5.05v4.27h-1.26v-4.2c0-1.2-.7-1.74-1.23-1.74-.75,0-1.26.41-1.58.81v5.12h-1.24V2.97h1.24v.67c.39-.37.91-.67,1.59-.67,1.77,0,2.47,1.07,2.47,2.08Z"/>
      <path class="cls-1" d="M227.86,4.84v4.48h-1.26v-.94c-.66,1.04-3.92,2.16-3.92-.67,0-2.21,2.25-1.98,3.92-2.61v-.62c0-.79-.32-1.17-1.14-1.17-.42,0-1.33-.04-1.95.89l-.35-.1c.55-1.01,1.52-1.18,2.28-1.18,1.79,0,2.42.75,2.42,1.93ZM226.6,8.04v-2.57c-1.26.41-2.56.41-2.56,2.13s1.44,1.78,2.56.44Z"/>
      <path class="cls-1" d="M233.76,8.6c-.3.39-.75.9-1.77.9-1.14,0-1.19-.61-1.19-1.21V3.45h-1.02v-.48h1.02v-1.6h1.24v1.6h1.33v.48h-1.33v4.59c0,.37-.09.89.35,1,.26.08.8-.04,1.11-.61l.26.17Z"/>
      <path class="cls-1" d="M236.06,7.42V2.97h1.26v4.37c0,1.21.7,1.56,1.23,1.56.75,0,1.26-.23,1.58-.63V2.97h1.24v6.35h-1.24v-.49c-.39.37-.91.67-1.59.67-1.77,0-2.48-1.07-2.48-2.08Z"/>
      <path class="cls-1" d="M247.12,2.98v.76c-.91,0-1.89-.14-2.21,1.78v3.8h-1.24V2.98h1.24v1.65c.36-1.36,1.12-1.65,2.21-1.65Z"/>
      <path class="cls-1" d="M249.92,5.93v.29c0,2.33,2.08,4.11,4.02,1.8l.21.2c-.08.17-.77,1.27-2.56,1.27-1.92,0-3.04-1.42-3.04-3.27s1.12-3.26,3.04-3.26c2.29,0,2.57,1.79,2.57,2.49v.48h-4.24ZM249.95,5.45h2.71c-.02-1.38-.25-2.04-1.07-2.04s-1.48.44-1.64,2.04Z"/>
      <path class="cls-1" d="M260.87,7.42V2.97h1.26v4.37c0,1.21.7,1.56,1.23,1.56.75,0,1.26-.23,1.58-.63V2.97h1.24v6.35h-1.24v-.49c-.39.37-.91.67-1.59.67-1.77,0-2.48-1.07-2.48-2.08Z"/>
      <path class="cls-1" d="M273.78,5.05v4.27h-1.26v-4.2c0-1.2-.7-1.74-1.23-1.74-.75,0-1.26.41-1.58.81v5.12h-1.24V2.97h1.24v.67c.39-.37.91-.67,1.59-.67,1.77,0,2.47,1.07,2.47,2.08Z"/>
      <path class="cls-1" d="M278.01,1.6v1.37h1.22v.48h-1.22v5.87h-1.24V3.45h-1.18v-.48h1.18v-1c0-1.05.52-1.97,2.1-1.97.42,0,.77.09,1.07.22-.07.09-.15.18-.21.27-.21-.09-.46-.14-.75-.14-.82,0-.97.39-.97,1.26Z"/>
      <path class="cls-1" d="M286.8,6.23c0,2.27-1.33,3.27-2.96,3.27s-2.97-1-2.97-3.27,1.33-3.26,2.97-3.26,2.96,1.04,2.96,3.26ZM285.44,6.23c0-2.02-.52-2.98-1.6-2.98s-1.62.98-1.62,2.98.54,2.98,1.62,2.98,1.6-.9,1.6-2.98Z"/>
      <path class="cls-1" d="M290.34,9.32h-1.24V.04h1.24v9.28Z"/>
      <path class="cls-1" d="M295.33,2.98c1.03,0,1.68.48,2.05.95V.04h1.24v9.28h-1.24v-.76c-.36.48-1,.94-2.05.94-1.92,0-2.7-1.39-2.7-3.25s.78-3.27,2.7-3.27ZM297.39,7.93v-3.36c-1.44-2.12-3.38-1.29-3.38,1.69-.01,3,1.94,3.78,3.38,1.67Z"/>
      <path class="cls-1" d="M305.81,7.82c0,1.04-1.17,1.67-2.67,1.67-.91,0-2.21-.44-2.21-1.8h.5c0,1.07,1.02,1.37,1.74,1.39.86,0,1.52-.35,1.52-.94,0-.82-.67-.96-1.79-1.47-.71-.32-1.96-.86-1.96-2.05,0-.93.85-1.71,2.45-1.71.45,0,2,.13,2,1.53h-.43c0-.96-1.11-1.18-1.55-1.18-.76,0-1.34.3-1.34.98s.77.93,1.67,1.36c1.29.62,2.1,1.05,2.1,2.22Z"/>
      <path class="cls-1" d="M314.08,1.13c0,.43-.35.79-.77.79s-.78-.35-.78-.79.35-.8.78-.8.77.36.77.8ZM313.92,9.32h-1.24V2.97h1.24v6.35Z"/>
      <path class="cls-1" d="M321.68,5.05v4.27h-1.26v-4.2c0-1.2-.7-1.74-1.23-1.74-.75,0-1.26.41-1.58.81v5.12h-1.24V2.97h1.24v.67c.39-.37.91-.67,1.59-.67,1.77,0,2.47,1.07,2.47,2.08Z"/>
      <path class="cls-1" d="M329.76,5.93v.29c0,2.33,2.08,4.11,4.02,1.8l.21.2c-.08.17-.77,1.27-2.56,1.27-1.92,0-3.04-1.42-3.04-3.27s1.12-3.26,3.04-3.26c2.29,0,2.57,1.79,2.57,2.49v.48h-4.24ZM329.8,5.45h2.71c-.02-1.38-.25-2.04-1.07-2.04s-1.48.44-1.64,2.04Z"/>
      <path class="cls-1" d="M341.36,2.97l-2.82,6.53-2.99-6.53h1.38l2.01,4.48,1.9-4.48h.51Z"/>
      <path class="cls-1" d="M344.16,5.93v.29c0,2.33,2.08,4.11,4.02,1.8l.21.2c-.08.17-.77,1.27-2.56,1.27-1.92,0-3.04-1.42-3.04-3.27s1.12-3.26,3.04-3.26c2.29,0,2.57,1.79,2.57,2.49v.48h-4.24ZM344.19,5.45h2.71c-.02-1.38-.25-2.04-1.07-2.04s-1.48.44-1.64,2.04Z"/>
      <path class="cls-1" d="M354.15,2.98v.76c-.91,0-1.89-.14-2.21,1.78v3.8h-1.24V2.98h1.24v1.65c.36-1.36,1.12-1.65,2.21-1.65Z"/>
      <path class="cls-1" d="M362.35,2.98l-3.41,9.1h-.51l1.04-2.76-3.04-6.34h1.38l2.26,4.72,1.77-4.72h.5Z"/>
      <path class="cls-1" d="M371.76,2.98c1.03,0,1.68.48,2.05.95V.04h1.24v9.28h-1.24v-.76c-.36.48-1,.94-2.05.94-1.92,0-2.7-1.39-2.7-3.25s.78-3.27,2.7-3.27ZM373.81,7.93v-3.36c-1.44-2.12-3.38-1.29-3.38,1.69-.01,3,1.94,3.78,3.38,1.67Z"/>
      <path class="cls-1" d="M378.91,1.13c0,.43-.35.79-.77.79s-.78-.35-.78-.79.35-.8.78-.8.77.36.77.8ZM378.75,9.32h-1.24V2.97h1.24v6.35Z"/>
      <path class="cls-1" d="M384.66,2.98v.76c-.91,0-1.89-.14-2.21,1.78v3.8h-1.24V2.98h1.24v1.65c.36-1.36,1.12-1.65,2.21-1.65Z"/>
      <path class="cls-1" d="M387.46,5.93v.29c0,2.33,2.08,4.11,4.02,1.8l.21.2c-.08.17-.77,1.27-2.56,1.27-1.92,0-3.04-1.42-3.04-3.27s1.12-3.26,3.04-3.26c2.29,0,2.57,1.79,2.57,2.49v.48h-4.24ZM387.5,5.45h2.71c-.02-1.38-.25-2.04-1.07-2.04s-1.48.44-1.64,2.04Z"/>
      <path class="cls-1" d="M399.13,8.15c-.29.46-1.01,1.34-2.24,1.34-1.83,0-2.9-1.41-2.9-3.26s1.07-3.27,2.9-3.27c1.33,0,2,.88,2.25,1.32l-.31.27c-1.39-2.12-3.49-1.29-3.49,1.69-.01,2.99,2.08,3.78,3.47,1.7l.32.21Z"/>
      <path class="cls-1" d="M404.8,8.6c-.3.39-.75.9-1.77.9-1.14,0-1.19-.61-1.19-1.21V3.45h-1.02v-.48h1.02v-1.6h1.24v1.6h1.33v.48h-1.33v4.59c0,.37-.09.89.35,1,.26.08.8-.04,1.11-.61l.26.17Z"/>
      <path class="cls-1" d="M408.28,1.13c0,.43-.35.79-.77.79s-.78-.35-.78-.79.35-.8.78-.8.77.36.77.8ZM408.12,9.32h-1.24V2.97h1.24v6.35Z"/>
      <path class="cls-1" d="M416.51,6.23c0,2.27-1.33,3.27-2.96,3.27s-2.97-1-2.97-3.27,1.33-3.26,2.97-3.26,2.96,1.04,2.96,3.26ZM415.15,6.23c0-2.02-.52-2.98-1.6-2.98s-1.62.98-1.62,2.98.54,2.98,1.62,2.98,1.6-.9,1.6-2.98Z"/>
      <path class="cls-1" d="M424.11,5.05v4.27h-1.26v-4.2c0-1.2-.7-1.74-1.23-1.74-.75,0-1.26.41-1.58.81v5.12h-1.24V2.97h1.24v.67c.39-.37.91-.67,1.59-.67,1.77,0,2.47,1.07,2.47,2.08Z"/>
      <path class="cls-1" d="M427.02,8c.21,0,.39.06.52.21.15.14.22.32.22.53,0,.2-.07.38-.22.53-.14.15-.31.23-.52.23-.2,0-.37-.08-.52-.23-.15-.15-.21-.33-.21-.53,0-.22.06-.39.21-.53.14-.15.31-.21.52-.21Z"/>
      <path class="cls-1" d="M5.85,29.22H0v-9.28h1.24v8.71h4.6v.57Z"/>
      <path class="cls-1" d="M7.89,27.32v-4.45h1.26v4.37c0,1.21.7,1.56,1.23,1.56.75,0,1.26-.23,1.58-.63v-5.3h1.24v6.35h-1.24v-.49c-.39.37-.91.67-1.59.67-1.77,0-2.48-1.07-2.48-2.08Z"/>
      <path class="cls-1" d="M20.39,27.73c0,1.04-1.17,1.67-2.67,1.67-.91,0-2.21-.44-2.21-1.8h.5c0,1.07,1.02,1.37,1.74,1.39.86,0,1.52-.35,1.52-.94,0-.82-.67-.96-1.79-1.47-.71-.32-1.96-.86-1.96-2.05,0-.93.85-1.71,2.45-1.71.45,0,2,.13,2,1.53h-.43c0-.96-1.11-1.18-1.55-1.18-.76,0-1.34.3-1.34.98s.77.93,1.67,1.36c1.29.62,2.1,1.05,2.1,2.22Z"/>
      <path class="cls-1" d="M27.98,24.95v4.27h-1.24v-4.2c0-1.2-.7-1.74-1.24-1.74-.73,0-1.24.41-1.57.81v5.12h-1.24v-9.28h1.24v3.6c.37-.37.9-.67,1.58-.67,1.77,0,2.47,1.07,2.47,2.08Z"/>
      <path class="cls-1" d="M40.54,29.88c0,.91-.36,2.14-2.92,2.14-2.33,0-2.92-.84-2.92-1.64s.6-1.18,1.13-1.37c-.47,0-1.13-.44-1.13-1.29,0-1.1.86-1.43,1.12-1.5-.3-.33-.47-.77-.47-1.37,0-1.34,1.01-1.99,2.18-1.99.4,0,.78.08,1.12.23h1.72v.48h-1.08c.26.32.42.75.42,1.28,0,1.4-1.01,2-2.18,2-.56,0-1.12-.17-1.42-.39-.2.06-.87.17-.81.81.07.6,1.6.51,2.3.51,1.19,0,2.95-.15,2.95,2.09ZM40.11,30.11c0-.82-.72-1.09-1.87-1.09h-1.32c-.8,0-1.16.61-1.16,1.36,0,.65.54,1.33,1.84,1.33,2.15,0,2.5-.77,2.5-1.6ZM36.51,24.86c0,1.28.24,1.67,1.01,1.67s.95-.39.95-1.67-.17-1.7-.95-1.7-1.01.48-1.01,1.7Z"/>
      <path class="cls-1" d="M46.29,22.88v.76c-.91,0-1.89-.14-2.21,1.78v3.8h-1.24v-6.34h1.24v1.65c.36-1.36,1.12-1.65,2.21-1.65Z"/>
      <path class="cls-1" d="M49.08,25.84v.29c0,2.33,2.08,4.11,4.02,1.8l.21.2c-.08.17-.77,1.27-2.56,1.27-1.92,0-3.04-1.42-3.04-3.27s1.12-3.26,3.04-3.26c2.29,0,2.57,1.79,2.57,2.49v.48h-4.24ZM49.12,25.36h2.71c-.02-1.38-.25-2.04-1.07-2.04s-1.48.44-1.64,2.04Z"/>
      <path class="cls-1" d="M56.99,25.84v.29c0,2.33,2.08,4.11,4.02,1.8l.21.2c-.08.17-.77,1.27-2.56,1.27-1.92,0-3.04-1.42-3.04-3.27s1.12-3.26,3.04-3.26c2.29,0,2.57,1.79,2.57,2.49v.48h-4.24ZM57.03,25.36h2.71c-.02-1.38-.25-2.04-1.07-2.04s-1.48.44-1.64,2.04Z"/>
      <path class="cls-1" d="M68.84,24.95v4.27h-1.26v-4.2c0-1.2-.7-1.74-1.23-1.74-.75,0-1.26.41-1.58.81v5.12h-1.24v-6.35h1.24v.67c.39-.37.91-.67,1.59-.67,1.77,0,2.47,1.07,2.47,2.08Z"/>
      <path class="cls-1" d="M72.5,25.84v.29c0,2.33,2.08,4.11,4.02,1.8l.21.2c-.08.17-.77,1.27-2.56,1.27-1.92,0-3.04-1.42-3.04-3.27s1.12-3.26,3.04-3.26c2.29,0,2.57,1.79,2.57,2.49v.48h-4.24ZM72.54,25.36h2.71c-.02-1.38-.25-2.04-1.07-2.04s-1.48.44-1.64,2.04Z"/>
      <path class="cls-1" d="M82.5,22.88v.76c-.91,0-1.89-.14-2.21,1.78v3.8h-1.24v-6.34h1.24v1.65c.36-1.36,1.12-1.65,2.21-1.65Z"/>
      <path class="cls-1" d="M90.7,22.88l-3.41,9.1h-.51l1.04-2.76-3.04-6.34h1.38l2.26,4.72,1.77-4.72h.5Z"/>
      <path class="cls-1" d="M102.58,24.75v4.48h-1.26v-.94c-.66,1.04-3.92,2.16-3.92-.67,0-2.21,2.25-1.98,3.92-2.61v-.62c0-.79-.32-1.17-1.14-1.17-.42,0-1.33-.04-1.95.89l-.35-.1c.55-1.01,1.52-1.18,2.28-1.18,1.79,0,2.42.75,2.42,1.93ZM101.33,27.94v-2.57c-1.26.41-2.56.41-2.56,2.13s1.44,1.78,2.56.44Z"/>
      <path class="cls-1" d="M110.19,24.95v4.27h-1.26v-4.2c0-1.2-.7-1.74-1.23-1.74-.75,0-1.26.41-1.58.81v5.12h-1.24v-6.35h1.24v.67c.39-.37.91-.67,1.59-.67,1.77,0,2.47,1.07,2.47,2.08Z"/>
      <path class="cls-1" d="M115.18,22.88c1.03,0,1.68.48,2.05.95v-3.89h1.24v9.28h-1.24v-.76c-.36.48-1,.94-2.05.94-1.92,0-2.7-1.4-2.7-3.25s.78-3.27,2.7-3.27ZM117.24,27.83v-3.36c-1.44-2.12-3.38-1.29-3.38,1.69-.01,3,1.94,3.78,3.38,1.67Z"/>
      <path class="cls-1" d="M130.08,27.73c0,1.04-1.17,1.67-2.67,1.67-.91,0-2.21-.44-2.21-1.8h.5c0,1.07,1.02,1.37,1.74,1.39.86,0,1.52-.35,1.52-.94,0-.82-.67-.96-1.79-1.47-.71-.32-1.96-.86-1.96-2.05,0-.93.85-1.71,2.45-1.71.45,0,2,.13,2,1.53h-.43c0-.96-1.11-1.18-1.55-1.18-.76,0-1.34.3-1.34.98s.77.93,1.67,1.36c1.29.62,2.1,1.05,2.1,2.22Z"/>
      <path class="cls-1" d="M133.49,25.84v.29c0,2.33,2.08,4.11,4.02,1.8l.21.2c-.08.17-.77,1.27-2.56,1.27-1.92,0-3.04-1.42-3.04-3.27s1.12-3.26,3.04-3.26c2.29,0,2.57,1.79,2.57,2.49v.48h-4.24ZM133.53,25.36h2.71c-.02-1.38-.25-2.04-1.07-2.04s-1.48.44-1.64,2.04Z"/>
      <path class="cls-1" d="M143.49,22.88v.76c-.91,0-1.89-.14-2.21,1.78v3.8h-1.24v-6.34h1.24v1.65c.36-1.36,1.12-1.65,2.21-1.65Z"/>
      <path class="cls-1" d="M146.28,25.84v.29c0,2.33,2.08,4.11,4.02,1.8l.21.2c-.08.17-.77,1.27-2.56,1.27-1.92,0-3.04-1.42-3.04-3.27s1.12-3.26,3.04-3.26c2.29,0,2.57,1.79,2.57,2.49v.48h-4.24ZM146.32,25.36h2.71c-.02-1.38-.25-2.04-1.07-2.04s-1.48.44-1.64,2.04Z"/>
      <path class="cls-1" d="M158.13,24.95v4.27h-1.26v-4.2c0-1.2-.7-1.74-1.23-1.74-.75,0-1.26.41-1.58.81v5.12h-1.24v-6.35h1.24v.67c.39-.37.91-.67,1.59-.67,1.77,0,2.47,1.07,2.47,2.08Z"/>
      <path class="cls-1" d="M161.79,25.84v.29c0,2.33,2.08,4.11,4.02,1.8l.21.2c-.08.17-.77,1.27-2.56,1.27-1.92,0-3.04-1.42-3.04-3.27s1.12-3.26,3.04-3.26c2.29,0,2.57,1.79,2.57,2.49v.48h-4.24ZM161.83,25.36h2.71c-.02-1.38-.25-2.04-1.07-2.04s-1.48.44-1.64,2.04Z"/>
      <path class="cls-1" d="M176.2,22.88v.76c-.91,0-1.89-.14-2.21,1.78v3.8h-1.24v-6.34h1.24v1.65c.36-1.36,1.12-1.65,2.21-1.65Z"/>
      <path class="cls-1" d="M180.05,21.03c0,.43-.35.79-.77.79s-.78-.35-.78-.79.35-.8.78-.8.77.36.77.8ZM179.89,29.22h-1.24v-6.35h1.24v6.35Z"/>
      <path class="cls-1" d="M188.16,22.87l-2.82,6.53-2.99-6.53h1.38l2.01,4.48,1.9-4.48h.51Z"/>
      <path class="cls-1" d="M190.95,25.84v.29c0,2.33,2.08,4.11,4.02,1.8l.21.2c-.08.17-.77,1.27-2.56,1.27-1.92,0-3.04-1.42-3.04-3.27s1.12-3.26,3.04-3.26c2.29,0,2.57,1.79,2.57,2.49v.48h-4.24ZM190.99,25.36h2.71c-.02-1.38-.25-2.04-1.07-2.04s-1.48.44-1.64,2.04Z"/>
      <path class="cls-1" d="M200.95,22.88v.76c-.91,0-1.89-.14-2.21,1.78v3.8h-1.24v-6.34h1.24v1.65c.36-1.36,1.12-1.65,2.21-1.65Z"/>
      <path class="cls-1" d="M207.88,27.73c0,1.04-1.17,1.67-2.67,1.67-.91,0-2.21-.44-2.21-1.8h.5c0,1.07,1.02,1.37,1.74,1.39.86,0,1.52-.35,1.52-.94,0-.82-.67-.96-1.79-1.47-.71-.32-1.96-.86-1.96-2.05,0-.93.85-1.71,2.45-1.71.45,0,2,.13,2,1.53h-.43c0-.96-1.11-1.18-1.55-1.18-.76,0-1.34.3-1.34.98s.77.93,1.67,1.36c1.29.62,2.1,1.05,2.1,2.22Z"/>
      <path class="cls-1" d="M215.07,28.06c-.29.46-1.01,1.34-2.24,1.34-1.83,0-2.9-1.41-2.9-3.26s1.07-3.27,2.9-3.27c1.33,0,2,.88,2.25,1.32l-.31.27c-1.39-2.12-3.49-1.29-3.49,1.69-.01,2.99,2.08,3.78,3.47,1.7l.32.21Z"/>
      <path class="cls-1" d="M222.05,24.75v4.48h-1.26v-.94c-.66,1.04-3.92,2.16-3.92-.67,0-2.21,2.25-1.98,3.92-2.61v-.62c0-.79-.32-1.17-1.14-1.17-.42,0-1.33-.04-1.95.89l-.35-.1c.55-1.01,1.52-1.18,2.28-1.18,1.79,0,2.42.75,2.42,1.93ZM220.8,27.94v-2.57c-1.26.41-2.56.41-2.56,2.13s1.44,1.78,2.56.44Z"/>
      <path class="cls-1" d="M227.64,29.4c-1.03,0-1.68-.48-2.05-.95v3.53h-1.24v-9.09h1.24v.94c.36-.48,1-.94,2.05-.94,1.92,0,2.7,1.39,2.7,3.25s-.78,3.27-2.7,3.27ZM225.59,24.47v3.35c1.44,2.12,3.38,1.29,3.38-1.69.01-3-1.94-3.78-3.38-1.66Z"/>
      <path class="cls-1" d="M233.76,25.84v.29c0,2.33,2.08,4.11,4.02,1.8l.21.2c-.08.17-.77,1.27-2.56,1.27-1.92,0-3.04-1.42-3.04-3.27s1.12-3.26,3.04-3.26c2.29,0,2.57,1.79,2.57,2.49v.48h-4.24ZM233.79,25.36h2.71c-.02-1.38-.25-2.04-1.07-2.04s-1.48.44-1.64,2.04Z"/>
      <path class="cls-1" d="M245.18,27.73c0,1.04-1.17,1.67-2.67,1.67-.91,0-2.21-.44-2.21-1.8h.5c0,1.07,1.02,1.37,1.74,1.39.86,0,1.52-.35,1.52-.94,0-.82-.67-.96-1.79-1.47-.71-.32-1.96-.86-1.96-2.05,0-.93.85-1.71,2.45-1.71.45,0,2,.13,2,1.53h-.43c0-.96-1.11-1.18-1.55-1.18-.76,0-1.34.3-1.34.98s.77.93,1.67,1.36c1.29.62,2.1,1.05,2.1,2.22Z"/>
      <path class="cls-1" d="M253.45,21.03c0,.43-.35.79-.77.79s-.78-.35-.78-.79.35-.8.78-.8.77.36.77.8ZM253.29,29.22h-1.24v-6.35h1.24v6.35Z"/>
      <path class="cls-1" d="M261.05,24.95v4.27h-1.26v-4.2c0-1.2-.7-1.74-1.23-1.74-.75,0-1.26.41-1.58.81v5.12h-1.24v-6.35h1.24v.67c.39-.37.91-.67,1.59-.67,1.77,0,2.47,1.07,2.47,2.08Z"/>
      <path class="cls-1" d="M268.54,22.87l-2.82,6.53-2.99-6.53h1.38l2.01,4.48,1.9-4.48h.51Z"/>
      <path class="cls-1" d="M272.39,21.03c0,.43-.35.79-.77.79s-.78-.35-.78-.79.35-.8.78-.8.77.36.77.8ZM272.23,29.22h-1.24v-6.35h1.24v6.35Z"/>
      <path class="cls-1" d="M278.67,28.5c-.3.39-.75.9-1.77.9-1.14,0-1.19-.61-1.19-1.21v-4.84h-1.02v-.48h1.02v-1.6h1.24v1.6h1.33v.48h-1.33v4.59c0,.37-.09.89.35,1,.26.08.8-.04,1.11-.61l.26.17Z"/>
      <path class="cls-1" d="M281.59,25.84v.29c0,2.33,2.08,4.11,4.02,1.8l.21.2c-.08.17-.77,1.27-2.56,1.27-1.92,0-3.04-1.42-3.04-3.27s1.12-3.26,3.04-3.26c2.29,0,2.57,1.79,2.57,2.49v.48h-4.24ZM281.62,25.36h2.71c-.02-1.38-.25-2.04-1.07-2.04s-1.48.44-1.64,2.04Z"/>
      <path class="cls-1" d="M298.44,22.88l-3.41,9.1h-.51l1.04-2.76-3.04-6.34h1.38l2.26,4.72,1.77-4.72h.5Z"/>
      <path class="cls-1" d="M305.92,26.13c0,2.27-1.33,3.27-2.96,3.27s-2.97-1-2.97-3.27,1.33-3.26,2.97-3.26,2.96,1.04,2.96,3.26ZM304.57,26.13c0-2.02-.52-2.98-1.6-2.98s-1.62.98-1.62,2.98.54,2.98,1.62,2.98,1.6-.9,1.6-2.98Z"/>
      <path class="cls-1" d="M308.1,27.32v-4.45h1.26v4.37c0,1.21.7,1.56,1.23,1.56.75,0,1.26-.23,1.58-.63v-5.3h1.24v6.35h-1.24v-.49c-.39.37-.91.67-1.59.67-1.77,0-2.48-1.07-2.48-2.08Z"/>
      <path class="cls-1" d="M324.09,28.5c-.3.39-.75.9-1.77.9-1.14,0-1.19-.61-1.19-1.21v-4.84h-1.02v-.48h1.02v-1.6h1.24v1.6h1.33v.48h-1.33v4.59c0,.37-.09.89.35,1,.26.08.8-.04,1.11-.61l.26.17Z"/>
      <path class="cls-1" d="M331.58,26.13c0,2.27-1.33,3.27-2.96,3.27s-2.97-1-2.97-3.27,1.33-3.26,2.97-3.26,2.96,1.04,2.96,3.26ZM330.22,26.13c0-2.02-.52-2.98-1.6-2.98s-1.62.98-1.62,2.98.54,2.98,1.62,2.98,1.6-.9,1.6-2.98Z"/>
      <path class="cls-1" d="M343.17,27.73c0,1.04-1.17,1.67-2.67,1.67-.91,0-2.21-.44-2.21-1.8h.5c0,1.07,1.02,1.37,1.74,1.39.86,0,1.52-.35,1.52-.94,0-.82-.67-.96-1.79-1.47-.71-.32-1.96-.86-1.96-2.05,0-.93.85-1.71,2.45-1.71.45,0,2,.13,2,1.53h-.43c0-.96-1.11-1.18-1.55-1.18-.76,0-1.34.3-1.34.98s.77.93,1.67,1.36c1.29.62,2.1,1.05,2.1,2.22Z"/>
      <path class="cls-1" d="M346.72,29.22h-1.24v-9.28h1.24v9.28Z"/>
      <path class="cls-1" d="M354.95,26.13c0,2.27-1.33,3.27-2.96,3.27s-2.97-1-2.97-3.27,1.33-3.26,2.97-3.26,2.96,1.04,2.96,3.26ZM353.59,26.13c0-2.02-.52-2.98-1.6-2.98s-1.62.98-1.62,2.98.54,2.98,1.62,2.98,1.6-.9,1.6-2.98Z"/>
      <path class="cls-1" d="M364.75,22.87l-2.19,6.53-2-5.63-1.88,5.63-2.31-6.53h1.32l1.38,3.88,1.31-3.88h1.18l1.39,3.88,1.31-3.88h.5Z"/>
      <path class="cls-1" d="M374.16,22.88c1.03,0,1.68.48,2.05.95v-3.89h1.24v9.28h-1.24v-.76c-.36.48-1,.94-2.05.94-1.92,0-2.7-1.4-2.7-3.25s.78-3.27,2.7-3.27ZM376.21,27.83v-3.36c-1.44-2.12-3.38-1.29-3.38,1.69-.01,3,1.94,3.78,3.38,1.67Z"/>
      <path class="cls-1" d="M385.56,26.13c0,2.27-1.33,3.27-2.96,3.27s-2.97-1-2.97-3.27,1.33-3.26,2.97-3.26,2.96,1.04,2.96,3.26ZM384.2,26.13c0-2.02-.52-2.98-1.6-2.98s-1.62.98-1.62,2.98.54,2.98,1.62,2.98,1.6-.9,1.6-2.98Z"/>
      <path class="cls-1" d="M395.37,22.87l-2.19,6.53-2-5.63-1.88,5.63-2.31-6.53h1.32l1.38,3.88,1.31-3.88h1.18l1.39,3.88,1.31-3.88h.5Z"/>
      <path class="cls-1" d="M402.97,24.95v4.27h-1.26v-4.2c0-1.2-.7-1.74-1.23-1.74-.75,0-1.26.41-1.58.81v5.12h-1.24v-6.35h1.24v.67c.39-.37.91-.67,1.59-.67,1.77,0,2.47,1.07,2.47,2.08Z"/>
      <path class="cls-1" d="M405.14,28.44c0-.48.41-.84.88-.84.4,0,.63.17.81.42.19.29.24.66.24.86,0,.86-.45,1.6-1.42,2.04l-.12-.24c.56-.23,1.04-.77,1.04-1.29,0-.13-.12-.22-.24-.17-.1.04-.2.06-.31.06-.47,0-.88-.32-.88-.85Z"/>
      <path class="cls-1" d="M419.64,26.16c0,1.85-.78,3.25-2.7,3.25-1.06,0-1.69-.46-2.04-.94v.76h-1.24v-9.28h1.24v3.89c.36-.47,1.01-.95,2.04-.95,1.92,0,2.7,1.42,2.7,3.27ZM418.27,26.16c0-2.98-1.93-3.8-3.37-1.69v3.36c1.44,2.1,3.38,1.33,3.37-1.67Z"/>
      <path class="cls-1" d="M425.39,22.88v.76c-.91,0-1.89-.14-2.21,1.78v3.8h-1.24v-6.34h1.24v1.65c.36-1.36,1.12-1.65,2.21-1.65Z"/>
      <path class="cls-1" d="M428.19,25.84v.29c0,2.33,2.08,4.11,4.02,1.8l.21.2c-.08.17-.77,1.27-2.56,1.27-1.92,0-3.04-1.42-3.04-3.27s1.12-3.26,3.04-3.26c2.29,0,2.57,1.79,2.57,2.49v.48h-4.24ZM428.23,25.36h2.71c-.02-1.38-.25-2.04-1.07-2.04s-1.48.44-1.64,2.04Z"/>
      <path class="cls-1" d="M439.9,24.75v4.48h-1.26v-.94c-.66,1.04-3.92,2.16-3.92-.67,0-2.21,2.25-1.98,3.92-2.61v-.62c0-.79-.32-1.17-1.14-1.17-.42,0-1.33-.04-1.95.89l-.35-.1c.55-1.01,1.52-1.18,2.28-1.18,1.79,0,2.42.75,2.42,1.93ZM438.64,27.94v-2.57c-1.26.41-2.56.41-2.56,2.13s1.44,1.78,2.56.44Z"/>
      <path class="cls-1" d="M445.8,28.5c-.3.39-.75.9-1.77.9-1.14,0-1.19-.61-1.19-1.21v-4.84h-1.02v-.48h1.02v-1.6h1.24v1.6h1.33v.48h-1.33v4.59c0,.37-.09.89.35,1,.26.08.8-.04,1.11-.61l.26.17Z"/>
      <path class="cls-1" d="M453.4,24.95v4.27h-1.24v-4.2c0-1.2-.7-1.74-1.24-1.74-.73,0-1.24.41-1.57.81v5.12h-1.24v-9.28h1.24v3.6c.37-.37.9-.67,1.58-.67,1.77,0,2.47,1.07,2.47,2.08Z"/>
      <path class="cls-1" d="M457.06,25.84v.29c0,2.33,2.08,4.11,4.02,1.8l.21.2c-.08.17-.77,1.27-2.56,1.27-1.92,0-3.04-1.42-3.04-3.27s1.12-3.26,3.04-3.26c2.29,0,2.57,1.79,2.57,2.49v.48h-4.24ZM457.1,25.36h2.71c-.02-1.38-.25-2.04-1.07-2.04s-1.48.44-1.64,2.04Z"/>
      <path class="cls-1" d="M470.71,22.88c1.03,0,1.68.48,2.05.95v-3.89h1.24v9.28h-1.24v-.76c-.36.48-1,.94-2.05.94-1.92,0-2.7-1.4-2.7-3.25s.78-3.27,2.7-3.27ZM472.76,27.83v-3.36c-1.44-2.12-3.38-1.29-3.38,1.69-.01,3,1.94,3.78,3.38,1.67Z"/>
      <path class="cls-1" d="M477.55,25.84v.29c0,2.33,2.08,4.11,4.02,1.8l.21.2c-.08.17-.77,1.27-2.56,1.27-1.92,0-3.04-1.42-3.04-3.27s1.12-3.26,3.04-3.26c2.29,0,2.57,1.79,2.57,2.49v.48h-4.24ZM477.58,25.36h2.71c-.02-1.38-.25-2.04-1.07-2.04s-1.48.44-1.64,2.04Z"/>
      <path class="cls-1" d="M485.45,25.84v.29c0,2.33,2.08,4.11,4.02,1.8l.21.2c-.08.17-.77,1.27-2.56,1.27-1.92,0-3.04-1.42-3.04-3.27s1.12-3.26,3.04-3.26c2.29,0,2.57,1.79,2.57,2.49v.48h-4.24ZM485.49,25.36h2.71c-.02-1.38-.25-2.04-1.07-2.04s-1.48.44-1.64,2.04Z"/>
      <path class="cls-1" d="M495.28,29.4c-1.03,0-1.68-.48-2.05-.95v3.53h-1.24v-9.09h1.24v.94c.36-.48,1-.94,2.05-.94,1.92,0,2.7,1.39,2.7,3.25s-.78,3.27-2.7,3.27ZM493.23,24.47v3.35c1.44,2.12,3.38,1.29,3.38-1.69.01-3-1.94-3.78-3.38-1.66Z"/>
      <path class="cls-1" d="M500.15,28.44c0-.48.41-.84.88-.84.4,0,.63.17.81.42.19.29.24.66.24.86,0,.86-.45,1.6-1.42,2.04l-.12-.24c.56-.23,1.04-.77,1.04-1.29,0-.13-.12-.22-.24-.17-.1.04-.2.06-.31.06-.47,0-.88-.32-.88-.85Z"/>
      <path class="cls-1" d="M513.84,24.75v4.48h-1.26v-.94c-.66,1.04-3.92,2.16-3.92-.67,0-2.21,2.25-1.98,3.92-2.61v-.62c0-.79-.32-1.17-1.14-1.17-.42,0-1.33-.04-1.95.89l-.35-.1c.55-1.01,1.52-1.18,2.28-1.18,1.79,0,2.42.75,2.42,1.93ZM512.59,27.94v-2.57c-1.26.41-2.56.41-2.56,2.13s1.44,1.78,2.56.44Z"/>
      <path class="cls-1" d="M521.45,24.95v4.27h-1.26v-4.2c0-1.2-.7-1.74-1.23-1.74-.75,0-1.26.41-1.58.81v5.12h-1.24v-6.35h1.24v.67c.39-.37.91-.67,1.59-.67,1.77,0,2.47,1.07,2.47,2.08Z"/>
      <path class="cls-1" d="M526.44,22.88c1.03,0,1.68.48,2.05.95v-3.89h1.24v9.28h-1.24v-.76c-.36.48-1,.94-2.05.94-1.92,0-2.7-1.4-2.7-3.25s.78-3.27,2.7-3.27ZM528.5,27.83v-3.36c-1.44-2.12-3.38-1.29-3.38,1.69-.01,3,1.94,3.78,3.38,1.67Z"/>
      <path class="cls-1" d="M541.33,27.73c0,1.04-1.17,1.67-2.67,1.67-.91,0-2.21-.44-2.21-1.8h.5c0,1.07,1.02,1.37,1.74,1.39.86,0,1.52-.35,1.52-.94,0-.82-.67-.96-1.79-1.47-.71-.32-1.96-.86-1.96-2.05,0-.93.85-1.71,2.45-1.71.45,0,2,.13,2,1.53h-.43c0-.96-1.11-1.18-1.55-1.18-.76,0-1.34.3-1.34.98s.77.93,1.67,1.36c1.29.62,2.1,1.05,2.1,2.22Z"/>
      <path class="cls-1" d="M545.19,21.03c0,.43-.35.79-.77.79s-.78-.35-.78-.79.35-.8.78-.8.77.36.77.8ZM545.03,29.22h-1.24v-6.35h1.24v6.35Z"/>
      <path class="cls-1" d="M556.84,24.95v4.27h-1.26v-4.2c0-1.2-.7-1.74-1.23-1.74-.77,0-1.23.36-1.55.82v5.11h-1.26v-4.2c0-1.2-.7-1.74-1.23-1.74-.75,0-1.26.41-1.58.81v5.12h-1.24v-6.35h1.24v.67c.39-.37.91-.67,1.59-.67,1.12,0,1.82.37,2.18.93.45-.53,1.07-.93,1.87-.93,1.77,0,2.48,1.07,2.48,2.08Z"/>
      <path class="cls-1" d="M562.43,29.4c-1.03,0-1.68-.48-2.05-.95v3.53h-1.24v-9.09h1.24v.94c.36-.48,1-.94,2.05-.94,1.92,0,2.7,1.39,2.7,3.25s-.78,3.27-2.7,3.27ZM560.38,24.47v3.35c1.44,2.12,3.38,1.29,3.38-1.69.01-3-1.94-3.78-3.38-1.66Z"/>
      <path class="cls-1" d="M568.67,29.22h-1.24v-9.28h1.24v9.28Z"/>
      <path class="cls-1" d="M576.87,22.88l-3.41,9.1h-.51l1.04-2.76-3.04-6.34h1.38l2.26,4.72,1.77-4.72h.5Z"/>
      <path class="cls-1" d="M589.56,26.16c0,1.85-.78,3.25-2.7,3.25-1.06,0-1.69-.46-2.04-.94v.76h-1.24v-9.28h1.24v3.89c.36-.47,1.01-.95,2.04-.95,1.92,0,2.7,1.42,2.7,3.27ZM588.19,26.16c0-2.98-1.93-3.8-3.37-1.69v3.36c1.44,2.1,3.38,1.33,3.37-1.67Z"/>
      <path class="cls-1" d="M592.98,25.84v.29c0,2.33,2.08,4.11,4.02,1.8l.21.2c-.08.17-.77,1.27-2.56,1.27-1.92,0-3.04-1.42-3.04-3.27s1.12-3.26,3.04-3.26c2.29,0,2.57,1.79,2.57,2.49v.48h-4.24ZM593.01,25.36h2.71c-.02-1.38-.25-2.04-1.07-2.04s-1.48.44-1.64,2.04Z"/>
      <path class="cls-1" d="M600.12,27.91c.21,0,.39.06.52.21.15.14.22.32.22.53,0,.2-.07.38-.22.53-.14.15-.31.23-.52.23-.2,0-.37-.08-.52-.23-.15-.15-.21-.33-.21-.53,0-.22.06-.39.21-.53.14-.15.31-.21.52-.21Z"/>
      <path class="cls-1" d="M11.23,39.84l-3.5,9.47-2.19-6.45-2.16,6.45-3.38-9.47h1.33l2.39,6.71,2.25-6.71,2.24,6.61,2.42-6.61h.6Z"/>
      <path class="cls-1" d="M16.83,44.65v4.48h-1.26v-.94c-.66,1.04-3.92,2.16-3.92-.67,0-2.21,2.25-1.98,3.92-2.61v-.62c0-.79-.32-1.17-1.14-1.17-.42,0-1.33-.04-1.95.89l-.35-.1c.55-1.01,1.52-1.18,2.28-1.18,1.79,0,2.42.75,2.42,1.93ZM15.58,47.85v-2.57c-1.26.41-2.56.41-2.56,2.13s1.44,1.78,2.56.44Z"/>
      <path class="cls-1" d="M24.44,44.85v4.27h-1.26v-4.2c0-1.2-.7-1.74-1.23-1.74-.75,0-1.26.41-1.58.81v5.12h-1.24v-6.35h1.24v.67c.39-.37.91-.67,1.59-.67,1.77,0,2.47,1.07,2.47,2.08Z"/>
      <path class="cls-1" d="M29.43,42.79c1.03,0,1.68.48,2.05.95v-3.89h1.24v9.28h-1.24v-.76c-.36.48-1,.94-2.05.94-1.92,0-2.7-1.39-2.7-3.25s.78-3.27,2.7-3.27ZM31.49,47.73v-3.36c-1.44-2.12-3.38-1.29-3.38,1.69-.01,3,1.94,3.78,3.38,1.67Z"/>
      <path class="cls-1" d="M36.27,45.74v.29c0,2.33,2.08,4.11,4.02,1.8l.21.2c-.08.17-.77,1.27-2.56,1.27-1.92,0-3.04-1.42-3.04-3.27s1.12-3.26,3.04-3.26c2.29,0,2.57,1.79,2.57,2.49v.48h-4.24ZM36.31,45.26h2.71c-.02-1.38-.25-2.04-1.07-2.04s-1.48.44-1.64,2.04Z"/>
      <path class="cls-1" d="M46.26,42.79v.76c-.91,0-1.89-.14-2.21,1.78v3.8h-1.24v-6.34h1.24v1.65c.36-1.36,1.12-1.65,2.21-1.65Z"/>
      <path class="cls-1" d="M55.4,41.41v1.37h1.22v.48h-1.22v5.87h-1.24v-5.87h-1.18v-.48h1.18v-1c0-1.05.52-1.97,2.1-1.97.42,0,.77.09,1.07.22-.07.09-.15.18-.21.27-.21-.09-.46-.14-.75-.14-.82,0-.97.39-.97,1.26Z"/>
      <path class="cls-1" d="M62.46,42.79v.76c-.91,0-1.89-.14-2.21,1.78v3.8h-1.24v-6.34h1.24v1.65c.36-1.36,1.12-1.65,2.21-1.65Z"/>
      <path class="cls-1" d="M65.25,45.74v.29c0,2.33,2.08,4.11,4.02,1.8l.21.2c-.08.17-.77,1.27-2.56,1.27-1.92,0-3.04-1.42-3.04-3.27s1.12-3.26,3.04-3.26c2.29,0,2.57,1.79,2.57,2.49v.48h-4.24ZM65.29,45.26h2.71c-.02-1.38-.25-2.04-1.07-2.04s-1.48.44-1.64,2.04Z"/>
      <path class="cls-1" d="M73.16,45.74v.29c0,2.33,2.08,4.11,4.02,1.8l.21.2c-.08.17-.77,1.27-2.56,1.27-1.92,0-3.04-1.42-3.04-3.27s1.12-3.26,3.04-3.26c2.29,0,2.57,1.79,2.57,2.49v.48h-4.24ZM73.2,45.26h2.71c-.02-1.38-.25-2.04-1.07-2.04s-1.48.44-1.64,2.04Z"/>
      <path class="cls-1" d="M80.94,49.13h-1.24v-9.28h1.24v9.28Z"/>
      <path class="cls-1" d="M89.15,42.79l-3.41,9.1h-.51l1.04-2.76-3.04-6.34h1.38l2.26,4.72,1.77-4.72h.5Z"/>
      <path class="cls-1" d="M90.57,48.34c0-.48.41-.84.88-.84.4,0,.63.17.81.42.19.29.24.66.24.86,0,.86-.45,1.6-1.42,2.04l-.12-.24c.56-.23,1.04-.77,1.04-1.29,0-.13-.12-.22-.24-.17-.1.04-.2.06-.31.06-.47,0-.88-.32-.88-.85Z"/>
      <path class="cls-1" d="M102.54,42.79v.76c-.91,0-1.89-.14-2.21,1.78v3.8h-1.24v-6.34h1.24v1.65c.36-1.36,1.12-1.65,2.21-1.65Z"/>
      <path class="cls-1" d="M105.34,45.74v.29c0,2.33,2.08,4.11,4.02,1.8l.21.2c-.08.17-.77,1.27-2.56,1.27-1.92,0-3.04-1.42-3.04-3.27s1.12-3.26,3.04-3.26c2.29,0,2.57,1.79,2.57,2.49v.48h-4.24ZM105.38,45.26h2.71c-.02-1.38-.25-2.04-1.07-2.04s-1.48.44-1.64,2.04Z"/>
      <path class="cls-1" d="M116.76,47.63c0,1.04-1.17,1.67-2.67,1.67-.91,0-2.21-.44-2.21-1.8h.5c0,1.07,1.02,1.37,1.74,1.39.86,0,1.52-.35,1.52-.94,0-.82-.67-.96-1.79-1.47-.71-.32-1.96-.86-1.96-2.05,0-.93.85-1.71,2.45-1.71.45,0,2,.13,2,1.53h-.43c0-.96-1.11-1.18-1.55-1.18-.76,0-1.34.3-1.34.98s.77.93,1.67,1.36c1.29.62,2.1,1.05,2.1,2.22Z"/>
      <path class="cls-1" d="M122.54,48.4c-.3.39-.75.9-1.77.9-1.14,0-1.19-.61-1.19-1.21v-4.84h-1.02v-.48h1.02v-1.6h1.24v1.6h1.33v.48h-1.33v4.59c0,.37-.09.89.35,1,.26.08.8-.04,1.11-.61l.26.17Z"/>
      <path class="cls-1" d="M130.62,45.74v.29c0,2.33,2.08,4.11,4.02,1.8l.21.2c-.08.17-.77,1.27-2.56,1.27-1.92,0-3.04-1.42-3.04-3.27s1.12-3.26,3.04-3.26c2.29,0,2.57,1.79,2.57,2.49v.48h-4.24ZM130.66,45.26h2.71c-.02-1.38-.25-2.04-1.07-2.04s-1.48.44-1.64,2.04Z"/>
      <path class="cls-1" d="M142.33,44.65v4.48h-1.26v-.94c-.66,1.04-3.92,2.16-3.92-.67,0-2.21,2.25-1.98,3.92-2.61v-.62c0-.79-.32-1.17-1.14-1.17-.42,0-1.33-.04-1.95.89l-.35-.1c.55-1.01,1.52-1.18,2.28-1.18,1.79,0,2.42.75,2.42,1.93ZM141.08,47.85v-2.57c-1.26.41-2.56.41-2.56,2.13s1.44,1.78,2.56.44Z"/>
      <path class="cls-1" d="M149.51,47.63c0,1.04-1.17,1.67-2.67,1.67-.91,0-2.21-.44-2.21-1.8h.5c0,1.07,1.02,1.37,1.74,1.39.86,0,1.52-.35,1.52-.94,0-.82-.67-.96-1.79-1.47-.71-.32-1.96-.86-1.96-2.05,0-.93.85-1.71,2.45-1.71.45,0,2,.13,2,1.53h-.43c0-.96-1.11-1.18-1.55-1.18-.76,0-1.34.3-1.34.98s.77.93,1.67,1.36c1.29.62,2.1,1.05,2.1,2.22Z"/>
      <path class="cls-1" d="M153.37,40.94c0,.43-.35.79-.77.79s-.78-.35-.78-.79.35-.8.78-.8.77.36.77.8ZM153.2,49.13h-1.24v-6.35h1.24v6.35Z"/>
      <path class="cls-1" d="M156.91,49.13h-1.24v-9.28h1.24v9.28Z"/>
      <path class="cls-1" d="M165.11,42.79l-3.41,9.1h-.51l1.04-2.76-3.04-6.34h1.38l2.26,4.72,1.77-4.72h.5Z"/>
      <path class="cls-1" d="M171.95,46.2v-.38h15.42v.38h-15.42Z"/>
      <path class="cls-1" d="M199.52,44.85v4.27h-1.24v-4.2c0-1.2-.7-1.74-1.24-1.74-.73,0-1.24.41-1.57.81v5.12h-1.24v-9.28h1.24v3.6c.37-.37.9-.67,1.58-.67,1.77,0,2.47,1.07,2.47,2.08Z"/>
      <path class="cls-1" d="M203.18,45.74v.29c0,2.33,2.08,4.11,4.02,1.8l.21.2c-.08.17-.77,1.27-2.56,1.27-1.92,0-3.04-1.42-3.04-3.27s1.12-3.26,3.04-3.26c2.29,0,2.57,1.79,2.57,2.49v.48h-4.24ZM203.22,45.26h2.71c-.02-1.38-.25-2.04-1.07-2.04s-1.48.44-1.64,2.04Z"/>
      <path class="cls-1" d="M213.18,42.79v.76c-.91,0-1.89-.14-2.21,1.78v3.8h-1.24v-6.34h1.24v1.65c.36-1.36,1.12-1.65,2.21-1.65Z"/>
      <path class="cls-1" d="M215.97,45.74v.29c0,2.33,2.08,4.11,4.02,1.8l.21.2c-.08.17-.77,1.27-2.56,1.27-1.92,0-3.04-1.42-3.04-3.27s1.12-3.26,3.04-3.26c2.29,0,2.57,1.79,2.57,2.49v.48h-4.24ZM216.01,45.26h2.71c-.02-1.38-.25-2.04-1.07-2.04s-1.48.44-1.64,2.04Z"/>
      <path class="cls-1" d="M222.38,48.34c0-.48.41-.84.88-.84.4,0,.63.17.81.42.19.29.24.66.24.86,0,.86-.45,1.6-1.42,2.04l-.12-.24c.56-.23,1.04-.77,1.04-1.29,0-.13-.12-.22-.24-.17-.1.04-.2.06-.31.06-.47,0-.88-.32-.88-.85Z"/>
      <path class="cls-1" d="M232.27,45.74v.29c0,2.33,2.08,4.11,4.02,1.8l.21.2c-.08.17-.77,1.27-2.56,1.27-1.92,0-3.04-1.42-3.04-3.27s1.12-3.26,3.04-3.26c2.29,0,2.57,1.79,2.57,2.49v.48h-4.24ZM232.3,45.26h2.71c-.02-1.38-.25-2.04-1.07-2.04s-1.48.44-1.64,2.04Z"/>
      <path class="cls-1" d="M243.87,42.77l-2.82,6.53-2.99-6.53h1.38l2.01,4.48,1.9-4.48h.51Z"/>
      <path class="cls-1" d="M246.66,45.74v.29c0,2.33,2.08,4.11,4.02,1.8l.21.2c-.08.17-.77,1.27-2.56,1.27-1.92,0-3.04-1.42-3.04-3.27s1.12-3.26,3.04-3.26c2.29,0,2.57,1.79,2.57,2.49v.48h-4.24ZM246.7,45.26h2.71c-.02-1.38-.25-2.04-1.07-2.04s-1.48.44-1.64,2.04Z"/>
      <path class="cls-1" d="M256.65,42.79v.76c-.91,0-1.89-.14-2.21,1.78v3.8h-1.24v-6.34h1.24v1.65c.36-1.36,1.12-1.65,2.21-1.65Z"/>
      <path class="cls-1" d="M264.86,42.79l-3.41,9.1h-.51l1.04-2.76-3.04-6.34h1.38l2.26,4.72,1.77-4.72h.5Z"/>
      <path class="cls-1" d="M280.92,44.85v4.27h-1.26v-4.2c0-1.2-.7-1.74-1.23-1.74-.77,0-1.23.36-1.55.82v5.11h-1.26v-4.2c0-1.2-.7-1.74-1.23-1.74-.75,0-1.26.41-1.58.81v5.12h-1.24v-6.35h1.24v.67c.39-.37.91-.67,1.59-.67,1.12,0,1.82.37,2.18.93.45-.53,1.07-.93,1.87-.93,1.77,0,2.48,1.07,2.48,2.08Z"/>
      <path class="cls-1" d="M289.15,46.03c0,2.27-1.33,3.27-2.96,3.27s-2.97-1-2.97-3.27,1.33-3.26,2.97-3.26,2.96,1.04,2.96,3.26ZM287.79,46.03c0-2.02-.52-2.98-1.6-2.98s-1.62.98-1.62,2.98.54,2.98,1.62,2.98,1.6-.9,1.6-2.98Z"/>
      <path class="cls-1" d="M300.79,44.85v4.27h-1.26v-4.2c0-1.2-.7-1.74-1.23-1.74-.77,0-1.23.36-1.55.82v5.11h-1.26v-4.2c0-1.2-.7-1.74-1.23-1.74-.75,0-1.26.41-1.58.81v5.12h-1.24v-6.35h1.24v.67c.39-.37.91-.67,1.59-.67,1.12,0,1.82.37,2.18.93.45-.53,1.07-.93,1.87-.93,1.77,0,2.48,1.07,2.48,2.08Z"/>
      <path class="cls-1" d="M304.46,45.74v.29c0,2.33,2.08,4.11,4.02,1.8l.21.2c-.08.17-.77,1.27-2.56,1.27-1.92,0-3.04-1.42-3.04-3.27s1.12-3.26,3.04-3.26c2.29,0,2.57,1.79,2.57,2.49v.48h-4.24ZM304.49,45.26h2.71c-.02-1.38-.25-2.04-1.07-2.04s-1.48.44-1.64,2.04Z"/>
      <path class="cls-1" d="M316.3,44.85v4.27h-1.26v-4.2c0-1.2-.7-1.74-1.23-1.74-.75,0-1.26.41-1.58.81v5.12h-1.24v-6.35h1.24v.67c.39-.37.91-.67,1.59-.67,1.77,0,2.47,1.07,2.47,2.08Z"/>
      <path class="cls-1" d="M322.21,48.4c-.3.39-.75.9-1.77.9-1.14,0-1.19-.61-1.19-1.21v-4.84h-1.02v-.48h1.02v-1.6h1.24v1.6h1.33v.48h-1.33v4.59c0,.37-.09.89.35,1,.26.08.8-.04,1.11-.61l.26.17Z"/>
      <path class="cls-1" d="M330.47,40.94c0,.43-.35.79-.77.79s-.78-.35-.78-.79.35-.8.78-.8.77.36.77.8ZM330.31,49.13h-1.24v-6.35h1.24v6.35Z"/>
      <path class="cls-1" d="M337.66,47.63c0,1.04-1.17,1.67-2.67,1.67-.91,0-2.21-.44-2.21-1.8h.5c0,1.07,1.02,1.37,1.74,1.39.86,0,1.52-.35,1.52-.94,0-.82-.67-.96-1.79-1.47-.71-.32-1.96-.86-1.96-2.05,0-.93.85-1.71,2.45-1.71.45,0,2,.13,2,1.53h-.43c0-.96-1.11-1.18-1.55-1.18-.76,0-1.34.3-1.34.98s.77.93,1.67,1.36c1.29.62,2.1,1.05,2.1,2.22Z"/>
      <path class="cls-1" d="M349.54,44.65v4.48h-1.26v-.94c-.66,1.04-3.92,2.16-3.92-.67,0-2.21,2.25-1.98,3.92-2.61v-.62c0-.79-.32-1.17-1.14-1.17-.42,0-1.33-.04-1.95.89l-.35-.1c.55-1.01,1.52-1.18,2.28-1.18,1.79,0,2.42.75,2.42,1.93ZM348.28,47.85v-2.57c-1.26.41-2.56.41-2.56,2.13s1.44,1.78,2.56.44Z"/>
      <path class="cls-1" d="M362.09,49.79c0,.91-.36,2.14-2.92,2.14-2.33,0-2.92-.84-2.92-1.64s.6-1.18,1.13-1.37c-.47,0-1.13-.44-1.13-1.29,0-1.1.86-1.43,1.12-1.5-.3-.33-.47-.77-.47-1.37,0-1.34,1.01-1.99,2.18-1.99.4,0,.78.08,1.12.23h1.72v.48h-1.08c.26.32.42.75.42,1.28,0,1.4-1.01,2-2.18,2-.56,0-1.12-.17-1.42-.39-.2.06-.87.17-.81.81.07.6,1.6.51,2.3.51,1.19,0,2.95-.15,2.95,2.09ZM361.67,50.01c0-.82-.72-1.09-1.87-1.09h-1.32c-.8,0-1.16.61-1.16,1.36,0,.65.54,1.33,1.84,1.33,2.15,0,2.5-.77,2.5-1.6ZM358.06,44.76c0,1.28.24,1.67,1.01,1.67s.95-.39.95-1.67-.17-1.7-.95-1.7-1.01.48-1.01,1.7Z"/>
      <path class="cls-1" d="M365.01,45.74v.29c0,2.33,2.08,4.11,4.02,1.8l.21.2c-.08.17-.77,1.27-2.56,1.27-1.92,0-3.04-1.42-3.04-3.27s1.12-3.26,3.04-3.26c2.29,0,2.57,1.79,2.57,2.49v.48h-4.24ZM365.05,45.26h2.71c-.02-1.38-.25-2.04-1.07-2.04s-1.48.44-1.64,2.04Z"/>
      <path class="cls-1" d="M376.86,44.85v4.27h-1.26v-4.2c0-1.2-.7-1.74-1.23-1.74-.75,0-1.26.41-1.58.81v5.12h-1.24v-6.35h1.24v.67c.39-.37.91-.67,1.59-.67,1.77,0,2.47,1.07,2.47,2.08Z"/>
      <path class="cls-1" d="M382.76,48.4c-.3.39-.75.9-1.77.9-1.14,0-1.19-.61-1.19-1.21v-4.84h-1.02v-.48h1.02v-1.6h1.24v1.6h1.33v.48h-1.33v4.59c0,.37-.09.89.35,1,.26.08.8-.04,1.11-.61l.26.17Z"/>
      <path class="cls-1" d="M386.3,49.13h-1.24v-9.28h1.24v9.28Z"/>
      <path class="cls-1" d="M389.97,45.74v.29c0,2.33,2.08,4.11,4.02,1.8l.21.2c-.08.17-.77,1.27-2.56,1.27-1.92,0-3.04-1.42-3.04-3.27s1.12-3.26,3.04-3.26c2.29,0,2.57,1.79,2.57,2.49v.48h-4.24ZM390.01,45.26h2.71c-.02-1.38-.25-2.04-1.07-2.04s-1.48.44-1.64,2.04Z"/>
      <path class="cls-1" d="M402.29,45.74v.29c0,2.33,2.08,4.11,4.02,1.8l.21.2c-.08.17-.77,1.27-2.56,1.27-1.92,0-3.04-1.42-3.04-3.27s1.12-3.26,3.04-3.26c2.29,0,2.57,1.79,2.57,2.49v.48h-4.24ZM402.32,45.26h2.71c-.02-1.38-.25-2.04-1.07-2.04s-1.48.44-1.64,2.04Z"/>
      <path class="cls-1" d="M413.71,47.63c0,1.04-1.17,1.67-2.67,1.67-.91,0-2.21-.44-2.21-1.8h.5c0,1.07,1.02,1.37,1.74,1.39.86,0,1.52-.35,1.52-.94,0-.82-.67-.96-1.79-1.47-.71-.32-1.96-.86-1.96-2.05,0-.93.85-1.71,2.45-1.71.45,0,2,.13,2,1.53h-.43c0-.96-1.11-1.18-1.55-1.18-.76,0-1.34.3-1.34.98s.77.93,1.67,1.36c1.29.62,2.1,1.05,2.1,2.22Z"/>
      <path class="cls-1" d="M420.9,47.96c-.29.46-1.01,1.34-2.24,1.34-1.83,0-2.9-1.41-2.9-3.26s1.07-3.27,2.9-3.27c1.33,0,2,.88,2.25,1.32l-.31.27c-1.39-2.12-3.49-1.29-3.49,1.69-.01,2.99,2.08,3.78,3.47,1.7l.32.21Z"/>
      <path class="cls-1" d="M427.88,44.65v4.48h-1.26v-.94c-.66,1.04-3.92,2.16-3.92-.67,0-2.21,2.25-1.98,3.92-2.61v-.62c0-.79-.32-1.17-1.14-1.17-.42,0-1.33-.04-1.95.89l-.35-.1c.55-1.01,1.52-1.18,2.28-1.18,1.79,0,2.42.75,2.42,1.93ZM426.62,47.85v-2.57c-1.26.41-2.56.41-2.56,2.13s1.44,1.78,2.56.44Z"/>
      <path class="cls-1" d="M433.47,49.3c-1.03,0-1.68-.48-2.05-.95v3.53h-1.24v-9.09h1.24v.94c.36-.48,1-.94,2.05-.94,1.92,0,2.7,1.39,2.7,3.25s-.78,3.27-2.7,3.27ZM431.42,44.37v3.35c1.44,2.12,3.38,1.29,3.38-1.69.01-3-1.94-3.78-3.38-1.66Z"/>
      <path class="cls-1" d="M439.59,45.74v.29c0,2.33,2.08,4.11,4.02,1.8l.21.2c-.08.17-.77,1.27-2.56,1.27-1.92,0-3.04-1.42-3.04-3.27s1.12-3.26,3.04-3.26c2.29,0,2.57,1.79,2.57,2.49v.48h-4.24ZM439.62,45.26h2.71c-.02-1.38-.25-2.04-1.07-2.04s-1.48.44-1.64,2.04Z"/>
      <path class="cls-1" d="M446.73,47.81c.21,0,.39.06.52.21.15.14.22.32.22.53,0,.2-.07.38-.22.53-.14.15-.31.23-.52.23-.2,0-.37-.08-.52-.23-.15-.15-.21-.33-.21-.53,0-.22.06-.39.21-.53.14-.15.31-.21.52-.21Z"/>
    </g>
  </g>
</svg>