<?xml version="1.0" encoding="UTF-8"?>
<svg id="_圖層_2" data-name="圖層 2" xmlns="http://www.w3.org/2000/svg" viewBox="0 0 547.42 52.13">
  <defs>
    <style>
      .cls-1 {
        fill: #bcb391;
      }
    </style>
  </defs>
  <g id="_圖層_1-2" data-name="圖層 1">
    <g>
      <path class="cls-1" d="M117.87,9.52L121.94.24l4.18,9.28h-1.5l-.78-1.75h-4.59l-.77,1.75h-.61ZM119.46,7.29h4.15l-2.1-4.67-2.05,4.67Z"/>
      <path class="cls-1" d="M131.46,9.66s-1.69.33-3.05-.94l.51-.62s.7.99,2.11.9c1.42-.09,1.68-1.34,1.65-2.09-.01-.52-.26-1.25-.66-1.67-.2-.2-.47-.32-.76-.32h-1.32v-.57h1.33c.27,0,.54-.11.72-.3.33-.36.56-.94.57-1.38.01-.66-.22-1.77-1.49-1.85s-1.88.8-1.88.8l-.46-.55c1.21-1.13,2.72-.84,2.72-.84,2.47.29,2.28,2.4,2.28,2.4-.1,1.14-.75,1.71-1.34,2,.68.32,1.48.98,1.59,2.32,0,0,.22,2.38-2.54,2.71Z"/>
      <path class="cls-1" d="M140.07.24l-3.16,9.5-.73.39,3.17-9.54.72-.36Z"/>
      <path class="cls-1" d="M150.47.24l-3.3,5.28v4.01h-1.37v-3.84l-3.57-5.44h1.65l3.02,4.63,2.88-4.63h.67Z"/>
      <path class="cls-1" d="M158.44,8.95v.57h-5.67s.2-.29.22-.33l1.49-2.22c.6-.89,1.18-1.76,1.77-2.65.52-.77,1.28-1.65.87-2.66-.24-.57-.82-.79-1.39-.84-.09-.01-.17-.01-.26-.01-1.9,0-2,1.88-2,1.88h-.46s.21-.91.25-1c.1-.25.22-.51.39-.72.37-.48.9-.79,1.48-.9.97-.2,2.3.1,2.9.98.26.38.34.82.36,1.27.05.75-.26,1.51-.67,2.12l-3.05,4.53h3.78Z"/>
      <path class="cls-1" d="M166.6,4.92c0,3.3-1.32,4.78-2.93,4.78s-2.94-1.55-2.94-4.78,1.31-4.78,2.94-4.78,2.93,1.41,2.93,4.78ZM165.4,4.92c0-3.07-.78-4.36-1.73-4.36s-1.73,1.45-1.73,4.36.77,4.36,1.73,4.36,1.73-1.34,1.73-4.36Z"/>
      <path class="cls-1" d="M173.44,6.59v-.38h15.42v.38h-15.42Z"/>
      <path class="cls-1" d="M199.69,8.8c-.3.39-.75.9-1.77.9-1.14,0-1.19-.61-1.19-1.21V3.65h-1.02v-.48h1.02v-1.6h1.24v1.6h1.33v.48h-1.33v4.59c0,.37-.09.89.35,1,.26.08.8-.04,1.11-.61l.26.17Z"/>
      <path class="cls-1" d="M207.28,5.25v4.27h-1.24v-4.2c0-1.2-.7-1.74-1.24-1.74-.73,0-1.24.41-1.57.81v5.12h-1.24V.24h1.24v3.6c.37-.37.9-.67,1.58-.67,1.77,0,2.47,1.07,2.47,2.08Z"/>
      <path class="cls-1" d="M210.95,6.13v.29c0,2.33,2.08,4.11,4.02,1.8l.21.2c-.08.17-.77,1.27-2.56,1.27-1.92,0-3.04-1.42-3.04-3.27s1.12-3.26,3.04-3.26c2.29,0,2.57,1.79,2.57,2.49v.48h-4.24ZM210.99,5.65h2.71c-.02-1.38-.25-2.04-1.07-2.04s-1.48.44-1.64,2.04Z"/>
      <path class="cls-1" d="M223.45,1.33c0,.43-.35.79-.77.79s-.78-.35-.78-.79.35-.8.78-.8.77.36.77.8ZM223.29,9.52h-1.24V3.17h1.24v6.35Z"/>
      <path class="cls-1" d="M231.06,5.25v4.27h-1.26v-4.2c0-1.2-.7-1.74-1.23-1.74-.75,0-1.26.41-1.58.81v5.12h-1.24V3.17h1.24v.67c.39-.37.91-.67,1.59-.67,1.77,0,2.47,1.07,2.47,2.08Z"/>
      <path class="cls-1" d="M236.96,8.8c-.3.39-.75.9-1.77.9-1.14,0-1.19-.61-1.19-1.21V3.65h-1.02v-.48h1.02v-1.6h1.24v1.6h1.33v.48h-1.33v4.59c0,.37-.09.89.35,1,.26.08.8-.04,1.11-.61l.26.17Z"/>
      <path class="cls-1" d="M239.88,6.13v.29c0,2.33,2.08,4.11,4.02,1.8l.21.2c-.08.17-.77,1.27-2.56,1.27-1.92,0-3.04-1.42-3.04-3.27s1.12-3.26,3.04-3.26c2.29,0,2.57,1.79,2.57,2.49v.48h-4.24ZM239.92,5.65h2.71c-.02-1.38-.25-2.04-1.07-2.04s-1.48.44-1.64,2.04Z"/>
      <path class="cls-1" d="M249.88,3.18v.76c-.91,0-1.89-.14-2.21,1.78v3.8h-1.24V3.18h1.24v1.65c.36-1.36,1.12-1.65,2.21-1.65Z"/>
      <path class="cls-1" d="M256.81,8.02c0,1.04-1.17,1.67-2.67,1.67-.91,0-2.21-.44-2.21-1.8h.5c0,1.07,1.02,1.37,1.74,1.39.86,0,1.52-.35,1.52-.94,0-.82-.67-.96-1.79-1.47-.71-.32-1.96-.86-1.96-2.05,0-.93.85-1.71,2.45-1.71.45,0,2,.13,2,1.53h-.43c0-.96-1.11-1.18-1.55-1.18-.76,0-1.34.3-1.34.98s.77.93,1.67,1.36c1.29.62,2.1,1.05,2.1,2.22Z"/>
      <path class="cls-1" d="M260.23,6.13v.29c0,2.33,2.08,4.11,4.02,1.8l.21.2c-.08.17-.77,1.27-2.56,1.27-1.92,0-3.04-1.42-3.04-3.27s1.12-3.26,3.04-3.26c2.29,0,2.57,1.79,2.57,2.49v.48h-4.24ZM260.27,5.65h2.71c-.02-1.38-.25-2.04-1.07-2.04s-1.48.44-1.64,2.04Z"/>
      <path class="cls-1" d="M271.9,8.35c-.29.46-1.01,1.34-2.24,1.34-1.83,0-2.9-1.41-2.9-3.26s1.07-3.27,2.9-3.27c1.33,0,2,.88,2.25,1.32l-.31.27c-1.39-2.12-3.49-1.29-3.49,1.69-.01,2.99,2.08,3.78,3.47,1.7l.32.21Z"/>
      <path class="cls-1" d="M277.57,8.8c-.3.39-.75.9-1.77.9-1.14,0-1.19-.61-1.19-1.21V3.65h-1.02v-.48h1.02v-1.6h1.24v1.6h1.33v.48h-1.33v4.59c0,.37-.09.89.35,1,.26.08.8-.04,1.11-.61l.26.17Z"/>
      <path class="cls-1" d="M281.05,1.33c0,.43-.35.79-.77.79s-.78-.35-.78-.79.35-.8.78-.8.77.36.77.8ZM280.89,9.52h-1.24V3.17h1.24v6.35Z"/>
      <path class="cls-1" d="M289.28,6.43c0,2.27-1.33,3.27-2.96,3.27s-2.97-1-2.97-3.27,1.33-3.26,2.97-3.26,2.96,1.04,2.96,3.26ZM287.93,6.43c0-2.02-.52-2.98-1.6-2.98s-1.62.98-1.62,2.98.54,2.98,1.62,2.98,1.6-.9,1.6-2.98Z"/>
      <path class="cls-1" d="M296.89,5.25v4.27h-1.26v-4.2c0-1.2-.7-1.74-1.23-1.74-.75,0-1.26.41-1.58.81v5.12h-1.24V3.17h1.24v.67c.39-.37.91-.67,1.59-.67,1.77,0,2.47,1.07,2.47,2.08Z"/>
      <path class="cls-1" d="M309.53,6.43c0,2.27-1.33,3.27-2.96,3.27s-2.97-1-2.97-3.27,1.33-3.26,2.97-3.26,2.96,1.04,2.96,3.26ZM308.17,6.43c0-2.02-.52-2.98-1.6-2.98s-1.62.98-1.62,2.98.54,2.98,1.62,2.98,1.6-.9,1.6-2.98Z"/>
      <path class="cls-1" d="M313.5,1.8v1.37h1.22v.48h-1.22v5.87h-1.24V3.65h-1.18v-.48h1.18v-1c0-1.05.52-1.97,2.1-1.97.42,0,.77.09,1.07.22-.07.09-.15.18-.21.27-.21-.09-.46-.14-.75-.14-.82,0-.97.39-.97,1.26Z"/>
      <path class="cls-1" d="M326.12,8.8c-.3.39-.75.9-1.77.9-1.14,0-1.19-.61-1.19-1.21V3.65h-1.02v-.48h1.02v-1.6h1.24v1.6h1.33v.48h-1.33v4.59c0,.37-.09.89.35,1,.26.08.8-.04,1.11-.61l.26.17Z"/>
      <path class="cls-1" d="M333.71,5.25v4.27h-1.24v-4.2c0-1.2-.7-1.74-1.24-1.74-.73,0-1.24.41-1.57.81v5.12h-1.24V.24h1.24v3.6c.37-.37.9-.67,1.58-.67,1.77,0,2.47,1.07,2.47,2.08Z"/>
      <path class="cls-1" d="M337.38,6.13v.29c0,2.33,2.08,4.11,4.02,1.8l.21.2c-.08.17-.77,1.27-2.56,1.27-1.92,0-3.04-1.42-3.04-3.27s1.12-3.26,3.04-3.26c2.29,0,2.57,1.79,2.57,2.49v.48h-4.24ZM337.42,5.65h2.71c-.02-1.38-.25-2.04-1.07-2.04s-1.48.44-1.64,2.04Z"/>
      <path class="cls-1" d="M348.33,9.52l4.08-9.28,4.18,9.28h-1.5l-.78-1.75h-4.59l-.77,1.75h-.61ZM349.92,7.29h4.15l-2.1-4.67-2.05,4.67Z"/>
      <path class="cls-1" d="M360.44,1.33c0,.43-.35.79-.77.79s-.78-.35-.78-.79.35-.8.78-.8.77.36.77.8ZM360.27,9.52h-1.24V3.17h1.24v6.35Z"/>
      <path class="cls-1" d="M366.19,3.18v.76c-.91,0-1.89-.14-2.21,1.78v3.8h-1.24V3.18h1.24v1.65c.36-1.36,1.12-1.65,2.21-1.65Z"/>
      <path class="cls-1" d="M371.78,9.7c-1.03,0-1.68-.48-2.05-.95v3.53h-1.24V3.18h1.24v.94c.36-.48,1-.94,2.05-.94,1.92,0,2.7,1.39,2.7,3.25s-.78,3.27-2.7,3.27ZM369.73,4.76v3.35c1.44,2.12,3.38,1.29,3.38-1.69.01-3-1.94-3.78-3.38-1.66Z"/>
      <path class="cls-1" d="M382.46,6.43c0,2.27-1.33,3.27-2.96,3.27s-2.97-1-2.97-3.27,1.33-3.26,2.97-3.26,2.96,1.04,2.96,3.26ZM381.11,6.43c0-2.02-.52-2.98-1.6-2.98s-1.62.98-1.62,2.98.54,2.98,1.62,2.98,1.6-.9,1.6-2.98Z"/>
      <path class="cls-1" d="M388.22,3.18v.76c-.91,0-1.89-.14-2.21,1.78v3.8h-1.24V3.18h1.24v1.65c.36-1.36,1.12-1.65,2.21-1.65Z"/>
      <path class="cls-1" d="M394.49,8.8c-.3.39-.75.9-1.77.9-1.14,0-1.19-.61-1.19-1.21V3.65h-1.02v-.48h1.02v-1.6h1.24v1.6h1.33v.48h-1.33v4.59c0,.37-.09.89.35,1,.26.08.8-.04,1.11-.61l.26.17Z"/>
      <path class="cls-1" d="M411.33,9.52h-1.33l-1.08-6.37-3.38,6.37-3.1-5.95-.67,5.95h-.56l1.04-9.28,3.72,7.2,3.84-7.2,1.57,9.27h-.05Z"/>
      <path class="cls-1" d="M416.06,5.33c-.37.01-.72.01-1.02.01v4.17h-1.37V.24h1.37c1.43,0,4.33-.04,4.33,2.6,0,1.48-.88,2.12-1.9,2.38l3.04,4.3h-1.53l-2.91-4.18ZM416.5,4.82c.24-.04.47-.11.67-.24.1-.08.19-.15.27-.25.09-.1.17-.23.22-.35.07-.15.12-.32.16-.48.04-.2.05-.43.05-.65-.06-2.02-1.59-2.16-1.87-2.16h-.98v4.17h.98c.16,0,.32-.01.49-.04Z"/>
      <path class="cls-1" d="M428.7.81h-3.01v8.71h-1.37V.81h-3.02V.24h7.4v.57Z"/>
      <path class="cls-1" d="M440.58,5.04v4.48h-1.26v-.94c-.66,1.04-3.92,2.16-3.92-.67,0-2.21,2.25-1.98,3.92-2.61v-.62c0-.79-.32-1.17-1.14-1.17-.42,0-1.33-.04-1.95.89l-.35-.1c.55-1.01,1.52-1.18,2.28-1.18,1.79,0,2.42.75,2.42,1.93ZM439.33,8.24v-2.57c-1.26.41-2.56.41-2.56,2.13s1.44,1.78,2.56.44Z"/>
      <path class="cls-1" d="M448.19,5.25v4.27h-1.26v-4.2c0-1.2-.7-1.74-1.23-1.74-.75,0-1.26.41-1.58.81v5.12h-1.24V3.17h1.24v.67c.39-.37.91-.67,1.59-.67,1.77,0,2.47,1.07,2.47,2.08Z"/>
      <path class="cls-1" d="M453.18,3.18c1.03,0,1.68.48,2.05.95V.24h1.24v9.28h-1.24v-.76c-.36.48-1,.94-2.05.94-1.92,0-2.7-1.39-2.7-3.25s.78-3.27,2.7-3.27ZM455.24,8.12v-3.36c-1.44-2.12-3.38-1.29-3.38,1.69-.01,3,1.94,3.78,3.38,1.67Z"/>
      <path class="cls-1" d="M471.28,7.82c-.11.23-1.12,1.93-3.71,1.93-2.77,0-4.39-2.16-4.39-4.83s1.62-4.83,4.39-4.83c2.62,0,3.62,1.76,3.72,1.94l-.3.32c-2.85-3.49-6.24-1.18-6.24,2.57,0,3.45,3.38,6.07,6.22,2.6l.31.3Z"/>
      <path class="cls-1" d="M475.15,1.33c0,.43-.35.79-.77.79s-.78-.35-.78-.79.35-.8.78-.8.77.36.77.8ZM474.98,9.52h-1.24V3.17h1.24v6.35Z"/>
      <path class="cls-1" d="M480.9,3.18v.76c-.91,0-1.89-.14-2.21,1.78v3.8h-1.24V3.18h1.24v1.65c.36-1.36,1.12-1.65,2.21-1.65Z"/>
      <path class="cls-1" d="M487.46,8.35c-.29.46-1.01,1.34-2.24,1.34-1.83,0-2.9-1.41-2.9-3.26s1.07-3.27,2.9-3.27c1.33,0,2,.88,2.25,1.32l-.31.27c-1.39-2.12-3.49-1.29-3.49,1.69-.01,2.99,2.08,3.78,3.47,1.7l.32.21Z"/>
      <path class="cls-1" d="M489.77,7.62V3.17h1.26v4.37c0,1.21.7,1.56,1.23,1.56.75,0,1.26-.23,1.58-.63V3.17h1.24v6.35h-1.24v-.49c-.39.37-.91.67-1.59.67-1.77,0-2.48-1.07-2.48-2.08Z"/>
      <path class="cls-1" d="M498.62,9.52h-1.24V.24h1.24v9.28Z"/>
      <path class="cls-1" d="M506.1,5.04v4.48h-1.26v-.94c-.66,1.04-3.92,2.16-3.92-.67,0-2.21,2.25-1.98,3.92-2.61v-.62c0-.79-.32-1.17-1.14-1.17-.42,0-1.33-.04-1.95.89l-.35-.1c.55-1.01,1.52-1.18,2.28-1.18,1.79,0,2.42.75,2.42,1.93ZM504.84,8.24v-2.57c-1.26.41-2.56.41-2.56,2.13s1.44,1.78,2.56.44Z"/>
      <path class="cls-1" d="M511.85,3.18v.76c-.91,0-1.89-.14-2.21,1.78v3.8h-1.24V3.18h1.24v1.65c.36-1.36,1.12-1.65,2.21-1.65Z"/>
      <path class="cls-1" d="M524.41,9.52h-5.85V.24h1.24v8.71h4.6v.57Z"/>
      <path class="cls-1" d="M528.25,1.33c0,.43-.35.79-.77.79s-.78-.35-.78-.79.35-.8.78-.8.77.36.77.8ZM528.09,9.52h-1.24V3.17h1.24v6.35Z"/>
      <path class="cls-1" d="M535.86,5.25v4.27h-1.26v-4.2c0-1.2-.7-1.74-1.23-1.74-.75,0-1.26.41-1.58.81v5.12h-1.24V3.17h1.24v.67c.39-.37.91-.67,1.59-.67,1.77,0,2.47,1.07,2.47,2.08Z"/>
      <path class="cls-1" d="M539.53,6.13v.29c0,2.33,2.08,4.11,4.02,1.8l.21.2c-.08.17-.77,1.27-2.56,1.27-1.92,0-3.04-1.42-3.04-3.27s1.12-3.26,3.04-3.26c2.29,0,2.57,1.79,2.57,2.49v.48h-4.24ZM539.57,5.65h2.71c-.02-1.38-.25-2.04-1.07-2.04s-1.48.44-1.64,2.04Z"/>
      <path class="cls-1" d="M546.67,8.2c.21,0,.39.06.52.21.15.14.22.32.22.53,0,.2-.07.38-.22.53-.14.15-.31.23-.52.23-.2,0-.37-.08-.52-.23-.15-.15-.21-.33-.21-.53,0-.22.06-.39.21-.53.14-.15.31-.21.52-.21Z"/>
      <path class="cls-1" d="M203.25,29.42h-1.33l-1.08-6.37-3.38,6.37-3.1-5.95-.67,5.95h-.56l1.04-9.28,3.72,7.2,3.84-7.2,1.57,9.27h-.05Z"/>
      <path class="cls-1" d="M211.27,26.33c0,2.27-1.33,3.27-2.96,3.27s-2.97-1-2.97-3.27,1.33-3.26,2.97-3.26,2.96,1.04,2.96,3.26ZM209.92,26.33c0-2.02-.52-2.98-1.6-2.98s-1.62.98-1.62,2.98.54,2.98,1.62,2.98,1.6-.9,1.6-2.98Z"/>
      <path class="cls-1" d="M217.03,23.08v.76c-.91,0-1.89-.14-2.21,1.78v3.8h-1.24v-6.34h1.24v1.65c.36-1.36,1.12-1.65,2.21-1.65Z"/>
      <path class="cls-1" d="M219.82,26.04v.29c0,2.33,2.08,4.11,4.02,1.8l.21.2c-.08.17-.77,1.27-2.56,1.27-1.92,0-3.04-1.42-3.04-3.27s1.12-3.26,3.04-3.26c2.29,0,2.57,1.79,2.57,2.49v.48h-4.24ZM219.86,25.56h2.71c-.02-1.38-.25-2.04-1.07-2.04s-1.48.44-1.64,2.04Z"/>
      <path class="cls-1" d="M234.75,28.7c-.3.39-.75.9-1.77.9-1.14,0-1.19-.61-1.19-1.21v-4.84h-1.02v-.48h1.02v-1.6h1.24v1.6h1.33v.48h-1.33v4.59c0,.37-.09.89.35,1,.26.08.8-.04,1.11-.61l.26.17Z"/>
      <path class="cls-1" d="M242.35,25.15v4.27h-1.24v-4.2c0-1.2-.7-1.74-1.24-1.74-.73,0-1.24.41-1.57.81v5.12h-1.24v-9.28h1.24v3.6c.37-.37.9-.67,1.58-.67,1.77,0,2.47,1.07,2.47,2.08Z"/>
      <path class="cls-1" d="M249.82,24.95v4.48h-1.26v-.94c-.66,1.04-3.92,2.16-3.92-.67,0-2.21,2.25-1.98,3.92-2.61v-.62c0-.79-.32-1.17-1.14-1.17-.42,0-1.33-.04-1.95.89l-.35-.1c.55-1.01,1.52-1.18,2.28-1.18,1.79,0,2.42.75,2.42,1.93ZM248.56,28.14v-2.57c-1.26.41-2.56.41-2.56,2.13s1.44,1.78,2.56.44Z"/>
      <path class="cls-1" d="M257.42,25.15v4.27h-1.26v-4.2c0-1.2-.7-1.74-1.23-1.74-.75,0-1.26.41-1.58.81v5.12h-1.24v-6.35h1.24v.67c.39-.37.91-.67,1.59-.67,1.77,0,2.47,1.07,2.47,2.08Z"/>
      <path class="cls-1" d="M269.31,24.95v4.48h-1.26v-.94c-.66,1.04-3.92,2.16-3.92-.67,0-2.21,2.25-1.98,3.92-2.61v-.62c0-.79-.32-1.17-1.14-1.17-.42,0-1.33-.04-1.95.89l-.35-.1c.55-1.01,1.52-1.18,2.28-1.18,1.79,0,2.42.75,2.42,1.93ZM268.05,28.14v-2.57c-1.26.41-2.56.41-2.56,2.13s1.44,1.78,2.56.44Z"/>
      <path class="cls-1" d="M281.31,25.15v4.27h-1.24v-4.2c0-1.2-.7-1.74-1.24-1.74-.73,0-1.24.41-1.57.81v5.12h-1.24v-9.28h1.24v3.6c.37-.37.9-.67,1.58-.67,1.77,0,2.47,1.07,2.47,2.08Z"/>
      <path class="cls-1" d="M283.61,27.52v-4.45h1.26v4.37c0,1.21.7,1.56,1.23,1.56.75,0,1.26-.23,1.58-.63v-5.3h1.24v6.35h-1.24v-.49c-.39.37-.91.67-1.59.67-1.77,0-2.48-1.07-2.48-2.08Z"/>
      <path class="cls-1" d="M297.2,26.35c0,1.85-.78,3.25-2.7,3.25-1.06,0-1.69-.46-2.04-.94v.76h-1.24v-9.28h1.24v3.89c.36-.47,1.01-.95,2.04-.95,1.92,0,2.7,1.42,2.7,3.27ZM295.83,26.35c0-2.98-1.93-3.8-3.37-1.69v3.36c1.44,2.1,3.38,1.33,3.37-1.67Z"/>
      <path class="cls-1" d="M306.33,21.7v1.37h1.22v.48h-1.22v5.87h-1.24v-5.87h-1.18v-.48h1.18v-1c0-1.05.52-1.97,2.1-1.97.42,0,.77.09,1.07.22-.07.09-.15.18-.21.27-.21-.09-.46-.14-.75-.14-.82,0-.97.39-.97,1.26Z"/>
      <path class="cls-1" d="M315.12,26.33c0,2.27-1.33,3.27-2.96,3.27s-2.97-1-2.97-3.27,1.33-3.26,2.97-3.26,2.96,1.04,2.96,3.26ZM313.76,26.33c0-2.02-.52-2.98-1.6-2.98s-1.62.98-1.62,2.98.54,2.98,1.62,2.98,1.6-.9,1.6-2.98Z"/>
      <path class="cls-1" d="M320.87,23.08v.76c-.91,0-1.89-.14-2.21,1.78v3.8h-1.24v-6.34h1.24v1.65c.36-1.36,1.12-1.65,2.21-1.65Z"/>
      <path class="cls-1" d="M331.56,28.7c-.3.39-.75.9-1.77.9-1.14,0-1.19-.61-1.19-1.21v-4.84h-1.02v-.48h1.02v-1.6h1.24v1.6h1.33v.48h-1.33v4.59c0,.37-.09.89.35,1,.26.08.8-.04,1.11-.61l.26.17Z"/>
      <path class="cls-1" d="M339.05,26.33c0,2.27-1.33,3.27-2.96,3.27s-2.97-1-2.97-3.27,1.33-3.26,2.97-3.26,2.96,1.04,2.96,3.26ZM337.69,26.33c0-2.02-.52-2.98-1.6-2.98s-1.62.98-1.62,2.98.54,2.98,1.62,2.98,1.6-.9,1.6-2.98Z"/>
      <path class="cls-1" d="M343.79,23.08c1.03,0,1.68.48,2.05.95v-3.89h1.24v9.28h-1.24v-.76c-.36.48-1,.94-2.05.94-1.92,0-2.7-1.4-2.7-3.25s.78-3.27,2.7-3.27ZM345.84,28.03v-3.36c-1.44-2.12-3.38-1.29-3.38,1.69-.01,3,1.94,3.78,3.38,1.67Z"/>
      <path class="cls-1" d="M354.56,24.95v4.48h-1.26v-.94c-.66,1.04-3.92,2.16-3.92-.67,0-2.21,2.25-1.98,3.92-2.61v-.62c0-.79-.32-1.17-1.14-1.17-.42,0-1.33-.04-1.95.89l-.35-.1c.55-1.01,1.52-1.18,2.28-1.18,1.79,0,2.42.75,2.42,1.93ZM353.3,28.14v-2.57c-1.26.41-2.56.41-2.56,2.13s1.44,1.78,2.56.44Z"/>
      <path class="cls-1" d="M362.14,23.08l-3.41,9.1h-.51l1.04-2.76-3.04-6.34h1.38l2.26,4.72,1.77-4.72h.5Z"/>
      <path class="cls-1" d="M363.57,28.64c0-.48.41-.84.88-.84.4,0,.63.17.81.42.19.29.24.66.24.86,0,.86-.45,1.6-1.42,2.04l-.12-.24c.56-.23,1.04-.77,1.04-1.29,0-.13-.12-.22-.24-.17-.1.04-.2.06-.31.06-.47,0-.88-.32-.88-.85Z"/>
      <path class="cls-1" d="M373.63,21.23c0,.43-.35.79-.77.79s-.78-.35-.78-.79.35-.8.78-.8.77.36.77.8ZM373.47,29.42h-1.24v-6.35h1.24v6.35Z"/>
      <path class="cls-1" d="M379.91,28.7c-.3.39-.75.9-1.77.9-1.14,0-1.19-.61-1.19-1.21v-4.84h-1.02v-.48h1.02v-1.6h1.24v1.6h1.33v.48h-1.33v4.59c0,.37-.09.89.35,1,.26.08.8-.04,1.11-.61l.26.17Z"/>
      <path class="cls-1" d="M381.95,19.73c0-.14.05-.28.16-.39s.24-.18.39-.18c.22.02.41.11.57.27.18.2.27.46.26.77-.02.35-.14.64-.38.88-.24.24-.51.41-.81.51.06-.04.11-.08.16-.13s.1-.08.15-.13c.15-.15.24-.31.26-.47.02-.12,0-.21-.02-.29s-.07-.13-.11-.17c-.04-.04-.08-.08-.12-.1-.04-.03-.1-.05-.16-.09-.11-.05-.19-.11-.25-.18-.06-.07-.09-.18-.09-.31Z"/>
      <path class="cls-1" d="M390.29,27.93c0,1.04-1.17,1.67-2.67,1.67-.91,0-2.21-.44-2.21-1.8h.5c0,1.07,1.02,1.37,1.74,1.39.86,0,1.52-.35,1.52-.94,0-.82-.67-.96-1.79-1.47-.71-.32-1.96-.86-1.96-2.05,0-.93.85-1.71,2.45-1.71.45,0,2,.13,2,1.53h-.43c0-.96-1.11-1.18-1.55-1.18-.76,0-1.34.3-1.34.98s.77.93,1.67,1.36c1.29.62,2.1,1.05,2.1,2.22Z"/>
      <path class="cls-1" d="M402.17,24.95v4.48h-1.26v-.94c-.66,1.04-3.92,2.16-3.92-.67,0-2.21,2.25-1.98,3.92-2.61v-.62c0-.79-.32-1.17-1.14-1.17-.42,0-1.33-.04-1.95.89l-.35-.1c.55-1.01,1.52-1.18,2.28-1.18,1.79,0,2.42.75,2.42,1.93ZM400.92,28.14v-2.57c-1.26.41-2.56.41-2.56,2.13s1.44,1.78,2.56.44Z"/>
      <path class="cls-1" d="M414.73,30.08c0,.91-.36,2.14-2.92,2.14-2.33,0-2.92-.84-2.92-1.64s.6-1.18,1.13-1.37c-.47,0-1.13-.44-1.13-1.29,0-1.1.86-1.43,1.12-1.5-.3-.33-.47-.77-.47-1.37,0-1.34,1.01-1.99,2.18-1.99.4,0,.78.08,1.12.23h1.72v.48h-1.08c.26.32.42.75.42,1.28,0,1.4-1.01,2-2.18,2-.56,0-1.12-.17-1.42-.39-.2.06-.87.17-.81.81.07.6,1.6.51,2.3.51,1.19,0,2.95-.15,2.95,2.09ZM414.31,30.31c0-.82-.72-1.09-1.87-1.09h-1.32c-.8,0-1.16.61-1.16,1.36,0,.65.54,1.33,1.84,1.33,2.15,0,2.5-.77,2.5-1.6ZM410.7,25.06c0,1.28.24,1.67,1.01,1.67s.95-.39.95-1.67-.17-1.7-.95-1.7-1.01.48-1.01,1.7Z"/>
      <path class="cls-1" d="M421.58,24.95v4.48h-1.26v-.94c-.66,1.04-3.92,2.16-3.92-.67,0-2.21,2.25-1.98,3.92-2.61v-.62c0-.79-.32-1.17-1.14-1.17-.42,0-1.33-.04-1.95.89l-.35-.1c.55-1.01,1.52-1.18,2.28-1.18,1.79,0,2.42.75,2.42,1.93ZM420.32,28.14v-2.57c-1.26.41-2.56.41-2.56,2.13s1.44,1.78,2.56.44Z"/>
      <path class="cls-1" d="M427.48,28.7c-.3.39-.75.9-1.77.9-1.14,0-1.19-.61-1.19-1.21v-4.84h-1.02v-.48h1.02v-1.6h1.24v1.6h1.33v.48h-1.33v4.59c0,.37-.09.89.35,1,.26.08.8-.04,1.11-.61l.26.17Z"/>
      <path class="cls-1" d="M430.4,26.04v.29c0,2.33,2.08,4.11,4.02,1.8l.21.2c-.08.17-.77,1.27-2.56,1.27-1.92,0-3.04-1.42-3.04-3.27s1.12-3.26,3.04-3.26c2.29,0,2.57,1.79,2.57,2.49v.48h-4.24ZM430.44,25.56h2.71c-.02-1.38-.25-2.04-1.07-2.04s-1.48.44-1.64,2.04Z"/>
      <path class="cls-1" d="M444.7,23.07l-2.19,6.53-2-5.63-1.88,5.63-2.31-6.53h1.32l1.38,3.88,1.31-3.88h1.18l1.39,3.88,1.31-3.88h.5Z"/>
      <path class="cls-1" d="M451.29,24.95v4.48h-1.26v-.94c-.66,1.04-3.92,2.16-3.92-.67,0-2.21,2.25-1.98,3.92-2.61v-.62c0-.79-.32-1.17-1.14-1.17-.42,0-1.33-.04-1.95.89l-.35-.1c.55-1.01,1.52-1.18,2.28-1.18,1.79,0,2.42.75,2.42,1.93ZM450.04,28.14v-2.57c-1.26.41-2.56.41-2.56,2.13s1.44,1.78,2.56.44Z"/>
      <path class="cls-1" d="M458.88,23.08l-3.41,9.1h-.51l1.04-2.76-3.04-6.34h1.38l2.26,4.72,1.77-4.72h.5Z"/>
      <path class="cls-1" d="M469.57,28.7c-.3.39-.75.9-1.77.9-1.14,0-1.19-.61-1.19-1.21v-4.84h-1.02v-.48h1.02v-1.6h1.24v1.6h1.33v.48h-1.33v4.59c0,.37-.09.89.35,1,.26.08.8-.04,1.11-.61l.26.17Z"/>
      <path class="cls-1" d="M477.05,26.33c0,2.27-1.33,3.27-2.96,3.27s-2.97-1-2.97-3.27,1.33-3.26,2.97-3.26,2.96,1.04,2.96,3.26ZM475.69,26.33c0-2.02-.52-2.98-1.6-2.98s-1.62.98-1.62,2.98.54,2.98,1.62,2.98,1.6-.9,1.6-2.98Z"/>
      <path class="cls-1" d="M487.74,28.7c-.3.39-.75.9-1.77.9-1.14,0-1.19-.61-1.19-1.21v-4.84h-1.02v-.48h1.02v-1.6h1.24v1.6h1.33v.48h-1.33v4.59c0,.37-.09.89.35,1,.26.08.8-.04,1.11-.61l.26.17Z"/>
      <path class="cls-1" d="M495.22,26.33c0,2.27-1.33,3.27-2.96,3.27s-2.97-1-2.97-3.27,1.33-3.26,2.97-3.26,2.96,1.04,2.96,3.26ZM493.87,26.33c0-2.02-.52-2.98-1.6-2.98s-1.62.98-1.62,2.98.54,2.98,1.62,2.98,1.6-.9,1.6-2.98Z"/>
      <path class="cls-1" d="M506.87,25.15v4.27h-1.26v-4.2c0-1.2-.7-1.74-1.23-1.74-.77,0-1.23.36-1.55.82v5.11h-1.26v-4.2c0-1.2-.7-1.74-1.23-1.74-.75,0-1.26.41-1.58.81v5.12h-1.24v-6.35h1.24v.67c.39-.37.91-.67,1.59-.67,1.12,0,1.82.37,2.18.93.45-.53,1.07-.93,1.87-.93,1.77,0,2.48,1.07,2.48,2.08Z"/>
      <path class="cls-1" d="M515.1,26.33c0,2.27-1.33,3.27-2.96,3.27s-2.97-1-2.97-3.27,1.33-3.26,2.97-3.26,2.96,1.04,2.96,3.26ZM513.74,26.33c0-2.02-.52-2.98-1.6-2.98s-1.62.98-1.62,2.98.54,2.98,1.62,2.98,1.6-.9,1.6-2.98Z"/>
      <path class="cls-1" d="M520.85,23.08v.76c-.91,0-1.89-.14-2.21,1.78v3.8h-1.24v-6.34h1.24v1.65c.36-1.36,1.12-1.65,2.21-1.65Z"/>
      <path class="cls-1" d="M526.6,23.08v.76c-.91,0-1.89-.14-2.21,1.78v3.8h-1.24v-6.34h1.24v1.65c.36-1.36,1.12-1.65,2.21-1.65Z"/>
      <path class="cls-1" d="M533.96,26.33c0,2.27-1.33,3.27-2.96,3.27s-2.97-1-2.97-3.27,1.33-3.26,2.97-3.26,2.96,1.04,2.96,3.26ZM532.61,26.33c0-2.02-.52-2.98-1.6-2.98s-1.62.98-1.62,2.98.54,2.98,1.62,2.98,1.6-.9,1.6-2.98Z"/>
      <path class="cls-1" d="M543.77,23.07l-2.19,6.53-2-5.63-1.88,5.63-2.31-6.53h1.32l1.38,3.88,1.31-3.88h1.18l1.39,3.88,1.31-3.88h.5Z"/>
      <path class="cls-1" d="M546.67,28.1c.21,0,.39.06.52.21.15.14.22.32.22.53,0,.2-.07.38-.22.53-.14.15-.31.23-.52.23-.2,0-.37-.08-.52-.23-.15-.15-.21-.33-.21-.53,0-.22.06-.39.21-.53.14-.15.31-.21.52-.21Z"/>
      <path class="cls-1" d="M6.01,46.93c0,.96-.7,2.56-2.85,2.56-1.7,0-2.8-.75-3.06-2.65h.41c.27,1.74,1.69,2.12,2.51,2.12,1.46,0,1.8-1.04,1.8-1.5,0-.98-.78-1.51-2.28-2.29-.95-.49-2.55-1.31-2.55-2.89,0-2.02,1.95-2.42,2.65-2.42,1.74,0,2.46.94,2.71,2.27h-.45c-.19-.7-.68-1.75-2.25-1.75-.77,0-1.59.63-1.59,1.43,0,.94,1.11,1.53,2.25,2.13,2.16,1.1,2.69,1.89,2.69,2.99Z"/>
      <path class="cls-1" d="M9.3,45.94v.29c0,2.33,2.08,4.11,4.02,1.8l.21.2c-.08.17-.77,1.27-2.56,1.27-1.92,0-3.04-1.42-3.04-3.27s1.12-3.26,3.04-3.26c2.29,0,2.57,1.79,2.57,2.49v.48h-4.24ZM9.33,45.46h2.71c-.02-1.38-.25-2.04-1.07-2.04s-1.48.44-1.64,2.04Z"/>
      <path class="cls-1" d="M21.01,44.85v4.48h-1.26v-.94c-.66,1.04-3.92,2.16-3.92-.67,0-2.21,2.25-1.98,3.92-2.61v-.62c0-.79-.32-1.17-1.14-1.17-.42,0-1.33-.04-1.95.89l-.35-.1c.55-1.01,1.52-1.18,2.28-1.18,1.79,0,2.42.75,2.42,1.93ZM19.75,48.05v-2.57c-1.26.41-2.56.41-2.56,2.13s1.44,1.78,2.56.44Z"/>
      <path class="cls-1" d="M32.66,45.05v4.27h-1.26v-4.2c0-1.2-.7-1.74-1.23-1.74-.77,0-1.23.36-1.55.82v5.11h-1.26v-4.2c0-1.2-.7-1.74-1.23-1.74-.75,0-1.26.41-1.58.81v5.12h-1.24v-6.35h1.24v.67c.39-.37.91-.67,1.59-.67,1.12,0,1.82.37,2.18.93.45-.53,1.07-.93,1.87-.93,1.77,0,2.48,1.07,2.48,2.08Z"/>
      <path class="cls-1" d="M36.2,49.33h-1.24v-9.28h1.24v9.28Z"/>
      <path class="cls-1" d="M39.86,45.94v.29c0,2.33,2.08,4.11,4.02,1.8l.21.2c-.08.17-.77,1.27-2.56,1.27-1.92,0-3.04-1.42-3.04-3.27s1.12-3.26,3.04-3.26c2.29,0,2.57,1.79,2.57,2.49v.48h-4.24ZM39.9,45.46h2.71c-.02-1.38-.25-2.04-1.07-2.04s-1.48.44-1.64,2.04Z"/>
      <path class="cls-1" d="M51.29,47.83c0,1.04-1.17,1.67-2.67,1.67-.91,0-2.21-.44-2.21-1.8h.5c0,1.07,1.02,1.37,1.74,1.39.86,0,1.52-.35,1.52-.94,0-.82-.67-.96-1.79-1.47-.71-.32-1.96-.86-1.96-2.05,0-.93.85-1.71,2.45-1.71.45,0,2,.13,2,1.53h-.43c0-.96-1.11-1.18-1.55-1.18-.76,0-1.34.3-1.34.98s.77.93,1.67,1.36c1.29.62,2.1,1.05,2.1,2.22Z"/>
      <path class="cls-1" d="M58.47,47.83c0,1.04-1.17,1.67-2.67,1.67-.91,0-2.21-.44-2.21-1.8h.5c0,1.07,1.02,1.37,1.74,1.39.86,0,1.52-.35,1.52-.94,0-.82-.67-.96-1.79-1.47-.71-.32-1.96-.86-1.96-2.05,0-.93.85-1.71,2.45-1.71.45,0,2,.13,2,1.53h-.43c0-.96-1.11-1.18-1.55-1.18-.76,0-1.34.3-1.34.98s.77.93,1.67,1.36c1.29.62,2.1,1.05,2.1,2.22Z"/>
      <path class="cls-1" d="M62.01,49.33h-1.24v-9.28h1.24v9.28Z"/>
      <path class="cls-1" d="M70.22,42.99l-3.41,9.1h-.51l1.04-2.76-3.04-6.34h1.38l2.26,4.72,1.77-4.72h.5Z"/>
      <path class="cls-1" d="M82.06,48.16c-.29.46-1.01,1.34-2.24,1.34-1.83,0-2.9-1.41-2.9-3.26s1.07-3.27,2.9-3.27c1.33,0,2,.88,2.25,1.32l-.31.27c-1.39-2.12-3.49-1.29-3.49,1.69-.01,2.99,2.08,3.78,3.47,1.7l.32.21Z"/>
      <path class="cls-1" d="M90.05,46.23c0,2.27-1.33,3.27-2.96,3.27s-2.97-1-2.97-3.27,1.33-3.26,2.97-3.26,2.96,1.04,2.96,3.26ZM88.7,46.23c0-2.02-.52-2.98-1.6-2.98s-1.62.98-1.62,2.98.54,2.98,1.62,2.98,1.6-.9,1.6-2.98Z"/>
      <path class="cls-1" d="M97.66,45.05v4.27h-1.26v-4.2c0-1.2-.7-1.74-1.23-1.74-.75,0-1.26.41-1.58.81v5.12h-1.24v-6.35h1.24v.67c.39-.37.91-.67,1.59-.67,1.77,0,2.47,1.07,2.47,2.08Z"/>
      <path class="cls-1" d="M105.27,45.05v4.27h-1.26v-4.2c0-1.2-.7-1.74-1.23-1.74-.75,0-1.26.41-1.58.81v5.12h-1.24v-6.35h1.24v.67c.39-.37.91-.67,1.59-.67,1.77,0,2.47,1.07,2.47,2.08Z"/>
      <path class="cls-1" d="M108.93,45.94v.29c0,2.33,2.08,4.11,4.02,1.8l.21.2c-.08.17-.77,1.27-2.56,1.27-1.92,0-3.04-1.42-3.04-3.27s1.12-3.26,3.04-3.26c2.29,0,2.57,1.79,2.57,2.49v.48h-4.24ZM108.97,45.46h2.71c-.02-1.38-.25-2.04-1.07-2.04s-1.48.44-1.64,2.04Z"/>
      <path class="cls-1" d="M120.6,48.16c-.29.46-1.01,1.34-2.24,1.34-1.83,0-2.9-1.41-2.9-3.26s1.07-3.27,2.9-3.27c1.33,0,2,.88,2.25,1.32l-.31.27c-1.39-2.12-3.49-1.29-3.49,1.69-.01,2.99,2.08,3.78,3.47,1.7l.32.21Z"/>
      <path class="cls-1" d="M126.27,48.6c-.3.39-.75.9-1.77.9-1.14,0-1.19-.61-1.19-1.21v-4.84h-1.02v-.48h1.02v-1.6h1.24v1.6h1.33v.48h-1.33v4.59c0,.37-.09.89.35,1,.26.08.8-.04,1.11-.61l.26.17Z"/>
      <path class="cls-1" d="M129.75,41.13c0,.43-.35.79-.77.79s-.78-.35-.78-.79.35-.8.78-.8.77.36.77.8ZM129.59,49.33h-1.24v-6.35h1.24v6.35Z"/>
      <path class="cls-1" d="M137.36,45.05v4.27h-1.26v-4.2c0-1.2-.7-1.74-1.23-1.74-.75,0-1.26.41-1.58.81v5.12h-1.24v-6.35h1.24v.67c.39-.37.91-.67,1.59-.67,1.77,0,2.47,1.07,2.47,2.08Z"/>
      <path class="cls-1" d="M145.5,49.99c0,.91-.36,2.14-2.92,2.14-2.33,0-2.92-.84-2.92-1.64s.6-1.18,1.13-1.37c-.47,0-1.13-.44-1.13-1.29,0-1.1.86-1.43,1.12-1.5-.3-.33-.47-.77-.47-1.37,0-1.34,1.01-1.99,2.18-1.99.4,0,.78.08,1.12.23h1.72v.48h-1.08c.26.32.42.75.42,1.28,0,1.4-1.01,2-2.18,2-.56,0-1.12-.17-1.42-.39-.2.06-.87.17-.81.81.07.6,1.6.51,2.3.51,1.19,0,2.95-.15,2.95,2.09ZM145.08,50.21c0-.82-.72-1.09-1.87-1.09h-1.32c-.8,0-1.16.61-1.16,1.36,0,.65.54,1.33,1.84,1.33,2.15,0,2.5-.77,2.5-1.6ZM141.47,44.96c0,1.28.24,1.67,1.01,1.67s.95-.39.95-1.67-.17-1.7-.95-1.7-1.01.48-1.01,1.7Z"/>
      <path class="cls-1" d="M156.19,48.6c-.3.39-.75.9-1.77.9-1.14,0-1.19-.61-1.19-1.21v-4.84h-1.02v-.48h1.02v-1.6h1.24v1.6h1.33v.48h-1.33v4.59c0,.37-.09.89.35,1,.26.08.8-.04,1.11-.61l.26.17Z"/>
      <path class="cls-1" d="M163.78,45.05v4.27h-1.24v-4.2c0-1.2-.7-1.74-1.24-1.74-.73,0-1.24.41-1.57.81v5.12h-1.24v-9.28h1.24v3.6c.37-.37.9-.67,1.58-.67,1.77,0,2.47,1.07,2.47,2.08Z"/>
      <path class="cls-1" d="M167.45,45.94v.29c0,2.33,2.08,4.11,4.02,1.8l.21.2c-.08.17-.77,1.27-2.56,1.27-1.92,0-3.04-1.42-3.04-3.27s1.12-3.26,3.04-3.26c2.29,0,2.57,1.79,2.57,2.49v.48h-4.24ZM167.48,45.46h2.71c-.02-1.38-.25-2.04-1.07-2.04s-1.48.44-1.64,2.04Z"/>
      <path class="cls-1" d="M186.49,47.58c-.04.09-.2.37-.51.68-.55.56-1.55,1.24-3.2,1.24-2.77,0-4.39-2.16-4.39-4.82s1.62-4.83,4.39-4.83,3.62,1.76,3.72,1.94l-.3.32c-2.85-3.5-6.24-1.14-6.24,2.57,0,3.11,2.79,5.55,5.41,3.41v-3.21h1.12v2.69Z"/>
      <path class="cls-1" d="M192.26,42.99v.76c-.91,0-1.89-.14-2.21,1.78v3.8h-1.24v-6.34h1.24v1.65c.36-1.36,1.12-1.65,2.21-1.65Z"/>
      <path class="cls-1" d="M195.05,45.94v.29c0,2.33,2.08,4.11,4.02,1.8l.21.2c-.08.17-.77,1.27-2.56,1.27-1.92,0-3.04-1.42-3.04-3.27s1.12-3.26,3.04-3.26c2.29,0,2.57,1.79,2.57,2.49v.48h-4.24ZM195.09,45.46h2.71c-.02-1.38-.25-2.04-1.07-2.04s-1.48.44-1.64,2.04Z"/>
      <path class="cls-1" d="M206.76,44.85v4.48h-1.26v-.94c-.66,1.04-3.92,2.16-3.92-.67,0-2.21,2.25-1.98,3.92-2.61v-.62c0-.79-.32-1.17-1.14-1.17-.42,0-1.33-.04-1.95.89l-.35-.1c.55-1.01,1.52-1.18,2.28-1.18,1.79,0,2.42.75,2.42,1.93ZM205.51,48.05v-2.57c-1.26.41-2.56.41-2.56,2.13s1.44,1.78,2.56.44Z"/>
      <path class="cls-1" d="M212.67,48.6c-.3.39-.75.9-1.77.9-1.14,0-1.19-.61-1.19-1.21v-4.84h-1.02v-.48h1.02v-1.6h1.24v1.6h1.33v.48h-1.33v4.59c0,.37-.09.89.35,1,.26.08.8-.04,1.11-.61l.26.17Z"/>
      <path class="cls-1" d="M215.59,45.94v.29c0,2.33,2.08,4.11,4.02,1.8l.21.2c-.08.17-.77,1.27-2.56,1.27-1.92,0-3.04-1.42-3.04-3.27s1.12-3.26,3.04-3.26c2.29,0,2.57,1.79,2.57,2.49v.48h-4.24ZM215.62,45.46h2.71c-.02-1.38-.25-2.04-1.07-2.04s-1.48.44-1.64,2.04Z"/>
      <path class="cls-1" d="M225.58,42.99v.76c-.91,0-1.89-.14-2.21,1.78v3.8h-1.24v-6.34h1.24v1.65c.36-1.36,1.12-1.65,2.21-1.65Z"/>
      <path class="cls-1" d="M239.69,40.62h-3.01v8.71h-1.37v-8.71h-3.02v-.57h7.4v.57Z"/>
      <path class="cls-1" d="M244.67,44.85v4.48h-1.26v-.94c-.66,1.04-3.92,2.16-3.92-.67,0-2.21,2.25-1.98,3.92-2.61v-.62c0-.79-.32-1.17-1.14-1.17-.42,0-1.33-.04-1.95.89l-.35-.1c.55-1.01,1.52-1.18,2.28-1.18,1.79,0,2.42.75,2.42,1.93ZM243.42,48.05v-2.57c-1.26.41-2.56.41-2.56,2.13s1.44,1.78,2.56.44Z"/>
      <path class="cls-1" d="M248.52,41.13c0,.43-.35.79-.77.79s-.78-.35-.78-.79.35-.8.78-.8.77.36.77.8ZM248.36,49.33h-1.24v-6.35h1.24v6.35Z"/>
      <path class="cls-1" d="M254.12,49.5c-1.03,0-1.68-.48-2.05-.95v3.53h-1.24v-9.09h1.24v.94c.36-.48,1-.94,2.05-.94,1.92,0,2.7,1.39,2.7,3.25s-.78,3.27-2.7,3.27ZM252.07,44.57v3.35c1.44,2.12,3.38,1.29,3.38-1.69.01-3-1.94-3.78-3.38-1.66Z"/>
      <path class="cls-1" d="M260.23,45.94v.29c0,2.33,2.08,4.11,4.02,1.8l.21.2c-.08.17-.77,1.27-2.56,1.27-1.92,0-3.04-1.42-3.04-3.27s1.12-3.26,3.04-3.26c2.29,0,2.57,1.79,2.57,2.49v.48h-4.24ZM260.27,45.46h2.71c-.02-1.38-.25-2.04-1.07-2.04s-1.48.44-1.64,2.04Z"/>
      <path class="cls-1" d="M268.32,41.13c0,.43-.35.79-.77.79s-.78-.35-.78-.79.35-.8.78-.8.77.36.77.8ZM268.16,49.33h-1.24v-6.35h1.24v6.35Z"/>
      <path class="cls-1" d="M276.28,49.33h-1.24v-9.28h1.24v9.28Z"/>
      <path class="cls-1" d="M280.13,41.13c0,.43-.35.79-.77.79s-.78-.35-.78-.79.35-.8.78-.8.77.36.77.8ZM279.97,49.33h-1.24v-6.35h1.24v6.35Z"/>
      <path class="cls-1" d="M284.85,41.6v1.37h1.22v.48h-1.22v5.87h-1.24v-5.87h-1.18v-.48h1.18v-1c0-1.05.52-1.97,2.1-1.97.42,0,.77.09,1.07.22-.07.09-.15.18-.21.27-.21-.09-.46-.14-.75-.14-.82,0-.97.39-.97,1.26Z"/>
      <path class="cls-1" d="M289.08,45.94v.29c0,2.33,2.08,4.11,4.02,1.8l.21.2c-.08.17-.77,1.27-2.56,1.27-1.92,0-3.04-1.42-3.04-3.27s1.12-3.26,3.04-3.26c2.29,0,2.57,1.79,2.57,2.49v.48h-4.24ZM289.12,45.46h2.71c-.02-1.38-.25-2.04-1.07-2.04s-1.48.44-1.64,2.04Z"/>
      <path class="cls-1" d="M300.5,47.83c0,1.04-1.17,1.67-2.67,1.67-.91,0-2.21-.44-2.21-1.8h.5c0,1.07,1.02,1.37,1.74,1.39.86,0,1.52-.35,1.52-.94,0-.82-.67-.96-1.79-1.47-.71-.32-1.96-.86-1.96-2.05,0-.93.85-1.71,2.45-1.71.45,0,2,.13,2,1.53h-.43c0-.96-1.11-1.18-1.55-1.18-.76,0-1.34.3-1.34.98s.77.93,1.67,1.36c1.29.62,2.1,1.05,2.1,2.22Z"/>
      <path class="cls-1" d="M306.28,48.6c-.3.39-.75.9-1.77.9-1.14,0-1.19-.61-1.19-1.21v-4.84h-1.02v-.48h1.02v-1.6h1.24v1.6h1.33v.48h-1.33v4.59c0,.37-.09.89.35,1,.26.08.8-.04,1.11-.61l.26.17Z"/>
      <path class="cls-1" d="M314.24,42.99l-3.41,9.1h-.51l1.04-2.76-3.04-6.34h1.38l2.26,4.72,1.77-4.72h.5Z"/>
      <path class="cls-1" d="M317.78,49.33h-1.24v-9.28h1.24v9.28Z"/>
      <path class="cls-1" d="M321.45,45.94v.29c0,2.33,2.08,4.11,4.02,1.8l.21.2c-.08.17-.77,1.27-2.56,1.27-1.92,0-3.04-1.42-3.04-3.27s1.12-3.26,3.04-3.26c2.29,0,2.57,1.79,2.57,2.49v.48h-4.24ZM321.48,45.46h2.71c-.02-1.38-.25-2.04-1.07-2.04s-1.48.44-1.64,2.04Z"/>
      <path class="cls-1" d="M333.95,41.13c0,.43-.35.79-.77.79s-.78-.35-.78-.79.35-.8.78-.8.77.36.77.8ZM333.79,49.33h-1.24v-6.35h1.24v6.35Z"/>
      <path class="cls-1" d="M341.56,45.05v4.27h-1.26v-4.2c0-1.2-.7-1.74-1.23-1.74-.75,0-1.26.41-1.58.81v5.12h-1.24v-6.35h1.24v.67c.39-.37.91-.67,1.59-.67,1.77,0,2.47,1.07,2.47,2.08Z"/>
      <path class="cls-1" d="M347.46,48.6c-.3.39-.75.9-1.77.9-1.14,0-1.19-.61-1.19-1.21v-4.84h-1.02v-.48h1.02v-1.6h1.24v1.6h1.33v.48h-1.33v4.59c0,.37-.09.89.35,1,.26.08.8-.04,1.11-.61l.26.17Z"/>
      <path class="cls-1" d="M354.95,46.23c0,2.27-1.33,3.27-2.96,3.27s-2.97-1-2.97-3.27,1.33-3.26,2.97-3.26,2.96,1.04,2.96,3.26ZM353.59,46.23c0-2.02-.52-2.98-1.6-2.98s-1.62.98-1.62,2.98.54,2.98,1.62,2.98,1.6-.9,1.6-2.98Z"/>
      <path class="cls-1" d="M367.59,46.23c0,2.27-1.33,3.27-2.96,3.27s-2.97-1-2.97-3.27,1.33-3.26,2.97-3.26,2.96,1.04,2.96,3.26ZM366.23,46.23c0-2.02-.52-2.98-1.6-2.98s-1.62.98-1.62,2.98.54,2.98,1.62,2.98,1.6-.9,1.6-2.98Z"/>
      <path class="cls-1" d="M375.19,45.05v4.27h-1.26v-4.2c0-1.2-.7-1.74-1.23-1.74-.75,0-1.26.41-1.58.81v5.12h-1.24v-6.35h1.24v.67c.39-.37.91-.67,1.59-.67,1.77,0,2.47,1.07,2.47,2.08Z"/>
      <path class="cls-1" d="M378.86,45.94v.29c0,2.33,2.08,4.11,4.02,1.8l.21.2c-.08.17-.77,1.27-2.56,1.27-1.92,0-3.04-1.42-3.04-3.27s1.12-3.26,3.04-3.26c2.29,0,2.57,1.79,2.57,2.49v.48h-4.24ZM378.89,45.46h2.71c-.02-1.38-.25-2.04-1.07-2.04s-1.48.44-1.64,2.04Z"/>
      <path class="cls-1" d="M392.5,42.99c1.03,0,1.68.48,2.05.95v-3.89h1.24v9.28h-1.24v-.76c-.36.48-1,.94-2.05.94-1.92,0-2.7-1.39-2.7-3.25s.78-3.27,2.7-3.27ZM394.56,47.93v-3.36c-1.44-2.12-3.38-1.29-3.38,1.69-.01,3,1.94,3.78,3.38,1.67Z"/>
      <path class="cls-1" d="M404,42.99l-3.41,9.1h-.51l1.04-2.76-3.04-6.34h1.38l2.26,4.72,1.77-4.72h.5Z"/>
      <path class="cls-1" d="M411.61,45.05v4.27h-1.26v-4.2c0-1.2-.7-1.74-1.23-1.74-.75,0-1.26.41-1.58.81v5.12h-1.24v-6.35h1.24v.67c.39-.37.91-.67,1.59-.67,1.77,0,2.47,1.07,2.47,2.08Z"/>
      <path class="cls-1" d="M419.08,44.85v4.48h-1.26v-.94c-.66,1.04-3.92,2.16-3.92-.67,0-2.21,2.25-1.98,3.92-2.61v-.62c0-.79-.32-1.17-1.14-1.17-.42,0-1.33-.04-1.95.89l-.35-.1c.55-1.01,1.52-1.18,2.28-1.18,1.79,0,2.42.75,2.42,1.93ZM417.82,48.05v-2.57c-1.26.41-2.56.41-2.56,2.13s1.44,1.78,2.56.44Z"/>
      <path class="cls-1" d="M430.73,45.05v4.27h-1.26v-4.2c0-1.2-.7-1.74-1.23-1.74-.77,0-1.23.36-1.55.82v5.11h-1.26v-4.2c0-1.2-.7-1.74-1.23-1.74-.75,0-1.26.41-1.58.81v5.12h-1.24v-6.35h1.24v.67c.39-.37.91-.67,1.59-.67,1.12,0,1.82.37,2.18.93.45-.53,1.07-.93,1.87-.93,1.77,0,2.48,1.07,2.48,2.08Z"/>
      <path class="cls-1" d="M434.58,41.13c0,.43-.35.79-.77.79s-.78-.35-.78-.79.35-.8.78-.8.77.36.77.8ZM434.42,49.33h-1.24v-6.35h1.24v6.35Z"/>
      <path class="cls-1" d="M442.01,48.16c-.29.46-1.01,1.34-2.24,1.34-1.83,0-2.9-1.41-2.9-3.26s1.07-3.27,2.9-3.27c1.33,0,2,.88,2.25,1.32l-.31.27c-1.39-2.12-3.49-1.29-3.49,1.69-.01,2.99,2.08,3.78,3.47,1.7l.32.21Z"/>
      <path class="cls-1" d="M444.2,48.54c0-.48.41-.84.88-.84.4,0,.63.17.81.42.19.29.24.66.24.86,0,.86-.45,1.6-1.42,2.04l-.12-.24c.56-.23,1.04-.77,1.04-1.29,0-.13-.12-.22-.24-.17-.1.04-.2.06-.31.06-.47,0-.88-.32-.88-.85Z"/>
      <path class="cls-1" d="M454.08,45.94v.29c0,2.33,2.08,4.11,4.02,1.8l.21.2c-.08.17-.77,1.27-2.56,1.27-1.92,0-3.04-1.42-3.04-3.27s1.12-3.26,3.04-3.26c2.29,0,2.57,1.79,2.57,2.49v.48h-4.24ZM454.12,45.46h2.71c-.02-1.38-.25-2.04-1.07-2.04s-1.48.44-1.64,2.04Z"/>
      <path class="cls-1" d="M465.68,42.97l-2.82,6.53-2.99-6.53h1.38l2.01,4.48,1.9-4.48h.51Z"/>
      <path class="cls-1" d="M473.04,46.23c0,2.27-1.33,3.27-2.96,3.27s-2.97-1-2.97-3.27,1.33-3.26,2.97-3.26,2.96,1.04,2.96,3.26ZM471.68,46.23c0-2.02-.52-2.98-1.6-2.98s-1.62.98-1.62,2.98.54,2.98,1.62,2.98,1.6-.9,1.6-2.98Z"/>
      <path class="cls-1" d="M476.58,49.33h-1.24v-9.28h1.24v9.28Z"/>
      <path class="cls-1" d="M484.68,42.97l-2.82,6.53-2.99-6.53h1.38l2.01,4.48,1.9-4.48h.51Z"/>
      <path class="cls-1" d="M488.53,41.13c0,.43-.35.79-.77.79s-.78-.35-.78-.79.35-.8.78-.8.77.36.77.8ZM488.37,49.33h-1.24v-6.35h1.24v6.35Z"/>
      <path class="cls-1" d="M496.14,45.05v4.27h-1.26v-4.2c0-1.2-.7-1.74-1.23-1.74-.75,0-1.26.41-1.58.81v5.12h-1.24v-6.35h1.24v.67c.39-.37.91-.67,1.59-.67,1.77,0,2.47,1.07,2.47,2.08Z"/>
      <path class="cls-1" d="M504.28,49.99c0,.91-.36,2.14-2.92,2.14-2.33,0-2.92-.84-2.92-1.64s.6-1.18,1.13-1.37c-.47,0-1.13-.44-1.13-1.29,0-1.1.86-1.43,1.12-1.5-.3-.33-.47-.77-.47-1.37,0-1.34,1.01-1.99,2.18-1.99.4,0,.78.08,1.12.23h1.72v.48h-1.08c.26.32.42.75.42,1.28,0,1.4-1.01,2-2.18,2-.56,0-1.12-.17-1.42-.39-.2.06-.87.17-.81.81.07.6,1.6.51,2.3.51,1.19,0,2.95-.15,2.95,2.09ZM503.86,50.21c0-.82-.72-1.09-1.87-1.09h-1.32c-.8,0-1.16.61-1.16,1.36,0,.65.54,1.33,1.84,1.33,2.15,0,2.5-.77,2.5-1.6ZM500.25,44.96c0,1.28.24,1.67,1.01,1.67s.95-.39.95-1.67-.17-1.7-.95-1.7-1.01.48-1.01,1.7Z"/>
      <path class="cls-1" d="M516.13,48.16c-.29.46-1.01,1.34-2.24,1.34-1.83,0-2.9-1.41-2.9-3.26s1.07-3.27,2.9-3.27c1.33,0,2,.88,2.25,1.32l-.31.27c-1.39-2.12-3.49-1.29-3.49,1.69-.01,2.99,2.08,3.78,3.47,1.7l.32.21Z"/>
      <path class="cls-1" d="M519.99,41.13c0,.43-.35.79-.77.79s-.78-.35-.78-.79.35-.8.78-.8.77.36.77.8ZM519.83,49.33h-1.24v-6.35h1.24v6.35Z"/>
      <path class="cls-1" d="M525.75,42.99v.76c-.91,0-1.89-.14-2.21,1.78v3.8h-1.24v-6.34h1.24v1.65c.36-1.36,1.12-1.65,2.21-1.65Z"/>
      <path class="cls-1" d="M532.31,48.16c-.29.46-1.01,1.34-2.24,1.34-1.83,0-2.9-1.41-2.9-3.26s1.07-3.27,2.9-3.27c1.33,0,2,.88,2.25,1.32l-.31.27c-1.39-2.12-3.49-1.29-3.49,1.69-.01,2.99,2.08,3.78,3.47,1.7l.32.21Z"/>
      <path class="cls-1" d="M535.86,49.33h-1.24v-9.28h1.24v9.28Z"/>
      <path class="cls-1" d="M539.53,45.94v.29c0,2.33,2.08,4.11,4.02,1.8l.21.2c-.08.17-.77,1.27-2.56,1.27-1.92,0-3.04-1.42-3.04-3.27s1.12-3.26,3.04-3.26c2.29,0,2.57,1.79,2.57,2.49v.48h-4.24ZM539.57,45.46h2.71c-.02-1.38-.25-2.04-1.07-2.04s-1.48.44-1.64,2.04Z"/>
      <path class="cls-1" d="M546.67,48.01c.21,0,.39.06.52.21.15.14.22.32.22.53,0,.2-.07.38-.22.53-.14.15-.31.23-.52.23-.2,0-.37-.08-.52-.23-.15-.15-.21-.33-.21-.53,0-.22.06-.39.21-.53.14-.15.31-.21.52-.21Z"/>
    </g>
  </g>
</svg>