<svg width="243" height="25" viewBox="0 0 243 25" fill="none" xmlns="http://www.w3.org/2000/svg">
<path d="M8.35293 23.5C8.35293 23.5667 8.18626 23.6833 7.85293 23.85C7.5196 24.0167 7.05293 24.1 6.45293 24.1H6.07793V10.225H8.35293V23.5ZM6.35293 16.475C6.30293 16.5917 6.21126 16.6833 6.07793 16.75C5.9446 16.8167 5.72793 16.8417 5.42793 16.825C5.16126 17.3917 4.82793 18.0083 4.42793 18.675C4.02793 19.325 3.5696 19.975 3.05293 20.625C2.55293 21.2583 1.9946 21.825 1.37793 22.325L1.10293 22.05C1.50293 21.4 1.86126 20.675 2.17793 19.875C2.4946 19.0583 2.76126 18.2417 2.97793 17.425C3.21126 16.6083 3.37793 15.875 3.47793 15.225L6.35293 16.475ZM5.15293 0.774999C6.05293 0.974999 6.76126 1.23333 7.27793 1.55C7.7946 1.85 8.15293 2.175 8.35293 2.525C8.55293 2.875 8.62793 3.20833 8.57793 3.525C8.52793 3.825 8.3946 4.075 8.17793 4.275C7.96126 4.475 7.6946 4.58333 7.37793 4.6C7.06126 4.6 6.73626 4.45833 6.40293 4.175C6.33626 3.625 6.15293 3.05 5.85293 2.45C5.55293 1.83333 5.23626 1.325 4.90293 0.924999L5.15293 0.774999ZM21.5029 23.45C21.4863 23.5167 21.3029 23.6417 20.9529 23.825C20.6196 24.025 20.1529 24.125 19.5529 24.125H19.1529V10.1H21.5029V23.45ZM24.0029 3.375C23.8863 3.50833 23.7113 3.58333 23.4779 3.6C23.2613 3.6 22.9779 3.55 22.6279 3.45C22.0446 3.65 21.3446 3.85 20.5279 4.05C19.7279 4.25 18.8863 4.43333 18.0029 4.6C17.1196 4.75 16.2446 4.875 15.3779 4.975L15.2529 4.6C15.9863 4.33333 16.7363 4.00833 17.5029 3.625C18.2863 3.225 19.0196 2.825 19.7029 2.425C20.4029 2.00833 20.9696 1.63333 21.4029 1.3L24.0029 3.375ZM17.1779 4.25C17.1113 4.41667 16.9029 4.51667 16.5529 4.55V11.5C16.5529 12.5833 16.5029 13.6917 16.4029 14.825C16.3196 15.9583 16.1113 17.0833 15.7779 18.2C15.4446 19.3 14.9279 20.3583 14.2279 21.375C13.5446 22.3917 12.5946 23.3083 11.3779 24.125L11.0779 23.825C12.0446 22.6583 12.7446 21.4083 13.1779 20.075C13.6279 18.725 13.9196 17.325 14.0529 15.875C14.1863 14.4083 14.2529 12.9417 14.2529 11.475V3.3L17.1779 4.25ZM22.0279 8.075C22.0279 8.075 22.1113 8.15 22.2779 8.3C22.4446 8.43333 22.6613 8.61667 22.9279 8.85C23.2113 9.06667 23.4946 9.30833 23.7779 9.575C24.0779 9.825 24.3529 10.0667 24.6029 10.3C24.5696 10.4333 24.4946 10.5333 24.3779 10.6C24.2613 10.6667 24.1113 10.7 23.9279 10.7H14.9529V9.975H20.6029L22.0279 8.075ZM12.2779 6.225C12.2279 6.35833 12.1279 6.475 11.9779 6.575C11.8279 6.65833 11.6196 6.69167 11.3529 6.675C10.9863 7.225 10.5279 7.85 9.97793 8.55C9.42793 9.23333 8.8696 9.86667 8.30293 10.45H7.85293C8.05293 9.95 8.2446 9.4 8.42793 8.8C8.61126 8.2 8.77793 7.59167 8.92793 6.975C9.07793 6.34167 9.20293 5.775 9.30293 5.275L12.2779 6.225ZM3.45293 5.45C4.23626 5.83333 4.8446 6.23333 5.27793 6.65C5.71126 7.06667 6.00293 7.475 6.15293 7.875C6.30293 8.25833 6.3446 8.60833 6.27793 8.925C6.22793 9.24167 6.0946 9.49167 5.87793 9.675C5.67793 9.85833 5.43626 9.95 5.15293 9.95C4.88626 9.93333 4.61126 9.78333 4.32793 9.5C4.31126 8.85 4.17793 8.16667 3.92793 7.45C3.6946 6.71667 3.43626 6.09167 3.15293 5.575L3.45293 5.45ZM9.12793 15.55C10.0279 15.9333 10.7363 16.35 11.2529 16.8C11.7696 17.25 12.1279 17.7 12.3279 18.15C12.5446 18.5833 12.6363 18.9833 12.6029 19.35C12.5863 19.7167 12.4863 20.0167 12.3029 20.25C12.1196 20.4667 11.8779 20.5833 11.5779 20.6C11.2946 20.6167 11.0029 20.4917 10.7029 20.225C10.6696 19.7083 10.5613 19.1833 10.3779 18.65C10.1946 18.1 9.96126 17.575 9.67793 17.075C9.41126 16.5583 9.13626 16.1 8.85293 15.7L9.12793 15.55ZM11.8779 8.325C11.8779 8.325 12.0113 8.43333 12.2779 8.65C12.5446 8.86667 12.8529 9.13333 13.2029 9.45C13.5696 9.75 13.8946 10.0333 14.1779 10.3C14.1113 10.5667 13.8946 10.7 13.5279 10.7H1.15293L0.95293 9.975H10.6279L11.8779 8.325ZM11.4779 12.125C11.4779 12.125 11.5946 12.2333 11.8279 12.45C12.0779 12.65 12.3696 12.9 12.7029 13.2C13.0529 13.4833 13.3613 13.7583 13.6279 14.025C13.5613 14.2917 13.3363 14.425 12.9529 14.425H1.57793L1.37793 13.7H10.2779L11.4779 12.125ZM11.2529 2.95C11.2529 2.95 11.3779 3.05833 11.6279 3.275C11.8779 3.475 12.1779 3.725 12.5279 4.025C12.8779 4.30833 13.1946 4.59167 13.4779 4.875C13.4113 5.14167 13.1946 5.275 12.8279 5.275H1.52793L1.32793 4.55H10.0529L11.2529 2.95ZM51.0779 6.75C51.0779 6.75 51.1613 6.83333 51.3279 7C51.4946 7.15 51.7029 7.35 51.9529 7.6C52.2196 7.85 52.4863 8.11667 52.7529 8.4C53.0196 8.68333 53.2613 8.95 53.4779 9.2C53.4113 9.46667 53.1863 9.6 52.8029 9.6H45.2779V8.875H49.7279L51.0779 6.75ZM47.1529 1.75C47.1363 1.91667 47.0613 2.05833 46.9279 2.175C46.7946 2.29167 46.5696 2.375 46.2529 2.425V19.9C46.2529 20.1833 46.3196 20.3917 46.4529 20.525C46.6029 20.6417 46.8863 20.7 47.3029 20.7H49.2279C49.6279 20.7 49.9779 20.7 50.2779 20.7C50.5946 20.6833 50.8279 20.6667 50.9779 20.65C51.1113 20.6333 51.2196 20.6 51.3029 20.55C51.4029 20.5 51.4946 20.4167 51.5779 20.3C51.6613 20.1667 51.7529 19.9167 51.8529 19.55C51.9696 19.1833 52.0863 18.7583 52.2029 18.275C52.3363 17.775 52.4613 17.275 52.5779 16.775H52.8779L52.9779 20.475C53.3279 20.6083 53.5613 20.7583 53.6779 20.925C53.8113 21.075 53.8779 21.2583 53.8779 21.475C53.8779 21.825 53.7363 22.1083 53.4529 22.325C53.1863 22.5417 52.7029 22.6917 52.0029 22.775C51.3029 22.875 50.3196 22.925 49.0529 22.925H46.8029C46.0529 22.925 45.4613 22.85 45.0279 22.7C44.6113 22.5667 44.3113 22.325 44.1279 21.975C43.9613 21.625 43.8779 21.1417 43.8779 20.525V1.375L47.1529 1.75ZM30.9029 20.875C31.3863 20.8083 32.0363 20.7167 32.8529 20.6C33.6863 20.4667 34.6279 20.3083 35.6779 20.125C36.7279 19.9417 37.8446 19.75 39.0279 19.55C40.2279 19.3333 41.4446 19.1083 42.6779 18.875L42.7279 19.2C41.6446 19.7167 40.2863 20.325 38.6529 21.025C37.0363 21.7083 35.0863 22.4917 32.8029 23.375C32.7529 23.525 32.6613 23.65 32.5279 23.75C32.4113 23.8667 32.2863 23.95 32.1529 24L30.9029 20.875ZM40.8279 1.75C40.8113 1.91667 40.7363 2.06667 40.6029 2.2C40.4696 2.31667 40.2363 2.4 39.9029 2.45V19.7C39.9029 19.7833 39.8113 19.8833 39.6279 20C39.4446 20.1167 39.2029 20.225 38.9029 20.325C38.6196 20.425 38.3196 20.475 38.0029 20.475H37.5529V1.425L40.8279 1.75ZM39.1779 8.875V9.6H31.6279L31.4029 8.875H39.1779ZM69.6029 0.649999C70.5696 0.649999 71.3279 0.758333 71.8779 0.974999C72.4446 1.175 72.8446 1.43333 73.0779 1.75C73.3279 2.05 73.4446 2.36667 73.4279 2.7C73.4113 3.01667 73.2946 3.29167 73.0779 3.525C72.8613 3.75833 72.5863 3.9 72.2529 3.95C71.9363 3.98333 71.5863 3.88333 71.2029 3.65C71.1196 3.13333 70.9029 2.60833 70.5529 2.075C70.2029 1.54167 69.8279 1.125 69.4279 0.824998L69.6029 0.649999ZM79.6529 3.9L80.9529 2.575L83.2779 4.8C83.1779 4.88333 83.0529 4.94167 82.9029 4.975C82.7696 5.00833 82.5779 5.04167 82.3279 5.075C82.0113 5.45833 81.5946 5.89167 81.0779 6.375C80.5613 6.84167 80.0779 7.23333 79.6279 7.55L79.3779 7.375C79.4446 7.04167 79.5113 6.66667 79.5779 6.25C79.6613 5.81667 79.7363 5.39167 79.8029 4.975C79.8696 4.54167 79.9113 4.18333 79.9279 3.9H79.6529ZM63.4029 2.6C63.7196 3.51667 63.8529 4.33333 63.8029 5.05C63.7696 5.76667 63.6196 6.36667 63.3529 6.85C63.1029 7.31667 62.7946 7.66667 62.4279 7.9C62.1946 8.03333 61.9279 8.11667 61.6279 8.15C61.3446 8.16667 61.0863 8.11667 60.8529 8C60.6196 7.88333 60.4529 7.7 60.3529 7.45C60.2196 7.06667 60.2446 6.73333 60.4279 6.45C60.6113 6.16667 60.8779 5.94167 61.2279 5.775C61.5279 5.60833 61.8196 5.36667 62.1029 5.05C62.3863 4.73333 62.6113 4.36667 62.7779 3.95C62.9613 3.53333 63.0363 3.09167 63.0029 2.625L63.4029 2.6ZM80.8529 3.9V4.625H63.0279V3.9H80.8529ZM72.9279 15.175V22.2H70.6029V15.175H72.9279ZM77.7279 15.175L78.8779 13.9L81.3779 15.8C81.2946 15.9 81.1613 16 80.9779 16.1C80.7946 16.1833 80.5779 16.25 80.3279 16.3V23.35C80.3279 23.4 80.2113 23.4667 79.9779 23.55C79.7613 23.65 79.5029 23.7417 79.2029 23.825C78.9029 23.9083 78.6196 23.95 78.3529 23.95H77.9779V15.175H77.7279ZM65.5529 23.325C65.5529 23.4083 65.4529 23.5083 65.2529 23.625C65.0529 23.7417 64.8029 23.85 64.5029 23.95C64.2029 24.05 63.8863 24.1 63.5529 24.1H63.2029V15.175V14.125L65.7279 15.175H78.8779V15.9H65.5529V23.325ZM79.0279 21.8V22.525H64.7529V21.8H79.0279ZM79.0279 18.45V19.175H64.7529V18.45H79.0279ZM75.6529 9.075L76.7779 7.9L79.1779 9.675C79.1113 9.75833 78.9946 9.85 78.8279 9.95C78.6613 10.0333 78.4696 10.1 78.2529 10.15V13.475C78.2529 13.525 78.1363 13.6 77.9029 13.7C77.6863 13.7833 77.4279 13.8667 77.1279 13.95C76.8279 14.0167 76.5529 14.05 76.3029 14.05H75.9029V9.075H75.6529ZM67.6279 13.65C67.6279 13.7167 67.5279 13.8083 67.3279 13.925C67.1279 14.025 66.8779 14.1167 66.5779 14.2C66.2779 14.2833 65.9613 14.325 65.6279 14.325H65.3029V9.1V8.1L67.7779 9.1H76.8029V9.825H67.6279V13.65ZM76.8279 4.975C76.8279 4.975 76.9613 5.075 77.2279 5.275C77.4946 5.45833 77.8029 5.69167 78.1529 5.975C78.5196 6.24167 78.8446 6.50833 79.1279 6.775C79.0779 7.04167 78.8613 7.175 78.4779 7.175H64.6029L64.4029 6.45H75.5779L76.8279 4.975ZM76.6529 12.375V13.1H66.7279V12.375H76.6529ZM97.0029 5.55H109.653L110.853 3.975C110.853 3.975 110.978 4.08333 111.228 4.3C111.478 4.5 111.778 4.75 112.128 5.05C112.478 5.33333 112.786 5.60833 113.053 5.875C112.986 6.14167 112.77 6.275 112.403 6.275H97.2029L97.0029 5.55ZM99.0529 9.05H103.353V9.75H99.0529V9.05ZM98.8029 13.925H103.103V14.65H98.8029V13.925ZM97.8279 9.05V8.225L99.8279 9.05H99.6779V16.075C99.6779 16.1417 99.5363 16.2583 99.2529 16.425C98.9863 16.5917 98.6113 16.675 98.1279 16.675H97.8279V9.05ZM102.228 9.05H102.053L102.953 8.125L104.828 9.55C104.778 9.6 104.686 9.66667 104.553 9.75C104.436 9.81667 104.295 9.86667 104.128 9.9V15.35C104.128 15.4167 104.036 15.4917 103.853 15.575C103.67 15.6583 103.453 15.7417 103.203 15.825C102.97 15.8917 102.753 15.925 102.553 15.925H102.228V9.05ZM108.203 1.875C109.003 1.95833 109.628 2.11667 110.078 2.35C110.545 2.56667 110.87 2.81667 111.053 3.1C111.236 3.38333 111.311 3.65833 111.278 3.925C111.245 4.19167 111.136 4.41667 110.953 4.6C110.77 4.76667 110.536 4.85833 110.253 4.875C109.97 4.89167 109.678 4.79167 109.378 4.575C109.328 4.14167 109.161 3.68333 108.878 3.2C108.595 2.71667 108.286 2.33333 107.953 2.05L108.203 1.875ZM95.5529 19.05C96.1196 18.95 96.9029 18.7833 97.9029 18.55C98.9196 18.3 100.07 18.0167 101.353 17.7C102.636 17.3667 103.953 17.025 105.303 16.675L105.378 17.025C104.478 17.475 103.37 18.0333 102.053 18.7C100.736 19.35 99.1779 20.075 97.3779 20.875C97.2946 21.2083 97.1113 21.4167 96.8279 21.5L95.5529 19.05ZM89.5779 8.1H94.9279L96.1029 6.375C96.1029 6.375 96.2196 6.49167 96.4529 6.725C96.6863 6.94167 96.9696 7.20833 97.3029 7.525C97.6363 7.84167 97.9279 8.14167 98.1779 8.425C98.1113 8.69167 97.8863 8.825 97.5029 8.825H89.7779L89.5779 8.1ZM92.4029 1.375L95.6279 1.675C95.6113 1.84167 95.5363 1.99167 95.4029 2.125C95.2696 2.25833 95.0363 2.34167 94.7029 2.375V17.725L92.4029 18.475V1.375ZM89.3029 18.7C89.7863 18.5667 90.4613 18.35 91.3279 18.05C92.2113 17.7333 93.2029 17.375 94.3029 16.975C95.4196 16.5583 96.5529 16.125 97.7029 15.675L97.8029 15.95C97.1029 16.5167 96.2113 17.2083 95.1279 18.025C94.0613 18.8417 92.7863 19.75 91.3029 20.75C91.2696 20.9 91.2029 21.0417 91.1029 21.175C91.0196 21.3083 90.9113 21.4 90.7779 21.45L89.3029 18.7ZM110.078 8.225L113.053 9.2C112.986 9.35 112.878 9.45833 112.728 9.525C112.595 9.59167 112.353 9.625 112.003 9.625C111.403 11.625 110.711 13.3833 109.928 14.9C109.145 16.4 108.236 17.7167 107.203 18.85C106.17 19.9667 104.986 20.9333 103.653 21.75C102.32 22.55 100.811 23.25 99.1279 23.85L98.9529 23.425C100.386 22.6917 101.678 21.875 102.828 20.975C103.995 20.075 105.028 19.0333 105.928 17.85C106.845 16.65 107.645 15.2667 108.328 13.7C109.011 12.1167 109.595 10.2917 110.078 8.225ZM104.878 1.2L107.953 1.55C107.936 1.71667 107.861 1.86667 107.728 2C107.595 2.11667 107.378 2.2 107.078 2.25C107.045 4.01667 107.07 5.8 107.153 7.6C107.253 9.38333 107.445 11.0917 107.728 12.725C108.011 14.3583 108.42 15.8333 108.953 17.15C109.503 18.45 110.195 19.4833 111.028 20.25C111.161 20.4 111.286 20.4833 111.403 20.5C111.52 20.5 111.628 20.3917 111.728 20.175C111.828 19.9583 111.945 19.6917 112.078 19.375C112.211 19.0417 112.345 18.6917 112.478 18.325C112.628 17.9417 112.745 17.5833 112.828 17.25L113.103 17.3L112.628 21.575C112.895 22.0417 113.061 22.475 113.128 22.875C113.195 23.2917 113.136 23.5833 112.953 23.75C112.653 23.9833 112.311 24.0667 111.928 24C111.561 23.95 111.186 23.7833 110.803 23.5C110.42 23.2333 110.07 22.9167 109.753 22.55C108.72 21.45 107.886 20.1417 107.253 18.625C106.62 17.1083 106.128 15.425 105.778 13.575C105.445 11.725 105.211 9.75833 105.078 7.675C104.945 5.59167 104.878 3.43333 104.878 1.2ZM140.672 1.025C141.455 1.20833 142.064 1.44167 142.497 1.725C142.947 2.00833 143.247 2.30833 143.397 2.625C143.547 2.94167 143.589 3.24167 143.522 3.525C143.455 3.80833 143.305 4.03333 143.072 4.2C142.855 4.36667 142.597 4.45 142.297 4.45C142.014 4.43333 141.722 4.29167 141.422 4.025C141.439 3.54167 141.339 3.03333 141.122 2.5C140.922 1.96667 140.689 1.525 140.422 1.175L140.672 1.025ZM137.672 23.5C137.672 23.5833 137.522 23.7083 137.222 23.875C136.939 24.0417 136.539 24.125 136.022 24.125H135.697V2.9H137.672V23.5ZM129.872 18.675C130.289 18.6083 130.872 18.5 131.622 18.35C132.372 18.2 133.214 18.025 134.147 17.825C135.097 17.625 136.072 17.4083 137.072 17.175L137.147 17.5C136.53 17.8667 135.747 18.3333 134.797 18.9C133.864 19.45 132.764 20.0583 131.497 20.725C131.447 20.8917 131.364 21.0333 131.247 21.15C131.147 21.25 131.03 21.3167 130.897 21.35L129.872 18.675ZM136.622 12.725V13.45H132.597V12.725H136.622ZM136.622 7.7V8.425H132.597V7.7H136.622ZM133.422 18.9C133.422 18.9333 133.28 18.9833 132.997 19.05C132.714 19.1167 132.322 19.15 131.822 19.15H131.522V2.9H133.422V18.9ZM137.597 1.2C137.597 1.2 137.73 1.30833 137.997 1.525C138.264 1.725 138.58 1.975 138.947 2.275C139.314 2.55833 139.647 2.84167 139.947 3.125C139.897 3.39167 139.68 3.525 139.297 3.525H130.197L129.997 2.8H136.297L137.597 1.2ZM153.522 11.95C153.472 12.0833 153.372 12.1917 153.222 12.275C153.089 12.3417 152.855 12.375 152.522 12.375C152.222 13.5083 151.822 14.6333 151.322 15.75C150.839 16.8667 150.222 17.95 149.472 19C148.739 20.0333 147.864 20.9833 146.847 21.85C145.83 22.7167 144.639 23.4583 143.272 24.075L143.047 23.75C144.597 22.8 145.889 21.65 146.922 20.3C147.955 18.9333 148.78 17.4667 149.397 15.9C150.03 14.3167 150.48 12.7417 150.747 11.175L153.522 11.95ZM149.747 1.35C149.73 1.51667 149.655 1.66667 149.522 1.8C149.405 1.91667 149.18 2 148.847 2.05C148.814 4.11667 148.797 6.11667 148.797 8.05C148.797 9.96667 148.864 11.75 148.997 13.4C149.147 15.0333 149.397 16.4833 149.747 17.75C150.114 19 150.639 20 151.322 20.75C151.455 20.9167 151.555 20.9917 151.622 20.975C151.705 20.9583 151.789 20.8333 151.872 20.6C152.039 20.2833 152.205 19.8583 152.372 19.325C152.555 18.7917 152.722 18.2667 152.872 17.75L153.172 17.8L152.772 21.65C153.072 22.1833 153.247 22.5917 153.297 22.875C153.364 23.1583 153.339 23.3833 153.222 23.55C152.972 23.8167 152.664 23.925 152.297 23.875C151.947 23.8417 151.589 23.7083 151.222 23.475C150.872 23.2417 150.564 22.9833 150.297 22.7C149.414 21.7667 148.73 20.575 148.247 19.125C147.78 17.675 147.447 16.0167 147.247 14.15C147.047 12.2833 146.922 10.25 146.872 8.05C146.839 5.83333 146.822 3.48333 146.822 0.999999L149.747 1.35ZM143.522 12.2L144.472 11.2L146.447 12.725C146.297 12.925 146.022 13.0583 145.622 13.125V20.45C145.622 20.5167 145.53 20.5917 145.347 20.675C145.164 20.7583 144.947 20.8417 144.697 20.925C144.464 20.9917 144.239 21.025 144.022 21.025H143.722V12.2H143.522ZM140.872 21.35C140.872 21.4 140.797 21.475 140.647 21.575C140.497 21.675 140.305 21.7667 140.072 21.85C139.839 21.9333 139.58 21.975 139.297 21.975H138.997V12.2V11.325L140.997 12.2H144.597V12.925H140.872V21.35ZM146.522 6.05C146.472 6.2 146.372 6.325 146.222 6.425C146.089 6.50833 145.889 6.55 145.622 6.55C145.339 7.11667 144.972 7.725 144.522 8.375C144.089 9.00833 143.614 9.6 143.097 10.15H142.647C142.897 9.46667 143.122 8.675 143.322 7.775C143.522 6.875 143.672 6.05833 143.772 5.325L146.522 6.05ZM149.722 3.05C150.655 3.48333 151.347 3.95 151.797 4.45C152.247 4.95 152.514 5.425 152.597 5.875C152.697 6.30833 152.664 6.675 152.497 6.975C152.347 7.275 152.122 7.45 151.822 7.5C151.522 7.55 151.205 7.425 150.872 7.125C150.822 6.69167 150.722 6.24167 150.572 5.775C150.422 5.29167 150.247 4.825 150.047 4.375C149.847 3.925 149.639 3.525 149.422 3.175L149.722 3.05ZM139.672 5.45C140.455 5.9 141.014 6.36667 141.347 6.85C141.68 7.31667 141.855 7.75 141.872 8.15C141.905 8.55 141.822 8.88333 141.622 9.15C141.439 9.4 141.197 9.53333 140.897 9.55C140.614 9.56667 140.33 9.41667 140.047 9.1C140.064 8.53333 139.997 7.925 139.847 7.275C139.714 6.60833 139.555 6.03333 139.372 5.55L139.672 5.45ZM144.597 19.425V20.15H140.047V19.425H144.597ZM144.597 15.65V16.375H140.047V15.65H144.597ZM151.272 8.075C151.272 8.075 151.405 8.18333 151.672 8.4C151.939 8.6 152.247 8.85833 152.597 9.175C152.964 9.475 153.289 9.76667 153.572 10.05C153.505 10.3167 153.28 10.45 152.897 10.45H138.222L138.022 9.725H150.022L151.272 8.075ZM145.272 3.025C145.272 3.025 145.38 3.125 145.597 3.325C145.814 3.50833 146.072 3.74167 146.372 4.025C146.689 4.29167 146.964 4.55 147.197 4.8C147.147 5.06667 146.93 5.2 146.547 5.2H138.497L138.297 4.475H144.197L145.272 3.025ZM171.597 2.4C171.73 4.75 171.997 6.9 172.397 8.85C172.814 10.8 173.439 12.5667 174.272 14.15C175.122 15.7167 176.255 17.1083 177.672 18.325C179.089 19.525 180.872 20.5583 183.022 21.425L182.972 21.725C182.355 21.825 181.839 22.0583 181.422 22.425C181.022 22.8083 180.739 23.3333 180.572 24C178.672 22.9667 177.114 21.7333 175.897 20.3C174.697 18.8667 173.764 17.25 173.097 15.45C172.447 13.6333 171.98 11.6417 171.697 9.475C171.414 7.29167 171.23 4.95 171.147 2.45L171.597 2.4ZM171.597 2.4C171.564 3.65 171.514 4.925 171.447 6.225C171.38 7.525 171.239 8.825 171.022 10.125C170.805 11.425 170.455 12.7083 169.972 13.975C169.505 15.225 168.855 16.45 168.022 17.65C167.189 18.8333 166.105 19.9667 164.772 21.05C163.455 22.1333 161.847 23.15 159.947 24.1L159.647 23.7C161.547 22.4167 163.089 21.075 164.272 19.675C165.455 18.2583 166.372 16.8 167.022 15.3C167.689 13.8 168.155 12.275 168.422 10.725C168.705 9.175 168.872 7.61667 168.922 6.05C168.972 4.46667 168.997 2.9 168.997 1.35L172.497 1.7C172.48 1.86667 172.405 2.01667 172.272 2.15C172.139 2.26667 171.914 2.35 171.597 2.4ZM196.372 7.425C196.372 7.425 196.489 7.525 196.722 7.725C196.955 7.925 197.239 8.16667 197.572 8.45C197.905 8.71667 198.197 8.98333 198.447 9.25C198.43 9.38333 198.364 9.48333 198.247 9.55C198.13 9.61667 197.989 9.65 197.822 9.65H191.297L191.097 8.925H195.197L196.372 7.425ZM194.997 2.675C196.114 3.04167 197.014 3.46667 197.697 3.95C198.38 4.41667 198.889 4.88333 199.222 5.35C199.572 5.81667 199.78 6.25833 199.847 6.675C199.914 7.09167 199.872 7.43333 199.722 7.7C199.572 7.96667 199.355 8.13333 199.072 8.2C198.789 8.25 198.472 8.15833 198.122 7.925C197.955 7.35833 197.68 6.76667 197.297 6.15C196.914 5.53333 196.489 4.94167 196.022 4.375C195.572 3.79167 195.139 3.28333 194.722 2.85L194.997 2.675ZM190.547 16.85C191.997 17.2167 193.18 17.6583 194.097 18.175C195.03 18.675 195.747 19.2 196.247 19.75C196.747 20.2833 197.072 20.7917 197.222 21.275C197.372 21.7583 197.38 22.1667 197.247 22.5C197.13 22.8333 196.914 23.05 196.597 23.15C196.28 23.25 195.905 23.1833 195.472 22.95C195.255 22.45 194.955 21.9333 194.572 21.4C194.189 20.85 193.755 20.3167 193.272 19.8C192.805 19.2833 192.314 18.7917 191.797 18.325C191.28 17.8583 190.789 17.4417 190.322 17.075L190.547 16.85ZM196.422 12.75L197.697 11.5L199.947 13.625C199.83 13.725 199.697 13.7917 199.547 13.825C199.397 13.8417 199.189 13.8667 198.922 13.9C198.605 14.5167 198.189 15.175 197.672 15.875C197.172 16.575 196.622 17.2583 196.022 17.925C195.439 18.575 194.847 19.1417 194.247 19.625L193.947 19.425C194.33 18.775 194.705 18.0583 195.072 17.275C195.439 16.475 195.772 15.6833 196.072 14.9C196.372 14.1 196.589 13.3833 196.722 12.75H196.422ZM195.697 2.425C195.28 3.30833 194.747 4.24167 194.097 5.225C193.447 6.19167 192.697 7.125 191.847 8.025C191.014 8.925 190.13 9.7 189.197 10.35L188.922 10.125C189.422 9.525 189.905 8.84167 190.372 8.075C190.855 7.29167 191.297 6.46667 191.697 5.6C192.114 4.73333 192.472 3.89167 192.772 3.075C193.089 2.25833 193.33 1.51667 193.497 0.85L196.697 1.9C196.647 2.05 196.547 2.175 196.397 2.275C196.264 2.35833 196.03 2.40833 195.697 2.425ZM197.472 12.75V13.475H189.772L189.547 12.75H197.472ZM205.897 20.25C205.764 20.45 205.489 20.5 205.072 20.4C204.589 20.8833 203.964 21.3667 203.197 21.85C202.43 22.3333 201.605 22.7583 200.722 23.125C199.839 23.5083 198.964 23.8167 198.097 24.05L197.897 23.7C198.58 23.3 199.255 22.8167 199.922 22.25C200.589 21.7 201.197 21.1167 201.747 20.5C202.314 19.8667 202.764 19.2667 203.097 18.7L205.897 20.25ZM202.847 18.55C202.847 18.6333 202.755 18.7333 202.572 18.85C202.405 18.9667 202.18 19.075 201.897 19.175C201.614 19.275 201.314 19.325 200.997 19.325H200.622V6.4V5.375L202.972 6.4H209.447V7.125H202.847V18.55ZM208.422 6.4L209.547 5.2L211.797 6.975C211.647 7.175 211.347 7.31667 210.897 7.4V18.45C210.897 18.5 210.789 18.5833 210.572 18.7C210.372 18.8 210.13 18.9 209.847 19C209.564 19.0833 209.289 19.125 209.022 19.125H208.647V6.4H208.422ZM206.497 19C207.747 19.1833 208.764 19.4583 209.547 19.825C210.347 20.175 210.955 20.5667 211.372 21C211.805 21.4333 212.072 21.85 212.172 22.25C212.289 22.65 212.28 23 212.147 23.3C212.014 23.6 211.789 23.7917 211.472 23.875C211.172 23.975 210.814 23.925 210.397 23.725C210.164 23.1917 209.814 22.65 209.347 22.1C208.897 21.55 208.397 21.025 207.847 20.525C207.297 20.0083 206.78 19.5667 206.297 19.2L206.497 19ZM207.097 3C206.73 3.65 206.297 4.33333 205.797 5.05C205.314 5.76667 204.839 6.35833 204.372 6.825H203.847C203.897 6.50833 203.939 6.125 203.972 5.675C204.022 5.225 204.064 4.76667 204.097 4.3C204.13 3.81667 204.155 3.38333 204.172 3H207.097ZM209.322 17.225V17.95H201.772V17.225H209.322ZM209.322 13.6V14.325H201.772V13.6H209.322ZM209.272 9.925V10.65H201.722V9.925H209.272ZM209.947 0.974999C209.947 0.974999 210.03 1.04167 210.197 1.175C210.38 1.30833 210.597 1.48333 210.847 1.7C211.114 1.91667 211.397 2.14167 211.697 2.375C211.997 2.60833 212.264 2.84167 212.497 3.075C212.43 3.34167 212.205 3.475 211.822 3.475H199.697L199.497 2.75H208.572L209.947 0.974999ZM225.997 5.55H238.647L239.847 3.975C239.847 3.975 239.972 4.08333 240.222 4.3C240.472 4.5 240.772 4.75 241.122 5.05C241.472 5.33333 241.78 5.60833 242.047 5.875C241.98 6.14167 241.764 6.275 241.397 6.275H226.197L225.997 5.55ZM228.047 9.05H232.347V9.75H228.047V9.05ZM227.797 13.925H232.097V14.65H227.797V13.925ZM226.822 9.05V8.225L228.822 9.05H228.672V16.075C228.672 16.1417 228.53 16.2583 228.247 16.425C227.98 16.5917 227.605 16.675 227.122 16.675H226.822V9.05ZM231.222 9.05H231.047L231.947 8.125L233.822 9.55C233.772 9.6 233.68 9.66667 233.547 9.75C233.43 9.81667 233.289 9.86667 233.122 9.9V15.35C233.122 15.4167 233.03 15.4917 232.847 15.575C232.664 15.6583 232.447 15.7417 232.197 15.825C231.964 15.8917 231.747 15.925 231.547 15.925H231.222V9.05ZM237.197 1.875C237.997 1.95833 238.622 2.11667 239.072 2.35C239.539 2.56667 239.864 2.81667 240.047 3.1C240.23 3.38333 240.305 3.65833 240.272 3.925C240.239 4.19167 240.13 4.41667 239.947 4.6C239.764 4.76667 239.53 4.85833 239.247 4.875C238.964 4.89167 238.672 4.79167 238.372 4.575C238.322 4.14167 238.155 3.68333 237.872 3.2C237.589 2.71667 237.28 2.33333 236.947 2.05L237.197 1.875ZM224.547 19.05C225.114 18.95 225.897 18.7833 226.897 18.55C227.914 18.3 229.064 18.0167 230.347 17.7C231.63 17.3667 232.947 17.025 234.297 16.675L234.372 17.025C233.472 17.475 232.364 18.0333 231.047 18.7C229.73 19.35 228.172 20.075 226.372 20.875C226.289 21.2083 226.105 21.4167 225.822 21.5L224.547 19.05ZM218.572 8.1H223.922L225.097 6.375C225.097 6.375 225.214 6.49167 225.447 6.725C225.68 6.94167 225.964 7.20833 226.297 7.525C226.63 7.84167 226.922 8.14167 227.172 8.425C227.105 8.69167 226.88 8.825 226.497 8.825H218.772L218.572 8.1ZM221.397 1.375L224.622 1.675C224.605 1.84167 224.53 1.99167 224.397 2.125C224.264 2.25833 224.03 2.34167 223.697 2.375V17.725L221.397 18.475V1.375ZM218.297 18.7C218.78 18.5667 219.455 18.35 220.322 18.05C221.205 17.7333 222.197 17.375 223.297 16.975C224.414 16.5583 225.547 16.125 226.697 15.675L226.797 15.95C226.097 16.5167 225.205 17.2083 224.122 18.025C223.055 18.8417 221.78 19.75 220.297 20.75C220.264 20.9 220.197 21.0417 220.097 21.175C220.014 21.3083 219.905 21.4 219.772 21.45L218.297 18.7ZM239.072 8.225L242.047 9.2C241.98 9.35 241.872 9.45833 241.722 9.525C241.589 9.59167 241.347 9.625 240.997 9.625C240.397 11.625 239.705 13.3833 238.922 14.9C238.139 16.4 237.23 17.7167 236.197 18.85C235.164 19.9667 233.98 20.9333 232.647 21.75C231.314 22.55 229.805 23.25 228.122 23.85L227.947 23.425C229.38 22.6917 230.672 21.875 231.822 20.975C232.989 20.075 234.022 19.0333 234.922 17.85C235.839 16.65 236.639 15.2667 237.322 13.7C238.005 12.1167 238.589 10.2917 239.072 8.225ZM233.872 1.2L236.947 1.55C236.93 1.71667 236.855 1.86667 236.722 2C236.589 2.11667 236.372 2.2 236.072 2.25C236.039 4.01667 236.064 5.8 236.147 7.6C236.247 9.38333 236.439 11.0917 236.722 12.725C237.005 14.3583 237.414 15.8333 237.947 17.15C238.497 18.45 239.189 19.4833 240.022 20.25C240.155 20.4 240.28 20.4833 240.397 20.5C240.514 20.5 240.622 20.3917 240.722 20.175C240.822 19.9583 240.939 19.6917 241.072 19.375C241.205 19.0417 241.339 18.6917 241.472 18.325C241.622 17.9417 241.739 17.5833 241.822 17.25L242.097 17.3L241.622 21.575C241.889 22.0417 242.055 22.475 242.122 22.875C242.189 23.2917 242.13 23.5833 241.947 23.75C241.647 23.9833 241.305 24.0667 240.922 24C240.555 23.95 240.18 23.7833 239.797 23.5C239.414 23.2333 239.064 22.9167 238.747 22.55C237.714 21.45 236.88 20.1417 236.247 18.625C235.614 17.1083 235.122 15.425 234.772 13.575C234.439 11.725 234.205 9.75833 234.072 7.675C233.939 5.59167 233.872 3.43333 233.872 1.2Z" fill="#6E4D3B"/>
</svg>
