<svg width="511" height="50" viewBox="0 0 511 50" fill="none" xmlns="http://www.w3.org/2000/svg">
<path d="M15.9941 48.12C15.9941 48.2587 15.6474 48.5013 14.9541 48.848C14.2608 49.1947 13.2901 49.368 12.0421 49.368H11.2621V20.508H15.9941V48.12ZM11.8341 33.508C11.7301 33.7507 11.5394 33.9413 11.2621 34.08C10.9848 34.2187 10.5341 34.2707 9.91009 34.236C9.35542 35.4147 8.66209 36.6973 7.83009 38.084C6.99809 39.436 6.04475 40.788 4.97009 42.14C3.93009 43.4573 2.76875 44.636 1.48609 45.676L0.914088 45.104C1.74609 43.752 2.49142 42.244 3.15009 40.58C3.80875 38.8813 4.36342 37.1827 4.81409 35.484C5.29942 33.7853 5.64609 32.26 5.85409 30.908L11.8341 33.508ZM9.33809 0.851998C11.2101 1.268 12.6834 1.80533 13.7581 2.464C14.8328 3.088 15.5781 3.764 15.9941 4.492C16.4101 5.22 16.5661 5.91333 16.4621 6.572C16.3581 7.196 16.0808 7.716 15.6301 8.132C15.1794 8.548 14.6248 8.77333 13.9661 8.808C13.3074 8.808 12.6314 8.51333 11.9381 7.924C11.7994 6.78 11.4181 5.584 10.7941 4.336C10.1701 3.05333 9.51142 1.996 8.81809 1.164L9.33809 0.851998ZM43.3461 48.016C43.3114 48.1547 42.9301 48.4147 42.2021 48.796C41.5088 49.212 40.5381 49.42 39.2901 49.42H38.4581V20.248H43.3461V48.016ZM48.5461 6.26C48.3034 6.53733 47.9394 6.69333 47.4541 6.728C47.0034 6.728 46.4141 6.624 45.6861 6.416C44.4728 6.832 43.0168 7.248 41.3181 7.664C39.6541 8.08 37.9034 8.46133 36.0661 8.808C34.2288 9.12 32.4088 9.38 30.6061 9.588L30.3461 8.808C31.8714 8.25333 33.4314 7.57733 35.0261 6.78C36.6554 5.948 38.1808 5.116 39.6021 4.284C41.0581 3.41733 42.2368 2.63733 43.1381 1.944L48.5461 6.26ZM34.3501 8.08C34.2114 8.42666 33.7781 8.63466 33.0501 8.704V23.16C33.0501 25.4133 32.9461 27.7187 32.7381 30.076C32.5648 32.4333 32.1314 34.7733 31.4381 37.096C30.7448 39.384 29.6701 41.5853 28.2141 43.7C26.7928 45.8147 24.8168 47.7213 22.2861 49.42L21.6621 48.796C23.6728 46.3693 25.1288 43.7693 26.0301 40.996C26.9661 38.188 27.5728 35.276 27.8501 32.26C28.1274 29.2093 28.2661 26.1587 28.2661 23.108V6.104L34.3501 8.08ZM44.4381 16.036C44.4381 16.036 44.6114 16.192 44.9581 16.504C45.3048 16.7813 45.7554 17.1627 46.3101 17.648C46.8994 18.0987 47.4888 18.6013 48.0781 19.156C48.7021 19.676 49.2741 20.1787 49.7941 20.664C49.7248 20.9413 49.5688 21.1493 49.3261 21.288C49.0834 21.4267 48.7714 21.496 48.3901 21.496H29.7221V19.988H41.4741L44.4381 16.036ZM24.1581 12.188C24.0541 12.4653 23.8461 12.708 23.5341 12.916C23.2221 13.0893 22.7888 13.1587 22.2341 13.124C21.4714 14.268 20.5181 15.568 19.3741 17.024C18.2301 18.4453 17.0688 19.7627 15.8901 20.976H14.9541C15.3701 19.936 15.7688 18.792 16.1501 17.544C16.5314 16.296 16.8781 15.0307 17.1901 13.748C17.5021 12.4307 17.7621 11.252 17.9701 10.212L24.1581 12.188ZM5.80209 10.576C7.43142 11.3733 8.69675 12.2053 9.59809 13.072C10.4994 13.9387 11.1061 14.788 11.4181 15.62C11.7301 16.4173 11.8168 17.1453 11.6781 17.804C11.5741 18.4627 11.2968 18.9827 10.8461 19.364C10.4301 19.7453 9.92742 19.936 9.33809 19.936C8.78342 19.9013 8.21142 19.5893 7.62209 19C7.58742 17.648 7.31009 16.2267 6.79009 14.736C6.30475 13.2107 5.76742 11.9107 5.17809 10.836L5.80209 10.576ZM17.6061 31.584C19.4781 32.3813 20.9514 33.248 22.0261 34.184C23.1008 35.12 23.8461 36.056 24.2621 36.992C24.7128 37.8933 24.9034 38.7253 24.8341 39.488C24.7994 40.2507 24.5914 40.8747 24.2101 41.36C23.8288 41.8107 23.3261 42.0533 22.7021 42.088C22.1128 42.1227 21.5061 41.8627 20.8821 41.308C20.8128 40.2333 20.5874 39.1413 20.2061 38.032C19.8248 36.888 19.3394 35.796 18.7501 34.756C18.1954 33.6813 17.6234 32.728 17.0341 31.896L17.6061 31.584ZM23.3261 16.556C23.3261 16.556 23.6034 16.7813 24.1581 17.232C24.7128 17.6827 25.3541 18.2373 26.0821 18.896C26.8448 19.52 27.5208 20.1093 28.1101 20.664C27.9714 21.2187 27.5208 21.496 26.7581 21.496H1.01809L0.602088 19.988H20.7261L23.3261 16.556ZM22.4941 24.46C22.4941 24.46 22.7368 24.6853 23.2221 25.136C23.7421 25.552 24.3488 26.072 25.0421 26.696C25.7701 27.2853 26.4114 27.8573 26.9661 28.412C26.8274 28.9667 26.3594 29.244 25.5621 29.244H1.90209L1.48609 27.736H19.9981L22.4941 24.46ZM22.0261 5.376C22.0261 5.376 22.2861 5.60133 22.8061 6.052C23.3261 6.468 23.9501 6.988 24.6781 7.612C25.4061 8.20133 26.0648 8.79066 26.6541 9.38C26.5154 9.93466 26.0648 10.212 25.3021 10.212H1.79809L1.38209 8.704H19.5301L22.0261 5.376ZM105.902 13.28C105.902 13.28 106.075 13.4533 106.422 13.8C106.769 14.112 107.202 14.528 107.722 15.048C108.277 15.568 108.831 16.1227 109.386 16.712C109.941 17.3013 110.443 17.856 110.894 18.376C110.755 18.9307 110.287 19.208 109.49 19.208H93.8381V17.7H103.094L105.902 13.28ZM97.7381 2.88C97.7034 3.22667 97.5474 3.52133 97.2701 3.764C96.9928 4.00667 96.5248 4.18 95.8661 4.284V40.632C95.8661 41.2213 96.0048 41.6547 96.2821 41.932C96.5941 42.1747 97.1834 42.296 98.0501 42.296H102.054C102.886 42.296 103.614 42.296 104.238 42.296C104.897 42.2613 105.382 42.2267 105.694 42.192C105.971 42.1573 106.197 42.088 106.37 41.984C106.578 41.88 106.769 41.7067 106.942 41.464C107.115 41.1867 107.306 40.6667 107.514 39.904C107.757 39.1413 107.999 38.2573 108.242 37.252C108.519 36.212 108.779 35.172 109.022 34.132H109.646L109.854 41.828C110.582 42.1053 111.067 42.4173 111.31 42.764C111.587 43.076 111.726 43.4573 111.726 43.908C111.726 44.636 111.431 45.2253 110.842 45.676C110.287 46.1267 109.282 46.4387 107.826 46.612C106.37 46.82 104.325 46.924 101.69 46.924H97.0101C95.4501 46.924 94.2194 46.768 93.3181 46.456C92.4514 46.1787 91.8274 45.676 91.4461 44.948C91.0994 44.22 90.9261 43.2147 90.9261 41.932V2.1L97.7381 2.88ZM63.9381 42.66C64.9434 42.5213 66.2954 42.3307 67.9941 42.088C69.7274 41.8107 71.6861 41.4813 73.8701 41.1C76.0541 40.7187 78.3768 40.32 80.8381 39.904C83.3341 39.4533 85.8648 38.9853 88.4301 38.5L88.5341 39.176C86.2808 40.2507 83.4554 41.516 80.0581 42.972C76.6954 44.3933 72.6394 46.0227 67.8901 47.86C67.7861 48.172 67.5954 48.432 67.3181 48.64C67.0754 48.8827 66.8154 49.056 66.5381 49.16L63.9381 42.66ZM84.5821 2.88C84.5474 3.22667 84.3914 3.53867 84.1141 3.816C83.8368 4.05866 83.3514 4.232 82.6581 4.336V40.216C82.6581 40.3893 82.4674 40.5973 82.0861 40.84C81.7048 41.0827 81.2021 41.308 80.5781 41.516C79.9888 41.724 79.3648 41.828 78.7061 41.828H77.7701V2.204L84.5821 2.88ZM81.1501 17.7V19.208H65.4461L64.9781 17.7H81.1501ZM145.474 0.591998C147.485 0.591998 149.062 0.817332 150.206 1.268C151.385 1.684 152.217 2.22133 152.702 2.88C153.222 3.504 153.465 4.16266 153.43 4.856C153.395 5.51467 153.153 6.08667 152.702 6.572C152.251 7.05733 151.679 7.352 150.986 7.456C150.327 7.52533 149.599 7.31733 148.802 6.832C148.629 5.75733 148.178 4.66533 147.45 3.556C146.722 2.44666 145.942 1.58 145.11 0.955997L145.474 0.591998ZM166.378 7.352L169.082 4.596L173.918 9.224C173.71 9.39733 173.45 9.51866 173.138 9.588C172.861 9.65733 172.462 9.72667 171.942 9.796C171.283 10.5933 170.417 11.4947 169.342 12.5C168.267 13.4707 167.262 14.2853 166.326 14.944L165.806 14.58C165.945 13.8867 166.083 13.1067 166.222 12.24C166.395 11.3387 166.551 10.4547 166.69 9.588C166.829 8.68667 166.915 7.94133 166.95 7.352H166.378ZM132.578 4.648C133.237 6.55467 133.514 8.25333 133.41 9.744C133.341 11.2347 133.029 12.4827 132.474 13.488C131.954 14.4587 131.313 15.1867 130.55 15.672C130.065 15.9493 129.51 16.1227 128.886 16.192C128.297 16.2267 127.759 16.1227 127.274 15.88C126.789 15.6373 126.442 15.256 126.234 14.736C125.957 13.9387 126.009 13.2453 126.39 12.656C126.771 12.0667 127.326 11.5987 128.054 11.252C128.678 10.9053 129.285 10.4027 129.874 9.744C130.463 9.08533 130.931 8.32266 131.278 7.456C131.659 6.58933 131.815 5.67066 131.746 4.7L132.578 4.648ZM168.874 7.352V8.86H131.798V7.352H168.874ZM152.39 30.804V45.416H147.554V30.804H152.39ZM162.374 30.804L164.766 28.152L169.966 32.104C169.793 32.312 169.515 32.52 169.134 32.728C168.753 32.9013 168.302 33.04 167.782 33.144V47.808C167.782 47.912 167.539 48.0507 167.054 48.224C166.603 48.432 166.066 48.6227 165.442 48.796C164.818 48.9693 164.229 49.056 163.674 49.056H162.894V30.804H162.374ZM137.05 47.756C137.05 47.9293 136.842 48.1373 136.426 48.38C136.01 48.6227 135.49 48.848 134.866 49.056C134.242 49.264 133.583 49.368 132.89 49.368H132.162V30.804V28.62L137.414 30.804H164.766V32.312H137.05V47.756ZM165.078 44.584V46.092H135.386V44.584H165.078ZM165.078 37.616V39.124H135.386V37.616H165.078ZM158.058 18.116L160.398 15.672L165.39 19.364C165.251 19.5373 165.009 19.728 164.662 19.936C164.315 20.1093 163.917 20.248 163.466 20.352V27.268C163.466 27.372 163.223 27.528 162.738 27.736C162.287 27.9093 161.75 28.0827 161.126 28.256C160.502 28.3947 159.93 28.464 159.41 28.464H158.578V18.116H158.058ZM141.366 27.632C141.366 27.7707 141.158 27.9613 140.742 28.204C140.326 28.412 139.806 28.6027 139.182 28.776C138.558 28.9493 137.899 29.036 137.206 29.036H136.53V18.168V16.088L141.678 18.168H160.45V19.676H141.366V27.632ZM160.502 9.588C160.502 9.588 160.779 9.796 161.334 10.212C161.889 10.5933 162.53 11.0787 163.258 11.668C164.021 12.2227 164.697 12.7773 165.286 13.332C165.182 13.8867 164.731 14.164 163.934 14.164H135.074L134.658 12.656H157.902L160.502 9.588ZM160.138 24.98V26.488H139.494V24.98H160.138ZM203.506 10.784H229.818L232.314 7.508C232.314 7.508 232.574 7.73333 233.094 8.184C233.614 8.6 234.238 9.12 234.966 9.744C235.694 10.3333 236.335 10.9053 236.89 11.46C236.751 12.0147 236.301 12.292 235.538 12.292H203.922L203.506 10.784ZM207.77 18.064H216.714V19.52H207.77V18.064ZM207.25 28.204H216.194V29.712H207.25V28.204ZM205.222 18.064V16.348L209.382 18.064H209.07V32.676C209.07 32.8147 208.775 33.0573 208.186 33.404C207.631 33.7507 206.851 33.924 205.846 33.924H205.222V18.064ZM214.374 18.064H214.01L215.882 16.14L219.782 19.104C219.678 19.208 219.487 19.3467 219.21 19.52C218.967 19.6587 218.673 19.7627 218.326 19.832V31.168C218.326 31.3067 218.135 31.4627 217.754 31.636C217.373 31.8093 216.922 31.9827 216.402 32.156C215.917 32.2947 215.466 32.364 215.05 32.364H214.374V18.064ZM226.802 3.14C228.466 3.31333 229.766 3.64267 230.702 4.128C231.673 4.57866 232.349 5.09866 232.73 5.688C233.111 6.27733 233.267 6.84933 233.198 7.404C233.129 7.95867 232.903 8.42667 232.522 8.808C232.141 9.15466 231.655 9.34533 231.066 9.38C230.477 9.41467 229.87 9.20667 229.246 8.756C229.142 7.85466 228.795 6.90133 228.206 5.896C227.617 4.89067 226.975 4.09333 226.282 3.504L226.802 3.14ZM200.49 38.864C201.669 38.656 203.298 38.3093 205.378 37.824C207.493 37.304 209.885 36.7147 212.554 36.056C215.223 35.3627 217.962 34.652 220.77 33.924L220.926 34.652C219.054 35.588 216.749 36.7493 214.01 38.136C211.271 39.488 208.03 40.996 204.286 42.66C204.113 43.3533 203.731 43.7867 203.142 43.96L200.49 38.864ZM188.062 16.088H199.19L201.634 12.5C201.634 12.5 201.877 12.7427 202.362 13.228C202.847 13.6787 203.437 14.2333 204.13 14.892C204.823 15.5507 205.43 16.1747 205.95 16.764C205.811 17.3187 205.343 17.596 204.546 17.596H188.478L188.062 16.088ZM193.938 2.1L200.646 2.724C200.611 3.07067 200.455 3.38267 200.178 3.66C199.901 3.93733 199.415 4.11066 198.722 4.18V36.108L193.938 37.668V2.1ZM187.49 38.136C188.495 37.8587 189.899 37.408 191.702 36.784C193.539 36.1253 195.602 35.38 197.89 34.548C200.213 33.6813 202.57 32.78 204.962 31.844L205.17 32.416C203.714 33.5947 201.859 35.0333 199.606 36.732C197.387 38.4307 194.735 40.32 191.65 42.4C191.581 42.712 191.442 43.0067 191.234 43.284C191.061 43.5613 190.835 43.752 190.558 43.856L187.49 38.136ZM230.702 16.348L236.89 18.376C236.751 18.688 236.526 18.9133 236.214 19.052C235.937 19.1907 235.434 19.26 234.706 19.26C233.458 23.42 232.019 27.0773 230.39 30.232C228.761 33.352 226.871 36.0907 224.722 38.448C222.573 40.7707 220.111 42.7813 217.338 44.48C214.565 46.144 211.427 47.6 207.926 48.848L207.562 47.964C210.543 46.4387 213.23 44.74 215.622 42.868C218.049 40.996 220.198 38.8293 222.07 36.368C223.977 33.872 225.641 30.9947 227.062 27.736C228.483 24.4427 229.697 20.6467 230.702 16.348ZM219.886 1.736L226.282 2.464C226.247 2.81067 226.091 3.12267 225.814 3.4C225.537 3.64266 225.086 3.816 224.462 3.92C224.393 7.59467 224.445 11.304 224.618 15.048C224.826 18.7573 225.225 22.3107 225.814 25.708C226.403 29.1053 227.253 32.1733 228.362 34.912C229.506 37.616 230.945 39.7653 232.678 41.36C232.955 41.672 233.215 41.8453 233.458 41.88C233.701 41.88 233.926 41.6547 234.134 41.204C234.342 40.7533 234.585 40.1987 234.862 39.54C235.139 38.8467 235.417 38.1187 235.694 37.356C236.006 36.5587 236.249 35.8133 236.422 35.12L236.994 35.224L236.006 44.116C236.561 45.0867 236.907 45.988 237.046 46.82C237.185 47.6867 237.063 48.2933 236.682 48.64C236.058 49.1253 235.347 49.2987 234.55 49.16C233.787 49.056 233.007 48.7093 232.21 48.12C231.413 47.5653 230.685 46.9067 230.026 46.144C227.877 43.856 226.143 41.1347 224.826 37.98C223.509 34.8253 222.486 31.324 221.758 27.476C221.065 23.628 220.579 19.5373 220.302 15.204C220.025 10.8707 219.886 6.38133 219.886 1.736ZM296.418 1.372C298.047 1.75333 299.313 2.23866 300.214 2.828C301.15 3.41733 301.774 4.04133 302.086 4.7C302.398 5.35866 302.485 5.98266 302.346 6.572C302.207 7.16133 301.895 7.62933 301.41 7.976C300.959 8.32267 300.422 8.496 299.798 8.496C299.209 8.46133 298.602 8.16667 297.978 7.612C298.013 6.60667 297.805 5.54933 297.354 4.44C296.938 3.33066 296.453 2.412 295.898 1.684L296.418 1.372ZM290.178 48.12C290.178 48.2933 289.866 48.5533 289.242 48.9C288.653 49.2467 287.821 49.42 286.746 49.42H286.07V5.272H290.178V48.12ZM273.954 38.084C274.821 37.9453 276.034 37.72 277.594 37.408C279.154 37.096 280.905 36.732 282.846 36.316C284.822 35.9 286.85 35.4493 288.93 34.964L289.086 35.64C287.803 36.4027 286.174 37.3733 284.198 38.552C282.257 39.696 279.969 40.9613 277.334 42.348C277.23 42.6947 277.057 42.9893 276.814 43.232C276.606 43.44 276.363 43.5787 276.086 43.648L273.954 38.084ZM287.994 25.708V27.216H279.622V25.708H287.994ZM287.994 15.256V16.764H279.622V15.256H287.994ZM281.338 38.552C281.338 38.6213 281.043 38.7253 280.454 38.864C279.865 39.0027 279.05 39.072 278.01 39.072H277.386V5.272H281.338V38.552ZM290.022 1.736C290.022 1.736 290.299 1.96133 290.854 2.412C291.409 2.828 292.067 3.348 292.83 3.972C293.593 4.56133 294.286 5.15067 294.91 5.74C294.806 6.29466 294.355 6.572 293.558 6.572H274.63L274.214 5.064H287.318L290.022 1.736ZM323.146 24.096C323.042 24.3733 322.834 24.5987 322.522 24.772C322.245 24.9107 321.759 24.98 321.066 24.98C320.442 27.3373 319.61 29.6773 318.57 32C317.565 34.3227 316.282 36.576 314.722 38.76C313.197 40.9093 311.377 42.8853 309.262 44.688C307.147 46.4907 304.669 48.0333 301.826 49.316L301.358 48.64C304.582 46.664 307.269 44.272 309.418 41.464C311.567 38.6213 313.283 35.5707 314.566 32.312C315.883 29.0187 316.819 25.7427 317.374 22.484L323.146 24.096ZM315.294 2.048C315.259 2.39466 315.103 2.70666 314.826 2.984C314.583 3.22666 314.115 3.4 313.422 3.504C313.353 7.80267 313.318 11.9627 313.318 15.984C313.318 19.9707 313.457 23.68 313.734 27.112C314.046 30.5093 314.566 33.5253 315.294 36.16C316.057 38.76 317.149 40.84 318.57 42.4C318.847 42.7467 319.055 42.9027 319.194 42.868C319.367 42.8333 319.541 42.5733 319.714 42.088C320.061 41.4293 320.407 40.5453 320.754 39.436C321.135 38.3267 321.482 37.2347 321.794 36.16L322.418 36.264L321.586 44.272C322.21 45.3813 322.574 46.2307 322.678 46.82C322.817 47.4093 322.765 47.8773 322.522 48.224C322.002 48.7787 321.361 49.004 320.598 48.9C319.87 48.8307 319.125 48.5533 318.362 48.068C317.634 47.5827 316.993 47.0453 316.438 46.456C314.601 44.5147 313.179 42.036 312.174 39.02C311.203 36.004 310.51 32.5547 310.094 28.672C309.678 24.7893 309.418 20.56 309.314 15.984C309.245 11.3733 309.21 6.48533 309.21 1.32L315.294 2.048ZM302.346 24.616L304.322 22.536L308.43 25.708C308.118 26.124 307.546 26.4013 306.714 26.54V41.776C306.714 41.9147 306.523 42.0707 306.142 42.244C305.761 42.4173 305.31 42.5907 304.79 42.764C304.305 42.9027 303.837 42.972 303.386 42.972H302.762V24.616H302.346ZM296.834 43.648C296.834 43.752 296.678 43.908 296.366 44.116C296.054 44.324 295.655 44.5147 295.17 44.688C294.685 44.8613 294.147 44.948 293.558 44.948H292.934V24.616V22.796L297.094 24.616H304.582V26.124H296.834V43.648ZM308.586 11.824C308.482 12.136 308.274 12.396 307.962 12.604C307.685 12.7773 307.269 12.864 306.714 12.864C306.125 14.0427 305.362 15.308 304.426 16.66C303.525 17.9773 302.537 19.208 301.462 20.352H300.526C301.046 18.9307 301.514 17.284 301.93 15.412C302.346 13.54 302.658 11.8413 302.866 10.316L308.586 11.824ZM315.242 5.584C317.183 6.48533 318.622 7.456 319.558 8.496C320.494 9.536 321.049 10.524 321.222 11.46C321.43 12.3613 321.361 13.124 321.014 13.748C320.702 14.372 320.234 14.736 319.61 14.84C318.986 14.944 318.327 14.684 317.634 14.06C317.53 13.1587 317.322 12.2227 317.01 11.252C316.698 10.2467 316.334 9.276 315.918 8.34C315.502 7.404 315.069 6.572 314.618 5.844L315.242 5.584ZM294.338 10.576C295.967 11.512 297.129 12.4827 297.822 13.488C298.515 14.4587 298.879 15.36 298.914 16.192C298.983 17.024 298.81 17.7173 298.394 18.272C298.013 18.792 297.51 19.0693 296.886 19.104C296.297 19.1387 295.707 18.8267 295.118 18.168C295.153 16.9893 295.014 15.724 294.702 14.372C294.425 12.9853 294.095 11.7893 293.714 10.784L294.338 10.576ZM304.582 39.644V41.152H295.118V39.644H304.582ZM304.582 31.792V33.3H295.118V31.792H304.582ZM318.466 16.036C318.466 16.036 318.743 16.2613 319.298 16.712C319.853 17.128 320.494 17.6653 321.222 18.324C321.985 18.948 322.661 19.5547 323.25 20.144C323.111 20.6987 322.643 20.976 321.846 20.976H291.322L290.906 19.468H315.866L318.466 16.036ZM305.986 5.532C305.986 5.532 306.211 5.74 306.662 6.156C307.113 6.53733 307.65 7.02266 308.274 7.612C308.933 8.16667 309.505 8.704 309.99 9.224C309.886 9.77866 309.435 10.056 308.638 10.056H291.894L291.478 8.548H303.75L305.986 5.532ZM361.782 4.232C362.059 9.12 362.614 13.592 363.446 17.648C364.313 21.704 365.613 25.3787 367.346 28.672C369.114 31.9307 371.471 34.8253 374.418 37.356C377.365 39.852 381.074 42.0013 385.546 43.804L385.442 44.428C384.159 44.636 383.085 45.1213 382.218 45.884C381.386 46.6813 380.797 47.7733 380.45 49.16C376.498 47.0107 373.257 44.4453 370.726 41.464C368.23 38.4827 366.289 35.12 364.902 31.376C363.55 27.5973 362.579 23.4547 361.99 18.948C361.401 14.4067 361.019 9.536 360.846 4.336L361.782 4.232ZM361.782 4.232C361.713 6.832 361.609 9.484 361.47 12.188C361.331 14.892 361.037 17.596 360.586 20.3C360.135 23.004 359.407 25.6733 358.402 28.308C357.431 30.908 356.079 33.456 354.346 35.952C352.613 38.4133 350.359 40.7707 347.586 43.024C344.847 45.2773 341.502 47.392 337.55 49.368L336.926 48.536C340.878 45.8667 344.085 43.076 346.546 40.164C349.007 37.2173 350.914 34.184 352.266 31.064C353.653 27.944 354.623 24.772 355.178 21.548C355.767 18.324 356.114 15.0827 356.218 11.824C356.322 8.53067 356.374 5.272 356.374 2.048L363.654 2.776C363.619 3.12266 363.463 3.43466 363.186 3.712C362.909 3.95466 362.441 4.128 361.782 4.232ZM414.354 14.684C414.354 14.684 414.597 14.892 415.082 15.308C415.567 15.724 416.157 16.2267 416.85 16.816C417.543 17.3707 418.15 17.9253 418.67 18.48C418.635 18.7573 418.497 18.9653 418.254 19.104C418.011 19.2427 417.717 19.312 417.37 19.312H403.798L403.382 17.804H411.91L414.354 14.684ZM411.494 4.804C413.817 5.56666 415.689 6.45066 417.11 7.456C418.531 8.42667 419.589 9.39733 420.282 10.368C421.01 11.3387 421.443 12.2573 421.582 13.124C421.721 13.9907 421.634 14.7013 421.322 15.256C421.01 15.8107 420.559 16.1573 419.97 16.296C419.381 16.4 418.722 16.2093 417.994 15.724C417.647 14.5453 417.075 13.3147 416.278 12.032C415.481 10.7493 414.597 9.51867 413.626 8.34C412.69 7.12667 411.789 6.06933 410.922 5.168L411.494 4.804ZM402.238 34.288C405.254 35.0507 407.715 35.9693 409.622 37.044C411.563 38.084 413.054 39.176 414.094 40.32C415.134 41.4293 415.81 42.4867 416.122 43.492C416.434 44.4973 416.451 45.3467 416.174 46.04C415.931 46.7333 415.481 47.184 414.822 47.392C414.163 47.6 413.383 47.4613 412.482 46.976C412.031 45.936 411.407 44.8613 410.61 43.752C409.813 42.608 408.911 41.4987 407.906 40.424C406.935 39.3493 405.913 38.3267 404.838 37.356C403.763 36.3853 402.741 35.5187 401.77 34.756L402.238 34.288ZM414.458 25.76L417.11 23.16L421.79 27.58C421.547 27.788 421.27 27.9267 420.958 27.996C420.646 28.0307 420.213 28.0827 419.658 28.152C418.999 29.4347 418.133 30.804 417.058 32.26C416.018 33.716 414.874 35.1373 413.626 36.524C412.413 37.876 411.182 39.0547 409.934 40.06L409.31 39.644C410.107 38.292 410.887 36.8013 411.65 35.172C412.413 33.508 413.106 31.8613 413.73 30.232C414.354 28.568 414.805 27.0773 415.082 25.76H414.458ZM412.95 4.284C412.083 6.12133 410.974 8.06267 409.622 10.108C408.27 12.1187 406.71 14.06 404.942 15.932C403.209 17.804 401.371 19.416 399.43 20.768L398.858 20.3C399.898 19.052 400.903 17.6307 401.874 16.036C402.879 14.4067 403.798 12.6907 404.63 10.888C405.497 9.08533 406.242 7.33467 406.866 5.636C407.525 3.93733 408.027 2.39466 408.374 1.008L415.03 3.192C414.926 3.504 414.718 3.764 414.406 3.972C414.129 4.14533 413.643 4.24933 412.95 4.284ZM416.642 25.76V27.268H400.626L400.158 25.76H416.642ZM434.166 41.36C433.889 41.776 433.317 41.88 432.45 41.672C431.445 42.6773 430.145 43.6827 428.55 44.688C426.955 45.6933 425.239 46.5773 423.402 47.34C421.565 48.1373 419.745 48.7787 417.942 49.264L417.526 48.536C418.947 47.704 420.351 46.6987 421.738 45.52C423.125 44.376 424.39 43.1627 425.534 41.88C426.713 40.5627 427.649 39.3147 428.342 38.136L434.166 41.36ZM427.822 37.824C427.822 37.9973 427.631 38.2053 427.25 38.448C426.903 38.6907 426.435 38.916 425.846 39.124C425.257 39.332 424.633 39.436 423.974 39.436H423.194V12.552V10.42L428.082 12.552H441.55V14.06H427.822V37.824ZM439.418 12.552L441.758 10.056L446.438 13.748C446.126 14.164 445.502 14.4587 444.566 14.632V37.616C444.566 37.72 444.341 37.8933 443.89 38.136C443.474 38.344 442.971 38.552 442.382 38.76C441.793 38.9333 441.221 39.02 440.666 39.02H439.886V12.552H439.418ZM435.414 38.76C438.014 39.1413 440.129 39.7133 441.758 40.476C443.422 41.204 444.687 42.0187 445.554 42.92C446.455 43.8213 447.01 44.688 447.218 45.52C447.461 46.352 447.443 47.08 447.166 47.704C446.889 48.328 446.421 48.7267 445.762 48.9C445.138 49.108 444.393 49.004 443.526 48.588C443.041 47.4787 442.313 46.352 441.342 45.208C440.406 44.064 439.366 42.972 438.222 41.932C437.078 40.8573 436.003 39.9387 434.998 39.176L435.414 38.76ZM436.662 5.48C435.899 6.832 434.998 8.25333 433.958 9.744C432.953 11.2347 431.965 12.4653 430.994 13.436H429.902C430.006 12.7773 430.093 11.98 430.162 11.044C430.266 10.108 430.353 9.15467 430.422 8.184C430.491 7.17866 430.543 6.27733 430.578 5.48H436.662ZM441.29 35.068V36.576H425.586V35.068H441.29ZM441.29 27.528V29.036H425.586V27.528H441.29ZM441.186 19.884V21.392H425.482V19.884H441.186ZM442.59 1.268C442.59 1.268 442.763 1.40666 443.11 1.684C443.491 1.96133 443.942 2.32533 444.462 2.776C445.017 3.22667 445.606 3.69467 446.23 4.18C446.854 4.66533 447.409 5.15067 447.894 5.636C447.755 6.19066 447.287 6.468 446.49 6.468H421.27L420.854 4.96H439.73L442.59 1.268ZM477.014 10.784H503.326L505.822 7.508C505.822 7.508 506.082 7.73333 506.602 8.184C507.122 8.6 507.746 9.12 508.474 9.744C509.202 10.3333 509.843 10.9053 510.398 11.46C510.259 12.0147 509.809 12.292 509.046 12.292H477.43L477.014 10.784ZM481.278 18.064H490.222V19.52H481.278V18.064ZM480.758 28.204H489.702V29.712H480.758V28.204ZM478.73 18.064V16.348L482.89 18.064H482.578V32.676C482.578 32.8147 482.283 33.0573 481.694 33.404C481.139 33.7507 480.359 33.924 479.354 33.924H478.73V18.064ZM487.882 18.064H487.518L489.39 16.14L493.29 19.104C493.186 19.208 492.995 19.3467 492.718 19.52C492.475 19.6587 492.181 19.7627 491.834 19.832V31.168C491.834 31.3067 491.643 31.4627 491.262 31.636C490.881 31.8093 490.43 31.9827 489.91 32.156C489.425 32.2947 488.974 32.364 488.558 32.364H487.882V18.064ZM500.31 3.14C501.974 3.31333 503.274 3.64267 504.21 4.128C505.181 4.57866 505.857 5.09866 506.238 5.688C506.619 6.27733 506.775 6.84933 506.706 7.404C506.637 7.95867 506.411 8.42667 506.03 8.808C505.649 9.15466 505.163 9.34533 504.574 9.38C503.985 9.41467 503.378 9.20667 502.754 8.756C502.65 7.85466 502.303 6.90133 501.714 5.896C501.125 4.89067 500.483 4.09333 499.79 3.504L500.31 3.14ZM473.998 38.864C475.177 38.656 476.806 38.3093 478.886 37.824C481.001 37.304 483.393 36.7147 486.062 36.056C488.731 35.3627 491.47 34.652 494.278 33.924L494.434 34.652C492.562 35.588 490.257 36.7493 487.518 38.136C484.779 39.488 481.538 40.996 477.794 42.66C477.621 43.3533 477.239 43.7867 476.65 43.96L473.998 38.864ZM461.57 16.088H472.698L475.142 12.5C475.142 12.5 475.385 12.7427 475.87 13.228C476.355 13.6787 476.945 14.2333 477.638 14.892C478.331 15.5507 478.938 16.1747 479.458 16.764C479.319 17.3187 478.851 17.596 478.054 17.596H461.986L461.57 16.088ZM467.446 2.1L474.154 2.724C474.119 3.07067 473.963 3.38267 473.686 3.66C473.409 3.93733 472.923 4.11066 472.23 4.18V36.108L467.446 37.668V2.1ZM460.998 38.136C462.003 37.8587 463.407 37.408 465.21 36.784C467.047 36.1253 469.11 35.38 471.398 34.548C473.721 33.6813 476.078 32.78 478.47 31.844L478.678 32.416C477.222 33.5947 475.367 35.0333 473.114 36.732C470.895 38.4307 468.243 40.32 465.158 42.4C465.089 42.712 464.95 43.0067 464.742 43.284C464.569 43.5613 464.343 43.752 464.066 43.856L460.998 38.136ZM504.21 16.348L510.398 18.376C510.259 18.688 510.034 18.9133 509.722 19.052C509.445 19.1907 508.942 19.26 508.214 19.26C506.966 23.42 505.527 27.0773 503.898 30.232C502.269 33.352 500.379 36.0907 498.23 38.448C496.081 40.7707 493.619 42.7813 490.846 44.48C488.073 46.144 484.935 47.6 481.434 48.848L481.07 47.964C484.051 46.4387 486.738 44.74 489.13 42.868C491.557 40.996 493.706 38.8293 495.578 36.368C497.485 33.872 499.149 30.9947 500.57 27.736C501.991 24.4427 503.205 20.6467 504.21 16.348ZM493.394 1.736L499.79 2.464C499.755 2.81067 499.599 3.12267 499.322 3.4C499.045 3.64266 498.594 3.816 497.97 3.92C497.901 7.59467 497.953 11.304 498.126 15.048C498.334 18.7573 498.733 22.3107 499.322 25.708C499.911 29.1053 500.761 32.1733 501.87 34.912C503.014 37.616 504.453 39.7653 506.186 41.36C506.463 41.672 506.723 41.8453 506.966 41.88C507.209 41.88 507.434 41.6547 507.642 41.204C507.85 40.7533 508.093 40.1987 508.37 39.54C508.647 38.8467 508.925 38.1187 509.202 37.356C509.514 36.5587 509.757 35.8133 509.93 35.12L510.502 35.224L509.514 44.116C510.069 45.0867 510.415 45.988 510.554 46.82C510.693 47.6867 510.571 48.2933 510.19 48.64C509.566 49.1253 508.855 49.2987 508.058 49.16C507.295 49.056 506.515 48.7093 505.718 48.12C504.921 47.5653 504.193 46.9067 503.534 46.144C501.385 43.856 499.651 41.1347 498.334 37.98C497.017 34.8253 495.994 31.324 495.266 27.476C494.573 23.628 494.087 19.5373 493.81 15.204C493.533 10.8707 493.394 6.38133 493.394 1.736Z" fill="#6E4D3B"/>
</svg>
