<svg width="323" height="49" viewBox="0 0 323 49" fill="none" xmlns="http://www.w3.org/2000/svg">
<g clip-path="url(#clip0_147_1541)">
<g opacity="0.85">
<path d="M0.0857787 0.391113H13.9437L14.0088 2.2091C13.8373 1.89353 13.635 1.62941 13.4017 1.42016C13.1719 1.21092 12.918 1.04628 12.6436 0.92279C12.3692 0.799304 12.0742 0.713549 11.7552 0.662097C11.4362 0.610644 11.1138 0.586633 10.7811 0.586633H7.74878V14.8802C7.74878 16.1219 7.91343 16.9142 8.24616 17.2607C8.33191 17.3773 8.43482 17.4631 8.54801 17.5214H5.34423C5.51574 17.391 5.65295 17.247 5.75585 17.0892C6.03027 16.729 6.16747 15.9915 6.16747 14.8802V0.583203H3.50223C3.14206 0.583203 2.80247 0.593493 2.48347 0.614074C2.16446 0.634655 1.86947 0.692968 1.59505 0.789013C1.32064 0.881628 1.05995 1.01883 0.816405 1.20063C0.569433 1.38243 0.339611 1.62941 0.123511 1.94841C0.0960692 1.97585 0.072058 2.01015 0.0583373 2.04446C0.0446166 2.08219 0.0240356 2.11306 -0.00683594 2.1405L0.0857787 0.391113Z" fill="white"/>
<path d="M23.6684 0.391125C23.3666 0.593506 23.1471 0.861059 23.0201 1.19379C22.9755 1.31041 22.9344 1.49907 22.8898 1.76662C22.8452 2.03418 22.8246 2.49039 22.8246 3.14212V8.70586H32.1787V3.13869C32.1787 2.47324 32.1581 2.00674 32.1135 1.73232C32.0689 1.45791 32.0209 1.26239 31.9626 1.14576C31.8322 0.843908 31.623 0.590075 31.3349 0.387695H34.6278C34.326 0.576355 34.1065 0.850769 33.9795 1.21094C33.9349 1.32756 33.8938 1.51622 33.8492 1.78378C33.8046 2.05133 33.784 2.50068 33.784 3.13869V14.7876C33.784 15.4667 33.808 15.9401 33.8595 16.2042C33.9109 16.4718 33.9555 16.6639 34.0001 16.7771C34.0996 17.0652 34.3191 17.3122 34.6484 17.5145H31.3555C31.4275 17.4699 31.4927 17.4185 31.551 17.3533C31.6093 17.2882 31.6745 17.2195 31.7465 17.1475C32.0346 16.7736 32.1787 15.9847 32.1787 14.7876V8.87394H22.8246V14.7876C22.8246 15.4667 22.8486 15.9401 22.9001 16.2042C22.9515 16.4718 22.9893 16.6639 23.0201 16.7771C23.1505 17.0789 23.3734 17.3259 23.6925 17.5145H20.3995C20.5573 17.4288 20.6876 17.3053 20.7905 17.1475C21.0787 16.7736 21.2227 15.9847 21.2227 14.7876V3.13869C21.2227 2.47324 21.2021 2.00674 21.1576 1.73232C21.113 1.45791 21.0718 1.26239 21.0272 1.14576C20.8969 0.843908 20.6808 0.590075 20.3789 0.387695H23.6719L23.6684 0.391125Z" fill="white"/>
<path d="M41.6631 17.518C41.9649 17.3156 42.1845 17.048 42.3114 16.7153C42.3388 16.5987 42.38 16.4134 42.4314 16.1528C42.4829 15.8921 42.5069 15.4461 42.5069 14.8116V3.05293C42.5069 2.63445 42.4932 2.28457 42.4623 2.00329C42.4349 1.72202 42.3937 1.48877 42.3423 1.30011C42.2908 1.11145 42.2359 0.967382 42.181 0.867907C42.1227 0.768432 42.0713 0.686108 42.0301 0.631225C41.9855 0.603784 41.9444 0.562622 41.8998 0.511169C41.8552 0.459717 41.814 0.421985 41.7694 0.391113H52.9003L52.9861 1.993C52.9586 1.92097 52.9278 1.85923 52.9003 1.80777C52.8729 1.75632 52.842 1.71173 52.8146 1.66714C52.6259 1.36528 52.4304 1.13546 52.2314 0.984533C52.0291 0.833605 51.813 0.72727 51.5831 0.668957C51.3533 0.610644 51.1098 0.583203 50.8559 0.583203H44.0882V8.46574H49.038C49.2609 8.46574 49.4839 8.45202 49.7103 8.42115C49.9332 8.3937 50.1493 8.34225 50.3586 8.27022C50.5678 8.19818 50.753 8.08842 50.9108 7.94435C51.0275 7.8586 51.1201 7.76255 51.1921 7.66308C51.2641 7.5636 51.3362 7.45384 51.4082 7.33721V9.76234C51.1921 9.35758 50.8662 9.06259 50.434 8.87393C50.0876 8.70242 49.7583 8.61666 49.4496 8.62353C49.1374 8.63039 48.7876 8.63382 48.3999 8.63382H44.0916V17.319H50.4786C50.8971 17.319 51.2573 17.2778 51.5626 17.199C51.8678 17.1201 52.1388 17 52.3858 16.8422C52.6328 16.6844 52.8626 16.4889 53.0787 16.2591C53.2948 16.0293 53.5178 15.7617 53.751 15.4564L53.0135 17.5145H41.6665L41.6631 17.518Z" fill="white"/>
<path d="M76.5718 0.391125C76.2699 0.593506 76.0504 0.861059 75.9235 1.19379C75.8789 1.31041 75.8377 1.49907 75.7931 1.76662C75.7485 2.03418 75.7279 2.49039 75.7279 3.14212V8.70586H85.082V3.13869C85.082 2.47324 85.0614 2.00674 85.0168 1.73232C84.9723 1.45791 84.9242 1.26239 84.8659 1.14576C84.7356 0.843908 84.5263 0.590075 84.2382 0.387695H87.5312C87.2293 0.576355 87.0098 0.850769 86.8829 1.21094C86.8383 1.32756 86.7971 1.51622 86.7525 1.78378C86.7079 2.05133 86.6873 2.50068 86.6873 3.13869V14.7876C86.6873 15.4667 86.7113 15.9401 86.7628 16.2042C86.8143 16.4718 86.8588 16.6639 86.9034 16.7771C87.0029 17.0652 87.2224 17.3122 87.5517 17.5145H84.2588C84.3308 17.4699 84.396 17.4185 84.4543 17.3533C84.5126 17.2882 84.5778 17.2195 84.6498 17.1475C84.9379 16.7736 85.082 15.9847 85.082 14.7876V8.87394H75.7279V14.7876C75.7279 15.4667 75.752 15.9401 75.8034 16.2042C75.8549 16.4718 75.8926 16.6639 75.9235 16.7771C76.0538 17.0789 76.2768 17.3259 76.5958 17.5145H73.3028C73.4606 17.4288 73.5909 17.3053 73.6938 17.1475C73.982 16.7736 74.1261 15.9847 74.1261 14.7876V3.13869C74.1261 2.47324 74.1055 2.00674 74.0609 1.73232C74.0163 1.45791 73.9751 1.26239 73.9305 1.14576C73.8002 0.843908 73.5841 0.590075 73.2822 0.387695H76.5752L76.5718 0.391125Z" fill="white"/>
<path d="M93.8086 17.5179C93.9973 17.4321 94.1825 17.2606 94.3712 17.0102C94.5598 16.7564 94.7382 16.4785 94.9131 16.1767C95.0881 15.8748 95.2424 15.573 95.3796 15.278C95.5168 14.983 95.6197 14.7463 95.6952 14.5748L101.842 0.171509L107.927 14.7223C108.202 15.3706 108.462 15.9023 108.706 16.3139C108.949 16.7255 109.196 17.0411 109.443 17.2572C109.502 17.3018 109.56 17.3464 109.615 17.3978C109.673 17.4493 109.738 17.487 109.81 17.5179H106.085C106.288 17.3738 106.432 17.2023 106.517 17.0102C106.603 16.8181 106.648 16.6089 106.648 16.3928C106.648 16.1767 106.603 15.8988 106.517 15.5593C106.432 15.2197 106.288 14.8183 106.085 14.3587L104.895 11.5665H97.2079L95.8873 14.5988C95.7295 15.0036 95.6094 15.35 95.5306 15.6382C95.4517 15.9263 95.4105 16.1733 95.4105 16.3756C95.4105 16.5197 95.4414 16.6912 95.5065 16.8833C95.5717 17.0754 95.7261 17.2778 95.973 17.4802L96.0588 17.5247H93.8052L93.8086 17.5179ZM97.2731 11.3916H104.874L101.129 2.44914L97.2731 11.3916Z" fill="white"/>
<path d="M118.149 0.391125L129.908 14.8116V3.05294C129.908 2.40464 129.867 1.89011 129.788 1.51622C129.709 1.14233 129.582 0.850768 129.41 0.648388C129.366 0.603796 129.321 0.562634 129.27 0.518042C129.218 0.47345 129.174 0.432288 129.129 0.387695H130.947C130.861 0.446008 130.783 0.514612 130.711 0.593506C130.638 0.6724 130.566 0.754724 130.494 0.843908C130.378 1.03257 130.289 1.30355 130.223 1.65686C130.158 2.01017 130.127 2.47667 130.127 3.05294V17.542L117.741 2.40464V14.8767C117.741 16.1185 117.892 16.9108 118.197 17.2573C118.256 17.3019 118.307 17.3465 118.348 17.3979C118.393 17.4494 118.448 17.4871 118.523 17.518H116.705C116.791 17.4459 116.87 17.3773 116.942 17.3122C117.014 17.247 117.079 17.1715 117.137 17.0858C117.381 16.7393 117.504 16.0018 117.504 14.8767V2.12336L117.395 1.99302C116.859 1.35843 116.434 0.933093 116.119 0.713562C115.974 0.583215 115.8 0.47688 115.597 0.387695H118.153L118.149 0.391125Z" fill="white"/>
<path d="M137.986 17.518C138.072 17.4459 138.154 17.3739 138.236 17.3019C138.315 17.2298 138.391 17.1372 138.463 17.0206C138.49 16.9623 138.528 16.8834 138.572 16.7839C138.617 16.6844 138.655 16.5472 138.692 16.3723C138.727 16.2008 138.761 15.9847 138.788 15.7343C138.816 15.4804 138.833 15.1683 138.833 14.791V3.1181C138.833 1.87638 138.668 1.06 138.336 0.672387C138.277 0.627795 138.223 0.583203 138.175 0.53175C138.123 0.480298 138.068 0.435706 138.013 0.391113H143.104C143.58 0.391113 144.078 0.401404 144.599 0.421985C145.121 0.442566 145.642 0.487158 146.17 0.552331C146.698 0.617505 147.21 0.706689 147.707 0.823315C148.204 0.939941 148.664 1.09087 149.082 1.27953C149.834 1.61225 150.482 2.04789 151.031 2.58985C151.58 3.13182 152.032 3.73553 152.396 4.39755C152.756 5.06301 153.027 5.77648 153.209 6.54141C153.391 7.30634 153.48 8.07813 153.48 8.85678C153.48 11.2545 152.766 13.2543 151.336 14.8561C150.815 15.4324 150.232 15.8955 149.583 16.2419C148.935 16.5884 148.252 16.8559 147.535 17.0446C146.822 17.2333 146.091 17.3602 145.347 17.4219C144.603 17.4871 143.865 17.518 143.128 17.518H137.996H137.986ZM149.203 15.2232C150.66 13.6796 151.391 11.6078 151.391 9.0077C151.391 6.40763 150.66 4.30151 149.203 2.77165C148.654 2.17823 148.029 1.73574 147.33 1.44075C146.63 1.14575 145.896 0.93308 145.131 0.802734C144.366 0.672387 143.58 0.603784 142.771 0.596924C141.961 0.590063 141.176 0.586633 140.411 0.586633V17.3465C141.262 17.3465 142.088 17.3533 142.891 17.367C143.694 17.3808 144.462 17.3362 145.196 17.2264C145.934 17.1166 146.637 16.9108 147.309 16.609C147.981 16.3071 148.613 15.844 149.203 15.2232Z" fill="white"/>
<path d="M160.443 4.26723C160.443 3.61893 160.577 3.02894 160.844 2.50412C161.112 1.97588 161.468 1.52995 161.914 1.16293C162.36 0.795897 162.875 0.511193 163.451 0.308813C164.027 0.106433 164.628 0.00695801 165.249 0.00695801C166.158 0.00695801 167.118 0.223059 168.13 0.65526C168.665 0.902233 169.083 1.02229 169.385 1.02229C169.732 1.02229 170.027 0.905663 170.274 0.675842L170.318 0.631249V3.70468C170.246 3.5023 170.171 3.31707 170.092 3.15243C170.013 2.98778 169.931 2.82313 169.842 2.66534C169.612 2.2743 169.324 1.92785 168.987 1.626C168.648 1.32414 168.277 1.06345 167.873 0.84735C167.468 0.631249 167.043 0.466601 166.597 0.349975C166.147 0.233349 165.701 0.178467 165.255 0.178467C164.809 0.178467 164.364 0.2505 163.925 0.394567C163.485 0.538635 163.094 0.747875 162.755 1.02229C162.415 1.2967 162.141 1.63286 161.932 2.03076C161.722 2.42866 161.616 2.87115 161.616 3.36167C161.616 4.02712 161.846 4.63083 162.309 5.17966C162.871 5.87255 164.223 6.79527 166.36 7.95124C167.197 8.40059 167.9 8.79163 168.473 9.13121C169.042 9.4708 169.481 9.75551 169.783 9.98533C170.287 10.4038 170.703 10.9046 171.028 11.4912C171.354 12.0777 171.515 12.7157 171.515 13.4086C171.515 14.6229 171.032 15.6828 170.065 16.5918C169.097 17.5008 167.842 17.957 166.298 17.957C165.722 17.957 165.204 17.8987 164.751 17.7855C164.295 17.6689 163.794 17.5248 163.245 17.3533C162.652 17.151 162.233 17.0275 161.99 16.9863C161.743 16.9417 161.571 16.9211 161.468 16.9211C161.252 16.9211 161.077 16.9589 160.947 17.0309C160.817 17.1029 160.71 17.175 160.621 17.247V14.1496C160.707 14.3965 160.793 14.6195 160.882 14.8219C160.968 15.0242 161.064 15.206 161.163 15.3638C161.393 15.7549 161.698 16.0979 162.072 16.3929C162.446 16.6879 162.861 16.9417 163.317 17.151C163.774 17.3602 164.24 17.518 164.724 17.6277C165.207 17.7375 165.667 17.789 166.099 17.789C166.603 17.789 167.097 17.7169 167.581 17.5729C168.065 17.4288 168.493 17.2161 168.871 16.9349C169.245 16.6536 169.547 16.3037 169.77 15.8852C169.992 15.4667 170.106 14.9762 170.106 14.4137C170.106 13.8203 169.934 13.2646 169.598 12.7466C169.258 12.2287 168.857 11.793 168.397 11.4466C168.209 11.2888 167.879 11.0693 167.403 10.788C166.926 10.5067 166.298 10.1431 165.52 9.69376C164.741 9.27528 164.082 8.8911 163.547 8.54465C163.012 8.19821 162.587 7.90321 162.271 7.65624C161.709 7.23776 161.263 6.75411 160.94 6.20528C160.614 5.65645 160.453 5.01501 160.453 4.27752L160.443 4.26723Z" fill="white"/>
<path d="M191.277 8.90128C191.277 6.14342 192.2 3.92067 194.048 2.23303C194.858 1.48182 195.719 0.922704 196.635 0.555676C197.551 0.188647 198.573 0.00341797 199.698 0.00341797C200.823 0.00341797 201.862 0.209228 202.861 0.620849C203.855 1.03247 204.768 1.66362 205.588 2.5143C207.203 4.18823 208.013 6.30464 208.013 8.86012C208.013 10.1739 207.81 11.3676 207.406 12.4446C207.001 13.5217 206.387 14.4925 205.564 15.3569C204.754 16.1938 203.831 16.8387 202.792 17.2846C201.753 17.7305 200.676 17.9569 199.564 17.9569C198.453 17.9569 197.372 17.7443 196.371 17.3189C195.366 16.8936 194.467 16.2693 193.675 15.446C192.073 13.7721 191.27 11.5905 191.27 8.90471L191.277 8.90128ZM193.4 8.83611C193.4 9.86173 193.489 10.9045 193.671 11.9644C193.853 13.0243 194.172 13.9848 194.635 14.8458C195.098 15.7033 195.729 16.4099 196.528 16.9588C197.331 17.5076 198.343 17.782 199.571 17.782C200.799 17.782 201.866 17.535 202.689 17.0445C203.512 16.554 204.161 15.9091 204.637 15.1065C205.114 14.3038 205.45 13.3914 205.646 12.3658C205.841 11.3401 205.937 10.2939 205.937 9.22715C205.937 6.02337 205.289 3.61882 203.989 2.01693C203.471 1.33775 202.861 0.860961 202.161 0.586547C201.461 0.312133 200.641 0.174927 199.701 0.174927C198.46 0.174927 197.431 0.428759 196.614 0.932994C195.798 1.43723 195.153 2.09925 194.676 2.91563C194.199 3.73201 193.867 4.65473 193.681 5.68721C193.493 6.71969 193.4 7.76933 193.4 8.83954V8.83611Z" fill="white"/>
<path d="M225.795 0.391125L225.86 2.31888C225.613 1.75633 225.253 1.32756 224.776 1.02914C224.299 0.734143 223.75 0.586645 223.129 0.586645H217.456V8.48976H221.226C222.107 8.48976 222.769 8.27366 223.219 7.84146C223.349 7.74198 223.479 7.56704 223.61 7.3235V9.66288C223.322 9.2444 222.972 8.97341 222.56 8.84993C222.148 8.72644 221.706 8.6647 221.229 8.6647H217.459V14.7944C217.459 15.4736 217.483 15.9469 217.535 16.2111C217.586 16.4786 217.624 16.6707 217.655 16.7839C217.785 17.0858 218.008 17.3327 218.327 17.5214H215.034C215.192 17.4356 215.322 17.3122 215.425 17.1544C215.713 16.7805 215.857 15.9915 215.857 14.7944V3.11811C215.857 2.46981 215.837 2.00674 215.792 1.73232C215.748 1.45791 215.707 1.26239 215.662 1.14576C215.532 0.843908 215.316 0.590075 215.014 0.387695H225.798L225.795 0.391125Z" fill="white"/>
<path d="M244.678 0.391125H258.535L258.601 2.20912C258.429 1.89354 258.227 1.62942 257.993 1.42018C257.764 1.21094 257.51 1.04629 257.235 0.922802C256.961 0.799316 256.666 0.713562 256.347 0.662109C256.028 0.610656 255.706 0.586645 255.373 0.586645H252.341V14.8802C252.341 16.1219 252.505 16.9143 252.838 17.2607C252.924 17.3773 253.027 17.4631 253.14 17.5214H249.936C250.108 17.3911 250.245 17.247 250.348 17.0892C250.622 16.729 250.759 15.9915 250.759 14.8802V0.583215H248.097C247.737 0.583215 247.398 0.593506 247.079 0.614087C246.76 0.634668 246.465 0.692981 246.19 0.789025C245.916 0.88164 245.655 1.01885 245.412 1.20065C245.165 1.38244 244.935 1.62942 244.719 1.94842C244.691 1.97586 244.667 2.01017 244.654 2.04447C244.64 2.0822 244.619 2.11307 244.588 2.14051L244.674 0.387695L244.678 0.391125Z" fill="white"/>
<path d="M268.26 0.391125C268.188 0.449438 268.116 0.511181 268.044 0.576355C267.972 0.641528 267.914 0.710131 267.873 0.782165C267.571 1.14233 267.416 1.92441 267.416 3.12154V14.7944C267.416 15.4427 267.44 15.9092 267.492 16.1905C267.543 16.4718 267.581 16.6707 267.612 16.7873C267.742 17.0892 267.965 17.3362 268.284 17.5248H264.991C265.149 17.4391 265.279 17.3156 265.382 17.1578C265.67 16.7839 265.815 15.995 265.815 14.7978V3.11811C265.815 2.46981 265.794 2.00674 265.749 1.73232C265.705 1.45791 265.664 1.26239 265.619 1.14576C265.489 0.843908 265.273 0.590075 264.971 0.387695H268.264L268.26 0.391125Z" fill="white"/>
<path d="M278.005 0.391113L284.869 15.182L291.627 0.391113H294.203C294 0.53518 293.846 0.713549 293.736 0.92279C293.626 1.13203 293.548 1.35842 293.499 1.60539C293.448 1.85237 293.421 2.09934 293.414 2.35317C293.407 2.607 293.403 2.84026 293.403 3.05636V14.8802C293.403 16.1219 293.568 16.9142 293.901 17.2607C293.945 17.3053 293.99 17.3499 294.041 17.4013C294.093 17.4528 294.137 17.4905 294.182 17.5214H290.999C291.17 17.391 291.311 17.247 291.41 17.0892C291.541 16.9005 291.637 16.6295 291.702 16.2762C291.767 15.9229 291.798 15.4564 291.798 14.8802V0.607214L284.111 17.3465L276.424 0.627795L276.469 14.8767C276.469 16.1185 276.62 16.9108 276.925 17.2573C276.983 17.3019 277.035 17.3465 277.076 17.3979C277.12 17.4494 277.168 17.4871 277.227 17.518H275.429C275.501 17.4459 275.573 17.3773 275.645 17.3122C275.717 17.247 275.783 17.1715 275.841 17.0858C275.985 16.8971 276.081 16.6261 276.133 16.2728C276.184 15.9195 276.208 15.453 276.208 14.8767V3.05293C276.208 2.5041 276.163 2.01015 276.078 1.57109C275.992 1.13203 275.717 0.737561 275.254 0.391113H278.005Z" fill="white"/>
<path d="M301.262 17.518C301.564 17.3156 301.783 17.048 301.91 16.7153C301.937 16.5987 301.979 16.4134 302.03 16.1528C302.082 15.8921 302.106 15.4461 302.106 14.8116V3.05293C302.106 2.63445 302.092 2.28457 302.061 2.00329C302.033 1.72202 301.992 1.48877 301.941 1.30011C301.889 1.11145 301.835 0.967382 301.78 0.867907C301.721 0.768432 301.67 0.686108 301.629 0.631225C301.584 0.603784 301.543 0.562622 301.498 0.511169C301.454 0.459717 301.413 0.421985 301.368 0.391113H312.499L312.585 1.993C312.557 1.92097 312.526 1.85923 312.499 1.80777C312.472 1.75632 312.441 1.71173 312.413 1.66714C312.225 1.36528 312.029 1.13546 311.83 0.984533C311.628 0.833605 311.412 0.72727 311.182 0.668957C310.952 0.610644 310.708 0.583203 310.458 0.583203H303.69V8.46574H308.637C308.86 8.46574 309.082 8.45202 309.309 8.42115C309.535 8.39027 309.748 8.34225 309.957 8.27022C310.166 8.19818 310.352 8.08842 310.509 7.94435C310.626 7.8586 310.719 7.76255 310.791 7.66308C310.863 7.5636 310.935 7.45384 311.007 7.33721V9.76234C310.791 9.35758 310.465 9.06259 310.033 8.87393C309.686 8.70242 309.357 8.61666 309.048 8.62353C308.736 8.63039 308.386 8.63382 307.999 8.63382H303.69V17.319H310.077C310.496 17.319 310.856 17.2778 311.161 17.199C311.466 17.1201 311.737 17 311.984 16.8422C312.231 16.6844 312.461 16.4889 312.677 16.2591C312.893 16.0293 313.116 15.7617 313.35 15.4564L312.612 17.5145H301.265L301.262 17.518Z" fill="white"/>
<path d="M319.713 19.3394C319.974 19.2536 320.227 19.137 320.481 18.9929C320.735 18.8488 320.917 18.6465 321.033 18.3858C321.092 18.228 321.106 18.0942 321.078 17.9844C321.051 17.8747 321.02 17.7855 320.992 17.7135C320.934 17.6551 320.859 17.5865 320.766 17.5077C320.673 17.4288 320.495 17.3156 320.234 17.1715C320.149 17.1269 320.083 17.0617 320.039 16.976C319.881 16.7462 319.816 16.4992 319.843 16.2385C319.888 16.0361 320.046 15.8337 320.32 15.6313C320.55 15.4736 320.831 15.429 321.164 15.501C321.483 15.5868 321.74 15.7754 321.943 16.0635C322.203 16.4237 322.251 16.8799 322.093 17.4288C322.035 17.6757 321.922 17.9056 321.757 18.1217C321.593 18.3378 321.397 18.5298 321.174 18.6945C320.951 18.8591 320.711 18.9963 320.461 19.1061C320.207 19.2159 319.96 19.2913 319.713 19.3325V19.3394Z" fill="white"/>
</g>
<g opacity="0.85">
<path d="M3.27914 31.4169H17.137L17.2022 33.2349C17.0307 32.9193 16.8283 32.6552 16.5951 32.4459C16.3652 32.2367 16.1114 32.072 15.837 31.9485C15.5626 31.8251 15.2676 31.7393 14.9486 31.6879C14.6296 31.6364 14.3071 31.6124 13.9744 31.6124H10.9421V45.9059C10.9421 47.1476 11.1068 47.94 11.4395 48.2865C11.5253 48.4031 11.6282 48.4888 11.7414 48.5471H8.53759C8.7091 48.4168 8.84631 48.2727 8.94921 48.1149C9.22362 47.7548 9.36083 47.0173 9.36083 45.9059V31.6124H6.69559C6.33542 31.6124 5.99583 31.6227 5.67683 31.6433C5.35782 31.6638 5.06283 31.7222 4.78841 31.8182C4.514 31.9108 4.25331 32.048 4.00976 32.2298C3.76279 32.4116 3.53297 32.6586 3.31687 32.9776C3.28943 33.005 3.26542 33.0393 3.2517 33.0736C3.23798 33.1114 3.21739 33.1422 3.18652 33.1697L3.27228 31.4169H3.27914Z" fill="white"/>
<path d="M26.8618 31.4169C26.5599 31.6193 26.3404 31.8868 26.2135 32.2195C26.1689 32.3362 26.1277 32.5248 26.0832 32.7924C26.0386 33.0599 26.018 33.5161 26.018 34.1679V39.7316H35.3721V34.1679C35.3721 33.5024 35.3515 33.0359 35.3069 32.7615C35.2623 32.4871 35.2143 32.2916 35.156 32.1749C35.0256 31.8731 34.8164 31.6193 34.5282 31.4169H37.8212C37.5193 31.6055 37.2998 31.8799 37.1729 32.2401C37.1283 32.3567 37.0871 32.5454 37.0425 32.813C36.998 33.0805 36.9774 33.5299 36.9774 34.1679V45.8167C36.9774 46.4959 37.0014 46.9693 37.0528 47.2334C37.1043 47.5009 37.1489 47.693 37.1935 47.8062C37.293 48.0944 37.5125 48.3413 37.8418 48.5437H34.5488C34.6208 48.4991 34.686 48.4477 34.7443 48.3825C34.8026 48.3173 34.8678 48.2487 34.9399 48.1767C35.228 47.8028 35.3721 47.0139 35.3721 45.8167V39.9031H26.018V45.8167C26.018 46.4959 26.042 46.9693 26.0934 47.2334C26.1449 47.5009 26.1826 47.693 26.2135 47.8062C26.3438 48.1081 26.5668 48.3551 26.8858 48.5437H23.5928C23.7506 48.458 23.881 48.3345 23.9839 48.1767C24.272 47.8028 24.4161 47.0139 24.4161 45.8167V34.1679C24.4161 33.5024 24.3955 33.0359 24.3509 32.7615C24.3063 32.4871 24.2652 32.2916 24.2206 32.1749C24.0902 31.8731 23.8741 31.6193 23.5723 31.4169H26.8652H26.8618Z" fill="white"/>
<path d="M44.8599 48.5437C45.1617 48.3413 45.3812 48.0738 45.5082 47.7411C45.5356 47.6244 45.5768 47.4392 45.6282 47.1785C45.6797 46.9178 45.7037 46.4719 45.7037 45.8373V34.0787C45.7037 33.6602 45.69 33.3103 45.6591 33.0291C45.6317 32.7478 45.5905 32.5145 45.539 32.3259C45.4876 32.1372 45.4327 31.9931 45.3778 31.8937C45.3195 31.7942 45.2681 31.7119 45.2269 31.657C45.1823 31.6295 45.1411 31.5884 45.0965 31.5369C45.052 31.4855 45.0108 31.4477 44.9662 31.4169H56.0971L56.1829 33.0188C56.1554 32.9467 56.1245 32.885 56.0971 32.8335C56.0697 32.7821 56.0388 32.7375 56.0113 32.6929C55.8227 32.391 55.6272 32.1612 55.4282 32.0103C55.2258 31.8594 55.0097 31.753 54.7799 31.6947C54.5501 31.6364 54.3066 31.609 54.0527 31.609H47.285V39.4915H52.2347C52.4577 39.4915 52.6807 39.4778 52.907 39.4469C53.13 39.4195 53.3461 39.368 53.5554 39.296C53.7646 39.2239 53.9498 39.1142 54.1076 38.9701C54.2242 38.8844 54.3168 38.7883 54.3889 38.6888C54.4609 38.5894 54.5329 38.4796 54.605 38.363V40.7881C54.3889 40.3833 54.063 40.0883 53.6308 39.8997C53.2844 39.7282 52.9551 39.6424 52.6464 39.6493C52.3342 39.6561 51.9843 39.6596 51.5967 39.6596H47.2884V48.3448H53.6754C54.0939 48.3448 54.4541 48.3036 54.7593 48.2247C55.0646 48.1458 55.3356 48.0258 55.5826 47.868C55.8295 47.7102 56.0594 47.5147 56.2755 47.2848C56.4916 47.055 56.7145 46.7875 56.9478 46.4822L56.2103 48.5403H44.8633L44.8599 48.5437Z" fill="white"/>
<path d="M76.4756 35.293C76.4756 34.6447 76.6094 34.0547 76.8769 33.5299C77.1445 33.0016 77.5012 32.5557 77.9471 32.1887C78.3931 31.8217 78.9076 31.5369 79.4838 31.3346C80.0601 31.1322 80.6604 31.0327 81.2813 31.0327C82.1903 31.0327 83.1507 31.2488 84.1626 31.681C84.6977 31.928 85.1162 32.048 85.418 32.048C85.7645 32.048 86.0595 31.9314 86.3065 31.7016L86.3511 31.657V34.7304C86.279 34.5281 86.2036 34.3428 86.1247 34.1782C86.0458 34.0135 85.9634 33.8489 85.8743 33.6911C85.6444 33.3001 85.3563 32.9536 85.0201 32.6518C84.6806 32.3499 84.3101 32.0892 83.9053 31.8731C83.5006 31.657 83.0752 31.4924 82.6293 31.3757C82.18 31.2591 81.734 31.2042 81.2881 31.2042C80.8422 31.2042 80.3963 31.2763 79.9572 31.4203C79.5182 31.5644 79.1271 31.7736 78.7875 32.048C78.4479 32.3225 78.1735 32.6586 77.9643 33.0565C77.755 33.4544 77.6487 33.8969 77.6487 34.3874C77.6487 35.0529 77.8785 35.6566 78.3416 36.2054C78.9041 36.8983 80.2556 37.821 82.3926 38.977C83.2296 39.4263 83.9328 39.8174 84.5056 40.157C85.075 40.4966 85.5141 40.7813 85.8159 41.0111C86.3202 41.4296 86.7352 41.9304 87.0611 42.5169C87.387 43.1035 87.5482 43.7415 87.5482 44.4344C87.5482 45.6487 87.0645 46.7086 86.0972 47.6176C85.1299 48.5266 83.8745 48.9828 82.3309 48.9828C81.7546 48.9828 81.2367 48.9245 80.7839 48.8113C80.3277 48.6947 79.8269 48.5506 79.278 48.3791C78.6846 48.1767 78.2661 48.0532 78.0226 48.0121C77.7756 47.9675 77.6041 47.9469 77.5012 47.9469C77.2851 47.9469 77.1102 47.9846 76.9798 48.0567C76.8495 48.1287 76.7431 48.2007 76.654 48.2728V45.1753C76.7397 45.4223 76.8255 45.6452 76.9146 45.8476C77.0004 46.05 77.0964 46.2318 77.1959 46.3896C77.4257 46.7806 77.731 47.1237 78.1049 47.4186C78.4788 47.7136 78.8939 47.9675 79.3501 48.1767C79.8063 48.386 80.2728 48.5437 80.7564 48.6535C81.2401 48.7633 81.6997 48.8147 82.1319 48.8147C82.6362 48.8147 83.1301 48.7427 83.6138 48.5986C84.0974 48.4546 84.5262 48.2419 84.9035 47.9606C85.2774 47.6793 85.5793 47.3295 85.8022 46.911C86.0252 46.4925 86.1384 46.002 86.1384 45.4394C86.1384 44.846 85.9669 44.2903 85.6307 43.7724C85.2911 43.2544 84.8898 42.8188 84.4302 42.4723C84.2415 42.3145 83.9088 42.095 83.4354 41.8137C82.9586 41.5325 82.3309 41.1689 81.5522 40.7195C80.7736 40.301 80.115 39.9169 79.5799 39.5704C79.0448 39.224 78.6194 38.929 78.3039 38.682C77.7413 38.2635 77.2954 37.7799 76.973 37.231C76.6471 36.6822 76.4859 36.0408 76.4859 35.3033L76.4756 35.293Z" fill="white"/>
<path d="M94.3843 39.9272C94.3843 37.1693 95.307 34.9466 97.1559 33.2589C97.9654 32.5077 98.8264 31.9486 99.7422 31.5816C100.658 31.2145 101.68 31.0293 102.805 31.0293C103.93 31.0293 104.97 31.2351 105.968 31.6467C106.963 32.0583 107.875 32.6895 108.695 33.5402C110.311 35.2141 111.12 37.3305 111.12 39.886C111.12 41.1998 110.918 42.3935 110.513 43.4705C110.108 44.5476 109.494 45.5183 108.671 46.3827C107.861 47.2197 106.939 47.8646 105.899 48.3105C104.86 48.7564 103.783 48.9828 102.672 48.9828C101.56 48.9828 100.48 48.7701 99.4781 48.3448C98.4731 47.9195 97.5744 47.2952 96.782 46.4719C95.1801 44.798 94.3774 42.6164 94.3774 39.9306L94.3843 39.9272ZM96.5041 39.862C96.5041 40.8876 96.5933 41.9304 96.7751 42.9903C96.9569 44.0502 97.2759 45.0107 97.739 45.8716C98.2021 46.7292 98.8332 47.4358 99.6325 47.9846C100.435 48.5335 101.447 48.8079 102.675 48.8079C103.903 48.8079 104.97 48.5609 105.793 48.0704C106.616 47.5799 107.265 46.935 107.741 46.1323C108.218 45.3297 108.554 44.4173 108.75 43.3916C108.945 42.366 109.041 41.3198 109.041 40.253C109.041 37.0492 108.393 34.6447 107.093 33.0428C106.572 32.3636 105.965 31.8868 105.265 31.6124C104.565 31.338 103.745 31.2008 102.805 31.2008C101.564 31.2008 100.535 31.4546 99.7182 31.9589C98.9018 32.4631 98.257 33.1251 97.7802 33.9415C97.3034 34.7579 96.9706 35.6806 96.7854 36.7131C96.5968 37.7456 96.5041 38.7952 96.5041 39.8654V39.862Z" fill="white"/>
<path d="M118.008 31.4169H121.301C120.883 31.777 120.632 32.1887 120.553 32.6517C120.475 33.1148 120.433 33.6122 120.433 34.1473V42.0298C120.433 42.9251 120.499 43.7792 120.629 44.5956C120.759 45.412 121.017 46.1254 121.397 46.7394C121.778 47.3534 122.306 47.844 122.979 48.211C123.651 48.578 124.526 48.7632 125.61 48.7632C126.879 48.7632 128.014 48.4888 129.009 47.94C129.657 47.5798 130.165 47.1682 130.525 46.7051C130.885 46.2421 131.153 45.7378 131.328 45.189C131.503 44.6402 131.606 44.0536 131.643 43.4225C131.678 42.7947 131.698 42.1499 131.698 41.4844V34.1439C131.698 32.9021 131.533 32.0858 131.201 31.6981C131.142 31.6536 131.091 31.609 131.05 31.5575C131.005 31.5061 130.95 31.4615 130.878 31.4169H132.892C132.429 31.777 132.154 32.2024 132.069 32.6929C131.983 33.1834 131.938 33.7048 131.938 34.2502V41.5702C131.938 42.2185 131.918 42.8428 131.873 43.4431C131.828 44.0433 131.729 44.6127 131.571 45.1547C131.413 45.6967 131.166 46.2009 130.834 46.6708C130.501 47.1408 130.048 47.5764 129.469 47.9812C128.501 48.6603 127.167 48.9999 125.462 48.9999C124.797 48.9999 124.145 48.9485 123.503 48.849C122.862 48.7495 122.262 48.5643 121.706 48.2967C121.15 48.0292 120.663 47.6725 120.245 47.2265C119.826 46.7806 119.494 46.2078 119.25 45.5149C118.962 44.7637 118.818 43.3264 118.818 41.2066V34.1473C118.818 33.5127 118.773 32.9948 118.687 32.6003C118.602 32.2024 118.458 31.8902 118.255 31.657C118.228 31.6124 118.194 31.5712 118.159 31.5266C118.121 31.482 118.077 31.4477 118.019 31.4169H118.008Z" fill="white"/>
<path d="M139.772 48.5437C139.858 48.4717 139.941 48.3996 140.023 48.3276C140.102 48.2556 140.177 48.163 140.249 48.0463C140.366 47.844 140.455 47.5695 140.52 47.2231C140.585 46.8767 140.616 46.4067 140.616 45.8167V34.1439C140.616 32.9021 140.452 32.0858 140.119 31.6981C140.061 31.6536 140.009 31.609 139.968 31.5575C139.923 31.5061 139.868 31.4615 139.796 31.4169H143.24C142.921 31.6193 142.671 31.8799 142.482 32.1955C142.455 32.2538 142.421 32.3327 142.386 32.4322C142.349 32.5317 142.321 32.6689 142.3 32.8438C142.28 33.0188 142.259 33.2349 142.246 33.4921C142.232 33.7528 142.225 34.0684 142.225 34.4457V45.8133C142.225 46.6228 142.311 47.1991 142.486 47.5455C142.674 47.8337 142.918 48.0429 143.223 48.1733C143.282 48.2007 143.354 48.2281 143.439 48.2487C143.525 48.2693 143.652 48.2899 143.817 48.3036C143.981 48.3173 144.197 48.3276 144.465 48.3345C144.732 48.3413 145.069 48.3448 145.473 48.3448H146.794C147.532 48.3448 148.152 48.3208 148.657 48.2693C149.161 48.2179 149.572 48.1287 149.891 47.9983C150.036 47.94 150.207 47.8611 150.399 47.7616C150.595 47.6622 150.78 47.5421 150.962 47.4049C151.143 47.2677 151.312 47.1236 151.469 46.9727C151.627 46.8218 151.744 46.6743 151.816 46.5302L151.188 48.5437H139.776H139.772Z" fill="white"/>
<path d="M171.022 39.9272C171.022 37.1693 171.944 34.9466 173.793 33.2589C174.603 32.5077 175.464 31.9486 176.379 31.5816C177.295 31.2145 178.317 31.0293 179.443 31.0293C180.568 31.0293 181.607 31.2351 182.605 31.6467C183.6 32.0583 184.512 32.6895 185.332 33.5402C186.948 35.2141 187.757 37.3305 187.757 39.886C187.757 41.1998 187.555 42.3935 187.15 43.4705C186.745 44.5476 186.131 45.5183 185.308 46.3827C184.499 47.2197 183.576 47.8646 182.537 48.3105C181.497 48.7564 180.42 48.9828 179.309 48.9828C178.197 48.9828 177.117 48.7701 176.115 48.3448C175.11 47.9195 174.212 47.2952 173.419 46.4719C171.817 44.798 171.015 42.6164 171.015 39.9306L171.022 39.9272ZM173.141 39.862C173.141 40.8876 173.231 41.9304 173.412 42.9903C173.594 44.0502 173.913 45.0107 174.376 45.8716C174.839 46.7292 175.47 47.4358 176.27 47.9846C177.072 48.5335 178.084 48.8079 179.312 48.8079C180.54 48.8079 181.607 48.5609 182.43 48.0704C183.254 47.5799 183.902 46.935 184.379 46.1323C184.855 45.3297 185.192 44.4173 185.387 43.3916C185.583 42.366 185.679 41.3198 185.679 40.253C185.679 37.0492 185.03 34.6447 183.73 33.0428C183.212 32.3636 182.602 31.8868 181.902 31.6124C181.202 31.338 180.382 31.2008 179.443 31.2008C178.201 31.2008 177.172 31.4546 176.355 31.9589C175.539 32.4631 174.894 33.1251 174.417 33.9415C173.941 34.7579 173.608 35.6806 173.423 36.7131C173.234 37.7456 173.141 38.7952 173.141 39.8654V39.862Z" fill="white"/>
<path d="M205.539 31.4169L205.605 33.3446C205.358 32.7821 204.997 32.3533 204.521 32.0549C204.044 31.7599 203.495 31.6124 202.874 31.6124H197.201V39.5155H200.97C201.852 39.5155 202.514 39.2994 202.963 38.8672C203.094 38.7677 203.224 38.5928 203.354 38.3492V40.6886C203.066 40.2701 202.716 39.9992 202.305 39.8757C201.893 39.7522 201.451 39.6904 200.974 39.6904H197.204V45.8202C197.204 46.4993 197.228 46.9727 197.279 47.2368C197.331 47.5044 197.369 47.6965 197.4 47.8097C197.53 48.1115 197.753 48.3585 198.072 48.5471H194.779C194.937 48.4614 195.067 48.3379 195.17 48.1801C195.458 47.8062 195.602 47.0173 195.602 45.8202V34.1473C195.602 33.499 195.582 33.0359 195.537 32.7615C195.492 32.4871 195.451 32.2916 195.407 32.1749C195.276 31.8731 195.06 31.6193 194.758 31.4169H205.543H205.539Z" fill="white"/>
<path d="M224.985 39.9683C224.985 38.7129 225.17 37.5398 225.537 36.449C225.904 35.3582 226.439 34.4149 227.139 33.6122C227.839 32.8096 228.707 32.1784 229.739 31.7188C230.772 31.2557 231.958 31.0259 233.303 31.0259H233.8C234.493 31.0259 235.08 31.0911 235.564 31.2214C236.047 31.3517 236.459 31.4924 236.798 31.6433C237.138 31.7942 237.426 31.9349 237.666 32.0652C237.906 32.1956 238.14 32.2607 238.369 32.2607C238.63 32.2607 238.856 32.199 239.052 32.0755C239.248 31.952 239.416 31.7908 239.56 31.5884L239.796 34.8574C239.522 34.3394 239.186 33.8592 238.788 33.4167C238.39 32.9776 237.958 32.5935 237.488 32.2676C237.018 31.9417 236.517 31.6913 235.982 31.5095C235.447 31.3277 234.891 31.2386 234.315 31.2386C233.001 31.2386 231.883 31.4752 230.957 31.9417C230.034 32.4117 229.283 33.0463 228.703 33.8455C228.127 34.6481 227.708 35.5743 227.448 36.6273C227.187 37.6804 227.057 38.7918 227.057 39.9615C227.057 41.1312 227.187 42.246 227.448 43.3059C227.708 44.3658 228.127 45.2988 228.703 46.0981C229.279 46.9007 230.031 47.5387 230.957 48.0155C231.88 48.4923 233.001 48.729 234.315 48.729C235.543 48.729 236.623 48.4134 237.563 47.7857C238.503 47.158 239.244 46.2593 239.793 45.0896L239.556 48.3585C239.254 47.9263 238.856 47.7102 238.366 47.7102C238.136 47.7102 237.923 47.7754 237.728 47.9058C237.532 48.0361 237.282 48.1767 236.97 48.3277C236.658 48.4786 236.26 48.6192 235.769 48.7496C235.279 48.8799 234.62 48.952 233.797 48.9657H233.3C231.958 48.9657 230.768 48.7359 229.736 48.2728C228.703 47.8097 227.839 47.1751 227.136 46.3656C226.436 45.5561 225.901 44.6059 225.534 43.5083C225.167 42.4106 224.981 41.2272 224.981 39.958L224.985 39.9683Z" fill="white"/>
<path d="M247.181 48.0463C247.267 47.9297 247.349 47.717 247.432 47.4083C247.511 47.0996 247.552 46.5679 247.552 45.8167V34.1439C247.552 33.4956 247.511 32.9742 247.432 32.5866C247.353 32.1955 247.226 31.9005 247.051 31.6981C246.993 31.6536 246.938 31.609 246.89 31.5575C246.842 31.5061 246.783 31.4615 246.729 31.4169L251.644 31.4375C252.337 31.4375 253.068 31.4958 253.832 31.609C254.597 31.7256 255.294 31.9348 255.921 32.2367C256.549 32.5385 257.071 32.9639 257.482 33.5024C257.894 34.0444 258.1 34.7476 258.1 35.6154C258.1 36.2363 257.99 36.7782 257.774 37.2413C257.558 37.7044 257.263 38.0988 256.885 38.4316C256.511 38.7643 256.076 39.0387 255.585 39.2548C255.095 39.4709 254.573 39.639 254.025 39.7522L253.311 39.9237L257.468 45.707C257.671 45.9814 257.88 46.2592 258.096 46.5405C258.312 46.8218 258.545 47.0893 258.799 47.3432C259.053 47.597 259.317 47.8268 259.602 48.036C259.883 48.2453 260.182 48.4134 260.501 48.5437H257.859L251.774 40.1192C252.368 40.0335 252.917 39.8791 253.431 39.663C253.942 39.4469 254.395 39.1588 254.786 38.7952C255.177 38.435 255.482 38.0062 255.705 37.5054C255.928 37.0046 256.041 36.4352 256.041 35.7835C256.041 35.1317 255.945 34.5692 255.75 34.0512C255.554 33.5299 255.249 33.0771 254.831 32.686C254.584 32.4253 254.347 32.223 254.117 32.0789C253.887 31.9348 253.647 31.8285 253.404 31.7633C253.157 31.6981 252.896 31.6536 252.615 31.633C252.333 31.6124 252.011 31.6021 251.651 31.6021H249.14V45.8099C249.14 47.0962 249.305 47.9091 249.637 48.2556C249.737 48.3859 249.847 48.4785 249.963 48.5369H246.715C246.801 48.4648 246.883 48.3928 246.965 48.3208C247.048 48.2487 247.12 48.1561 247.192 48.0395L247.181 48.0463Z" fill="white"/>
<path d="M266.583 48.5438C266.771 48.458 266.956 48.2865 267.145 48.0361C267.334 47.7857 267.512 47.5044 267.687 47.2026C267.859 46.9007 268.016 46.5988 268.154 46.3039C268.291 46.0089 268.397 45.7722 268.469 45.6007L274.619 31.2008L280.705 45.7516C280.979 46.3999 281.24 46.9316 281.483 47.3432C281.727 47.7548 281.974 48.0704 282.221 48.2865C282.279 48.3311 282.337 48.3757 282.396 48.4271C282.454 48.4786 282.519 48.5163 282.591 48.5472H278.866C279.068 48.4031 279.212 48.2316 279.298 48.0395C279.384 47.844 279.429 47.6382 279.429 47.4221C279.429 47.206 279.384 46.9281 279.298 46.5886C279.212 46.249 279.068 45.8476 278.866 45.388L277.676 42.5958H269.989L268.668 45.6281C268.51 46.0329 268.39 46.3793 268.311 46.6675C268.232 46.9556 268.191 47.2026 268.191 47.4049C268.191 47.549 268.222 47.7205 268.287 47.9126C268.352 48.1047 268.507 48.3071 268.754 48.5095L268.84 48.554H266.586L266.583 48.5438ZM270.047 42.4175H277.648L273.903 33.475L270.047 42.4175Z" fill="white"/>
<path d="M299.629 31.4169L299.694 33.3446C299.447 32.7821 299.087 32.3533 298.61 32.0549C298.133 31.7599 297.584 31.6124 296.963 31.6124H291.29V39.5155H295.06C295.941 39.5155 296.603 39.2994 297.053 38.8672C297.183 38.7677 297.313 38.5928 297.444 38.3492V40.6886C297.156 40.2701 296.806 39.9992 296.394 39.8757C295.982 39.7522 295.54 39.6904 295.063 39.6904H291.293V45.8202C291.293 46.4993 291.317 46.9727 291.369 47.2368C291.42 47.5044 291.458 47.6965 291.489 47.8097C291.619 48.1115 291.842 48.3585 292.161 48.5471H288.868C289.026 48.4614 289.156 48.3379 289.259 48.1801C289.547 47.8062 289.691 47.0173 289.691 45.8202V34.1473C289.691 33.499 289.671 33.0359 289.626 32.7615C289.582 32.4871 289.541 32.2916 289.496 32.1749C289.366 31.8731 289.15 31.6193 288.848 31.4169H299.632H299.629Z" fill="white"/>
<path d="M305.584 31.4169H319.442L319.507 33.2349C319.335 32.9193 319.133 32.6552 318.9 32.4459C318.67 32.2367 318.416 32.072 318.142 31.9485C317.867 31.8251 317.572 31.7393 317.253 31.6879C316.934 31.6364 316.612 31.6124 316.279 31.6124H313.247V45.9059C313.247 47.1476 313.411 47.94 313.744 48.2865C313.83 48.4031 313.933 48.4888 314.046 48.5471H310.842C311.014 48.4168 311.151 48.2727 311.254 48.1149C311.528 47.7548 311.666 47.0173 311.666 45.9059V31.6124H309.004C308.644 31.6124 308.304 31.6227 307.985 31.6433C307.666 31.6638 307.371 31.7222 307.097 31.8182C306.822 31.9108 306.561 32.048 306.318 32.2298C306.071 32.4116 305.841 32.6586 305.625 32.9776C305.598 33.005 305.574 33.0393 305.56 33.0736C305.546 33.1114 305.526 33.1422 305.495 33.1697L305.58 31.4169H305.584Z" fill="white"/>
</g>
</g>
<defs>
<clipPath id="clip0_147_1541">
<rect width="322.186" height="49" fill="white"/>
</clipPath>
</defs>
</svg>
