<svg width="1883" height="55" viewBox="0 0 1883 55" fill="none" xmlns="http://www.w3.org/2000/svg">
<g opacity="0.85">
<path d="M0.265147 1.11206H39.939L40.1255 6.28233C39.6345 5.38485 39.0551 4.6337 38.3874 4.03863C37.7294 3.44356 37.0027 2.97531 36.2171 2.62412C35.4315 2.27293 34.5869 2.02905 33.6736 1.88272C32.7604 1.7364 31.8372 1.66811 30.8847 1.66811H22.2036V42.3182C22.2036 45.8496 22.675 48.103 23.6275 49.0883C23.873 49.42 24.1676 49.6639 24.4917 49.8297H15.3196C15.8106 49.459 16.2034 49.0493 16.498 48.6005C17.2836 47.5762 17.6764 45.4789 17.6764 42.3182V1.65835H10.0461C9.01499 1.65835 8.04278 1.68762 7.1295 1.74615C6.21622 1.80468 5.37168 1.97052 4.58606 2.24367C3.80044 2.50706 3.0541 2.89727 2.35686 3.4143C1.6498 3.93132 0.991845 4.6337 0.37317 5.54094C0.294608 5.61898 0.225866 5.71653 0.186585 5.81408C0.147304 5.92139 0.0883823 6.00919 0 6.08723L0.265147 1.11206Z" fill="white"/>
<path d="M67.7797 1.11217C66.9155 1.68773 66.287 2.44864 65.9236 3.3949C65.796 3.72657 65.6781 4.26311 65.5505 5.02402C65.4228 5.78493 65.3639 7.08237 65.3639 8.93587V24.7589H92.1437V8.92611C92.1437 7.0336 92.0848 5.70689 91.9571 4.92647C91.8295 4.14605 91.692 3.59 91.525 3.25832C91.1519 2.39986 90.5528 1.67798 89.7279 1.10242H99.1554C98.2912 1.63895 97.6627 2.41937 97.2993 3.44367C97.1717 3.77535 97.0538 4.31189 96.9262 5.0728C96.7985 5.8337 96.7396 7.11164 96.7396 8.92611V42.0549C96.7396 43.9864 96.8083 45.3326 96.9556 46.0838C97.1029 46.8447 97.2306 47.391 97.3583 47.7129C97.6431 48.5324 98.2715 49.2347 99.2143 49.8103H89.7869C89.9931 49.6835 90.1797 49.5371 90.3466 49.3518C90.5135 49.1664 90.7001 48.9713 90.9064 48.7665C91.7313 47.7032 92.1437 45.4595 92.1437 42.0549V25.2369H65.3639V42.0549C65.3639 43.9864 65.4326 45.3326 65.5799 46.0838C65.7272 46.8447 65.8353 47.391 65.9236 47.7129C66.2968 48.5714 66.9351 49.2738 67.8484 49.8103H58.421C58.8727 49.5664 59.2459 49.2152 59.5405 48.7665C60.3654 47.7032 60.7778 45.4595 60.7778 42.0549V8.92611C60.7778 7.0336 60.7189 5.70689 60.5912 4.92647C60.4636 4.14605 60.3457 3.59 60.2181 3.25832C59.8449 2.39986 59.2262 1.67798 58.362 1.10242H67.7895L67.7797 1.11217Z" fill="white"/>
<path d="M119.297 49.8199C120.161 49.2444 120.789 48.4835 121.153 47.5372C121.231 47.2055 121.349 46.6788 121.496 45.9374C121.644 45.196 121.712 43.9278 121.712 42.1231V8.68212C121.712 7.49198 121.673 6.49695 121.585 5.69702C121.506 4.89709 121.388 4.23374 121.241 3.6972C121.094 3.16066 120.937 2.75094 120.78 2.46804C120.613 2.18514 120.465 1.95101 120.347 1.79493C120.22 1.71688 120.102 1.59982 119.974 1.45349C119.847 1.30717 119.729 1.19986 119.601 1.11206H151.468L151.713 5.66775C151.635 5.46289 151.546 5.2873 151.468 5.14097C151.389 4.99464 151.301 4.86783 151.222 4.74101C150.682 3.88255 150.122 3.22895 149.553 2.79972C148.973 2.37049 148.355 2.06807 147.697 1.90223C147.039 1.7364 146.342 1.65835 145.615 1.65835H126.24V24.0759H140.41C141.049 24.0759 141.687 24.0369 142.335 23.9491C142.973 23.871 143.592 23.7247 144.191 23.5198C144.79 23.315 145.32 23.0028 145.772 22.5931C146.106 22.3492 146.371 22.0761 146.577 21.7932C146.784 21.5103 146.99 21.1981 147.196 20.8664V27.7634C146.577 26.6122 145.644 25.7733 144.407 25.2368C143.415 24.749 142.472 24.5051 141.589 24.5246C140.695 24.5441 139.693 24.5539 138.584 24.5539H126.249V49.2541H144.535C145.733 49.2541 146.764 49.1371 147.638 48.9127C148.512 48.6883 149.288 48.3469 149.995 47.8982C150.702 47.4494 151.36 46.8934 151.978 46.2398C152.597 45.5862 153.235 44.8253 153.903 43.957L151.792 49.8102H119.307L119.297 49.8199Z" fill="white"/>
<path d="M219.237 1.11217C218.373 1.68773 217.745 2.44864 217.381 3.3949C217.254 3.72657 217.136 4.26311 217.008 5.02402C216.88 5.78493 216.822 7.08237 216.822 8.93587V24.7589H243.601V8.92611C243.601 7.0336 243.542 5.70689 243.415 4.92647C243.287 4.14605 243.15 3.59 242.983 3.25832C242.61 2.39986 242.01 1.67798 241.186 1.10242H250.613C249.749 1.63895 249.12 2.41937 248.757 3.44367C248.629 3.77535 248.511 4.31189 248.384 5.0728C248.256 5.8337 248.197 7.11164 248.197 8.92611V42.0549C248.197 43.9864 248.266 45.3326 248.413 46.0838C248.561 46.8447 248.688 47.391 248.816 47.7129C249.101 48.5324 249.729 49.2347 250.672 49.8103H241.244C241.451 49.6835 241.637 49.5371 241.804 49.3518C241.971 49.1664 242.158 48.9713 242.364 48.7665C243.189 47.7032 243.601 45.4595 243.601 42.0549V25.2369H216.822V42.0549C216.822 43.9864 216.89 45.3326 217.038 46.0838C217.185 46.8447 217.293 47.391 217.381 47.7129C217.754 48.5714 218.393 49.2738 219.306 49.8103H209.879C210.33 49.5664 210.704 49.2152 210.998 48.7665C211.823 47.7032 212.235 45.4595 212.235 42.0549V8.92611C212.235 7.0336 212.177 5.70689 212.049 4.92647C211.921 4.14605 211.803 3.59 211.676 3.25832C211.303 2.39986 210.684 1.67798 209.82 1.10242H219.247L219.237 1.11217Z" fill="white"/>
<path d="M268.584 49.8199C269.124 49.576 269.654 49.0882 270.194 48.3761C270.735 47.6542 271.245 46.864 271.746 46.0056C272.247 45.1471 272.689 44.2887 273.082 43.4497C273.474 42.6108 273.769 41.9377 273.985 41.4499L291.583 0.487671L309.004 41.8694C309.79 43.7131 310.536 45.2252 311.233 46.3958C311.931 47.5664 312.638 48.4639 313.345 49.0785C313.512 49.2053 313.679 49.3321 313.836 49.4784C314.003 49.6248 314.189 49.7321 314.395 49.8199H303.731C304.31 49.4102 304.722 48.9224 304.968 48.3761C305.214 47.8298 305.341 47.2347 305.341 46.6202C305.341 46.0056 305.214 45.2154 304.968 44.2496C304.722 43.2839 304.31 42.1425 303.731 40.8353L300.323 32.8946H278.316L274.535 41.5182C274.083 42.6693 273.74 43.6546 273.514 44.474C273.288 45.2934 273.17 45.9958 273.17 46.5714C273.17 46.9811 273.258 47.4689 273.445 48.0152C273.632 48.5712 274.074 49.137 274.781 49.7126L275.026 49.8394H268.574L268.584 49.8199ZM278.502 32.397H300.264L289.54 6.96514L278.502 32.397Z" fill="white"/>
<path d="M338.269 1.11217L371.932 42.1232V8.68223C371.932 6.83849 371.815 5.37521 371.589 4.31189C371.363 3.24857 370.999 2.41937 370.508 1.84381C370.381 1.717 370.253 1.59993 370.106 1.47312C369.959 1.3463 369.831 1.22924 369.703 1.10242H374.908C374.662 1.26826 374.437 1.46336 374.23 1.68773C374.024 1.9121 373.818 2.14623 373.612 2.39986C373.278 2.9364 373.022 3.70706 372.836 4.71185C372.649 5.71664 372.561 7.04335 372.561 8.68223V49.8883L337.1 6.83849V42.3085C337.1 45.8399 337.532 48.0934 338.406 49.0787C338.573 49.2055 338.72 49.3323 338.838 49.4786C338.966 49.6249 339.123 49.7323 339.339 49.82H334.134C334.38 49.6152 334.606 49.4201 334.812 49.2347C335.018 49.0494 335.205 48.8348 335.372 48.5909C336.069 47.6056 336.422 45.5082 336.422 42.3085V6.03856L336.108 5.66787C334.576 3.86315 333.358 2.6535 332.455 2.02916C332.043 1.65847 331.542 1.35605 330.962 1.10242H338.278L338.269 1.11217Z" fill="white"/>
<path d="M395.059 49.8199C395.305 49.6151 395.54 49.4102 395.776 49.2054C396.002 49.0005 396.218 48.7371 396.424 48.4054C396.503 48.2396 396.611 48.0152 396.738 47.7323C396.866 47.4494 396.974 47.0592 397.082 46.5617C397.18 46.0739 397.278 45.4593 397.357 44.7472C397.436 44.0253 397.485 43.1376 397.485 42.0645V8.86747C397.485 5.33608 397.013 3.01433 396.061 1.91199C395.894 1.78517 395.737 1.65835 395.599 1.51203C395.452 1.3657 395.295 1.23888 395.138 1.11206H409.711C411.076 1.11206 412.5 1.14133 413.993 1.19986C415.485 1.25839 416.978 1.38521 418.49 1.57056C420.003 1.75591 421.466 2.00954 422.89 2.34122C424.314 2.6729 425.63 3.10213 426.828 3.63867C428.978 4.58492 430.834 5.82384 432.405 7.36516C433.977 8.90649 435.273 10.6234 436.314 12.5062C437.345 14.3987 438.121 16.4278 438.641 18.6032C439.162 20.7786 439.417 22.9735 439.417 25.188C439.417 32.0069 437.375 37.6942 433.28 42.2499C431.787 43.8888 430.117 45.2057 428.261 46.191C426.405 47.1763 424.451 47.9372 422.399 48.4737C420.356 49.0103 418.264 49.3712 416.133 49.5468C414.002 49.7321 411.891 49.8199 409.78 49.8199H395.089H395.059ZM427.171 43.2937C431.345 38.9038 433.437 33.0117 433.437 25.6172C433.437 18.2227 431.345 12.233 427.171 7.88219C425.6 6.19454 423.813 4.93611 421.809 4.09716C419.806 3.25821 417.705 2.65339 415.515 2.28269C413.325 1.91199 411.076 1.71688 408.758 1.69737C406.441 1.67786 404.192 1.66811 402.002 1.66811V49.3322C404.437 49.3322 406.804 49.3517 409.102 49.3907C411.4 49.4297 413.6 49.3029 415.701 48.9907C417.813 48.6786 419.826 48.0933 421.751 47.2348C423.675 46.3763 425.482 45.0594 427.171 43.2937Z" fill="white"/>
<path d="M459.352 12.1355C459.352 10.2918 459.735 8.61389 460.501 7.12134C461.267 5.61903 462.288 4.35085 463.565 3.30704C464.842 2.26323 466.315 1.45355 467.965 0.877992C469.614 0.302433 471.333 0.0195312 473.11 0.0195312C475.713 0.0195312 478.462 0.634111 481.359 1.86327C482.891 2.56565 484.089 2.90708 484.954 2.90708C485.945 2.90708 486.79 2.5754 487.497 1.9218L487.625 1.79498V10.5357C487.418 9.96011 487.202 9.43333 486.977 8.96508C486.751 8.49683 486.515 8.02858 486.26 7.57984C485.602 6.46774 484.777 5.48246 483.814 4.624C482.842 3.76554 481.782 3.02414 480.623 2.40956C479.464 1.79498 478.246 1.32673 476.97 0.995054C475.683 0.663377 474.407 0.507293 473.13 0.507293C471.853 0.507293 470.577 0.712153 469.32 1.12187C468.063 1.53159 466.943 2.12666 465.971 2.90708C464.999 3.6875 464.213 4.64351 463.614 5.77512C463.015 6.90673 462.711 8.16515 462.711 9.56015C462.711 11.4527 463.369 13.1696 464.694 14.7304C466.305 16.701 470.174 19.3251 476.292 22.6126C478.688 23.8906 480.701 25.0027 482.341 25.9685C483.972 26.9342 485.229 27.7439 486.093 28.3975C487.536 29.5876 488.725 31.0119 489.657 32.68C490.59 34.3482 491.052 36.1627 491.052 38.1332C491.052 41.5866 489.667 44.6009 486.898 47.1861C484.129 49.7712 480.534 51.0687 476.115 51.0687C474.466 51.0687 472.983 50.9028 471.686 50.5809C470.38 50.2492 468.947 49.8395 467.375 49.3517C465.676 48.7762 464.478 48.425 463.781 48.3079C463.074 48.1811 462.583 48.1226 462.288 48.1226C461.67 48.1226 461.169 48.2299 460.796 48.4347C460.423 48.6396 460.118 48.8445 459.863 49.0493V40.2404C460.108 40.9427 460.354 41.5768 460.609 42.1524C460.855 42.7279 461.13 43.245 461.414 43.6937C462.072 44.8058 462.946 45.7813 464.017 46.6203C465.087 47.4592 466.275 48.1811 467.582 48.7762C468.888 49.3713 470.223 49.82 471.608 50.1322C472.992 50.4443 474.308 50.5907 475.546 50.5907C476.989 50.5907 478.403 50.3858 479.788 49.9761C481.173 49.5664 482.4 48.9615 483.481 48.1616C484.551 47.3617 485.415 46.3666 486.053 45.1765C486.692 43.9864 487.016 42.5914 487.016 40.9915C487.016 39.3039 486.525 37.7235 485.562 36.2505C484.59 34.7774 483.441 33.5385 482.125 32.5532C481.585 32.1045 480.633 31.4802 479.277 30.6802C477.912 29.8803 476.115 28.8462 473.886 27.5683C471.657 26.3782 469.771 25.2856 468.239 24.3003C466.708 23.315 465.49 22.4761 464.586 21.7737C462.976 20.5836 461.699 19.2081 460.776 17.6472C459.843 16.0864 459.382 14.2622 459.382 12.1648L459.352 12.1355Z" fill="white"/>
<path d="M547.627 25.3148C547.627 17.4716 550.268 11.1502 555.561 6.35067C557.879 4.21427 560.344 2.62417 562.966 1.58036C565.588 0.536548 568.514 0.00976562 571.735 0.00976562C574.956 0.00976562 577.932 0.595079 580.79 1.76571C583.637 2.93634 586.25 4.7313 588.597 7.1506C593.222 11.9111 595.54 17.9301 595.54 25.1978C595.54 28.934 594.96 32.3288 593.801 35.392C592.643 38.4551 590.885 41.2159 588.528 43.6742C586.21 46.0545 583.569 47.8884 580.593 49.1566C577.618 50.4248 574.534 51.0686 571.352 51.0686C568.171 51.0686 565.077 50.4638 562.21 49.2542C559.332 48.0445 556.759 46.2691 554.491 43.9278C549.905 39.1673 547.607 32.9629 547.607 25.3246L547.627 25.3148ZM553.705 25.1295C553.705 28.0463 553.961 31.0119 554.481 34.0263C555.002 37.0406 555.915 39.7721 557.241 42.2207C558.566 44.6595 560.373 46.669 562.661 48.2299C564.959 49.7907 567.856 50.5711 571.372 50.5711C574.888 50.5711 577.942 49.8688 580.299 48.4738C582.655 47.0788 584.511 45.2448 585.876 42.9621C587.241 40.6793 588.204 38.0844 588.764 35.1676C589.323 32.2508 589.598 29.2755 589.598 26.2416C589.598 17.1302 587.742 10.2918 584.02 5.73609C582.528 3.80455 580.79 2.44857 578.786 1.66816C576.783 0.887736 574.436 0.497527 571.745 0.497527C568.19 0.497527 565.244 1.21941 562.907 2.65343C560.57 4.08745 558.723 5.97021 557.358 8.29196C555.993 10.6137 555.041 13.2379 554.511 16.1742C553.97 19.1105 553.705 22.0956 553.705 25.1392V25.1295Z" fill="white"/>
<path d="M646.448 1.11217L646.634 6.59461C645.927 4.99475 644.896 3.77535 643.531 2.92665C642.166 2.0877 640.595 1.66822 638.817 1.66822H622.575V24.1443H633.357C635.881 24.1443 637.776 23.5297 639.063 22.3005C639.436 22.0176 639.809 21.5201 640.182 20.8275V27.4806C639.357 26.2904 638.356 25.5198 637.177 25.1686C635.999 24.8174 634.732 24.6418 633.367 24.6418H622.584V42.0744C622.584 44.0059 622.653 45.3521 622.801 46.1033C622.948 46.8642 623.056 47.4105 623.144 47.7324C623.517 48.5909 624.156 49.2933 625.069 49.8298H615.642C616.093 49.5859 616.466 49.2347 616.761 48.786C617.586 47.7227 617.998 45.479 617.998 42.0744V8.86758C617.998 7.02384 617.939 5.70689 617.812 4.92647C617.684 4.14605 617.566 3.59 617.439 3.25832C617.065 2.39986 616.447 1.67798 615.583 1.10242H646.458L646.448 1.11217Z" fill="white"/>
<path d="M700.508 1.11217H740.182L740.369 6.28245C739.878 5.38496 739.298 4.63381 738.63 4.03874C737.972 3.44367 737.246 2.97542 736.46 2.62423C735.675 2.27304 734.83 2.02916 733.917 1.88284C733.003 1.73651 732.08 1.66822 731.128 1.66822H722.447V42.3183C722.447 45.8497 722.918 48.1031 723.871 49.0884C724.116 49.4201 724.411 49.664 724.735 49.8298H715.563C716.054 49.4591 716.447 49.0494 716.741 48.6006C717.527 47.5763 717.919 45.479 717.919 42.3183V1.65847H710.289C709.258 1.65847 708.286 1.68773 707.373 1.74626C706.459 1.80479 705.615 1.97063 704.829 2.24378C704.044 2.50717 703.297 2.89738 702.6 3.41441C701.893 3.93143 701.235 4.63381 700.616 5.54105C700.538 5.61909 700.469 5.71664 700.43 5.81419C700.39 5.9215 700.331 6.0093 700.243 6.08734L700.489 1.10242L700.508 1.11217Z" fill="white"/>
<path d="M768.022 1.11217C767.816 1.27801 767.61 1.45361 767.404 1.63895C767.197 1.8243 767.03 2.01941 766.913 2.22427C766.048 3.24857 765.607 5.47276 765.607 8.87734V42.0744C765.607 43.9181 765.675 45.2448 765.823 46.0448C765.97 46.8447 766.078 47.4105 766.166 47.7422C766.539 48.6006 767.178 49.303 768.091 49.8396H758.664C759.115 49.5957 759.489 49.2445 759.783 48.7957C760.608 47.7324 761.02 45.4887 761.02 42.0841V8.86758C761.02 7.02384 760.962 5.70689 760.834 4.92647C760.706 4.14605 760.588 3.59 760.461 3.25832C760.088 2.39986 759.469 1.67798 758.605 1.10242H768.032L768.022 1.11217Z" fill="white"/>
<path d="M795.922 1.11206L815.572 43.1766L834.918 1.11206H842.293C841.713 1.52178 841.272 2.02905 840.957 2.62412C840.643 3.21919 840.417 3.86304 840.28 4.56541C840.132 5.26779 840.054 5.97017 840.034 6.69205C840.015 7.41394 840.005 8.0773 840.005 8.69188V42.3182C840.005 45.8496 840.476 48.103 841.429 49.0883C841.556 49.2151 841.684 49.3419 841.831 49.4883C841.979 49.6346 842.106 49.7419 842.234 49.8297H833.121C833.612 49.459 834.005 49.0493 834.299 48.6005C834.672 48.064 834.947 47.2933 835.134 46.2885C835.32 45.2838 835.409 43.957 835.409 42.3182V1.72664L813.402 49.3322L791.394 1.78517L791.522 42.3084C791.522 45.8398 791.954 48.0933 792.828 49.0785C792.995 49.2054 793.142 49.3322 793.26 49.4785C793.388 49.6248 793.525 49.7321 793.692 49.8199H788.547C788.753 49.6151 788.959 49.42 789.165 49.2346C789.372 49.0493 789.558 48.8347 789.725 48.5908C790.137 48.0542 790.412 47.2836 790.56 46.2788C790.707 45.274 790.776 43.9473 790.776 42.3084V8.68212C790.776 7.12128 790.648 5.71653 790.403 4.46786C790.157 3.21919 789.372 2.09734 788.046 1.11206H795.922Z" fill="white"/>
<path d="M862.503 49.8199C863.367 49.2444 863.996 48.4835 864.359 47.5372C864.438 47.2055 864.556 46.6788 864.703 45.9374C864.85 45.196 864.919 43.9278 864.919 42.1231V8.68212C864.919 7.49198 864.88 6.49695 864.791 5.69702C864.713 4.89709 864.595 4.23374 864.448 3.6972C864.3 3.16066 864.143 2.75094 863.986 2.46804C863.819 2.18514 863.672 1.95101 863.554 1.79493C863.426 1.71688 863.308 1.59982 863.181 1.45349C863.053 1.30717 862.935 1.19986 862.808 1.11206H894.674L894.92 5.66775C894.841 5.46289 894.753 5.2873 894.674 5.14097C894.596 4.99464 894.507 4.86783 894.429 4.74101C893.889 3.88255 893.329 3.22895 892.759 2.79972C892.18 2.37049 891.561 2.06807 890.903 1.90223C890.245 1.7364 889.548 1.65835 888.821 1.65835H869.446V24.0759H883.617C884.255 24.0759 884.893 24.0369 885.541 23.9491C886.18 23.871 886.798 23.7247 887.397 23.5198C887.996 23.315 888.527 23.0028 888.978 22.5931C889.312 22.3492 889.578 22.0761 889.784 21.7932C889.99 21.5103 890.196 21.1981 890.402 20.8664V27.7634C889.784 26.6122 888.851 25.7733 887.614 25.2368C886.622 24.749 885.679 24.5051 884.795 24.5246C883.901 24.5441 882.9 24.5539 881.79 24.5539H869.456V49.2541H887.741C888.939 49.2541 889.97 49.1371 890.844 48.9127C891.718 48.6883 892.494 48.3469 893.201 47.8982C893.908 47.4494 894.566 46.8934 895.185 46.2398C895.804 45.5862 896.442 44.8253 897.11 43.957L894.998 49.8102H862.513L862.503 49.8199Z" fill="white"/>
<path d="M915.326 54.9999C916.072 54.7561 916.799 54.4244 917.526 54.0147C918.252 53.6049 918.773 53.0294 919.107 52.288C919.274 51.8392 919.313 51.4588 919.234 51.1466C919.156 50.8345 919.068 50.5808 918.989 50.376C918.822 50.2101 918.606 50.015 918.341 49.7906C918.076 49.5663 917.565 49.2444 916.819 48.8346C916.573 48.7078 916.387 48.5225 916.259 48.2786C915.807 47.625 915.621 46.9226 915.699 46.1812C915.827 45.6057 916.279 45.0301 917.064 44.4545C917.722 44.0058 918.527 43.879 919.48 44.0838C920.393 44.3277 921.13 44.8643 921.709 45.6837C922.456 46.708 922.593 48.0054 922.141 49.5663C921.974 50.2687 921.65 50.9223 921.179 51.5368C920.708 52.1514 920.148 52.6977 919.509 53.166C918.871 53.6342 918.184 54.0244 917.467 54.3366C916.74 54.6488 916.033 54.8634 915.326 54.9804V54.9999Z" fill="white"/>
<path d="M977.449 1.11217H1017.12L1017.31 6.28245C1016.82 5.38496 1016.24 4.63381 1015.57 4.03874C1014.91 3.44367 1014.19 2.97542 1013.4 2.62423C1012.62 2.27304 1011.77 2.02916 1010.86 1.88284C1009.94 1.73651 1009.02 1.66822 1008.07 1.66822H999.387V42.3183C999.387 45.8497 999.859 48.1031 1000.81 49.0884C1001.06 49.4201 1001.35 49.664 1001.68 49.8298H992.504C992.995 49.4591 993.387 49.0494 993.682 48.6006C994.468 47.5763 994.86 45.479 994.86 42.3183V1.65847H987.24C986.209 1.65847 985.237 1.68773 984.323 1.74626C983.41 1.80479 982.565 1.97063 981.78 2.24378C980.994 2.50717 980.248 2.89738 979.551 3.41441C978.844 3.93143 978.186 4.63381 977.567 5.54105C977.488 5.61909 977.42 5.71664 977.38 5.81419C977.341 5.9215 977.282 6.0093 977.194 6.08734L977.439 1.10242L977.449 1.11217Z" fill="white"/>
<path d="M1044.96 1.11217C1044.1 1.68773 1043.48 2.44864 1043.11 3.3949C1042.98 3.72657 1042.86 4.26311 1042.73 5.02402C1042.61 5.78493 1042.55 7.08237 1042.55 8.93587V24.7589H1069.33V8.92611C1069.33 7.0336 1069.27 5.70689 1069.14 4.92647C1069.01 4.14605 1068.88 3.59 1068.71 3.25832C1068.34 2.39986 1067.74 1.67798 1066.91 1.10242H1076.34C1075.47 1.63895 1074.85 2.41937 1074.48 3.44367C1074.36 3.77535 1074.24 4.31189 1074.11 5.0728C1073.98 5.8337 1073.92 7.11164 1073.92 8.92611V42.0549C1073.92 43.9864 1073.99 45.3326 1074.14 46.0838C1074.29 46.8447 1074.41 47.391 1074.54 47.7129C1074.83 48.5324 1075.45 49.2347 1076.4 49.8103H1066.97C1067.18 49.6835 1067.36 49.5371 1067.53 49.3518C1067.7 49.1664 1067.88 48.9713 1068.09 48.7665C1068.91 47.7032 1069.33 45.4595 1069.33 42.0549V25.2369H1042.55V42.0549C1042.55 43.9864 1042.62 45.3326 1042.76 46.0838C1042.91 46.8447 1043.02 47.391 1043.11 47.7129C1043.48 48.5714 1044.12 49.2738 1045.03 49.8103H1035.6C1036.06 49.5664 1036.43 49.2152 1036.72 48.7665C1037.55 47.7032 1037.96 45.4595 1037.96 42.0549V8.92611C1037.96 7.0336 1037.9 5.70689 1037.77 4.92647C1037.65 4.14605 1037.53 3.59 1037.4 3.25832C1037.03 2.39986 1036.41 1.67798 1035.55 1.10242H1044.97L1044.96 1.11217Z" fill="white"/>
<path d="M1096.48 49.8199C1097.34 49.2444 1097.97 48.4835 1098.34 47.5372C1098.41 47.2055 1098.53 46.6788 1098.68 45.9374C1098.83 45.196 1098.9 43.9278 1098.9 42.1231V8.68212C1098.9 7.49198 1098.86 6.49695 1098.77 5.69702C1098.69 4.89709 1098.57 4.23374 1098.42 3.6972C1098.28 3.16066 1098.12 2.75094 1097.96 2.46804C1097.8 2.18514 1097.65 1.95101 1097.53 1.79493C1097.4 1.71688 1097.29 1.59982 1097.16 1.45349C1097.03 1.30717 1096.91 1.19986 1096.78 1.11206H1128.65L1128.9 5.66775C1128.82 5.46289 1128.73 5.2873 1128.65 5.14097C1128.57 4.99464 1128.48 4.86783 1128.41 4.74101C1127.87 3.88255 1127.31 3.22895 1126.74 2.79972C1126.16 2.37049 1125.54 2.06807 1124.88 1.90223C1124.22 1.7364 1123.53 1.65835 1122.81 1.65835H1103.43V24.0759H1117.59C1118.23 24.0759 1118.87 24.0369 1119.52 23.9491C1120.17 23.8613 1120.78 23.7247 1121.37 23.5198C1121.97 23.315 1122.5 23.0028 1122.96 22.5931C1123.29 22.3492 1123.55 22.0761 1123.76 21.7932C1123.97 21.5103 1124.17 21.1981 1124.38 20.8664V27.7634C1123.76 26.6122 1122.83 25.7733 1121.59 25.2368C1120.6 24.749 1119.66 24.5051 1118.77 24.5246C1117.88 24.5441 1116.88 24.5539 1115.77 24.5539H1103.43V49.2541H1121.72C1122.92 49.2541 1123.95 49.1371 1124.82 48.9127C1125.7 48.6883 1126.47 48.3469 1127.18 47.8982C1127.89 47.4494 1128.54 46.8934 1129.16 46.2398C1129.78 45.5862 1130.42 44.8253 1131.09 43.957L1128.98 49.8102H1096.49L1096.48 49.8199Z" fill="white"/>
<path d="M1186.99 12.1355C1186.99 10.2918 1187.38 8.61389 1188.14 7.12134C1188.91 5.61903 1189.93 4.35085 1191.21 3.30704C1192.48 2.26323 1193.96 1.45355 1195.61 0.877992C1197.26 0.302433 1198.97 0.0195312 1200.75 0.0195312C1203.35 0.0195312 1206.1 0.634111 1209 1.86327C1210.53 2.56565 1211.73 2.90708 1212.59 2.90708C1213.59 2.90708 1214.43 2.5754 1215.14 1.9218L1215.27 1.79498V10.5357C1215.06 9.96011 1214.84 9.43333 1214.62 8.96508C1214.39 8.49683 1214.16 8.02858 1213.9 7.57984C1213.24 6.46774 1212.42 5.48246 1211.46 4.624C1210.48 3.76554 1209.42 3.02414 1208.26 2.40956C1207.11 1.79498 1205.89 1.32673 1204.61 0.995054C1203.32 0.663377 1202.05 0.507293 1200.77 0.507293C1199.49 0.507293 1198.22 0.712153 1196.96 1.12187C1195.7 1.53159 1194.58 2.12666 1193.61 2.90708C1192.64 3.6875 1191.85 4.64351 1191.26 5.77512C1190.66 6.90673 1190.35 8.16515 1190.35 9.56015C1190.35 11.4527 1191.01 13.1696 1192.34 14.7304C1193.95 16.701 1197.82 19.3251 1203.93 22.6126C1206.33 23.8906 1208.34 25.0027 1209.98 25.9685C1211.61 26.9342 1212.87 27.7439 1213.73 28.3975C1215.18 29.5876 1216.37 31.0119 1217.3 32.68C1218.23 34.3482 1218.69 36.1627 1218.69 38.1332C1218.69 41.5866 1217.31 44.6009 1214.54 47.1861C1211.77 49.7712 1208.18 51.0687 1203.76 51.0687C1202.11 51.0687 1200.62 50.9028 1199.33 50.5809C1198.02 50.2492 1196.59 49.8395 1195.02 49.3517C1193.32 48.7762 1192.12 48.425 1191.42 48.3079C1190.72 48.1811 1190.22 48.1226 1189.94 48.1226C1189.32 48.1226 1188.82 48.2299 1188.45 48.4347C1188.07 48.6396 1187.77 48.8445 1187.51 49.0493V40.2404C1187.76 40.9427 1188.01 41.5768 1188.26 42.1524C1188.51 42.7279 1188.78 43.245 1189.07 43.6937C1189.72 44.8058 1190.6 45.7813 1191.67 46.6203C1192.74 47.4592 1193.93 48.1811 1195.23 48.7762C1196.54 49.3713 1197.87 49.82 1199.26 50.1322C1200.64 50.4443 1201.96 50.5907 1203.2 50.5907C1204.64 50.5907 1206.05 50.3858 1207.44 49.9761C1208.82 49.5664 1210.05 48.9615 1211.13 48.1616C1212.2 47.3617 1213.07 46.3666 1213.7 45.1765C1214.34 43.9864 1214.67 42.5914 1214.67 40.9915C1214.67 39.3039 1214.18 37.7235 1213.21 36.2505C1212.24 34.7774 1211.09 33.5385 1209.78 32.5532C1209.24 32.1045 1208.29 31.4802 1206.93 30.6802C1205.56 29.8803 1203.77 28.8462 1201.54 27.5683C1199.31 26.3782 1197.42 25.2856 1195.89 24.3003C1194.36 23.315 1193.14 22.4761 1192.24 21.7737C1190.63 20.5836 1189.35 19.2081 1188.43 17.6472C1187.49 16.0864 1187.03 14.2622 1187.03 12.1648L1186.99 12.1355Z" fill="white"/>
<path d="M1238.27 25.3148C1238.27 17.4716 1240.91 11.1502 1246.2 6.35067C1248.52 4.21427 1250.98 2.62417 1253.6 1.58036C1256.23 0.536548 1259.15 0.00976562 1262.37 0.00976562C1265.59 0.00976562 1268.57 0.595079 1271.43 1.76571C1274.28 2.93634 1276.89 4.7313 1279.24 7.1506C1283.86 11.9111 1286.18 17.9301 1286.18 25.1978C1286.18 28.934 1285.6 32.3288 1284.44 35.392C1283.28 38.4551 1281.52 41.2159 1279.17 43.6742C1276.85 46.0545 1274.21 47.8884 1271.23 49.1566C1268.26 50.4248 1265.17 51.0686 1261.99 51.0686C1258.81 51.0686 1255.72 50.4638 1252.85 49.2542C1249.97 48.0445 1247.4 46.2691 1245.13 43.9278C1240.54 39.1673 1238.25 32.9629 1238.25 25.3246L1238.27 25.3148ZM1244.34 25.1295C1244.34 28.0463 1244.6 31.0119 1245.12 34.0263C1245.64 37.0406 1246.55 39.7721 1247.88 42.2207C1249.2 44.6595 1251.01 46.669 1253.3 48.2299C1255.6 49.7907 1258.49 50.5711 1262.01 50.5711C1265.53 50.5711 1268.58 49.8688 1270.94 48.4738C1273.29 47.0788 1275.15 45.2448 1276.51 42.9621C1277.88 40.6793 1278.84 38.0844 1279.4 35.1676C1279.96 32.2508 1280.24 29.2755 1280.24 26.2416C1280.24 17.1302 1278.38 10.2918 1274.66 5.73609C1273.18 3.80455 1271.43 2.44857 1269.42 1.66816C1267.42 0.887736 1265.07 0.497527 1262.38 0.497527C1258.83 0.497527 1255.88 1.21941 1253.55 2.65343C1251.21 4.08745 1249.36 5.97021 1248 8.29196C1246.63 10.6137 1245.68 13.2379 1245.15 16.1742C1244.61 19.1105 1244.34 22.0956 1244.34 25.1392V25.1295Z" fill="white"/>
<path d="M1305.91 1.11217H1315.33C1314.14 2.13647 1313.42 3.3071 1313.19 4.62406C1312.97 5.94101 1312.85 7.35552 1312.85 8.87734V31.2949C1312.85 33.841 1313.04 36.27 1313.41 38.5918C1313.78 40.9135 1314.52 42.9426 1315.61 44.6888C1316.71 46.435 1318.21 47.83 1320.14 48.8738C1322.06 49.9176 1324.57 50.4444 1327.67 50.4444C1331.3 50.4444 1334.55 49.664 1337.4 48.1031C1339.26 47.0788 1340.71 45.9082 1341.74 44.5912C1342.77 43.2743 1343.54 41.8403 1344.04 40.2794C1344.53 38.7186 1344.83 37.0504 1344.94 35.2555C1345.04 33.4703 1345.1 31.6363 1345.1 29.7438V8.86758C1345.1 5.33619 1344.63 3.01444 1343.68 1.9121C1343.51 1.78528 1343.36 1.65847 1343.24 1.51214C1343.13 1.36581 1342.96 1.23899 1342.75 1.11217H1348.52C1347.19 2.13647 1346.41 3.34612 1346.16 4.74112C1345.91 6.13612 1345.79 7.61891 1345.79 9.16999V29.9877C1345.79 31.8314 1345.73 33.6068 1345.6 35.314C1345.47 37.0212 1345.19 38.6405 1344.74 40.1819C1344.28 41.7232 1343.58 43.1572 1342.62 44.4937C1341.67 45.8302 1340.38 47.0691 1338.72 48.2202C1335.95 50.1517 1332.13 51.1175 1327.25 51.1175C1325.34 51.1175 1323.48 50.9712 1321.64 50.6883C1319.8 50.4054 1318.08 49.8786 1316.49 49.1177C1314.9 48.3568 1313.51 47.3422 1312.31 46.074C1311.11 44.8059 1310.16 43.1767 1309.46 41.2062C1308.64 39.0698 1308.22 34.9823 1308.22 28.9536V8.86758C1308.22 7.06286 1308.1 5.58982 1307.85 4.46797C1307.61 3.33636 1307.19 2.44864 1306.61 1.78528C1306.54 1.65847 1306.44 1.5414 1306.34 1.41458C1306.23 1.28777 1306.1 1.19021 1305.94 1.10242L1305.91 1.11217Z" fill="white"/>
<path d="M1368.21 49.8199C1368.45 49.6151 1368.69 49.4102 1368.92 49.2054C1369.16 49.0005 1369.37 48.7371 1369.57 48.4054C1369.91 47.8299 1370.16 47.0494 1370.35 46.0642C1370.53 45.0789 1370.62 43.7424 1370.62 42.0645V8.86747C1370.62 5.33608 1370.15 3.01433 1369.2 1.91199C1369.03 1.78517 1368.88 1.65835 1368.77 1.51203C1368.64 1.3657 1368.48 1.23888 1368.28 1.11206H1378.13C1377.22 1.68762 1376.5 2.42902 1375.96 3.3265C1375.89 3.49234 1375.79 3.71671 1375.69 3.99961C1375.58 4.28251 1375.5 4.67272 1375.44 5.17024C1375.39 5.66775 1375.33 6.28233 1375.29 7.01398C1375.25 7.75537 1375.23 8.65285 1375.23 9.72593V42.0548C1375.23 44.357 1375.47 45.9959 1375.97 46.9812C1376.51 47.8006 1377.21 48.3957 1378.09 48.7664C1378.25 48.8444 1378.46 48.9225 1378.7 48.981C1378.95 49.0395 1379.31 49.098 1379.78 49.1371C1380.26 49.1761 1380.88 49.2054 1381.64 49.2249C1382.41 49.2444 1383.37 49.2541 1384.53 49.2541H1388.31C1390.42 49.2541 1392.2 49.1858 1393.64 49.0395C1395.08 48.8932 1396.26 48.6396 1397.18 48.2689C1397.59 48.103 1398.08 47.8786 1398.63 47.5957C1399.19 47.3128 1399.72 46.9714 1400.24 46.5812C1400.76 46.191 1401.24 45.7813 1401.69 45.352C1402.15 44.9228 1402.48 44.5033 1402.69 44.0936L1400.89 49.8199H1368.22H1368.21Z" fill="white"/>
<path d="M1457.67 25.3148C1457.67 17.4716 1460.31 11.1502 1465.6 6.35067C1467.92 4.21427 1470.39 2.62417 1473.01 1.58036C1475.63 0.536548 1478.56 0.00976562 1481.78 0.00976562C1485 0.00976562 1487.97 0.595079 1490.83 1.76571C1493.68 2.93634 1496.29 4.7313 1498.64 7.1506C1503.26 11.9111 1505.58 17.9301 1505.58 25.1978C1505.58 28.934 1505 32.3288 1503.84 35.392C1502.69 38.4551 1500.93 41.2159 1498.57 43.6742C1496.25 46.0545 1493.61 47.8884 1490.64 49.1566C1487.66 50.4248 1484.58 51.0686 1481.39 51.0686C1478.21 51.0686 1475.12 50.4638 1472.25 49.2542C1469.38 48.0445 1466.8 46.2691 1464.53 43.9278C1459.95 39.1673 1457.65 32.9629 1457.65 25.3246L1457.67 25.3148ZM1463.75 25.1295C1463.75 28.0463 1464 31.0119 1464.52 34.0263C1465.04 37.0406 1465.96 39.7721 1467.28 42.2207C1468.61 44.6595 1470.42 46.669 1472.7 48.2299C1475 49.7907 1477.9 50.5711 1481.41 50.5711C1484.93 50.5711 1487.98 49.8688 1490.34 48.4738C1492.7 47.0788 1494.55 45.2448 1495.92 42.9621C1497.28 40.6793 1498.25 38.0844 1498.81 35.1676C1499.37 32.2508 1499.64 29.2755 1499.64 26.2416C1499.64 17.1302 1497.78 10.2918 1494.06 5.73609C1492.58 3.80455 1490.83 2.44857 1488.83 1.66816C1486.83 0.887736 1484.48 0.497527 1481.79 0.497527C1478.23 0.497527 1475.29 1.21941 1472.95 2.65343C1470.61 4.08745 1468.77 5.97021 1467.4 8.29196C1466.04 10.6137 1465.08 13.2379 1464.55 16.1742C1464.01 19.1105 1463.75 22.0956 1463.75 25.1392V25.1295Z" fill="white"/>
<path d="M1556.49 1.11217L1556.68 6.59461C1555.97 4.99475 1554.94 3.77535 1553.57 2.92665C1552.21 2.0877 1550.64 1.66822 1548.86 1.66822H1532.62V24.1443H1543.41C1545.93 24.1443 1547.83 23.5297 1549.12 22.3005C1549.49 22.0176 1549.86 21.5201 1550.23 20.8275V27.4806C1549.41 26.2904 1548.41 25.5198 1547.23 25.1686C1546.05 24.8174 1544.78 24.6418 1543.42 24.6418H1532.63V42.0744C1532.63 44.0059 1532.7 45.3521 1532.84 46.1033C1532.99 46.8642 1533.1 47.4105 1533.19 47.7324C1533.56 48.5909 1534.2 49.2933 1535.11 49.8298H1525.68C1526.14 49.5859 1526.51 49.2347 1526.8 48.786C1527.63 47.7227 1528.04 45.479 1528.04 42.0744V8.86758C1528.04 7.02384 1527.98 5.70689 1527.85 4.92647C1527.73 4.14605 1527.61 3.59 1527.48 3.25832C1527.11 2.39986 1526.49 1.67798 1525.63 1.10242H1556.5L1556.49 1.11217Z" fill="white"/>
<path d="M1612.16 25.4319C1612.16 21.8615 1612.69 18.5252 1613.74 15.423C1614.79 12.3209 1616.33 9.63817 1618.33 7.35544C1620.33 5.07272 1622.82 3.27776 1625.77 1.97056C1628.73 0.653601 1632.13 0 1635.98 0H1637.4C1639.38 0 1641.06 0.185349 1642.45 0.556048C1643.83 0.926747 1645.01 1.32671 1645.98 1.75594C1646.95 2.18517 1647.78 2.58514 1648.47 2.95584C1649.15 3.32653 1649.82 3.51188 1650.48 3.51188C1651.23 3.51188 1651.87 3.33629 1652.43 2.9851C1652.99 2.63391 1653.48 2.17542 1653.89 1.59986L1654.57 10.8966C1653.78 9.42355 1652.82 8.05782 1651.68 6.7994C1650.54 5.55073 1649.3 4.45814 1647.96 3.53139C1646.61 2.60465 1645.18 1.89252 1643.64 1.37549C1642.11 0.85846 1640.52 0.604824 1638.87 0.604824C1635.11 0.604824 1631.91 1.27794 1629.26 2.60465C1626.62 3.94111 1624.47 5.74583 1622.81 8.0188C1621.16 10.3015 1619.96 12.9354 1619.21 15.9303C1618.47 18.9251 1618.09 22.0858 1618.09 25.4124C1618.09 28.7389 1618.47 31.9094 1619.21 34.9237C1619.96 37.9381 1621.16 40.5915 1622.81 42.8645C1624.46 45.1472 1626.61 46.9617 1629.26 48.3177C1631.9 49.6736 1635.11 50.3468 1638.87 50.3468C1642.39 50.3468 1645.48 49.4493 1648.17 47.6641C1650.86 45.8789 1652.98 43.323 1654.56 39.9965L1653.88 49.2932C1653.01 48.064 1651.87 47.4494 1650.47 47.4494C1649.81 47.4494 1649.2 47.6348 1648.64 48.0055C1648.08 48.3762 1647.37 48.7762 1646.47 49.2054C1645.58 49.6346 1644.44 50.0346 1643.04 50.4053C1641.63 50.776 1639.75 50.9808 1637.39 51.0199H1635.97C1632.13 51.0199 1628.72 50.3663 1625.76 49.0493C1622.81 47.7323 1620.33 45.9276 1618.32 43.6254C1616.32 41.3232 1614.78 38.621 1613.73 35.4993C1612.68 32.3776 1612.15 29.0121 1612.15 25.4026L1612.16 25.4319Z" fill="white"/>
<path d="M1675.71 48.4054C1675.95 48.0737 1676.19 47.4689 1676.43 46.591C1676.65 45.713 1676.77 44.2009 1676.77 42.0645V8.86747C1676.77 7.02373 1676.65 5.54094 1676.43 4.4386C1676.2 3.3265 1675.84 2.48755 1675.34 1.91199C1675.17 1.78517 1675.01 1.65835 1674.87 1.51203C1674.74 1.3657 1674.57 1.23888 1674.41 1.11206L1688.48 1.17059C1690.47 1.17059 1692.56 1.33643 1694.75 1.65835C1696.94 1.99003 1698.93 2.5851 1700.73 3.44356C1702.53 4.30202 1704.02 5.51167 1705.2 7.04324C1706.38 8.58457 1706.97 10.5844 1706.97 13.0525C1706.97 14.8182 1706.65 16.3595 1706.03 17.6764C1705.41 18.9934 1704.57 20.1153 1703.49 21.0615C1702.42 22.0078 1701.17 22.7882 1699.77 23.4028C1698.36 24.0173 1696.87 24.4954 1695.3 24.8173L1693.26 25.305L1705.16 41.7524C1705.74 42.5328 1706.34 43.323 1706.96 44.1229C1707.58 44.9228 1708.24 45.6837 1708.97 46.4056C1709.7 47.1275 1710.45 47.7811 1711.27 48.3762C1712.07 48.9712 1712.93 49.4492 1713.84 49.8199H1706.28L1688.86 25.8611C1690.56 25.6172 1692.13 25.1782 1693.6 24.5636C1695.06 23.9491 1696.36 23.1296 1697.48 22.0956C1698.6 21.0713 1699.47 19.8519 1700.11 18.4276C1700.75 17.0033 1701.07 15.384 1701.07 13.5305C1701.07 11.677 1700.8 10.0771 1700.24 8.60408C1699.68 7.12128 1698.81 5.83359 1697.61 4.7215C1696.9 3.9801 1696.22 3.40454 1695.56 2.99482C1694.91 2.5851 1694.22 2.28269 1693.52 2.09734C1692.82 1.91199 1692.07 1.78517 1691.26 1.72664C1690.46 1.66811 1689.54 1.63884 1688.5 1.63884H1681.32V42.045C1681.32 45.7032 1681.79 48.0152 1682.74 49.0005C1683.02 49.3712 1683.34 49.6346 1683.67 49.8004H1674.37C1674.62 49.5956 1674.85 49.3907 1675.09 49.1858C1675.33 48.981 1675.53 48.7176 1675.74 48.3859L1675.71 48.4054Z" fill="white"/>
<path d="M1731.25 49.82C1731.79 49.5761 1732.32 49.0884 1732.86 48.3762C1733.4 47.6641 1733.91 46.8642 1734.41 46.0057C1734.9 45.1473 1735.36 44.2888 1735.75 43.4498C1736.14 42.6109 1736.45 41.9378 1736.65 41.45L1754.26 0.497559L1771.68 41.8793C1772.47 43.723 1773.21 45.2351 1773.91 46.4057C1774.61 47.5763 1775.32 48.4738 1776.02 49.0884C1776.19 49.2152 1776.36 49.342 1776.52 49.4883C1776.69 49.6347 1776.88 49.742 1777.08 49.8298H1766.42C1767 49.42 1767.41 48.9323 1767.66 48.386C1767.9 47.8299 1768.03 47.2446 1768.03 46.6301C1768.03 46.0155 1767.9 45.2253 1767.66 44.2595C1767.41 43.2938 1767 42.1524 1766.42 40.8452L1763.01 32.9044H1741L1737.22 41.5281C1736.77 42.6792 1736.43 43.6645 1736.2 44.4839C1735.98 45.3033 1735.86 46.0057 1735.86 46.5813C1735.86 46.991 1735.95 47.4788 1736.13 48.025C1736.32 48.5713 1736.76 49.1469 1737.47 49.7225L1737.71 49.8493H1731.26L1731.25 49.82ZM1741.17 32.3972H1762.93L1752.21 6.96528L1741.17 32.3972Z" fill="white"/>
<path d="M1825.86 1.11217L1826.05 6.59461C1825.34 4.99475 1824.31 3.77535 1822.94 2.92665C1821.58 2.0877 1820.01 1.66822 1818.23 1.66822H1801.99V24.1443H1812.78C1815.3 24.1443 1817.2 23.5297 1818.48 22.3005C1818.86 22.0176 1819.23 21.5201 1819.6 20.8275V27.4806C1818.78 26.2904 1817.78 25.5198 1816.6 25.1686C1815.42 24.8174 1814.15 24.6418 1812.79 24.6418H1802V42.0744C1802 44.0059 1802.07 45.3521 1802.21 46.1033C1802.36 46.8642 1802.47 47.4105 1802.56 47.7324C1802.93 48.5909 1803.57 49.2933 1804.48 49.8298H1795.05C1795.51 49.5859 1795.88 49.2347 1796.17 48.786C1797 47.7227 1797.41 45.479 1797.41 42.0744V8.86758C1797.41 7.02384 1797.35 5.70689 1797.22 4.92647C1797.1 4.14605 1796.98 3.59 1796.85 3.25832C1796.48 2.39986 1795.86 1.67798 1794.99 1.10242H1825.87L1825.86 1.11217Z" fill="white"/>
<path d="M1842.91 1.11217H1882.58L1882.77 6.28245C1882.28 5.38496 1881.7 4.63381 1881.03 4.03874C1880.37 3.44367 1879.65 2.97542 1878.86 2.62423C1878.07 2.27304 1877.23 2.02916 1876.32 1.88284C1875.4 1.73651 1874.48 1.66822 1873.53 1.66822H1864.85V42.3183C1864.85 45.8497 1865.32 48.1031 1866.27 49.0884C1866.52 49.4201 1866.81 49.664 1867.13 49.8298H1857.96C1858.45 49.4591 1858.85 49.0494 1859.14 48.6006C1859.93 47.5763 1860.32 45.479 1860.32 42.3183V1.65847H1852.7C1851.67 1.65847 1850.7 1.68773 1849.78 1.74626C1848.87 1.80479 1848.02 1.97063 1847.24 2.24378C1846.45 2.50717 1845.71 2.89738 1845.01 3.41441C1844.3 3.93143 1843.64 4.63381 1843.03 5.54105C1842.95 5.61909 1842.88 5.71664 1842.84 5.81419C1842.8 5.9215 1842.74 6.0093 1842.65 6.08734L1842.9 1.10242L1842.91 1.11217Z" fill="white"/>
</g>
</svg>
