<svg width="353" height="68" viewBox="0 0 353 68" fill="none" xmlns="http://www.w3.org/2000/svg">
<g style="mix-blend-mode:multiply" opacity="0.85">
<path d="M45.5683 24.4727C45.6906 24.3719 45.8061 24.2711 45.9216 24.1702C46.0337 24.0694 46.139 23.9383 46.241 23.777C46.2817 23.6963 46.3327 23.5854 46.3938 23.4442C46.455 23.3031 46.5093 23.1115 46.5637 22.8695C46.6146 22.6275 46.6588 22.3317 46.6996 21.9754C46.7403 21.6225 46.7607 21.1855 46.7607 20.6612V4.35609C46.7607 2.62172 46.5263 1.48228 46.0575 0.93777C45.976 0.877268 45.8979 0.813406 45.8299 0.73946C45.7586 0.668875 45.6804 0.605013 45.6023 0.544512H52.7871C53.4597 0.544512 54.1629 0.557957 54.8967 0.588207C55.6305 0.618458 56.3676 0.678959 57.1116 0.769711C57.8555 0.860463 58.5791 0.988187 59.2823 1.14616C59.9855 1.3075 60.631 1.51925 61.222 1.78143C62.2819 2.24527 63.1991 2.85364 63.9737 3.60991C64.7482 4.36617 65.3903 5.20983 65.8998 6.13751C66.4094 7.0652 66.7898 8.06347 67.048 9.13232C67.3028 10.2012 67.4285 11.2801 67.4285 12.3691C67.4285 15.7169 66.4196 18.51 64.4017 20.7486C63.6679 21.5552 62.8424 22.2006 61.9252 22.6846C61.008 23.1686 60.0433 23.5417 59.0343 23.8039C58.0254 24.066 56.9961 24.2408 55.9464 24.3349C54.8967 24.4257 53.8538 24.4727 52.8109 24.4727H45.5649H45.5683ZM61.4055 21.2662C63.4641 19.1083 64.4934 16.2143 64.4934 12.5843C64.4934 8.95418 63.4641 6.00979 61.4055 3.87208C60.631 3.04523 59.7477 2.42677 58.7592 2.00999C57.7706 1.59656 56.7345 1.30078 55.6576 1.11927C54.5774 0.93777 53.4665 0.843657 52.3251 0.833573C51.1837 0.82349 50.0729 0.820128 48.9926 0.820128V24.2341C50.1951 24.2341 51.3637 24.2442 52.495 24.2643C53.6262 24.2845 54.7099 24.2207 55.7494 24.0694C56.7889 23.9181 57.7808 23.6324 58.7286 23.2089C59.6764 22.7854 60.5664 22.1401 61.4055 21.2729V21.2662Z" fill="#C68865"/>
<path d="M77.7319 24.4727C78.1599 24.1904 78.4657 23.8173 78.6491 23.3535C78.6899 23.1921 78.7442 22.93 78.8156 22.567C78.8869 22.2039 78.9243 21.5788 78.9243 20.6914V4.26534C78.9243 3.68049 78.9039 3.19312 78.8631 2.79986C78.8224 2.4066 78.7646 2.08057 78.6933 1.81504C78.6219 1.55287 78.5438 1.35119 78.4657 1.21003C78.3842 1.06886 78.3128 0.957937 78.2517 0.877268C78.1905 0.836934 78.1294 0.783155 78.0682 0.712571C78.0071 0.641986 77.9459 0.588207 77.8848 0.544512H93.5996L93.7219 2.78306C93.6812 2.68222 93.6404 2.59819 93.5996 2.52425C93.5589 2.45366 93.5181 2.38644 93.4773 2.32594C93.2124 1.90243 92.9372 1.58312 92.6519 1.37472C92.3665 1.16297 92.0608 1.01844 91.7346 0.934409C91.4085 0.85374 91.0654 0.813406 90.7087 0.813406H81.1562V11.8246H88.1405C88.4565 11.8246 88.7724 11.8045 89.0883 11.7641C89.4043 11.7238 89.71 11.6532 90.0055 11.5524C90.3011 11.4515 90.5593 11.3003 90.7835 11.0986C90.9465 10.9776 91.079 10.8465 91.1809 10.7054C91.2828 10.5642 91.3847 10.4129 91.4867 10.2516V13.6397C91.1809 13.075 90.7223 12.6616 90.1108 12.3994C89.6217 12.1574 89.1563 12.0431 88.718 12.0532C88.2798 12.0633 87.7838 12.0666 87.2369 12.0666H81.1528V24.1971H90.172C90.7631 24.1971 91.2726 24.1433 91.7007 24.0291C92.1287 23.9181 92.516 23.7535 92.8625 23.5316C93.209 23.3098 93.5351 23.0375 93.8408 22.7148C94.1466 22.3922 94.4625 22.0191 94.7886 21.5956L93.7491 24.4694H77.7285L77.7319 24.4727Z" fill="#C68865"/>
<path d="M104.606 24.4727C104.728 24.3719 104.844 24.2711 104.959 24.1702C105.072 24.0694 105.177 23.9383 105.279 23.777C105.32 23.6963 105.371 23.5854 105.432 23.4442C105.493 23.3031 105.547 23.1115 105.602 22.8695C105.652 22.6275 105.697 22.3317 105.737 21.9754C105.778 21.6225 105.799 21.1855 105.799 20.6612V4.35609C105.799 2.62172 105.564 1.48228 105.095 0.93777C105.014 0.877268 104.936 0.813406 104.868 0.73946C104.796 0.668875 104.718 0.605013 104.64 0.544512H111.825C112.498 0.544512 113.201 0.557957 113.935 0.588207C114.668 0.618458 115.405 0.678959 116.149 0.769711C116.893 0.860463 117.617 0.988187 118.32 1.14616C119.023 1.3075 119.669 1.51925 120.26 1.78143C121.32 2.24527 122.237 2.85364 123.012 3.60991C123.786 4.36617 124.428 5.20983 124.938 6.13751C125.447 7.0652 125.828 8.06347 126.086 9.13232C126.341 10.2012 126.466 11.2801 126.466 12.3691C126.466 15.7169 125.457 18.51 123.44 20.7486C122.706 21.5552 121.88 22.2006 120.963 22.6846C120.046 23.1686 119.081 23.5417 118.072 23.8039C117.063 24.066 116.034 24.2408 114.984 24.3349C113.935 24.4257 112.888 24.4727 111.849 24.4727H104.603H104.606ZM120.443 21.2662C122.502 19.1083 123.531 16.2143 123.531 12.5843C123.531 8.95418 122.502 6.00979 120.443 3.87208C119.669 3.04523 118.786 2.42677 117.797 2.00999C116.808 1.59656 115.776 1.30078 114.695 1.11927C113.615 0.93777 112.504 0.843657 111.363 0.833573C110.222 0.82349 109.111 0.820128 108.03 0.820128V24.2341C109.233 24.2341 110.402 24.2442 111.533 24.2643C112.664 24.2845 113.748 24.2207 114.791 24.0694C115.83 23.9181 116.822 23.6324 117.77 23.2089C118.718 22.7854 119.608 22.1401 120.447 21.2729L120.443 21.2662Z" fill="#C68865"/>
<path d="M141.417 0.544512C141.315 0.62518 141.213 0.712571 141.111 0.803323C141.009 0.894074 140.928 0.991549 140.866 1.08902C140.438 1.5932 140.224 2.68222 140.224 4.35609V20.6612C140.224 21.5687 140.258 22.2208 140.33 22.614C140.401 23.0073 140.455 23.2862 140.5 23.4442C140.683 23.8677 140.999 24.2106 141.447 24.4727H136.8C137.024 24.3517 137.208 24.1803 137.35 23.9585C137.758 23.4341 137.962 22.335 137.962 20.6612V4.35609C137.962 3.44857 137.931 2.80322 137.87 2.42005C137.809 2.03688 137.748 1.76462 137.687 1.60328C137.503 1.17977 137.198 0.826851 136.77 0.544512H141.417Z" fill="#C68865"/>
<path d="M151.812 12.4935C151.812 10.739 152.07 9.10207 152.59 7.57946C153.109 6.05684 153.864 4.7359 154.852 3.61663C155.841 2.49736 157.064 1.61673 158.521 0.968019C159.978 0.322673 161.656 0 163.552 0H164.255C165.234 0 166.062 0.0907518 166.745 0.272255C167.428 0.453759 168.009 0.648707 168.488 0.860462C168.967 1.07222 169.375 1.27053 169.711 1.45203C170.047 1.63353 170.377 1.72428 170.703 1.72428C171.07 1.72428 171.392 1.64025 171.668 1.46883C171.943 1.29741 172.181 1.07222 172.384 0.786516L172.721 5.35436C172.333 4.62834 171.858 3.95947 171.301 3.34437C170.74 2.72928 170.129 2.19485 169.466 1.74109C168.804 1.28733 168.094 0.934408 167.34 0.682319C166.586 0.430231 165.801 0.305867 164.986 0.305867C163.131 0.305867 161.551 0.635263 160.247 1.29069C158.942 1.94612 157.882 2.83347 157.067 3.95275C156.252 5.07202 155.661 6.36943 155.294 7.83827C154.927 9.31046 154.743 10.8633 154.743 12.4969C154.743 14.1304 154.927 15.69 155.294 17.1723C155.661 18.6545 156.252 19.9553 157.067 21.0746C157.882 22.1939 158.942 23.0846 160.247 23.7501C161.551 24.4156 163.131 24.7484 164.986 24.7484C166.718 24.7484 168.247 24.3114 169.572 23.4308C170.897 22.5535 171.946 21.2998 172.721 19.6629L172.384 24.2307C171.956 23.6257 171.396 23.3232 170.703 23.3232C170.377 23.3232 170.078 23.414 169.803 23.5955C169.527 23.777 169.171 23.9719 168.733 24.1837C168.294 24.3954 167.727 24.5904 167.034 24.7719C166.341 24.9534 165.414 25.0542 164.252 25.0744H163.549C161.653 25.0744 159.975 24.7517 158.518 24.1064C157.06 23.461 155.837 22.5737 154.849 21.4443C153.86 20.315 153.106 18.9839 152.586 17.4512C152.067 15.9185 151.808 14.2648 151.808 12.4901L151.812 12.4935Z" fill="#C68865"/>
<path d="M181.835 24.4727C182.1 24.3517 182.365 24.1131 182.63 23.7602C182.895 23.4072 183.15 23.0174 183.394 22.5972C183.639 22.1737 183.856 21.7569 184.053 21.3401C184.247 20.9267 184.393 20.5973 184.498 20.3587L193.178 0.242005L201.769 20.5704C202.156 21.4779 202.523 22.2207 202.87 22.7955C203.216 23.3703 203.563 23.8072 203.909 24.1097C203.991 24.1702 204.072 24.2375 204.154 24.308C204.235 24.3786 204.327 24.4358 204.429 24.4761H199.17C199.456 24.2744 199.66 24.0358 199.782 23.7635C199.904 23.4913 199.965 23.2022 199.965 22.8997C199.965 22.5972 199.904 22.2107 199.782 21.7367C199.66 21.2628 199.456 20.7049 199.17 20.0562L197.489 16.1538H186.635L184.77 20.3889C184.546 20.9536 184.376 21.4376 184.264 21.8409C184.152 22.2443 184.098 22.5871 184.098 22.8695C184.098 23.0711 184.142 23.3064 184.234 23.582C184.325 23.8543 184.543 24.1333 184.893 24.4122L185.015 24.4727H181.835ZM186.727 15.9118H197.458L192.169 3.41832L186.727 15.9118Z" fill="#C68865"/>
<path d="M209.504 0.544511H229.071L229.163 3.08556C228.918 2.64189 228.633 2.27552 228.307 1.97973C227.981 1.68731 227.624 1.45539 227.237 1.28397C226.85 1.11255 226.432 0.991548 225.983 0.920963C225.535 0.850379 225.076 0.816767 224.608 0.816767H220.327V20.7822C220.327 22.5165 220.562 23.6257 221.03 24.1097C221.153 24.2711 221.295 24.3921 221.458 24.4727H216.934C217.178 24.2912 217.372 24.0896 217.514 23.8677C217.902 23.3636 218.095 22.335 218.095 20.7822V0.816767H214.335C213.825 0.816767 213.346 0.830211 212.898 0.860462C212.449 0.890713 212.032 0.971381 211.644 1.10247C211.257 1.23355 210.89 1.42514 210.544 1.67723C210.197 1.92932 209.871 2.27888 209.565 2.71919C209.525 2.75953 209.494 2.80658 209.474 2.85364C209.453 2.90406 209.423 2.95111 209.382 2.99145L209.504 0.54115V0.544511Z" fill="#C68865"/>
<path d="M243.258 0.544512C243.156 0.62518 243.054 0.712571 242.952 0.803323C242.85 0.894074 242.768 0.991549 242.707 1.08902C242.279 1.5932 242.065 2.68222 242.065 4.35609V20.6612C242.065 21.5687 242.099 22.2208 242.17 22.614C242.242 23.0073 242.296 23.2862 242.34 23.4442C242.524 23.8677 242.84 24.2106 243.288 24.4727H238.641C238.865 24.3517 239.049 24.1803 239.191 23.9585C239.599 23.4341 239.803 22.335 239.803 20.6612V4.35609C239.803 3.44857 239.772 2.80322 239.711 2.42005C239.65 2.03688 239.589 1.76462 239.528 1.60328C239.344 1.17977 239.038 0.826851 238.61 0.544512H243.258Z" fill="#C68865"/>
<path d="M253.622 12.433C253.622 8.58109 254.927 5.47536 257.535 3.11581C258.677 2.06713 259.893 1.28733 261.191 0.76971C262.485 0.25545 263.925 -0.00336075 265.515 -0.00336075C267.105 -0.00336075 268.573 0.285701 269.979 0.860462C271.385 1.43522 272.669 2.31921 273.831 3.50907C276.114 5.84845 277.255 8.80293 277.255 12.3725C277.255 14.2077 276.97 15.8782 276.399 17.3773C275.829 18.8797 274.962 20.2343 273.801 21.4477C272.659 22.6174 271.355 23.5148 269.887 24.14C268.42 24.7652 266.901 25.0778 265.332 25.0778C263.762 25.0778 262.237 24.7786 260.824 24.1837C259.407 23.5888 258.137 22.7148 257.016 21.5653C254.753 19.2259 253.622 16.1807 253.622 12.4296V12.433ZM256.618 12.3422C256.618 13.7741 256.744 15.2329 256.999 16.7118C257.254 18.1941 257.705 19.5352 258.358 20.7351C259.01 21.9351 259.9 22.9199 261.034 23.6829C262.166 24.4492 263.596 24.8324 265.332 24.8324C267.068 24.8324 268.573 24.4895 269.734 23.8039C270.896 23.1182 271.813 22.2174 272.486 21.0981C273.159 19.9788 273.634 18.705 273.909 17.2697C274.185 15.8379 274.32 14.3758 274.32 12.8834C274.32 8.40631 273.403 5.04849 271.569 2.80995C270.835 1.86209 269.972 1.19658 268.987 0.813406C267.998 0.430231 266.84 0.238644 265.519 0.238644C263.766 0.238644 262.312 0.591568 261.16 1.29742C260.009 2.00326 259.098 2.92759 258.426 4.06367C257.753 5.2031 257.284 6.4938 257.019 7.93574C256.754 9.37769 256.622 10.8465 256.622 12.3389L256.618 12.3422Z" fill="#C68865"/>
<path d="M289.76 0.544512L306.362 20.6914V4.26534C306.362 3.35782 306.304 2.64189 306.192 2.11754C306.08 1.5932 305.9 1.18986 305.655 0.907519C305.594 0.847018 305.526 0.786517 305.458 0.726015C305.387 0.665514 305.322 0.605013 305.257 0.544512H307.826C307.703 0.62518 307.591 0.722654 307.489 0.830212C307.387 0.941131 307.286 1.05541 307.184 1.17977C307.021 1.44195 306.895 1.82176 306.803 2.31585C306.711 2.80995 306.667 3.46201 306.667 4.26534V24.503L289.179 3.35782V20.7822C289.179 22.5165 289.393 23.6257 289.821 24.1097C289.903 24.1702 289.974 24.2375 290.035 24.308C290.096 24.3786 290.178 24.4358 290.28 24.4761H287.712C287.834 24.3753 287.946 24.2778 288.048 24.187C288.15 24.0963 288.242 23.9921 288.323 23.8677C288.67 23.3837 288.843 22.3552 288.843 20.7822V2.96456L288.69 2.78306C287.936 1.89571 287.335 1.30078 286.886 0.998271C286.682 0.816767 286.438 0.665514 286.152 0.544512H289.76Z" fill="#C68865"/>
</g>
<g style="mix-blend-mode:multiply" opacity="0.85">
<path d="M0.122295 43.4668H19.6894L19.7812 46.0078C19.5366 45.5641 19.2512 45.1978 18.9251 44.902C18.599 44.6096 18.2423 44.3776 17.855 44.2062C17.4677 44.0348 17.0499 43.9138 16.6015 43.8432C16.1531 43.7726 15.6945 43.7357 15.2257 43.7357H10.9454V63.7011C10.9454 65.4354 11.1798 66.5446 11.6486 67.0286C11.7709 67.19 11.9135 67.311 12.0766 67.3916H7.55169C7.79628 67.2101 7.98991 67.0085 8.13259 66.7866C8.51986 66.2824 8.71349 65.2539 8.71349 63.7011V43.7357H4.95293C4.44337 43.7357 3.96438 43.7491 3.51597 43.7793C3.06756 43.8096 2.64972 43.8903 2.26245 44.0214C1.87518 44.1524 1.5083 44.344 1.1618 44.5961C0.815297 44.8482 0.489178 45.1978 0.183442 45.6381C0.142677 45.6784 0.112103 45.7255 0.091721 45.7725C0.0713385 45.8229 0.0407649 45.87 0 45.9103L0.122295 43.46V43.4668Z" fill="#C68865"/>
<path d="M27.8525 55.3553C27.8525 51.5033 29.157 48.3976 31.766 46.0381C32.9074 44.9894 34.1235 44.2096 35.4212 43.692C36.7155 43.1777 38.1559 42.9222 39.7457 42.9222C41.3355 42.9222 42.8031 43.2079 44.2094 43.7827C45.6158 44.3575 46.8999 45.2415 48.0617 46.4313C50.3446 48.7707 51.486 51.7252 51.486 55.2947C51.486 57.13 51.2006 58.8005 50.6299 60.3029C50.0592 61.8054 49.1929 63.1599 48.0311 64.3733C46.8897 65.543 45.5853 66.4404 44.1177 67.0656C42.6502 67.6908 41.1317 68.0034 39.5622 68.0034C37.9928 68.0034 36.4675 67.7042 35.0543 67.1093C33.6378 66.5144 32.3672 65.6405 31.2462 64.4909C28.9838 62.1516 27.8525 59.1063 27.8525 55.3553ZM30.8488 55.2645C30.8488 56.6964 30.9744 58.1551 31.2292 59.634C31.484 61.1163 31.9358 62.4574 32.5881 63.6574C33.2403 64.8573 34.1303 65.8421 35.265 66.6051C36.3962 67.3715 37.8263 67.7546 39.5588 67.7546C41.2914 67.7546 42.7997 67.4118 43.9615 66.7261C45.1233 66.0404 46.0405 65.1396 46.7131 64.0204C47.3857 62.9011 47.8613 61.6272 48.1365 60.192C48.4116 58.7601 48.5475 57.298 48.5475 55.8056C48.5475 51.3286 47.6303 47.9707 45.7959 45.7322C45.0621 44.7843 44.1993 44.1188 43.2107 43.7357C42.2222 43.3525 41.0638 43.1609 39.7423 43.1609C37.9894 43.1609 36.5355 43.5138 35.3839 44.2197C34.2322 44.9255 33.3218 45.8498 32.6492 46.9859C31.9766 48.1254 31.5078 49.416 31.2428 50.858C30.9778 52.2999 30.8454 53.7688 30.8454 55.2611L30.8488 55.2645Z" fill="#C68865"/>
<path d="M80.531 67.395C80.959 67.1126 81.2647 66.7396 81.4482 66.2757C81.489 66.1144 81.5433 65.8522 81.6147 65.4892C81.686 65.1262 81.7234 64.501 81.7234 63.6137V47.1876C81.7234 46.6027 81.703 46.1154 81.6622 45.7221C81.6214 45.3289 81.5637 45.0028 81.4924 44.7373C81.421 44.4751 81.3429 44.2734 81.2648 44.1323C81.1832 43.9911 81.1119 43.8802 81.0507 43.7995C80.9896 43.7592 80.9284 43.7054 80.8673 43.6348C80.8061 43.5642 80.745 43.5105 80.6839 43.4668H96.3987L96.521 45.7053C96.4802 45.6045 96.4395 45.5204 96.3987 45.4465C96.3579 45.3759 96.3172 45.3087 96.2764 45.2482C96.0114 44.8247 95.7363 44.5054 95.4509 44.297C95.1656 44.0852 94.8598 43.9407 94.5337 43.8567C94.2076 43.776 93.8645 43.7357 93.5078 43.7357H83.9552V54.7469H90.9396C91.2555 54.7469 91.5715 54.7267 91.8874 54.6864C92.2033 54.646 92.5091 54.5755 92.8046 54.4746C93.1002 54.3738 93.3583 54.2225 93.5825 54.0209C93.7456 53.8999 93.8781 53.7688 93.98 53.6276C94.0819 53.4864 94.1838 53.3352 94.2857 53.1738V56.5619C93.98 55.9972 93.5214 55.5838 92.9099 55.3216C92.4207 55.0796 91.9553 54.9654 91.5171 54.9754C91.0789 54.9855 90.5829 54.9889 90.036 54.9889H83.9518V67.1194H92.9711C93.5622 67.1194 94.0717 67.0656 94.4997 66.9513C94.9278 66.8404 95.315 66.6757 95.6615 66.4539C96.008 66.232 96.3342 65.9598 96.6399 65.6371C96.9456 65.3144 97.2616 64.9413 97.5877 64.5178L96.5482 67.3916H80.5276L80.531 67.395Z" fill="#C68865"/>
<path d="M110.799 63.5834L117.128 55.6578L111.808 47.9741C111.217 47.1271 110.568 46.2868 109.868 45.4465C109.165 44.6096 108.326 43.9474 107.348 43.4668H113.829C113.483 43.7491 113.265 44.018 113.17 44.2667C113.078 44.5188 113.031 44.7474 113.031 44.949C113.031 45.5541 113.367 46.3506 114.04 47.3388L118.473 53.8427L123.548 47.4598C123.935 46.996 124.2 46.6599 124.343 46.4448C124.486 46.233 124.577 46.0784 124.618 45.9776C124.761 45.6347 124.832 45.2919 124.832 44.949C124.832 44.4852 124.72 44.1121 124.496 43.8298C124.455 43.7693 124.404 43.7088 124.343 43.6483C124.282 43.5878 124.231 43.5273 124.19 43.4668H127.951C127.095 43.9306 126.364 44.4919 125.766 45.1474C125.165 45.8028 124.567 46.5154 123.976 47.2783L118.595 54.0545L124.374 62.5246C125.148 63.6742 125.821 64.6119 126.392 65.3379C126.962 66.064 127.451 66.5883 127.859 66.911C127.981 67.0118 128.104 67.1026 128.226 67.1832C128.348 67.2639 128.481 67.3345 128.623 67.395H122.6C122.804 67.2337 122.977 67.0118 123.12 66.7295C123.263 66.4471 123.334 66.1749 123.334 65.9127C123.334 65.7514 123.314 65.58 123.273 65.3985C123.232 65.2169 123.181 65.0254 123.12 64.8237C123.079 64.7229 122.988 64.5615 122.845 64.3397C122.702 64.1178 122.417 63.6943 121.989 63.0692L117.189 55.8393L111.258 63.3414C110.85 63.8456 110.575 64.2086 110.432 64.4304C110.289 64.6523 110.198 64.8035 110.157 64.8842C110.014 65.227 109.943 65.5699 109.943 65.9127C109.943 66.5379 110.177 67.032 110.646 67.395H106.335C107.293 66.9513 108.112 66.4001 108.798 65.7447C109.481 65.0892 110.147 64.3699 110.799 63.5801V63.5834Z" fill="#C68865"/>
<path d="M135.9 55.4157C135.9 53.6612 136.158 52.0243 136.678 50.5017C137.198 48.9791 137.952 47.6582 138.94 46.5389C139.929 45.4196 141.152 44.539 142.609 43.8903C144.066 43.2449 145.745 42.9222 147.64 42.9222H148.343C149.322 42.9222 150.151 43.013 150.833 43.1945C151.516 43.376 152.097 43.571 152.576 43.7827C153.055 43.9945 153.463 44.1928 153.799 44.3743C154.135 44.5558 154.465 44.6465 154.791 44.6465C155.158 44.6465 155.481 44.5625 155.756 44.3911C156.031 44.2197 156.269 43.9945 156.473 43.7088L156.809 48.2766C156.422 47.5506 155.946 46.8817 155.385 46.2666C154.825 45.6515 154.213 45.1171 153.551 44.6633C152.889 44.2096 152.179 43.8567 151.424 43.6046C150.67 43.3525 149.886 43.2281 149.07 43.2281C147.216 43.2281 145.636 43.5575 144.331 44.2129C143.027 44.8684 141.967 45.7557 141.152 46.875C140.336 47.9943 139.745 49.2917 139.378 50.7605C139.012 52.2327 138.828 53.7856 138.828 55.4191C138.828 57.0526 139.012 58.6122 139.378 60.0945C139.745 61.5768 140.336 62.8776 141.152 63.9968C141.967 65.1161 143.027 66.0068 144.331 66.6723C145.636 67.3379 147.216 67.6706 149.07 67.6706C150.803 67.6706 152.332 67.2337 153.656 66.353C154.981 65.4758 156.031 64.222 156.805 62.5885L156.469 67.1563C156.041 66.5513 155.481 66.2488 154.788 66.2488C154.461 66.2488 154.163 66.3396 153.887 66.5211C153.612 66.7026 153.256 66.8975 152.817 67.1093C152.379 67.321 151.812 67.516 151.119 67.6975C150.426 67.879 149.498 67.9798 148.337 68H147.633C145.738 68 144.06 67.6773 142.602 67.032C141.145 66.3866 139.922 65.4993 138.933 64.3699C137.945 63.2406 137.191 61.9095 136.671 60.3769C136.151 58.8442 135.893 57.1905 135.893 55.4157H135.9Z" fill="#C68865"/>
<path d="M166.993 67.395C167.421 67.1126 167.727 66.7396 167.91 66.2757C167.951 66.1144 168.005 65.8522 168.077 65.4892C168.148 65.1262 168.186 64.501 168.186 63.6137V47.1876C168.186 46.6027 168.165 46.1154 168.124 45.7221C168.084 45.3289 168.026 45.0028 167.955 44.7373C167.883 44.4751 167.805 44.2734 167.727 44.1323C167.645 43.9911 167.574 43.8802 167.513 43.7995C167.452 43.7592 167.391 43.7054 167.329 43.6348C167.268 43.5642 167.207 43.5105 167.146 43.4668H182.861L182.983 45.7053C182.942 45.6045 182.902 45.5204 182.861 45.4465C182.82 45.3759 182.779 45.3087 182.739 45.2482C182.474 44.8247 182.198 44.5054 181.913 44.297C181.628 44.0852 181.322 43.9407 180.996 43.8567C180.67 43.776 180.327 43.7357 179.97 43.7357H170.417V54.7469H177.402C177.718 54.7469 178.034 54.7267 178.35 54.6864C178.666 54.646 178.971 54.5755 179.267 54.4746C179.562 54.3738 179.821 54.2225 180.048 54.0209C180.211 53.8999 180.344 53.7688 180.446 53.6276C180.547 53.4864 180.649 53.3352 180.751 53.1738V56.5619C180.446 55.9972 179.987 55.5838 179.376 55.3216C178.886 55.0796 178.421 54.9654 177.983 54.9754C177.544 54.9855 177.049 54.9889 176.502 54.9889H170.417V67.1194H179.437C180.028 67.1194 180.537 67.0656 180.965 66.9513C181.393 66.8404 181.781 66.6757 182.127 66.4539C182.474 66.232 182.8 65.9598 183.105 65.6371C183.411 65.3144 183.727 64.9413 184.053 64.5178L183.014 67.3916H166.993V67.395Z" fill="#C68865"/>
<path d="M193.864 67.395C193.987 67.2942 194.102 67.1933 194.218 67.0925C194.33 66.9916 194.435 66.8606 194.537 66.6992C194.7 66.4169 194.826 66.0337 194.917 65.5497C195.009 65.0657 195.057 64.4103 195.057 63.5834V47.2783C195.057 45.544 194.822 44.4045 194.353 43.86C194.272 43.7995 194.201 43.7357 194.139 43.6617C194.078 43.5911 193.997 43.5273 193.895 43.4668H198.756C198.308 43.7491 197.951 44.1121 197.686 44.5558C197.645 44.6364 197.598 44.7474 197.55 44.8885C197.499 45.0297 197.458 45.2213 197.428 45.4633C197.397 45.7053 197.37 46.0078 197.35 46.3708C197.329 46.7338 197.319 47.1775 197.319 47.7018V63.5834C197.319 64.7128 197.441 65.5194 197.686 66.0035C197.951 66.4068 198.297 66.6992 198.725 66.8807C198.807 66.9211 198.909 66.9547 199.031 66.9849C199.154 67.0152 199.33 67.0421 199.568 67.0622C199.802 67.0824 200.108 67.0992 200.485 67.1059C200.862 67.116 201.334 67.1227 201.909 67.1227H203.774C204.813 67.1227 205.689 67.0891 206.403 67.0185C207.116 66.948 207.697 66.8202 208.146 66.6421C208.349 66.5614 208.587 66.4505 208.862 66.3093C209.138 66.1682 209.402 66.0035 209.657 65.8085C209.912 65.6169 210.15 65.4153 210.374 65.2035C210.598 64.9917 210.761 64.7867 210.863 64.585L209.977 67.3984H193.864V67.395Z" fill="#C68865"/>
<path d="M220.28 67.395C220.402 67.2942 220.518 67.1933 220.633 67.0925C220.745 66.9916 220.85 66.8606 220.952 66.6992C221.115 66.4169 221.241 66.0337 221.333 65.5497C221.425 65.0657 221.472 64.4103 221.472 63.5834V47.2783C221.472 45.544 221.238 44.4045 220.769 43.86C220.687 43.7995 220.616 43.7357 220.555 43.6617C220.494 43.5911 220.412 43.5273 220.31 43.4668H225.172C224.723 43.7491 224.366 44.1121 224.101 44.5558C224.061 44.6364 224.013 44.7474 223.966 44.8885C223.915 45.0297 223.874 45.2213 223.843 45.4633C223.813 45.7053 223.786 46.0078 223.765 46.3708C223.745 46.7338 223.735 47.1775 223.735 47.7018V63.5834C223.735 64.7128 223.857 65.5194 224.101 66.0035C224.366 66.4068 224.713 66.6992 225.141 66.8807C225.223 66.9211 225.324 66.9547 225.447 66.9849C225.569 67.0152 225.746 67.0421 225.983 67.0622C226.218 67.0824 226.524 67.0992 226.901 67.1059C227.278 67.116 227.75 67.1227 228.324 67.1227H230.189C231.229 67.1227 232.105 67.0891 232.818 67.0185C233.532 66.948 234.113 66.8202 234.561 66.6421C234.765 66.5614 235.003 66.4505 235.278 66.3093C235.553 66.1682 235.818 66.0035 236.073 65.8085C236.328 65.6169 236.565 65.4153 236.79 65.2035C237.014 64.9917 237.177 64.7867 237.279 64.585L236.392 67.3984H220.28V67.395Z" fill="#C68865"/>
<path d="M246.665 67.395C247.093 67.1126 247.399 66.7396 247.582 66.2757C247.623 66.1144 247.677 65.8522 247.748 65.4892C247.82 65.1262 247.857 64.501 247.857 63.6137V47.1876C247.857 46.6027 247.837 46.1154 247.796 45.7221C247.755 45.3289 247.697 45.0028 247.626 44.7373C247.555 44.4751 247.477 44.2734 247.399 44.1323C247.317 43.9911 247.246 43.8802 247.185 43.7995C247.123 43.7592 247.062 43.7054 247.001 43.6348C246.94 43.5642 246.879 43.5105 246.818 43.4668H262.533L262.655 45.7053C262.614 45.6045 262.573 45.5204 262.533 45.4465C262.492 45.3759 262.451 45.3087 262.41 45.2482C262.145 44.8247 261.87 44.5054 261.585 44.297C261.299 44.0852 260.994 43.9407 260.668 43.8567C260.341 43.776 259.998 43.7357 259.642 43.7357H250.089V54.7469H257.073C257.389 54.7469 257.705 54.7267 258.021 54.6864C258.337 54.646 258.643 54.5755 258.938 54.4746C259.234 54.3738 259.492 54.2225 259.716 54.0209C259.879 53.8999 260.012 53.7688 260.114 53.6276C260.216 53.4864 260.318 53.3352 260.42 53.1738V56.5619C260.114 55.9972 259.655 55.5838 259.044 55.3216C258.555 55.0796 258.089 54.9654 257.651 54.9754C257.213 54.9855 256.717 54.9889 256.17 54.9889H250.086V67.1194H259.105C259.696 67.1194 260.206 67.0656 260.634 66.9513C261.062 66.8404 261.449 66.6757 261.795 66.4539C262.142 66.232 262.468 65.9598 262.774 65.6371C263.079 65.3144 263.395 64.9413 263.721 64.5178L262.682 67.3916H246.661L246.665 67.395Z" fill="#C68865"/>
<path d="M276.444 43.4668L293.045 63.6137V47.1876C293.045 46.2801 292.987 45.5641 292.875 45.0398C292.763 44.5154 292.583 44.1121 292.339 43.8298C292.277 43.7693 292.209 43.7088 292.142 43.6483C292.07 43.5878 292.006 43.5273 291.945 43.4668H294.513C294.39 43.5474 294.278 43.6449 294.176 43.7525C294.074 43.8634 293.973 43.9777 293.871 44.102C293.708 44.3642 293.582 44.744 293.49 45.2381C293.398 45.7322 293.354 46.3843 293.354 47.1876V67.4252L275.866 46.2801V63.7044C275.866 65.4388 276.08 66.548 276.508 67.032C276.59 67.0925 276.661 67.1597 276.722 67.2303C276.783 67.3009 276.865 67.358 276.967 67.3984H274.399C274.521 67.2975 274.633 67.2 274.735 67.1093C274.837 67.0185 274.929 66.9143 275.01 66.79C275.357 66.306 275.53 65.2774 275.53 63.7044V45.8868L275.377 45.7053C274.623 44.818 274.022 44.223 273.573 43.9205C273.369 43.739 273.125 43.5878 272.839 43.4668H276.447H276.444Z" fill="#C68865"/>
<path d="M304.846 55.4157C304.846 53.6612 305.105 52.0243 305.624 50.5017C306.144 48.9791 306.898 47.6582 307.887 46.5389C308.875 45.4196 310.098 44.539 311.556 43.8903C313.013 43.2449 314.691 42.9222 316.587 42.9222H317.29C318.268 42.9222 319.097 43.013 319.78 43.1945C320.463 43.376 321.044 43.571 321.523 43.7827C322.002 43.9945 322.409 44.1928 322.746 44.3743C323.082 44.5558 323.411 44.6465 323.738 44.6465C324.104 44.6465 324.427 44.5625 324.702 44.3911C324.977 44.2197 325.215 43.9945 325.419 43.7088L325.755 48.2766C325.368 47.5506 324.893 46.8817 324.335 46.2666C323.775 45.6515 323.163 45.1171 322.501 44.6633C321.839 44.2096 321.129 43.8567 320.374 43.6046C319.62 43.3525 318.836 43.2281 318.02 43.2281C316.165 43.2281 314.586 43.5575 313.281 44.2129C311.977 44.8684 310.917 45.7557 310.102 46.875C309.286 47.9943 308.695 49.2917 308.328 50.7605C307.962 52.2327 307.778 53.7856 307.778 55.4191C307.778 57.0526 307.962 58.6122 308.328 60.0945C308.695 61.5768 309.286 62.8776 310.102 63.9968C310.917 65.1161 311.977 66.0068 313.281 66.6723C314.586 67.3379 316.165 67.6706 318.02 67.6706C319.753 67.6706 321.281 67.2337 322.606 66.353C323.931 65.4758 324.981 64.222 325.755 62.5885L325.419 67.1563C324.991 66.5513 324.431 66.2488 323.738 66.2488C323.411 66.2488 323.112 66.3396 322.837 66.5211C322.562 66.7026 322.205 66.8975 321.767 67.1093C321.329 67.321 320.762 67.516 320.069 67.6975C319.376 67.879 318.448 67.9798 317.286 68H316.583C314.688 68 313.01 67.6773 311.552 67.032C310.095 66.3866 308.872 65.4993 307.883 64.3699C306.895 63.2406 306.141 61.9095 305.621 60.3769C305.101 58.8442 304.843 57.1905 304.843 55.4157H304.846Z" fill="#C68865"/>
<path d="M335.94 67.395C336.368 67.1126 336.674 66.7396 336.857 66.2757C336.898 66.1144 336.952 65.8522 337.024 65.4892C337.095 65.1262 337.132 64.501 337.132 63.6137V47.1876C337.132 46.6027 337.112 46.1154 337.071 45.7221C337.03 45.3289 336.973 45.0028 336.901 44.7373C336.83 44.4751 336.752 44.2734 336.674 44.1323C336.592 43.9911 336.521 43.8802 336.46 43.7995C336.399 43.7592 336.337 43.7054 336.276 43.6348C336.215 43.5642 336.154 43.5105 336.093 43.4668H351.808L351.93 45.7053C351.889 45.6045 351.848 45.5204 351.808 45.4465C351.767 45.3759 351.726 45.3087 351.685 45.2482C351.42 44.8247 351.145 44.5054 350.86 44.297C350.574 44.0852 350.269 43.9407 349.943 43.8567C349.617 43.776 349.273 43.7357 348.917 43.7357H339.364V54.7469H346.349C346.664 54.7469 346.98 54.7267 347.296 54.6864C347.612 54.646 347.918 54.5755 348.214 54.4746C348.509 54.3738 348.767 54.2225 348.991 54.0209C349.155 53.8999 349.287 53.7688 349.389 53.6276C349.491 53.4864 349.593 53.3352 349.695 53.1738V56.5619C349.389 55.9972 348.93 55.5838 348.319 55.3216C347.83 55.0796 347.364 54.9654 346.926 54.9754C346.488 54.9855 345.992 54.9889 345.445 54.9889H339.361V67.1194H348.38C348.971 67.1194 349.481 67.0656 349.909 66.9513C350.337 66.8404 350.724 66.6757 351.07 66.4539C351.417 66.232 351.743 65.9598 352.049 65.6371C352.355 65.3144 352.67 64.9413 352.997 64.5178L351.957 67.3916H335.937L335.94 67.395Z" fill="#C68865"/>
</g>
</svg>
