<svg width="843" height="26" viewBox="0 0 843 26" fill="none" xmlns="http://www.w3.org/2000/svg">
<g opacity="0.55">
<path d="M0 1.10999H19.43V21.2H17.87V20.11H1.49V21.2H0V1.10999ZM1.49 18.69H17.87V2.52999H1.49V18.68V18.69ZM9.75 13.94L9.8 15.03C5.78 15.84 3.47 16.3 2.87 16.41L2.62 15.23C3.51 15.09 5.89 14.66 9.76 13.94H9.75ZM14.32 8.02998L15.58 8.29999C15 10.44 14.12 12.35 12.94 14.02C13.54 15.47 14.23 16.24 15 16.35C15.35 16.39 15.6 15.58 15.76 13.91C16.11 14.23 16.46 14.45 16.79 14.59C16.64 15.83 16.38 16.68 16.03 17.16C15.68 17.64 15.2 17.78 14.61 17.58C13.59 17.38 12.72 16.59 12.02 15.2C11.09 16.27 10.02 17.2 8.81 17.98C8.56 17.65 8.25 17.32 7.87 17.01C9.31 16.18 10.52 15.13 11.49 13.86C10.86 12.05 10.42 9.71999 10.16 6.86999H2.84V5.68999H10.04C9.95 4.59999 9.89 3.73999 9.86 3.10999H11.24C11.3 4.29999 11.35 5.15999 11.4 5.68999H16.63V6.86999H11.49C11.7 9.08998 12.03 10.97 12.45 12.53C13.29 11.17 13.91 9.66998 14.31 8.02998H14.32ZM3.72 8.43998H8.93V12.92H3.72V8.43998ZM7.75 11.9V9.42999H4.84V11.9H7.75ZM15.97 4.49999L15.24 5.30999C14.58 4.68999 13.72 4.14999 12.65 3.67999L13.41 2.90999C14.53 3.37999 15.38 3.90999 15.98 4.48998L15.97 4.49999Z" fill="white"/>
<path d="M45 0.970007L45.99 1.51001C45.01 4.81001 44.37 6.89001 44.06 7.73001C45.18 9.33001 45.75 11.06 45.78 12.91C45.78 14.28 45.52 15.15 45 15.51C44.76 15.74 44.41 15.87 43.97 15.92C43.65 15.96 43.22 15.97 42.68 15.94C42.68 15.43 42.57 14.99 42.36 14.63C42.74 14.67 43.1 14.68 43.44 14.65C43.7 14.65 43.91 14.58 44.06 14.45C44.32 14.21 44.45 13.65 44.45 12.78C44.45 11.11 43.88 9.48001 42.73 7.89001C43.27 6.35001 43.79 4.53001 44.29 2.42001H41.7V21.13H40.32V1.04001H44.82L45 0.970007ZM49.2 10.81V9.77001C48.37 10.63 47.47 11.35 46.49 11.92C46.17 11.47 45.87 11.11 45.6 10.86C46.78 10.23 47.84 9.34001 48.79 8.19001C48.19 7.60001 47.44 7.00001 46.54 6.38001C46.39 6.55001 46.16 6.78001 45.85 7.08001C45.47 6.75001 45.11 6.48001 44.77 6.27001C46.57 4.76001 47.91 2.70001 48.76 0.0700073L50.04 0.340007C49.93 0.660007 49.72 1.20001 49.4 1.97001H51.99L52.22 1.90001L53.11 2.24001C52.42 5.15001 51.18 7.59001 49.39 9.55001H57.08V10.82H49.19L49.2 10.81ZM48.42 15.38L49.82 15.74C49.12 17.37 48.06 18.86 46.65 20.22C46.13 19.84 45.73 19.58 45.46 19.43C46.76 18.3 47.75 16.95 48.42 15.38ZM59.38 14.21H53.92V19.48C53.92 19.89 53.87 20.2 53.76 20.41C53.65 20.62 53.45 20.78 53.14 20.89C52.68 21.06 51.65 21.12 50.04 21.09C49.96 20.7 49.79 20.26 49.51 19.78C50.87 19.81 51.71 19.81 52.03 19.78C52.2 19.76 52.31 19.74 52.35 19.7C52.4 19.66 52.42 19.58 52.42 19.46V14.21H47.07V12.92H59.37V14.21H59.38ZM47.2 5.63001C48.13 6.28001 48.87 6.87001 49.4 7.39001C49.69 6.98001 49.95 6.58001 50.18 6.17001C49.64 5.69001 48.9 5.16001 47.95 4.59001C47.77 4.89001 47.51 5.24001 47.19 5.63001H47.2ZM51.49 3.10001H48.85C48.77 3.25001 48.64 3.48001 48.46 3.78001C49.39 4.26001 50.13 4.75001 50.69 5.23001C51.04 4.51001 51.31 3.80001 51.49 3.10001ZM59.66 1.81001L60.55 2.31001C59.82 4.45001 58.81 6.30001 57.52 7.85001C58.53 9.09001 59.7 10.01 61.03 10.63C60.65 10.92 60.33 11.3 60.07 11.78C56.51 9.91001 54.12 6.24001 52.91 0.760007L54.13 0.470007C54.71 2.99001 55.58 5.11001 56.75 6.83001C57.47 5.89001 58.14 4.64001 58.77 3.07001H55.44V1.89001H59.39L59.67 1.80001L59.66 1.81001ZM56.08 15.95L57.27 15.32C58.77 16.89 59.82 18.28 60.44 19.51L59.16 20.26C58.88 19.67 58.46 18.97 57.88 18.16C57.3 17.35 56.7 16.61 56.09 15.97L56.08 15.95Z" fill="white"/>
<path d="M84.63 9.21001V9.78001C84.97 10.2 85.5 10.95 86.24 12.03C86.97 13.11 87.45 13.83 87.66 14.19L86.58 15.34C86.27 14.57 85.62 13.36 84.63 11.72V21.13H83.21V12.19C82.34 14.8 81.42 16.81 80.46 18.21C80.4 18.03 80.12 17.5 79.63 16.63C80.23 15.83 80.83 14.74 81.43 13.35C82.03 11.96 82.53 10.58 82.93 9.21001H79.83V7.79001H83.2V0.0900073H84.62V7.78001H87.3V9.20001H84.62L84.63 9.21001ZM82.61 6.56001L81.44 6.85001C81.32 5.37001 80.87 3.70001 80.11 1.83001L81.21 1.56001C81.96 3.37001 82.43 5.04001 82.61 6.56001ZM86 6.92001L85.01 6.60001C85.67 5.02001 86.19 3.30001 86.57 1.44001L87.88 1.80001C87.11 4.14001 86.49 5.84001 86 6.91001V6.92001ZM95.27 7.51001H101.21V8.71001H88.18V7.51001H93.78V5.81001H89.42V4.68001H93.78V3.16001H88.8V1.96001H93.78V0.0700073H95.27V1.97001H100.62V3.17001H95.27V4.69001H100.13V5.82001H95.27V7.52001V7.51001ZM99.63 10.16V19.48C99.63 19.89 99.58 20.2 99.48 20.41C99.38 20.62 99.19 20.78 98.92 20.89C98.46 21.07 97.45 21.15 95.89 21.12C95.81 20.68 95.67 20.25 95.45 19.83C96.67 19.86 97.45 19.86 97.77 19.83C98.03 19.83 98.16 19.72 98.16 19.49V17.34H91.16V21.12H89.69V10.17H99.62L99.63 10.16ZM98.16 11.38H91.16V13.24H98.16V11.38ZM91.16 16.2H98.16V14.37H91.16V16.2Z" fill="white"/>
<path d="M121.25 21.15V11.11H129.44V20.93H127.9V19.89H122.74V21.16H121.25V21.15ZM127.9 12.6H122.74V18.39H127.9V12.6ZM137.33 1.02002V8.60002H124.69V1.02002H137.33ZM135.75 7.10002V2.51002H126.21V7.10002H135.75ZM132.1 11.11H140.79V21H139.23V19.89H133.61V21.16H132.1V11.12V11.11ZM133.61 18.39H139.23V12.6H133.61V18.39Z" fill="white"/>
<path d="M166.61 8.08001L167.5 8.33001C167.16 11.53 166.51 14.18 165.53 16.29C166.6 17.33 167.91 18.05 169.45 18.44C170.99 18.83 172.87 19.03 175.07 19.03C179.06 19.03 181.43 19.03 182.18 19.01C181.87 19.46 181.66 19.96 181.54 20.5H175.05C172.69 20.5 170.69 20.29 169.05 19.87C167.41 19.45 166 18.69 164.84 17.61C163.98 19.07 162.92 20.26 161.65 21.16C161.36 20.75 160.98 20.4 160.5 20.1C161.82 19.23 162.91 18.01 163.78 16.46C162.91 15.33 162.17 13.81 161.55 11.91L162.77 11.43C163.18 12.82 163.74 14.02 164.44 15.03C165.13 13.43 165.6 11.59 165.86 9.51001H162.9L162.44 10.44L160.99 10.03C162.03 8.17001 163.23 5.81001 164.59 2.93001H160.64V1.57001H165.37L165.62 1.46001L166.7 1.80001C166.18 2.93001 165.16 5.04001 163.63 8.11001H166.29L166.59 8.09001L166.61 8.08001ZM173.54 8.08001V6.22001H167V4.98001H173.54V3.19001H168.68V1.95001H173.54V0.200012H175.08V1.94001H180.31V4.97001H182.08V6.21001H180.31V9.33001H175.08V11.19H180.52V12.39H175.08V14.36H181.55V15.63H175.08V18.21H173.54V15.63H167.3V14.36H173.54V12.39H168.38V11.19H173.54V9.33001H168.52V8.06001H173.54V8.08001ZM175.08 3.19001V4.98001H178.8V3.19001H175.08ZM178.8 8.08001V6.22001H175.08V8.08001H178.8Z" fill="white"/>
<path d="M210.9 11.56L209.87 12.87C209.24 11.86 208.3 10.56 207.05 8.98002V21.11H205.51V9.57002C204.35 12.77 203.05 15.19 201.61 16.83C201.46 16.42 201.16 15.95 200.72 15.41C201.61 14.45 202.47 13.14 203.3 11.48C204.13 9.83002 204.78 8.17002 205.24 6.49002H201.55V5.02002H205.52V0.0200195H207.06V5.02002H210.34V6.49002H207.06V7.10002C208.04 8.14002 209.32 9.63002 210.91 11.56H210.9ZM222.44 5.04002V6.51002H219.96V18.98C219.96 19.54 219.88 19.95 219.72 20.22C219.56 20.49 219.29 20.69 218.91 20.81C218.33 21.02 216.96 21.13 214.8 21.13C214.69 20.63 214.51 20.1 214.25 19.52C215.95 19.57 217.12 19.57 217.78 19.54C217.99 19.53 218.14 19.48 218.23 19.4C218.31 19.32 218.36 19.19 218.36 18.99V8.58002C217.43 10.31 216.31 11.97 215 13.55C213.69 15.13 212.38 16.41 211.07 17.41C210.82 16.97 210.46 16.56 209.97 16.16C211.44 15.16 212.89 13.78 214.32 12C215.75 10.22 216.92 8.39002 217.82 6.50002H211.21V5.03002H218.37V0.0700195H219.98V5.05002H222.46L222.44 5.04002Z" fill="white"/>
<path d="M264.96 25.86V0.0200195H266.34V25.86H264.96Z" fill="white"/>
<path d="M309.14 17.53V16.51H329.99V17.53H316.82C316.12 18.56 315.58 19.29 315.21 19.75C318.97 19.6 322.15 19.46 324.73 19.34C323.8 18.84 323.06 18.5 322.53 18.3L323.59 17.58C324.57 17.99 325.59 18.49 326.65 19.1C327.71 19.7 328.55 20.25 329.16 20.75L328.1 21.54C327.63 21.12 327.04 20.7 326.33 20.27C321.8 20.54 316.56 20.81 310.61 21.08L310.45 19.93C310.8 19.91 311.35 19.89 312.09 19.86C312.83 19.83 313.36 19.81 313.66 19.79C314.3 18.99 314.81 18.24 315.2 17.53H309.12H309.14ZM314.9 3.89002V2.78002H309.26V1.63002H314.9V0.0200195H316.41V1.63002H322.7V0.0200195H324.24V1.63002H329.95V2.78002H324.24V3.89002H322.7V2.78002H316.41V3.89002H314.9ZM318.41 9.64002H316.76C316.19 9.64002 315.82 9.56002 315.65 9.41002C315.47 9.26002 315.39 8.93002 315.39 8.41002V7.66002H313.39C313.22 8.32002 312.87 8.85002 312.33 9.23002C311.79 9.61002 311 9.91002 309.94 10.12C309.77 9.77002 309.55 9.51002 309.27 9.33002C310.19 9.16002 310.88 8.96002 311.33 8.71002C311.78 8.46002 312.1 8.11002 312.27 7.66002H309.59V6.69002H313.93V5.69002H310.72V4.74002H313.93V3.95002H315.31V4.74002H318.48V5.69002H315.31V6.69002H319.53V7.66002H316.43V8.41002C316.43 8.58002 316.46 8.68002 316.51 8.73002C316.56 8.77002 316.68 8.80002 316.87 8.80002H318.2C318.38 8.80002 318.51 8.76002 318.57 8.66002C318.63 8.57002 318.67 8.36002 318.68 8.03002C318.89 8.17002 319.19 8.28002 319.57 8.37002C319.52 8.85002 319.41 9.18002 319.24 9.37002C319.06 9.55002 318.78 9.64002 318.4 9.64002H318.41ZM327.96 12.33H328.51C328.74 12.33 328.89 12.31 328.97 12.26C329.08 12.18 329.15 12.02 329.2 11.76C329.23 11.53 329.26 10.93 329.29 9.95002C329.56 10.19 329.89 10.37 330.25 10.47C330.22 11.59 330.15 12.29 330.04 12.57C329.96 12.87 329.78 13.1 329.49 13.25C329.31 13.37 329.01 13.43 328.6 13.43H327.66C327.19 13.43 326.83 13.31 326.58 13.07C326.43 12.95 326.33 12.78 326.28 12.56C326.23 12.34 326.21 11.93 326.21 11.33V6.94002H324.12C324.09 7.79002 323.96 8.58002 323.73 9.34002C324.51 9.81002 325.14 10.28 325.61 10.74L324.78 11.74C324.4 11.33 323.89 10.93 323.27 10.52C322.58 11.85 321.48 12.97 319.97 13.89C319.82 13.68 319.52 13.4 319.08 13.05C314.64 13.4 311.49 13.64 309.63 13.77L309.52 12.71C309.78 12.7 310.19 12.67 310.76 12.64C311.33 12.61 311.88 12.58 312.41 12.55C312.95 12.52 313.47 12.49 313.97 12.46V11.28H310.48V10.33H313.97V9.13002H315.32V10.33H318.85V11.28H315.32V12.37C315.7 12.34 316.37 12.29 317.32 12.22C318.27 12.15 319 12.1 319.52 12.07L319.5 12.7C320.72 11.9 321.62 10.93 322.18 9.78002C321.19 9.22002 320.44 8.84002 319.93 8.63002L320.71 7.75002C321.18 7.93002 321.81 8.23002 322.59 8.66002C322.73 8.12002 322.81 7.54002 322.84 6.94002H320.16V5.76002H322.87V4.15002H324.16V5.76002H327.51V11.44C327.51 11.91 327.55 12.17 327.62 12.23C327.68 12.29 327.8 12.32 327.96 12.32V12.33ZM312.08 14.25H327.2V15.27H312.08V14.25Z" fill="white"/>
<path d="M350.51 13.1L351.89 13.37C351.52 15.83 350.96 17.78 350.19 19.23C349.88 19 349.47 18.81 348.95 18.64C349.67 17.37 350.19 15.52 350.51 13.1ZM356.64 11.31L354.41 11.47V21.2H353.03V11.56L349.27 11.81L349.16 10.41L350.67 10.34C351.16 9.71998 351.71 8.95998 352.32 8.05998C351.45 6.89998 350.42 5.80998 349.25 4.77998L350.05 3.77998C350.05 3.77998 350.21 3.91998 350.38 4.05998C350.56 4.19998 350.69 4.31998 350.78 4.40998C351.61 3.04998 352.32 1.59998 352.94 0.039978L354.29 0.579978C353.22 2.68998 352.33 4.23998 351.63 5.21998C352.29 5.86998 352.78 6.41998 353.1 6.86998C354.02 5.41998 354.83 4.00998 355.53 2.63998L356.88 3.22998C355.21 6.01998 353.64 8.36998 352.15 10.27C352.62 10.26 353.34 10.22 354.3 10.17C355.26 10.12 355.85 10.08 356.08 10.07C355.84 9.55998 355.45 8.85998 354.93 7.96998L356.05 7.53998C357.2 9.26998 357.94 10.83 358.28 12.22L357.09 12.76C357 12.37 356.84 11.89 356.63 11.31H356.64ZM369.35 7.25998L370.29 7.63998C369.53 11.21 368.16 14.22 366.18 16.64C367.56 18.15 369.14 19.23 370.93 19.9C370.53 20.26 370.2 20.67 369.94 21.12C368.07 20.35 366.5 19.23 365.21 17.75C363.86 19.14 362.33 20.26 360.62 21.12C360.53 20.95 360.37 20.75 360.15 20.5C359.93 20.25 359.73 20.07 359.56 19.97C361.33 19.16 362.91 18.03 364.29 16.6C362.9 14.68 361.76 12.17 360.87 9.06998C360.61 14.14 359.33 18.14 357.04 21.08C356.58 20.7 356.18 20.43 355.85 20.27C356.55 19.41 357.19 18.36 357.75 17.13L356.76 17.47C356.55 16.29 356.07 14.91 355.34 13.33L356.49 12.97C357.09 14.12 357.56 15.37 357.91 16.72C359.01 14.1 359.56 10.63 359.56 6.30998V2.91998H357.17V1.48998H365.8L366.05 1.41998L367.11 1.59998C366.88 2.93998 366.51 4.83998 366.01 7.29998H369.04L369.34 7.25998H369.35ZM360.95 2.91998V4.09998C361.84 8.98998 363.27 12.8 365.24 15.53C366.75 13.61 367.84 11.35 368.5 8.73998H365.72L365.47 9.84998L364.05 9.66998C364.52 7.79998 364.99 5.54998 365.45 2.92998H360.95V2.91998Z" fill="white"/>
<path d="M394.5 9.21001V9.78001C394.84 10.2 395.37 10.95 396.11 12.03C396.84 13.11 397.32 13.83 397.53 14.19L396.45 15.34C396.14 14.57 395.49 13.36 394.5 11.72V21.13H393.08V12.19C392.21 14.8 391.29 16.81 390.33 18.21C390.27 18.03 389.99 17.5 389.5 16.63C390.1 15.83 390.7 14.74 391.3 13.35C391.9 11.96 392.4 10.58 392.8 9.21001H389.7V7.79001H393.07V0.0900073H394.49V7.78001H397.17V9.20001H394.49L394.5 9.21001ZM392.48 6.56001L391.31 6.85001C391.19 5.37001 390.74 3.70001 389.98 1.83001L391.08 1.56001C391.83 3.37001 392.3 5.04001 392.48 6.56001ZM395.88 6.92001L394.89 6.60001C395.55 5.02001 396.07 3.30001 396.45 1.44001L397.76 1.80001C396.99 4.14001 396.37 5.84001 395.88 6.91001V6.92001ZM405.15 7.51001H411.09V8.71001H398.06V7.51001H403.66V5.81001H399.3V4.68001H403.66V3.16001H398.68V1.96001H403.66V0.0700073H405.15V1.97001H410.5V3.17001H405.15V4.69001H410.01V5.82001H405.15V7.52001V7.51001ZM409.51 10.16V19.48C409.51 19.89 409.46 20.2 409.36 20.41C409.26 20.62 409.07 20.78 408.8 20.89C408.34 21.07 407.33 21.15 405.77 21.12C405.69 20.68 405.55 20.25 405.33 19.83C406.55 19.86 407.33 19.86 407.65 19.83C407.91 19.83 408.04 19.72 408.04 19.49V17.34H401.04V21.12H399.57V10.17H409.5L409.51 10.16ZM408.04 11.38H401.04V13.24H408.04V11.38ZM401.04 16.2H408.04V14.37H401.04V16.2Z" fill="white"/>
<path d="M441.63 17.78H451.31V19.34H430.36V17.78H439.9V4.25H431.57V2.69H450.15V4.25H441.61V17.78H441.63Z" fill="white"/>
<path d="M471.85 1.13H490.59V21.02H489.1V19.93H473.29V21.15H471.84V1.13H471.85ZM473.3 18.67H489.11V2.38001H473.3V18.67ZM488.28 13.76V14.78H484.86V17.07C484.86 17.4 484.81 17.64 484.72 17.78C484.63 17.92 484.45 18.03 484.19 18.08C483.85 18.17 482.92 18.22 481.39 18.22C481.33 17.95 481.2 17.65 481 17.32C481.67 17.33 482.39 17.34 483.16 17.34C483.39 17.33 483.5 17.22 483.5 17.02V14.78H474.16V13.76H483.5V12.9H484.85V13.76H488.27H488.28ZM480.46 5.91V4.89H474.45V3.89001H480.46V2.76H481.81V3.89001H487.94V4.89H481.81V5.91H487.09V10.55H481.81V11.75L484.91 11.68C484.71 11.53 484.49 11.37 484.24 11.21L485.13 10.6C486.34 11.44 487.2 12.21 487.72 12.91L486.82 13.59C486.67 13.38 486.34 13.02 485.83 12.53C480.43 12.71 476.67 12.82 474.54 12.85L474.47 11.83C475.42 11.83 477.41 11.82 480.43 11.79V10.57H475.38V5.93H480.43L480.46 5.91ZM476.67 6.76V7.8H480.46V6.76H476.67ZM476.67 9.68001H480.46V8.64001H476.67V9.68001ZM476.69 15.47L477.72 14.9C478.71 15.62 479.44 16.33 479.9 17.03L478.85 17.66C478.48 17.04 477.76 16.31 476.69 15.47ZM485.78 6.76H481.81V7.8H485.78V6.76ZM485.78 9.68001V8.64001H481.81V9.68001H485.78Z" fill="white"/>
<path d="M531.12 7.13003L532.15 8.08003C531.03 9.23003 529.74 10.37 528.27 11.52C529.37 14.22 530.79 16.15 532.54 17.31C532.11 17.63 531.75 18.03 531.44 18.51C528.47 16.25 526.42 11.95 525.29 5.61003C524.57 6.35003 523.81 7.02003 523.02 7.62003C524.04 8.53003 524.87 9.63003 525.51 10.95C526.14 12.26 526.54 13.53 526.69 14.74C526.84 15.95 526.83 17.07 526.64 18.08C526.46 19.09 526.13 19.81 525.65 20.25C525.13 20.81 524.41 21.09 523.49 21.09C523.11 21.11 522.56 21.09 521.86 21.05C521.83 20.45 521.7 19.97 521.47 19.63C522.1 19.69 522.68 19.72 523.21 19.72C523.81 19.72 524.24 19.55 524.52 19.22C524.89 18.86 525.12 18.22 525.23 17.3C525.34 16.38 525.28 15.35 525.07 14.22C524.11 15.23 522.95 16.21 521.61 17.16C520.26 18.11 518.96 18.86 517.69 19.42C517.49 19.07 517.19 18.7 516.77 18.31C518.18 17.77 519.63 16.98 521.12 15.93C522.61 14.89 523.8 13.83 524.69 12.76C524.51 12.19 524.22 11.55 523.84 10.84C522.45 12.15 520.86 13.31 519.07 14.32C518.81 13.85 518.51 13.48 518.18 13.21C518.1 14.25 517.82 14.93 517.33 15.25C517.07 15.43 516.67 15.57 516.11 15.66C515.7 15.7 515.17 15.71 514.53 15.68C514.5 15.18 514.36 14.73 514.12 14.32C514.66 14.36 515.14 14.37 515.57 14.34C515.92 14.31 516.18 14.24 516.35 14.14C516.66 13.91 516.81 13.37 516.81 12.51C516.81 10.9 516.08 9.33003 514.63 7.80003C515.24 6.32003 515.9 4.53003 516.6 2.42003H513.27V21.13H511.87V1.04003H517.17L517.42 0.970029L518.43 1.58003C517.31 4.52003 516.52 6.54003 516.04 7.64003C517.49 9.24003 518.22 10.91 518.22 12.64C518.22 12.78 518.2 12.97 518.17 13.21C519 12.83 519.89 12.32 520.84 11.68C521.79 11.04 522.58 10.42 523.19 9.81003C522.93 9.42003 522.51 8.95003 521.93 8.41003C521 9.07003 519.9 9.73003 518.65 10.38C518.4 10.02 518.08 9.65003 517.66 9.27003C520.11 8.18003 522.13 6.86003 523.72 5.31003H518.31V3.95003H521.68C521.4 2.86003 520.88 1.74003 520.12 0.580029L521.4 0.130029C522.21 1.29003 522.78 2.45003 523.12 3.61003L522.18 3.95003H527.69L526.75 3.63003C527.42 2.57003 528.04 1.38003 528.59 0.0300293L530.08 0.500029C528.98 2.45003 528.31 3.59003 528.06 3.94003H532.1V5.30003H526.52C526.87 7.26003 527.29 8.93003 527.78 10.3C529.17 9.15003 530.28 8.09003 531.11 7.11003L531.12 7.13003Z" fill="white"/>
<path d="M574.84 25.86V0.0200195H576.22V25.86H574.84Z" fill="white"/>
<path d="M623.56 9.21001V9.78001C623.9 10.2 624.43 10.95 625.17 12.03C625.9 13.11 626.38 13.83 626.59 14.19L625.51 15.34C625.2 14.57 624.55 13.36 623.56 11.72V21.13H622.14V12.19C621.27 14.8 620.35 16.81 619.39 18.21C619.33 18.03 619.05 17.5 618.56 16.63C619.16 15.83 619.76 14.74 620.36 13.35C620.96 11.96 621.47 10.58 621.86 9.21001H618.76V7.79001H622.13V0.0900073H623.55V7.78001H626.23V9.20001H623.55L623.56 9.21001ZM621.54 6.56001L620.37 6.85001C620.25 5.37001 619.8 3.70001 619.04 1.83001L620.14 1.56001C620.89 3.37001 621.36 5.04001 621.54 6.56001ZM624.94 6.92001L623.95 6.60001C624.61 5.02001 625.13 3.30001 625.51 1.44001L626.82 1.80001C626.06 4.14001 625.43 5.84001 624.94 6.91001V6.92001ZM634.21 7.51001H640.15V8.71001H627.12V7.51001H632.72V5.81001H628.36V4.68001H632.72V3.16001H627.74V1.96001H632.72V0.0700073H634.21V1.97001H639.56V3.17001H634.21V4.69001H639.07V5.82001H634.21V7.52001V7.51001ZM638.56 10.16V19.48C638.56 19.89 638.51 20.2 638.41 20.41C638.31 20.62 638.12 20.78 637.85 20.89C637.39 21.07 636.38 21.15 634.82 21.12C634.74 20.68 634.6 20.25 634.38 19.83C635.6 19.86 636.38 19.86 636.7 19.83C636.96 19.83 637.09 19.72 637.09 19.49V17.34H630.09V21.12H628.62V10.17H638.55L638.56 10.16ZM637.1 11.38H630.1V13.24H637.1V11.38ZM630.1 16.2H637.1V14.37H630.1V16.2Z" fill="white"/>
<path d="M660.07 13.1L661.31 13.35C661.08 15.76 660.67 17.71 660.07 19.19C659.69 18.95 659.3 18.77 658.9 18.65C659.42 17.53 659.81 15.69 660.07 13.11V13.1ZM665.09 11.2L663.55 11.34V21.14H662.22V11.43C660.98 11.51 659.92 11.57 659.03 11.63L658.91 10.2L660.31 10.13C660.86 9.35003 661.35 8.61003 661.78 7.91003C661.2 6.91003 660.32 5.81003 659.14 4.58003L659.87 3.58003C660.16 3.87003 660.37 4.08003 660.51 4.24003C661.2 2.85003 661.76 1.45003 662.18 0.0300293L663.53 0.480029C662.57 2.70003 661.83 4.25003 661.33 5.14003C661.88 5.83003 662.26 6.34003 662.48 6.66003C663.24 5.36003 663.93 4.04003 664.55 2.68003L665.81 3.20003C664.46 5.75003 663.09 8.04003 661.68 10.08L664.59 9.94003C664.39 9.44003 664.05 8.76003 663.58 7.90003L664.7 7.49003C665.14 8.21003 665.55 9.01003 665.93 9.87003C666.31 10.73 666.55 11.45 666.68 12.04L665.49 12.54C665.4 12.15 665.26 11.7 665.08 11.18L665.09 11.2ZM664.29 13.37L665.39 13.03C666.05 14.61 666.47 16.07 666.65 17.4L665.48 17.74C665.34 16.55 664.94 15.09 664.29 13.37ZM680.72 6.13003H679.66C679.26 9.67003 678.54 12.69 677.48 15.18C678.4 17.37 679.52 18.98 680.85 20.02C680.41 20.4 680.05 20.78 679.77 21.17C678.58 20.13 677.56 18.64 676.72 16.71C675.62 18.73 674.24 20.23 672.59 21.21C672.38 20.86 672.03 20.49 671.56 20.08C672.32 19.69 673.06 19.13 673.76 18.41C671.14 18.91 668.56 19.36 666.01 19.77L665.67 18.34C666.04 18.3 666.64 18.21 667.48 18.08C668.32 17.95 668.92 17.86 669.27 17.8V13.86H666.4V12.53H669.27V9.59003H670.65V12.53H673.5V13.86H670.65V17.59L673.82 17.11L673.89 18.29C674.67 17.48 675.4 16.38 676.07 15.01C675.49 13.34 675.01 11.35 674.65 9.06003C674.31 9.95003 673.92 10.77 673.48 11.53C673.17 11.12 672.81 10.78 672.4 10.49C672.54 10.28 672.73 9.93003 672.97 9.45003L672.56 9.61003C672.5 9.38003 672.38 9.05003 672.22 8.61003C671.52 8.69003 670.47 8.79003 669.08 8.93003C667.69 9.07003 666.69 9.16003 666.08 9.22003L665.85 7.89003L667.09 7.80003C667.61 6.35003 668.07 4.67003 668.47 2.76003H666.04V1.45003H673.82V2.76003H670.03C669.13 5.70003 668.61 7.34003 668.47 7.69003C669.53 7.61003 670.62 7.52003 671.75 7.42003C671.41 6.62003 671.01 5.83003 670.53 5.04003L671.68 4.61003C672.4 5.73003 673.01 6.93003 673.52 8.23003C674.31 6.16003 674.87 3.46003 675.17 0.110029L676.62 0.290029C676.42 1.95003 676.18 3.43003 675.91 4.72003H680.75V6.12003L680.72 6.13003ZM678.38 6.13003H675.56C675.54 6.19003 675.52 6.29003 675.49 6.42003C675.46 6.56003 675.44 6.65003 675.42 6.71003C675.74 9.26003 676.2 11.45 676.8 13.29C677.52 11.31 678.05 8.92003 678.38 6.12003V6.13003Z" fill="white"/>
<path d="M720.83 15.2H711.95C713.39 17.78 716.45 19.29 721.13 19.75C720.75 20.1 720.43 20.56 720.17 21.15C717.6 20.82 715.52 20.18 713.94 19.24C712.36 18.3 711.16 16.95 710.35 15.2H710.12C709.51 16.78 708.45 18.05 706.95 19C705.45 19.95 703.24 20.66 700.32 21.13C700.18 20.66 699.91 20.2 699.52 19.75C702.12 19.37 704.1 18.82 705.46 18.1C706.82 17.38 707.8 16.41 708.4 15.2H699.8V13.8H708.93C709.08 13.27 709.23 12.53 709.37 11.56H699.96V10.14H709.46V8.06H702.09V6.72H709.46V4.73H700.9V3.31H705.81C705.37 2.31 704.75 1.39 703.95 0.55L705.26 0.01C706.21 0.9 706.91 1.88 707.37 2.95L706.57 3.31H713.77L712.9 2.99C713.59 2.19 714.29 1.2 715.01 0L716.57 0.5C715.88 1.51 715.14 2.45 714.34 3.31H719.66V4.73H711.01V6.72H718.58V8.06H711.01V10.14H720.58V11.56H710.97C710.86 12.31 710.73 13.06 710.56 13.8H720.84V15.2H720.83Z" fill="white"/>
<path d="M760.92 15.25V16.52H751.44V19.48C751.44 19.9 751.37 20.22 751.24 20.44C751.11 20.66 750.88 20.81 750.54 20.9C750.08 21.05 748.83 21.13 746.78 21.13C746.72 20.78 746.54 20.34 746.25 19.79C746.75 19.8 747.82 19.81 749.44 19.81C749.62 19.8 749.75 19.77 749.82 19.72C749.89 19.67 749.92 19.58 749.92 19.43V16.51H740.47V15.24H749.92V13.91H750.86C751.96 13.49 752.99 12.97 753.96 12.35H744.6V11.15H755.59L755.89 11.06L756.85 11.83C755.43 12.98 753.62 13.98 751.44 14.84V15.25H760.92ZM742.29 9.49999V12.4H740.84V8.25999H742.7L742.22 1.03999L743.39 1.32999C744.46 1.03999 745.58 0.67999 746.74 0.23999L747.59 1.11999C746.61 1.52999 745.33 1.89999 743.76 2.24999L743.83 3.33999H747.41V4.46999H743.92L743.99 5.80999H747.52V6.89999H744.06L744.15 8.25999H757.3C757.35 7.84999 757.39 7.39999 757.44 6.89999H753.91V5.80999H757.53L757.64 4.46999H754.02V3.33999H757.71L757.8 1.99999H753.92V0.92999H759.31C759.22 3.26999 759.04 5.70999 758.78 8.25999H760.61V12.4H759.12V9.49999H742.28H742.29ZM752.98 3.07999L752.18 3.86999C751.81 3.47999 751.35 3.08999 750.78 2.71999C750.14 3.22999 749.41 3.70999 748.6 4.14999C748.4 3.96999 748.1 3.69999 747.68 3.35999C748.43 3.02999 749.16 2.60999 749.86 2.08999C749.02 1.57999 748.51 1.27999 748.35 1.20999L749.13 0.50999C749.59 0.71999 750.13 1.01999 750.76 1.41999C751.22 1.00999 751.57 0.63999 751.82 0.30999L752.94 0.62999C752.59 1.10999 752.15 1.56999 751.63 2.00999C752.15 2.35999 752.6 2.71999 752.98 3.09999V3.07999ZM752.08 4.06999L753.23 4.38999C752.91 4.82999 752.43 5.33999 751.78 5.92999C752.36 6.33999 752.84 6.73999 753.23 7.14999L752.4 7.89999C752.06 7.53999 751.57 7.11999 750.91 6.65999C750.21 7.21999 749.46 7.70999 748.66 8.12999C748.41 7.85999 748.11 7.59999 747.74 7.35999C748.49 7.00999 749.25 6.56999 750.01 6.02999C749.22 5.51999 748.72 5.20999 748.52 5.09999L749.32 4.46999C749.72 4.64999 750.24 4.93999 750.88 5.32999C751.35 4.93999 751.75 4.51999 752.07 4.08999L752.08 4.06999Z" fill="white"/>
<path d="M791.83 2.04002H800.94V6.18002H799.47V3.40002H782.79V6.18002H781.34V2.04002H790.29V0.0200195H791.83V2.03002V2.04002ZM799.95 13.21V19.48C799.95 19.89 799.9 20.2 799.79 20.41C799.68 20.62 799.48 20.78 799.19 20.89C798.73 21.03 797.68 21.09 796.05 21.09C795.99 20.74 795.84 20.31 795.59 19.8C796.92 19.84 797.75 19.84 798.07 19.8C798.34 19.8 798.48 19.69 798.48 19.48V14.52H791.73V16.69L794.74 16.58C794.33 16.11 793.94 15.71 793.57 15.38L794.63 14.9C795.2 15.38 795.75 15.96 796.29 16.62C796.83 17.28 797.24 17.87 797.52 18.38L796.37 18.95C796.16 18.51 795.93 18.13 795.7 17.8C794.67 17.85 792.93 17.93 790.47 18.06C788.01 18.19 786.28 18.27 785.29 18.32L785.17 16.92C785.49 16.91 786.24 16.88 787.42 16.85C788.6 16.82 789.55 16.79 790.29 16.76V14.52H783.82V21.13H782.35V13.21H790.29V11.63H784.53V4.91002H797.75V11.63H791.74V13.21H799.95ZM785.93 6.04002V7.69002H790.29V6.04002H785.93ZM785.93 10.5H790.29V8.80002H785.93V10.5ZM796.25 7.69002V6.04002H791.73V7.69002H796.25ZM796.25 10.5V8.80002H791.73V10.5H796.25Z" fill="white"/>
<path d="M830.7 12.35H823.68C823.59 16.26 822.89 19.19 821.59 21.15C821.25 20.77 820.85 20.46 820.37 20.22C821.56 18.41 822.16 15.52 822.16 11.56V5.27H830.69V12.35H830.7ZM831.32 1.33V2.76H821.29V1.33H831.32ZM829.21 6.7H823.68V10.93H829.21V6.7ZM842.35 7.87V9.39H839.64V21.13H838.13V9.39H833.84C833.72 14.49 832.39 18.38 829.87 21.06C829.78 20.91 829.61 20.72 829.37 20.51C829.12 20.29 828.91 20.14 828.73 20.05C829.49 19.24 830.13 18.33 830.65 17.34C831.16 16.34 831.53 15.31 831.76 14.24C831.99 13.17 832.14 12.2 832.22 11.33C832.3 10.46 832.33 9.5 832.33 8.45V2.35L833.64 2.69C836.76 1.89 839.02 1.1 840.43 0.309998L841.83 1.46C840.01 2.34 837.35 3.19 833.85 4.02V7.87H842.36H842.35Z" fill="white"/>
</g>
</svg>
