<svg width="509" height="49" viewBox="0 0 509 49" fill="none" xmlns="http://www.w3.org/2000/svg">
<path d="M39.1438 0.683997C39.1092 0.961331 38.9878 1.204 38.7798 1.412C38.5718 1.62 38.1905 1.75867 37.6358 1.828V8.172C37.6358 8.276 37.4105 8.432 36.9598 8.64C36.5438 8.81333 36.0238 8.96933 35.3998 9.108C34.7758 9.24666 34.1518 9.316 33.5278 9.316H32.5918V0.0599985L39.1438 0.683997ZM16.1078 0.683997C16.0732 0.961331 15.9345 1.204 15.6918 1.412C15.4838 1.62 15.1025 1.75867 14.5478 1.828V7.808C14.5478 7.912 14.3398 8.068 13.9238 8.276C13.5078 8.44933 12.9878 8.60533 12.3638 8.744C11.7398 8.88267 11.1158 8.952 10.4918 8.952H9.55582V0.0599985L16.1078 0.683997ZM25.3118 40.1C25.1732 40.3773 24.8612 40.6027 24.3758 40.776C23.8905 40.9493 23.1972 40.88 22.2958 40.568L24.0118 40.308C22.9025 40.828 21.4638 41.348 19.6958 41.868C17.9278 42.3533 16.0732 42.8213 14.1318 43.272C12.1905 43.7227 10.3532 44.0867 8.61982 44.364V43.844H10.5958C10.4918 45.0573 10.2318 46.028 9.81582 46.756C9.43449 47.5187 8.98382 48.004 8.46382 48.212L6.38382 43.168C6.38382 43.168 6.57449 43.1507 6.95582 43.116C7.33716 43.0467 7.63182 42.9947 7.83982 42.96C9.29582 42.7173 10.8038 42.284 12.3638 41.66C13.9238 41.036 15.3625 40.36 16.6798 39.632C18.0318 38.904 19.0718 38.2973 19.7998 37.812L25.3118 40.1ZM7.57982 43.48C8.96649 43.48 10.7518 43.48 12.9358 43.48C15.1545 43.4453 17.6678 43.3933 20.4758 43.324C23.3185 43.2547 26.3345 43.1853 29.5238 43.116C32.7478 43.0467 36.0412 42.96 39.4038 42.856V43.792C35.9718 44.2773 31.6212 44.832 26.3518 45.456C21.0825 46.1147 15.2065 46.756 8.72382 47.38L7.57982 43.48ZM31.0838 39.424C33.8918 39.736 36.1625 40.2213 37.8958 40.88C39.6638 41.504 41.0158 42.1973 41.9518 42.96C42.8878 43.7227 43.4772 44.468 43.7198 45.196C43.9972 45.924 43.9972 46.548 43.7198 47.068C43.4772 47.6227 43.0612 47.9867 42.4718 48.16C41.9172 48.368 41.2758 48.316 40.5478 48.004C40.0625 47.38 39.3345 46.6173 38.3638 45.716C37.4278 44.8147 36.3012 43.8787 34.9838 42.908C33.7012 41.9373 32.2972 41.0187 30.7718 40.152L31.0838 39.424ZM42.3158 34.172C42.3158 34.172 42.5932 34.38 43.1478 34.796C43.7372 35.212 44.4305 35.7147 45.2278 36.304C46.0252 36.8933 46.7532 37.4653 47.4118 38.02C47.2732 38.5747 46.8052 38.852 46.0078 38.852H2.37982L1.96382 37.344H39.5598L42.3158 34.172ZM34.3598 29.492C34.3598 29.492 34.6372 29.7 35.1918 30.116C35.7465 30.532 36.4225 31.0347 37.2198 31.624C38.0172 32.1787 38.7278 32.7333 39.3518 33.288C39.2132 33.8427 38.7452 34.12 37.9478 34.12H12.5198L12.1038 32.612H31.7078L34.3598 29.492ZM44.0318 0.839998C44.0318 0.839998 44.2918 1.06533 44.8118 1.516C45.3318 1.932 45.9385 2.452 46.6318 3.076C47.3598 3.7 47.9838 4.28933 48.5038 4.844C48.3998 5.39866 47.9665 5.676 47.2038 5.676H25.9358L25.5198 4.168H41.6398L44.0318 0.839998ZM20.2158 1.308C20.2158 1.308 20.4585 1.49866 20.9438 1.88C21.4292 2.26133 21.9838 2.72933 22.6078 3.284C23.2665 3.804 23.8558 4.324 24.3758 4.844C24.2372 5.39866 23.8038 5.676 23.0758 5.676H1.02782L0.611822 4.168H18.0318L20.2158 1.308ZM12.8318 16.544C12.4852 17.8267 11.9305 18.988 11.1678 20.028C10.4052 21.0333 9.33049 21.9 7.94382 22.628C6.59182 23.356 4.82382 23.9627 2.63982 24.448L1.96382 23.668C4.18249 22.9747 5.74249 21.9867 6.64382 20.704C7.54516 19.4213 8.13449 18.0347 8.41182 16.544H12.8318ZM19.0718 16.596C19.0718 16.8387 19.0718 17.0813 19.0718 17.324C19.0718 17.5667 19.0718 17.7747 19.0718 17.948V19.3C19.0718 19.5427 19.1065 19.716 19.1758 19.82C19.2452 19.8893 19.4012 19.924 19.6438 19.924H20.7358C20.9438 19.924 21.1172 19.924 21.2558 19.924C21.4292 19.924 21.5678 19.924 21.6718 19.924C21.7758 19.924 21.8972 19.924 22.0358 19.924C22.1745 19.924 22.2958 19.9067 22.3998 19.872C22.5038 19.872 22.6425 19.8547 22.8158 19.82C22.9892 19.7853 23.1278 19.7507 23.2318 19.716H23.6998L23.9078 19.768C24.3932 19.9413 24.7398 20.1147 24.9478 20.288C25.1558 20.4267 25.2598 20.6693 25.2598 21.016C25.2598 21.6747 24.9132 22.1427 24.2198 22.42C23.5265 22.6627 22.2092 22.784 20.2678 22.784H18.4478C17.1305 22.784 16.2985 22.576 15.9518 22.16C15.6052 21.7093 15.4318 20.9467 15.4318 19.872V16.596H19.0718ZM37.5318 13.788L39.7678 11.5L43.9798 14.932C43.8065 15.0707 43.5465 15.2093 43.1998 15.348C42.8878 15.4867 42.5238 15.5907 42.1078 15.66C42.0385 17.22 42.0385 18.8147 42.1078 20.444C42.2118 22.0733 42.4198 23.5293 42.7318 24.812C43.0785 26.0947 43.5292 27.0133 44.0838 27.568C44.2572 27.7067 44.3785 27.7587 44.4478 27.724C44.5518 27.6893 44.6732 27.5507 44.8118 27.308C45.0198 26.8227 45.2452 26.2507 45.4878 25.592C45.7305 24.8987 45.9558 24.2053 46.1638 23.512L46.7878 23.616L46.3198 28.712C46.7705 29.3013 47.0825 29.8387 47.2558 30.324C47.4292 30.7747 47.3772 31.208 47.0998 31.624C46.8225 32.144 46.3892 32.456 45.7998 32.56C45.2105 32.6293 44.5865 32.56 43.9278 32.352C43.3038 32.1093 42.7492 31.7973 42.2638 31.416C41.0505 30.376 40.1318 28.9547 39.5078 27.152C38.9185 25.3493 38.5198 23.304 38.3118 21.016C38.1385 18.6933 38.0518 16.284 38.0518 13.788H37.5318ZM2.63982 29.648C4.06116 29.648 5.89849 29.5787 8.15182 29.44C10.4398 29.2667 12.9532 29.0587 15.6918 28.816C18.4652 28.5733 21.2558 28.296 24.0638 27.984L24.1158 28.816C22.0012 29.4747 19.4878 30.1853 16.5758 30.948C13.6638 31.7107 10.2318 32.508 6.27982 33.34C6.00249 33.964 5.58649 34.328 5.03182 34.432L2.63982 29.648ZM40.5478 13.788V15.296H26.0918L25.6238 13.788H40.5478ZM36.0758 9.42C36.0412 9.732 35.8852 10.0093 35.6078 10.252C35.3652 10.4947 34.9665 10.6507 34.4118 10.72C34.3425 13.1467 34.2212 15.4173 34.0478 17.532C33.8745 19.612 33.4238 21.5533 32.6958 23.356C32.0025 25.124 30.8758 26.7533 29.3158 28.244C27.7905 29.7 25.6238 30.9827 22.8158 32.092L22.2438 31.26C24.2892 30.012 25.8665 28.6253 26.9758 27.1C28.0852 25.5747 28.8478 23.8933 29.2638 22.056C29.7145 20.184 29.9745 18.156 30.0438 15.972C30.1478 13.788 30.1998 11.4133 30.1998 8.848L36.0758 9.42ZM16.5758 21.64C16.5412 21.9173 16.4198 22.16 16.2118 22.368C16.0038 22.576 15.6572 22.7147 15.1718 22.784V30.48H11.1158V21.068L16.5758 21.64ZM16.9918 8.848C16.9572 9.12533 16.8185 9.368 16.5758 9.576C16.3678 9.74933 16.0385 9.87067 15.5878 9.94V17.064H11.3758V8.276L16.9918 8.848ZM21.7758 13.58C21.7758 13.58 22.0012 13.7533 22.4518 14.1C22.9025 14.412 23.4572 14.8107 24.1158 15.296C24.7745 15.7813 25.3638 16.2493 25.8838 16.7C25.7452 17.2547 25.2945 17.532 24.5318 17.532H3.10782L2.69182 16.024H19.5918L21.7758 13.58ZM20.0598 22.576C20.0598 22.576 20.2678 22.732 20.6838 23.044C21.1345 23.3213 21.6545 23.6853 22.2438 24.136C22.8678 24.552 23.4225 24.9853 23.9078 25.436C23.8038 25.9907 23.3705 26.268 22.6078 26.268H5.18782L4.77182 24.76H18.0318L20.0598 22.576ZM19.5918 9.108C19.5918 9.108 19.8172 9.28133 20.2678 9.628C20.7185 9.94 21.2385 10.356 21.8278 10.876C22.4518 11.3613 23.0238 11.8293 23.5438 12.28C23.4052 12.8347 22.9545 13.112 22.1918 13.112H4.87582L4.45982 11.604H17.4598L19.5918 9.108ZM26.2478 18.624C28.6052 19.0053 30.5292 19.5253 32.0198 20.184C33.5105 20.8427 34.6372 21.5533 35.3998 22.316C36.1972 23.044 36.6998 23.772 36.9078 24.5C37.1158 25.1933 37.1158 25.8 36.9078 26.32C36.6998 26.8053 36.3358 27.1347 35.8158 27.308C35.3305 27.4813 34.7758 27.3947 34.1518 27.048C33.6665 26.0427 32.7132 24.812 31.2918 23.356C29.8705 21.9 28.0678 20.5827 25.8838 19.404L26.2478 18.624ZM90.4158 4.22C90.3465 8.34533 90.2252 12.436 90.0518 16.492C89.8785 20.5133 89.4452 24.4133 88.7518 28.192C88.0585 31.9707 86.9145 35.576 85.3198 39.008C83.7598 42.4053 81.5412 45.56 78.6638 48.472L77.8838 47.692C79.9292 44.5373 81.4892 41.2267 82.5638 37.76C83.6385 34.2587 84.3838 30.6533 84.7998 26.944C85.2505 23.2347 85.5105 19.4733 85.5798 15.66C85.6492 11.8467 85.6838 8.03333 85.6838 4.22H90.4158ZM91.6118 18.832C92.2358 22.056 93.1545 24.9853 94.3678 27.62C95.6158 30.22 97.0892 32.56 98.7878 34.64C100.521 36.72 102.445 38.54 104.56 40.1C106.709 41.6253 109.014 42.9253 111.476 44L111.372 44.572C110.332 44.6413 109.413 45.0053 108.616 45.664C107.818 46.3227 107.194 47.224 106.744 48.368C104.525 46.912 102.532 45.2653 100.764 43.428C99.0305 41.556 97.5052 39.4413 96.1878 37.084C94.8705 34.7267 93.7612 32.0747 92.8598 29.128C91.9585 26.1813 91.2478 22.888 90.7278 19.248L91.6118 18.832ZM99.0998 3.908L101.18 1.568L105.86 5.312C105.513 5.69333 104.906 5.91867 104.04 5.988L102.168 19.3H97.4878L99.5678 3.908H99.0998ZM103 18.468L105.756 15.816L110.384 19.976C110.21 20.2533 109.968 20.444 109.656 20.548C109.344 20.6173 108.893 20.6867 108.304 20.756C107.506 23.8067 106.466 26.7187 105.184 29.492C103.901 32.2307 102.289 34.796 100.348 37.188C98.4065 39.5453 96.0318 41.6773 93.2238 43.584C90.4505 45.4907 87.1572 47.0853 83.3438 48.368L82.8758 47.64C87.0358 45.5947 90.5025 43.0987 93.2758 40.152C96.0838 37.2053 98.3198 33.8947 99.9838 30.22C101.648 26.5453 102.861 22.628 103.624 18.468H103ZM105.756 18.468V19.976H87.3998L87.7118 18.468H105.756ZM101.544 3.908V5.416H81.3158L80.8478 3.908H101.544ZM83.2398 13.476C83.0665 13.788 82.7025 13.996 82.1478 14.1C81.6278 14.204 80.9865 14.048 80.2238 13.632L81.7318 13.372C80.9345 14.4467 79.9118 15.6773 78.6638 17.064C77.4505 18.4507 76.0985 19.8547 74.6078 21.276C73.1172 22.6973 71.5745 24.0667 69.9798 25.384C68.4198 26.7013 66.9118 27.8453 65.4558 28.816L65.3518 28.192H67.6398C67.5012 29.6133 67.1892 30.7227 66.7038 31.52C66.2185 32.2827 65.6812 32.7853 65.0918 33.028L63.1158 27.464C63.1158 27.464 63.3238 27.412 63.7398 27.308C64.1905 27.204 64.5545 27.0653 64.8318 26.892C65.9412 26.0253 67.1198 24.8813 68.3678 23.46C69.6505 22.0387 70.8985 20.5133 72.1118 18.884C73.3252 17.22 74.4172 15.5907 75.3878 13.996C76.3932 12.3667 77.1732 10.9453 77.7278 9.732L83.2398 13.476ZM77.8838 3.18C77.7452 3.492 77.4158 3.73467 76.8958 3.908C76.4105 4.08133 75.7345 3.99467 74.8678 3.648L76.4278 3.336C75.6652 4.61866 74.6772 6.05733 73.4638 7.652C72.2852 9.24666 71.0198 10.8067 69.6678 12.332C68.3158 13.8573 66.9812 15.14 65.6638 16.18L65.6118 15.608H68.1078C67.9692 16.96 67.6745 18.0347 67.2238 18.832C66.8078 19.6293 66.3225 20.1493 65.7678 20.392L63.5318 14.88C63.5318 14.88 63.7052 14.828 64.0518 14.724C64.4332 14.62 64.7278 14.4987 64.9358 14.36C65.5598 13.632 66.2185 12.696 66.9118 11.552C67.6052 10.3733 68.2638 9.09066 68.8878 7.704C69.5465 6.31733 70.1185 4.96533 70.6038 3.648C71.1238 2.33067 71.5052 1.16933 71.7478 0.163997L77.8838 3.18ZM67.5878 33.808C68.4892 36.6853 68.7665 39.1467 68.4198 41.192C68.0732 43.2373 67.4665 44.7453 66.5998 45.716C66.2532 46.1667 65.8025 46.4787 65.2478 46.652C64.6932 46.8253 64.1385 46.8427 63.5838 46.704C63.0638 46.6 62.6478 46.3227 62.3358 45.872C61.9892 45.2133 61.9372 44.572 62.1798 43.948C62.4572 43.2893 62.9078 42.7347 63.5318 42.284C64.0518 41.7987 64.5718 41.1053 65.0918 40.204C65.6118 39.3027 66.0278 38.2973 66.3398 37.188C66.6518 36.044 66.7905 34.9173 66.7558 33.808H67.5878ZM76.2198 32.248C78.0225 33.0107 79.3572 33.86 80.2238 34.796C81.0905 35.732 81.5758 36.6333 81.6798 37.5C81.8185 38.3667 81.7145 39.0947 81.3678 39.684C81.0212 40.2733 80.5358 40.62 79.9118 40.724C79.2878 40.828 78.6465 40.568 77.9878 39.944C77.9878 38.7307 77.7278 37.4307 77.2078 36.044C76.7225 34.6573 76.1852 33.496 75.5958 32.56L76.2198 32.248ZM71.3318 33.132C72.8918 34.5187 73.9838 35.888 74.6078 37.24C75.2665 38.592 75.5785 39.8227 75.5438 40.932C75.5092 42.0413 75.2492 42.9253 74.7638 43.584C74.3132 44.2427 73.7412 44.5893 73.0478 44.624C72.3892 44.6933 71.7652 44.3467 71.1758 43.584C71.4532 41.92 71.5052 40.152 71.3318 38.28C71.1932 36.3733 70.9505 34.7267 70.6038 33.34L71.3318 33.132ZM76.3238 21.276C78.3345 22.42 79.8252 23.5813 80.7958 24.76C81.7665 25.9387 82.3558 27.048 82.5638 28.088C82.7718 29.128 82.7025 29.9947 82.3558 30.688C82.0438 31.3467 81.5585 31.7453 80.8998 31.884C80.2412 32.0227 79.5652 31.7627 78.8718 31.104C78.8372 30.064 78.6465 28.972 78.2998 27.828C77.9532 26.684 77.5372 25.5747 77.0518 24.5C76.6012 23.3907 76.1332 22.42 75.6478 21.588L76.3238 21.276ZM64.1558 27.464C65.1265 27.4293 66.4438 27.36 68.1078 27.256C69.7718 27.152 71.6612 27.0307 73.7758 26.892C75.8905 26.7187 78.0398 26.5627 80.2238 26.424L80.2758 27.152C78.7852 27.672 76.7398 28.4 74.1398 29.336C71.5398 30.2373 68.7145 31.1213 65.6638 31.988L64.1558 27.464ZM64.1038 15.036C64.9012 15.0707 65.9758 15.1053 67.3278 15.14C68.7145 15.14 70.2398 15.14 71.9038 15.14C73.5678 15.1053 75.2492 15.0707 76.9478 15.036V15.764C75.9078 16.18 74.3652 16.752 72.3198 17.48C70.3092 18.1733 68.1598 18.8667 65.8718 19.56L64.1038 15.036ZM166.544 23.304V24.812H150.476V23.304H166.544ZM148.136 22.784V21.224L153.596 23.304H152.816V32.664C152.816 34.0507 152.712 35.472 152.504 36.928C152.33 38.384 151.949 39.8227 151.36 41.244C150.77 42.6307 149.852 43.948 148.604 45.196C147.39 46.4787 145.726 47.6227 143.612 48.628L143.092 48.056C144.652 46.6347 145.778 45.092 146.472 43.428C147.165 41.764 147.616 40.0307 147.824 38.228C148.032 36.3907 148.136 34.5533 148.136 32.716V23.304V22.784ZM166.648 35.108V36.616H150.424V35.108H166.648ZM164.152 23.304L166.284 20.756L171.38 24.552C171.206 24.76 170.929 24.968 170.548 25.176C170.166 25.3493 169.716 25.488 169.196 25.592V42.388C169.196 43.428 169.057 44.3467 168.78 45.144C168.537 45.9413 167.982 46.5827 167.116 47.068C166.249 47.5533 164.897 47.8827 163.06 48.056C162.99 47.3627 162.886 46.7387 162.748 46.184C162.609 45.6293 162.366 45.1787 162.02 44.832C161.673 44.4853 161.188 44.1907 160.564 43.948C159.974 43.6707 159.142 43.4453 158.068 43.272V42.492C158.068 42.492 158.293 42.5093 158.744 42.544C159.229 42.5787 159.801 42.6307 160.46 42.7C161.118 42.7347 161.742 42.7693 162.332 42.804C162.956 42.8387 163.389 42.856 163.632 42.856C164.048 42.856 164.325 42.7693 164.464 42.596C164.602 42.4227 164.672 42.1627 164.672 41.816V23.304H164.152ZM166.7 29.076V30.584H150.58V29.076H166.7ZM162.28 0.631997C162.245 0.978664 162.106 1.27333 161.864 1.516C161.621 1.724 161.205 1.88 160.616 1.984V19.04H155.884V0.0599985L162.28 0.631997ZM168.936 14.828C168.936 14.828 169.213 15.0533 169.768 15.504C170.322 15.92 170.981 16.4573 171.744 17.116C172.541 17.74 173.234 18.3293 173.824 18.884C173.685 19.4387 173.217 19.716 172.42 19.716H145.172L144.756 18.208H166.284L168.936 14.828ZM166.544 8.796C166.544 8.796 166.804 9.004 167.324 9.42C167.844 9.836 168.45 10.3387 169.144 10.928C169.837 11.4827 170.478 12.0373 171.068 12.592C170.929 13.1467 170.461 13.424 169.664 13.424H147.824L147.408 11.916H164.048L166.544 8.796ZM167.792 2.764C167.792 2.764 168.069 2.98933 168.624 3.44C169.178 3.89067 169.837 4.428 170.6 5.052C171.362 5.64133 172.038 6.23066 172.628 6.82C172.524 7.37466 172.073 7.652 171.276 7.652H146.42L146.004 6.144H165.192L167.792 2.764ZM134.824 24.656C134.685 24.9333 134.46 25.176 134.148 25.384C133.836 25.592 133.402 25.696 132.848 25.696C131.877 28.3307 130.733 30.9307 129.416 33.496C128.133 36.0613 126.746 38.2973 125.256 40.204L124.476 39.788C124.996 38.332 125.516 36.668 126.036 34.796C126.59 32.8893 127.11 30.896 127.596 28.816C128.081 26.736 128.497 24.708 128.844 22.732L134.824 24.656ZM146.524 4.792C146.42 5.104 146.212 5.364 145.9 5.572C145.588 5.78 145.154 5.86666 144.6 5.832C143.733 7.6 142.78 9.43733 141.74 11.344C140.7 13.2507 139.694 14.9147 138.724 16.336L137.84 15.972C138.152 14.8627 138.464 13.58 138.776 12.124C139.122 10.668 139.452 9.16 139.764 7.6C140.11 6.00533 140.44 4.48 140.752 3.024L146.524 4.792ZM138.204 23.512C140.318 25.0027 141.878 26.476 142.884 27.932C143.924 29.388 144.548 30.74 144.756 31.988C144.998 33.236 144.946 34.2587 144.6 35.056C144.288 35.8533 143.785 36.3213 143.092 36.46C142.398 36.5987 141.688 36.304 140.96 35.576C140.925 34.328 140.717 33.0107 140.336 31.624C139.989 30.2027 139.556 28.816 139.036 27.464C138.55 26.112 138.048 24.8813 137.528 23.772L138.204 23.512ZM139.088 0.735999C139.018 1.08267 138.845 1.39467 138.568 1.672C138.325 1.91467 137.874 2.07066 137.216 2.14V46.964C137.216 47.1027 137.042 47.276 136.696 47.484C136.349 47.7267 135.898 47.9347 135.344 48.108C134.824 48.2813 134.286 48.368 133.732 48.368H132.848V0.0599985L139.088 0.735999ZM126.192 3.908C128.064 5.43333 129.45 6.94133 130.352 8.432C131.253 9.888 131.79 11.2227 131.964 12.436C132.172 13.6147 132.102 14.5853 131.756 15.348C131.444 16.1107 130.976 16.5613 130.352 16.7C129.728 16.8387 129.086 16.5613 128.428 15.868C128.428 14.62 128.272 13.3027 127.96 11.916C127.648 10.4947 127.266 9.12533 126.816 7.808C126.365 6.456 125.914 5.24267 125.464 4.168L126.192 3.908ZM140.7 16.024C140.7 16.024 140.942 16.232 141.428 16.648C141.913 17.064 142.485 17.5667 143.144 18.156C143.802 18.7107 144.409 19.2653 144.964 19.82C144.825 20.3747 144.374 20.652 143.612 20.652H125.36L124.944 19.144H138.308L140.7 16.024ZM190.88 8.068H223.172L226.5 3.856C226.5 3.856 226.69 4.02933 227.072 4.376C227.488 4.688 228.008 5.08667 228.632 5.572C229.256 6.05733 229.914 6.57733 230.608 7.132C231.301 7.68667 231.942 8.224 232.532 8.744C232.393 9.29866 231.89 9.576 231.024 9.576H191.348L190.88 8.068ZM187.396 42.648H226.448L229.776 38.384C229.776 38.384 229.966 38.54 230.348 38.852C230.764 39.164 231.284 39.58 231.908 40.1C232.566 40.5853 233.242 41.1227 233.936 41.712C234.629 42.2667 235.253 42.7867 235.808 43.272C235.669 43.8267 235.184 44.104 234.352 44.104H187.864L187.396 42.648ZM208.716 8.068H214.124V43.324H208.716V8.068ZM295.24 0.371998C296.869 0.75333 298.135 1.23866 299.036 1.828C299.972 2.41733 300.596 3.04133 300.908 3.7C301.22 4.35866 301.307 4.98266 301.168 5.572C301.03 6.16133 300.718 6.62933 300.232 6.976C299.782 7.32267 299.244 7.496 298.62 7.496C298.031 7.46133 297.424 7.16667 296.8 6.612C296.835 5.60667 296.627 4.54933 296.176 3.44C295.76 2.33066 295.275 1.412 294.72 0.683997L295.24 0.371998ZM289 47.12C289 47.2933 288.688 47.5533 288.064 47.9C287.475 48.2467 286.643 48.42 285.568 48.42H284.892V4.272H289V47.12ZM272.776 37.084C273.643 36.9453 274.856 36.72 276.416 36.408C277.976 36.096 279.727 35.732 281.668 35.316C283.644 34.9 285.672 34.4493 287.752 33.964L287.908 34.64C286.625 35.4027 284.996 36.3733 283.02 37.552C281.079 38.696 278.791 39.9613 276.156 41.348C276.052 41.6947 275.879 41.9893 275.636 42.232C275.428 42.44 275.185 42.5787 274.908 42.648L272.776 37.084ZM286.816 24.708V26.216H278.444V24.708H286.816ZM286.816 14.256V15.764H278.444V14.256H286.816ZM280.16 37.552C280.16 37.6213 279.865 37.7253 279.276 37.864C278.687 38.0027 277.872 38.072 276.832 38.072H276.208V4.272H280.16V37.552ZM288.844 0.735999C288.844 0.735999 289.122 0.961332 289.676 1.412C290.231 1.828 290.89 2.348 291.652 2.972C292.415 3.56133 293.108 4.15067 293.732 4.74C293.628 5.29466 293.177 5.572 292.38 5.572H273.452L273.036 4.064H286.14L288.844 0.735999ZM321.968 23.096C321.864 23.3733 321.656 23.5987 321.344 23.772C321.067 23.9107 320.582 23.98 319.888 23.98C319.264 26.3373 318.432 28.6773 317.392 31C316.387 33.3227 315.104 35.576 313.544 37.76C312.019 39.9093 310.199 41.8853 308.084 43.688C305.97 45.4907 303.491 47.0333 300.648 48.316L300.18 47.64C303.404 45.664 306.091 43.272 308.24 40.464C310.39 37.6213 312.106 34.5707 313.388 31.312C314.706 28.0187 315.642 24.7427 316.196 21.484L321.968 23.096ZM314.116 1.048C314.082 1.39466 313.926 1.70666 313.648 1.984C313.406 2.22666 312.938 2.4 312.244 2.504C312.175 6.80267 312.14 10.9627 312.14 14.984C312.14 18.9707 312.279 22.68 312.556 26.112C312.868 29.5093 313.388 32.5253 314.116 35.16C314.879 37.76 315.971 39.84 317.392 41.4C317.67 41.7467 317.878 41.9027 318.016 41.868C318.19 41.8333 318.363 41.5733 318.536 41.088C318.883 40.4293 319.23 39.5453 319.576 38.436C319.958 37.3267 320.304 36.2347 320.616 35.16L321.24 35.264L320.408 43.272C321.032 44.3813 321.396 45.2307 321.5 45.82C321.639 46.4093 321.587 46.8773 321.344 47.224C320.824 47.7787 320.183 48.004 319.42 47.9C318.692 47.8307 317.947 47.5533 317.184 47.068C316.456 46.5827 315.815 46.0453 315.26 45.456C313.423 43.5147 312.002 41.036 310.996 38.02C310.026 35.004 309.332 31.5547 308.916 27.672C308.5 23.7893 308.24 19.56 308.136 14.984C308.067 10.3733 308.032 5.48533 308.032 0.319998L314.116 1.048ZM301.168 23.616L303.144 21.536L307.252 24.708C306.94 25.124 306.368 25.4013 305.536 25.54V40.776C305.536 40.9147 305.346 41.0707 304.964 41.244C304.583 41.4173 304.132 41.5907 303.612 41.764C303.127 41.9027 302.659 41.972 302.208 41.972H301.584V23.616H301.168ZM295.656 42.648C295.656 42.752 295.5 42.908 295.188 43.116C294.876 43.324 294.478 43.5147 293.992 43.688C293.507 43.8613 292.97 43.948 292.38 43.948H291.756V23.616V21.796L295.916 23.616H303.404V25.124H295.656V42.648ZM307.408 10.824C307.304 11.136 307.096 11.396 306.784 11.604C306.507 11.7773 306.091 11.864 305.536 11.864C304.947 13.0427 304.184 14.308 303.248 15.66C302.347 16.9773 301.359 18.208 300.284 19.352H299.348C299.868 17.9307 300.336 16.284 300.752 14.412C301.168 12.54 301.48 10.8413 301.688 9.316L307.408 10.824ZM314.064 4.584C316.006 5.48533 317.444 6.456 318.38 7.496C319.316 8.536 319.871 9.524 320.044 10.46C320.252 11.3613 320.183 12.124 319.836 12.748C319.524 13.372 319.056 13.736 318.432 13.84C317.808 13.944 317.15 13.684 316.456 13.06C316.352 12.1587 316.144 11.2227 315.832 10.252C315.52 9.24666 315.156 8.276 314.74 7.34C314.324 6.404 313.891 5.572 313.44 4.844L314.064 4.584ZM293.16 9.576C294.79 10.512 295.951 11.4827 296.644 12.488C297.337 13.4587 297.701 14.36 297.736 15.192C297.806 16.024 297.632 16.7173 297.216 17.272C296.835 17.792 296.332 18.0693 295.708 18.104C295.119 18.1387 294.53 17.8267 293.94 17.168C293.975 15.9893 293.836 14.724 293.524 13.372C293.247 11.9853 292.917 10.7893 292.536 9.784L293.16 9.576ZM303.404 38.644V40.152H293.94V38.644H303.404ZM303.404 30.792V32.3H293.94V30.792H303.404ZM317.288 15.036C317.288 15.036 317.566 15.2613 318.12 15.712C318.675 16.128 319.316 16.6653 320.044 17.324C320.807 17.948 321.483 18.5547 322.072 19.144C321.934 19.6987 321.466 19.976 320.668 19.976H290.144L289.728 18.468H314.688L317.288 15.036ZM304.808 4.532C304.808 4.532 305.034 4.74 305.484 5.156C305.935 5.53733 306.472 6.02266 307.096 6.612C307.755 7.16667 308.327 7.704 308.812 8.224C308.708 8.77866 308.258 9.056 307.46 9.056H290.716L290.3 7.548H302.572L304.808 4.532ZM360.604 3.232C360.881 8.12 361.436 12.592 362.268 16.648C363.135 20.704 364.435 24.3787 366.168 27.672C367.936 30.9307 370.293 33.8253 373.24 36.356C376.187 38.852 379.896 41.0013 384.368 42.804L384.264 43.428C382.981 43.636 381.907 44.1213 381.04 44.884C380.208 45.6813 379.619 46.7733 379.272 48.16C375.32 46.0107 372.079 43.4453 369.548 40.464C367.052 37.4827 365.111 34.12 363.724 30.376C362.372 26.5973 361.401 22.4547 360.812 17.948C360.223 13.4067 359.841 8.536 359.668 3.336L360.604 3.232ZM360.604 3.232C360.535 5.832 360.431 8.484 360.292 11.188C360.153 13.892 359.859 16.596 359.408 19.3C358.957 22.004 358.229 24.6733 357.224 27.308C356.253 29.908 354.901 32.456 353.168 34.952C351.435 37.4133 349.181 39.7707 346.408 42.024C343.669 44.2773 340.324 46.392 336.372 48.368L335.748 47.536C339.7 44.8667 342.907 42.076 345.368 39.164C347.829 36.2173 349.736 33.184 351.088 30.064C352.475 26.944 353.445 23.772 354 20.548C354.589 17.324 354.936 14.0827 355.04 10.824C355.144 7.53067 355.196 4.272 355.196 1.048L362.476 1.776C362.441 2.12266 362.285 2.43466 362.008 2.712C361.731 2.95466 361.263 3.128 360.604 3.232ZM439.696 23.304V24.812H423.628V23.304H439.696ZM421.288 22.784V21.224L426.748 23.304H425.968V32.664C425.968 34.0507 425.864 35.472 425.656 36.928C425.483 38.384 425.101 39.8227 424.512 41.244C423.923 42.6307 423.004 43.948 421.756 45.196C420.543 46.4787 418.879 47.6227 416.764 48.628L416.244 48.056C417.804 46.6347 418.931 45.092 419.624 43.428C420.317 41.764 420.768 40.0307 420.976 38.228C421.184 36.3907 421.288 34.5533 421.288 32.716V23.304V22.784ZM439.8 35.108V36.616H423.576V35.108H439.8ZM437.304 23.304L439.436 20.756L444.532 24.552C444.359 24.76 444.081 24.968 443.7 25.176C443.319 25.3493 442.868 25.488 442.348 25.592V42.388C442.348 43.428 442.209 44.3467 441.932 45.144C441.689 45.9413 441.135 46.5827 440.268 47.068C439.401 47.5533 438.049 47.8827 436.212 48.056C436.143 47.3627 436.039 46.7387 435.9 46.184C435.761 45.6293 435.519 45.1787 435.172 44.832C434.825 44.4853 434.34 44.1907 433.716 43.948C433.127 43.6707 432.295 43.4453 431.22 43.272V42.492C431.22 42.492 431.445 42.5093 431.896 42.544C432.381 42.5787 432.953 42.6307 433.612 42.7C434.271 42.7347 434.895 42.7693 435.484 42.804C436.108 42.8387 436.541 42.856 436.784 42.856C437.2 42.856 437.477 42.7693 437.616 42.596C437.755 42.4227 437.824 42.1627 437.824 41.816V23.304H437.304ZM439.852 29.076V30.584H423.732V29.076H439.852ZM435.432 0.631997C435.397 0.978664 435.259 1.27333 435.016 1.516C434.773 1.724 434.357 1.88 433.768 1.984V19.04H429.036V0.0599985L435.432 0.631997ZM442.088 14.828C442.088 14.828 442.365 15.0533 442.92 15.504C443.475 15.92 444.133 16.4573 444.896 17.116C445.693 17.74 446.387 18.3293 446.976 18.884C446.837 19.4387 446.369 19.716 445.572 19.716H418.324L417.908 18.208H439.436L442.088 14.828ZM439.696 8.796C439.696 8.796 439.956 9.004 440.476 9.42C440.996 9.836 441.603 10.3387 442.296 10.928C442.989 11.4827 443.631 12.0373 444.22 12.592C444.081 13.1467 443.613 13.424 442.816 13.424H420.976L420.56 11.916H437.2L439.696 8.796ZM440.944 2.764C440.944 2.764 441.221 2.98933 441.776 3.44C442.331 3.89067 442.989 4.428 443.752 5.052C444.515 5.64133 445.191 6.23066 445.78 6.82C445.676 7.37466 445.225 7.652 444.428 7.652H419.572L419.156 6.144H438.344L440.944 2.764ZM407.976 24.656C407.837 24.9333 407.612 25.176 407.3 25.384C406.988 25.592 406.555 25.696 406 25.696C405.029 28.3307 403.885 30.9307 402.568 33.496C401.285 36.0613 399.899 38.2973 398.408 40.204L397.628 39.788C398.148 38.332 398.668 36.668 399.188 34.796C399.743 32.8893 400.263 30.896 400.748 28.816C401.233 26.736 401.649 24.708 401.996 22.732L407.976 24.656ZM419.676 4.792C419.572 5.104 419.364 5.364 419.052 5.572C418.74 5.78 418.307 5.86666 417.752 5.832C416.885 7.6 415.932 9.43733 414.892 11.344C413.852 13.2507 412.847 14.9147 411.876 16.336L410.992 15.972C411.304 14.8627 411.616 13.58 411.928 12.124C412.275 10.668 412.604 9.16 412.916 7.6C413.263 6.00533 413.592 4.48 413.904 3.024L419.676 4.792ZM411.356 23.512C413.471 25.0027 415.031 26.476 416.036 27.932C417.076 29.388 417.7 30.74 417.908 31.988C418.151 33.236 418.099 34.2587 417.752 35.056C417.44 35.8533 416.937 36.3213 416.244 36.46C415.551 36.5987 414.84 36.304 414.112 35.576C414.077 34.328 413.869 33.0107 413.488 31.624C413.141 30.2027 412.708 28.816 412.188 27.464C411.703 26.112 411.2 24.8813 410.68 23.772L411.356 23.512ZM412.24 0.735999C412.171 1.08267 411.997 1.39467 411.72 1.672C411.477 1.91467 411.027 2.07066 410.368 2.14V46.964C410.368 47.1027 410.195 47.276 409.848 47.484C409.501 47.7267 409.051 47.9347 408.496 48.108C407.976 48.2813 407.439 48.368 406.884 48.368H406V0.0599985L412.24 0.735999ZM399.344 3.908C401.216 5.43333 402.603 6.94133 403.504 8.432C404.405 9.888 404.943 11.2227 405.116 12.436C405.324 13.6147 405.255 14.5853 404.908 15.348C404.596 16.1107 404.128 16.5613 403.504 16.7C402.88 16.8387 402.239 16.5613 401.58 15.868C401.58 14.62 401.424 13.3027 401.112 11.916C400.8 10.4947 400.419 9.12533 399.968 7.808C399.517 6.456 399.067 5.24267 398.616 4.168L399.344 3.908ZM413.852 16.024C413.852 16.024 414.095 16.232 414.58 16.648C415.065 17.064 415.637 17.5667 416.296 18.156C416.955 18.7107 417.561 19.2653 418.116 19.82C417.977 20.3747 417.527 20.652 416.764 20.652H398.512L398.096 19.144H411.46L413.852 16.024ZM501.628 10.668L503.968 8.12L508.96 11.968C508.787 12.176 508.51 12.384 508.128 12.592C507.747 12.7653 507.296 12.904 506.776 13.008V33.808C506.776 33.9467 506.551 34.1373 506.1 34.38C505.684 34.6227 505.182 34.848 504.592 35.056C504.003 35.2293 503.431 35.316 502.876 35.316H502.148V10.668H501.628ZM485.664 34.224C485.664 34.3973 485.474 34.6053 485.092 34.848C484.711 35.0907 484.226 35.316 483.636 35.524C483.047 35.6973 482.423 35.784 481.764 35.784H481.036V10.668V8.588L485.976 10.668H505.06V12.176H485.664V34.224ZM498.144 0.735999C498.075 1.08267 497.902 1.37733 497.624 1.62C497.382 1.86266 496.914 2.036 496.22 2.14V46.704C496.22 46.8773 496.03 47.1027 495.648 47.38C495.302 47.692 494.834 47.952 494.244 48.16C493.655 48.368 493.066 48.472 492.476 48.472H491.592V0.00799918L498.144 0.735999ZM504.592 30.324V31.78H484.052V30.324H504.592ZM504.436 20.184V21.692H483.896V20.184H504.436ZM466.528 0.111998C468.539 0.597331 470.116 1.204 471.26 1.932C472.404 2.66 473.202 3.42266 473.652 4.22C474.138 4.98266 474.328 5.71066 474.224 6.404C474.155 7.09733 473.895 7.66933 473.444 8.12C472.994 8.536 472.422 8.76133 471.728 8.796C471.07 8.796 470.376 8.50133 469.648 7.912C469.544 7.04533 469.302 6.16133 468.92 5.26C468.539 4.324 468.088 3.44 467.568 2.608C467.048 1.776 466.528 1.048 466.008 0.423997L466.528 0.111998ZM473.288 46.6C473.288 46.7387 473.115 46.9293 472.768 47.172C472.456 47.4147 472.006 47.64 471.416 47.848C470.862 48.056 470.186 48.16 469.388 48.16H468.556V24.968L473.288 20.964V46.6ZM472.768 22.784C474.606 23.3387 476.062 23.98 477.136 24.708C478.246 25.4013 479.043 26.1293 479.528 26.892C480.014 27.62 480.239 28.3133 480.204 28.972C480.204 29.596 480.031 30.116 479.684 30.532C479.372 30.9133 478.922 31.1387 478.332 31.208C477.778 31.2427 477.206 31.0347 476.616 30.584C476.408 29.7173 476.062 28.8507 475.576 27.984C475.091 27.0827 474.554 26.216 473.964 25.384C473.375 24.5173 472.803 23.772 472.248 23.148L472.768 22.784ZM473.236 11.188L476.096 8.484L480.828 13.06C480.586 13.268 480.291 13.4067 479.944 13.476C479.598 13.5453 479.112 13.6147 478.488 13.684C477.414 16.0413 475.958 18.468 474.12 20.964C472.318 23.46 470.255 25.8173 467.932 28.036C465.644 30.22 463.235 32.1093 460.704 33.704L460.132 33.184C461.658 31.728 463.131 30.0987 464.552 28.296C466.008 26.4933 467.343 24.604 468.556 22.628C469.77 20.652 470.827 18.6933 471.728 16.752C472.664 14.776 473.392 12.9213 473.912 11.188H473.236ZM476.512 11.188V12.696H461.12L460.652 11.188H476.512Z" fill="#6E4D3B"/>
</svg>
