<svg width="241" height="25" viewBox="0 0 241 25" fill="none" xmlns="http://www.w3.org/2000/svg">
<path d="M18.9634 1.175C18.9467 1.30833 18.8884 1.425 18.7884 1.525C18.6884 1.625 18.505 1.69167 18.2384 1.725V4.775C18.2384 4.825 18.13 4.9 17.9134 5C17.7134 5.08333 17.4634 5.15833 17.1634 5.225C16.8634 5.29167 16.5634 5.325 16.2634 5.325H15.8134V0.874999L18.9634 1.175ZM7.88838 1.175C7.87171 1.30833 7.80505 1.425 7.68838 1.525C7.58838 1.625 7.40505 1.69167 7.13838 1.725V4.6C7.13838 4.65 7.03838 4.725 6.83838 4.825C6.63838 4.90833 6.38838 4.98333 6.08838 5.05C5.78838 5.11667 5.48838 5.15 5.18838 5.15H4.73838V0.874999L7.88838 1.175ZM12.3134 20.125C12.2467 20.2583 12.0967 20.3667 11.8634 20.45C11.63 20.5333 11.2967 20.5 10.8634 20.35L11.6884 20.225C11.155 20.475 10.4634 20.725 9.61338 20.975C8.76338 21.2083 7.87171 21.4333 6.93838 21.65C6.00505 21.8667 5.12171 22.0417 4.28838 22.175V21.925H5.23838C5.18838 22.5083 5.06338 22.975 4.86338 23.325C4.68005 23.6917 4.46338 23.925 4.21338 24.025L3.21338 21.6C3.21338 21.6 3.30505 21.5917 3.48838 21.575C3.67171 21.5417 3.81338 21.5167 3.91338 21.5C4.61338 21.3833 5.33838 21.175 6.08838 20.875C6.83838 20.575 7.53005 20.25 8.16338 19.9C8.81338 19.55 9.31338 19.2583 9.66338 19.025L12.3134 20.125ZM3.78838 21.75C4.45505 21.75 5.31338 21.75 6.36338 21.75C7.43005 21.7333 8.63838 21.7083 9.98838 21.675C11.355 21.6417 12.805 21.6083 14.3384 21.575C15.8884 21.5417 17.4717 21.5 19.0884 21.45V21.9C17.4384 22.1333 15.3467 22.4 12.8134 22.7C10.28 23.0167 7.45505 23.325 4.33838 23.625L3.78838 21.75ZM15.0884 19.8C16.4384 19.95 17.53 20.1833 18.3634 20.5C19.2134 20.8 19.8634 21.1333 20.3134 21.5C20.7634 21.8667 21.0467 22.225 21.1634 22.575C21.2967 22.925 21.2967 23.225 21.1634 23.475C21.0467 23.7417 20.8467 23.9167 20.5634 24C20.2967 24.1 19.9884 24.075 19.6384 23.925C19.405 23.625 19.055 23.2583 18.5884 22.825C18.1384 22.3917 17.5967 21.9417 16.9634 21.475C16.3467 21.0083 15.6717 20.5667 14.9384 20.15L15.0884 19.8ZM20.4884 17.275C20.4884 17.275 20.6217 17.375 20.8884 17.575C21.1717 17.775 21.505 18.0167 21.8884 18.3C22.2717 18.5833 22.6217 18.8583 22.9384 19.125C22.8717 19.3917 22.6467 19.525 22.2634 19.525H1.28838L1.08838 18.8H19.1634L20.4884 17.275ZM16.6634 15.025C16.6634 15.025 16.7967 15.125 17.0634 15.325C17.33 15.525 17.655 15.7667 18.0384 16.05C18.4217 16.3167 18.7634 16.5833 19.0634 16.85C18.9967 17.1167 18.7717 17.25 18.3884 17.25H6.16338L5.96338 16.525H15.3884L16.6634 15.025ZM21.3134 1.25C21.3134 1.25 21.4384 1.35833 21.6884 1.575C21.9384 1.775 22.23 2.025 22.5634 2.325C22.9134 2.625 23.2134 2.90833 23.4634 3.175C23.4134 3.44167 23.205 3.575 22.8384 3.575H12.6134L12.4134 2.85H20.1634L21.3134 1.25ZM9.86338 1.475C9.86338 1.475 9.98005 1.56667 10.2134 1.75C10.4467 1.93333 10.7134 2.15833 11.0134 2.425C11.33 2.675 11.6134 2.925 11.8634 3.175C11.7967 3.44167 11.5884 3.575 11.2384 3.575H0.638379L0.438379 2.85H8.81338L9.86338 1.475ZM6.31338 8.8C6.14671 9.41667 5.88005 9.975 5.51338 10.475C5.14671 10.9583 4.63005 11.375 3.96338 11.725C3.31338 12.075 2.46338 12.3667 1.41338 12.6L1.08838 12.225C2.15505 11.8917 2.90505 11.4167 3.33838 10.8C3.77171 10.1833 4.05505 9.51667 4.18838 8.8H6.31338ZM9.31338 8.825C9.31338 8.94167 9.31338 9.05833 9.31338 9.175C9.31338 9.29167 9.31338 9.39167 9.31338 9.475V10.125C9.31338 10.2417 9.33005 10.325 9.36338 10.375C9.39671 10.4083 9.47171 10.425 9.58838 10.425H10.1134C10.2134 10.425 10.2967 10.425 10.3634 10.425C10.4467 10.425 10.5134 10.425 10.5634 10.425C10.6134 10.425 10.6717 10.425 10.7384 10.425C10.805 10.425 10.8634 10.4167 10.9134 10.4C10.9634 10.4 11.03 10.3917 11.1134 10.375C11.1967 10.3583 11.2634 10.3417 11.3134 10.325H11.5384L11.6384 10.35C11.8717 10.4333 12.0384 10.5167 12.1384 10.6C12.2384 10.6667 12.2884 10.7833 12.2884 10.95C12.2884 11.2667 12.1217 11.4917 11.7884 11.625C11.455 11.7417 10.8217 11.8 9.88838 11.8H9.01338C8.38005 11.8 7.98005 11.7 7.81338 11.5C7.64671 11.2833 7.56338 10.9167 7.56338 10.4V8.825H9.31338ZM18.1884 7.475L19.2634 6.375L21.2884 8.025C21.205 8.09167 21.08 8.15833 20.9134 8.225C20.7634 8.29167 20.5884 8.34167 20.3884 8.375C20.355 9.125 20.355 9.89167 20.3884 10.675C20.4384 11.4583 20.5384 12.1583 20.6884 12.775C20.855 13.3917 21.0717 13.8333 21.3384 14.1C21.4217 14.1667 21.48 14.1917 21.5134 14.175C21.5634 14.1583 21.6217 14.0917 21.6884 13.975C21.7884 13.7417 21.8967 13.4667 22.0134 13.15C22.13 12.8167 22.2384 12.4833 22.3384 12.15L22.6384 12.2L22.4134 14.65C22.63 14.9333 22.78 15.1917 22.8634 15.425C22.9467 15.6417 22.9217 15.85 22.7884 16.05C22.655 16.3 22.4467 16.45 22.1634 16.5C21.88 16.5333 21.58 16.5 21.2634 16.4C20.9634 16.2833 20.6967 16.1333 20.4634 15.95C19.88 15.45 19.4384 14.7667 19.1384 13.9C18.855 13.0333 18.6634 12.05 18.5634 10.95C18.48 9.83333 18.4384 8.675 18.4384 7.475H18.1884ZM1.41338 15.1C2.09671 15.1 2.98005 15.0667 4.06338 15C5.16338 14.9167 6.37171 14.8167 7.68838 14.7C9.02171 14.5833 10.3634 14.45 11.7134 14.3L11.7384 14.7C10.7217 15.0167 9.51338 15.3583 8.11338 15.725C6.71338 16.0917 5.06338 16.475 3.16338 16.875C3.03005 17.175 2.83005 17.35 2.56338 17.4L1.41338 15.1ZM19.6384 7.475V8.2H12.6884L12.4634 7.475H19.6384ZM17.4884 5.375C17.4717 5.525 17.3967 5.65833 17.2634 5.775C17.1467 5.89167 16.955 5.96667 16.6884 6C16.655 7.16667 16.5967 8.25833 16.5134 9.275C16.43 10.275 16.2134 11.2083 15.8634 12.075C15.53 12.925 14.9884 13.7083 14.2384 14.425C13.505 15.125 12.4634 15.7417 11.1134 16.275L10.8384 15.875C11.8217 15.275 12.58 14.6083 13.1134 13.875C13.6467 13.1417 14.0134 12.3333 14.2134 11.45C14.43 10.55 14.555 9.575 14.5884 8.525C14.6384 7.475 14.6634 6.33333 14.6634 5.1L17.4884 5.375ZM8.11338 11.25C8.09671 11.3833 8.03838 11.5 7.93838 11.6C7.83838 11.7 7.67171 11.7667 7.43838 11.8V15.5H5.48838V10.975L8.11338 11.25ZM8.31338 5.1C8.29671 5.23333 8.23005 5.35 8.11338 5.45C8.01338 5.53333 7.85505 5.59167 7.63838 5.625V9.05H5.61338V4.825L8.31338 5.1ZM10.6134 7.375C10.6134 7.375 10.7217 7.45833 10.9384 7.625C11.155 7.775 11.4217 7.96667 11.7384 8.2C12.055 8.43333 12.3384 8.65833 12.5884 8.875C12.5217 9.14167 12.305 9.275 11.9384 9.275H1.63838L1.43838 8.55H9.56338L10.6134 7.375ZM9.78838 11.7C9.78838 11.7 9.88838 11.775 10.0884 11.925C10.305 12.0583 10.555 12.2333 10.8384 12.45C11.1384 12.65 11.405 12.8583 11.6384 13.075C11.5884 13.3417 11.38 13.475 11.0134 13.475H2.63838L2.43838 12.75H8.81338L9.78838 11.7ZM9.56338 5.225C9.56338 5.225 9.67171 5.30833 9.88838 5.475C10.105 5.625 10.355 5.825 10.6384 6.075C10.9384 6.30833 11.2134 6.53333 11.4634 6.75C11.3967 7.01667 11.18 7.15 10.8134 7.15H2.48838L2.28838 6.425H8.53838L9.56338 5.225ZM12.7634 9.8C13.8967 9.98333 14.8217 10.2333 15.5384 10.55C16.255 10.8667 16.7967 11.2083 17.1634 11.575C17.5467 11.925 17.7884 12.275 17.8884 12.625C17.9884 12.9583 17.9884 13.25 17.8884 13.5C17.7884 13.7333 17.6134 13.8917 17.3634 13.975C17.13 14.0583 16.8634 14.0167 16.5634 13.85C16.33 13.3667 15.8717 12.775 15.1884 12.075C14.505 11.375 13.6384 10.7417 12.5884 10.175L12.7634 9.8ZM43.1134 2.875C43.08 4.85833 43.0217 6.825 42.9384 8.775C42.855 10.7083 42.6467 12.5833 42.3134 14.4C41.98 16.2167 41.43 17.95 40.6634 19.6C39.9134 21.2333 38.8467 22.75 37.4634 24.15L37.0884 23.775C38.0717 22.2583 38.8217 20.6667 39.3384 19C39.855 17.3167 40.2134 15.5833 40.4134 13.8C40.63 12.0167 40.755 10.2083 40.7884 8.375C40.8217 6.54167 40.8384 4.70833 40.8384 2.875H43.1134ZM43.6884 9.9C43.9884 11.45 44.43 12.8583 45.0134 14.125C45.6134 15.375 46.3217 16.5 47.1384 17.5C47.9717 18.5 48.8967 19.375 49.9134 20.125C50.9467 20.8583 52.055 21.4833 53.2384 22L53.1884 22.275C52.6884 22.3083 52.2467 22.4833 51.8634 22.8C51.48 23.1167 51.18 23.55 50.9634 24.1C49.8967 23.4 48.9384 22.6083 48.0884 21.725C47.255 20.825 46.5217 19.8083 45.8884 18.675C45.255 17.5417 44.7217 16.2667 44.2884 14.85C43.855 13.4333 43.5134 11.85 43.2634 10.1L43.6884 9.9ZM47.2884 2.725L48.2884 1.6L50.5384 3.4C50.3717 3.58333 50.08 3.69167 49.6634 3.725L48.7634 10.125H46.5134L47.5134 2.725H47.2884ZM49.1634 9.725L50.4884 8.45L52.7134 10.45C52.63 10.5833 52.5134 10.675 52.3634 10.725C52.2134 10.7583 51.9967 10.7917 51.7134 10.825C51.33 12.2917 50.83 13.6917 50.2134 15.025C49.5967 16.3417 48.8217 17.575 47.8884 18.725C46.955 19.8583 45.8134 20.8833 44.4634 21.8C43.13 22.7167 41.5467 23.4833 39.7134 24.1L39.4884 23.75C41.4884 22.7667 43.155 21.5667 44.4884 20.15C45.8384 18.7333 46.9134 17.1417 47.7134 15.375C48.5134 13.6083 49.0967 11.725 49.4634 9.725H49.1634ZM50.4884 9.725V10.45H41.6634L41.8134 9.725H50.4884ZM48.4634 2.725V3.45H38.7384L38.5134 2.725H48.4634ZM39.6634 7.325C39.58 7.475 39.405 7.575 39.1384 7.625C38.8884 7.675 38.58 7.6 38.2134 7.4L38.9384 7.275C38.555 7.79167 38.0634 8.38333 37.4634 9.05C36.88 9.71667 36.23 10.3917 35.5134 11.075C34.7967 11.7583 34.055 12.4167 33.2884 13.05C32.5384 13.6833 31.8134 14.2333 31.1134 14.7L31.0634 14.4H32.1634C32.0967 15.0833 31.9467 15.6167 31.7134 16C31.48 16.3667 31.2217 16.6083 30.9384 16.725L29.9884 14.05C29.9884 14.05 30.0884 14.025 30.2884 13.975C30.505 13.925 30.68 13.8583 30.8134 13.775C31.3467 13.3583 31.9134 12.8083 32.5134 12.125C33.13 11.4417 33.73 10.7083 34.3134 9.925C34.8967 9.125 35.4217 8.34167 35.8884 7.575C36.3717 6.79167 36.7467 6.10833 37.0134 5.525L39.6634 7.325ZM37.0884 2.375C37.0217 2.525 36.8634 2.64167 36.6134 2.725C36.38 2.80833 36.055 2.76667 35.6384 2.6L36.3884 2.45C36.0217 3.06667 35.5467 3.75833 34.9634 4.525C34.3967 5.29167 33.7884 6.04167 33.1384 6.775C32.4884 7.50833 31.8467 8.125 31.2134 8.625L31.1884 8.35H32.3884C32.3217 9 32.18 9.51667 31.9634 9.9C31.7634 10.2833 31.53 10.5333 31.2634 10.65L30.1884 8C30.1884 8 30.2717 7.975 30.4384 7.925C30.6217 7.875 30.7634 7.81667 30.8634 7.75C31.1634 7.4 31.48 6.95 31.8134 6.4C32.1467 5.83333 32.4634 5.21667 32.7634 4.55C33.08 3.88333 33.355 3.23333 33.5884 2.6C33.8384 1.96667 34.0217 1.40833 34.1384 0.924999L37.0884 2.375ZM32.1384 17.1C32.5717 18.4833 32.705 19.6667 32.5384 20.65C32.3717 21.6333 32.08 22.3583 31.6634 22.825C31.4967 23.0417 31.28 23.1917 31.0134 23.275C30.7467 23.3583 30.48 23.3667 30.2134 23.3C29.9634 23.25 29.7634 23.1167 29.6134 22.9C29.4467 22.5833 29.4217 22.275 29.5384 21.975C29.6717 21.6583 29.8884 21.3917 30.1884 21.175C30.4384 20.9417 30.6884 20.6083 30.9384 20.175C31.1884 19.7417 31.3884 19.2583 31.5384 18.725C31.6884 18.175 31.755 17.6333 31.7384 17.1H32.1384ZM36.2884 16.35C37.155 16.7167 37.7967 17.125 38.2134 17.575C38.63 18.025 38.8634 18.4583 38.9134 18.875C38.98 19.2917 38.93 19.6417 38.7634 19.925C38.5967 20.2083 38.3634 20.375 38.0634 20.425C37.7634 20.475 37.455 20.35 37.1384 20.05C37.1384 19.4667 37.0134 18.8417 36.7634 18.175C36.53 17.5083 36.2717 16.95 35.9884 16.5L36.2884 16.35ZM33.9384 16.775C34.6884 17.4417 35.2134 18.1 35.5134 18.75C35.83 19.4 35.98 19.9917 35.9634 20.525C35.9467 21.0583 35.8217 21.4833 35.5884 21.8C35.3717 22.1167 35.0967 22.2833 34.7634 22.3C34.4467 22.3333 34.1467 22.1667 33.8634 21.8C33.9967 21 34.0217 20.15 33.9384 19.25C33.8717 18.3333 33.755 17.5417 33.5884 16.875L33.9384 16.775ZM36.3384 11.075C37.305 11.625 38.0217 12.1833 38.4884 12.75C38.955 13.3167 39.2384 13.85 39.3384 14.35C39.4384 14.85 39.405 15.2667 39.2384 15.6C39.0884 15.9167 38.855 16.1083 38.5384 16.175C38.2217 16.2417 37.8967 16.1167 37.5634 15.8C37.5467 15.3 37.455 14.775 37.2884 14.225C37.1217 13.675 36.9217 13.1417 36.6884 12.625C36.4717 12.0917 36.2467 11.625 36.0134 11.225L36.3384 11.075ZM30.4884 14.05C30.955 14.0333 31.5884 14 32.3884 13.95C33.1884 13.9 34.0967 13.8417 35.1134 13.775C36.13 13.6917 37.1634 13.6167 38.2134 13.55L38.2384 13.9C37.5217 14.15 36.5384 14.5 35.2884 14.95C34.0384 15.3833 32.68 15.8083 31.2134 16.225L30.4884 14.05ZM30.4634 8.075C30.8467 8.09167 31.3634 8.10833 32.0134 8.125C32.68 8.125 33.4134 8.125 34.2134 8.125C35.0134 8.10833 35.8217 8.09167 36.6384 8.075V8.425C36.1384 8.625 35.3967 8.9 34.4134 9.25C33.4467 9.58333 32.4134 9.91667 31.3134 10.25L30.4634 8.075ZM79.2134 12.05V12.775H71.4884V12.05H79.2134ZM70.3634 11.8V11.05L72.9884 12.05H72.6134V16.55C72.6134 17.2167 72.5634 17.9 72.4634 18.6C72.38 19.3 72.1967 19.9917 71.9134 20.675C71.63 21.3417 71.1884 21.975 70.5884 22.575C70.005 23.1917 69.205 23.7417 68.1884 24.225L67.9384 23.95C68.6884 23.2667 69.23 22.525 69.5634 21.725C69.8967 20.925 70.1134 20.0917 70.2134 19.225C70.3134 18.3417 70.3634 17.4583 70.3634 16.575V12.05V11.8ZM79.2634 17.725V18.45H71.4634V17.725H79.2634ZM78.0634 12.05L79.0884 10.825L81.5384 12.65C81.455 12.75 81.3217 12.85 81.1384 12.95C80.955 13.0333 80.7384 13.1 80.4884 13.15V21.225C80.4884 21.725 80.4217 22.1667 80.2884 22.55C80.1717 22.9333 79.905 23.2417 79.4884 23.475C79.0717 23.7083 78.4217 23.8667 77.5384 23.95C77.505 23.6167 77.455 23.3167 77.3884 23.05C77.3217 22.7833 77.205 22.5667 77.0384 22.4C76.8717 22.2333 76.6384 22.0917 76.3384 21.975C76.055 21.8417 75.655 21.7333 75.1384 21.65V21.275C75.1384 21.275 75.2467 21.2833 75.4634 21.3C75.6967 21.3167 75.9717 21.3417 76.2884 21.375C76.605 21.3917 76.905 21.4083 77.1884 21.425C77.4884 21.4417 77.6967 21.45 77.8134 21.45C78.0134 21.45 78.1467 21.4083 78.2134 21.325C78.28 21.2417 78.3134 21.1167 78.3134 20.95V12.05H78.0634ZM79.2884 14.825V15.55H71.5384V14.825H79.2884ZM77.1634 1.15C77.1467 1.31667 77.08 1.45833 76.9634 1.575C76.8467 1.675 76.6467 1.75 76.3634 1.8V10H74.0884V0.874999L77.1634 1.15ZM80.3634 7.975C80.3634 7.975 80.4967 8.08333 80.7634 8.3C81.03 8.5 81.3467 8.75833 81.7134 9.075C82.0967 9.375 82.43 9.65833 82.7134 9.925C82.6467 10.1917 82.4217 10.325 82.0384 10.325H68.9384L68.7384 9.6H79.0884L80.3634 7.975ZM79.2134 5.075C79.2134 5.075 79.3384 5.175 79.5884 5.375C79.8384 5.575 80.13 5.81667 80.4634 6.1C80.7967 6.36667 81.105 6.63333 81.3884 6.9C81.3217 7.16667 81.0967 7.3 80.7134 7.3H70.2134L70.0134 6.575H78.0134L79.2134 5.075ZM79.8134 2.175C79.8134 2.175 79.9467 2.28333 80.2134 2.5C80.48 2.71667 80.7967 2.975 81.1634 3.275C81.53 3.55833 81.855 3.84167 82.1384 4.125C82.0884 4.39167 81.8717 4.525 81.4884 4.525H69.5384L69.3384 3.8H78.5634L79.8134 2.175ZM63.9634 12.7C63.8967 12.8333 63.7884 12.95 63.6384 13.05C63.4884 13.15 63.28 13.2 63.0134 13.2C62.5467 14.4667 61.9967 15.7167 61.3634 16.95C60.7467 18.1833 60.08 19.2583 59.3634 20.175L58.9884 19.975C59.2384 19.275 59.4884 18.475 59.7384 17.575C60.005 16.6583 60.255 15.7 60.4884 14.7C60.7217 13.7 60.9217 12.725 61.0884 11.775L63.9634 12.7ZM69.5884 3.15C69.5384 3.3 69.4384 3.425 69.2884 3.525C69.1384 3.625 68.93 3.66667 68.6634 3.65C68.2467 4.5 67.7884 5.38333 67.2884 6.3C66.7884 7.21667 66.305 8.01667 65.8384 8.7L65.4134 8.525C65.5634 7.99167 65.7134 7.375 65.8634 6.675C66.03 5.975 66.1884 5.25 66.3384 4.5C66.505 3.73333 66.6634 3 66.8134 2.3L69.5884 3.15ZM65.5884 12.15C66.605 12.8667 67.355 13.575 67.8384 14.275C68.3384 14.975 68.6384 15.625 68.7384 16.225C68.855 16.825 68.83 17.3167 68.6634 17.7C68.5134 18.0833 68.2717 18.3083 67.9384 18.375C67.605 18.4417 67.2634 18.3 66.9134 17.95C66.8967 17.35 66.7967 16.7167 66.6134 16.05C66.4467 15.3667 66.2384 14.7 65.9884 14.05C65.755 13.4 65.5134 12.8083 65.2634 12.275L65.5884 12.15ZM66.0134 1.2C65.98 1.36667 65.8967 1.51667 65.7634 1.65C65.6467 1.76667 65.43 1.84167 65.1134 1.875V23.425C65.1134 23.4917 65.03 23.575 64.8634 23.675C64.6967 23.7917 64.48 23.8917 64.2134 23.975C63.9634 24.0583 63.705 24.1 63.4384 24.1H63.0134V0.874999L66.0134 1.2ZM59.8134 2.725C60.7134 3.45833 61.38 4.18333 61.8134 4.9C62.2467 5.6 62.505 6.24167 62.5884 6.825C62.6884 7.39167 62.655 7.85833 62.4884 8.225C62.3384 8.59167 62.1134 8.80833 61.8134 8.875C61.5134 8.94167 61.205 8.80833 60.8884 8.475C60.8884 7.875 60.8134 7.24167 60.6634 6.575C60.5134 5.89167 60.33 5.23333 60.1134 4.6C59.8967 3.95 59.68 3.36667 59.4634 2.85L59.8134 2.725ZM66.7884 8.55C66.7884 8.55 66.905 8.65 67.1384 8.85C67.3717 9.05 67.6467 9.29167 67.9634 9.575C68.28 9.84167 68.5717 10.1083 68.8384 10.375C68.7717 10.6417 68.555 10.775 68.1884 10.775H59.4134L59.2134 10.05H65.6384L66.7884 8.55ZM90.4134 4.725H105.938L107.538 2.7C107.538 2.7 107.63 2.78333 107.813 2.95C108.013 3.1 108.263 3.29167 108.563 3.525C108.863 3.75833 109.18 4.00833 109.513 4.275C109.847 4.54167 110.155 4.8 110.438 5.05C110.372 5.31667 110.13 5.45 109.713 5.45H90.6384L90.4134 4.725ZM88.7384 21.35H107.513L109.113 19.3C109.113 19.3 109.205 19.375 109.388 19.525C109.588 19.675 109.838 19.875 110.138 20.125C110.455 20.3583 110.78 20.6167 111.113 20.9C111.447 21.1667 111.747 21.4167 112.013 21.65C111.947 21.9167 111.713 22.05 111.313 22.05H88.9634L88.7384 21.35ZM98.9884 4.725H101.588V21.675H98.9884V4.725ZM139.587 1.025C140.37 1.20833 140.978 1.44167 141.412 1.725C141.862 2.00833 142.162 2.30833 142.312 2.625C142.462 2.94167 142.503 3.24167 142.437 3.525C142.37 3.80833 142.22 4.03333 141.987 4.2C141.77 4.36667 141.512 4.45 141.212 4.45C140.928 4.43333 140.637 4.29167 140.337 4.025C140.353 3.54167 140.253 3.03333 140.037 2.5C139.837 1.96667 139.603 1.525 139.337 1.175L139.587 1.025ZM136.587 23.5C136.587 23.5833 136.437 23.7083 136.137 23.875C135.853 24.0417 135.453 24.125 134.937 24.125H134.612V2.9H136.587V23.5ZM128.787 18.675C129.203 18.6083 129.787 18.5 130.537 18.35C131.287 18.2 132.128 18.025 133.062 17.825C134.012 17.625 134.987 17.4083 135.987 17.175L136.062 17.5C135.445 17.8667 134.662 18.3333 133.712 18.9C132.778 19.45 131.678 20.0583 130.412 20.725C130.362 20.8917 130.278 21.0333 130.162 21.15C130.062 21.25 129.945 21.3167 129.812 21.35L128.787 18.675ZM135.537 12.725V13.45H131.512V12.725H135.537ZM135.537 7.7V8.425H131.512V7.7H135.537ZM132.337 18.9C132.337 18.9333 132.195 18.9833 131.912 19.05C131.628 19.1167 131.237 19.15 130.737 19.15H130.437V2.9H132.337V18.9ZM136.512 1.2C136.512 1.2 136.645 1.30833 136.912 1.525C137.178 1.725 137.495 1.975 137.862 2.275C138.228 2.55833 138.562 2.84167 138.862 3.125C138.812 3.39167 138.595 3.525 138.212 3.525H129.112L128.912 2.8H135.212L136.512 1.2ZM152.437 11.95C152.387 12.0833 152.287 12.1917 152.137 12.275C152.003 12.3417 151.77 12.375 151.437 12.375C151.137 13.5083 150.737 14.6333 150.237 15.75C149.753 16.8667 149.137 17.95 148.387 19C147.653 20.0333 146.778 20.9833 145.762 21.85C144.745 22.7167 143.553 23.4583 142.187 24.075L141.962 23.75C143.512 22.8 144.803 21.65 145.837 20.3C146.87 18.9333 147.695 17.4667 148.312 15.9C148.945 14.3167 149.395 12.7417 149.662 11.175L152.437 11.95ZM148.662 1.35C148.645 1.51667 148.57 1.66667 148.437 1.8C148.32 1.91667 148.095 2 147.762 2.05C147.728 4.11667 147.712 6.11667 147.712 8.05C147.712 9.96667 147.778 11.75 147.912 13.4C148.062 15.0333 148.312 16.4833 148.662 17.75C149.028 19 149.553 20 150.237 20.75C150.37 20.9167 150.47 20.9917 150.537 20.975C150.62 20.9583 150.703 20.8333 150.787 20.6C150.953 20.2833 151.12 19.8583 151.287 19.325C151.47 18.7917 151.637 18.2667 151.787 17.75L152.087 17.8L151.687 21.65C151.987 22.1833 152.162 22.5917 152.212 22.875C152.278 23.1583 152.253 23.3833 152.137 23.55C151.887 23.8167 151.578 23.925 151.212 23.875C150.862 23.8417 150.503 23.7083 150.137 23.475C149.787 23.2417 149.478 22.9833 149.212 22.7C148.328 21.7667 147.645 20.575 147.162 19.125C146.695 17.675 146.362 16.0167 146.162 14.15C145.962 12.2833 145.837 10.25 145.787 8.05C145.753 5.83333 145.737 3.48333 145.737 0.999999L148.662 1.35ZM142.437 12.2L143.387 11.2L145.362 12.725C145.212 12.925 144.937 13.0583 144.537 13.125V20.45C144.537 20.5167 144.445 20.5917 144.262 20.675C144.078 20.7583 143.862 20.8417 143.612 20.925C143.378 20.9917 143.153 21.025 142.937 21.025H142.637V12.2H142.437ZM139.787 21.35C139.787 21.4 139.712 21.475 139.562 21.575C139.412 21.675 139.22 21.7667 138.987 21.85C138.753 21.9333 138.495 21.975 138.212 21.975H137.912V12.2V11.325L139.912 12.2H143.512V12.925H139.787V21.35ZM145.437 6.05C145.387 6.2 145.287 6.325 145.137 6.425C145.003 6.50833 144.803 6.55 144.537 6.55C144.253 7.11667 143.887 7.725 143.437 8.375C143.003 9.00833 142.528 9.6 142.012 10.15H141.562C141.812 9.46667 142.037 8.675 142.237 7.775C142.437 6.875 142.587 6.05833 142.687 5.325L145.437 6.05ZM148.637 3.05C149.57 3.48333 150.262 3.95 150.712 4.45C151.162 4.95 151.428 5.425 151.512 5.875C151.612 6.30833 151.578 6.675 151.412 6.975C151.262 7.275 151.037 7.45 150.737 7.5C150.437 7.55 150.12 7.425 149.787 7.125C149.737 6.69167 149.637 6.24167 149.487 5.775C149.337 5.29167 149.162 4.825 148.962 4.375C148.762 3.925 148.553 3.525 148.337 3.175L148.637 3.05ZM138.587 5.45C139.37 5.9 139.928 6.36667 140.262 6.85C140.595 7.31667 140.77 7.75 140.787 8.15C140.82 8.55 140.737 8.88333 140.537 9.15C140.353 9.4 140.112 9.53333 139.812 9.55C139.528 9.56667 139.245 9.41667 138.962 9.1C138.978 8.53333 138.912 7.925 138.762 7.275C138.628 6.60833 138.47 6.03333 138.287 5.55L138.587 5.45ZM143.512 19.425V20.15H138.962V19.425H143.512ZM143.512 15.65V16.375H138.962V15.65H143.512ZM150.187 8.075C150.187 8.075 150.32 8.18333 150.587 8.4C150.853 8.6 151.162 8.85833 151.512 9.175C151.878 9.475 152.203 9.76667 152.487 10.05C152.42 10.3167 152.195 10.45 151.812 10.45H137.137L136.937 9.725H148.937L150.187 8.075ZM144.187 3.025C144.187 3.025 144.295 3.125 144.512 3.325C144.728 3.50833 144.987 3.74167 145.287 4.025C145.603 4.29167 145.878 4.55 146.112 4.8C146.062 5.06667 145.845 5.2 145.462 5.2H137.412L137.212 4.475H143.112L144.187 3.025ZM170.512 2.4C170.645 4.75 170.912 6.9 171.312 8.85C171.728 10.8 172.353 12.5667 173.187 14.15C174.037 15.7167 175.17 17.1083 176.587 18.325C178.003 19.525 179.787 20.5583 181.937 21.425L181.887 21.725C181.27 21.825 180.753 22.0583 180.337 22.425C179.937 22.8083 179.653 23.3333 179.487 24C177.587 22.9667 176.028 21.7333 174.812 20.3C173.612 18.8667 172.678 17.25 172.012 15.45C171.362 13.6333 170.895 11.6417 170.612 9.475C170.328 7.29167 170.145 4.95 170.062 2.45L170.512 2.4ZM170.512 2.4C170.478 3.65 170.428 4.925 170.362 6.225C170.295 7.525 170.153 8.825 169.937 10.125C169.72 11.425 169.37 12.7083 168.887 13.975C168.42 15.225 167.77 16.45 166.937 17.65C166.103 18.8333 165.02 19.9667 163.687 21.05C162.37 22.1333 160.762 23.15 158.862 24.1L158.562 23.7C160.462 22.4167 162.003 21.075 163.187 19.675C164.37 18.2583 165.287 16.8 165.937 15.3C166.603 13.8 167.07 12.275 167.337 10.725C167.62 9.175 167.787 7.61667 167.837 6.05C167.887 4.46667 167.912 2.9 167.912 1.35L171.412 1.7C171.395 1.86667 171.32 2.01667 171.187 2.15C171.053 2.26667 170.828 2.35 170.512 2.4ZM208.037 12.05V12.775H200.312V12.05H208.037ZM199.187 11.8V11.05L201.812 12.05H201.437V16.55C201.437 17.2167 201.387 17.9 201.287 18.6C201.203 19.3 201.02 19.9917 200.737 20.675C200.453 21.3417 200.012 21.975 199.412 22.575C198.828 23.1917 198.028 23.7417 197.012 24.225L196.762 23.95C197.512 23.2667 198.053 22.525 198.387 21.725C198.72 20.925 198.937 20.0917 199.037 19.225C199.137 18.3417 199.187 17.4583 199.187 16.575V12.05V11.8ZM208.087 17.725V18.45H200.287V17.725H208.087ZM206.887 12.05L207.912 10.825L210.362 12.65C210.278 12.75 210.145 12.85 209.962 12.95C209.778 13.0333 209.562 13.1 209.312 13.15V21.225C209.312 21.725 209.245 22.1667 209.112 22.55C208.995 22.9333 208.728 23.2417 208.312 23.475C207.895 23.7083 207.245 23.8667 206.362 23.95C206.328 23.6167 206.278 23.3167 206.212 23.05C206.145 22.7833 206.028 22.5667 205.862 22.4C205.695 22.2333 205.462 22.0917 205.162 21.975C204.878 21.8417 204.478 21.7333 203.962 21.65V21.275C203.962 21.275 204.07 21.2833 204.287 21.3C204.52 21.3167 204.795 21.3417 205.112 21.375C205.428 21.3917 205.728 21.4083 206.012 21.425C206.312 21.4417 206.52 21.45 206.637 21.45C206.837 21.45 206.97 21.4083 207.037 21.325C207.103 21.2417 207.137 21.1167 207.137 20.95V12.05H206.887ZM208.112 14.825V15.55H200.362V14.825H208.112ZM205.987 1.15C205.97 1.31667 205.903 1.45833 205.787 1.575C205.67 1.675 205.47 1.75 205.187 1.8V10H202.912V0.874999L205.987 1.15ZM209.187 7.975C209.187 7.975 209.32 8.08333 209.587 8.3C209.853 8.5 210.17 8.75833 210.537 9.075C210.92 9.375 211.253 9.65833 211.537 9.925C211.47 10.1917 211.245 10.325 210.862 10.325H197.762L197.562 9.6H207.912L209.187 7.975ZM208.037 5.075C208.037 5.075 208.162 5.175 208.412 5.375C208.662 5.575 208.953 5.81667 209.287 6.1C209.62 6.36667 209.928 6.63333 210.212 6.9C210.145 7.16667 209.92 7.3 209.537 7.3H199.037L198.837 6.575H206.837L208.037 5.075ZM208.637 2.175C208.637 2.175 208.77 2.28333 209.037 2.5C209.303 2.71667 209.62 2.975 209.987 3.275C210.353 3.55833 210.678 3.84167 210.962 4.125C210.912 4.39167 210.695 4.525 210.312 4.525H198.362L198.162 3.8H207.387L208.637 2.175ZM192.787 12.7C192.72 12.8333 192.612 12.95 192.462 13.05C192.312 13.15 192.103 13.2 191.837 13.2C191.37 14.4667 190.82 15.7167 190.187 16.95C189.57 18.1833 188.903 19.2583 188.187 20.175L187.812 19.975C188.062 19.275 188.312 18.475 188.562 17.575C188.828 16.6583 189.078 15.7 189.312 14.7C189.545 13.7 189.745 12.725 189.912 11.775L192.787 12.7ZM198.412 3.15C198.362 3.3 198.262 3.425 198.112 3.525C197.962 3.625 197.753 3.66667 197.487 3.65C197.07 4.5 196.612 5.38333 196.112 6.3C195.612 7.21667 195.128 8.01667 194.662 8.7L194.237 8.525C194.387 7.99167 194.537 7.375 194.687 6.675C194.853 5.975 195.012 5.25 195.162 4.5C195.328 3.73333 195.487 3 195.637 2.3L198.412 3.15ZM194.412 12.15C195.428 12.8667 196.178 13.575 196.662 14.275C197.162 14.975 197.462 15.625 197.562 16.225C197.678 16.825 197.653 17.3167 197.487 17.7C197.337 18.0833 197.095 18.3083 196.762 18.375C196.428 18.4417 196.087 18.3 195.737 17.95C195.72 17.35 195.62 16.7167 195.437 16.05C195.27 15.3667 195.062 14.7 194.812 14.05C194.578 13.4 194.337 12.8083 194.087 12.275L194.412 12.15ZM194.837 1.2C194.803 1.36667 194.72 1.51667 194.587 1.65C194.47 1.76667 194.253 1.84167 193.937 1.875V23.425C193.937 23.4917 193.853 23.575 193.687 23.675C193.52 23.7917 193.303 23.8917 193.037 23.975C192.787 24.0583 192.528 24.1 192.262 24.1H191.837V0.874999L194.837 1.2ZM188.637 2.725C189.537 3.45833 190.203 4.18333 190.637 4.9C191.07 5.6 191.328 6.24167 191.412 6.825C191.512 7.39167 191.478 7.85833 191.312 8.225C191.162 8.59167 190.937 8.80833 190.637 8.875C190.337 8.94167 190.028 8.80833 189.712 8.475C189.712 7.875 189.637 7.24167 189.487 6.575C189.337 5.89167 189.153 5.23333 188.937 4.6C188.72 3.95 188.503 3.36667 188.287 2.85L188.637 2.725ZM195.612 8.55C195.612 8.55 195.728 8.65 195.962 8.85C196.195 9.05 196.47 9.29167 196.787 9.575C197.103 9.84167 197.395 10.1083 197.662 10.375C197.595 10.6417 197.378 10.775 197.012 10.775H188.237L188.037 10.05H194.462L195.612 8.55ZM237.312 5.975L238.437 4.75L240.837 6.6C240.753 6.7 240.62 6.8 240.437 6.9C240.253 6.98333 240.037 7.05 239.787 7.1V17.1C239.787 17.1667 239.678 17.2583 239.462 17.375C239.262 17.4917 239.02 17.6 238.737 17.7C238.453 17.7833 238.178 17.825 237.912 17.825H237.562V5.975H237.312ZM229.637 17.3C229.637 17.3833 229.545 17.4833 229.362 17.6C229.178 17.7167 228.945 17.825 228.662 17.925C228.378 18.0083 228.078 18.05 227.762 18.05H227.412V5.975V4.975L229.787 5.975H238.962V6.7H229.637V17.3ZM235.637 1.2C235.603 1.36667 235.52 1.50833 235.387 1.625C235.27 1.74167 235.045 1.825 234.712 1.875V23.3C234.712 23.3833 234.62 23.4917 234.437 23.625C234.27 23.775 234.045 23.9 233.762 24C233.478 24.1 233.195 24.15 232.912 24.15H232.487V0.85L235.637 1.2ZM238.737 15.425V16.125H228.862V15.425H238.737ZM238.662 10.55V11.275H228.787V10.55H238.662ZM220.437 0.899999C221.403 1.13333 222.162 1.425 222.712 1.775C223.262 2.125 223.645 2.49167 223.862 2.875C224.095 3.24167 224.187 3.59167 224.137 3.925C224.103 4.25833 223.978 4.53333 223.762 4.75C223.545 4.95 223.27 5.05833 222.937 5.075C222.62 5.075 222.287 4.93333 221.937 4.65C221.887 4.23333 221.77 3.80833 221.587 3.375C221.403 2.925 221.187 2.5 220.937 2.1C220.687 1.7 220.437 1.35 220.187 1.05L220.437 0.899999ZM223.687 23.25C223.687 23.3167 223.603 23.4083 223.437 23.525C223.287 23.6417 223.07 23.75 222.787 23.85C222.52 23.95 222.195 24 221.812 24H221.412V12.85L223.687 10.925V23.25ZM223.437 11.8C224.32 12.0667 225.02 12.375 225.537 12.725C226.07 13.0583 226.453 13.4083 226.687 13.775C226.92 14.125 227.028 14.4583 227.012 14.775C227.012 15.075 226.928 15.325 226.762 15.525C226.612 15.7083 226.395 15.8167 226.112 15.85C225.845 15.8667 225.57 15.7667 225.287 15.55C225.187 15.1333 225.02 14.7167 224.787 14.3C224.553 13.8667 224.295 13.45 224.012 13.05C223.728 12.6333 223.453 12.275 223.187 11.975L223.437 11.8ZM223.662 6.225L225.037 4.925L227.312 7.125C227.195 7.225 227.053 7.29167 226.887 7.325C226.72 7.35833 226.487 7.39167 226.187 7.425C225.67 8.55833 224.97 9.725 224.087 10.925C223.22 12.125 222.228 13.2583 221.112 14.325C220.012 15.375 218.853 16.2833 217.637 17.05L217.362 16.8C218.095 16.1 218.803 15.3167 219.487 14.45C220.187 13.5833 220.828 12.675 221.412 11.725C221.995 10.775 222.503 9.83333 222.937 8.9C223.387 7.95 223.737 7.05833 223.987 6.225H223.662ZM225.237 6.225V6.95H217.837L217.612 6.225H225.237Z" fill="#6E4D3B"/>
</svg>
