<svg width="348" height="16" viewBox="0 0 348 16" fill="none" xmlns="http://www.w3.org/2000/svg">
<g opacity="0.85">
<path d="M0 15.5709C0.16726 15.4926 0.330961 15.3432 0.498221 15.119C0.66548 14.8948 0.825623 14.6492 0.978648 14.3788C1.13167 14.1119 1.27046 13.845 1.39146 13.5816C1.51246 13.3183 1.60498 13.1119 1.66904 12.9588L7.121 0.197266L12.5125 13.0941C12.7544 13.6706 12.9858 14.1403 13.2028 14.5033C13.4199 14.8699 13.637 15.1474 13.8541 15.3396C13.9039 15.3788 13.9573 15.4179 14.0071 15.4642C14.0569 15.5104 14.1174 15.5425 14.1815 15.5709H10.879C11.0569 15.4428 11.1851 15.2934 11.2633 15.119C11.3416 14.9446 11.3772 14.7631 11.3772 14.5709C11.3772 14.3788 11.3381 14.1332 11.2633 13.8307C11.1851 13.5318 11.0569 13.1759 10.879 12.7667L9.82206 10.2898H3.01424L1.84342 12.9766C1.70107 13.3361 1.59786 13.6421 1.52669 13.8983C1.45552 14.1546 1.41993 14.3716 1.41993 14.5496C1.41993 14.6777 1.4484 14.8272 1.50534 15.0015C1.56228 15.1759 1.70107 15.3503 1.91815 15.5282L1.99644 15.5674H0V15.5709ZM3.07117 10.1403H9.80783L6.48754 2.2115L3.07117 10.1368V10.1403Z" fill="white"/>
<path d="M20.8823 15.5708C21.1528 15.3929 21.3414 15.1544 21.4588 14.8591C21.4837 14.7559 21.5193 14.5922 21.5656 14.3608C21.6119 14.1295 21.6332 13.7345 21.6332 13.1722V2.74873C21.6332 2.37863 21.619 2.06902 21.5941 1.81635C21.5692 1.56724 21.5336 1.35727 21.4873 1.19357C21.441 1.02631 21.3948 0.898198 21.345 0.80923C21.2951 0.720262 21.2489 0.649087 21.2097 0.599265C21.1706 0.574354 21.1314 0.538767 21.0958 0.492504C21.0567 0.449799 21.0176 0.414212 20.982 0.385742H30.8467L30.925 1.80567C30.9001 1.74161 30.8752 1.68823 30.8467 1.64197C30.8218 1.59571 30.7969 1.55656 30.7684 1.51741C30.6012 1.25051 30.4304 1.04766 30.2489 0.912433C30.0709 0.777201 29.8788 0.684675 29.6724 0.634853C29.466 0.58503 29.2524 0.556561 29.0282 0.556561H23.0318V7.54233H27.4161C27.6154 7.54233 27.8111 7.52809 28.0104 7.50318C28.2097 7.47827 28.4019 7.43201 28.587 7.36795C28.772 7.30389 28.9357 7.20781 29.0781 7.07969C29.1813 7.0014 29.2631 6.91955 29.3272 6.83058C29.3912 6.74162 29.4553 6.64553 29.5193 6.54233V8.69179C29.3272 8.33236 29.0389 8.07258 28.6546 7.90532C28.3485 7.75229 28.0567 7.67756 27.7827 7.68468C27.5087 7.69179 27.199 7.69535 26.8503 7.69535H23.0318V15.3929H28.6937C29.0638 15.3929 29.3841 15.3573 29.6546 15.2861C29.925 15.2149 30.167 15.1117 30.3841 14.9694C30.6012 14.8306 30.8076 14.6562 30.9998 14.4498C31.1919 14.247 31.3912 14.0085 31.5941 13.7381L30.9428 15.5601H20.8859L20.8823 15.5708Z" fill="white"/>
<path d="M38.5977 3.82345C38.5977 3.24693 38.7151 2.72736 38.9535 2.25761C39.1884 1.79142 39.5051 1.39284 39.9037 1.069C40.2987 0.741595 40.7542 0.488926 41.2667 0.31099C41.7792 0.133054 42.3094 0.0405273 42.861 0.0405273C43.6688 0.0405273 44.5194 0.232698 45.4126 0.61704C45.8859 0.834122 46.256 0.944442 46.5265 0.944442C46.8325 0.944442 47.0959 0.841239 47.313 0.638392L47.3521 0.599246V3.32523C47.288 3.14729 47.2204 2.98359 47.1493 2.83412C47.0781 2.68821 47.0069 2.54231 46.9286 2.40352C46.7222 2.05832 46.4695 1.75227 46.1706 1.48181C45.8681 1.2149 45.5407 0.983588 45.1813 0.791417C44.8219 0.599246 44.4446 0.453339 44.0496 0.350136C43.6546 0.246933 43.256 0.197111 42.861 0.197111C42.466 0.197111 42.071 0.261168 41.6795 0.389282C41.288 0.517396 40.9429 0.702449 40.6439 0.944442C40.3414 1.18643 40.0994 1.48537 39.9144 1.83768C39.7293 2.18999 39.6368 2.58145 39.6368 3.01918C39.6368 3.60636 39.8396 4.14729 40.2525 4.63128C40.7507 5.24693 41.9464 6.06544 43.8432 7.08679C44.5834 7.48537 45.2098 7.83412 45.7151 8.13305C46.2204 8.43555 46.6083 8.68822 46.8752 8.89106C47.3236 9.26117 47.6902 9.70601 47.9784 10.2256C48.2667 10.7452 48.409 11.311 48.409 11.9231C48.409 12.9978 47.982 13.9373 47.1243 14.7452C46.2667 15.5494 45.1528 15.9551 43.7863 15.9551C43.2738 15.9551 42.8183 15.9053 42.4126 15.8021C42.0105 15.6989 41.5656 15.5708 41.0781 15.4178C40.555 15.2398 40.1813 15.1295 39.9642 15.0903C39.7471 15.0512 39.5941 15.0334 39.5051 15.0334C39.313 15.0334 39.1599 15.0654 39.0461 15.1295C38.9322 15.1936 38.8361 15.2576 38.7578 15.3217V12.5779C38.8361 12.795 38.9108 12.9943 38.9891 13.1722C39.0674 13.3501 39.1493 13.5103 39.2382 13.6526C39.4411 13.9978 39.7115 14.3039 40.0461 14.5637C40.377 14.827 40.7471 15.0512 41.1493 15.2363C41.5514 15.4213 41.9678 15.5637 42.3984 15.6597C42.8254 15.7558 43.2347 15.8021 43.6154 15.8021C44.0638 15.8021 44.5016 15.738 44.9286 15.6099C45.3557 15.4818 45.7364 15.2932 46.071 15.0441C46.4019 14.795 46.6688 14.4854 46.8681 14.1117C47.0674 13.7416 47.167 13.3074 47.167 12.8057C47.167 12.2825 47.0176 11.7879 46.7151 11.3288C46.4126 10.8697 46.0603 10.4854 45.651 10.1758C45.4838 10.0334 45.192 9.84124 44.7685 9.58857C44.345 9.33946 43.7898 9.01562 43.0994 8.6206C42.409 8.25049 41.8254 7.90886 41.3521 7.60281C40.8788 7.29676 40.5016 7.03341 40.2204 6.81633C39.7222 6.44622 39.3272 6.01562 39.0389 5.53163C38.7507 5.04409 38.6083 4.47469 38.6083 3.82345H38.5977Z" fill="white"/>
<path d="M55.1421 0.389301H67.4268L67.4838 2.0014C67.3307 1.72026 67.1492 1.48539 66.9464 1.30033C66.74 1.11528 66.5158 0.969372 66.2738 0.859052C66.0318 0.75229 65.7684 0.673998 65.4873 0.627735C65.2062 0.581472 64.9179 0.560119 64.6225 0.560119H61.9357V13.2292C61.9357 14.3288 62.0816 15.0334 62.377 15.3395C62.4553 15.4427 62.5442 15.5174 62.6474 15.5708H59.8076C59.9606 15.4569 60.0816 15.3288 60.1706 15.1865C60.4126 14.8662 60.5336 14.2149 60.5336 13.2292V0.563678H58.1741C57.8539 0.563678 57.5549 0.574354 57.2738 0.592148C56.9926 0.609942 56.7293 0.663322 56.4873 0.745173C56.2453 0.827023 56.014 0.951579 55.7969 1.10816C55.5798 1.2683 55.3734 1.48895 55.1813 1.77008C55.1563 1.795 55.135 1.82346 55.1243 1.85549C55.1101 1.88752 55.0923 1.91599 55.0674 1.9409L55.1457 0.385742L55.1421 0.389301Z" fill="white"/>
<path d="M77.1921 0.389301C76.9217 0.567237 76.7331 0.805671 76.6156 1.10104C76.5765 1.20425 76.5373 1.37151 76.5017 1.60994C76.4626 1.84838 76.4448 2.25407 76.4448 2.82702V7.75941H84.7366V2.82702C84.7366 2.23983 84.7188 1.82346 84.6797 1.57791C84.6405 1.33592 84.5978 1.16154 84.5445 1.05834C84.4306 0.791436 84.242 0.567237 83.9893 0.385742H86.9074C86.637 0.553002 86.4484 0.794995 86.3309 1.11528C86.2918 1.21848 86.2526 1.38574 86.2171 1.62418C86.1815 1.86261 86.1601 2.26119 86.1601 2.82346V13.1509C86.1601 13.7523 86.1815 14.1722 86.2277 14.4071C86.274 14.6455 86.3131 14.8128 86.3523 14.916C86.4412 15.1722 86.6334 15.3893 86.9288 15.5672H84.0106C84.0747 15.5281 84.1316 15.4818 84.185 15.4249C84.2348 15.368 84.2953 15.3075 84.3594 15.2434C84.6156 14.9124 84.7437 14.2149 84.7437 13.1509V7.91243H76.4519V13.1509C76.4519 13.7523 76.4733 14.1722 76.5195 14.4071C76.5658 14.6455 76.5978 14.8128 76.6263 14.916C76.7402 15.1829 76.9395 15.4035 77.2206 15.5672H74.3025C74.4448 15.4889 74.5587 15.3822 74.6477 15.2398C74.9039 14.9089 75.032 14.2114 75.032 13.1473V2.82702C75.032 2.23983 75.0142 1.82346 74.9751 1.57791C74.9359 1.33592 74.8968 1.16154 74.8612 1.05834C74.7473 0.791436 74.5551 0.567237 74.2847 0.385742H77.2028L77.1921 0.389301Z" fill="white"/>
<path d="M94.292 15.5708C94.5625 15.3929 94.7511 15.1544 94.8685 14.8591C94.8934 14.7559 94.929 14.5922 94.9753 14.3608C95.0215 14.1295 95.0429 13.7345 95.0429 13.1722V2.74873C95.0429 2.37863 95.0286 2.06902 95.0037 1.81635C94.9788 1.56724 94.9432 1.35727 94.897 1.19357C94.8507 1.02631 94.8045 0.898198 94.7546 0.80923C94.7048 0.720262 94.6585 0.649087 94.6194 0.599265C94.5803 0.574354 94.5411 0.538767 94.5055 0.492504C94.4664 0.449799 94.4272 0.414212 94.3916 0.385742H104.256L104.335 1.80567C104.31 1.74161 104.285 1.68823 104.256 1.64197C104.231 1.59571 104.207 1.55656 104.178 1.51741C104.011 1.25051 103.84 1.04766 103.659 0.912433C103.481 0.777201 103.288 0.684675 103.082 0.634853C102.876 0.58503 102.662 0.556561 102.438 0.556561H96.4415V7.54233H100.826C101.025 7.54233 101.221 7.52809 101.42 7.50318C101.619 7.47827 101.812 7.43201 101.997 7.36795C102.182 7.30389 102.345 7.20781 102.488 7.07969C102.591 7.0014 102.673 6.91955 102.737 6.83058C102.801 6.74162 102.865 6.64553 102.929 6.54233V8.69179C102.737 8.33236 102.449 8.07258 102.064 7.90532C101.758 7.75229 101.466 7.67756 101.192 7.68468C100.918 7.69179 100.609 7.69535 100.26 7.69535H96.4415V15.3929H102.103C102.473 15.3929 102.794 15.3573 103.064 15.2861C103.335 15.2149 103.577 15.1117 103.794 14.9694C104.011 14.8306 104.217 14.6562 104.409 14.4498C104.602 14.247 104.801 14.0085 105.004 13.7381L104.352 15.5601H94.2956L94.292 15.5708Z" fill="white"/>
<path d="M111.491 0.389301H123.776L123.833 2.0014C123.68 1.72026 123.498 1.48539 123.296 1.30033C123.089 1.11528 122.865 0.969372 122.623 0.859052C122.381 0.75229 122.118 0.673998 121.836 0.627735C121.555 0.581472 121.267 0.560119 120.972 0.560119H118.285V13.2292C118.285 14.3288 118.431 15.0334 118.726 15.3395C118.804 15.4427 118.893 15.5174 118.997 15.5708H116.157C116.31 15.4569 116.431 15.3288 116.52 15.1865C116.762 14.8662 116.883 14.2149 116.883 13.2292V0.563678H114.523C114.203 0.563678 113.904 0.574354 113.623 0.592148C113.342 0.609942 113.078 0.663322 112.836 0.745173C112.594 0.827023 112.363 0.951579 112.146 1.10816C111.929 1.2683 111.723 1.48895 111.53 1.77008C111.505 1.795 111.484 1.82346 111.473 1.85549C111.459 1.88752 111.441 1.91599 111.417 1.9409L111.495 0.385742L111.491 0.389301Z" fill="white"/>
<path d="M133.541 0.389648C133.477 0.439471 133.413 0.49641 133.349 0.553349C133.285 0.610289 133.235 0.670787 133.196 0.734844C132.925 1.05513 132.794 1.74552 132.794 2.80602V13.1512C132.794 13.7277 132.815 14.1405 132.861 14.3896C132.908 14.6388 132.94 14.8167 132.968 14.9163C133.082 15.1832 133.281 15.4039 133.562 15.5676H130.644C130.787 15.4893 130.9 15.3825 130.989 15.2402C131.246 14.9092 131.374 14.2117 131.374 13.1477V2.80958C131.374 2.23307 131.356 1.82381 131.317 1.58182C131.278 1.33983 131.239 1.16545 131.203 1.06225C131.089 0.795342 130.897 0.571143 130.626 0.389648H133.545H133.541Z" fill="white"/>
<path d="M140.932 7.96935C140.932 6.85547 141.096 5.81633 141.423 4.85192C141.751 3.8875 142.224 3.04765 142.843 2.3359C143.463 1.62416 144.231 1.06544 145.146 0.656186C146.06 0.246933 147.114 0.0405273 148.302 0.0405273H148.744C149.359 0.0405273 149.879 0.0974668 150.309 0.214905C150.737 0.328784 151.103 0.453339 151.402 0.58857C151.701 0.723801 151.957 0.848357 152.171 0.962236C152.381 1.07611 152.591 1.13661 152.793 1.13661C153.025 1.13661 153.224 1.08323 153.398 0.972912C153.573 0.862591 153.722 0.720243 153.85 0.542307L154.06 3.4391C153.818 2.98003 153.519 2.55298 153.167 2.16152C152.815 1.77006 152.43 1.43199 152.014 1.14373C151.598 0.855474 151.153 0.631275 150.68 0.471132C150.206 0.31099 149.712 0.232698 149.203 0.232698C148.039 0.232698 147.046 0.439104 146.228 0.855474C145.409 1.27184 144.744 1.83412 144.231 2.54587C143.719 3.25761 143.349 4.07967 143.117 5.01206C142.886 5.94444 142.772 6.93021 142.772 7.96935C142.772 9.0085 142.886 9.99426 143.117 10.9338C143.349 11.8733 143.719 12.6989 144.231 13.4106C144.744 14.1224 145.409 14.6882 146.228 15.1081C147.046 15.5316 148.039 15.7416 149.203 15.7416C150.292 15.7416 151.249 15.464 152.082 14.9053C152.914 14.3501 153.573 13.553 154.057 12.5174L153.847 15.4142C153.576 15.0299 153.228 14.8377 152.79 14.8377C152.584 14.8377 152.395 14.8946 152.224 15.0121C152.05 15.1259 151.829 15.2505 151.551 15.3857C151.277 15.521 150.922 15.6455 150.487 15.7594C150.053 15.8733 149.47 15.9373 148.74 15.9516H148.299C147.11 15.9516 146.057 15.7452 145.142 15.3359C144.228 14.9266 143.459 14.3644 142.84 13.6455C142.221 12.9302 141.747 12.0832 141.42 11.1117C141.092 10.1402 140.929 9.09035 140.929 7.9658L140.932 7.96935Z" fill="white"/>
<path d="M173.904 7.96935C173.904 6.85547 174.068 5.81633 174.395 4.85192C174.722 3.8875 175.196 3.04765 175.815 2.3359C176.434 1.62416 177.203 1.06544 178.117 0.656186C179.032 0.246933 180.085 0.0405273 181.274 0.0405273H181.715C182.331 0.0405273 182.851 0.0974668 183.281 0.214905C183.708 0.328784 184.075 0.453339 184.374 0.58857C184.673 0.723801 184.929 0.848357 185.142 0.962236C185.352 1.07611 185.562 1.13661 185.765 1.13661C185.996 1.13661 186.196 1.08323 186.37 0.972912C186.545 0.862591 186.694 0.720243 186.822 0.542307L187.032 3.4391C186.79 2.98003 186.491 2.55298 186.139 2.16152C185.787 1.77006 185.402 1.43199 184.986 1.14373C184.569 0.855474 184.125 0.631275 183.651 0.471132C183.178 0.31099 182.683 0.232698 182.174 0.232698C181.011 0.232698 180.018 0.439104 179.199 0.855474C178.381 1.27184 177.715 1.83412 177.203 2.54587C176.69 3.25761 176.32 4.07967 176.089 5.01206C175.858 5.94444 175.744 6.93021 175.744 7.96935C175.744 9.0085 175.858 9.99426 176.089 10.9338C176.32 11.8733 176.69 12.6989 177.203 13.4106C177.715 14.1224 178.381 14.6882 179.199 15.1081C180.018 15.5316 181.011 15.7416 182.174 15.7416C183.263 15.7416 184.221 15.464 185.053 14.9053C185.886 14.3501 186.545 13.553 187.028 12.5174L186.819 15.4142C186.548 15.0299 186.199 14.8377 185.762 14.8377C185.555 14.8377 185.367 14.8946 185.196 15.0121C185.021 15.1259 184.801 15.2505 184.523 15.3857C184.249 15.521 183.893 15.6455 183.459 15.7594C183.025 15.8733 182.441 15.9373 181.712 15.9516H181.27C180.082 15.9516 179.029 15.7452 178.114 15.3359C177.199 14.9266 176.431 14.3644 175.811 13.6455C175.192 12.9302 174.719 12.0832 174.391 11.1117C174.064 10.1402 173.9 9.09035 173.9 7.9658L173.904 7.96935Z" fill="white"/>
<path d="M193.769 7.93411C193.769 5.48927 194.587 3.5213 196.224 2.02308C196.94 1.3576 197.705 0.862939 198.516 0.535537C199.327 0.208135 200.235 0.0444336 201.231 0.0444336C202.228 0.0444336 203.149 0.225928 204.032 0.592476C204.915 0.959024 205.722 1.51774 206.452 2.27219C207.886 3.75618 208.601 5.63162 208.601 7.89497C208.601 9.05867 208.423 10.1192 208.064 11.0729C207.705 12.0266 207.164 12.8879 206.434 13.653C205.719 14.3932 204.9 14.9661 203.979 15.3612C203.057 15.7562 202.103 15.9555 201.117 15.9555C200.132 15.9555 199.174 15.7669 198.285 15.3896C197.395 15.0124 196.598 14.4572 195.897 13.7277C194.477 12.2437 193.765 10.3113 193.765 7.93056L193.769 7.93411ZM195.651 7.87362C195.651 8.78109 195.73 9.70636 195.89 10.6459C196.05 11.5854 196.335 12.4359 196.744 13.1975C197.153 13.959 197.712 14.5818 198.424 15.0693C199.135 15.5569 200.032 15.7989 201.121 15.7989C202.21 15.7989 203.157 15.5818 203.886 15.1476C204.616 14.7135 205.192 14.1405 205.612 13.4288C206.036 12.717 206.331 11.9092 206.505 11.0017C206.68 10.0943 206.765 9.16543 206.765 8.21881C206.765 5.37895 206.189 3.24728 205.039 1.82735C204.58 1.22593 204.039 0.802441 203.416 0.560448C202.797 0.318455 202.071 0.197459 201.238 0.197459C200.139 0.197459 199.228 0.421658 198.502 0.870056C197.779 1.31845 197.206 1.90208 196.783 2.62451C196.359 3.34693 196.068 4.16543 195.9 5.08002C195.733 5.99461 195.651 6.927 195.651 7.87362Z" fill="white"/>
<path d="M215.975 15.571C216.053 15.5069 216.125 15.4429 216.196 15.3788C216.267 15.3148 216.335 15.2329 216.399 15.1297C216.502 14.9518 216.58 14.7062 216.637 14.4002C216.694 14.0941 216.722 13.6778 216.722 13.1511V2.80944C216.722 1.70979 216.577 0.987372 216.281 0.642177C216.231 0.603031 216.185 0.563885 216.146 0.517622C216.107 0.474917 216.057 0.432212 215.993 0.393066H219.046C218.765 0.571002 218.541 0.802319 218.374 1.08346C218.349 1.13328 218.32 1.20445 218.288 1.29342C218.256 1.38239 218.231 1.50339 218.21 1.65641C218.192 1.80944 218.174 2.00161 218.164 2.23292C218.149 2.46424 218.146 2.74538 218.146 3.07634V13.1511C218.146 13.8664 218.224 14.3788 218.377 14.6849C218.544 14.9411 218.762 15.1262 219.028 15.24C219.078 15.265 219.142 15.2899 219.221 15.3077C219.299 15.3255 219.409 15.3432 219.555 15.3539C219.701 15.3682 219.893 15.3753 220.132 15.3824C220.367 15.3895 220.665 15.3931 221.025 15.3931H222.196C222.847 15.3931 223.399 15.3717 223.847 15.3254C224.295 15.2792 224.658 15.2009 224.94 15.087C225.068 15.0372 225.217 14.966 225.391 14.8771C225.566 14.7881 225.73 14.6813 225.89 14.5603C226.05 14.4393 226.199 14.3112 226.342 14.176C226.484 14.0408 226.584 13.9091 226.648 13.781L226.093 15.5674H215.979L215.975 15.571Z" fill="white"/>
<path d="M233.42 15.571C233.498 15.5069 233.569 15.4429 233.641 15.3788C233.712 15.3148 233.779 15.2329 233.843 15.1297C233.947 14.9518 234.025 14.7062 234.082 14.4002C234.139 14.0941 234.167 13.6778 234.167 13.1511V2.80944C234.167 1.70979 234.021 0.987372 233.726 0.642177C233.676 0.603031 233.63 0.563885 233.591 0.517622C233.552 0.474917 233.502 0.432212 233.438 0.393066H236.491C236.21 0.571002 235.986 0.802319 235.819 1.08346C235.794 1.13328 235.765 1.20445 235.733 1.29342C235.701 1.38239 235.676 1.50339 235.655 1.65641C235.637 1.80944 235.619 2.00161 235.609 2.23292C235.594 2.46424 235.591 2.74538 235.591 3.07634V13.1511C235.591 13.8664 235.669 14.3788 235.822 14.6849C235.989 14.9411 236.206 15.1262 236.473 15.24C236.523 15.265 236.587 15.2899 236.665 15.3077C236.744 15.3255 236.854 15.3432 237 15.3539C237.146 15.3682 237.338 15.3753 237.577 15.3824C237.811 15.3895 238.11 15.3931 238.47 15.3931H239.641C240.292 15.3931 240.843 15.3717 241.292 15.3254C241.74 15.2792 242.103 15.2009 242.384 15.087C242.512 15.0372 242.662 14.966 242.836 14.8771C243.011 14.7881 243.174 14.6813 243.335 14.5603C243.495 14.4393 243.644 14.3112 243.786 14.176C243.929 14.0408 244.028 13.9091 244.093 13.781L243.537 15.5674H233.423L233.42 15.571Z" fill="white"/>
<path d="M250.847 15.5708C251.118 15.3929 251.306 15.1544 251.424 14.8591C251.449 14.7559 251.484 14.5922 251.53 14.3608C251.577 14.1295 251.598 13.7345 251.598 13.1722V2.74873C251.598 2.37863 251.584 2.06902 251.559 1.81635C251.534 1.56724 251.498 1.35727 251.452 1.19357C251.406 1.02631 251.36 0.898198 251.31 0.80923C251.26 0.720262 251.214 0.649087 251.175 0.599265C251.135 0.574354 251.096 0.538767 251.061 0.492504C251.022 0.449799 250.982 0.414212 250.947 0.385742H260.812L260.89 1.80567C260.865 1.74161 260.84 1.68823 260.812 1.64197C260.787 1.59571 260.762 1.55656 260.733 1.51741C260.566 1.25051 260.395 1.04766 260.214 0.912433C260.036 0.777201 259.844 0.684675 259.637 0.634853C259.431 0.58503 259.217 0.556561 258.993 0.556561H252.997V7.54233H257.381C257.58 7.54233 257.776 7.52809 257.975 7.50318C258.175 7.47827 258.367 7.43201 258.552 7.36795C258.737 7.30389 258.901 7.20781 259.043 7.07969C259.146 7.0014 259.228 6.91955 259.292 6.83058C259.356 6.74162 259.42 6.64553 259.484 6.54233V8.69179C259.292 8.33236 259.004 8.07258 258.619 7.90532C258.313 7.75229 258.022 7.67756 257.748 7.68468C257.474 7.69179 257.16 7.69535 256.815 7.69535H252.997V15.3929H258.659C259.029 15.3929 259.349 15.3573 259.619 15.2861C259.89 15.2149 260.132 15.1117 260.349 14.9694C260.566 14.8306 260.772 14.6562 260.965 14.4498C261.157 14.247 261.356 14.0085 261.559 13.7381L260.908 15.5601H250.851L250.847 15.5708Z" fill="white"/>
<path d="M267.794 7.96935C267.794 6.85547 267.957 5.81633 268.285 4.85192C268.612 3.8875 269.085 3.04765 269.705 2.3359C270.324 1.62416 271.093 1.06544 272.007 0.656186C272.922 0.246933 273.975 0.0405273 275.164 0.0405273H275.605C276.221 0.0405273 276.74 0.0974668 277.171 0.214905C277.598 0.328784 277.964 0.453339 278.263 0.58857C278.562 0.723801 278.819 0.848357 279.032 0.962236C279.242 1.07611 279.452 1.13661 279.655 1.13661C279.886 1.13661 280.085 1.08323 280.26 0.972912C280.434 0.862591 280.584 0.720243 280.712 0.542307L280.922 3.4391C280.68 2.98003 280.381 2.55298 280.028 2.16152C279.676 1.77006 279.292 1.43199 278.875 1.14373C278.459 0.855474 278.014 0.631275 277.541 0.471132C277.068 0.31099 276.573 0.232698 276.064 0.232698C274.9 0.232698 273.907 0.439104 273.089 0.855474C272.27 1.27184 271.605 1.83412 271.093 2.54587C270.58 3.25761 270.21 4.07967 269.979 5.01206C269.747 5.94444 269.633 6.93021 269.633 7.96935C269.633 9.0085 269.747 9.99426 269.979 10.9338C270.21 11.8733 270.58 12.6989 271.093 13.4106C271.605 14.1224 272.27 14.6882 273.089 15.1081C273.907 15.5316 274.9 15.7416 276.064 15.7416C277.153 15.7416 278.11 15.464 278.943 14.9053C279.776 14.3501 280.434 13.553 280.918 12.5174L280.708 15.4142C280.438 15.0299 280.089 14.8377 279.651 14.8377C279.445 14.8377 279.256 14.8946 279.085 15.0121C278.911 15.1259 278.69 15.2505 278.413 15.3857C278.139 15.521 277.783 15.6455 277.349 15.7594C276.915 15.8733 276.331 15.9373 275.601 15.9516H275.16C273.972 15.9516 272.918 15.7452 272.004 15.3359C271.089 14.9266 270.32 14.3644 269.701 13.6455C269.082 12.9302 268.609 12.0832 268.281 11.1117C267.954 10.1402 267.79 9.09035 267.79 7.9658L267.794 7.96935Z" fill="white"/>
<path d="M287.658 0.389301H299.943L300 2.0014C299.847 1.72026 299.665 1.48539 299.463 1.30033C299.256 1.11528 299.032 0.969372 298.79 0.859052C298.548 0.75229 298.285 0.673998 298.003 0.627735C297.722 0.581472 297.434 0.560119 297.139 0.560119H294.452V13.2292C294.452 14.3288 294.598 15.0334 294.893 15.3395C294.971 15.4427 295.06 15.5174 295.164 15.5708H292.324C292.477 15.4569 292.598 15.3288 292.687 15.1865C292.929 14.8662 293.05 14.2149 293.05 13.2292V0.563678H290.69C290.37 0.563678 290.071 0.574354 289.79 0.592148C289.509 0.609942 289.245 0.663322 289.003 0.745173C288.761 0.827023 288.53 0.951579 288.313 1.10816C288.096 1.2683 287.89 1.48895 287.697 1.77008C287.672 1.795 287.651 1.82346 287.64 1.85549C287.626 1.88752 287.608 1.91599 287.583 1.9409L287.662 0.385742L287.658 0.389301Z" fill="white"/>
<path d="M309.711 0.389648C309.647 0.439471 309.583 0.49641 309.519 0.553349C309.455 0.610289 309.405 0.670787 309.366 0.734844C309.096 1.05513 308.964 1.74552 308.964 2.80602V13.1512C308.964 13.7277 308.985 14.1405 309.032 14.3896C309.078 14.6388 309.11 14.8167 309.139 14.9163C309.252 15.1832 309.452 15.4039 309.733 15.5676H306.815C306.957 15.4893 307.071 15.3825 307.16 15.2402C307.416 14.9092 307.544 14.2117 307.544 13.1477V2.80958C307.544 2.23307 307.526 1.82381 307.487 1.58182C307.448 1.33983 307.409 1.16545 307.373 1.06225C307.26 0.795342 307.067 0.571143 306.797 0.389648H309.715H309.711Z" fill="white"/>
<path d="M316.409 0.389301H319.826C319.786 0.428447 319.747 0.453358 319.712 0.467593C319.569 0.609942 319.455 0.762966 319.366 0.926668C319.278 1.09393 319.231 1.2861 319.231 1.50318C319.231 1.72026 319.281 1.99428 319.384 2.3288C319.487 2.66332 319.633 3.05122 319.826 3.49962L324.278 13.8057L328.441 3.6135C328.658 3.12596 328.811 2.71314 328.9 2.37507C328.989 2.03699 329.036 1.75941 329.036 1.53877C329.036 1.17934 328.875 0.859052 328.555 0.577913C328.516 0.553002 328.477 0.520974 328.441 0.481828C328.402 0.442682 328.352 0.410653 328.288 0.385742H330.612C330.242 0.64197 329.932 0.965813 329.68 1.35371C329.431 1.74517 329.221 2.14375 329.057 2.553L323.626 15.8163L317.811 2.38218C317.594 1.89464 317.438 1.56012 317.342 1.37507C317.245 1.19001 317.167 1.06546 317.103 1.0014C316.936 0.770084 316.708 0.567237 316.413 0.385742L316.409 0.389301Z" fill="white"/>
<path d="M337.292 15.5708C337.562 15.3929 337.751 15.1544 337.869 14.8591C337.893 14.7559 337.929 14.5922 337.975 14.3608C338.022 14.1295 338.043 13.7345 338.043 13.1722V2.74873C338.043 2.37863 338.029 2.06902 338.004 1.81635C337.979 1.56724 337.943 1.35727 337.897 1.19357C337.851 1.02631 337.804 0.898198 337.755 0.80923C337.705 0.720262 337.659 0.649087 337.619 0.599265C337.58 0.574354 337.541 0.538767 337.506 0.492504C337.466 0.449799 337.427 0.414212 337.392 0.385742H347.256L347.335 1.80567C347.31 1.74161 347.285 1.68823 347.256 1.64197C347.231 1.59571 347.207 1.55656 347.178 1.51741C347.011 1.25051 346.84 1.04766 346.659 0.912433C346.481 0.777201 346.288 0.684675 346.082 0.634853C345.876 0.58503 345.662 0.556561 345.438 0.556561H339.441V7.54233H343.826C344.025 7.54233 344.221 7.52809 344.42 7.50318C344.619 7.47827 344.812 7.43201 344.997 7.36795C345.182 7.30389 345.345 7.20781 345.488 7.07969C345.591 7.0014 345.673 6.91955 345.737 6.83058C345.801 6.74162 345.865 6.64553 345.929 6.54233V8.69179C345.737 8.33236 345.449 8.07258 345.064 7.90532C344.758 7.75229 344.466 7.67756 344.192 7.68468C343.918 7.69179 343.605 7.69535 343.26 7.69535H339.441V15.3929H345.103C345.473 15.3929 345.794 15.3573 346.064 15.2861C346.335 15.2149 346.577 15.1117 346.794 14.9694C347.011 14.8306 347.217 14.6562 347.409 14.4498C347.602 14.247 347.801 14.0085 348.004 13.7381L347.352 15.5601H337.296L337.292 15.5708Z" fill="white"/>
</g>
</svg>
