<svg width="1217" height="53" viewBox="0 0 1217 53" fill="none" xmlns="http://www.w3.org/2000/svg">
<g clip-path="url(#clip0_121_155)">
<g opacity="0.85">
<path d="M0 51.07C0.55 50.82 1.09 50.32 1.64 49.59C2.19 48.86 2.71 48.04 3.22 47.16C3.73 46.28 4.18 45.4 4.58 44.54C4.98 43.68 5.28 42.99 5.5 42.49L23.42 0.5L41.16 42.92C41.96 44.81 42.72 46.36 43.43 47.56C44.14 48.76 44.86 49.68 45.58 50.31C45.75 50.44 45.92 50.57 46.08 50.72C46.25 50.87 46.44 50.98 46.65 51.07H35.79C36.38 50.65 36.8 50.15 37.05 49.59C37.3 49.02 37.43 48.42 37.43 47.79C37.43 47.16 37.3 46.35 37.05 45.36C36.8 44.37 36.38 43.2 35.79 41.86L32.32 33.72H9.91L6.06 42.56C5.6 43.74 5.25 44.75 5.02 45.59C4.79 46.43 4.67 47.15 4.67 47.74C4.67 48.16 4.76 48.66 4.95 49.22C5.14 49.78 5.59 50.37 6.31 50.96L6.56 51.09H0V51.07ZM10.1 33.21H32.26L21.34 7.13L10.1 33.2V33.21Z" fill="white"/>
<path d="M72.47 51.0701C73.35 50.4801 73.98 49.7001 74.36 48.7301C74.44 48.3901 74.56 47.8501 74.71 47.0901C74.86 46.3301 74.93 45.0301 74.93 43.1801V8.90014C74.93 7.68014 74.89 6.66014 74.8 5.84014C74.72 5.02014 74.6 4.34014 74.45 3.79014C74.3 3.24014 74.14 2.82014 73.98 2.53014C73.81 2.24014 73.67 2.00014 73.54 1.84014C73.41 1.76014 73.29 1.64014 73.16 1.49014C73.03 1.34014 72.91 1.23014 72.78 1.14014H105.23L105.48 5.81014C105.39 5.60014 105.31 5.42014 105.23 5.27014C105.15 5.12014 105.06 4.99014 104.98 4.86014C104.43 3.98014 103.86 3.31014 103.27 2.87014C102.68 2.43014 102.05 2.12014 101.38 1.95014C100.71 1.78014 100 1.70014 99.26 1.70014H79.53V24.6801H93.96C94.61 24.6801 95.26 24.6401 95.92 24.5501C96.57 24.4701 97.2 24.3201 97.81 24.1101C98.42 23.9001 98.96 23.5801 99.42 23.1601C99.76 22.9101 100.03 22.6301 100.24 22.3401C100.45 22.0501 100.66 21.7301 100.87 21.3901V28.4601C100.24 27.2801 99.29 26.4201 98.03 25.8701C97.02 25.3701 96.06 25.1201 95.16 25.1401C94.25 25.1601 93.23 25.1701 92.1 25.1701H79.54V50.4901H98.16C99.38 50.4901 100.43 50.3701 101.32 50.1401C102.2 49.9101 103 49.5601 103.72 49.1001C104.44 48.6401 105.11 48.0701 105.74 47.4001C106.37 46.7301 107.02 45.9501 107.7 45.0601L105.55 51.0601H72.47V51.0701Z" fill="white"/>
<path d="M134.53 12.44C134.53 10.55 134.92 8.83002 135.7 7.30002C136.48 5.76002 137.52 4.46002 138.82 3.39002C140.12 2.32002 141.62 1.49002 143.3 0.90002C144.98 0.31002 146.73 0.0200195 148.54 0.0200195C151.19 0.0200195 153.99 0.65002 156.94 1.91002C158.5 2.63002 159.72 2.98002 160.6 2.98002C161.61 2.98002 162.47 2.64002 163.19 1.97002L163.32 1.84002V10.8C163.11 10.21 162.89 9.67002 162.66 9.19002C162.43 8.71002 162.19 8.23002 161.93 7.77002C161.26 6.63002 160.43 5.62002 159.44 4.74002C158.45 3.86002 157.37 3.10002 156.19 2.47002C155.01 1.84002 153.77 1.36002 152.47 1.02002C151.17 0.680019 149.86 0.52002 148.56 0.52002C147.26 0.52002 145.96 0.73002 144.68 1.15002C143.4 1.57002 142.26 2.18002 141.27 2.98002C140.28 3.78002 139.48 4.76002 138.87 5.92002C138.26 7.08002 137.95 8.37002 137.95 9.80002C137.95 11.74 138.62 13.5 139.97 15.1C141.61 17.12 145.55 19.81 151.77 23.18C154.21 24.49 156.26 25.63 157.93 26.62C159.59 27.61 160.87 28.44 161.75 29.11C163.22 30.33 164.43 31.79 165.38 33.5C166.33 35.21 166.8 37.07 166.8 39.09C166.8 42.63 165.39 45.72 162.57 48.37C159.75 51.02 156.09 52.35 151.58 52.35C149.9 52.35 148.39 52.18 147.07 51.85C145.74 51.51 144.28 51.09 142.68 50.59C140.95 50 139.73 49.64 139.02 49.52C138.3 49.39 137.8 49.33 137.5 49.33C136.87 49.33 136.36 49.44 135.99 49.65C135.61 49.86 135.3 50.07 135.04 50.28V41.25C135.29 41.97 135.54 42.62 135.8 43.21C136.05 43.8 136.33 44.33 136.62 44.79C137.29 45.93 138.18 46.93 139.27 47.79C140.36 48.65 141.57 49.39 142.9 50C144.23 50.61 145.59 51.07 147 51.39C148.41 51.71 149.75 51.86 151.01 51.86C152.48 51.86 153.92 51.65 155.33 51.23C156.74 50.81 157.99 50.19 159.09 49.37C160.18 48.55 161.06 47.53 161.71 46.31C162.36 45.09 162.69 43.66 162.69 42.02C162.69 40.29 162.2 38.67 161.21 37.16C160.22 35.65 159.05 34.38 157.71 33.37C157.16 32.91 156.19 32.27 154.81 31.45C153.42 30.63 151.59 29.57 149.32 28.26C147.05 27.04 145.13 25.92 143.57 24.91C142.01 23.9 140.77 23.04 139.85 22.32C138.21 21.1 136.91 19.69 135.97 18.09C135.02 16.49 134.55 14.62 134.55 12.47L134.53 12.44Z" fill="white"/>
<path d="M192.74 1.13988H233.14L233.33 6.43988C232.82 5.51988 232.23 4.74988 231.56 4.13988C230.89 3.52988 230.15 3.04988 229.35 2.68988C228.55 2.32988 227.69 2.07988 226.76 1.92988C225.83 1.77988 224.89 1.70988 223.92 1.70988H215.08V43.3799C215.08 46.9999 215.56 49.3099 216.53 50.3199C216.78 50.6599 217.08 50.9099 217.41 51.0799H208.07C208.57 50.6999 208.97 50.2799 209.27 49.8199C210.07 48.7699 210.47 46.6199 210.47 43.3799V1.69988H202.7C201.65 1.69988 200.66 1.72988 199.73 1.78988C198.8 1.84988 197.94 2.01988 197.14 2.29988C196.34 2.56988 195.58 2.96988 194.87 3.49988C194.15 4.02988 193.48 4.74988 192.85 5.67988C192.77 5.75988 192.7 5.85988 192.66 5.95988C192.62 6.06988 192.56 6.15988 192.47 6.23988L192.72 1.12988L192.74 1.13988Z" fill="white"/>
<path d="M269.06 1.13988C268.18 1.72988 267.55 2.50988 267.17 3.47988C267.04 3.81988 266.92 4.36988 266.79 5.14988C266.66 5.92988 266.6 7.25988 266.6 9.15988V25.3799H293.87V9.14988C293.87 7.20988 293.81 5.84988 293.68 5.04988C293.55 4.24988 293.41 3.67988 293.24 3.33988C292.86 2.45988 292.25 1.71988 291.41 1.12988H301.01C300.13 1.67988 299.49 2.47988 299.12 3.52988C299 3.86988 298.87 4.41988 298.74 5.19988C298.61 5.97988 298.55 7.28988 298.55 9.14988V43.1099C298.55 45.0899 298.62 46.4699 298.77 47.2399C298.92 48.0199 299.05 48.5799 299.18 48.9099C299.47 49.7499 300.1 50.4699 301.07 51.0599H291.47C291.68 50.9299 291.87 50.7799 292.04 50.5899C292.21 50.3999 292.4 50.1999 292.61 49.9899C293.45 48.8999 293.87 46.5999 293.87 43.1099V25.8699H266.6V43.1099C266.6 45.0899 266.67 46.4699 266.82 47.2399C266.97 48.0199 267.08 48.5799 267.17 48.9099C267.55 49.7899 268.2 50.5099 269.13 51.0599H259.53C259.99 50.8099 260.37 50.4499 260.67 49.9899C261.51 48.8999 261.93 46.5999 261.93 43.1099V9.14988C261.93 7.20988 261.87 5.84988 261.74 5.04988C261.61 4.24988 261.49 3.67988 261.36 3.33988C260.98 2.45988 260.35 1.71988 259.47 1.12988H269.07L269.06 1.13988Z" fill="white"/>
<path d="M329.1 51.0701C329.98 50.4801 330.61 49.7001 330.99 48.7301C331.07 48.3901 331.19 47.8501 331.34 47.0901C331.49 46.3301 331.56 45.0301 331.56 43.1801V8.90014C331.56 7.68014 331.52 6.66014 331.43 5.84014C331.35 5.02014 331.23 4.34014 331.08 3.79014C330.93 3.24014 330.77 2.82014 330.61 2.53014C330.44 2.24014 330.3 2.00014 330.17 1.84014C330.04 1.76014 329.92 1.64014 329.79 1.49014C329.66 1.34014 329.54 1.23014 329.41 1.14014H361.86L362.11 5.81014C362.02 5.60014 361.94 5.42014 361.86 5.27014C361.78 5.12014 361.69 4.99014 361.61 4.86014C361.06 3.98014 360.49 3.31014 359.9 2.87014C359.31 2.43014 358.68 2.12014 358.01 1.95014C357.34 1.78014 356.63 1.70014 355.89 1.70014H336.16V24.6801H350.59C351.24 24.6801 351.89 24.6401 352.55 24.5501C353.2 24.4701 353.83 24.3201 354.44 24.1101C355.05 23.9001 355.59 23.5801 356.05 23.1601C356.39 22.9101 356.66 22.6301 356.87 22.3401C357.08 22.0501 357.29 21.7301 357.5 21.3901V28.4601C356.87 27.2801 355.92 26.4201 354.66 25.8701C353.65 25.3701 352.69 25.1201 351.79 25.1401C350.88 25.1601 349.86 25.1701 348.73 25.1701H336.17V50.4901H354.79C356.01 50.4901 357.06 50.3701 357.95 50.1401C358.83 49.9101 359.63 49.5601 360.35 49.1001C361.07 48.6401 361.74 48.0701 362.37 47.4001C363 46.7301 363.65 45.9501 364.33 45.0601L362.18 51.0601H329.1V51.0701Z" fill="white"/>
<path d="M389.46 1.13988H429.86L430.05 6.43988C429.55 5.51988 428.96 4.74988 428.28 4.13988C427.61 3.52988 426.87 3.04988 426.07 2.68988C425.27 2.32988 424.41 2.07988 423.48 1.92988C422.55 1.77988 421.61 1.70988 420.64 1.70988H411.8V43.3799C411.8 46.9999 412.28 49.3099 413.25 50.3199C413.5 50.6599 413.8 50.9099 414.13 51.0799H404.79C405.29 50.6999 405.69 50.2799 405.99 49.8199C406.79 48.7699 407.19 46.6199 407.19 43.3799V1.69988H399.43C398.38 1.69988 397.39 1.72988 396.46 1.78988C395.53 1.84988 394.67 2.01988 393.87 2.29988C393.07 2.56988 392.31 2.96988 391.6 3.49988C390.89 4.02988 390.21 4.74988 389.58 5.67988C389.5 5.75988 389.43 5.85988 389.39 5.95988C389.35 6.06988 389.29 6.15988 389.2 6.23988L389.45 1.12988L389.46 1.13988Z" fill="white"/>
<path d="M465.78 1.13988C465.57 1.30988 465.36 1.48988 465.15 1.67988C464.94 1.86988 464.77 2.06988 464.65 2.27988C463.77 3.32988 463.32 5.60988 463.32 9.09988V43.1299C463.32 45.0199 463.39 46.3799 463.54 47.1999C463.69 48.0199 463.8 48.5999 463.89 48.9399C464.27 49.8199 464.92 50.5399 465.85 51.0899H456.25C456.71 50.8399 457.09 50.4799 457.39 50.0199C458.23 48.9299 458.65 46.6299 458.65 43.1399V9.08988C458.65 7.19988 458.59 5.84988 458.46 5.04988C458.33 4.24988 458.21 3.67988 458.08 3.33988C457.7 2.45988 457.07 1.71988 456.19 1.12988H465.79L465.78 1.13988Z" fill="white"/>
<path d="M493.87 26.07C493.87 22.41 494.41 18.99 495.48 15.81C496.55 12.63 498.11 9.88 500.15 7.54C502.19 5.2 504.72 3.36 507.73 2.02C510.74 0.67 514.2 0 518.12 0H519.57C521.59 0 523.3 0.19 524.72 0.57C526.13 0.95 527.33 1.36 528.32 1.8C529.31 2.24 530.15 2.65 530.85 3.03C531.54 3.41 532.23 3.6 532.9 3.6C533.66 3.6 534.32 3.42 534.89 3.06C535.46 2.7 535.95 2.23 536.37 1.64L537.07 11.17C536.27 9.66 535.29 8.26 534.13 6.97C532.97 5.69 531.71 4.57 530.34 3.62C528.97 2.67 527.51 1.94 525.95 1.41C524.39 0.88 522.77 0.62 521.09 0.62C517.26 0.62 514 1.31 511.3 2.67C508.61 4.04 506.42 5.89 504.73 8.22C503.04 10.55 501.83 13.26 501.07 16.33C500.31 19.4 499.93 22.64 499.93 26.05C499.93 29.46 500.31 32.71 501.07 35.8C501.83 38.89 503.05 41.61 504.73 43.94C506.41 46.27 508.6 48.14 511.3 49.53C513.99 50.92 517.26 51.61 521.09 51.61C524.67 51.61 527.82 50.69 530.56 48.86C533.3 47.03 535.46 44.41 537.06 41L536.36 50.53C535.48 49.27 534.32 48.64 532.89 48.64C532.22 48.64 531.6 48.83 531.03 49.21C530.46 49.59 529.72 50 528.82 50.44C527.91 50.88 526.75 51.29 525.32 51.67C523.89 52.05 521.97 52.26 519.57 52.3H518.12C514.21 52.3 510.74 51.63 507.73 50.28C504.72 48.93 502.2 47.08 500.15 44.72C498.11 42.36 496.55 39.59 495.48 36.39C494.41 33.19 493.87 29.74 493.87 26.04V26.07Z" fill="white"/>
<path d="M609.91 26.07C609.91 22.41 610.45 18.99 611.52 15.81C612.59 12.63 614.15 9.88 616.19 7.54C618.23 5.2 620.76 3.36 623.76 2.02C626.77 0.67 630.23 0 634.15 0H635.6C637.62 0 639.33 0.19 640.74 0.57C642.15 0.95 643.35 1.36 644.34 1.8C645.33 2.24 646.17 2.65 646.87 3.03C647.56 3.41 648.25 3.6 648.92 3.6C649.68 3.6 650.34 3.42 650.91 3.06C651.48 2.7 651.97 2.23 652.39 1.64L653.09 11.17C652.29 9.66 651.31 8.26 650.15 6.97C648.99 5.69 647.73 4.57 646.36 3.62C644.99 2.67 643.53 1.94 641.97 1.41C640.41 0.88 638.79 0.62 637.11 0.62C633.28 0.62 630.02 1.31 627.32 2.67C624.62 4.04 622.44 5.89 620.75 8.22C619.06 10.55 617.85 13.26 617.09 16.33C616.33 19.4 615.96 22.64 615.96 26.05C615.96 29.46 616.34 32.71 617.09 35.8C617.85 38.89 619.07 41.61 620.75 43.94C622.43 46.27 624.62 48.14 627.32 49.53C630.01 50.92 633.28 51.61 637.11 51.61C640.69 51.61 643.84 50.69 646.58 48.86C649.32 47.03 651.48 44.41 653.08 41L652.38 50.53C651.5 49.27 650.34 48.64 648.91 48.64C648.24 48.64 647.62 48.83 647.05 49.21C646.48 49.59 645.75 50 644.84 50.44C643.94 50.88 642.77 51.29 641.34 51.67C639.91 52.05 637.99 52.26 635.59 52.3H634.14C630.23 52.3 626.76 51.63 623.75 50.28C620.74 48.93 618.22 47.08 616.18 44.72C614.14 42.36 612.58 39.59 611.51 36.39C610.44 33.19 609.9 29.74 609.9 26.04L609.91 26.07Z" fill="white"/>
<path d="M679.04 25.9498C679.04 17.9098 681.73 11.4298 687.12 6.50977C689.48 4.31977 691.99 2.68977 694.66 1.61977C697.33 0.549766 700.31 0.00976562 703.59 0.00976562C706.87 0.00976562 709.9 0.609766 712.81 1.80977C715.71 3.00977 718.37 4.84977 720.76 7.32977C725.47 12.2098 727.83 18.3798 727.83 25.8298C727.83 29.6598 727.24 33.1398 726.06 36.2798C724.88 39.4198 723.09 42.2498 720.69 44.7698C718.33 47.2098 715.64 49.0898 712.61 50.3898C709.58 51.6898 706.44 52.3498 703.2 52.3498C699.96 52.3498 696.81 51.7298 693.89 50.4898C690.96 49.2498 688.34 47.4298 686.03 45.0298C681.36 40.1498 679.02 33.7898 679.02 25.9598L679.04 25.9498ZM685.22 25.7598C685.22 28.7498 685.48 31.7898 686.01 34.8798C686.54 37.9698 687.47 40.7698 688.82 43.2798C690.17 45.7798 692.01 47.8398 694.34 49.4398C696.68 51.0398 699.63 51.8398 703.21 51.8398C706.79 51.8398 709.9 51.1198 712.3 49.6898C714.7 48.2598 716.59 46.3798 717.98 44.0398C719.37 41.6998 720.35 39.0398 720.92 36.0498C721.49 33.0598 721.77 30.0098 721.77 26.8998C721.77 17.5598 719.88 10.5498 716.09 5.87977C714.58 3.89977 712.8 2.50977 710.76 1.70977C708.72 0.909766 706.33 0.509766 703.59 0.509766C699.97 0.509766 696.97 1.24977 694.59 2.71977C692.21 4.18977 690.33 6.11977 688.94 8.49977C687.55 10.8798 686.58 13.5698 686.04 16.5798C685.49 19.5898 685.22 22.6498 685.22 25.7698V25.7598Z" fill="white"/>
<path d="M755.87 51.0701C756.12 50.8601 756.36 50.6501 756.6 50.4401C756.84 50.2301 757.05 49.9601 757.26 49.6201C757.6 49.0301 757.86 48.2301 758.05 47.2201C758.24 46.2101 758.33 44.8401 758.33 43.1201V9.09014C758.33 5.47014 757.85 3.09014 756.88 1.96014C756.71 1.83014 756.56 1.70014 756.44 1.55014C756.31 1.40014 756.15 1.27014 755.94 1.14014H765.98C765.05 1.73014 764.32 2.49014 763.77 3.41014C763.69 3.58014 763.59 3.81014 763.49 4.10014C763.38 4.39014 763.3 4.79014 763.24 5.30014C763.18 5.81014 763.12 6.44014 763.08 7.19014C763.04 7.95014 763.02 8.87014 763.02 9.97014V43.1101C763.02 45.4701 763.27 47.1501 763.78 48.1601C764.33 49.0001 765.04 49.6101 765.93 49.9901C766.1 50.0701 766.31 50.1501 766.56 50.2101C766.81 50.2701 767.18 50.3301 767.66 50.3701C768.14 50.4101 768.78 50.4401 769.55 50.4601C770.33 50.4801 771.31 50.4901 772.49 50.4901H776.34C778.49 50.4901 780.3 50.4201 781.77 50.2701C783.24 50.1201 784.44 49.8601 785.37 49.4801C785.79 49.3101 786.29 49.0801 786.85 48.7901C787.42 48.5001 787.96 48.1501 788.49 47.7501C789.02 47.3501 789.51 46.9301 789.97 46.4901C790.43 46.0501 790.77 45.6201 790.98 45.2001L789.15 51.0701H755.88H755.87Z" fill="white"/>
<path d="M817.04 51.0701C817.29 50.8601 817.53 50.6501 817.77 50.4401C818.01 50.2301 818.22 49.9601 818.43 49.6201C818.77 49.0301 819.03 48.2301 819.22 47.2201C819.41 46.2101 819.5 44.8401 819.5 43.1201V9.09014C819.5 5.47014 819.02 3.09014 818.05 1.96014C817.88 1.83014 817.73 1.70014 817.61 1.55014C817.48 1.40014 817.32 1.27014 817.11 1.14014H827.15C826.22 1.73014 825.49 2.49014 824.94 3.41014C824.86 3.58014 824.76 3.81014 824.66 4.10014C824.55 4.39014 824.47 4.79014 824.41 5.30014C824.35 5.81014 824.29 6.44014 824.25 7.19014C824.21 7.95014 824.19 8.87014 824.19 9.97014V43.1101C824.19 45.4701 824.44 47.1501 824.95 48.1601C825.5 49.0001 826.21 49.6101 827.1 49.9901C827.27 50.0701 827.48 50.1501 827.73 50.2101C827.98 50.2701 828.35 50.3301 828.83 50.3701C829.31 50.4101 829.95 50.4401 830.72 50.4601C831.5 50.4801 832.48 50.4901 833.66 50.4901H837.51C839.66 50.4901 841.47 50.4201 842.94 50.2701C844.41 50.1201 845.61 49.8601 846.54 49.4801C846.96 49.3101 847.46 49.0801 848.02 48.7901C848.59 48.5001 849.13 48.1501 849.66 47.7501C850.19 47.3501 850.68 46.9301 851.14 46.4901C851.6 46.0501 851.94 45.6201 852.15 45.2001L850.32 51.0701H817.05H817.04Z" fill="white"/>
<path d="M878.15 51.0701C879.03 50.4801 879.67 49.7001 880.04 48.7301C880.12 48.3901 880.24 47.8501 880.39 47.0901C880.54 46.3301 880.61 45.0301 880.61 43.1801V8.90014C880.61 7.68014 880.57 6.66014 880.48 5.84014C880.4 5.02014 880.28 4.34014 880.13 3.79014C879.98 3.24014 879.82 2.82014 879.66 2.53014C879.49 2.24014 879.34 2.00014 879.22 1.84014C879.09 1.76014 878.97 1.64014 878.84 1.49014C878.71 1.34014 878.59 1.23014 878.46 1.14014H910.91L911.16 5.81014C911.08 5.60014 910.99 5.42014 910.91 5.27014C910.83 5.12014 910.74 4.99014 910.66 4.86014C910.11 3.98014 909.54 3.31014 908.96 2.87014C908.37 2.43014 907.74 2.12014 907.07 1.95014C906.4 1.78014 905.69 1.70014 904.96 1.70014H885.23V24.6801H899.65C900.3 24.6801 900.95 24.6401 901.61 24.5501C902.27 24.4601 902.89 24.3201 903.5 24.1101C904.11 23.9001 904.65 23.5801 905.11 23.1601C905.45 22.9101 905.72 22.6301 905.93 22.3401C906.14 22.0501 906.35 21.7301 906.56 21.3901V28.4601C905.93 27.2801 904.98 26.4201 903.72 25.8701C902.71 25.3701 901.75 25.1201 900.85 25.1401C899.94 25.1601 898.92 25.1701 897.79 25.1701H885.23V50.4901H903.85C905.07 50.4901 906.12 50.3701 907.01 50.1401C907.9 49.9101 908.69 49.5601 909.41 49.1001C910.13 48.6401 910.8 48.0701 911.43 47.4001C912.06 46.7301 912.71 45.9501 913.39 45.0601L911.24 51.0601H878.16L878.15 51.0701Z" fill="white"/>
<path d="M937.68 26.07C937.68 22.41 938.22 18.99 939.29 15.81C940.36 12.63 941.92 9.88 943.96 7.54C946 5.2 948.53 3.36 951.54 2.02C954.55 0.67 958.01 0 961.93 0H963.38C965.4 0 967.11 0.19 968.52 0.57C969.93 0.95 971.13 1.36 972.12 1.8C973.11 2.24 973.95 2.65 974.65 3.03C975.35 3.41 976.03 3.6 976.7 3.6C977.46 3.6 978.12 3.42 978.69 3.06C979.26 2.7 979.75 2.23 980.17 1.64L980.86 11.17C980.06 9.66 979.08 8.26 977.92 6.97C976.76 5.69 975.5 4.57 974.13 3.62C972.76 2.67 971.3 1.94 969.74 1.41C968.18 0.88 966.56 0.62 964.88 0.62C961.05 0.62 957.79 1.31 955.09 2.67C952.4 4.04 950.21 5.89 948.52 8.22C946.84 10.56 945.62 13.26 944.86 16.33C944.1 19.4 943.72 22.64 943.72 26.05C943.72 29.46 944.1 32.71 944.86 35.8C945.62 38.89 946.84 41.61 948.52 43.94C950.2 46.28 952.39 48.14 955.09 49.53C957.78 50.92 961.05 51.61 964.88 51.61C968.46 51.61 971.61 50.69 974.35 48.86C977.09 47.03 979.25 44.41 980.85 41L980.16 50.53C979.28 49.27 978.12 48.64 976.69 48.64C976.02 48.64 975.4 48.83 974.83 49.21C974.26 49.59 973.53 50 972.62 50.44C971.71 50.88 970.55 51.29 969.12 51.67C967.69 52.05 965.77 52.26 963.37 52.3H961.92C958.01 52.3 954.54 51.63 951.53 50.28C948.52 48.93 946 47.08 943.95 44.72C941.91 42.36 940.35 39.59 939.28 36.39C938.21 33.19 937.67 29.74 937.67 26.04L937.68 26.07Z" fill="white"/>
<path d="M1006.81 1.13988H1047.21L1047.4 6.43988C1046.9 5.51988 1046.31 4.74988 1045.63 4.13988C1044.96 3.52988 1044.22 3.04988 1043.42 2.68988C1042.62 2.32988 1041.76 2.07988 1040.83 1.92988C1039.9 1.77988 1038.96 1.70988 1037.99 1.70988H1029.15V43.3799C1029.15 46.9999 1029.63 49.3099 1030.6 50.3199C1030.85 50.6599 1031.15 50.9099 1031.48 51.0799H1022.14C1022.64 50.6999 1023.04 50.2799 1023.34 49.8199C1024.14 48.7699 1024.54 46.6199 1024.54 43.3799V1.69988H1016.78C1015.73 1.69988 1014.74 1.72988 1013.81 1.78988C1012.88 1.84988 1012.02 2.01988 1011.22 2.29988C1010.42 2.56988 1009.66 2.96988 1008.95 3.49988C1008.23 4.02988 1007.56 4.74988 1006.93 5.67988C1006.85 5.75988 1006.78 5.85988 1006.74 5.95988C1006.7 6.06988 1006.64 6.15988 1006.55 6.23988L1006.8 1.12988L1006.81 1.13988Z" fill="white"/>
<path d="M1083.14 1.13988C1082.93 1.30988 1082.72 1.48988 1082.51 1.67988C1082.3 1.86988 1082.13 2.06988 1082.01 2.27988C1081.13 3.32988 1080.68 5.60988 1080.68 9.09988V43.1299C1080.68 45.0199 1080.75 46.3799 1080.9 47.1999C1081.05 48.0199 1081.16 48.5999 1081.25 48.9399C1081.63 49.8199 1082.28 50.5399 1083.21 51.0899H1073.61C1074.07 50.8399 1074.45 50.4799 1074.75 50.0199C1075.59 48.9299 1076.01 46.6299 1076.01 43.1399V9.08988C1076.01 7.19988 1075.95 5.84988 1075.82 5.04988C1075.69 4.24988 1075.57 3.67988 1075.44 3.33988C1075.06 2.45988 1074.43 1.71988 1073.55 1.12988H1083.15L1083.14 1.13988Z" fill="white"/>
<path d="M1108.96 1.14012H1120.2C1120.07 1.27012 1119.95 1.35012 1119.82 1.39012C1119.36 1.85012 1118.98 2.36012 1118.68 2.91012C1118.39 3.46012 1118.24 4.09012 1118.24 4.80012C1118.24 5.51012 1118.41 6.42012 1118.75 7.51012C1119.09 8.60012 1119.57 9.89012 1120.2 11.3601L1134.85 45.2601L1148.55 11.7401C1149.26 10.1401 1149.77 8.78012 1150.06 7.67012C1150.35 6.55012 1150.5 5.64012 1150.5 4.92012C1150.5 3.74012 1149.97 2.69012 1148.92 1.76012C1148.79 1.68012 1148.67 1.57012 1148.54 1.44012C1148.41 1.31012 1148.25 1.21012 1148.03 1.12012H1155.67C1154.45 1.96012 1153.43 3.02012 1152.61 4.31012C1151.79 5.59012 1151.11 6.91012 1150.56 8.26012L1132.69 51.8801L1113.56 7.69012C1112.84 6.09012 1112.33 4.99012 1112.01 4.38012C1111.69 3.77012 1111.43 3.36012 1111.22 3.15012C1110.67 2.39012 1109.91 1.72012 1108.95 1.13012L1108.96 1.14012Z" fill="white"/>
<path d="M1181.43 51.0701C1182.31 50.4801 1182.95 49.7001 1183.32 48.7301C1183.4 48.3901 1183.52 47.8501 1183.67 47.0901C1183.82 46.3301 1183.89 45.0301 1183.89 43.1801V8.90014C1183.89 7.68014 1183.85 6.66014 1183.76 5.84014C1183.68 5.02014 1183.56 4.34014 1183.41 3.79014C1183.26 3.24014 1183.1 2.82014 1182.94 2.53014C1182.77 2.24014 1182.62 2.00014 1182.5 1.84014C1182.37 1.76014 1182.25 1.64014 1182.12 1.49014C1181.99 1.34014 1181.87 1.23014 1181.74 1.14014H1214.19L1214.44 5.81014C1214.36 5.60014 1214.27 5.42014 1214.19 5.27014C1214.11 5.12014 1214.02 4.99014 1213.94 4.86014C1213.39 3.98014 1212.82 3.31014 1212.24 2.87014C1211.65 2.43014 1211.02 2.12014 1210.35 1.95014C1209.68 1.78014 1208.97 1.70014 1208.24 1.70014H1188.51V24.6801H1202.93C1203.58 24.6801 1204.23 24.6401 1204.89 24.5501C1205.55 24.4601 1206.17 24.3201 1206.78 24.1101C1207.39 23.9001 1207.93 23.5801 1208.39 23.1601C1208.73 22.9101 1209 22.6301 1209.21 22.3401C1209.42 22.0501 1209.63 21.7301 1209.84 21.3901V28.4601C1209.21 27.2801 1208.26 26.4201 1207 25.8701C1205.99 25.3701 1205.03 25.1201 1204.13 25.1401C1203.22 25.1601 1202.2 25.1701 1201.07 25.1701H1188.51V50.4901H1207.13C1208.35 50.4901 1209.4 50.3701 1210.29 50.1401C1211.18 49.9101 1211.97 49.5601 1212.69 49.1001C1213.41 48.6401 1214.08 48.0701 1214.71 47.4001C1215.34 46.7301 1215.99 45.9501 1216.67 45.0601L1214.52 51.0601H1181.44L1181.43 51.0701Z" fill="white"/>
</g>
</g>
<defs>
<clipPath id="clip0_121_155">
<rect width="1216.66" height="52.34" fill="white"/>
</clipPath>
</defs>
</svg>
